<svg height="100%" width="100%" xmlns="http://www.w3.org/2000/svg" viewBox="0 0 25 25">
<path fill="currentColor" d="M1.37287+4.31934C1.37287+4.31934+3.8158+4.16301+7.07643+4.84982C10.3371+5.53662+12.3305+7.04927+12.3305+7.04927C12.3305+7.04927+12.5562+4.55344+14.6424+2.99389C16.7287+1.43435+18.3954+1.51662+18.3954+1.51662L18.4332+17.1612C18.4332+17.1612+16.7755+17.4981+15.4421+18.6648C14.1087+19.8315+12.4906+23.4426+12.4906+23.4426C12.4906+23.4426+10.834+22.4422+7.64442+21.5695C4.45481+20.6967+1.29967+20.8588+1.29967+20.8588L1.37287+4.31934Z"/>
<path stroke="currentColor" fill="none" stroke-width="1.5" stroke-linecap="round" d="M18.5235+4.66433C20.0158+4.38411+21.8154+4.30091+22.8276+4.27033C23.8397+4.23975+23.7023+4.52377+23.7154+5.11609C23.7285+5.70841+23.7288+19.038+23.7288+20.0422C23.7288+21.0465+23.7079+20.9088+22.6834+21.0574C20.442+21.1774+15.9834+21.162+12.5113+23.7341C8.86184+20.9888+3.71033+21.1521+2.19924+21.0502C0.944369+20.9657+1.28598+20.6053+1.26747+20.1234C1.24895+19.6416+1.2782+5.62207+1.2782+5.029C1.2782+4.43593+1.13493+4.20951+2.19875+4.24915C4.58482+4.33804+8.97048+4.67027+11.8612+6.45535C12.5639+6.93207+12.4446+7.39506+12.4626+7.97771C12.4805+8.56036+12.4308+13.7175+12.4308+13.7175L12.4724+23.3274C13.5824+18.5432+17.2513+17.7635+17.855+17.5472C18.6354+17.2676+18.4477+17.3792+18.4596+16.6732C18.4714+15.9671+18.4907+2.82709+18.4907+2.08437C18.4907+1.34166+18.3425+1.12542+17.3195+1.43595C16.1358+1.79531+13.593+2.93385+12.5585+6.76393" stroke-linejoin="round"/>
</svg>
