<svg width="18" height="18" viewBox="0 0 18 18" fill="none" xmlns="http://www.w3.org/2000/svg">
<path fill-rule="evenodd" clip-rule="evenodd" d="M0.137447 0.536669C0.301233 0.251031 0.581277 0.0596981 0.907199 0.0107525C0.986579 -0.00116353 16.9778 -0.00454753 17.0689 0.00733247C17.4055 0.0512381 17.6949 0.244248 17.8625 0.536655C17.926 0.647326 17.9783 0.803307 17.9898 0.916008C17.9925 0.942641 17.9976 0.962701 18.001 0.960584C18.0045 0.958424 18.0064 4.47745 18.0054 8.99416L18.0036 17.0316L18 10.224C17.998 6.47981 17.9956 3.4265 17.9946 3.43885C17.99 3.49615 17.9688 3.59242 17.9454 3.66244C17.8171 4.04607 17.4842 4.32169 17.082 4.37739C17.0403 4.38318 15.2818 4.38579 10.7064 4.38688L4.3884 4.38839L4.38689 10.7064C4.38579 15.2808 4.38318 17.0403 4.37741 17.082C4.35506 17.2434 4.29875 17.392 4.20823 17.5284C4.07966 17.7222 3.88379 17.872 3.6629 17.9454C3.63681 17.9541 3.61765 17.9613 3.59813 17.9672C3.49662 17.9981 3.385 17.9958 2.2356 17.9982C1.34901 18.0001 0.985254 17.9985 0.935999 17.9927C0.449545 17.9347 0.0711855 17.5583 0.00734311 17.0689C-0.00289529 16.9904 -0.00289529 1.00961 0.00734311 0.931107C0.0252711 0.793702 0.0729423 0.649169 0.137447 0.536669ZM0.00539911 13.0194C0.00440551 15.2301 0.00358471 13.4213 0.00358471 8.99999C0.00358471 4.57865 0.00440551 2.76992 0.00539911 4.98059C0.00639271 7.19126 0.00639271 10.8087 0.00539911 13.0194ZM0.986399 1.0307L1.00855 1.00854L1.03071 0.986389H2.21818H3.40564L3.40382 2.19419L3.402 3.40199L2.1942 3.40381L0.986399 3.40563V2.21816V1.0307ZM4.3884 3.40199L4.38658 2.19419L4.38476 0.986389H10.677H16.9693L16.9914 1.00854L17.0136 1.0307V2.19197C17.0136 3.35096 17.0136 3.35328 16.9989 3.37197C16.9908 3.38227 16.9721 3.39403 16.9575 3.3981C16.9395 3.40308 16.3634 3.40552 15.1978 3.40555L13.4648 3.40559L13.4621 3.03659C13.4599 2.72513 13.46 2.65647 13.4374 2.59627C13.4303 2.57726 13.421 2.55909 13.4085 2.53439C13.3558 2.42942 13.2334 2.32616 13.1161 2.2875C13.0543 2.26717 12.8972 2.26575 12.834 2.28495C12.7527 2.30966 12.6944 2.34598 12.6246 2.41536C12.5711 2.46861 12.5538 2.49147 12.5294 2.54159C12.4799 2.64346 12.4776 2.66617 12.4776 3.05969V3.40559H10.7034H8.92924L8.92608 3.04019C8.92338 2.72883 8.92309 2.65786 8.89933 2.5959C8.8919 2.57654 8.88218 2.55806 8.86938 2.53339C8.82044 2.43911 8.72646 2.35029 8.63092 2.30804C8.52018 2.25907 8.36606 2.25579 8.25639 2.30008C8.13231 2.35019 8.02346 2.45577 7.97695 2.57115C7.9438 2.65338 7.94212 2.67635 7.94185 3.051L7.9416 3.40562L6.165 3.4038L4.3884 3.40199ZM0.986399 16.9693V10.677V4.38475L2.1942 4.38657L3.402 4.38839L3.40381 6.16499L3.40563 7.94159L3.05101 7.94184C2.67636 7.94211 2.65339 7.94379 2.57116 7.97694C2.45578 8.02345 2.3502 8.13229 2.30009 8.25638C2.2558 8.36605 2.25908 8.52017 2.30805 8.63091C2.3503 8.72645 2.43912 8.82043 2.5334 8.86937C2.55825 8.88226 2.57682 8.89204 2.59628 8.8995C2.65822 8.92323 2.72916 8.92347 3.0402 8.92607L3.4056 8.92913V10.7034V12.4776H3.0597C2.66618 12.4776 2.64347 12.4799 2.5416 12.5294C2.49148 12.5538 2.46862 12.571 2.41537 12.6246C2.34599 12.6944 2.30967 12.7527 2.28496 12.834C2.26576 12.8972 2.26718 13.0543 2.28751 13.116C2.33795 13.2692 2.47355 13.4012 2.628 13.4475C2.662 13.4577 2.71981 13.4598 3.0366 13.4621L3.4056 13.4648L3.40556 15.1978C3.40553 16.3633 3.40309 16.9395 3.39811 16.9575C3.39404 16.9721 3.38228 16.9908 3.37198 16.9989C3.35329 17.0136 3.35097 17.0136 2.19198 17.0136H1.03071L1.00855 16.9914L0.986399 16.9693ZM6.24469 9.33118C6.34556 9.2782 11.4589 7.02673 11.5078 7.01376C11.5762 6.99563 11.6799 6.99541 11.7496 7.01324C11.7839 7.02201 12.7055 7.43087 14.323 8.15484C15.709 8.77521 16.8689 9.2951 16.9006 9.31017C17.0347 9.37392 17.1222 9.47145 17.169 9.6096L17.1886 9.6672L17.1907 10.5852C17.1929 11.5379 17.1919 11.5755 17.1628 11.6633C17.1277 11.769 17.0224 11.8865 16.9157 11.9391C16.8 11.9962 16.6591 12.0049 16.5366 11.9627C16.3725 11.9061 16.2443 11.7583 16.2136 11.5901C16.2085 11.562 16.2058 11.3713 16.2058 11.0333C16.2058 10.7427 16.2031 10.5202 16.1995 10.5216C16.196 10.5229 15.9078 10.6519 15.5589 10.8082L14.9245 11.0924L14.9225 12.4678C14.9205 13.7798 14.9241 13.8727 14.8884 13.9466C14.882 13.9597 14.8745 13.9722 14.8654 13.9908C14.8395 14.0441 14.8243 14.0632 14.7485 14.1386C14.4148 14.4705 13.7991 14.8562 13.2585 15.072C12.3245 15.4448 11.367 15.4926 10.4026 15.2146C9.81626 15.0456 9.21458 14.7416 8.69875 14.3536C8.45123 14.1675 8.36058 14.0793 8.31293 13.9783C8.30652 13.9647 8.30103 13.9552 8.29632 13.9452C8.26536 13.8798 8.26793 13.7985 8.26434 12.4685L8.2606 11.0794L7.2634 10.6393C6.71494 10.3973 6.25041 10.19 6.2311 10.1786C6.1419 10.1261 6.06057 10.0242 6.02201 9.91645C6.00145 9.85902 5.99981 9.84744 6 9.7608C6.00022 9.65476 6.01152 9.60813 6.05904 9.51707C6.09455 9.44902 6.17645 9.36703 6.24469 9.33118ZM7.71719 9.75794C7.71731 9.75555 8.59615 9.36579 9.67019 8.89178C10.7442 8.41778 11.6279 8.03107 11.6338 8.03243C11.6494 8.03597 15.474 9.7498 15.4803 9.7561C15.4872 9.76292 14.3553 10.2695 14.2814 10.2926C14.2506 10.3023 14.2032 10.3236 14.1761 10.34C14.1363 10.364 11.7165 11.4539 11.6461 11.4795C11.6279 11.4861 11.4386 11.4042 9.67147 10.6246C8.59651 10.1503 7.71708 9.76033 7.71719 9.75794ZM9.2506 13.5373V12.5284C9.2506 11.571 9.25124 11.5197 9.2632 11.5231C9.27012 11.525 9.7618 11.7413 10.3558 12.0037C10.9498 12.2661 11.4551 12.487 11.4788 12.4945C11.5778 12.526 11.691 12.5263 11.7824 12.4954C11.8016 12.4889 12.2904 12.2716 12.8686 12.0126C13.4468 11.7536 13.9239 11.5399 13.9288 11.5378C13.936 11.5348 13.9375 11.7361 13.936 12.5405L13.9342 13.547L13.8514 13.6109C13.8059 13.6459 13.7087 13.7148 13.6354 13.7638C13.1906 14.0614 12.7008 14.2661 12.2242 14.3537C11.6365 14.4616 11.0281 14.4069 10.4444 14.1936C10.0615 14.0537 9.65242 13.8346 9.33392 13.5989L9.2506 13.5373Z" fill="currentColor"/>
</svg>
