<svg width="24" height="24" viewBox="0 0 24 24" fill="none" xmlns="http://www.w3.org/2000/svg">
<path d="M19.5 23.25H3.75C3.15326 23.25 2.58097 23.0129 2.15901 22.591C1.73705 22.169 1.5 21.5967 1.5 21" stroke="currentColor" stroke-width="1.5" stroke-linecap="round" stroke-linejoin="round"/>
<path d="M19.5 11V1.5C19.5 1.30109 19.421 1.11032 19.2803 0.96967C19.1397 0.829018 18.9489 0.75 18.75 0.75H4.5C3.70435 0.75 2.94129 1.06607 2.37868 1.62868C1.81607 2.19129 1.5 2.95435 1.5 3.75V21C1.5 20.4033 1.73705 19.831 2.15901 19.409C2.58097 18.9871 3.15326 18.75 3.75 18.75H11" stroke="currentColor" stroke-width="1.5" stroke-linecap="round" stroke-linejoin="round"/>
<path d="M17.0317 11.3197L18.2797 13.7767H20.4067C20.5236 13.7744 20.6384 13.8072 20.7364 13.871C20.8344 13.9347 20.9109 14.0265 20.9561 14.1343C21.0013 14.2421 21.013 14.361 20.9897 14.4756C20.9665 14.5901 20.9093 14.695 20.8257 14.7767L18.8727 16.6987L19.9547 19.1837C20.002 19.2975 20.0125 19.4232 19.9846 19.5432C19.9568 19.6633 19.892 19.7715 19.7993 19.8528C19.7067 19.9341 19.5909 19.9842 19.4683 19.9962C19.3456 20.0082 19.2223 19.9815 19.1157 19.9197L16.5007 18.4477L13.8857 19.9177C13.7791 19.9795 13.6557 20.0062 13.5331 19.9942C13.4105 19.9822 13.2947 19.9321 13.202 19.8508C13.1094 19.7695 13.0446 19.6613 13.0167 19.5412C12.9889 19.4212 12.9993 19.2955 13.0467 19.1817L14.1287 16.6967L12.1757 14.7737C12.0921 14.692 12.0349 14.5871 12.0117 14.4726C11.9884 14.358 12.0001 14.2391 12.0453 14.1313C12.0905 14.0235 12.167 13.9317 12.265 13.868C12.3629 13.8042 12.4778 13.7714 12.5947 13.7737H14.7217L15.9707 11.3197C16.0217 11.2232 16.098 11.1424 16.1915 11.0861C16.285 11.0298 16.392 11 16.5012 11C16.6103 11 16.7174 11.0298 16.8109 11.0861C16.9044 11.1424 16.9807 11.2232 17.0317 11.3197V11.3197Z" stroke="currentColor" stroke-width="1.5" stroke-linecap="round" stroke-linejoin="round"/>
<path d="M17.0317 11.3197L18.2797 13.7767H20.4067C20.5236 13.7744 20.6384 13.8072 20.7364 13.871C20.8344 13.9347 20.9109 14.0265 20.9561 14.1343C21.0013 14.2421 21.013 14.361 20.9897 14.4756C20.9665 14.5901 20.9093 14.695 20.8257 14.7767L18.8727 16.6987L19.9547 19.1837C20.002 19.2975 20.0125 19.4232 19.9846 19.5432C19.9568 19.6633 19.892 19.7715 19.7993 19.8528C19.7067 19.9341 19.5909 19.9842 19.4683 19.9962C19.3456 20.0082 19.2223 19.9815 19.1157 19.9197L16.5007 18.4477L13.8857 19.9177C13.7791 19.9795 13.6557 20.0062 13.5331 19.9942C13.4105 19.9822 13.2947 19.9321 13.202 19.8508C13.1094 19.7695 13.0446 19.6613 13.0167 19.5412C12.9889 19.4212 12.9993 19.2955 13.0467 19.1817L14.1287 16.6967L12.1757 14.7737C12.0921 14.692 12.0349 14.5871 12.0117 14.4726C11.9884 14.358 12.0001 14.2391 12.0453 14.1313C12.0905 14.0235 12.167 13.9317 12.265 13.868C12.3629 13.8042 12.4778 13.7714 12.5947 13.7737H14.7217L15.9707 11.3197C16.0217 11.2232 16.098 11.1424 16.1915 11.0861C16.285 11.0298 16.392 11 16.5012 11C16.6103 11 16.7174 11.0298 16.8109 11.0861C16.9044 11.1424 16.9807 11.2232 17.0317 11.3197Z" fill="currentColor"/>
</svg>
