<svg xmlns="http://www.w3.org/2000/svg" width="18" height="18" viewBox="0 0 18 18" fill="none">
  <path fill-rule="evenodd" clip-rule="evenodd" d="M7.12502 0.54373C6.60137 0.594202 6.12972 0.756173 5.69942 1.03331C5.39453 1.22967 5.11057 1.49384 4.88978 1.78651C4.6011 2.16916 4.39507 2.63497 4.31087 3.09533L4.29421 3.18643L3.11401 3.19031C2.03139 3.19386 1.92757 3.19524 1.85822 3.20687C1.49997 3.267 1.20448 3.42075 0.960729 3.67388C0.752843 3.88977 0.614797 4.16112 0.553057 4.47523L0.537491 4.55443L0.535094 10.2784C0.533366 14.4215 0.534899 16.0243 0.540659 16.0816C0.575543 16.4288 0.735095 16.762 0.987045 17.014C1.23837 17.2653 1.56428 17.4214 1.91942 17.4604C1.96074 17.4649 2.78383 17.4675 4.19102 17.4674C6.64861 17.4674 6.44697 17.4717 6.55982 17.4161C6.63947 17.3769 6.7303 17.2884 6.77082 17.2106C6.85295 17.0529 6.84371 16.8537 6.74775 16.7129C6.68551 16.6215 6.5967 16.5523 6.49502 16.516L6.44822 16.4992L4.22342 16.4956L1.99862 16.492L1.94102 16.4758C1.73566 16.4182 1.58373 16.2662 1.52533 16.06L1.50902 16.0024L1.50696 10.3792C1.50555 6.51903 1.50725 4.73381 1.5124 4.68518C1.5277 4.54054 1.57641 4.44162 1.68491 4.33483C1.76198 4.25897 1.82767 4.21891 1.92302 4.18962L1.97702 4.17303L3.40622 4.16912C5.00105 4.16475 4.85684 4.16985 4.96862 4.11385C5.04449 4.07584 5.14201 3.97819 5.17934 3.90283C5.21909 3.82258 5.2274 3.77957 5.23512 3.6139C5.23893 3.53221 5.24714 3.42853 5.25338 3.3835C5.34551 2.71811 5.74408 2.12839 6.32692 1.79513C6.58826 1.6457 6.88938 1.5492 7.18622 1.51973C7.30651 1.50778 7.53201 1.50951 7.65062 1.52329C8.259 1.59394 8.78942 1.90313 9.16087 2.40366C9.33207 2.63434 9.4674 2.93858 9.52914 3.23156C9.55505 3.35452 9.56844 3.46992 9.5757 3.63283C9.58137 3.75993 9.5844 3.78359 9.60151 3.83443C9.64463 3.96252 9.73502 4.06314 9.86122 4.12351C9.96186 4.17165 9.88041 4.16922 11.4007 4.16928C12.3234 4.16932 12.7923 4.17182 12.8234 4.17686C12.8867 4.18714 12.9841 4.22484 13.0362 4.2593C13.1288 4.32048 13.2175 4.42669 13.257 4.52365C13.3002 4.62997 13.299 4.60122 13.299 5.52294C13.299 6.09672 13.3015 6.38261 13.3069 6.41784C13.3338 6.59502 13.4687 6.75185 13.641 6.80646C13.7138 6.8295 13.8635 6.8295 13.9362 6.80646C14.0802 6.76084 14.2056 6.63682 14.2551 6.49123L14.2746 6.43363V5.51923C14.2746 4.67235 14.2737 4.59871 14.2616 4.52203C14.1906 4.07041 13.9511 3.69512 13.5762 3.4478C13.3629 3.30705 13.1112 3.21959 12.8562 3.19762C12.8014 3.1929 12.3578 3.19015 11.6427 3.1901L10.5155 3.19003L10.4992 3.10091C10.4657 2.9173 10.4054 2.70842 10.3327 2.52403C10.0444 1.79294 9.48536 1.18949 8.78102 0.849262C8.44576 0.68732 8.13538 0.597054 7.75502 0.550887C7.62213 0.534752 7.26072 0.530648 7.12502 0.54373ZM7.32302 2.67209C6.97181 2.70739 6.68312 3.00054 6.65496 3.35049C6.62988 3.66198 6.78137 3.94329 7.05127 4.08642C7.34516 4.24227 7.70318 4.18731 7.93879 3.95017C8.19188 3.69544 8.22946 3.30508 8.02996 3.00314C7.87699 2.77163 7.60408 2.64383 7.32302 2.67209ZM4.15142 7.45942C4.03659 7.47298 3.95484 7.51421 3.8663 7.60323C3.79083 7.6791 3.75082 7.75257 3.73277 7.84843C3.68715 8.09071 3.82062 8.32245 4.0539 8.40599L4.11542 8.42803L7.37702 8.42991C11.0173 8.43201 10.6993 8.43664 10.8144 8.37992C10.8636 8.35567 10.8889 8.33684 10.9384 8.28759C10.9907 8.23548 11.0057 8.21499 11.0333 8.15767C11.0513 8.12025 11.0696 8.0704 11.0738 8.0469C11.086 7.97849 11.0832 7.87925 11.0672 7.81672C11.0248 7.65089 10.8838 7.51231 10.7106 7.46616C10.6809 7.45824 10.1078 7.45637 7.43462 7.45545C5.65262 7.45483 4.17518 7.45662 4.15142 7.45942ZM15.3834 7.98283C14.9551 8.00346 14.5247 8.1705 14.2026 8.44112C14.0897 8.53594 8.63278 13.9921 8.59891 14.044C8.56625 14.0941 8.54573 14.1385 8.53025 14.1927C8.5242 14.2139 8.39865 14.8339 8.25123 15.5704C8.00658 16.7929 7.98321 16.9159 7.98311 16.9816C7.98305 17.0255 7.98769 17.0719 7.995 17.1004C8.01132 17.1642 8.05801 17.2551 8.09779 17.3006C8.15826 17.3697 8.26778 17.4357 8.35789 17.4572C8.46243 17.4822 8.41819 17.4897 9.88148 17.1971C10.6255 17.0483 11.2568 16.919 11.2843 16.9097C11.4076 16.868 11.2032 17.0668 14.1259 14.1458C15.6044 12.6682 16.8578 11.4122 16.9113 11.3548C17.0751 11.1791 17.1698 11.0435 17.266 10.8472C17.362 10.6514 17.4204 10.4597 17.4535 10.2316C17.4682 10.1305 17.4704 9.88559 17.4578 9.76723C17.4085 9.3078 17.209 8.89189 16.881 8.56483C16.5317 8.21652 16.0901 8.01711 15.5974 7.98519C15.4949 7.97855 15.4765 7.97834 15.3834 7.98283ZM15.3304 8.96859C15.1659 8.99254 15.0106 9.05639 14.8722 9.15695C14.8485 9.17421 13.6189 10.3962 12.1398 11.8725L9.45062 14.5566L9.27134 15.4542C9.17273 15.9479 9.09335 16.3531 9.09494 16.3547C9.09652 16.3562 9.5012 16.2768 9.99422 16.1782L10.8906 15.9988L13.5662 13.3222C15.3439 11.5439 16.2562 10.6263 16.2848 10.588C16.4219 10.4042 16.4888 10.2047 16.4893 9.97832C16.4895 9.86494 16.4756 9.76979 16.4445 9.67235C16.3906 9.50316 16.3123 9.37718 16.1805 9.24752C15.9563 9.02694 15.6407 8.9234 15.3304 8.96859ZM4.10102 10.127C4.01105 10.1467 3.91387 10.2042 3.84955 10.2758C3.63111 10.5187 3.70649 10.8983 4.00233 11.0451C4.09583 11.0915 3.92069 11.0882 6.33806 11.0883C7.89154 11.0884 8.55034 11.0861 8.57726 11.0806C8.64155 11.0675 8.73959 11.0156 8.79337 10.9663C9.05082 10.7303 8.99276 10.3179 8.68038 10.1636C8.57747 10.1127 8.76132 10.1164 6.33435 10.117C4.55365 10.1175 4.13614 10.1193 4.10102 10.127ZM4.14046 12.7802C4.03648 12.7938 3.95138 12.8385 3.8663 12.924C3.79083 12.9999 3.75082 13.0734 3.73277 13.1692C3.71939 13.2403 3.72303 13.3376 3.74138 13.3989C3.78923 13.5588 3.91636 13.6851 4.08063 13.7359C4.12033 13.7481 4.18533 13.7488 5.27822 13.7488H6.43382L6.49142 13.7293C6.63544 13.6804 6.76074 13.5546 6.8055 13.414C6.82606 13.3494 6.83134 13.2263 6.81652 13.1567C6.78674 13.0168 6.6806 12.8848 6.54735 12.822C6.44539 12.7739 6.54179 12.7774 5.30342 12.7761C4.68566 12.7755 4.16232 12.7773 4.14046 12.7802Z" fill="currentColor"/>
</svg>
