<svg width="30" height="25" viewBox="0 0 30 25" fill="none" xmlns="http://www.w3.org/2000/svg">
<path d="M1.26352 24.4863C1.19994 24.4959 1.13534 24.5005 1.07065 24.5C0.897697 24.4999 0.727355 24.4663 0.574159 24.4021L14.9996 24.5C12.8402 24.5016 9.95785 24.1247 8 23.396L1.26352 24.4863ZM1.26352 24.4863L1.18363 23.9927L1.18655 23.9922M1.26352 24.4863L1.18887 23.9919L7.92011 22.9024L8.05056 22.8813L8.17441 22.9274C10.0594 23.6289 12.8782 24.0015 14.9993 24H14.9996C18.877 24 22.579 22.7668 25.294 20.5948C28.0063 18.4251 29.5 15.5094 29.5 12.5C29.5 9.4906 28.0063 6.57487 25.2941 4.40516L25.6064 4.01471L25.294 4.40515C22.579 2.23313 18.8771 1.00001 14.9997 1L1.18655 23.9922M1.18655 23.9922C1.14977 23.9976 1.11221 24.0003 1.07451 24L1.07094 24C0.961498 23.9999 0.857012 23.9785 0.767412 23.9409C0.67787 23.9034 0.611931 23.8535 0.568775 23.8037L0.190936 24.1312L0.568773 23.8037C0.526362 23.7548 0.508035 23.7088 0.502271 23.6719C0.496648 23.6359 0.501017 23.5968 0.520791 23.5545L0.526858 23.5415L0.532171 23.5282L2.4644 18.6853L2.56966 18.4215L2.39695 18.196C1.07451 16.4694 0.55353 14.7603 0.503602 12.7229C0.454137 10.7043 1.07727 8.70294 2.32298 6.92343L1.91337 6.63669L2.32298 6.92343C3.56982 5.14229 5.39713 3.64625 7.62766 2.60026C9.85806 1.55434 12.4031 1.00024 14.9996 1L1.18655 23.9922Z" fill="#3071E8" stroke="#3071E8"/>
</svg>
