<svg width="25" height="24" viewBox="0 0 25 24" fill="none" xmlns="http://www.w3.org/2000/svg">
<path fill-rule="evenodd" clip-rule="evenodd" d="M2.25293 1.5C2.05402 1.5 1.86325 1.57902 1.7226 1.71967C1.58195 1.86032 1.50293 2.05109 1.50293 2.25V17.25C1.50293 17.4489 1.58195 17.6397 1.7226 17.7803C1.86325 17.921 2.05402 18 2.25293 18H3.75293C4.16714 18 4.50293 18.3358 4.50293 18.75V21.7513L7.77634 19.2997C8.10788 19.0514 8.57793 19.1189 8.82623 19.4504C9.07454 19.7819 9.00706 20.252 8.67552 20.5003L4.20252 23.8503C3.97522 24.0205 3.67125 24.0478 3.41729 23.9207C3.16333 23.7936 3.00293 23.534 3.00293 23.25V19.5H2.25293C1.65619 19.5 1.0839 19.2629 0.66194 18.841C0.239983 18.419 0.00292969 17.8467 0.00292969 17.25V2.25C0.00292969 1.65326 0.239983 1.08097 0.66194 0.65901C1.0839 0.237053 1.65619 0 2.25293 0H21.7529C22.3497 0 22.922 0.237053 23.3439 0.65901C23.7659 1.08097 24.0029 1.65326 24.0029 2.25V11.25C24.0029 11.6642 23.6671 12 23.2529 12C22.8387 12 22.5029 11.6642 22.5029 11.25V2.25C22.5029 2.05109 22.4239 1.86032 22.2833 1.71967C22.1426 1.57902 21.9518 1.5 21.7529 1.5H2.25293Z" fill="white"/>
<path d="M17.9509 11.68L19.4919 15H22.4919C22.6432 14.9941 22.7927 15.035 22.9198 15.1172C23.0469 15.1994 23.1456 15.3189 23.2023 15.4593C23.259 15.5997 23.2709 15.7541 23.2365 15.9016C23.2021 16.049 23.1229 16.1822 23.0099 16.283L20.4099 18.845L21.8519 22.159C21.9149 22.3107 21.9288 22.4784 21.8916 22.6384C21.8543 22.7984 21.7679 22.9427 21.6444 23.0511C21.521 23.1595 21.3666 23.2264 21.2031 23.2425C21.0396 23.2587 20.8752 23.2232 20.7329 23.141L17.2469 21.18L13.7599 23.141C13.6177 23.2232 13.4532 23.2587 13.2897 23.2425C13.1262 23.2264 12.9719 23.1595 12.8484 23.0511C12.7249 22.9427 12.6385 22.7984 12.6013 22.6384C12.5641 22.4784 12.5779 22.3107 12.6409 22.159L14.0839 18.845L11.4839 16.283C11.3711 16.183 11.2918 16.0507 11.2568 15.9041C11.2218 15.7575 11.2328 15.6036 11.2883 15.4635C11.3438 15.3233 11.4411 15.2037 11.567 15.1207C11.6929 15.0378 11.8413 14.9957 11.9919 15H14.9919L16.5359 11.677C16.6042 11.5484 16.7062 11.4408 16.831 11.3659C16.9558 11.291 17.0988 11.2516 17.2443 11.2519C17.3899 11.2522 17.5327 11.2923 17.6572 11.3677C17.7817 11.4431 17.8832 11.5511 17.9509 11.68Z" fill="white"/>
<path fill-rule="evenodd" clip-rule="evenodd" d="M17.2427 12.0019C17.2336 12.0019 17.2247 12.0044 17.2169 12.009C17.2114 12.0124 17.2066 12.0167 17.2027 12.0218L15.6721 15.316C15.5491 15.5807 15.2838 15.75 14.9919 15.75H12.0116L14.6103 18.3108C14.8313 18.5286 14.8954 18.8599 14.7716 19.1444L13.3328 22.4487C13.3306 22.455 13.3303 22.4619 13.3318 22.4685C13.3335 22.4758 13.3375 22.4824 13.3431 22.4874C13.3488 22.4924 13.3558 22.4954 13.3633 22.4962C13.3708 22.4969 13.3784 22.4953 13.3849 22.4915L13.3923 22.4872L16.8793 20.5263C17.1076 20.3979 17.3864 20.3979 17.6146 20.5263L21.108 22.4915C21.1145 22.4952 21.122 22.4969 21.1295 22.4962C21.137 22.4954 21.1441 22.4924 21.1497 22.4874C21.1554 22.4824 21.1593 22.4758 21.1611 22.4685C21.1626 22.4619 21.1622 22.455 21.16 22.4486L19.7222 19.1442C19.5984 18.8598 19.6626 18.5285 19.8835 18.3108L22.4823 15.75H19.4919C19.2 15.75 18.9346 15.5806 18.8116 15.3158L17.283 12.0224C17.2791 12.0171 17.2742 12.0126 17.2685 12.0092C17.2608 12.0044 17.2518 12.0019 17.2427 12.0019ZM16.4451 10.7228C16.687 10.5777 16.9639 10.5013 17.2459 10.5019C17.528 10.5025 17.8045 10.5801 18.0458 10.7262C18.287 10.8724 18.4838 11.0816 18.615 11.3313C18.6206 11.3422 18.6261 11.3531 18.6312 11.3642L19.9707 14.25H22.4798C22.7795 14.2417 23.0749 14.3244 23.327 14.4874C23.5839 14.6535 23.7832 14.8948 23.8978 15.1785C24.0123 15.4621 24.0364 15.7742 23.9668 16.0721C23.8989 16.3629 23.745 16.6263 23.5254 16.828L21.3031 19.0179L22.5447 21.8714C22.6678 22.1679 22.6948 22.4956 22.6221 22.8083C22.5493 23.121 22.3804 23.4031 22.1391 23.6148C21.8978 23.8266 21.5962 23.9574 21.2767 23.9889C20.9589 24.0203 20.6391 23.9517 20.3621 23.7929L17.2469 22.0405L14.1307 23.793C13.8536 23.9518 13.534 24.0203 13.2161 23.9889C12.8966 23.9574 12.595 23.8266 12.3537 23.6148C12.1124 23.4031 11.9435 23.121 11.8708 22.8083C11.7981 22.4956 11.8252 22.168 11.9482 21.8715L11.9532 21.8595L13.1907 19.0178L10.9692 16.8287C10.7503 16.6285 10.5963 16.3671 10.5273 16.0782C10.4566 15.7818 10.4788 15.4707 10.591 15.1874C10.7032 14.904 10.8999 14.6621 11.1544 14.4944C11.4054 14.3291 11.7006 14.2439 12.0009 14.25H14.5134L15.8558 11.361C15.8613 11.349 15.8672 11.3372 15.8734 11.3255C16.0056 11.0763 16.2033 10.868 16.4451 10.7228Z" fill="white"/>
</svg>
