<svg width="25" height="24" viewBox="0 0 25 24" fill="none" xmlns="http://www.w3.org/2000/svg">
<path fill-rule="evenodd" clip-rule="evenodd" d="M2.25 1.5C2.05109 1.5 1.86032 1.57902 1.71967 1.71967C1.57902 1.86032 1.5 2.05109 1.5 2.25V17.25C1.5 17.4489 1.57902 17.6397 1.71967 17.7803C1.86032 17.921 2.05109 18 2.25 18H3.75C4.16421 18 4.5 18.3358 4.5 18.75V21.7513L7.77341 19.2997C8.10495 19.0514 8.575 19.1189 8.82331 19.4504C9.07161 19.7819 9.00413 20.252 8.67259 20.5003L4.19959 23.8503C3.97229 24.0205 3.66832 24.0478 3.41436 23.9207C3.1604 23.7936 3 23.534 3 23.25V19.5H2.25C1.65326 19.5 1.08097 19.2629 0.65901 18.841C0.237053 18.419 0 17.8467 0 17.25V2.25C0 1.65326 0.237053 1.08097 0.65901 0.65901C1.08097 0.237053 1.65326 0 2.25 0H21.75C22.3467 0 22.919 0.237053 23.341 0.65901C23.7629 1.08097 24 1.65326 24 2.25V11.25C24 11.6642 23.6642 12 23.25 12C22.8358 12 22.5 11.6642 22.5 11.25V2.25C22.5 2.05109 22.421 1.86032 22.2803 1.71967C22.1397 1.57902 21.9489 1.5 21.75 1.5H2.25Z" fill="white"/>
<path fill-rule="evenodd" clip-rule="evenodd" d="M17.2398 12.0019C17.2307 12.0019 17.2218 12.0044 17.214 12.009C17.2085 12.0124 17.2037 12.0167 17.1998 12.0218L15.6692 15.316C15.5462 15.5807 15.2808 15.75 14.989 15.75H12.0086L14.6074 18.3108C14.8284 18.5286 14.8925 18.8599 14.7686 19.1444L13.3299 22.4487C13.3277 22.455 13.3273 22.4619 13.3289 22.4685C13.3306 22.4758 13.3345 22.4824 13.3402 22.4874C13.3459 22.4924 13.3529 22.4954 13.3604 22.4962C13.3679 22.4969 13.3754 22.4953 13.3819 22.4915L13.3893 22.4872L16.8764 20.5263C17.1047 20.3979 17.3834 20.3979 17.6117 20.5263L21.1051 22.4915C21.1116 22.4952 21.1191 22.4969 21.1266 22.4962C21.1341 22.4954 21.1412 22.4924 21.1468 22.4874C21.1525 22.4824 21.1564 22.4758 21.1581 22.4685C21.1597 22.4619 21.1593 22.455 21.1571 22.4486L19.7193 19.1442C19.5955 18.8598 19.6596 18.5285 19.8806 18.3108L22.4794 15.75H19.489C19.197 15.75 18.9316 15.5806 18.8087 15.3158L17.2801 12.0224C17.2762 12.0171 17.2713 12.0126 17.2656 12.0092C17.2578 12.0044 17.2489 12.0019 17.2398 12.0019ZM16.4422 10.7228C16.6841 10.5777 16.9609 10.5013 17.243 10.5019C17.5251 10.5025 17.8016 10.5801 18.0429 10.7262C18.2841 10.8724 18.4809 11.0816 18.612 11.3313C18.6177 11.3422 18.6231 11.3531 18.6283 11.3642L19.9677 14.25H22.4768C22.7766 14.2417 23.072 14.3244 23.3241 14.4874C23.581 14.6535 23.7803 14.8948 23.8948 15.1785C24.0093 15.4621 24.0335 15.7742 23.9639 16.0721C23.896 16.3629 23.7421 16.6263 23.5224 16.828L21.3001 19.0179L22.5418 21.8714C22.6649 22.1679 22.6919 22.4956 22.6191 22.8083C22.5464 23.121 22.3775 23.4031 22.1362 23.6148C21.8949 23.8266 21.5933 23.9574 21.2738 23.9889C20.9559 24.0203 20.6362 23.9517 20.3592 23.7929L17.2439 22.0405L14.1277 23.793C13.8507 23.9518 13.531 24.0203 13.2132 23.9889C12.8937 23.9574 12.5921 23.8266 12.3508 23.6148C12.1095 23.4031 11.9406 23.121 11.8679 22.8083C11.7951 22.4956 11.8222 22.168 11.9453 21.8715L11.9503 21.8595L13.1878 19.0178L10.9662 16.8287C10.7474 16.6285 10.5933 16.3671 10.5244 16.0782C10.4536 15.7818 10.4759 15.4707 10.5881 15.1874C10.7003 14.904 10.897 14.6621 11.1515 14.4944C11.4025 14.3291 11.6976 14.2439 11.9979 14.25H14.5105L15.8528 11.361C15.8584 11.349 15.8643 11.3372 15.8705 11.3255C16.0026 11.0763 16.2003 10.868 16.4422 10.7228Z" fill="white"/>
</svg>
