<svg width="20" height="20" viewBox="0 0 20 20" fill="none" xmlns="http://www.w3.org/2000/svg">
  <path fill-rule="evenodd" clip-rule="evenodd"
        d="M2.82293 1.75C2.82194 1.75119 2.82091 1.75248 2.81983 1.75386C2.78821 1.79444 2.75 1.8814 2.75 2V18C2.75 18.1186 2.78821 18.2055 2.81983 18.2461C2.82091 18.2475 2.82194 18.2488 2.82293 18.25H11.3695C11.3966 18.25 11.4234 18.25 11.45 18.25L11.45 16.2754C11.4501 15.1563 12.3844 14.2988 13.475 14.2988H15.2713C15.2721 13.5031 15.2707 12.2764 15.2697 11.3437C15.2692 10.8517 15.2687 10.4415 15.2687 10.2195C15.2687 9.80529 15.6045 9.46951 16.0187 9.46951C16.4329 9.46951 16.7687 9.80529 16.7687 10.2195C16.7687 10.4345 16.7691 10.8349 16.7697 11.318C16.7707 12.2502 16.7721 13.4901 16.7713 14.2988H16.7736L16.7751 15.0473L16.7688 15.0473C16.7688 15.0472 16.7688 15.0474 16.7688 15.0473C16.7751 15.0473 16.7751 15.0473 16.7751 15.0473L16.7751 15.0489L16.7751 15.0512L16.775 15.0583L16.7749 15.0818C16.7746 15.1014 16.7742 15.1289 16.7733 15.1635C16.7718 15.2245 16.7689 15.3078 16.7634 15.4085C16.7464 16.3033 16.7025 16.9102 16.5612 17.3743C16.3859 17.9504 16.0691 18.2772 15.7479 18.6085C15.7366 18.6202 15.7252 18.6319 15.7139 18.6436C15.1773 19.1978 14.611 19.4898 13.8821 19.6272C13.7687 19.6486 13.6509 19.6663 13.5284 19.6808C13.0467 19.751 12.6051 19.7504 12.2803 19.7501C12.2573 19.75 12.2348 19.75 12.213 19.75H11.45C11.4471 19.75 11.4442 19.75 11.4412 19.75L2.77917 19.75C2.30461 19.75 1.90065 19.5069 1.6366 19.1681C1.37597 18.8336 1.25 18.4118 1.25 18V2C1.25 1.58816 1.37597 1.16642 1.6366 0.831925C1.90064 0.493045 2.30461 0.25 2.77917 0.25H12.2C12.6142 0.25 12.95 0.585786 12.95 1C12.95 1.41421 12.6142 1.75 12.2 1.75H2.82293ZM15.2259 15.7988H13.475C13.1574 15.7988 12.95 16.039 12.95 16.2754C12.95 16.2754 12.95 16.2754 12.95 16.2754L12.95 18.2258C13.0623 18.2195 13.1669 18.2114 13.2653 18.2013C13.7899 18.1341 14.2707 17.9756 14.6326 17.6039C14.6338 17.6027 14.635 17.6015 14.6361 17.6003C14.8878 17.3403 15.0759 16.7831 15.1799 16.1354C15.1987 16.0187 15.2138 15.9055 15.2259 15.7988ZM2.77917 18.2778L2.81035 18.2535L2.77917 18.2778ZM13.3783 3.09523C13.676 2.80713 14.1508 2.81484 14.4389 3.11245L16.1389 4.86854C16.4204 5.15934 16.4204 5.62105 16.1389 5.91185L14.4389 7.66795C14.1508 7.96556 13.676 7.97326 13.3783 7.68516C13.0807 7.39706 13.073 6.92225 13.3611 6.62464L13.8301 6.14024H8.8C8.38579 6.14024 8.05 5.80445 8.05 5.39024C8.05 4.97602 8.38579 4.64024 8.8 4.64024H13.8301L13.3611 4.15575C13.073 3.85815 13.0807 3.38334 13.3783 3.09523ZM16.7783 3.09523C17.076 2.80713 17.5508 2.81484 17.8389 3.11245L19.5389 4.86854C19.8204 5.15934 19.8204 5.62105 19.5389 5.91185L17.8389 7.66795C17.5508 7.96556 17.076 7.97326 16.7783 7.68516C16.4807 7.39706 16.473 6.92225 16.7611 6.62464L17.9561 5.3902L16.7611 4.15575C16.473 3.85815 16.4807 3.38334 16.7783 3.09523ZM4.65 9.78048C4.65 9.36626 4.98579 9.03048 5.4 9.03048H11.35C11.7642 9.03048 12.1 9.36626 12.1 9.78048C12.1 10.1947 11.7642 10.5305 11.35 10.5305H5.4C4.98579 10.5305 4.65 10.1947 4.65 9.78048ZM4.65 12.4146C4.65 12.0004 4.98579 11.6646 5.4 11.6646H9.65C10.0642 11.6646 10.4 12.0004 10.4 12.4146C10.4 12.8288 10.0642 13.1646 9.65 13.1646H5.4C4.98579 13.1646 4.65 12.8288 4.65 12.4146ZM4.65 15.0488C4.65 14.6346 4.98579 14.2988 5.4 14.2988H8.8C9.21421 14.2988 9.55 14.6346 9.55 15.0488C9.55 15.463 9.21421 15.7988 8.8 15.7988H5.4C4.98579 15.7988 4.65 15.463 4.65 15.0488Z"
        fill="#B2B6BD"/>
</svg>
