<svg width="24" height="24" viewBox="0 0 24 24" fill="none" xmlns="http://www.w3.org/2000/svg">
  <path
    d="M2.61729 14.3086C2.66991 14.0065 2.77516 13.6333 3.02072 13.2068C3.24875 12.7625 3.5294 12.4249 3.82759 12.0517C4.14332 11.714 4.40643 11.5008 4.61691 11.3942C4.80986 11.3053 4.91511 11.3586 4.89757 11.5719C4.89757 11.8562 4.89757 12.1406 4.89757 12.4604C4.44151 12.9402 4.003 13.4378 3.58202 13.9887C3.24875 14.4152 3.00318 14.6463 2.82778 14.6996C2.79269 14.6996 2.77516 14.7174 2.75761 14.7174C2.61729 14.7174 2.58221 14.5752 2.61729 14.3086ZM8.8442 9.77701C9.0196 9.72369 9.45812 9.70592 9.59844 9.91917C9.79139 10.2213 9.98433 10.5234 10.2124 10.8966C9.47566 11.483 8.79158 12.1228 8.07241 12.8159C7.51111 13.3668 7.0726 13.6689 6.70425 13.7577H6.6867H6.66917C6.47622 13.7933 6.35343 13.7577 6.26573 13.6866C6.16049 13.5978 6.10787 13.4734 6.07278 13.2957C6.00262 12.8692 5.93246 12.5137 5.89738 12.1406C6.44114 11.5719 7.00243 11.0921 7.56373 10.5945C7.70406 10.4701 7.86193 10.3635 7.98471 10.2568C8.14257 10.1324 8.05487 10.1857 8.31798 10.008C8.45831 9.93695 8.41732 9.95699 8.49339 9.91918C8.57215 9.88004 8.66879 9.83033 8.8442 9.77701ZM16.8778 7.94659C17.6496 7.83996 18.246 7.91105 18.7722 8.15984C19.3335 8.44418 19.579 8.83514 19.4913 9.4749C19.4036 10.1324 18.9827 10.7366 18.1582 11.4119C17.3338 12.0517 16.4393 12.4249 15.457 12.5137C14.6677 12.5848 14.0362 12.336 13.5802 11.8562C13.1066 11.3231 12.6856 10.8788 12.2822 10.4523C13.1767 9.79478 14.0011 9.2261 14.8255 8.71074V8.72852C15.5798 8.26647 16.2288 8.03545 16.8778 7.94659ZM17.2461 7.05804C16.2463 7.21798 15.2641 7.50232 14.1239 8.15984C13.3346 8.62189 12.5277 9.13725 11.6682 9.75924C11.3876 9.45713 11.1245 9.19056 10.8789 8.924C10.7561 8.7996 10.6333 8.74629 10.4404 8.69297C10.4053 8.69297 10.3878 8.69297 10.3527 8.6752C10.3176 8.6752 10.2825 8.65743 10.2474 8.65743C10.0545 8.65743 9.80893 8.71074 9.52828 8.7996C9.33533 8.87068 9.15993 8.94177 8.96698 9.03062C8.68633 9.17279 8.38814 9.33273 8.07241 9.56375C7.87947 9.68815 7.68652 9.83032 7.49357 10.008C6.93227 10.4701 6.38852 10.9499 5.82722 11.5008C5.80968 11.2165 5.77459 10.9499 5.77459 10.6833C5.75705 10.3635 5.58165 10.3279 5.24838 10.4701C4.88002 10.6478 4.45905 10.9499 3.95037 11.5186C3.4417 12.0517 3.02072 12.6381 2.65237 13.349C2.26648 14.0421 2.09107 14.664 2.02091 15.1972C1.95075 15.7658 2.05599 16.0324 2.35418 15.9969C2.63483 15.9613 3.00318 15.5704 3.56448 14.824C4.02053 14.2375 4.47659 13.6866 4.96773 13.1357C5.00281 13.5622 5.03789 14.0065 5.10805 14.4863C5.12559 14.6818 5.17821 14.8595 5.24838 15.0195V15.0372C5.33608 15.2149 5.42378 15.3216 5.56411 15.4104C5.68689 15.4815 5.8623 15.4993 6.07278 15.4993C6.24819 15.4637 6.44114 15.4104 6.63408 15.3216C6.93227 15.1616 7.26554 14.9306 7.65144 14.593C7.89701 14.3975 8.12503 14.1664 8.38814 13.8999C9.17747 13.1002 9.94925 12.3893 10.7737 11.6963C11.1069 12.2116 11.4753 12.7803 11.8963 13.4201C12.5277 14.3797 13.51 14.9128 14.9308 14.8951C15.7727 14.8773 16.6147 14.6996 17.4566 14.3619C18.3161 14.0065 19.123 13.5267 19.8772 12.9047C21.4033 11.6252 22.0172 10.4345 21.9996 9.3505C21.9821 8.30201 21.3682 7.75111 20.3859 7.34238C19.9123 7.16467 19.4387 7.05804 18.9125 7.0225C18.7371 7.00473 18.5792 7.00473 18.4038 7.00473C18.0179 6.98696 17.6496 7.0225 17.2461 7.05804Z"
    fill="white"/>
  <path fill-rule="evenodd" clip-rule="evenodd"
        d="M2.65237 13.349C2.47779 13.6625 2.3463 13.9615 2.24813 14.2443C2.24639 14.2493 2.24466 14.2543 2.24294 14.2594C2.19459 14.4001 2.15448 14.5367 2.12141 14.6692C2.07536 14.8536 2.04294 15.0297 2.02091 15.1972C1.95075 15.7658 2.05599 16.0324 2.35418 15.9969C2.63483 15.9613 3.00318 15.5704 3.56448 14.824C3.87603 14.4234 4.18757 14.0393 4.5103 13.6605C4.66 13.4849 4.8121 13.3103 4.96773 13.1357C4.96925 13.1542 4.97077 13.1728 4.9723 13.1913C4.98923 13.3976 5.00652 13.6081 5.02808 13.8249C5.04933 14.0386 5.07473 14.2585 5.10805 14.4863C5.12559 14.6818 5.17821 14.8595 5.24838 15.0195V15.0372C5.33608 15.2149 5.42378 15.3216 5.56411 15.4104C5.68689 15.4815 5.8623 15.4993 6.07278 15.4993C6.24819 15.4637 6.44114 15.4104 6.63408 15.3216C6.93227 15.1616 7.26554 14.9306 7.65144 14.593C7.897 14.3975 8.12503 14.1665 8.38814 13.8999C9.05383 13.2255 9.70704 12.6142 10.3899 12.0235C10.5167 11.9138 10.6445 11.8048 10.7737 11.6963C10.8623 11.8334 10.9535 11.9743 11.0475 12.1194C11.3067 12.5193 11.5873 12.9506 11.8963 13.4201C12.5277 14.3797 13.51 14.9128 14.9308 14.8951C15.7727 14.8773 16.6147 14.6996 17.4566 14.3619C18.3161 14.0065 19.123 13.5267 19.8772 12.9047C21.4033 11.6252 22.0172 10.4345 21.9996 9.3505C21.9821 8.30201 21.3682 7.75111 20.3859 7.34238C19.9123 7.16467 19.4387 7.05804 18.9125 7.0225C18.7371 7.00473 18.5792 7.00473 18.4038 7.00473C18.0386 6.98791 17.6891 7.01884 17.3107 7.05234C17.2893 7.05423 17.2677 7.05614 17.2461 7.05804C16.2463 7.21798 15.2641 7.50232 14.1239 8.15984C13.3346 8.62189 12.5277 9.13725 11.6682 9.75924C11.5326 9.61321 11.401 9.47549 11.2736 9.34206C11.1373 9.19944 11.0058 9.06172 10.8789 8.924C10.7561 8.7996 10.6333 8.74629 10.4404 8.69297C10.4053 8.69297 10.3878 8.69297 10.3527 8.6752C10.3351 8.6752 10.3176 8.67076 10.3001 8.66632C10.2825 8.66187 10.265 8.65743 10.2474 8.65743C10.0545 8.65743 9.80893 8.71074 9.52828 8.7996C9.33533 8.87068 9.15993 8.94177 8.96698 9.03062C8.68633 9.17279 8.38814 9.33273 8.07241 9.56375C7.87947 9.68815 7.68652 9.83032 7.49357 10.008C7.48699 10.0134 7.48041 10.0189 7.47383 10.0243C7.39384 10.0902 7.3142 10.1566 7.23481 10.2234C7.18321 10.2669 7.13171 10.3106 7.08029 10.3545C6.8173 10.5792 6.5563 10.8109 6.29355 11.0553C6.2412 11.1039 6.18878 11.1531 6.13626 11.2029C6.03369 11.3 5.93075 11.3992 5.82722 11.5008L5.82715 11.4997C5.82098 11.4 5.81266 11.3025 5.80447 11.2064C5.79427 11.0868 5.78426 10.9694 5.77881 10.8527C5.77617 10.7962 5.77459 10.7397 5.77459 10.6833C5.75705 10.3635 5.58165 10.3279 5.24838 10.4701C5.0572 10.5623 4.85184 10.6881 4.62741 10.8672C4.568 10.9146 4.50725 10.9658 4.44508 11.021C4.44114 11.0245 4.43719 11.028 4.43324 11.0316C4.28124 11.1676 4.12073 11.3281 3.95037 11.5186C3.84097 11.6332 3.73562 11.7504 3.63398 11.8707C3.62956 11.8759 3.62514 11.8812 3.62072 11.8864C3.31642 12.2486 3.04543 12.6396 2.7983 13.0787C2.79628 13.0823 2.79425 13.0859 2.79223 13.0895C2.74475 13.1742 2.69816 13.2606 2.65237 13.349ZM3.02072 13.2068C2.96906 13.2965 2.9236 13.3839 2.88354 13.4688C2.88243 13.4711 2.88132 13.4735 2.88021 13.4758C2.74764 13.7583 2.67479 14.0126 2.63139 14.2327L2.63098 14.2347C2.62605 14.2598 2.6215 14.2844 2.61729 14.3086C2.59544 14.4746 2.60081 14.5924 2.64187 14.6576C2.66674 14.6971 2.70469 14.7174 2.75761 14.7174C2.76488 14.7174 2.77215 14.7143 2.78066 14.7107C2.7927 14.7057 2.80723 14.6996 2.82778 14.6996C3.00318 14.6463 3.24875 14.4152 3.58202 13.9887C4.003 13.4378 4.44151 12.9402 4.89757 12.4604V11.5719C4.90746 11.4515 4.87826 11.3821 4.81627 11.3605C4.7684 11.3437 4.70098 11.3555 4.61691 11.3942C4.54978 11.4282 4.4773 11.473 4.39946 11.5293C4.32757 11.5813 4.25101 11.6431 4.16999 11.715C4.16762 11.7171 4.16526 11.7192 4.16289 11.7213C4.05863 11.8143 3.94686 11.9241 3.82759 12.0517C3.80571 12.0791 3.78392 12.1063 3.76224 12.1333C3.48849 12.475 3.23202 12.7951 3.02072 13.2068ZM6.08476 11.9486C6.02209 12.0115 5.95962 12.0755 5.89738 12.1406C5.92396 12.4234 5.97069 12.696 6.0223 12.997C6.0388 13.0932 6.05579 13.1924 6.07278 13.2957C6.10787 13.4734 6.16049 13.5978 6.26573 13.6866C6.35343 13.7577 6.47622 13.7933 6.66917 13.7577H6.70425C7.0726 13.6689 7.51111 13.3668 8.07241 12.8159C8.79158 12.1228 9.47566 11.483 10.2124 10.8966C9.98433 10.5234 9.79139 10.2213 9.59844 9.91917C9.45812 9.70592 9.0196 9.72369 8.8442 9.77701C8.67661 9.82795 8.58091 9.8756 8.50402 9.91389C8.50044 9.91567 8.4969 9.91744 8.49339 9.91918C8.45178 9.93986 8.44519 9.94323 8.42481 9.95368C8.40792 9.96233 8.38156 9.97583 8.31798 10.008C8.13802 10.1296 8.12218 10.1431 8.07962 10.1792C8.05996 10.196 8.0346 10.2175 7.98471 10.2568C7.92788 10.3062 7.86353 10.3555 7.79688 10.4066C7.793 10.4096 7.7891 10.4126 7.7852 10.4156C7.71147 10.4722 7.63532 10.531 7.56373 10.5945C7.51207 10.6403 7.46041 10.6859 7.40876 10.7315C7.37874 10.758 7.34872 10.7845 7.3187 10.8109C7.03907 11.0575 6.76007 11.3036 6.48388 11.5623C6.38111 11.6585 6.27872 11.7566 6.17684 11.857C6.1461 11.8873 6.1154 11.9178 6.08476 11.9486ZM14.3255 9.02976C13.7924 9.37671 13.2533 9.74878 12.6896 10.1555C12.5553 10.2524 12.4196 10.3513 12.2822 10.4523L12.3096 10.4813C12.4143 10.592 12.5203 10.7041 12.6281 10.8186C12.927 11.1362 13.24 11.4733 13.5802 11.8562C14.0362 12.336 14.6677 12.5848 15.457 12.5137C16.4393 12.4249 17.3338 12.0517 18.1582 11.4119C18.9827 10.7366 19.4036 10.1324 19.4913 9.4749C19.579 8.83514 19.3335 8.44418 18.7722 8.15984C18.246 7.91105 17.6496 7.83996 16.8778 7.94659C16.3765 8.01522 15.8753 8.16865 15.3255 8.44783C15.1727 8.52545 15.0161 8.6128 14.8547 8.71074C14.8477 8.71501 14.8406 8.71929 14.8336 8.7236C14.8309 8.72524 14.8282 8.72687 14.8255 8.72852V8.71074C14.8229 8.71239 14.8203 8.71403 14.8177 8.71567C14.8108 8.71995 14.804 8.72423 14.7971 8.72852C14.6401 8.8269 14.4831 8.92723 14.3255 9.02976Z"
        fill="white"/>
</svg>
