<svg width="24" height="24" viewBox="0 0 24 24" fill="none" xmlns="http://www.w3.org/2000/svg">
  <path fill-rule="evenodd" clip-rule="evenodd"
        d="M2.65236 13.3488C2.47779 13.6624 2.34629 13.9614 2.24813 14.2442C2.24639 14.2492 2.24466 14.2542 2.24294 14.2592C2.17015 14.471 2.11604 14.6737 2.07649 14.8665C2.05319 14.9802 2.03494 15.0904 2.0209 15.197C1.95074 15.7657 2.05598 16.0323 2.35417 15.9967C2.60054 15.9655 2.91448 15.6604 3.3672 15.0815C3.4302 15.0009 3.4959 14.915 3.56447 14.8238C3.70265 14.6461 3.84083 14.4717 3.97999 14.2996C3.98113 14.2982 3.98228 14.2967 3.98342 14.2953C4.12743 14.1172 4.2725 13.9416 4.41971 13.7672C4.59858 13.5554 4.7806 13.3455 4.96772 13.1356C4.96924 13.1541 4.97076 13.1726 4.97229 13.1912C4.97404 13.2125 4.9758 13.2339 4.97756 13.2554C4.99641 13.4844 5.01619 13.7189 5.04219 13.9616C5.06046 14.1321 5.0818 14.3067 5.10805 14.4862C5.12559 14.6817 5.17821 14.8594 5.24837 15.0193V15.0371C5.33607 15.2148 5.42378 15.3214 5.5641 15.4103C5.68689 15.4814 5.86229 15.4991 6.07278 15.4991C6.24818 15.4636 6.44113 15.4103 6.63408 15.3214C6.93227 15.1615 7.26554 14.9305 7.65143 14.5928C7.897 14.3973 8.12502 14.1663 8.38813 13.8997C9.02899 13.2505 9.65829 12.6598 10.3136 12.0896C10.4654 11.9575 10.6186 11.8265 10.7737 11.6961C10.8795 11.8598 10.9889 12.0288 11.1023 12.2038C11.3462 12.5798 11.609 12.9833 11.8963 13.4199C12.5277 14.3796 13.51 14.9127 14.9308 14.8949C15.7727 14.8771 16.6147 14.6994 17.4566 14.3618C18.3161 14.0064 19.123 13.5265 19.8772 12.9046C21.4032 11.625 22.0172 10.4344 21.9996 9.35035C21.9821 8.30186 21.3682 7.75096 20.3859 7.34223C19.9123 7.16452 19.4387 7.05789 18.9125 7.02235C18.7371 7.00458 18.5792 7.00458 18.4038 7.00458C18.0386 6.98776 17.6891 7.0187 17.3107 7.05219C17.2892 7.05408 17.2677 7.05599 17.2461 7.05789C16.2463 7.21783 15.264 7.50217 14.1239 8.1597C13.3346 8.62174 12.5277 9.1371 11.6682 9.75909C11.5326 9.61306 11.401 9.47534 11.2736 9.34191C11.1373 9.19929 11.0058 9.06157 10.8789 8.92385C10.7561 8.79945 10.6333 8.74614 10.4404 8.69283C10.4053 8.69283 10.3878 8.69283 10.3527 8.67506C10.3351 8.67506 10.3176 8.67061 10.3001 8.66617C10.2825 8.66173 10.265 8.65728 10.2474 8.65728C10.0545 8.65728 9.80892 8.7106 9.52827 8.79945C9.33533 8.87054 9.15992 8.94162 8.96697 9.03048C8.8483 9.09059 8.7265 9.15388 8.60155 9.22438C8.48822 9.28833 8.37231 9.35821 8.25382 9.43703C8.1989 9.47356 8.14342 9.51201 8.08739 9.55269C8.0824 9.55631 8.0774 9.55995 8.07241 9.56361C8.05979 9.57174 8.04716 9.57996 8.03454 9.58825C7.91263 9.66837 7.79071 9.75605 7.66879 9.85577C7.66253 9.8609 7.65626 9.86605 7.64999 9.87124C7.59785 9.91443 7.54571 9.95986 7.49357 10.0079C7.40694 10.0792 7.32072 10.1509 7.2348 10.2233C6.95055 10.4626 6.66946 10.7088 6.38686 10.9688C6.2014 11.1394 6.01529 11.3161 5.82721 11.5006C5.82447 11.4562 5.8213 11.4122 5.8179 11.3686C5.81365 11.3139 5.80904 11.2599 5.80446 11.2062C5.79036 11.0409 5.77662 10.8797 5.77479 10.7188C5.77466 10.7069 5.77459 10.6951 5.77459 10.6832C5.75705 10.3633 5.58164 10.3278 5.24837 10.4699C5.1008 10.5411 4.94478 10.6323 4.77806 10.7526C4.67162 10.8293 4.56082 10.918 4.44507 11.0209C4.44113 11.0244 4.43718 11.0279 4.43323 11.0314C4.28124 11.1674 4.12072 11.328 3.95037 11.5184C3.84096 11.6331 3.73562 11.7502 3.63398 11.8705C3.62955 11.8758 3.62513 11.881 3.62071 11.8863C3.31641 12.2484 3.04543 12.6395 2.79829 13.0786C2.79627 13.0822 2.79425 13.0858 2.79223 13.0894C2.74475 13.174 2.69815 13.2605 2.65236 13.3488ZM3.02072 13.2067C2.96905 13.2964 2.9236 13.3838 2.88354 13.4686C2.88242 13.471 2.88131 13.4733 2.88021 13.4757C2.77081 13.7088 2.70208 13.9227 2.65701 14.114C2.65646 14.1163 2.6559 14.1187 2.65536 14.121C2.65492 14.1229 2.65448 14.1248 2.65405 14.1267C2.65399 14.1269 2.6541 14.1264 2.65405 14.1267C2.63951 14.1896 2.62735 14.2507 2.61728 14.3085C2.58466 14.5563 2.6127 14.6966 2.7296 14.7151C2.73842 14.7165 2.74776 14.7172 2.75761 14.7172C2.76487 14.7172 2.77214 14.7142 2.78065 14.7106C2.79269 14.7055 2.80722 14.6994 2.82777 14.6994C2.86513 14.6881 2.90568 14.6687 2.94958 14.641C3.00464 14.6063 3.06496 14.5587 3.13089 14.4978C3.13306 14.4958 3.13523 14.4937 3.13741 14.4917C3.15617 14.4742 3.17537 14.4557 3.19503 14.4361C3.1993 14.4318 3.20359 14.4275 3.2079 14.4232C3.31806 14.3118 3.44233 14.1673 3.58202 13.9886C3.90611 13.5645 4.2406 13.172 4.58548 12.7948C4.68858 12.6821 4.7926 12.5707 4.89756 12.4603V11.5717C4.90233 11.5137 4.89801 11.4675 4.88531 11.4328C4.85132 11.34 4.75735 11.3293 4.61691 11.394C4.5492 11.4283 4.47606 11.4736 4.39746 11.5306C4.37939 11.5437 4.36104 11.5574 4.34239 11.5717C4.33141 11.5802 4.32032 11.5888 4.30914 11.5977C4.30529 11.6008 4.30143 11.6038 4.29756 11.6069C4.25637 11.64 4.21385 11.6759 4.16998 11.7149C4.16762 11.717 4.16525 11.7191 4.16288 11.7212C4.05862 11.8142 3.94686 11.924 3.82758 12.0515C3.8057 12.0789 3.78391 12.1061 3.76223 12.1332C3.48848 12.4749 3.23201 12.795 3.02072 13.2067ZM8.07241 12.8157C8.79157 12.1226 9.47565 11.4829 10.2124 10.8964C9.98433 10.5232 9.79138 10.2211 9.59843 9.91903C9.45811 9.70577 9.01959 9.72354 8.84419 9.77686C8.84407 9.77689 8.84431 9.77682 8.84419 9.77686C8.67682 9.82776 8.58085 9.87548 8.50402 9.91374C8.50043 9.91553 8.49689 9.91729 8.49338 9.91903C8.45178 9.93971 8.44519 9.94309 8.4248 9.95353C8.41434 9.95889 8.40026 9.9661 8.37596 9.97846C8.36806 9.98248 8.35907 9.98705 8.34878 9.99227C8.3396 9.99693 8.32939 10.0021 8.31798 10.0079C8.13801 10.1294 8.12217 10.1429 8.07962 10.1791C8.05995 10.1958 8.03459 10.2174 7.9847 10.2567C7.93858 10.2967 7.8875 10.3368 7.83426 10.3778C7.82691 10.3834 7.81952 10.3891 7.81209 10.3948C7.80703 10.3987 7.80196 10.4026 7.79688 10.4065C7.71954 10.4658 7.6391 10.5275 7.56373 10.5943C7.48203 10.6667 7.40034 10.7388 7.3187 10.8108C6.93501 11.1492 6.55252 11.4865 6.17683 11.8569C6.08323 11.9491 5.99004 12.0435 5.89737 12.1404C5.90114 12.1805 5.90532 12.2204 5.90986 12.2602C5.93731 12.5011 5.97801 12.7385 6.0223 12.9969C6.03879 13.0931 6.05578 13.1922 6.07278 13.2955C6.10786 13.4732 6.16048 13.5976 6.26573 13.6865C6.35343 13.7576 6.47621 13.7931 6.66916 13.7576H6.70424C7.07259 13.6687 7.51111 13.3666 8.07241 12.8157ZM6.65596 13.1446C6.8618 13.0638 7.1787 12.8521 7.65213 12.3875L7.65603 12.3837C8.24504 11.816 8.82036 11.2745 9.42529 10.7656C9.33343 10.6194 9.24537 10.481 9.15757 10.3435C9.12919 10.3415 9.09772 10.3418 9.06759 10.3444C9.05052 10.3459 9.03648 10.3478 9.02637 10.3496C9.02088 10.3506 9.0176 10.3513 9.01639 10.3516C8.95106 10.3716 8.90441 10.3895 8.86902 10.4047C8.83431 10.4196 8.80762 10.4329 8.76989 10.4516L8.76042 10.4563C8.72102 10.4759 8.71736 10.4778 8.70095 10.4862C8.68872 10.4925 8.66941 10.5024 8.62295 10.526C8.51385 10.5999 8.49364 10.6153 8.48554 10.6217C8.48195 10.6246 8.48076 10.6256 8.47547 10.6301C8.47145 10.6335 8.46506 10.639 8.45343 10.6488C8.43226 10.6666 8.40578 10.6886 8.36677 10.7195C8.2984 10.7781 8.22446 10.8347 8.16403 10.8811C8.15791 10.8858 8.15193 10.8903 8.14611 10.8948C8.07313 10.9508 8.01414 10.9969 7.96174 11.0433C7.87795 11.1176 7.79491 11.1908 7.71256 11.2635C7.30275 11.625 6.91007 11.9713 6.52657 12.3551C6.54947 12.5202 6.57833 12.6887 6.6109 12.8788C6.62527 12.9627 6.64035 13.0508 6.65596 13.1446ZM3.50962 11.1112C4.05615 10.5016 4.53592 10.1475 4.98766 9.92953L5.00017 9.9235L5.01295 9.91805C5.11767 9.87337 5.23643 9.83089 5.36048 9.80813C5.48164 9.78591 5.65141 9.77432 5.8304 9.83779C6.06997 9.92274 6.20563 10.0862 6.28169 10.2547C6.55342 10.0127 6.82485 9.78145 7.09976 9.55492C7.31346 9.35959 7.52557 9.20319 7.73244 9.06893C8.08229 8.81469 8.40966 8.6402 8.69584 8.49523L8.70583 8.49017L8.716 8.48549C8.92539 8.38906 9.11559 8.31207 9.32085 8.23645L9.33391 8.23164L9.34717 8.22744C9.64502 8.13314 9.96102 8.05728 10.2474 8.05728C10.3059 8.05728 10.3542 8.06461 10.3857 8.0706C10.3933 8.07204 10.4007 8.07356 10.4075 8.07506H10.496L10.5422 8.09849L10.6002 8.1145C10.8393 8.18058 11.0775 8.27097 11.3059 8.50236L11.3132 8.50972L11.3202 8.51732C11.4387 8.64601 11.5623 8.77549 11.6943 8.91371L11.7084 8.92844C11.7208 8.94148 11.7333 8.9546 11.7459 8.96779C12.4644 8.46649 13.1494 8.03493 13.8208 7.64189L13.8242 7.63993C15.0379 6.93996 16.0921 6.63488 17.1514 6.46542L17.1723 6.46207L17.1935 6.46021C17.218 6.45805 17.2426 6.45586 17.2673 6.45367C17.6329 6.42122 18.0153 6.38727 18.4171 6.40458C18.5827 6.40457 18.7623 6.40467 18.9627 6.42438C19.5453 6.46466 20.0732 6.58405 20.5967 6.78047L20.6066 6.7842L20.6164 6.78827C21.1465 7.00886 21.6419 7.29287 22.0071 7.71243C22.3865 8.14833 22.5886 8.68772 22.5995 9.34032C22.6212 10.6806 21.8567 12.0278 20.2627 13.3643L20.259 13.3675C19.4585 14.0275 18.6002 14.5381 17.6859 14.9162L17.68 14.9187C16.7762 15.2812 15.863 15.4754 14.9434 15.4948L14.9383 15.4949C13.3358 15.5149 12.151 14.8985 11.395 13.7497C11.1241 13.338 10.8749 12.9557 10.6431 12.5983C10.0223 13.1412 9.42431 13.7041 8.81516 14.3212L8.80116 14.3354C8.55207 14.5878 8.30575 14.8374 8.03625 15.0533C7.62812 15.4094 7.26113 15.6659 6.91768 15.8502L6.90161 15.8588L6.88505 15.8664C6.63751 15.9804 6.39701 16.0456 6.19193 16.0872L6.13295 16.0991H6.07278C5.86372 16.0991 5.53925 16.0892 5.26348 15.9295L5.25318 15.9236L5.24311 15.9172C4.98767 15.7554 4.83388 15.553 4.71033 15.3026L4.64837 15.1771V15.1363C4.5865 14.9719 4.53829 14.79 4.51571 14.5916C4.3566 14.787 4.19889 14.9855 4.04105 15.1884C3.75844 15.564 3.50544 15.8761 3.27634 16.1031C3.06882 16.3087 2.78296 16.5472 2.42956 16.592L2.42519 16.5925C2.25969 16.6122 2.05992 16.5966 1.86949 16.4881C1.67677 16.3783 1.56025 16.2115 1.4945 16.0517C1.37722 15.7665 1.38825 15.4248 1.42542 15.1236L1.42601 15.1187C1.50537 14.5157 1.70261 13.8236 2.12375 13.0649C2.51505 12.3114 2.96559 11.6827 3.50962 11.1112ZM14.2255 9.09494C13.7508 9.4062 13.2706 9.73779 12.7715 10.0964C12.6105 10.2121 12.4475 10.3306 12.2821 10.4522L12.3096 10.4812C12.4366 10.6154 12.5654 10.7516 12.6971 10.8919C12.9751 11.188 13.2661 11.5025 13.5801 11.8561C14.0362 12.3359 14.6677 12.5847 15.457 12.5136C16.4393 12.4247 17.3338 12.0515 18.1582 11.4118C18.9826 10.7365 19.4036 10.1323 19.4913 9.47475C19.579 8.83499 19.3335 8.44403 18.7722 8.1597C18.2459 7.9109 17.6496 7.83982 16.8778 7.94644C16.4071 8.01089 15.9364 8.15011 15.4255 8.39802C15.2411 8.48752 15.0515 8.59118 14.8547 8.7106C14.8476 8.71486 14.8406 8.71915 14.8336 8.72345C14.8309 8.72509 14.8282 8.72673 14.8255 8.72837V8.7106C14.8229 8.71224 14.8203 8.71388 14.8177 8.71552C14.8108 8.7198 14.804 8.72408 14.7971 8.72837C14.6069 8.84755 14.4167 8.9696 14.2255 9.09494ZM14.5244 9.61645C14.0883 9.9031 13.646 10.208 13.1868 10.5369C13.4493 10.8171 13.7252 11.1161 14.0215 11.4494C14.3425 11.7835 14.7881 11.9714 15.4032 11.916C16.2572 11.8387 17.0427 11.5164 17.7842 10.9426C18.5574 10.3079 18.8387 9.82946 18.8966 9.39542L18.8969 9.39326C18.928 9.16637 18.8925 9.04939 18.8528 8.97928C18.8103 8.90411 18.7198 8.80695 18.5083 8.69862C18.1161 8.51514 17.6457 8.44605 16.9599 8.5408C16.4055 8.61669 15.8339 8.81426 15.139 9.24L14.5244 9.61645Z"
        fill="#B9BEC4"/>
</svg>
