<svg width="18" height="18" viewBox="0 0 18 18" fill="none" xmlns="http://www.w3.org/2000/svg">
<path fill-rule="evenodd" clip-rule="evenodd" d="M5.49394 0.227877C4.13469 0.263826 2.89965 1.00135 2.21622 2.18521C1.96827 2.61472 1.79973 3.11356 1.73554 3.60792C1.70158 3.86944 1.70314 3.54403 1.70314 10.3822V16.8298L1.72028 16.9126C1.76627 17.1347 1.86822 17.3208 2.02816 17.4747C2.17176 17.6128 2.34798 17.7068 2.54194 17.7488C2.64264 17.7705 2.8635 17.7728 2.96099 17.753C3.05257 17.7344 3.15461 17.6996 3.22899 17.6615C3.26493 17.6431 4.06762 17.1447 5.01274 16.5539L6.73114 15.4797L8.43274 16.5442C9.36862 17.1297 10.1603 17.6237 10.1919 17.642C10.4292 17.7791 10.7569 17.8104 11.0289 17.7219C11.1533 17.6814 11.3098 17.592 11.4029 17.5084C11.5744 17.3541 11.6935 17.1488 11.7402 16.927C11.7464 16.8973 11.7545 16.8309 11.7581 16.7794C11.7619 16.7247 11.7647 14.8849 11.7649 12.3534L11.7651 8.02104L13.5561 8.01872C15.4883 8.01622 15.3809 8.0183 15.5134 7.98088C15.9512 7.85723 16.2542 7.49525 16.2937 7.04849C16.3036 6.9368 16.3036 4.15471 16.2937 3.94543C16.2599 3.22839 16.047 2.57159 15.6566 1.97983C15.21 1.30285 14.5693 0.784415 13.8171 0.491354C13.4643 0.353906 13.1355 0.278457 12.7047 0.236099C12.6398 0.229713 11.7426 0.227387 9.09394 0.226739C7.15552 0.226264 5.53552 0.226782 5.49394 0.227877ZM5.41834 1.21711C4.90627 1.2474 4.40301 1.41747 3.97543 1.7047C3.69243 1.89481 3.42596 2.15408 3.22515 2.43471C2.95324 2.81469 2.77247 3.27432 2.71167 3.74023C2.68497 3.94485 2.68512 3.90455 2.68735 10.3977C2.6895 16.6441 2.68976 16.7458 2.70335 16.7608C2.72156 16.7809 2.75619 16.7897 2.7823 16.7808C2.79372 16.7769 3.62964 16.257 4.6399 15.6254C5.65016 14.9938 6.49942 14.4663 6.52714 14.453C6.65067 14.3941 6.80437 14.3925 6.92842 14.4489C6.95323 14.4602 7.79974 14.9863 8.80954 15.618C9.81934 16.2497 10.6559 16.7719 10.6686 16.7784C10.6813 16.7849 10.6968 16.7902 10.7031 16.7902C10.7219 16.7902 10.756 16.7697 10.7659 16.7524C10.7734 16.7393 10.7758 15.5167 10.7788 10.3354C10.7823 4.24235 10.783 3.93134 10.7952 3.86623C10.8634 3.50182 11.0087 3.21892 11.2539 2.97329C11.5102 2.71658 11.8324 2.557 12.1911 2.50912C12.3182 2.49214 12.4913 2.4965 12.5571 2.51833C12.6998 2.56564 12.8245 2.68987 12.8715 2.83148C12.8888 2.88388 12.8911 2.90172 12.8913 2.98783C12.8916 3.07812 12.89 3.08941 12.8697 3.14655C12.8306 3.25671 12.7514 3.35334 12.6516 3.41259C12.5796 3.45538 12.5268 3.46973 12.4096 3.47833C12.1886 3.49456 12.068 3.54715 11.9367 3.68465C11.8701 3.75438 11.8232 3.83195 11.792 3.92383L11.7687 3.99223L11.7668 5.51323L11.7649 7.03423H13.5041C14.9908 7.03423 15.2468 7.03275 15.2677 7.024C15.3187 7.00269 15.3147 7.1308 15.3147 5.49483C15.3147 4.06974 15.3131 3.94107 15.2927 3.76903C15.2414 3.33696 15.084 2.90489 14.842 2.53192C14.6367 2.21564 14.3425 1.9178 14.0236 1.70357C13.5918 1.41352 13.0977 1.24832 12.5679 1.21684C12.4228 1.20822 5.56424 1.20847 5.41834 1.21711Z" fill="currentColor"/>
</svg>
