<svg xmlns="http://www.w3.org/2000/svg" width="18" height="18" viewBox="0 0 18 18" fill="none">
  <g clip-path="url(#clip0_7590_3684)">
  <path fill-rule="evenodd" clip-rule="evenodd" d="M1.05126 0.0146647C0.55617 0.0997975 0.169875 0.449552 0.0410313 0.929338C-0.00340707 1.09484 6.33318e-05 0.619256 6.33293e-05 6.54152C6.33273e-05 11.4205 0.00115773 11.9468 0.0114105 12.0127C0.0557913 12.2975 0.177803 12.5354 0.379619 12.7306C0.488159 12.8355 0.563939 12.8893 0.696714 12.9557C0.77618 12.9954 0.861982 13.0266 0.954063 13.0493C1.10863 13.0873 1.07382 13.0863 2.27526 13.0863C3.52942 13.0863 3.43525 13.0902 3.54966 13.034C3.59083 13.0138 3.61925 12.9921 3.6692 12.9425C3.77985 12.8328 3.81989 12.7384 3.81889 12.5895C3.8184 12.5164 3.81538 12.4943 3.79927 12.4455C3.77702 12.3782 3.7528 12.3346 3.70852 12.2819C3.64053 12.201 3.55866 12.1459 3.46326 12.1167L3.40926 12.1002L2.29326 12.0965L1.17726 12.0927L1.13765 12.0741C1.08709 12.0504 1.03625 11.9996 1.01035 11.9468L0.990063 11.9055L0.987889 6.56672C0.98624 2.51288 0.987745 1.21839 0.994138 1.18832C1.01432 1.09336 1.0931 1.01458 1.18806 0.994397C1.21813 0.988004 2.51263 0.986499 6.56646 0.988148L11.9053 0.990322L11.9466 1.01061C11.9993 1.03651 12.0502 1.08735 12.0739 1.13791L12.0925 1.17752L12.0962 2.29352L12.1 3.40952L12.1165 3.46352C12.1456 3.55892 12.2008 3.64079 12.2817 3.70878C12.3343 3.75306 12.378 3.77728 12.4453 3.79952C12.494 3.81564 12.5162 3.81866 12.5893 3.81915C12.7381 3.82015 12.8325 3.78011 12.9423 3.66946C12.9918 3.61951 13.0136 3.59108 13.0338 3.54992C13.0899 3.43551 13.0861 3.52968 13.0861 2.27552C13.0861 1.07408 13.087 1.10888 13.049 0.954322C12.9942 0.731533 12.8907 0.544974 12.7306 0.379878C12.5343 0.177622 12.2972 0.0560287 12.0124 0.0116696C11.9465 0.00140955 11.4217 0.000387151 6.53321 0.000991949C1.35551 0.00163995 1.12367 0.00221595 1.05126 0.0146647ZM6.08046 4.91807C5.77407 4.94006 5.49847 5.06575 5.28198 5.28224C5.09023 5.474 4.97501 5.70158 4.92695 5.98352C4.91465 6.0557 4.91406 6.30306 4.91406 11.4519C4.91406 15.8823 4.91576 16.8563 4.92357 16.9095C4.94382 17.0475 4.98713 17.1885 5.0447 17.3037C5.11105 17.4364 5.16485 17.5122 5.26979 17.6208C5.46494 17.8226 5.70285 17.9446 5.98772 17.989C6.05357 17.9992 6.57984 18.0003 11.4597 18.0003C17.3604 18.0003 16.8996 18.0036 17.0666 17.9601C17.5041 17.8464 17.8461 17.5044 17.9599 17.0668C18.0033 16.8999 18 17.3606 18 11.46C18.0001 6.5801 17.999 6.05383 17.9887 5.98798C17.9444 5.70369 17.8224 5.46573 17.6205 5.26982C17.4301 5.08508 17.219 4.97951 16.9345 4.9267C16.8791 4.91643 16.3607 4.91522 11.5129 4.91412C8.56464 4.91345 6.12006 4.91522 6.08046 4.91807ZM6.06838 5.92147C5.99331 5.95236 5.93997 6.00873 5.91519 6.08335C5.90515 6.11356 5.90421 6.65258 5.90585 11.47L5.90766 16.8231L5.92625 16.8627C5.94996 16.9133 6.00081 16.9641 6.05354 16.99L6.09486 17.0103L11.4337 17.0125C15.4884 17.0141 16.782 17.0126 16.8121 17.0063C16.907 16.9861 16.9858 16.9073 17.006 16.8123C17.0124 16.7822 17.0139 15.4887 17.0122 11.4339L17.0101 6.09512L16.9898 6.0538C16.9639 6.00107 16.913 5.95022 16.8625 5.92651L16.8229 5.90792L11.4661 5.90629L6.10926 5.90465L6.06838 5.92147Z" fill="#2F463F"/>
  </g>
  <defs>
  <clipPath id="clip0_7590_3684">
  <rect width="18" height="18" fill="white"/>
  </clipPath>
  </defs>
  </svg>