<svg width="18" height="18" viewBox="0 0 18 18" fill="none" xmlns="http://www.w3.org/2000/svg">
<g clip-path="url(#clip0_1295_4972)">
<path fill-rule="evenodd" clip-rule="evenodd" d="M4.47858 1.07337C3.89224 1.11732 3.37322 1.24327 2.86938 1.46386C1.74598 1.95572 0.858589 2.85242 0.378522 3.98087C0.0245267 4.81297 -0.0857341 5.74953 0.0656315 6.6386C0.182704 7.32625 0.427705 7.94036 0.81652 8.52079C0.945191 8.71287 1.09714 8.90644 1.247 9.06917C1.44933 9.28889 8.67533 16.8168 8.70649 16.8403C8.75396 16.8761 8.8235 16.909 8.88498 16.9247C8.94856 16.9409 9.09391 16.9356 9.15172 16.9149C9.20843 16.8946 9.25002 16.8727 9.29373 16.8401C9.32189 16.8191 16.2815 9.56797 16.725 9.09764C17.1701 8.62552 17.5337 8.01433 17.7507 7.37324C17.8807 6.98905 17.9712 6.52605 17.9902 6.14764C17.9929 6.09335 17.9979 6.05063 18.0013 6.05271C18.0046 6.05479 18.0071 5.95667 18.0069 5.83466C18.0066 5.71266 18.0039 5.6192 18.0008 5.62696C17.9976 5.63532 17.9933 5.60098 17.9904 5.54286C17.9652 5.04124 17.8276 4.46283 17.6148 3.96404C17.3212 3.27604 16.8536 2.64967 16.2755 2.16993C15.5481 1.56624 14.6632 1.19195 13.727 1.09195C13.3683 1.05363 12.9535 1.05862 12.593 1.10558C11.7595 1.21414 10.9542 1.55053 10.2854 2.06958C10.0918 2.21978 9.97831 2.32578 9.49518 2.80753L9.00018 3.30111L8.50518 2.80753C7.9417 2.24567 7.8164 2.13331 7.52978 1.93289C6.83702 1.44848 6.07468 1.16929 5.20938 1.0831C5.08219 1.07043 4.60293 1.06405 4.47858 1.07337ZM4.68378 2.05016C3.88869 2.07421 3.13727 2.33527 2.50776 2.80615C2.16254 3.06438 1.84838 3.39652 1.61688 3.74804C1.25285 4.30077 1.04165 4.9235 0.993258 5.58678C0.982264 5.73743 0.988391 6.10925 1.00405 6.24185C1.06068 6.7214 1.16842 7.0961 1.36778 7.50684C1.5409 7.86352 1.75983 8.1805 2.02312 8.45567C3.22057 9.70721 8.99699 15.7288 9.0001 15.7288C9.00251 15.7288 10.5495 14.1169 12.4379 12.1468C14.3263 10.1767 15.9089 8.52596 15.9548 8.47844C16.505 7.90875 16.8674 7.16463 16.9768 6.37964C17.0076 6.15931 17.01 6.12019 17.0101 5.85044C17.0101 5.55845 17.0026 5.45703 16.9631 5.22187C16.8506 4.55133 16.5691 3.93826 16.1292 3.40604C16.0419 3.30044 15.7751 3.03371 15.6674 2.94432C15.2508 2.59875 14.786 2.34776 14.3016 2.20679C13.7394 2.0432 13.1595 2.00673 12.6002 2.0998C11.9418 2.20936 11.3085 2.49633 10.8074 2.91223C10.6763 3.02101 10.5806 3.1137 9.94338 3.74865L9.28458 4.40516L9.21618 4.43779C9.13377 4.47711 9.0938 4.48604 9.00018 4.48604C8.90656 4.48604 8.86659 4.47711 8.78418 4.43779L8.71578 4.40516L8.05698 3.74865C7.4198 3.1137 7.32405 3.02101 7.19298 2.91223C6.63736 2.45111 5.92213 2.15066 5.18878 2.0703C5.09662 2.06019 4.79613 2.04363 4.76298 2.04682C4.75506 2.04758 4.71942 2.04908 4.68378 2.05016ZM0.00338034 5.84324C0.00337314 5.966 0.00435954 6.01724 0.00556194 5.95709C0.00676434 5.89694 0.00676434 5.7965 0.00556194 5.73389C0.00436674 5.67128 0.00338034 5.72048 0.00338034 5.84324Z" fill="#7E8795"/>
</g>
<defs>
<clipPath id="clip0_1295_4972">
<rect width="18" height="18" fill="white"/>
</clipPath>
</defs>
</svg>
