<svg width="18" height="18" viewBox="0 0 18 18" fill="none" xmlns="http://www.w3.org/2000/svg">
<path fill-rule="evenodd" clip-rule="evenodd" d="M1.43358 0.0102644C1.14535 0.0452924 0.884332 0.150103 0.648784 0.325387C0.558899 0.392268 0.390988 0.56069 0.323999 0.651144C0.162438 0.869311 0.0600183 1.11367 0.0173943 1.38263C0.00513985 1.45996 0.00438385 1.55492 0.00438385 3.01274V4.56074L0.0264159 4.62226C0.0777446 4.7656 0.188329 4.87618 0.331667 4.92751L0.393184 4.94954H9.00078H17.6084L17.6699 4.92751C17.7733 4.89048 17.8631 4.81973 17.9247 4.7267C17.9546 4.68159 17.9933 4.58125 17.9935 4.54857C17.9935 4.53791 17.9968 4.52719 18.0008 4.52474C18.0056 4.5218 18.008 4.00852 18.008 3.00829C18.008 2.00213 18.0056 1.49778 18.0008 1.50074C17.9965 1.5034 17.9936 1.49452 17.9936 1.47869C17.9936 1.43306 17.9718 1.30304 17.95 1.21845C17.8975 1.01494 17.8066 0.826125 17.6755 0.648588C17.6091 0.558609 17.4409 0.390648 17.3492 0.322759C17.1343 0.163653 16.8981 0.0636452 16.6254 0.0163628C16.5529 0.00377721 16.263 0.00323721 9.02958 0.00217881C2.96985 0.00128601 1.4945 0.00285561 1.43358 0.0102644ZM1.49838 0.996902C1.2449 1.04891 1.04623 1.24967 0.997365 1.50318C0.98884 1.54741 0.987184 1.75207 0.987184 2.76138V3.96674H3.10655H5.22593L5.64913 2.48534C5.88189 1.67057 6.07385 0.999897 6.07573 0.994944C6.08091 0.981206 1.56545 0.983136 1.49838 0.996902ZM6.69112 2.42774C6.46456 3.22073 6.27295 3.89142 6.2653 3.91814L6.2514 3.96674H8.57497H10.8985L11.3105 2.52494C11.537 1.73196 11.7286 1.06128 11.7363 1.03454L11.7502 0.985944H9.4266H7.10304L6.69112 2.42774ZM12.3525 2.46726C12.1197 3.28207 11.9277 3.9528 11.9258 3.95774C11.9231 3.96494 12.4347 3.96674 14.4685 3.96674H17.0146L17.0127 2.73734L17.0108 1.50794L16.9906 1.44314C16.9252 1.23387 16.7667 1.07538 16.5572 1.00982L16.4924 0.989544L14.634 0.987664L12.7757 0.985785L12.3525 2.46726ZM0.00431905 3.01634C0.00431905 3.84992 0.00515425 4.19093 0.00618385 3.77414C0.00721345 3.35735 0.00721345 2.67533 0.00618385 2.25854C0.00515425 1.84175 0.00431905 2.18276 0.00431905 3.01634ZM0.436384 6.24283C0.320853 6.2535 0.234316 6.29586 0.144568 6.38568C0.0732374 6.45707 0.0290007 6.53537 0.0113463 6.62151C0.00198625 6.66713 0.000927852 7.27537 0.00261985 11.6111C0.00447025 16.3438 0.00509665 16.5519 0.0176247 16.6242C0.0648134 16.8967 0.164879 17.1331 0.323999 17.3479C0.392464 17.4404 0.559936 17.6079 0.652384 17.6763C0.870551 17.8379 1.11491 17.9403 1.38388 17.9829C1.46268 17.9954 1.7692 17.9959 9.00078 17.9959C16.2324 17.9959 16.5389 17.9954 16.6177 17.9829C16.9589 17.9289 17.2567 17.7808 17.5026 17.5428C17.7236 17.3289 17.8752 17.0707 17.95 16.7806C17.9716 16.6967 17.9936 16.5661 17.9936 16.5212C17.9936 16.5071 17.9968 16.4936 18.0008 16.4911C18.0056 16.4882 18.008 14.8395 18.008 11.5683C18.008 8.86321 18.0057 6.65223 18.0029 6.65502C18.0001 6.65782 17.9937 6.63973 17.9887 6.61482C17.9563 6.45299 17.7955 6.29087 17.6293 6.25231C17.5578 6.23573 17.4422 6.2377 17.3744 6.25666C17.213 6.30184 17.0834 6.43202 17.0305 6.60194C17.0189 6.6391 17.0179 6.94496 17.0145 11.5663L17.0108 16.4911L16.9906 16.5559C16.9252 16.7652 16.7667 16.9237 16.5572 16.9893L16.4924 17.0095H9.00078H1.50918L1.44438 16.9893C1.32254 16.9513 1.21411 16.8794 1.13392 16.7834C1.07268 16.7101 1.03545 16.6384 1.00303 16.5315C0.991569 16.4937 0.990546 16.1753 0.98709 11.5663C0.98362 6.94582 0.982633 6.6391 0.971077 6.60194C0.951976 6.54051 0.912052 6.46563 0.874115 6.42009C0.762457 6.28602 0.615052 6.22633 0.436384 6.24283ZM0.00436225 11.5771C0.00436225 14.2838 0.00518305 15.3911 0.00618385 14.0377C0.00718465 12.6844 0.00718465 10.4699 0.00618385 9.11654C0.00518305 7.76321 0.00436225 8.87048 0.00436225 11.5771ZM6.69318 7.94589C6.43215 7.9772 6.20618 8.08308 6.0222 8.26028C5.8553 8.42105 5.74873 8.61188 5.69429 8.84751L5.67829 8.91674L5.67597 11.2243C5.67429 12.8854 5.67588 13.5511 5.68164 13.6003C5.71702 13.9026 5.89437 14.2025 6.14262 14.3798C6.21965 14.4349 6.38713 14.5205 6.46278 14.5435C6.57896 14.5789 6.63903 14.5881 6.77958 14.5918C6.93719 14.5961 7.03431 14.5836 7.16118 14.5428C7.21572 14.5252 7.7861 14.2431 9.51198 13.3799C11.4122 12.4295 11.8021 12.232 11.8587 12.1912C12.0781 12.0333 12.2395 11.788 12.3028 11.5159C12.3216 11.4353 12.323 11.419 12.3231 11.2711C12.3232 11.0998 12.3149 11.0408 12.2728 10.9111C12.1935 10.6673 12.0044 10.4295 11.7836 10.296C11.7091 10.251 7.30189 8.04832 7.22598 8.0182C7.0927 7.9653 6.95804 7.94084 6.80838 7.94235C6.7569 7.94287 6.70506 7.94447 6.69318 7.94589ZM6.73282 8.95094C6.70348 8.96858 6.68937 8.98316 6.67554 9.01015L6.65718 9.04596V11.2673V13.4887L6.67518 13.5247C6.70884 13.5921 6.78321 13.6252 6.85235 13.6036C6.87173 13.5975 7.87902 13.0962 9.09078 12.4895C11.2264 11.4202 11.2946 11.3854 11.3153 11.3556C11.3319 11.3315 11.3371 11.3152 11.3392 11.28C11.3424 11.2272 11.3312 11.1958 11.2965 11.1605C11.2788 11.1426 10.6987 10.8493 9.06385 10.0319C6.89201 8.94602 6.85436 8.92754 6.8134 8.92754C6.77919 8.92754 6.76479 8.93173 6.73282 8.95094Z" fill="currentColor"/>
</g>
<defs>
<clipPath id="clip0_1451_2739">
<rect width="18" height="18" fill="white"/>
</clipPath>
</defs>
</svg>
