<svg width="18" height="18" viewBox="0 0 18 18" fill="none" xmlns="http://www.w3.org/2000/svg">
<path fill-rule="evenodd" clip-rule="evenodd" d="M8.90268 0.0100561C8.87892 0.0150097 8.84107 0.0261841 8.81858 0.0348817C8.79608 0.0435793 6.84884 1.22436 4.49138 2.65882C0.222243 5.25651 0.204833 5.26719 0.143208 5.3279C0.0954576 5.37493 0.0753192 5.40116 0.0550008 5.44284C-0.03276 5.62281 -0.0148248 5.81728 0.103997 5.9741C0.193219 6.09185 0.342511 6.16325 0.498096 6.16258C0.585698 6.1622 0.657929 6.1423 0.737878 6.0965C0.761638 6.08288 2.62928 4.94668 4.8882 3.5716C7.36268 2.0653 9.00015 1.07271 9.00748 1.07463C9.01416 1.07638 10.879 2.19345 13.1516 3.55701C15.4241 4.92056 17.3049 6.04496 17.3312 6.05565C17.527 6.13549 17.7681 6.06905 17.8957 5.90004C17.9383 5.84374 17.9767 5.7642 17.9887 5.70762L17.9983 5.66244L18.0018 5.69844C18.0037 5.71824 18.0043 5.69232 18.0032 5.64084C18.0008 5.53531 17.9868 5.46199 17.9559 5.39355C17.9285 5.33254 17.8787 5.26405 17.8359 5.22816C17.7835 5.18434 9.22042 0.0488353 9.16908 0.0304753C9.08199 -0.000671907 8.98849 -0.00783591 8.90268 0.0100561ZM14.0003 0.0102937C13.8333 0.0470425 13.6872 0.178385 13.6356 0.338038C13.6149 0.40188 13.6097 0.531098 13.6248 0.602566C13.6467 0.705835 13.709 0.803338 13.7999 0.876569C13.8544 0.920474 13.8934 0.941506 13.9643 0.965345L14.0147 0.982286L14.6642 0.984446L15.3138 0.986614L15.3159 1.63973C15.3184 2.36776 15.3148 2.31524 15.3693 2.41949C15.4932 2.65673 15.7853 2.7529 16.0242 2.63515C16.1362 2.57997 16.2364 2.46473 16.2772 2.34418L16.2971 2.28564L16.2991 1.37844C16.3005 0.765948 16.2987 0.454865 16.2935 0.420838C16.282 0.344323 16.2596 0.284851 16.2205 0.226394C16.1711 0.152501 16.0979 0.0868369 16.0252 0.0511537C15.9154 -0.0027023 15.9633 -0.000434306 14.9492 0.000206494C14.227 0.000667294 14.0347 0.00271209 14.0003 0.0102937ZM0.00254164 5.67324C0.00254164 5.71482 0.00372964 5.73183 0.00518404 5.71104C0.00663844 5.69024 0.00663844 5.65623 0.00518404 5.63544C0.00372964 5.61464 0.00254164 5.63166 0.00254164 5.67324ZM3.05822 6.81099C2.64931 6.8489 2.32078 7.16792 2.27531 7.57122C2.26947 7.62297 2.26789 8.68066 2.26954 11.4404C2.2717 15.0716 2.27237 15.2408 2.28479 15.2924C2.31443 15.4157 2.35071 15.5004 2.41647 15.5999C2.4979 15.723 2.61947 15.829 2.75388 15.8939C2.88942 15.9593 2.9605 15.9741 3.18588 15.9837C3.66578 16.0041 3.95145 16.0246 4.29468 16.0634C5.67097 16.2186 6.89293 16.6064 7.81548 17.1807C8.12465 17.3732 8.34906 17.5492 8.57516 17.7766C8.70286 17.905 8.72102 17.9205 8.7747 17.9474C8.85881 17.9895 8.92415 18.0025 9.02789 17.9977C9.18748 17.9903 9.24364 17.9588 9.42828 17.7729C9.64976 17.55 9.87656 17.3723 10.1843 17.1807C10.9462 16.7064 11.9208 16.3557 13.0103 16.1638C13.5734 16.0646 14.0634 16.0157 14.8139 15.9837C15.0393 15.9741 15.1103 15.9593 15.2459 15.8939C15.3803 15.829 15.5019 15.723 15.5833 15.5999C15.649 15.5004 15.6853 15.4157 15.715 15.2924C15.7274 15.2408 15.7281 15.0715 15.7303 11.4404C15.732 8.6539 15.7304 7.62422 15.7245 7.57404C15.7 7.3681 15.6174 7.19957 15.4684 7.05208C15.3478 6.93262 15.163 6.84041 15.0011 6.81883C14.9057 6.80612 14.8806 6.80588 14.6411 6.81539C12.8198 6.88767 11.2274 7.32819 9.96468 8.10905C9.6382 8.31095 9.24741 8.6055 9.03803 8.80752L9.00058 8.84365L8.95144 8.79744C8.56431 8.43348 8.00647 8.05892 7.41948 7.76883C6.45134 7.29038 5.34583 6.99007 4.09308 6.86523C3.8791 6.84391 3.52758 6.82034 3.33708 6.81455C3.26184 6.81226 3.18246 6.8092 3.16068 6.80777C3.1389 6.80634 3.0928 6.80778 3.05822 6.81099ZM3.25428 11.3989V15.0022L3.38928 15.007C3.9512 15.027 4.60048 15.0952 5.15148 15.192C6.41491 15.414 7.55041 15.833 8.42175 16.3987C8.46656 16.4278 8.50481 16.4516 8.50675 16.4516C8.50869 16.4516 8.51028 14.9429 8.51028 13.0989V9.74623L8.42928 9.66388C8.12434 9.35388 7.7528 9.07524 7.30991 8.8244C6.2375 8.21704 4.89324 7.86821 3.36408 7.80047L3.25428 7.79561V11.3989ZM14.5943 7.80211C13.563 7.84832 12.5527 8.0419 11.7071 8.35531C10.8305 8.6802 10.0639 9.15185 9.55608 9.6787L9.48948 9.74779V13.0997C9.48948 14.9433 9.49107 16.4516 9.49301 16.4516C9.49495 16.4516 9.5332 16.4278 9.578 16.3987C10.5383 15.7753 11.8107 15.3336 13.2304 15.1311C13.6681 15.0686 14.1848 15.0222 14.6105 15.007L14.7455 15.0022V11.3997V7.79724L14.6933 7.79863C14.6646 7.79939 14.62 7.80095 14.5943 7.80211Z" fill="currentColor"/>
</svg>
