<svg width="18" height="18" viewBox="0 0 18 18" fill="none" xmlns="http://www.w3.org/2000/svg">
<path fill-rule="evenodd" clip-rule="evenodd" d="M12.2517 1.61679C12.0852 1.63947 11.9337 1.68619 11.775 1.76378C11.5481 1.87479 11.3683 2.02374 11.214 2.22854L11.1543 2.30787L11.051 2.328C10.7957 2.37777 10.4378 2.46281 10.1629 2.53902C9.89033 2.61459 9.68568 2.67956 9.2629 2.82475C9.12472 2.87219 9.06015 2.8837 8.96546 2.87775C8.87617 2.87213 8.82945 2.85927 8.6401 2.78816C7.73294 2.44748 6.7727 2.23566 5.8105 2.164C5.31012 2.12673 4.76099 2.1254 4.2733 2.16029C3.39471 2.22312 2.46809 2.41304 1.66205 2.69548C1.39209 2.79008 1.2 2.90688 1.01735 3.08748C0.754201 3.34771 0.589544 3.6833 0.543356 4.05356C0.534457 4.12486 0.53301 4.86059 0.53296 9.32969C0.532916 12.9222 0.535242 14.5445 0.540498 14.5929C0.60146 15.1543 0.941956 15.6383 1.4509 15.887C1.79471 16.055 2.20049 16.0937 2.5813 15.9947C2.6209 15.9845 2.7019 15.9633 2.7613 15.9478C3.23125 15.8248 3.77763 15.7321 4.2841 15.6893C4.76634 15.6486 5.31042 15.6473 5.7889 15.6856C6.66936 15.756 7.54896 15.9555 8.35294 16.2671C8.60041 16.363 8.77052 16.3968 9.0037 16.3962C9.24298 16.3956 9.39166 16.3642 9.6841 16.2524C10.4734 15.9506 11.3487 15.7541 12.2078 15.6857C12.5568 15.6579 13.0767 15.6496 13.3921 15.6667C14.0568 15.7029 14.6493 15.7946 15.2785 15.9587C15.5647 16.0334 15.6607 16.0489 15.838 16.0488C16.5097 16.0484 17.1098 15.6389 17.3549 15.0137C17.3964 14.9079 17.4222 14.8126 17.4512 14.6592C17.4617 14.6035 17.463 14.1335 17.4654 9.41401C17.4673 5.63734 17.4659 4.20167 17.46 4.12561C17.4335 3.78226 17.3096 3.47544 17.0893 3.20761C16.9137 2.99419 16.6683 2.82024 16.4053 2.72272C16.0933 2.60707 15.3654 2.4165 14.8974 2.32797C14.83 2.31522 14.8293 2.31486 14.8074 2.28302C14.7559 2.20811 14.6704 2.10828 14.5992 2.03969C14.4007 1.84848 14.1715 1.71994 13.9103 1.65326C13.7267 1.60638 13.7097 1.60553 12.9792 1.60635C12.4725 1.60693 12.3067 1.60931 12.2517 1.61679ZM12.3792 2.5855C12.1853 2.6081 12.0024 2.74965 11.9267 2.93563C11.8809 3.04829 11.8846 2.86415 11.8821 5.18387L11.8799 7.29693L12.285 6.89311C12.6241 6.5551 12.6986 6.48431 12.7421 6.45877C12.8158 6.41547 12.8699 6.4001 12.9644 6.39554C13.0643 6.39074 13.1317 6.40435 13.2146 6.446C13.2714 6.47453 13.2868 6.48892 13.6856 6.88624L14.0979 7.29698L14.0959 5.17309C14.0941 3.25845 14.0928 3.04566 14.0825 3.01321C14.0447 2.89388 13.9954 2.81354 13.9118 2.73468C13.8203 2.6483 13.715 2.59947 13.5895 2.58508C13.5123 2.57625 12.4555 2.57662 12.3792 2.5855ZM4.6369 3.11813C3.82713 3.15156 3.04499 3.28655 2.25835 3.52867C1.93207 3.62909 1.85595 3.65969 1.76672 3.72635C1.62288 3.83378 1.5299 4.00254 1.5123 4.18809C1.50244 4.29208 1.50234 14.3734 1.5122 14.4748C1.52074 14.5627 1.53509 14.617 1.56961 14.6921C1.60492 14.7689 1.63873 14.8179 1.69756 14.8778C1.8235 15.006 1.98026 15.0709 2.16295 15.0705C2.24683 15.0703 2.2838 15.0632 2.50549 15.0049C3.71204 14.6876 5.00992 14.6011 6.2821 14.7533C6.95806 14.8342 7.61736 14.9827 8.27868 15.2033C8.40263 15.2446 8.5055 15.2784 8.50728 15.2784C8.50905 15.2784 8.5105 12.6912 8.5105 9.52899C8.5105 4.93563 8.5087 3.77904 8.5015 3.77697C8.49656 3.77554 8.4115 3.7445 8.3125 3.70798C7.3278 3.34476 6.40873 3.16004 5.3749 3.11759C5.18059 3.10961 4.83717 3.10987 4.6369 3.11813ZM10.6957 3.40866C10.3214 3.50325 10.0451 3.58737 9.6085 3.73963L9.4933 3.7798L9.4915 9.52911C9.49051 12.6912 9.49073 15.2784 9.49201 15.2784C9.49328 15.2784 9.60101 15.243 9.73141 15.1997C10.585 14.9163 11.3814 14.7614 12.3085 14.6984C12.5733 14.6805 13.1611 14.6766 13.4317 14.6911C14.156 14.7297 14.8562 14.836 15.481 15.0019C15.5498 15.0202 15.6401 15.0429 15.6817 15.0524C16.0395 15.1343 16.3745 14.931 16.4718 14.5728C16.4839 14.5283 16.4845 14.2735 16.4845 9.32761V4.12921L16.4643 4.06441C16.4099 3.89009 16.2894 3.74597 16.1316 3.66653C16.0471 3.62398 15.6895 3.51714 15.3181 3.42348L15.0805 3.36356L15.0769 5.96399L15.0733 8.56441L15.0535 8.62201C15.0115 8.74418 14.9299 8.84295 14.8199 8.90467C14.6657 8.99117 14.4623 8.98027 14.3088 8.87728C14.2897 8.8645 13.9849 8.56535 13.6315 8.2125L12.9889 7.57096L12.3427 8.21614C11.9873 8.57098 11.681 8.87167 11.6621 8.88435C11.4912 8.9988 11.252 8.98779 11.0919 8.8581C11.0056 8.78824 10.9399 8.68448 10.9188 8.58468C10.9098 8.54244 10.9083 8.17577 10.9082 5.94901L10.9081 3.36241L10.8919 3.3628C10.883 3.363 10.7947 3.38364 10.6957 3.40866Z" fill="#0C1F22"/>
</svg>
