<svg width="18" height="18" viewBox="0 0 18 18" fill="none" xmlns="http://www.w3.org/2000/svg">
<g clip-path="url(#clip0_1637_3057)">
<path fill-rule="evenodd" clip-rule="evenodd" d="M8.64701 0.572574C8.48228 0.581401 8.32513 0.591985 8.22221 0.601194C6.59794 0.746476 5.03233 1.37578 3.74777 2.39971C3.33494 2.72878 2.92546 3.12572 2.5696 3.54182C1.87683 4.35185 1.33524 5.31472 0.992177 6.34622C0.79062 6.95225 0.658133 7.5885 0.601613 8.22182C0.575887 8.51014 0.572266 8.60608 0.572266 8.99942C0.572266 9.39275 0.575887 9.48869 0.601613 9.77702C0.746462 11.4001 1.37627 12.967 2.40011 14.2515C2.72772 14.6625 3.12801 15.0754 3.54221 15.4296C4.35184 16.122 5.31475 16.6636 6.34661 17.007C6.95191 17.2085 7.58882 17.3411 8.22221 17.3976C8.51054 17.4233 8.60648 17.427 8.99981 17.427C9.39315 17.427 9.48909 17.4233 9.77741 17.3976C11.4005 17.2528 12.9675 16.6229 14.2519 15.5991C14.6629 15.2715 15.0758 14.8712 15.43 14.457C16.1224 13.6474 16.664 12.6845 17.0074 11.6526C17.2088 11.0473 17.3415 10.4104 17.398 9.77702C17.4237 9.48869 17.4274 9.39275 17.4274 8.99942C17.4274 8.60608 17.4237 8.51014 17.398 8.22182C17.2532 6.59878 16.6233 5.03176 15.5995 3.74737C15.2719 3.33636 14.8716 2.92344 14.4574 2.56921C13.6477 1.8767 12.685 1.33525 11.653 0.991808C10.9846 0.769357 10.3422 0.643026 9.58679 0.585455C9.45237 0.575209 8.77184 0.565878 8.64701 0.572574ZM8.87021 1.55254C7.04742 1.57729 5.26939 2.29317 3.93442 3.53982C3.09958 4.31941 2.48264 5.22163 2.06957 6.26702C1.77313 7.01724 1.60984 7.7667 1.56211 8.59622C1.55223 8.76778 1.55223 9.23106 1.56211 9.40262C1.60984 10.2321 1.77313 10.9816 2.06957 11.7318C2.48264 12.7772 3.09958 13.6794 3.93442 14.459C4.61157 15.0914 5.39488 15.5851 6.26741 15.9296C7.0176 16.2258 7.77517 16.3909 8.59522 16.437C8.77411 16.4471 9.22552 16.4471 9.40441 16.437C10.4318 16.3793 11.3838 16.1296 12.301 15.6772C12.8922 15.3857 13.3991 15.046 13.9166 14.5946C14.0707 14.4602 14.4606 14.0703 14.595 13.9162C15.0464 13.3987 15.3861 12.8918 15.6776 12.3006C16.13 11.3834 16.3797 10.4314 16.4374 9.40401C16.4475 9.22512 16.4475 8.77371 16.4374 8.59482C16.3795 7.56433 16.1289 6.61116 15.674 5.69102C15.2744 4.88272 14.7444 4.17408 14.0652 3.53982C13.3881 2.90748 12.6048 2.41371 11.7322 2.06922C10.8176 1.70812 9.87984 1.53882 8.87021 1.55254ZM8.87138 5.68765C8.78728 5.70968 8.7238 5.74746 8.65401 5.81702C8.58365 5.88715 8.54686 5.94963 8.52452 6.03698C8.51076 6.09078 8.51042 6.12718 8.51009 7.58523C8.5098 8.89785 8.51108 9.08348 8.52069 9.12056C8.53626 9.18066 8.55784 9.22697 8.5934 9.27662C8.61041 9.30038 9.44186 10.1367 10.4411 11.1352C12.4168 13.1094 12.2823 12.9803 12.4008 13.0164C12.6251 13.0847 12.8724 12.9811 12.9802 12.7736C13.0213 12.6945 13.0342 12.64 13.0342 12.5454C13.0342 12.4364 13.0085 12.3495 12.9517 12.2658C12.9431 12.2533 12.1606 11.467 11.2128 10.5186L9.48941 8.79412V7.44352C9.48941 6.11975 9.48913 6.09181 9.47511 6.03702C9.45294 5.95032 9.41592 5.88753 9.34541 5.81702C9.2749 5.74651 9.21211 5.70949 9.12541 5.68732C9.05168 5.66846 8.9441 5.6686 8.87138 5.68765Z" fill="#222B3C"/>
</g>
<defs>
<clipPath id="clip0_1637_3057">
<rect width="18" height="18" fill="white"/>
</clipPath>
</defs>
</svg>
