<svg width="18" height="18" viewBox="0 0 18 18" fill="none" xmlns="http://www.w3.org/2000/svg">
<g clip-path="url(#clip0_7567_8408)">
<path fill-rule="evenodd" clip-rule="evenodd" d="M5.30618 0.011018C4.60141 0.0687548 3.92872 0.329978 3.38018 0.758932C2.62161 1.35213 2.13078 2.21299 2.01275 3.15724C1.97745 3.43954 1.97744 3.78118 2.0127 4.06444C2.13583 5.05357 2.66577 5.94662 3.48098 6.53879C4.09597 6.98551 4.82638 7.22147 5.59418 7.22145C6.15763 7.22143 6.66897 7.10468 7.16777 6.86216C7.54873 6.67693 7.85593 6.45856 8.15042 6.16363C8.50724 5.80628 8.77567 5.39722 8.9586 4.93204C9.22288 4.26001 9.27894 3.51756 9.11897 2.80804C9.02856 2.40706 8.8594 2.00535 8.63385 1.65604C8.06058 0.768177 7.12143 0.170181 6.08378 0.0323012C5.84385 0.00041958 5.53779 -0.00796122 5.30618 0.011018ZM5.39978 0.991377C4.23494 1.07855 3.25593 1.9395 3.0242 3.08048C2.87099 3.83485 3.05265 4.62007 3.5188 5.21833C3.9143 5.72593 4.48114 6.07448 5.10135 6.19144C5.25849 6.22108 5.33864 6.22877 5.53298 6.23288C5.73003 6.23705 5.82962 6.23186 5.98298 6.20943C6.44327 6.14208 6.89037 5.94493 7.25249 5.6496C7.77646 5.22228 8.10557 4.63251 8.2018 3.94844C8.22363 3.7932 8.22548 3.44787 8.20527 3.29764C8.12546 2.70442 7.88286 2.19717 7.4809 1.78301C7.03714 1.32578 6.45623 1.0502 5.81738 0.993861C5.74152 0.987172 5.477 0.985603 5.39978 0.991377ZM5.37098 7.37764C4.46404 7.41697 3.60518 7.66223 2.82929 8.10345C1.81557 8.67993 0.984982 9.58572 0.508472 10.6344C0.183205 11.3503 0.019988 12.0587 0.00250644 12.8304C-0.00252636 13.0527 0.00272964 13.0917 0.0510344 13.1904C0.0755216 13.2405 0.0929888 13.2636 0.147097 13.3174C0.201478 13.3715 0.223993 13.3883 0.273896 13.4121C0.357265 13.4518 0.398636 13.4605 0.500178 13.46C0.577102 13.4595 0.593382 13.4571 0.648627 13.4378C0.767672 13.396 0.871042 13.3075 0.927339 13.1991C0.973628 13.1099 0.978848 13.0803 0.98607 12.8664C0.99314 12.6571 1.00087 12.5546 1.02275 12.3804C1.12532 11.5641 1.46203 10.7617 1.97148 10.1196C2.19386 9.83937 2.47041 9.56295 2.74658 9.3449C3.3877 8.83871 4.17851 8.5044 4.98578 8.3983C5.32915 8.35316 5.68816 8.34844 5.98658 8.38511C6.19426 8.41065 6.26633 8.40516 6.36995 8.35595C6.50884 8.28999 6.61045 8.1663 6.64191 8.02485C6.65891 7.94846 6.65384 7.81243 6.63169 7.75091C6.58015 7.60772 6.4599 7.48906 6.31827 7.44161C6.19104 7.399 5.67783 7.36433 5.37098 7.37764ZM9.39938 7.94657C9.08263 7.97421 8.7997 8.07742 8.56839 8.24969C8.49039 8.30779 8.34062 8.45912 8.28184 8.53924C8.12059 8.75901 8.01765 9.01029 7.96183 9.32044L7.94498 9.41404V12.9888C7.94498 16.405 7.94555 16.5673 7.95802 16.6464C8.00529 16.9463 8.08687 17.15 8.24624 17.3662C8.46354 17.661 8.80842 17.8702 9.22597 17.9604C9.40002 17.9981 9.12038 17.9952 12.9382 17.9981C16.5491 18.0008 16.5397 18.0009 16.7002 17.974C17.3481 17.8654 17.8119 17.405 17.9574 16.7256C17.9984 16.5342 17.9949 16.8521 17.9978 13.0032C18.0005 9.39234 18.0006 9.40168 17.9737 9.24124C17.8636 8.58396 17.4007 8.12495 16.7002 7.97841C16.5133 7.93931 16.7489 7.94154 12.9432 7.94285C11.0099 7.94352 9.41522 7.94519 9.39938 7.94657ZM9.40535 8.9387C9.37696 8.94386 9.32774 8.95673 9.29597 8.96731C9.11318 9.02818 8.99482 9.1881 8.94249 9.44488C8.92779 9.51703 8.92778 9.52045 8.92778 12.9944C8.92778 16.8013 8.92465 16.5252 8.96924 16.651C9.03312 16.8312 9.19174 16.9474 9.44391 16.9988L9.51684 17.0136H12.9942C16.0155 17.0136 16.4794 17.0123 16.5318 17.0031C16.6004 16.9911 16.6537 16.974 16.7152 16.9442C16.7714 16.917 16.8647 16.8248 16.9047 16.757C16.9425 16.6926 16.9798 16.5893 16.9988 16.4961C17.0133 16.4249 17.0134 16.4104 17.0134 12.9473C17.0134 9.13011 17.0167 9.4143 16.9708 9.28864C16.905 9.1082 16.7485 8.9941 16.4965 8.94275C16.4244 8.92804 16.4223 8.92804 12.9406 8.92869C10.1145 8.92921 9.44724 8.9311 9.40535 8.9387ZM10.591 10.2208C10.4556 10.25 10.3241 10.3554 10.2592 10.4868C10.2201 10.5659 10.2069 10.633 10.2118 10.728C10.2185 10.8613 10.2595 10.9522 10.3563 11.0491C10.4215 11.1142 10.4797 11.15 10.5622 11.1756L10.6162 11.1924H12.9706H15.325L15.3893 11.1714C15.5568 11.1165 15.6877 10.9703 15.7216 10.8002C15.7358 10.7289 15.7322 10.6259 15.7134 10.5624C15.6679 10.4095 15.5393 10.2803 15.379 10.2265C15.3408 10.2137 15.2532 10.2132 12.9886 10.212C10.9961 10.2109 10.6306 10.2122 10.591 10.2208ZM10.5946 12.4895C10.5669 12.4953 10.5167 12.5133 10.4831 12.5295C10.4329 12.5536 10.4104 12.5705 10.3565 12.6244C10.3036 12.6775 10.2852 12.7018 10.2609 12.7512C10.2255 12.8231 10.2096 12.891 10.2096 12.9708C10.2096 13.0507 10.2255 13.1186 10.2609 13.1904C10.2853 13.2401 10.3034 13.2639 10.3564 13.3168C10.4097 13.3699 10.4331 13.3874 10.483 13.4115C10.5166 13.4278 10.562 13.4454 10.5838 13.4508C10.6165 13.4588 11.0289 13.4604 12.9706 13.4604C14.9122 13.4604 15.3246 13.4588 15.3574 13.4508C15.3792 13.4454 15.4245 13.4278 15.4582 13.4115C15.5442 13.3699 15.6361 13.2783 15.68 13.1904C15.7198 13.1108 15.7351 13.0325 15.7294 12.9384C15.7213 12.8071 15.6825 12.7231 15.5844 12.6249C15.5314 12.5718 15.508 12.5542 15.4582 12.5299C15.3415 12.4731 15.5592 12.4776 12.9655 12.4782C10.9468 12.4787 10.6384 12.4802 10.5946 12.4895ZM10.6181 14.753C10.5145 14.7707 10.435 14.8137 10.3527 14.8964C10.2546 14.995 10.2096 15.1027 10.2096 15.2388C10.2096 15.4572 10.3539 15.6502 10.5658 15.7152C10.6068 15.7278 10.6568 15.7284 11.5522 15.7284C12.4475 15.7284 12.4976 15.7278 12.5386 15.7152C12.7504 15.6502 12.8947 15.4572 12.8947 15.2388C12.8947 15.1027 12.8497 14.995 12.7517 14.8964C12.6845 14.8289 12.6294 14.794 12.5458 14.7661L12.4954 14.7492L11.5738 14.7482C11.0669 14.7476 10.6368 14.7498 10.6181 14.753Z" fill="#0C1F22"/>
</g>
<defs>
<clipPath id="clip0_7567_8408">
<rect width="18" height="18" fill="white"/>
</clipPath>
</defs>
</svg>
