<svg width="20" height="20" viewBox="0 0 32 32" fill="none" xmlns="http://www.w3.org/2000/svg">
<path d="M23.881 4.78496C23.472 4.85069 23.1938 5.2355 23.2595 5.64447C23.3252 6.05343 23.71 6.33168 24.119 6.26596L23.881 4.78496ZM30.3093 5.00013L30.3144 5.75014L30.3209 5.75004L30.3093 5.00013ZM30.7973 5.19213L31.3193 4.65358L31.3168 4.65111L30.7973 5.19213ZM31 5.66679H31.75L31.75 5.66225L31 5.66679ZM31 26.6908L31.75 26.6982V26.6908H31ZM30.3333 27.3575L30.3259 26.6075L30.324 26.6075L30.3333 27.3575ZM16 31.0001H15.25C15.25 31.3081 15.4383 31.5848 15.7247 31.6978C16.0112 31.8108 16.3377 31.7372 16.548 31.5122L16 31.0001ZM16 8.64279H16.75C16.75 8.45261 16.6777 8.26953 16.5479 8.1306L16 8.64279ZM1.69067 5.00013L1.67629 5.75L1.68106 5.75007L1.69067 5.00013ZM1.2 5.19213L0.680495 4.65113L0.675002 4.65652L1.2 5.19213ZM1 5.66679L0.25 5.66518V5.66679H1ZM1 26.6908H0.249964L0.250036 26.6982L1 26.6908ZM1.66667 27.3575L1.67598 26.6075L1.67406 26.6075L1.66667 27.3575ZM15.452 31.5122C15.7349 31.8149 16.2095 31.8309 16.5121 31.5481C16.8147 31.2653 16.8308 30.7907 16.548 30.488L15.452 31.5122ZM24.119 6.26596C26.168 5.93666 28.2392 5.76421 30.3144 5.75011L30.3042 4.25014C28.1527 4.26476 26.0054 4.44355 23.881 4.78496L24.119 6.26596ZM30.3209 5.75004C30.3049 5.75028 30.2894 5.74421 30.2779 5.73314L31.3168 4.65111C31.0432 4.38846 30.677 4.24439 30.2978 4.25022L30.3209 5.75004ZM30.2753 5.73067C30.2674 5.72296 30.2611 5.71375 30.2567 5.70356L31.6362 5.11455C31.5623 4.94136 31.4545 4.78465 31.3193 4.65358L30.2753 5.73067ZM30.2567 5.70356C30.2524 5.69337 30.2501 5.68242 30.25 5.67134L31.75 5.66225C31.7488 5.47393 31.7102 5.28774 31.6362 5.11455L30.2567 5.70356ZM30.25 5.66679V26.6908H31.75V5.66679H30.25ZM30.25 26.6834C30.2502 26.6633 30.2583 26.6441 30.2725 26.6299L31.3331 27.6906C31.5966 27.4271 31.7463 27.0708 31.75 26.6982L30.25 26.6834ZM30.2725 26.6299C30.2867 26.6158 30.3059 26.6077 30.3259 26.6075L30.3407 28.1074C30.7133 28.1038 31.0697 27.9541 31.3331 27.6906L30.2725 26.6299ZM30.324 26.6075C24.7169 26.6772 21.0389 27.6014 18.7381 28.5354C17.5879 29.0022 16.7846 29.4705 16.259 29.8327C15.9963 30.0138 15.8035 30.168 15.6718 30.2819C15.606 30.3388 15.5555 30.3856 15.5192 30.4205C15.5011 30.438 15.4865 30.4525 15.4754 30.4638C15.4698 30.4695 15.4651 30.4743 15.4612 30.4784C15.4593 30.4804 15.4575 30.4822 15.456 30.4838C15.4552 30.4846 15.4545 30.4854 15.4539 30.4861C15.4535 30.4864 15.4531 30.4869 15.4529 30.4871C15.4525 30.4876 15.452 30.488 16 31.0001C16.548 31.5122 16.5475 31.5127 16.5472 31.5131C16.547 31.5132 16.5467 31.5136 16.5464 31.5138C16.546 31.5143 16.5456 31.5148 16.5452 31.5151C16.5445 31.5159 16.544 31.5165 16.5436 31.5168C16.543 31.5175 16.5431 31.5173 16.5441 31.5163C16.546 31.5144 16.5512 31.5092 16.5597 31.5009C16.5769 31.4845 16.6075 31.4558 16.6529 31.4166C16.7435 31.3382 16.8931 31.2175 17.1103 31.0678C17.5444 30.7686 18.2512 30.3519 19.3023 29.9252C21.4038 29.0722 24.8925 28.1751 30.3426 28.1074L30.324 26.6075ZM16.75 31.0001V8.64279H15.25V31.0001H16.75ZM16 8.64279C16.5479 8.1306 16.5474 8.13014 16.547 8.12967C16.5468 8.1295 16.5464 8.12901 16.5461 8.12866C16.5454 8.12797 16.5447 8.12722 16.5439 8.12641C16.5424 8.12481 16.5407 8.12299 16.5387 8.12097C16.5349 8.11693 16.5301 8.11207 16.5246 8.10642C16.5134 8.09511 16.4989 8.08062 16.4808 8.06318C16.4445 8.02828 16.3941 7.98156 16.3283 7.92471C16.1968 7.81097 16.0042 7.6569 15.7418 7.47603C15.2168 7.11408 14.4146 6.64624 13.2662 6.17962C10.9687 5.24616 7.29679 4.32186 1.70027 4.25019L1.68106 5.75007C7.12054 5.81973 10.6033 6.71676 12.7015 7.5693C13.7509 7.99568 14.4568 8.41201 14.8904 8.71097C15.1074 8.86056 15.2567 8.98113 15.3473 9.05943C15.3926 9.0986 15.4232 9.12724 15.4403 9.1437C15.4489 9.15193 15.4541 9.15713 15.456 9.15907C15.4569 9.16005 15.4571 9.16021 15.4564 9.15954C15.4561 9.1592 15.4556 9.15866 15.4549 9.1579C15.4545 9.15752 15.4541 9.15709 15.4536 9.1566C15.4534 9.15636 15.453 9.15596 15.4529 9.15583C15.4525 9.15542 15.4521 9.15499 16 8.64279ZM1.70504 4.25026C1.32392 4.24296 0.955468 4.38714 0.680522 4.65116L1.71948 5.73309C1.70789 5.74422 1.69236 5.7503 1.6763 5.74999L1.70504 4.25026ZM0.675002 4.65652C0.540805 4.78806 0.434118 4.94498 0.361153 5.11815L1.74346 5.70058C1.73917 5.71077 1.73289 5.72 1.725 5.72774L0.675002 4.65652ZM0.361153 5.11815C0.288189 5.29132 0.250405 5.47727 0.250002 5.66518L1.75 5.6684C1.74997 5.67946 1.74775 5.69039 1.74346 5.70058L0.361153 5.11815ZM0.25 5.66679V26.6908H1.75V5.66679H0.25ZM0.250036 26.6982C0.253708 27.0708 0.403359 27.4271 0.666852 27.6906L1.72751 26.6299C1.74171 26.6441 1.74977 26.6633 1.74996 26.6834L0.250036 26.6982ZM0.666852 27.6906C0.930345 27.9541 1.28666 28.1038 1.65928 28.1074L1.67406 26.6075C1.69413 26.6077 1.71332 26.6158 1.72751 26.6299L0.666852 27.6906ZM1.65735 28.1074C7.10754 28.1751 10.5962 29.0722 12.6977 29.9252C13.7488 30.3519 14.4556 30.7686 14.8897 31.0678C15.107 31.2175 15.2565 31.3382 15.3471 31.4166C15.3925 31.4558 15.4231 31.4845 15.4403 31.5009C15.4488 31.5092 15.454 31.5144 15.4559 31.5163C15.4569 31.5173 15.457 31.5175 15.4564 31.5168C15.456 31.5165 15.4555 31.5159 15.4548 31.5151C15.4544 31.5148 15.454 31.5143 15.4536 31.5138C15.4533 31.5136 15.453 31.5132 15.4528 31.5131C15.4525 31.5127 15.452 31.5122 16 31.0001C16.548 30.488 16.5475 30.4876 16.5471 30.4871C16.5469 30.4869 16.5465 30.4864 16.5461 30.4861C16.5455 30.4854 16.5448 30.4846 16.544 30.4838C16.5425 30.4822 16.5408 30.4804 16.5388 30.4784C16.5349 30.4743 16.5302 30.4695 16.5246 30.4638C16.5135 30.4525 16.4989 30.438 16.4808 30.4205C16.4445 30.3856 16.394 30.3388 16.3282 30.2819C16.1965 30.168 16.0037 30.0138 15.741 29.8327C15.2154 29.4705 14.4121 29.0022 13.2619 28.5354C10.9611 27.6014 7.28312 26.6772 1.67598 26.6075L1.65735 28.1074Z" fill="white"/>
<path d="M16 8.97678V31.3341C16 31.3341 12.724 27.8288 1.66667 27.6914C1.49039 27.6897 1.32183 27.6189 1.19718 27.4943C1.07253 27.3696 1.00174 27.2011 1 27.0248V6.00078C1.00019 5.91235 1.01797 5.82484 1.05231 5.74335C1.08664 5.66186 1.13685 5.58801 1.2 5.52611C1.33168 5.39966 1.50814 5.33061 1.69067 5.33411C12.7267 5.47544 16 8.97678 16 8.97678Z" fill="white"/>
<path d="M16 30.3433C16.2107 28.6152 16.9761 27.0021 18.1813 25.746C19.7323 24.0729 21.7662 22.925 24 22.462V1.65796C23.998 1.55073 23.9691 1.44573 23.916 1.35255C23.8628 1.25938 23.7872 1.18101 23.696 1.12462C23.5989 1.06361 23.4899 1.02418 23.3762 1.009C23.2626 0.993816 23.147 1.00324 23.0373 1.03662C21.1664 1.57422 19.484 2.62611 18.1813 4.07262C16.9766 5.32805 16 8.66729 16 8.66729" fill="white"/>
<path fill-rule="evenodd" clip-rule="evenodd" d="M22.755 0.0773013C22.9991 0.00434494 23.256 -0.0159485 23.5087 0.0178062C23.7632 0.0518099 24.0075 0.139871 24.2251 0.27606C24.4571 0.420226 24.6495 0.620022 24.7847 0.857351C24.9206 1.0958 24.9946 1.36453 24.9998 1.63895L25 1.65796V22.462C25 22.936 24.6672 23.3449 24.203 23.4411C22.1728 23.862 20.3243 24.9053 18.9147 26.4258L18.903 26.4384C17.8475 27.5384 17.1771 28.951 16.9927 30.4643C16.9287 30.9892 16.4672 31.3735 15.9394 31.3415C15.4116 31.3094 15 30.872 15 30.3433V8.66729C15 8.57229 15.0135 8.47777 15.0402 8.38659L16 8.66729C15.0402 8.38659 15.0402 8.38673 15.0402 8.38659L15.0414 8.38241L15.0441 8.37343L15.0536 8.34151C15.0618 8.3142 15.0737 8.27504 15.0891 8.22534C15.1199 8.126 15.1648 7.98431 15.2223 7.811C15.337 7.4652 15.5034 6.98948 15.7098 6.47093C16.1004 5.48956 16.701 4.17806 17.4483 3.39232C18.8733 1.81404 20.7114 0.665753 22.755 0.0773013ZM17 8.81575V25.571C17.1444 25.3954 17.2957 25.2249 17.4538 25.0598C18.9588 23.4386 20.8798 22.2701 23 21.6767V2.09377C21.4347 2.60329 20.0286 3.5157 18.9244 4.74181C18.9174 4.74966 18.9102 4.7574 18.9029 4.76502C18.4508 5.23613 17.9648 6.2135 17.568 7.21055C17.3796 7.68375 17.2266 8.1213 17.1205 8.44083C17.068 8.59923 17.0273 8.72762 17 8.81575Z" fill="white"/>
</svg>
