<svg width="29" height="31" viewBox="0 0 29 31" fill="none" xmlns="http://www.w3.org/2000/svg">
<path d="M0.5 0.666016H6.5V6.66602H0.5V0.666016Z" fill="currentColor"/>
<path d="M0.5 24.666H6.5V30.666H0.5V24.666Z" fill="currentColor"/>
<path d="M22.5 0.666016H28.5V6.66602H22.5V0.666016Z" fill="currentColor"/>
<path d="M22.5 24.666H28.5V30.666H22.5V24.666Z" fill="currentColor"/>
<path d="M6.5 2.66602H22.5" stroke="currentColor" stroke-width="1.5" stroke-linecap="round" stroke-linejoin="round"/>
<path d="M26.5 6.66602V24.666" stroke="currentColor" stroke-width="1.5" stroke-linecap="round" stroke-linejoin="round"/>
<path d="M22.5 28.666H6.5" stroke="currentColor" stroke-width="1.5" stroke-linecap="round" stroke-linejoin="round"/>
<path d="M2.5 24.666V6.66602" stroke="currentColor" stroke-width="1.5" stroke-linecap="round" stroke-linejoin="round"/>
<path d="M8.5 11.6687C8.49965 11.2745 8.57699 10.8841 8.7276 10.5198C8.8782 10.1555 9.09913 9.8245 9.37774 9.54564C9.65635 9.26678 9.98718 9.04556 10.3513 8.89463C10.7155 8.7437 11.1058 8.66602 11.5 8.66602H17.5C17.8942 8.66602 18.2845 8.7437 18.6487 8.89463C19.0128 9.04556 19.3437 9.26678 19.6223 9.54564C19.9009 9.8245 20.1218 10.1555 20.2724 10.5198C20.423 10.8841 20.5003 11.2745 20.5 11.6687" stroke="currentColor" stroke-width="1.5" stroke-linecap="round" stroke-linejoin="round"/>
<path d="M14.5 8.66602V22.666" stroke="currentColor" stroke-width="1.5" stroke-linecap="round" stroke-linejoin="round"/>
<path d="M10.457 22.666H18.457" stroke="currentColor" stroke-width="1.5" stroke-linecap="round" stroke-linejoin="round"/>
</svg>
