<svg width="180" height="100" viewBox="0 0 180 100" fill="none" xmlns="http://www.w3.org/2000/svg">
<g clip-path="url(#clip0_4_30645)">
<mask id="path-3-inside-1_4_30645" fill="white">
<path d="M0 0.518433H180V19.5184H0V0.518433Z"/>
</mask>
<path d="M0 0.518433H180V19.5184H0V0.518433Z" fill="white"/>
<path d="M180 19.0184H0V20.0184H180V19.0184Z" fill="#DDE1E6" mask="url(#path-3-inside-1_4_30645)"/>
<circle cx="10.3896" cy="9.83835" r="5" fill="#DDE1E6"/>
<rect width="26" height="3" transform="translate(17 8.51843)" fill="#878D96"/>
<rect width="180" height="80" transform="translate(0 19.5184)" fill="white"/>
<g filter="url(#filter0_d_4_30645)">
<g clip-path="url(#clip1_4_30645)">
<rect x="10" y="26.5184" width="158" height="25" rx="1" fill="white"/>
<rect width="36" height="25" transform="translate(10 26.5184)" fill="#DDE1E6"/>
<g clip-path="url(#clip2_4_30645)">
<path fill-rule="evenodd" clip-rule="evenodd" d="M23.3584 32.0239C23.1226 32.048 22.8963 32.154 22.7217 32.3222C22.5356 32.5014 22.4178 32.7459 22.394 33.0024C22.3867 33.0804 22.3867 42.9565 22.394 43.0344C22.4135 43.2448 22.4976 43.4508 22.6321 43.6176C22.812 43.8409 23.0798 43.9851 23.3673 44.0135C23.4366 44.0204 32.5634 44.0204 32.6327 44.0135C32.877 43.9894 33.1007 43.8857 33.279 43.7141C33.4646 43.5352 33.5816 43.2916 33.6062 43.0324C33.6132 42.9585 33.6131 34.5337 33.6061 34.4568C33.5864 34.2409 33.4976 34.0269 33.3597 33.863C33.3402 33.8398 33.2727 33.7699 33.2097 33.7076C33.117 33.6158 32.1678 32.6897 31.8327 32.364C31.7879 32.3205 31.7328 32.2705 31.7104 32.253C31.5439 32.1234 31.3482 32.044 31.1447 32.0235C31.0828 32.0172 23.4196 32.0176 23.3584 32.0239ZM23.3872 32.6833C23.2347 32.7147 23.1096 32.8292 23.0623 32.9808L23.0488 33.024V38.016V43.008L23.0595 43.0448C23.0811 43.1194 23.1143 43.177 23.1661 43.2302C23.2335 43.2992 23.3087 43.3398 23.3989 43.3558C23.4389 43.3629 32.5611 43.3629 32.6011 43.3558C32.6913 43.3398 32.7665 43.2992 32.8339 43.2302C32.8857 43.177 32.9189 43.1194 32.9405 43.0448L32.9512 43.008V38.7456V34.4832L32.9378 34.4403C32.9192 34.3811 32.8873 34.3218 32.8517 34.2802C32.8094 34.2308 31.3255 32.7848 31.2904 32.7588C31.2523 32.7305 31.2066 32.7079 31.155 32.6917L31.1128 32.6784L27.2656 32.6777C24.0727 32.6771 23.4131 32.678 23.3872 32.6833ZM25.9696 34.2943C25.8615 34.3054 25.7311 34.3352 25.6262 34.3727C25.5491 34.4004 25.4078 34.4693 25.341 34.512C25.0217 34.7157 24.7915 35.0332 24.7024 35.3928C24.6693 35.5263 24.6615 35.5959 24.6619 35.7552C24.6621 35.8692 24.6638 35.9002 24.6729 35.9592C24.7171 36.2474 24.8386 36.5089 25.0256 36.7183C25.2332 36.9509 25.4961 37.1069 25.7968 37.176C25.9119 37.2024 25.9763 37.209 26.1208 37.209C26.2358 37.209 26.2652 37.2074 26.3248 37.1983C26.5566 37.1626 26.7511 37.0879 26.9357 36.9638C27.2786 36.7331 27.5069 36.3714 27.5681 35.9616C27.5882 35.8268 27.586 35.6394 27.5626 35.5032C27.4925 35.0946 27.2539 34.7373 26.9006 34.5119C26.8338 34.4693 26.6925 34.4004 26.6154 34.3727C26.5064 34.3337 26.3798 34.3053 26.2631 34.2938C26.2047 34.288 26.0281 34.2883 25.9696 34.2943ZM26.0848 34.9449C25.9504 34.9515 25.8201 34.991 25.7032 35.0607C25.6215 35.1094 25.5216 35.2023 25.4646 35.2827C25.3891 35.389 25.3383 35.5193 25.3213 35.6504C25.3129 35.7145 25.318 35.848 25.3311 35.9088C25.385 36.1598 25.5386 36.3584 25.7671 36.4725C26.035 36.6064 26.3656 36.5742 26.6085 36.3907C26.7087 36.3149 26.8016 36.1989 26.852 36.0864C26.9011 35.9771 26.9199 35.8947 26.9234 35.7744C26.9268 35.654 26.9152 35.5797 26.8759 35.4696C26.8 35.2573 26.6158 35.0732 26.4005 34.9943C26.3036 34.9587 26.1844 34.9401 26.0848 34.9449ZM28.9216 37.627C28.8201 37.6417 28.7465 37.665 28.6536 37.7117C28.5473 37.7653 28.4542 37.8392 28.3867 37.9236C28.3694 37.9451 28.0933 38.3371 27.7732 38.7945C27.4531 39.252 27.1899 39.6263 27.1882 39.6264C27.1866 39.6264 27.0525 39.5201 26.8903 39.39C26.7282 39.26 26.5794 39.1428 26.5598 39.1296C26.2893 38.9477 25.9159 38.9454 25.6441 39.1239C25.554 39.183 25.4887 39.2432 25.4306 39.3206C25.3821 39.3852 24.3219 40.9822 24.308 41.0117C24.267 41.0985 24.2724 41.2167 24.3214 41.3052C24.3534 41.363 24.4128 41.4161 24.4785 41.4455C24.5662 41.4849 24.6758 41.4801 24.7654 41.433C24.8379 41.3949 24.8078 41.4369 25.4063 40.5379C25.8298 39.9019 25.9603 39.7091 25.9792 39.6922C26.0346 39.6423 26.1204 39.6329 26.1838 39.6697C26.1966 39.6772 26.3984 39.8369 26.632 40.0247C26.8656 40.2125 27.0713 40.3748 27.0889 40.3854C27.1066 40.3961 27.1368 40.4105 27.1561 40.4174C27.187 40.4286 27.1986 40.4301 27.2536 40.4302C27.3098 40.4304 27.3202 40.4291 27.3585 40.4165C27.4096 40.3998 27.4606 40.3676 27.4936 40.3313C27.5068 40.3168 27.8243 39.8666 28.1991 39.3309C28.5739 38.7952 28.891 38.3458 28.9036 38.3322C28.9182 38.3167 28.9376 38.3026 28.9565 38.2938C28.9828 38.2817 28.9919 38.28 29.032 38.28C29.0712 38.28 29.0814 38.2818 29.1046 38.2927C29.1194 38.2997 29.1408 38.3137 29.1521 38.3239C29.166 38.3364 29.5009 38.8348 30.1792 39.8521C31.0112 41.1 31.1904 41.366 31.2132 41.3868C31.2731 41.4416 31.348 41.4705 31.432 41.4711C31.4597 41.4713 31.4943 41.4686 31.5088 41.4651C31.5946 41.4445 31.6803 41.3801 31.7218 41.3052C31.7707 41.2168 31.7762 41.099 31.7353 41.0117C31.7278 40.9956 31.2657 40.2988 30.7085 39.4632C29.955 38.3333 29.6855 37.9328 29.6567 37.9001C29.5403 37.7676 29.3677 37.6699 29.1874 37.6343C29.1201 37.621 28.9879 37.6174 28.9216 37.627Z" fill="#7E8795"/>
</g>
<g clip-path="url(#clip3_4_30645)">
<path fill-rule="evenodd" clip-rule="evenodd" d="M159.933 31.8356C159.904 31.8421 159.88 31.8556 159.859 31.8773C159.841 31.895 159.83 31.9125 159.822 31.9352C159.815 31.9529 159.815 31.9566 159.815 31.9845C159.815 32.0114 159.816 32.0167 159.821 32.0328C159.824 32.0427 159.831 32.0573 159.836 32.0652C159.843 32.076 160.052 32.2863 160.679 32.9136L161.513 33.7476L160.679 34.5816C160.052 35.2089 159.843 35.4191 159.836 35.4299C159.831 35.4378 159.824 35.4524 159.821 35.4624C159.816 35.4782 159.815 35.4841 159.815 35.5095C159.815 35.5316 159.816 35.5419 159.819 35.5521C159.835 35.6029 159.874 35.6419 159.924 35.6575C159.935 35.6607 159.945 35.6616 159.967 35.6616C159.992 35.6615 159.998 35.6607 160.014 35.6555C160.024 35.6521 160.039 35.6453 160.047 35.6403C160.057 35.6334 160.268 35.4245 160.895 34.7973L161.729 33.9635L162.563 34.7973C163.19 35.4245 163.4 35.6334 163.411 35.6403C163.419 35.6453 163.434 35.6521 163.444 35.6555C163.46 35.6607 163.465 35.6615 163.491 35.6616C163.513 35.6616 163.523 35.6607 163.533 35.6575C163.584 35.6419 163.623 35.6029 163.639 35.5521C163.642 35.5419 163.643 35.5316 163.643 35.5095C163.643 35.4841 163.642 35.4782 163.637 35.4624C163.633 35.4524 163.627 35.4378 163.622 35.4299C163.615 35.4191 163.406 35.2089 162.779 34.5816L161.945 33.7476L162.779 32.9136C163.406 32.2863 163.615 32.076 163.622 32.0652C163.627 32.0573 163.633 32.0427 163.637 32.0328C163.642 32.017 163.643 32.0111 163.643 31.9856C163.643 31.9635 163.642 31.9533 163.639 31.9431C163.623 31.8923 163.584 31.8532 163.533 31.8376C163.523 31.8345 163.513 31.8335 163.491 31.8336C163.465 31.8337 163.46 31.8344 163.444 31.8397C163.434 31.843 163.419 31.8499 163.411 31.8549C163.4 31.8618 163.19 32.0707 162.563 32.6979L161.729 33.5317L160.895 32.6979C160.268 32.0707 160.057 31.8618 160.047 31.8549C160.025 31.841 160.001 31.8342 159.971 31.8332C159.956 31.8327 159.942 31.8336 159.933 31.8356Z" fill="#0C1F22"/>
</g>
<rect width="40" height="3" transform="translate(78 31.8331)" fill="#878D96"/>
<rect width="26" height="3" transform="translate(50 31.8331)" fill="#878D96"/>
<rect width="40" height="1" transform="translate(78.0826 41.0184)" fill="#878D96"/>
<rect width="40" height="1" transform="matrix(-1 0 0 1 90.0826 44.0184)" fill="#878D96"/>
<rect width="23" height="1" transform="matrix(-1 0 0 1 114.729 44.0184)" fill="#878D96"/>
<rect width="26" height="1" transform="translate(50.0826 41.0184)" fill="#878D96"/>
<rect width="26" height="1" transform="matrix(-1 0 0 1 147 41.0184)" fill="#878D96"/>
<rect width="38" height="1" transform="matrix(-1 0 0 1 154 44.0184)" fill="#878D96"/>
</g>
</g>
<rect width="24" height="16" transform="translate(10 63.5184)" fill="#F2F4F8"/>
<rect width="24" height="16" transform="translate(76 63.5184)" fill="#F2F4F8"/>
<rect width="24" height="16" transform="translate(43 63.5184)" fill="#F2F4F8"/>
<rect width="24" height="16" transform="translate(109 63.5184)" fill="#F2F4F8"/>
<rect width="24" height="16" transform="translate(142 63.5184)" fill="#F2F4F8"/>
</g>
<rect x="0.5" y="0.5" width="179" height="99" rx="3.5" stroke="#878D96"/>
<defs>
<filter id="filter0_d_4_30645" x="4" y="26.5184" width="170" height="37" filterUnits="userSpaceOnUse" color-interpolation-filters="sRGB">
<feFlood flood-opacity="0" result="BackgroundImageFix"/>
<feColorMatrix in="SourceAlpha" type="matrix" values="0 0 0 0 0 0 0 0 0 0 0 0 0 0 0 0 0 0 127 0" result="hardAlpha"/>
<feOffset dy="6"/>
<feGaussianBlur stdDeviation="3"/>
<feComposite in2="hardAlpha" operator="out"/>
<feColorMatrix type="matrix" values="0 0 0 0 0 0 0 0 0 0 0 0 0 0 0 0 0 0 0.05 0"/>
<feBlend mode="normal" in2="BackgroundImageFix" result="effect1_dropShadow_4_30645"/>
<feBlend mode="normal" in="SourceGraphic" in2="effect1_dropShadow_4_30645" result="shape"/>
</filter>
<clipPath id="clip0_4_30645">
<rect width="180" height="100" rx="4" fill="white"/>
</clipPath>
<clipPath id="clip1_4_30645">
<rect x="10" y="26.5184" width="158" height="25" rx="1" fill="white"/>
</clipPath>
<clipPath id="clip2_4_30645">
<rect width="12" height="12" fill="white" transform="translate(22 32.0184)"/>
</clipPath>
<clipPath id="clip3_4_30645">
<rect width="7.45801" height="7.45801" fill="white" transform="translate(158 30.0184)"/>
</clipPath>
</defs>
</svg>
