<svg width="18" height="18" viewBox="0 0 18 18" fill="none" xmlns="http://www.w3.org/2000/svg">
<path fill-rule="evenodd" clip-rule="evenodd" d="M14.7142 0.0152616C14.6835 0.0232896 14.6335 0.0425981 14.6032 0.0581643C14.5515 0.0846207 14.4946 0.139753 13.7282 0.906009C12.9624 1.6716 12.9066 1.72919 12.8802 1.78066C12.7947 1.94758 12.8034 2.15795 12.9021 2.3066C12.9272 2.34441 12.9963 2.41696 13.0361 2.44736C13.1167 2.50884 13.2197 2.5406 13.3385 2.5406C13.4631 2.5406 13.5589 2.50956 13.6523 2.43887C13.6972 2.40494 15.2045 0.899573 15.2478 0.845466C15.268 0.820211 15.2954 0.780355 15.3085 0.756898C15.3816 0.626736 15.3816 0.40587 15.3085 0.275877C15.2487 0.169508 15.1486 0.0777407 15.0485 0.0373865C14.9494 -0.00256982 14.8159 -0.0114014 14.7142 0.0152616ZM10.841 1.07088C10.8105 1.07913 10.7696 1.0929 10.7502 1.10147C10.7031 1.12233 10.6267 1.17745 10.5924 1.21547C10.5771 1.23242 10.4944 1.35242 10.4088 1.4821C9.88093 2.28117 9.27826 3.09987 8.75416 3.72982C8.4448 4.10166 8.23174 4.3369 7.93841 4.63046C7.56961 4.99954 7.3019 5.2226 7.03478 5.38338C6.97781 5.41766 6.74384 5.53322 6.4566 5.66895C6.18628 5.79668 5.93278 5.92164 5.88013 5.95311C5.63223 6.1013 5.41424 6.30602 5.25188 6.54312C5.07567 6.80044 4.96044 7.1035 4.9129 7.4347C4.89792 7.53899 4.90037 7.84167 4.91706 7.95127C4.9846 8.39455 5.16392 8.76389 5.46357 9.07685C5.89557 9.52806 6.53164 9.7553 7.15215 9.68011C7.18933 9.6756 7.22118 9.67333 7.22292 9.67507C7.22465 9.6768 7.20023 9.69459 7.16867 9.71458C6.95861 9.84762 6.77041 10.0431 6.63717 10.2668C6.48639 10.5198 6.40748 10.818 6.40716 11.1357C6.40712 11.1804 6.40353 11.2613 6.39918 11.3156C6.35724 11.8389 6.19762 12.195 5.8488 12.5435C5.6465 12.7457 5.41019 12.9261 4.9208 13.2521C4.67515 13.4157 4.62865 13.4579 4.57854 13.5626C4.4757 13.7776 4.52049 14.0163 4.69379 14.1767C4.79111 14.2668 4.90777 14.3108 5.04836 14.3105C5.19123 14.3102 5.23964 14.288 5.54975 14.0801C6.12384 13.6953 6.42263 13.4578 6.67096 13.189C7.18029 12.6375 7.42023 12.0194 7.44449 11.1961C7.44703 11.1099 7.45413 11.0128 7.46025 10.9804C7.50174 10.7611 7.66514 10.5846 7.89211 10.5139C7.975 10.4881 8.1363 10.488 8.22509 10.5136C8.33091 10.5442 8.39895 10.5855 8.48552 10.6719C8.59757 10.7837 8.64445 10.876 8.66484 11.0249C8.67966 11.1331 8.65727 11.5418 8.62254 11.7969C8.48696 12.7931 8.04803 13.6418 7.31197 14.331C6.91421 14.7035 6.48607 15.0071 5.89445 15.3364C5.79147 15.3937 5.43163 15.575 5.27899 15.6464C5.2067 15.6803 5.1284 15.7231 5.10116 15.7437C5.02004 15.8051 4.94817 15.9133 4.91666 16.0214C4.90441 16.0634 4.90307 16.1288 4.90091 16.7905C4.89931 17.2781 4.90122 17.5309 4.90674 17.5666C4.92341 17.6742 4.97545 17.7724 5.0593 17.8542C5.11834 17.9119 5.1883 17.9552 5.25887 17.9776C5.32825 17.9997 5.45832 18.0051 5.53444 17.989C5.68007 17.9583 5.81136 17.8553 5.88262 17.716C5.93733 17.609 5.93522 17.6351 5.93815 17.0275L5.9408 16.48L6.084 16.4088C6.67856 16.1132 7.2627 15.7391 7.7084 15.3683C8.54779 14.6701 9.11535 13.8592 9.42777 12.9119C9.60949 12.3608 9.70654 11.7439 9.70612 11.1426C9.70589 10.8309 9.66168 10.626 9.54181 10.3811C9.45404 10.2018 9.35396 10.0641 9.2076 9.92136C8.98016 9.69956 8.69559 9.54858 8.38792 9.4865C8.25141 9.45895 8.07423 9.44682 7.95335 9.45675C7.90072 9.46106 7.85651 9.46367 7.85651 9.46367C7.85218 9.46019 8.64783 9.08975 8.71552 9.06374C9.10504 8.914 9.6244 8.82939 10.4756 8.777C10.6825 8.76427 11.6003 8.75941 11.9099 8.76941C12.6051 8.79187 13.2988 8.8383 13.8973 8.90243C14.1841 8.93315 14.2779 8.93376 14.3642 8.90543C14.5604 8.84102 14.6913 8.68387 14.7213 8.47672C14.7319 8.40335 14.7246 8.32439 14.7007 8.25357C14.6862 8.21049 11.4646 1.39983 11.4241 1.32646C11.3577 1.20624 11.2551 1.12169 11.1186 1.07454C11.0586 1.05383 10.9114 1.05188 10.841 1.07088ZM16.2626 2.26828C16.2331 2.27397 16.1918 2.28528 16.1707 2.2934C16.1495 2.30152 15.688 2.57456 15.1449 2.90017C14.202 3.4655 14.1549 3.49479 14.0994 3.55019C14.003 3.64642 13.9526 3.76945 13.9519 3.91049C13.9514 4.02235 13.9789 4.10995 14.045 4.20618C14.1227 4.31954 14.2303 4.38993 14.3697 4.41872C14.4707 4.43957 14.5654 4.43119 14.6589 4.3931C14.6863 4.38196 15.1479 4.10961 15.6847 3.78786C16.6345 3.21853 16.6623 3.20123 16.7222 3.14151C16.8114 3.05269 16.8522 2.96795 16.8712 2.83192C16.8924 2.68 16.8238 2.50271 16.7004 2.39108C16.6483 2.34388 16.5558 2.29461 16.4864 2.27704C16.4196 2.26015 16.3241 2.2564 16.2626 2.26828ZM10.839 2.69543C10.7228 2.86385 10.448 3.24381 10.2812 3.46662C9.19751 4.91438 8.27858 5.85884 7.52468 6.29973C7.42378 6.35874 7.29055 6.42458 6.90052 6.60818C6.37016 6.85784 6.35006 6.86922 6.23079 6.987C6.14395 7.07275 6.0942 7.141 6.04395 7.24337C5.96495 7.4043 5.93554 7.54122 5.9422 7.71699C5.94676 7.83701 5.95809 7.899 5.99412 8.00102C6.04134 8.13474 6.10961 8.24753 6.2038 8.34741C6.33791 8.48965 6.49513 8.57995 6.69669 8.63051C6.76923 8.64871 6.79286 8.651 6.90847 8.65102C7.0524 8.65104 7.11847 8.64068 7.2338 8.6C7.26959 8.58738 7.48832 8.48743 7.71988 8.3779C8.2777 8.11404 8.37042 8.07493 8.59297 8.00959C9.10422 7.85951 9.66959 7.77897 10.5177 7.73545C10.7638 7.72282 11.7844 7.72289 12.0908 7.73556C12.5128 7.75301 12.9286 7.77674 13.2804 7.80343C13.3342 7.80751 13.3442 7.80653 13.3405 7.79752C13.3275 7.76573 10.8975 2.63533 10.8931 2.63038C10.8903 2.62714 10.8659 2.65642 10.839 2.69543ZM17.4185 4.9032C17.4058 4.90495 16.8733 4.99372 16.2351 5.10046C15.3373 5.25063 15.0642 5.29883 15.0281 5.31351C14.8705 5.37752 14.7455 5.53045 14.7121 5.70006C14.6933 5.79565 14.7131 5.93332 14.759 6.02661C14.8417 6.1944 15.0309 6.31353 15.2149 6.31353C15.2702 6.31353 17.5109 5.94539 17.6213 5.91818C17.7597 5.88406 17.8824 5.78319 17.9502 5.64772C17.9932 5.56187 18.0002 5.52943 18 5.41813C17.9998 5.32275 17.998 5.30975 17.9764 5.24886C17.9635 5.21259 17.9368 5.15855 17.917 5.12878C17.8104 4.96841 17.6082 4.87692 17.4185 4.9032ZM2.69835 8.2553C2.21612 8.26983 1.74476 8.43434 1.34735 8.72683C0.967064 9.0067 0.671123 9.40765 0.51045 9.86069C0.455971 10.0143 0.418577 10.1714 0.392987 10.3543C0.373613 10.4928 0.373705 10.8985 0.393148 11.0393C0.448522 11.4403 0.585045 11.7905 0.813862 12.1183C1.10869 12.5408 1.5461 12.8626 2.04683 13.0253C2.44179 13.1537 2.9024 13.1727 3.32075 13.0778C3.88617 12.9495 4.41391 12.595 4.74316 12.1222C4.93556 11.8458 5.06329 11.5546 5.13206 11.2354C5.17268 11.0468 5.17817 10.9825 5.17819 10.6949C5.17821 10.4058 5.17079 10.3257 5.12553 10.1265C4.99929 9.57058 4.66724 9.06096 4.21467 8.7285C3.76619 8.39907 3.25206 8.23862 2.69835 8.2553ZM2.63329 9.29845C2.3222 9.33653 2.05005 9.4647 1.8307 9.67642C1.6128 9.88674 1.47045 10.1652 1.42743 10.4653C1.41287 10.5668 1.41295 10.8233 1.42758 10.9262C1.49049 11.3686 1.76728 11.7537 2.16634 11.9539C2.34925 12.0457 2.52071 12.0895 2.72524 12.0968C2.9125 12.1035 3.04223 12.0855 3.21082 12.0296C3.63467 11.8889 3.9603 11.5521 4.09072 11.1196C4.15306 10.9129 4.16443 10.6112 4.11841 10.3854C4.00685 9.8381 3.57282 9.41438 3.01985 9.31295C2.92278 9.29514 2.72187 9.28761 2.63329 9.29845ZM1.53927 14.2308C1.45641 14.2498 1.3435 14.3087 1.17505 14.4208C0.60357 14.8009 0.200944 15.3948 0.0543938 16.0736C0.00491336 16.3028 -0.00032247 16.393 1.43397e-05 17.0098C0.000358804 17.6226 -0.000483237 17.6124 0.0589407 17.7264C0.0981791 17.8018 0.197967 17.9015 0.27332 17.9408C0.385646 17.9993 0.524665 18.0156 0.646039 17.9846C0.808059 17.9431 0.951027 17.8129 1.00917 17.6538L1.02961 17.5979L1.03409 17.0277C1.03877 16.4327 1.03993 16.4109 1.07504 16.2595C1.12649 16.0378 1.25351 15.78 1.39921 15.6017C1.51749 15.457 1.67981 15.32 1.84722 15.2238C1.89693 15.1953 1.95633 15.1572 1.9792 15.1393C2.09463 15.0488 2.16634 14.8943 2.16634 14.736C2.16634 14.6484 2.15277 14.5943 2.10777 14.5026C2.04366 14.372 1.92438 14.2757 1.77978 14.2378C1.71365 14.2205 1.59891 14.2172 1.53927 14.2308Z" fill="currentColor"/>
</svg>
