<svg width="24" height="24" viewBox="0 0 24 24" fill="none" xmlns="http://www.w3.org/2000/svg">
<path d="M15.7184 9.43446L17.4252 12.6626L20.7103 12.9733C20.7885 12.9795 20.8632 13.0069 20.9256 13.0524C20.988 13.0979 21.0354 13.1595 21.0622 13.2299C21.089 13.3003 21.0942 13.3765 21.077 13.4496C21.0599 13.5227 21.0211 13.5896 20.9654 13.6424L18.2618 16.2004L19.2642 19.6764C19.2847 19.7501 19.2824 19.8279 19.2577 19.9005C19.233 19.973 19.1869 20.0372 19.1248 20.0853C19.0628 20.1334 18.9876 20.1634 18.9081 20.1716C18.8287 20.1798 18.7484 20.166 18.677 20.1317L15.3466 18.5573L12.0207 20.1298C11.9493 20.164 11.869 20.1779 11.7896 20.1697C11.7101 20.1614 11.6349 20.1315 11.5729 20.0834C11.5108 20.0353 11.4647 19.9711 11.44 19.8985C11.4153 19.826 11.413 19.7482 11.4335 19.6745L12.4359 16.1985L9.73027 13.6404C9.67453 13.5877 9.63579 13.5208 9.61863 13.4477C9.60147 13.3746 9.60662 13.2983 9.63345 13.2279C9.66029 13.1575 9.70769 13.0959 9.77005 13.0505C9.83241 13.005 9.90712 12.9775 9.98533 12.9713L13.2704 12.6606L14.9747 9.43446C15.0097 9.3691 15.063 9.31426 15.1286 9.27596C15.1942 9.23766 15.2696 9.21739 15.3466 9.21739C15.4235 9.21739 15.4989 9.23766 15.5645 9.27596C15.6301 9.31426 15.6834 9.3691 15.7184 9.43446Z" fill="currentColor"/>
<path d="M8.65217 18.3478L3.86957 22V17.8913H2.91304C1 17.8913 1 15.8826 1 15.1522V2.82609C1 1.91304 1.38261 1 2.91304 1H21.087C21.5652 1 23 1.1984 23 2.82615V10.587M15.7184 9.43446L17.4252 12.6626L20.7103 12.9733C20.7885 12.9795 20.8632 13.0069 20.9256 13.0524C20.988 13.0979 21.0354 13.1595 21.0622 13.2299C21.089 13.3003 21.0942 13.3765 21.077 13.4496C21.0599 13.5227 21.0211 13.5896 20.9654 13.6424L18.2618 16.2004L19.2642 19.6764C19.2847 19.7501 19.2824 19.8279 19.2577 19.9005C19.233 19.973 19.1869 20.0372 19.1248 20.0853C19.0628 20.1334 18.9876 20.1634 18.9081 20.1716C18.8287 20.1798 18.7484 20.166 18.677 20.1317L15.3466 18.5573L12.0207 20.1298C11.9493 20.164 11.869 20.1779 11.7896 20.1697C11.7101 20.1614 11.6349 20.1315 11.5729 20.0834C11.5108 20.0353 11.4647 19.9711 11.44 19.8985C11.4153 19.826 11.413 19.7482 11.4335 19.6745L12.4359 16.1985L9.73027 13.6404C9.67453 13.5877 9.63579 13.5208 9.61863 13.4477C9.60147 13.3746 9.60662 13.2983 9.63345 13.2279C9.66029 13.1575 9.70769 13.0959 9.77005 13.0505C9.83241 13.005 9.90712 12.9775 9.98533 12.9713L13.2704 12.6606L14.9747 9.43446C15.0097 9.3691 15.063 9.31426 15.1286 9.27596C15.1942 9.23766 15.2696 9.21739 15.3466 9.21739C15.4235 9.21739 15.4989 9.23766 15.5645 9.27596C15.6301 9.31426 15.6834 9.3691 15.7184 9.43446Z" stroke="currentColor" stroke-width="1.5" stroke-linecap="round" stroke-linejoin="round"/>
</svg>
