<svg width="180" height="100" viewBox="0 0 180 100" fill="none" xmlns="http://www.w3.org/2000/svg">
<rect width="180" height="100" rx="4" fill="#404040" fill-opacity="0.5"/>
<rect x="46" y="19" width="82" height="59" rx="1" fill="white"/>
<rect width="82" height="23" transform="translate(46 19)" fill="#DDE1E6"/>
<g clip-path="url(#clip0_4_30630)">
<path fill-rule="evenodd" clip-rule="evenodd" d="M82.3584 24.5054C82.1226 24.5295 81.8963 24.6356 81.7217 24.8038C81.5356 24.9829 81.4178 25.2275 81.394 25.484C81.3867 25.5619 81.3867 35.4381 81.394 35.516C81.4135 35.7264 81.4976 35.9323 81.6321 36.0992C81.812 36.3225 82.0798 36.4667 82.3673 36.4951C82.4366 36.5019 91.5634 36.5019 91.6327 36.4951C91.877 36.4709 92.1007 36.3673 92.279 36.1956C92.4647 36.0168 92.5816 35.7732 92.6062 35.514C92.6132 35.4401 92.6131 27.0152 92.6061 26.9384C92.5864 26.7225 92.4976 26.5084 92.3597 26.3446C92.3402 26.3214 92.2727 26.2514 92.2097 26.1891C92.117 26.0974 91.1678 25.1713 90.8327 24.8456C90.7879 24.802 90.7328 24.7521 90.7104 24.7346C90.5439 24.605 90.3482 24.5255 90.1447 24.505C90.0828 24.4988 82.4196 24.4992 82.3584 24.5054ZM82.3872 25.1649C82.2347 25.1962 82.1096 25.3108 82.0623 25.4624L82.0488 25.5056V30.4976V35.4896L82.0595 35.5264C82.0811 35.6009 82.1143 35.6586 82.1661 35.7117C82.2335 35.7808 82.3087 35.8214 82.3989 35.8374C82.4389 35.8444 91.5611 35.8444 91.6011 35.8374C91.6913 35.8214 91.7665 35.7808 91.8339 35.7117C91.8857 35.6586 91.9189 35.6009 91.9405 35.5264L91.9512 35.4896V31.2272V26.9648L91.9378 26.9219C91.9192 26.8627 91.8873 26.8033 91.8517 26.7617C91.8094 26.7124 90.3255 25.2664 90.2904 25.2403C90.2523 25.2121 90.2066 25.1894 90.155 25.1732L90.1128 25.16L86.2656 25.1592C83.0727 25.1586 82.4131 25.1596 82.3872 25.1649ZM84.9696 26.7759C84.8615 26.7869 84.7311 26.8167 84.6262 26.8543C84.5491 26.8819 84.4078 26.9509 84.341 26.9935C84.0217 27.1972 83.7915 27.5148 83.7024 27.8744C83.6693 28.0079 83.6615 28.0774 83.6619 28.2368C83.6621 28.3507 83.6638 28.3818 83.6729 28.4408C83.7171 28.729 83.8386 28.9904 84.0256 29.1999C84.2332 29.4324 84.4961 29.5885 84.7968 29.6575C84.9119 29.684 84.9763 29.6905 85.1208 29.6905C85.2358 29.6905 85.2652 29.689 85.3248 29.6798C85.5566 29.6442 85.7511 29.5695 85.9357 29.4453C86.2786 29.2146 86.5069 28.8529 86.5681 28.4432C86.5882 28.3084 86.586 28.1209 86.5626 27.9848C86.4925 27.5762 86.2539 27.2189 85.9006 26.9935C85.8338 26.9509 85.6925 26.8819 85.6154 26.8543C85.5064 26.8152 85.3798 26.7869 85.2631 26.7753C85.2047 26.7695 85.0281 26.7699 84.9696 26.7759ZM85.0848 27.4265C84.9504 27.433 84.8201 27.4725 84.7032 27.5422C84.6215 27.591 84.5216 27.6839 84.4646 27.7642C84.3891 27.8706 84.3383 28.0009 84.3213 28.1319C84.3129 28.196 84.318 28.3295 84.3311 28.3904C84.385 28.6413 84.5386 28.84 84.7671 28.9541C85.035 29.0879 85.3656 29.0558 85.6085 28.8722C85.7087 28.7965 85.8016 28.6805 85.852 28.568C85.9011 28.4586 85.9199 28.3762 85.9234 28.256C85.9268 28.1356 85.9152 28.0613 85.8759 27.9512C85.8 27.7389 85.6158 27.5547 85.4005 27.4758C85.3036 27.4403 85.1844 27.4217 85.0848 27.4265ZM87.9216 30.1085C87.8201 30.1232 87.7465 30.1465 87.6536 30.1933C87.5473 30.2468 87.4542 30.3207 87.3867 30.4051C87.3694 30.4267 87.0933 30.8186 86.7732 31.2761C86.4531 31.7335 86.1899 32.1079 86.1882 32.1079C86.1866 32.108 86.0525 32.0016 85.8903 31.8716C85.7282 31.7416 85.5794 31.6244 85.5598 31.6112C85.2893 31.4293 84.9159 31.4269 84.6441 31.6054C84.554 31.6646 84.4887 31.7247 84.4306 31.8022C84.3821 31.8667 83.3219 33.4638 83.308 33.4932C83.267 33.58 83.2724 33.6982 83.3214 33.7867C83.3535 33.8446 83.4128 33.8976 83.4785 33.9271C83.5662 33.9664 83.6758 33.9616 83.7654 33.9145C83.8379 33.8765 83.8078 33.9185 84.4063 33.0194C84.8298 32.3834 84.9603 32.1907 84.9792 32.1737C85.0346 32.1239 85.1204 32.1145 85.1838 32.1512C85.1967 32.1587 85.3984 32.3185 85.632 32.5062C85.8656 32.694 86.0713 32.8563 86.0889 32.867C86.1066 32.8777 86.1368 32.892 86.1561 32.899C86.187 32.9101 86.1986 32.9116 86.2536 32.9118C86.3098 32.912 86.3202 32.9106 86.3585 32.8981C86.4096 32.8813 86.4606 32.8491 86.4936 32.8129C86.5068 32.7983 86.8243 32.3481 87.1991 31.8124C87.5739 31.2767 87.891 30.8273 87.9036 30.8138C87.9182 30.7982 87.9376 30.7841 87.9565 30.7754C87.9828 30.7633 87.9919 30.7616 88.032 30.7616C88.0712 30.7616 88.0814 30.7634 88.1046 30.7742C88.1194 30.7812 88.1408 30.7952 88.1521 30.8054C88.166 30.8179 88.501 31.3163 89.1792 32.3336C90.0112 33.5815 90.1904 33.8476 90.2132 33.8684C90.2731 33.9231 90.348 33.952 90.432 33.9527C90.4597 33.9529 90.4943 33.9502 90.5088 33.9467C90.5946 33.926 90.6803 33.8616 90.7218 33.7867C90.7707 33.6983 90.7762 33.5805 90.7353 33.4932C90.7278 33.4772 90.2657 32.7804 89.7085 31.9448C88.955 30.8149 88.6855 30.4143 88.6567 30.3816C88.5403 30.2492 88.3677 30.1515 88.1874 30.1159C88.1201 30.1026 87.9879 30.0989 87.9216 30.1085Z" fill="#7E8795"/>
</g>
<path fill-rule="evenodd" clip-rule="evenodd" d="M120.933 22.5887C120.904 22.5952 120.88 22.6087 120.859 22.6304C120.841 22.6481 120.83 22.6656 120.822 22.6883C120.815 22.706 120.815 22.7097 120.815 22.7376C120.815 22.7645 120.816 22.7699 120.821 22.7859C120.824 22.7959 120.831 22.8105 120.836 22.8184C120.843 22.8292 121.052 23.0394 121.679 23.6667L122.513 24.5007L121.679 25.3347C121.052 25.962 120.843 26.1723 120.836 26.1831C120.831 26.191 120.824 26.2056 120.821 26.2155C120.816 26.2313 120.815 26.2372 120.815 26.2627C120.815 26.2848 120.816 26.295 120.819 26.3052C120.835 26.356 120.874 26.3951 120.924 26.4107C120.935 26.4138 120.945 26.4148 120.967 26.4147C120.992 26.4146 120.998 26.4139 121.014 26.4086C121.024 26.4053 121.039 26.3984 121.047 26.3934C121.057 26.3865 121.268 26.1776 121.895 25.5504L122.729 24.7166L123.563 25.5504C124.19 26.1776 124.4 26.3865 124.411 26.3934C124.419 26.3984 124.434 26.4053 124.444 26.4086C124.46 26.4139 124.465 26.4146 124.491 26.4147C124.513 26.4148 124.523 26.4138 124.533 26.4107C124.584 26.3951 124.623 26.356 124.639 26.3052C124.642 26.295 124.643 26.2848 124.643 26.2627C124.643 26.2372 124.642 26.2313 124.637 26.2155C124.633 26.2056 124.627 26.191 124.622 26.1831C124.615 26.1723 124.406 25.962 123.779 25.3347L122.945 24.5007L123.779 23.6667C124.406 23.0394 124.615 22.8292 124.622 22.8184C124.627 22.8105 124.633 22.7959 124.637 22.7859C124.642 22.7701 124.643 22.7642 124.643 22.7388C124.643 22.7167 124.642 22.7064 124.639 22.6962C124.623 22.6454 124.584 22.6064 124.533 22.5908C124.523 22.5876 124.513 22.5867 124.491 22.5867C124.465 22.5868 124.46 22.5876 124.444 22.5928C124.434 22.5962 124.419 22.603 124.411 22.608C124.4 22.6149 124.19 22.8238 123.563 23.451L122.729 24.2848L121.895 23.451C121.268 22.8238 121.057 22.6149 121.047 22.608C121.025 22.5941 121.001 22.5873 120.971 22.5864C120.956 22.5859 120.942 22.5867 120.933 22.5887Z" fill="#0C1F22"/>
<rect width="40" height="3" transform="translate(81 50)" fill="#878D96"/>
<rect width="40" height="1" transform="translate(81 60)" fill="#878D96"/>
<rect width="40" height="1" transform="matrix(-1 0 0 1 93 63)" fill="#878D96"/>
<rect width="23" height="1" transform="matrix(-1 0 0 1 76 66)" fill="#878D96"/>
<rect width="26" height="3" transform="translate(53 50)" fill="#878D96"/>
<rect width="26" height="1" transform="translate(53 60)" fill="#878D96"/>
<rect width="26" height="1" transform="matrix(-1 0 0 1 121 63)" fill="#878D96"/>
<rect width="42" height="1" transform="matrix(-1 0 0 1 121 66)" fill="#878D96"/>
<defs>
<clipPath id="clip0_4_30630">
<rect width="12" height="12" fill="white" transform="translate(81 24.5)"/>
</clipPath>
</defs>
</svg>
