<svg width="32" height="32" viewBox="0 0 32 32" fill="none" xmlns="http://www.w3.org/2000/svg">
<path fill-rule="evenodd" clip-rule="evenodd" d="M7.77102 13.323C7.77102 12.9778 8.04788 12.698 8.3894 12.698H17.5223C17.8638 12.698 18.1407 12.9778 18.1407 13.323V16.4001C18.1407 16.7453 17.8638 17.0251 17.5223 17.0251H13.0668V17.4258C13.0668 17.532 13.1086 17.6339 13.1829 17.7091C13.2573 17.7842 13.3581 17.8264 13.4632 17.8264H16.5075C16.9407 17.8264 17.3561 18.0003 17.6624 18.3099C17.9686 18.6195 18.1407 19.0393 18.1407 19.4771V19.8778H23.6109C23.9524 19.8778 24.2293 20.1576 24.2293 20.5028V23.5799C24.2293 23.9251 23.9524 24.2049 23.6109 24.2049H20.4239V25.0062H23.6109C23.9524 25.0062 24.2293 25.286 24.2293 25.6312V28.7083C24.2293 29.0535 23.9524 29.3333 23.6109 29.3333H14.478C14.1365 29.3333 13.8596 29.0535 13.8596 28.7083V25.6312C13.8596 25.286 14.1365 25.0062 14.478 25.0062H19.1872V24.2049H14.478C14.1365 24.2049 13.8596 23.9251 13.8596 23.5799V20.5028C13.8596 20.1576 14.1365 19.8778 14.478 19.8778H16.9039V19.4771C16.9039 19.3709 16.8622 19.269 16.7878 19.1938C16.7135 19.1187 16.6127 19.0765 16.5075 19.0765H13.4632C13.0301 19.0765 12.6147 18.9026 12.3084 18.593C12.0022 18.2834 11.8301 17.8636 11.8301 17.4258V17.0251H8.3894C8.04788 17.0251 7.77102 16.7453 7.77102 16.4001V13.323ZM16.9039 15.775V13.948H9.00777V15.775H16.9039ZM15.0964 21.1278V22.9548H22.9926V21.1278H15.0964ZM15.0964 26.2563V28.0833H22.9926V26.2563H15.0964Z" stroke="black"/>
<path fill-rule="evenodd" clip-rule="evenodd" d="M15.6171 2.77941C15.8508 2.62907 16.1495 2.62907 16.3832 2.77941L30.3363 11.7542C30.6687 11.968 30.7667 12.4137 30.5552 12.7498C30.3436 13.0858 29.9026 13.1849 29.5702 12.971L16.0002 4.24267L2.43016 12.971C2.09771 13.1849 1.6567 13.0858 1.44514 12.7498C1.23357 12.4137 1.33158 11.968 1.66403 11.7542L15.6171 2.77941ZM21.629 4.66995C21.629 4.27165 21.9484 3.94876 22.3425 3.94876H26.1478C26.5419 3.94876 26.8614 4.27165 26.8614 4.66995V7.23416C26.8614 7.63246 26.5419 7.95535 26.1478 7.95535C25.7538 7.95535 25.4343 7.63246 25.4343 7.23416V5.39113H22.3425C21.9484 5.39113 21.629 5.06825 21.629 4.66995Z" stroke="black"/>
</svg>
