<svg width="17" height="16" viewBox="0 0 17 16" fill="none" xmlns="http://www.w3.org/2000/svg">
<path d="M14.6578 0H2.08636C1.6317 0 1.19566 0.180612 0.874173 0.502103C0.552682 0.823594 0.37207 1.25963 0.37207 1.71429L0.37207 14.2857C0.37207 14.7404 0.552682 15.1764 0.874173 15.4979C1.19566 15.8194 1.6317 16 2.08636 16H9.80064C9.87558 16.0009 9.94989 15.9861 10.0188 15.9566C10.0877 15.9271 10.1496 15.8835 10.2006 15.8286L16.2006 9.82857C16.2555 9.77755 16.2992 9.7156 16.3287 9.64671C16.3582 9.57782 16.373 9.50351 16.3721 9.42857V1.71429C16.3721 1.25963 16.1915 0.823594 15.87 0.502103C15.5485 0.180612 15.1124 0 14.6578 0V0ZM13.5949 9.34857L9.72064 13.2229C9.67987 13.2644 9.62782 13.293 9.57093 13.3052C9.51405 13.3174 9.45484 13.3126 9.40064 13.2914C9.34953 13.2691 9.30607 13.2323 9.27561 13.1856C9.24515 13.1389 9.22902 13.0843 9.22921 13.0286V9.42857C9.22921 9.27702 9.28942 9.13167 9.39658 9.02451C9.50374 8.91735 9.64909 8.85714 9.80064 8.85714H13.4006C13.4564 8.85695 13.511 8.87308 13.5577 8.90354C13.6044 8.934 13.6412 8.97746 13.6635 9.02857C13.6846 9.08277 13.6894 9.14198 13.6772 9.19886C13.665 9.25575 13.6364 9.3078 13.5949 9.34857Z" fill="currentColor"/>
</svg>
