<svg width="24" height="25" viewBox="0 0 24 25" fill="none" xmlns="http://www.w3.org/2000/svg">
<path d="M20.674 23.7601L17.714 22.0071C17.4535 21.8215 17.2505 21.5664 17.1282 21.2709C17.0058 20.9754 16.969 20.6515 17.022 20.3361V18.5121L15.916 17.4051C15.7772 17.2665 15.6708 17.0988 15.6046 16.9142C15.5383 16.7295 15.5139 16.5325 15.5331 16.3372C15.5522 16.142 15.6144 15.9535 15.7152 15.7852C15.816 15.6169 15.9529 15.4731 16.116 15.3641V15.3641C16.3711 15.1943 16.6772 15.1181 16.9821 15.1483C17.2871 15.1786 17.5722 15.3135 17.789 15.5301L19.349 17.0911" stroke="currentColor" stroke-width="1.5" stroke-linecap="round" stroke-linejoin="round"/>
<path d="M17.272 9.8999L21.434 13.5829C21.9792 14.3462 22.2722 15.2609 22.272 16.1989V18.3799C22.2721 19.0063 22.521 19.607 22.964 20.0499L23.25 20.3359" stroke="currentColor" stroke-width="1.5" stroke-linecap="round" stroke-linejoin="round"/>
<path d="M8.564 23.76L10.99 20.778C11.1972 20.5214 11.2965 20.1943 11.2668 19.8658C11.2371 19.5373 11.0808 19.2333 10.831 19.018C10.7086 18.9126 10.5662 18.833 10.4124 18.784C10.2585 18.7349 10.0963 18.7174 9.93553 18.7326C9.77474 18.7477 9.61866 18.7951 9.47664 18.872C9.33461 18.9489 9.20957 19.0536 9.109 19.18L8.272 19.896V14.01C8.272 13.6122 8.11397 13.2307 7.83266 12.9493C7.55136 12.668 7.16983 12.51 6.772 12.51C6.37418 12.51 5.99264 12.668 5.71134 12.9493C5.43004 13.2307 5.272 13.6122 5.272 14.01V17.76H4.033C3.15899 17.7703 2.32477 18.1269 1.7134 18.7516C1.10203 19.3763 0.763464 20.218 0.772001 21.092V23.759" stroke="currentColor" stroke-width="1.5" stroke-linecap="round" stroke-linejoin="round"/>
<path d="M17.272 15.213V5.01099C17.272 4.81207 17.193 4.62131 17.0523 4.48066C16.9117 4.34 16.7209 4.26099 16.522 4.26099H12.022C12.022 3.46534 11.7059 2.70228 11.1433 2.13967C10.5807 1.57706 9.81765 1.26099 9.022 1.26099C8.22635 1.26099 7.46329 1.57706 6.90068 2.13967C6.33807 2.70228 6.022 3.46534 6.022 4.26099H1.522C1.32309 4.26099 1.13233 4.34 0.991673 4.48066C0.851021 4.62131 0.772003 4.81207 0.772003 5.01099V14.76" stroke="currentColor" stroke-width="1.5" stroke-linecap="round" stroke-linejoin="round"/>
<path fill-rule="evenodd" clip-rule="evenodd" d="M17.272 15.5V5.01099C17.272 4.81207 17.193 4.62131 17.0524 4.48066C16.9117 4.34 16.7209 4.26099 16.522 4.26099H12.022C12.022 3.46534 11.706 2.70228 11.1433 2.13967C10.5807 1.57706 9.81768 1.26099 9.02203 1.26099C8.22638 1.26099 7.46332 1.57706 6.90071 2.13967C6.3381 2.70228 6.02203 3.46534 6.02203 4.26099H1.52203C1.32311 4.26099 1.13235 4.34 0.991696 4.48066C0.851044 4.62131 0.772026 4.81207 0.772026 5.01099V15.5H5.272V14.01C5.272 13.6122 5.43004 13.2307 5.71134 12.9493C5.99264 12.668 6.37418 12.51 6.772 12.51C7.16983 12.51 7.55136 12.668 7.83266 12.9493C8.11397 13.2307 8.272 13.6122 8.272 14.01V15.5H17.272ZM8.99999 3.5C9.19778 3.5 9.39111 3.55865 9.55556 3.66853C9.72001 3.77842 9.84818 3.93459 9.92387 4.11732C9.99956 4.30004 10.0194 4.50111 9.98078 4.69509C9.94219 4.88907 9.84695 5.06725 9.7071 5.20711C9.56725 5.34696 9.38906 5.4422 9.19508 5.48078C9.0011 5.51937 8.80004 5.49957 8.61731 5.42388C8.43458 5.34819 8.27841 5.22002 8.16853 5.05557C8.05865 4.89112 8 4.69778 8 4.5C7.99964 4.36858 8.02527 4.23839 8.0754 4.1169C8.12553 3.99542 8.19917 3.88504 8.2921 3.79211C8.38503 3.69918 8.49541 3.62554 8.6169 3.57541C8.73838 3.52528 8.86857 3.49965 8.99999 3.5Z" fill="currentColor"/>
</svg>

