<svg width="27" height="27" viewBox="0 0 27 27" fill="none" xmlns="http://www.w3.org/2000/svg">
  <mask id="path-1-inside-1_13043_195719" fill="white">
    <path fill-rule="evenodd" clip-rule="evenodd"
          d="M23 0.752502C25.2091 0.752502 27 2.54336 27 4.7525V22.2575C27 24.4666 25.2091 26.2575 23 26.2575H4.32888L0.0780506 13.505L4.32888 0.752502H23Z"/>
  </mask>
  <path fill-rule="evenodd" clip-rule="evenodd"
        d="M23 0.752502C25.2091 0.752502 27 2.54336 27 4.7525V22.2575C27 24.4666 25.2091 26.2575 23 26.2575H4.32888L0.0780506 13.505L4.32888 0.752502H23Z"
        fill="#212B3D"/>
  <path
    d="M4.32888 26.2575V28.2575H2.88737L2.43152 26.89L4.32888 26.2575ZM0.0780506 13.505L-1.81932 14.1375L-2.03013 13.505L-1.81932 12.8725L0.0780506 13.505ZM4.32888 0.752502L2.43152 0.120047L2.88737 -1.2475H4.32888V0.752502ZM25 4.7525C25 3.64793 24.1046 2.7525 23 2.7525V-1.2475C26.3137 -1.2475 29 1.43879 29 4.7525H25ZM25 22.2575V4.7525H29V22.2575H25ZM23 24.2575C24.1046 24.2575 25 23.3621 25 22.2575H29C29 25.5712 26.3137 28.2575 23 28.2575V24.2575ZM4.32888 24.2575H23V28.2575H4.32888V24.2575ZM1.97542 12.8725L6.22625 25.6251L2.43152 26.89L-1.81932 14.1375L1.97542 12.8725ZM6.22625 1.38496L1.97542 14.1375L-1.81932 12.8725L2.43152 0.120047L6.22625 1.38496ZM23 2.7525H4.32888V-1.2475H23V2.7525Z"
    fill="#212B3D" mask="url(#path-1-inside-1_13043_195719)"/>
</svg>
