<svg width="18" height="18" viewBox="0 0 18 18" fill="none" xmlns="http://www.w3.org/2000/svg">
<path fill-rule="evenodd" clip-rule="evenodd" d="M3.78355 1.01066C3.61764 1.04719 3.48247 1.16757 3.42398 1.33089L3.40195 1.39241L3.39763 2.14481H2.47404C1.50403 2.14481 1.46427 2.14593 1.30425 2.17784C0.987744 2.24096 0.711876 2.38966 0.478142 2.62312C0.205233 2.89569 0.0448462 3.23276 0.00731259 3.61257C-0.00292581 3.71622 -0.00292581 12.8926 0.00731259 12.9962C0.0453718 13.3814 0.221138 13.7425 0.500275 14.009C0.747357 14.2449 1.03593 14.3871 1.38955 14.4472C1.46088 14.4594 1.59885 14.4602 3.83395 14.4622C5.96628 14.4642 6.2085 14.4633 6.26035 14.4531C6.44557 14.4166 6.60217 14.2659 6.64231 14.0854C6.65862 14.0121 6.65379 13.8826 6.63226 13.816C6.58957 13.684 6.47564 13.564 6.34296 13.5115C6.31712 13.5012 6.275 13.4894 6.24936 13.4853C6.21749 13.4801 5.47031 13.4777 3.88709 13.4777C1.3241 13.4776 1.50655 13.481 1.38446 13.4312C1.31004 13.4009 1.24065 13.3548 1.18138 13.2963C1.07646 13.1929 1.0179 13.0843 0.993914 12.9489C0.988701 12.9194 0.986347 11.9135 0.986347 9.71428V6.52241H12.4775L12.4776 6.86261C12.4776 7.06562 12.4807 7.22161 12.4852 7.24942C12.5129 7.41977 12.6501 7.57871 12.8159 7.63232C12.8825 7.65385 13.012 7.65868 13.0853 7.64237C13.227 7.61087 13.3519 7.50791 13.4178 7.36841C13.4677 7.26301 13.4646 7.39744 13.4622 5.40641C13.4597 3.4157 13.4636 3.5764 13.4137 3.37601C13.3594 3.15818 13.2497 2.93666 13.1055 2.75367C13.0466 2.67887 12.9012 2.53746 12.823 2.47887C12.5741 2.29234 12.2857 2.1796 11.9879 2.15242C11.9353 2.14761 11.568 2.14485 10.9781 2.14483L10.0511 2.14481V1.78236C10.0511 1.44498 10.0502 1.41607 10.0369 1.3643C9.99187 1.18815 9.84194 1.04637 9.66261 1.01032C9.58143 0.994009 9.48528 0.99928 9.40675 1.02434C9.26567 1.06937 9.14084 1.19379 9.09165 1.33841C9.07614 1.384 9.07567 1.39499 9.07354 1.76501L9.07135 2.14481H4.38588L4.38284 1.77581C4.37949 1.37122 4.37943 1.37053 4.3335 1.27797C4.26769 1.14532 4.13465 1.03887 3.99955 1.01074C3.93793 0.997919 3.84159 0.997883 3.78355 1.01066ZM1.5167 3.13875C1.36181 3.16474 1.2229 3.24924 1.11479 3.38321C1.05877 3.45261 1.00876 3.56613 0.993936 3.65752C0.989047 3.68764 0.986433 4.02097 0.986405 4.61981L0.986347 5.53601H12.4775V4.62615C12.4775 3.6163 12.4788 3.64652 12.4302 3.52907C12.3979 3.45096 12.3593 3.39399 12.2909 3.32319C12.208 3.23748 12.1265 3.18812 12.0059 3.15067L11.9555 3.13502L10.0511 3.13085V3.48267C10.0511 3.81076 10.0502 3.8383 10.0368 3.89073C9.99487 4.05455 9.84528 4.20005 9.67675 4.24094C9.6255 4.25337 9.49703 4.25328 9.44635 4.24078C9.27213 4.19779 9.11814 4.04282 9.08249 3.87458C9.07439 3.83636 9.07217 3.75196 9.07207 3.47861L9.07195 3.13121H4.38592L4.38297 3.48581C4.37971 3.87807 4.3797 3.87812 4.33091 3.97721C4.28333 4.07385 4.21039 4.14773 4.11115 4.19982C4.03999 4.23716 3.98371 4.24987 3.88795 4.2502C3.74418 4.2507 3.64703 4.20958 3.54163 4.1036C3.49268 4.0544 3.47341 4.02859 3.4497 3.98048C3.40023 3.88014 3.39861 3.86415 3.39847 3.47501L3.39835 3.13121L2.47495 3.13206C1.96707 3.13252 1.53587 3.13553 1.5167 3.13875Z" fill="currentColor"/>
<path fill-rule="evenodd" clip-rule="evenodd" d="M7.24064 11.2221C7.33979 11.1716 12.3656 9.02549 12.4137 9.01313C12.4809 8.99585 12.5829 8.99564 12.6514 9.01264C12.6851 9.02099 13.5909 9.41073 15.1807 10.1008C16.543 10.6922 17.6831 11.1878 17.7143 11.2021C17.8461 11.2629 17.932 11.3559 17.9781 11.4875L17.9973 11.5425L17.9994 12.4175C18.0016 13.3256 18.0006 13.3615 17.9719 13.4452C17.9375 13.5459 17.834 13.658 17.7291 13.7081C17.6153 13.7625 17.4769 13.7708 17.3565 13.7306C17.1952 13.6767 17.0692 13.5357 17.039 13.3754C17.034 13.3486 17.0313 13.1668 17.0313 12.8446C17.0313 12.5677 17.0287 12.3556 17.0252 12.3569C17.0218 12.3581 16.7384 12.4811 16.3955 12.6301L15.772 12.901L15.77 14.2121C15.768 15.4626 15.7716 15.5512 15.7365 15.6217C15.7302 15.6342 15.7228 15.6461 15.7139 15.6638C15.6884 15.7146 15.6735 15.7328 15.599 15.8047C15.271 16.121 14.6658 16.4887 14.1344 16.6944C13.2165 17.0498 12.2753 17.0954 11.3274 16.8304C10.7511 16.6693 10.1597 16.3795 9.65272 16.0097C9.40943 15.8322 9.32034 15.7482 9.2735 15.6519C9.2672 15.639 9.2618 15.6298 9.25717 15.6203C9.22675 15.558 9.22927 15.4805 9.22574 14.2127L9.22206 12.8886L8.24192 12.4691C7.70284 12.2384 7.24626 12.0408 7.22729 12.03C7.13961 11.9799 7.05967 11.8827 7.02177 11.78C7.00156 11.7253 6.99995 11.7143 7.00013 11.6317C7.00035 11.5306 7.01146 11.4861 7.05816 11.3993C7.09307 11.3345 7.17357 11.2563 7.24064 11.2221ZM8.68795 11.6289C8.68806 11.6267 9.55188 11.2551 10.6075 10.8033C11.6632 10.3515 12.5317 9.98286 12.5376 9.98415C12.5529 9.98752 16.312 11.6212 16.3183 11.6272C16.325 11.6337 15.2125 12.1165 15.1398 12.1386C15.1096 12.1478 15.063 12.1681 15.0364 12.1838C14.9972 12.2067 12.6188 13.2456 12.5496 13.27C12.5317 13.2763 12.3457 13.1982 10.6088 12.455C9.55223 12.003 8.68784 11.6312 8.68795 11.6289ZM10.1951 15.2315V14.2698C10.1951 13.3572 10.1958 13.3083 10.2075 13.3115C10.2143 13.3134 10.6976 13.5196 11.2814 13.7697C11.8653 14.0198 12.3619 14.2303 12.3852 14.2375C12.4825 14.2675 12.5938 14.2679 12.6836 14.2384C12.7025 14.2322 13.183 14.0251 13.7512 13.7782C14.3195 13.5312 14.7884 13.3276 14.7933 13.3256C14.8004 13.3227 14.8018 13.5145 14.8004 14.2814L14.7986 15.2408L14.7172 15.3016C14.6725 15.3351 14.5769 15.4007 14.5049 15.4474C14.0677 15.7311 13.5863 15.9262 13.1179 16.0097C12.5403 16.1126 11.9422 16.0604 11.3685 15.8571C10.9922 15.7238 10.5901 15.5149 10.277 15.2903L10.1951 15.2315Z" fill="currentColor"/>
</svg>
