<svg width="24" height="24" viewBox="0 0 24 24" fill="none" xmlns="http://www.w3.org/2000/svg">
<path d="M5.5 8.5V20.5C5.5 20.6326 5.55268 20.7598 5.64645 20.8536C5.74021 20.9473 5.86739 21 6 21H17" stroke="#212B3D" stroke-width="1.5" stroke-linecap="round" stroke-linejoin="round"/>
<path d="M13 2.5H7.5" stroke="#212B3D" stroke-width="1.5" stroke-linecap="round" stroke-linejoin="round"/>
<path d="M23.5 21.5L22.5 19.566V15C22.542 13.222 20.419 11.637 18.5 10" stroke="#212B3D" stroke-width="1.5" stroke-linecap="round" stroke-linejoin="round"/>
<path d="M18.5 15.948V10" stroke="#212B3D" stroke-width="1.5" stroke-linecap="round" stroke-linejoin="round"/>
<path d="M20 17.6581L16.7391 14.468C16.5937 14.3231 16.4198 14.2072 16.2274 14.1269C16.035 14.0466 15.8279 14.0036 15.618 14.0002C15.4082 13.9969 15.1997 14.0333 15.0046 14.1074C14.8095 14.1815 14.6316 14.2918 14.4813 14.4319C14.3309 14.5721 14.2109 14.7393 14.1284 14.9241C14.0458 15.1088 14.0022 15.3073 14.0001 15.5082C13.998 15.7091 14.0374 15.9084 14.1161 16.0947C14.1948 16.2809 14.3112 16.4505 14.4586 16.5935L18.0583 20.1054V21.9409C18.254 23.0355 18.6897 24.0781 19.3366 25" stroke="#212B3D" stroke-width="1.5" stroke-linecap="round" stroke-linejoin="round"/>
<path d="M0.500001 1.5L1.5 3.434L1.5 8C1.458 9.778 3.581 11.363 5.5 13" stroke="#212B3D" stroke-width="1.5" stroke-linecap="round" stroke-linejoin="round"/>
<path d="M5.5 7.052L5.5 13" stroke="#212B3D" stroke-width="1.5" stroke-linecap="round" stroke-linejoin="round"/>
<path d="M4 5.34195L7.26091 8.53202C7.40632 8.67691 7.58024 8.79282 7.77264 8.8731C7.96504 8.95338 8.17214 8.99644 8.38199 8.99979C8.59185 9.00314 8.80033 8.96672 8.99542 8.89263C9.19051 8.81854 9.36837 8.70823 9.51875 8.56807C9.66913 8.42791 9.78906 8.26066 9.87164 8.07595C9.95422 7.89124 9.99782 7.69271 9.99992 7.49181C10.002 7.2909 9.96259 7.09158 9.88389 6.90532C9.8052 6.71906 9.68879 6.54955 9.54137 6.40653L5.94172 2.89463L5.94172 1.05914C5.74597 -0.0355116 5.31032 -1.07809 4.66343 -2" stroke="#212B3D" stroke-width="1.5" stroke-linecap="round" stroke-linejoin="round"/>
<path d="M15 9L10.8462 13L9 11.2222" stroke="#212B3D" stroke-width="1.5" stroke-linecap="round" stroke-linejoin="round"/>
</svg>
