<svg width="19" height="24" viewBox="0 0 19 24" fill="none" xmlns="http://www.w3.org/2000/svg">
<path d="M15.208 6.06543H16.583C16.8261 6.06543 17.0592 6.16163 17.2311 6.33285C17.4031 6.50408 17.4996 6.73632 17.4996 6.97847V17.0448C17.4996 18.4917 16.9226 19.8793 15.8954 20.9024C14.8683 21.9255 13.4752 22.5002 12.0226 22.5002H1.9163C1.67319 22.5002 1.44003 22.404 1.26812 22.2328C1.09621 22.0616 0.999634 21.8293 0.999634 21.5872V6.97847C0.999634 6.73632 1.09621 6.50408 1.26812 6.33285C1.44003 6.16163 1.67319 6.06543 1.9163 6.06543H10.1663" stroke="currentColor" stroke-width="1.5" stroke-linecap="round" stroke-linejoin="round"/>
<path d="M9.24963 9.71796L15.152 3.83887" stroke="currentColor" stroke-width="1.5" stroke-linecap="round" stroke-linejoin="round"/>
<path d="M16.1246 4.23913C16.884 4.23913 17.4996 3.62596 17.4996 2.86957C17.4996 2.11318 16.884 1.5 16.1246 1.5C15.3652 1.5 14.7496 2.11318 14.7496 2.86957C14.7496 3.62596 15.3652 4.23913 16.1246 4.23913Z" stroke="currentColor" stroke-width="1.5" stroke-linecap="round" stroke-linejoin="round"/>
<path d="M16.1246 4.23913C16.884 4.23913 17.4996 3.62596 17.4996 2.86957C17.4996 2.11318 16.884 1.5 16.1246 1.5C15.3652 1.5 14.7496 2.11318 14.7496 2.86957C14.7496 3.62596 15.3652 4.23913 16.1246 4.23913Z" fill="currentColor"/>
<path d="M12.9165 22.4268V18.8476C12.9165 18.6055 13.0131 18.3732 13.185 18.202C13.3569 18.0308 13.5901 17.9346 13.8332 17.9346H17.4265" stroke="currentColor" stroke-width="1.5" stroke-linecap="round" stroke-linejoin="round"/>
<path d="M12.9165 22.4268V18.8476C12.9165 18.6055 13.0131 18.3732 13.185 18.202C13.3569 18.0308 13.5901 17.9346 13.8332 18.5H18" fill="currentColor"/>
<path d="M3.74951 12.4561H13.8328" stroke="currentColor" stroke-width="1.5" stroke-linecap="round" stroke-linejoin="round"/>
<path d="M3.74951 15.1953H13.8328" stroke="currentColor" stroke-width="1.5" stroke-linecap="round" stroke-linejoin="round"/>
<path d="M3.74951 17.9346H8.79118" stroke="currentColor" stroke-width="1.5" stroke-linecap="round" stroke-linejoin="round"/>
</svg>
