<svg width="16" height="16" viewBox="0 0 16 16" fill="none" xmlns="http://www.w3.org/2000/svg">
<path d="M4.60131 8.80063C4.5779 8.78199 4.55564 8.76195 4.53464 8.74063C4.29608 8.50187 4.16207 8.17816 4.16207 7.84063C4.16207 7.50311 4.29608 7.1794 4.53464 6.94063C4.55564 6.91932 4.5779 6.89928 4.60131 6.88063L10.826 2.2413C10.9206 2.17099 11.0329 2.12836 11.1503 2.11817C11.2678 2.10799 11.3858 2.13064 11.4911 2.18361C11.5964 2.23658 11.6849 2.31778 11.7468 2.41814C11.8086 2.51851 11.8413 2.63408 11.8413 2.75197L11.8413 12.9273C11.8413 13.0452 11.8086 13.1608 11.7468 13.2611C11.6849 13.3615 11.5964 13.4427 11.4911 13.4957C11.3858 13.5486 11.2678 13.5713 11.1503 13.5611C11.0329 13.5509 10.9206 13.5083 10.826 13.438L4.60131 8.80063Z" fill="#212B3D"/>
</svg>
