<svg width="16" height="16" viewBox="0 0 16 16" fill="none" xmlns="http://www.w3.org/2000/svg">
<path d="M11.402 8.80063C11.4255 8.78199 11.4477 8.76195 11.4687 8.74063C11.7073 8.50187 11.8413 8.17816 11.8413 7.84063C11.8413 7.50311 11.7073 7.1794 11.4687 6.94063C11.4477 6.91932 11.4255 6.89928 11.402 6.88063L5.17738 2.2413C5.08276 2.17099 4.97045 2.12836 4.85301 2.11817C4.73556 2.10799 4.61759 2.13064 4.51228 2.18361C4.40696 2.23658 4.31844 2.31778 4.25659 2.41814C4.19475 2.51851 4.16202 2.63408 4.16205 2.75197L4.16205 12.9273C4.16202 13.0452 4.19475 13.1608 4.25659 13.2611C4.31844 13.3615 4.40696 13.4427 4.51228 13.4957C4.6176 13.5486 4.73556 13.5713 4.85301 13.5611C4.97045 13.5509 5.08276 13.5083 5.17738 13.438L11.402 8.80063Z" fill="#212B3D"/>
</svg>
