<svg width="16" height="16" viewBox="0 0 16 16" fill="none" xmlns="http://www.w3.org/2000/svg">
<path fill-rule="evenodd" clip-rule="evenodd" d="M4.37108 0.00887989C4.30938 0.0220575 4.2309 0.0643231 4.17912 0.112265C4.09899 0.186454 4.05158 0.27592 4.03833 0.377974C4.03482 0.405008 4.0322 0.758461 4.03208 1.21978L4.03188 2.01498L2.69908 2.01511C1.20718 2.01525 1.24538 2.01422 1.05588 2.05956C0.775376 2.12668 0.530935 2.27425 0.357604 2.48112C0.164465 2.71163 0.0389157 3.02215 0.00676214 3.34889C-0.00276746 3.44574 -0.00297226 14.573 0.00655734 14.6909C0.0411941 15.1192 0.218577 15.4596 0.527882 15.6915C0.720343 15.8359 0.934602 15.9244 1.22868 15.9812L1.30228 15.9954L7.96468 15.9975C12.7603 15.9991 14.6495 15.9977 14.7071 15.9927C15.0574 15.9619 15.3341 15.8411 15.5631 15.619C15.6782 15.5074 15.7565 15.3977 15.8334 15.2406C15.9103 15.0835 15.9594 14.9227 15.984 14.7471C15.9894 14.7088 15.9966 14.6651 16 14.6501C16.0041 14.6325 16.0063 12.6392 16.0063 9.01867C16.0063 4.02137 16.0052 3.40407 15.9964 3.31796C15.9645 3.00451 15.8894 2.79691 15.7289 2.57861C15.5035 2.2718 15.1158 2.06811 14.6687 2.02153C14.6307 2.01758 14.1127 2.01516 13.2879 2.01509L11.9679 2.01498L11.9678 1.20058C11.9677 0.309341 11.9689 0.340387 11.93 0.25727C11.8024 -0.0154209 11.4549 -0.0882337 11.2382 0.112336C11.1575 0.187062 11.1123 0.271107 11.0977 0.373379C11.0938 0.401206 11.0913 0.720675 11.0912 1.21658L11.0911 2.01498H8.00002H4.90896L4.90722 1.18138L4.90548 0.347779L4.8859 0.293097C4.8099 0.0808863 4.59345 -0.0386081 4.37108 0.00887989ZM1.32349 2.89868C1.09795 2.93177 0.967664 3.05735 0.900087 3.30679L0.879882 3.38138L0.87818 4.71418L0.876477 6.04698H8.00298H15.1295L15.1294 4.76858C15.1294 4.00158 15.1269 3.45554 15.1231 3.40359C15.1162 3.3071 15.1014 3.2404 15.0733 3.17918C15.0094 3.03947 14.8666 2.94492 14.6591 2.90487C14.5921 2.89195 14.5746 2.89178 13.2796 2.89178H11.9679V3.4506C11.9679 3.82419 11.9656 4.02202 11.9609 4.0474C11.9352 4.18845 11.8277 4.31852 11.6927 4.37187C11.5369 4.43343 11.3594 4.40098 11.2382 4.28882C11.1575 4.2141 11.1123 4.13005 11.0977 4.02778C11.0939 4.00086 11.0913 3.76519 11.0912 3.43738L11.0911 2.89178H8.00007H4.90907L4.90727 3.47258L4.90548 4.05338L4.8859 4.10806C4.82424 4.28022 4.67337 4.39243 4.49275 4.40045C4.4068 4.40426 4.34704 4.39216 4.27648 4.35664C4.14822 4.29208 4.05659 4.16378 4.03833 4.02318C4.03495 3.9972 4.03219 3.7366 4.03208 3.43418L4.03188 2.89178L2.69588 2.89256C1.96109 2.89299 1.3435 2.89574 1.32349 2.89868ZM0.00306934 9.01658C0.00306934 12.1124 0.00379254 13.3789 0.00468214 11.831C0.00557174 10.2831 0.00557174 7.7501 0.00468214 6.20218C0.00379254 4.65426 0.00306934 5.92074 0.00306934 9.01658ZM0.878282 10.8038L0.879978 14.6838L0.894589 14.7382C0.918948 14.8289 0.953674 14.8923 1.01004 14.9492C1.08212 15.0218 1.16247 15.0644 1.29861 15.102L1.35988 15.119H8.02228H14.6847L14.7397 15.1049C14.9434 15.0529 15.0519 14.9252 15.1122 14.6664L15.1261 14.607L15.1278 10.7654L15.1296 6.92378H8.00308H0.876586L0.878282 10.8038Z" fill="currentColor"/>
</svg>
