<svg width="18" height="18" viewBox="0 0 18 18" fill="none" xmlns="http://www.w3.org/2000/svg">
<path fill-rule="evenodd" clip-rule="evenodd" d="M1.35012 0.381325C1.14714 0.395969 0.967776 0.452943 0.788518 0.559705C0.675406 0.627075 0.528533 0.75877 0.44538 0.867382C0.326019 1.02331 0.240915 1.22107 0.203784 1.42881C0.191681 1.49654 0.190918 1.59661 0.190918 3.11721C0.190918 4.65907 0.191523 4.73574 0.204029 4.77983C0.251153 4.94592 0.390444 5.08497 0.550796 5.12598C0.60692 5.14033 0.628009 5.14041 4.50355 5.14041C7.22342 5.14041 8.41277 5.1381 8.44259 5.13276C8.46609 5.12854 8.51462 5.11098 8.55043 5.09372C8.68367 5.0295 8.78857 4.89905 8.81976 4.75881C8.82444 4.73773 8.82703 4.16438 8.82714 3.11893C8.82733 1.38311 8.82902 1.46616 8.79052 1.31444C8.67992 0.878549 8.32867 0.527938 7.89132 0.416885C7.72954 0.375809 7.9868 0.378855 4.56492 0.377437C2.83638 0.376717 1.38972 0.378473 1.35012 0.381325ZM11.5597 0.381317C11.02 0.420341 10.5665 0.800811 10.4373 1.32309C10.3988 1.47848 10.4005 1.39578 10.4005 3.12081C10.4005 4.89074 10.3969 4.75751 10.4476 4.86321C10.5104 4.99408 10.6362 5.09732 10.772 5.12931C10.8128 5.13894 11.1978 5.14021 14.1056 5.1403C17.3681 5.14041 17.3934 5.1403 17.4492 5.12603C17.607 5.08567 17.7462 4.94836 17.7959 4.78401C17.8083 4.74295 17.8091 4.66347 17.8113 3.18201C17.8136 1.60475 17.8123 1.50577 17.7874 1.38511C17.7067 0.994397 17.4667 0.68294 17.1086 0.504056C17.0059 0.452749 16.9035 0.419499 16.7689 0.393788L16.6861 0.377962L14.1589 0.377033C12.769 0.376529 11.5993 0.378452 11.5597 0.381317ZM1.38392 1.36809C1.31704 1.38126 1.23494 1.44149 1.20501 1.49933C1.1731 1.56102 1.17389 1.52589 1.1738 2.87782L1.17372 4.16122L4.50912 4.15942L7.84452 4.15761V2.86521V1.57281L7.82719 1.52979C7.8065 1.4784 7.75077 1.41645 7.70384 1.39267C7.68586 1.38356 7.65205 1.37257 7.62871 1.36825C7.57703 1.3587 1.43242 1.35854 1.38392 1.36809ZM11.5929 1.36816C11.4996 1.38657 11.415 1.46778 11.3934 1.55966C11.3852 1.59436 11.3835 1.82287 11.3834 2.88141L11.3833 4.16121H14.1049H16.8265L16.8264 2.87781C16.8263 1.45286 16.8297 1.54981 16.7775 1.47589C16.7488 1.4353 16.6921 1.391 16.6471 1.37387C16.6256 1.36571 16.2084 1.36392 14.1229 1.36301C12.7383 1.36241 11.6104 1.36471 11.5929 1.36816ZM5.91441 2.09516C5.75352 2.12897 5.62261 2.20235 5.50735 2.32332C5.40661 2.42904 5.34065 2.55356 5.30967 2.69646C5.29286 2.77402 5.29284 2.93443 5.30962 3.01281C5.37055 3.29731 5.58687 3.52566 5.86951 3.60379C5.96118 3.62914 6.10967 3.63545 6.20292 3.61797C6.2868 3.60224 6.36234 3.57648 6.42972 3.54062C6.77511 3.35681 6.92975 2.9543 6.79641 2.58619C6.71932 2.3734 6.53586 2.19377 6.32133 2.12102C6.19812 2.07924 6.03843 2.06909 5.91441 2.09516ZM14.9114 2.09103C14.613 2.14738 14.3793 2.36644 14.2976 2.6664C14.284 2.71653 14.2817 2.74318 14.2817 2.85441C14.2817 2.96538 14.284 2.99229 14.2975 3.04161C14.3669 3.29534 14.5323 3.48373 14.7663 3.57563C15.1334 3.71978 15.5523 3.56438 15.7354 3.21616C15.968 2.77393 15.7291 2.23165 15.246 2.10474C15.1565 2.08125 14.9977 2.07474 14.9114 2.09103ZM0.563828 6.49047C0.470948 6.51065 0.370508 6.57451 0.300286 6.65803C0.261118 6.70461 0.21516 6.79501 0.200652 6.85401C0.192538 6.88701 0.190918 7.47484 0.190918 10.382V13.8704L0.210948 13.9296C0.26096 14.0772 0.390718 14.2034 0.540118 14.2497L0.594118 14.2664H4.50732C8.27092 14.2664 8.42228 14.2659 8.46674 14.2533C8.63488 14.2056 8.77145 14.0685 8.8131 13.9057C8.82716 13.8507 8.82732 13.8121 8.82732 10.374C8.82732 7.90486 8.82506 6.88686 8.81951 6.85976C8.81522 6.83878 8.79701 6.79099 8.77905 6.75356C8.75142 6.69601 8.73681 6.67599 8.68425 6.62375C8.61301 6.55295 8.55037 6.51617 8.46293 6.49381C8.408 6.47976 8.36635 6.47962 4.50797 6.48018C1.26435 6.48066 0.601001 6.48239 0.563828 6.49047ZM10.7868 6.48734C10.6804 6.50828 10.581 6.57126 10.5051 6.66589C10.4609 6.72092 10.44 6.76081 10.4174 6.83259L10.4005 6.88641V9.23721C10.4005 11.4887 10.4011 11.59 10.4136 11.6342C10.4615 11.8029 10.596 11.9374 10.7647 11.9853C10.8091 11.9979 10.9403 11.9984 14.1049 11.9984C17.2793 11.9984 17.4006 11.9979 17.4457 11.9852C17.6027 11.9408 17.7315 11.8199 17.7871 11.6645L17.8093 11.6024V9.24801C17.8093 6.65324 17.8133 6.86328 17.7622 6.75681C17.6985 6.62396 17.5688 6.51891 17.4331 6.49015C17.3914 6.48131 16.9221 6.47995 14.1013 6.48052C12.2956 6.48089 10.804 6.48396 10.7868 6.48734ZM1.17372 10.3712V13.2836H4.51092H7.84813L7.84632 10.373L7.84452 7.46241L4.50912 7.4606L1.17372 7.4588V10.3712ZM11.3833 9.23721V11.0156H14.1049H16.8265V9.23721V7.45881H14.1049H11.3833V9.23721ZM12.6662 8.75897C12.5171 8.79178 12.3731 8.91898 12.3204 9.06441C12.2567 9.24041 12.2943 9.43478 12.418 9.56837C12.4919 9.64821 12.5818 9.70066 12.6793 9.72076C12.7485 9.73503 15.4613 9.73503 15.5305 9.72076C15.713 9.68312 15.8712 9.5263 15.9094 9.34521C15.9344 9.22627 15.9126 9.08718 15.8532 8.98676C15.7992 8.89537 15.6881 8.80613 15.5809 8.7679L15.5341 8.75121L14.1229 8.75008C12.9405 8.74913 12.7043 8.75058 12.6662 8.75897ZM2.58852 8.91823C2.51348 8.92819 2.41659 8.97249 2.35509 9.02499C2.23668 9.12606 2.17477 9.25702 2.17477 9.40641C2.17477 9.54254 2.21976 9.65024 2.3178 9.74881C2.38496 9.81633 2.4401 9.85124 2.52372 9.87918L2.57412 9.89601L4.51812 9.89813C5.93412 9.89968 6.47766 9.89806 6.51936 9.89213C6.70506 9.86576 6.86466 9.72835 6.92046 9.54681C6.93387 9.50318 6.93706 9.47621 6.93706 9.40641C6.93706 9.25851 6.89675 9.16244 6.79045 9.05696C6.74131 9.00821 6.71587 8.98934 6.66732 8.96558C6.55135 8.90887 6.72518 8.91308 4.55262 8.91429C3.48424 8.91488 2.6004 8.91666 2.58852 8.91823ZM4.82412 11.0267C4.64417 11.0657 4.48716 11.2284 4.45231 11.412C4.40367 11.6681 4.55667 11.9134 4.80984 11.9852C4.85393 11.9977 4.90284 11.9984 5.69172 11.9984C6.48032 11.9984 6.52953 11.9977 6.57372 11.9852C6.73096 11.9408 6.86034 11.8191 6.91471 11.6645C6.93442 11.6084 6.93656 11.5937 6.93686 11.5124C6.93723 11.4092 6.9228 11.3491 6.87805 11.2676C6.84234 11.2025 6.74371 11.106 6.67812 11.072C6.56851 11.015 6.64856 11.0195 5.70972 11.0179C5.01091 11.0168 4.86311 11.0182 4.82412 11.0267ZM10.7893 13.2943C10.618 13.3321 10.4766 13.4588 10.4202 13.625L10.4005 13.6832V15.4472C10.4005 17.1366 10.4011 17.2132 10.4137 17.258C10.4616 17.4274 10.599 17.5623 10.7713 17.6089C10.8157 17.6209 10.9899 17.6216 14.1049 17.6216C17.2199 17.6216 17.3942 17.6209 17.4385 17.6089C17.5831 17.5698 17.6975 17.4753 17.7633 17.3407C17.8168 17.2313 17.8134 17.3679 17.8112 15.4256L17.8093 13.6832L17.7893 13.6241C17.7394 13.4767 17.6153 13.3547 17.4637 13.304L17.4133 13.2872L14.1229 13.286C11.4126 13.2849 10.8249 13.2864 10.7893 13.2943ZM11.3833 15.4544V16.6388H14.1049H16.8265V15.4544V14.27H14.1049H11.3833V15.4544Z" fill="currentColor"/>
</svg>
