<svg width="25" height="25" viewBox="0 0 25 25" fill="none" xmlns="http://www.w3.org/2000/svg">
<path d="M14.129 23.75H2.75C2.35218 23.75 1.97064 23.592 1.68934 23.3107C1.40804 23.0294 1.25 22.6478 1.25 22.25V2.75C1.25 2.35218 1.40804 1.97064 1.68934 1.68934C1.97064 1.40804 2.35218 1.25 2.75 1.25H22.25C22.6478 1.25 23.0294 1.40804 23.3107 1.68934C23.592 1.97064 23.75 2.35218 23.75 2.75V14.129C23.7499 14.5265 23.592 14.9078 23.311 15.189L15.189 23.311C14.9078 23.592 14.5265 23.7499 14.129 23.75V23.75Z" stroke="currentColor" stroke-width="1.5" stroke-linecap="round" stroke-linejoin="round"/>
<path fill-rule="evenodd" clip-rule="evenodd" d="M14.129 23.75H2.75C2.35218 23.75 1.97064 23.592 1.68934 23.3107C1.40804 23.0294 1.25 22.6478 1.25 22.25V2.75C1.25 2.35218 1.40804 1.97064 1.68934 1.68934C1.97064 1.40804 2.35218 1.25 2.75 1.25H22.25C22.6478 1.25 23.0294 1.40804 23.3107 1.68934C23.592 1.97064 23.75 2.35218 23.75 2.75V14.129C23.7499 14.5265 23.592 14.9078 23.311 15.189L15.189 23.311C14.9078 23.592 14.5265 23.7499 14.129 23.75ZM15.95 5.15006C16.2814 5.39861 16.3485 5.86871 16.1 6.20007L10.791 13.2781C10.6028 13.529 10.3642 13.7378 10.0905 13.8911C9.81679 14.0444 9.51409 14.1387 9.20179 14.1681C8.88949 14.1975 8.57449 14.1612 8.27703 14.0617C7.97956 13.9621 7.7062 13.8015 7.47448 13.5901L5.24431 11.5539C4.93842 11.2746 4.91684 10.8003 5.19613 10.4944C5.47542 10.1885 5.9498 10.1669 6.2557 10.4462L8.48553 12.482C8.56273 12.5524 8.65396 12.6061 8.75304 12.6392C8.8522 12.6724 8.95719 12.6845 9.06129 12.6747C9.16539 12.6649 9.2663 12.6334 9.35752 12.5824C9.44875 12.5313 9.52829 12.4617 9.59103 12.378L14.9 5.30002C15.1486 4.96866 15.6187 4.90152 15.95 5.15006ZM14.5 15.5998V21L21 14.5H15.5998C15.3081 14.5 15.0284 14.6159 14.8221 14.8221C14.6159 15.0284 14.5 15.3081 14.5 15.5998Z" fill="currentColor"/>
</svg>
