<svg width="25" height="25" viewBox="0 0 25 25" fill="none" xmlns="http://www.w3.org/2000/svg">
<path d="M14.129 23.75H2.75C2.35218 23.75 1.97064 23.592 1.68934 23.3107C1.40804 23.0294 1.25 22.6478 1.25 22.25V2.75C1.25 2.35218 1.40804 1.97064 1.68934 1.68934C1.97064 1.40804 2.35218 1.25 2.75 1.25H22.25C22.6478 1.25 23.0294 1.40804 23.3107 1.68934C23.592 1.97064 23.75 2.35218 23.75 2.75V14.129C23.7499 14.5265 23.592 14.9078 23.311 15.189L15.189 23.311C14.9078 23.592 14.5265 23.7499 14.129 23.75V23.75Z" stroke="currentColor" stroke-width="1.5" stroke-linecap="round" stroke-linejoin="round"/>
<path d="M14.75 23.615V16.25C14.75 15.8522 14.908 15.4706 15.1893 15.1893C15.4706 14.908 15.8522 14.75 16.25 14.75H23.615" stroke="currentColor" stroke-width="1.5" stroke-linecap="round" stroke-linejoin="round"/>
<path d="M15.5 5.75L10.191 12.828C10.0655 12.9953 9.90645 13.1345 9.72399 13.2367C9.54154 13.3389 9.33974 13.4018 9.13154 13.4213C8.92334 13.4409 8.71334 13.4168 8.51503 13.3504C8.31672 13.284 8.13448 13.177 7.98 13.036L5.75 11" stroke="currentColor" stroke-width="1.5" stroke-linecap="round" stroke-linejoin="round"/>
</svg>
