<svg width="18" height="24" viewBox="0 0 18 24" fill="none" xmlns="http://www.w3.org/2000/svg">
<path d="M14.25 5.24896V2.24896C14.2506 2.01745 14.1975 1.78896 14.095 1.58138C13.9926 1.37379 13.8434 1.19274 13.6593 1.0524C13.4752 0.912062 13.2611 0.816244 13.0338 0.772448C12.8065 0.728652 12.5721 0.738067 12.349 0.799956L1.849 3.71996C1.5275 3.82572 1.24782 4.0307 1.05017 4.30544C0.852515 4.58018 0.747074 4.91051 0.749004 5.24896" stroke="currentColor" stroke-width="1.5" stroke-linecap="round" stroke-linejoin="round"/>
<path d="M0.75 21.7489C0.75 22.1467 0.908035 22.5283 1.18934 22.8096C1.47064 23.0909 1.85218 23.2489 2.25 23.2489H15.75C16.1478 23.2489 16.5294 23.0909 16.8107 22.8096C17.092 22.5283 17.25 22.1467 17.25 21.7489V6.74292C17.25 6.3451 17.092 5.96356 16.8107 5.68226C16.5294 5.40095 16.1478 5.24292 15.75 5.24292L0.75 5.24892V21.7489Z" stroke="currentColor" stroke-width="1.5" stroke-linecap="round" stroke-linejoin="round"/>
<path d="M9.53103 9.57189L10.779 12.0289H12.906C13.0229 12.0266 13.1378 12.0594 13.2357 12.1232C13.3337 12.1869 13.4103 12.2787 13.4554 12.3865C13.5006 12.4943 13.5123 12.6132 13.4891 12.7277C13.4658 12.8423 13.4087 12.9472 13.325 13.0289L11.372 14.9509L12.454 17.4359C12.5014 17.5497 12.5119 17.6754 12.484 17.7954C12.4561 17.9155 12.3913 18.0237 12.2987 18.105C12.206 18.1863 12.0903 18.2364 11.9676 18.2484C11.845 18.2604 11.7217 18.2337 11.615 18.1719L9.00003 16.6999L6.38503 18.1699C6.27841 18.2317 6.15509 18.2584 6.03245 18.2464C5.90981 18.2344 5.79403 18.1843 5.70139 18.103C5.60876 18.0217 5.54395 17.9135 5.51608 17.7934C5.48821 17.6734 5.49868 17.5477 5.54603 17.4339L6.62803 14.9489L4.67503 13.0259C4.5914 12.9442 4.53425 12.8393 4.511 12.7247C4.48774 12.6102 4.49946 12.4913 4.54464 12.3835C4.58981 12.2757 4.66635 12.1839 4.76432 12.1202C4.86229 12.0564 4.97716 12.0236 5.09403 12.0259H7.22103L8.47003 9.57189C8.52102 9.4754 8.59736 9.39463 8.69084 9.3383C8.78432 9.28197 8.89139 9.2522 9.00053 9.2522C9.10967 9.2522 9.21675 9.28197 9.31023 9.3383C9.4037 9.39463 9.48005 9.4754 9.53103 9.57189V9.57189Z" stroke="currentColor" stroke-width="1.5" stroke-linecap="round" stroke-linejoin="round"/>
<path d="M9.53103 9.57189L10.779 12.0289H12.906C13.0229 12.0266 13.1378 12.0594 13.2357 12.1232C13.3337 12.1869 13.4103 12.2787 13.4554 12.3865C13.5006 12.4943 13.5123 12.6132 13.4891 12.7277C13.4658 12.8423 13.4087 12.9472 13.325 13.0289L11.372 14.9509L12.454 17.4359C12.5014 17.5497 12.5119 17.6754 12.484 17.7954C12.4561 17.9155 12.3913 18.0237 12.2987 18.105C12.206 18.1863 12.0903 18.2364 11.9676 18.2484C11.845 18.2604 11.7217 18.2337 11.615 18.1719L9.00003 16.6999L6.38503 18.1699C6.27841 18.2317 6.15509 18.2584 6.03245 18.2464C5.90981 18.2344 5.79403 18.1843 5.70139 18.103C5.60876 18.0217 5.54395 17.9135 5.51608 17.7934C5.48821 17.6734 5.49868 17.5477 5.54603 17.4339L6.62803 14.9489L4.67503 13.0259C4.5914 12.9442 4.53425 12.8393 4.511 12.7247C4.48774 12.6102 4.49946 12.4913 4.54464 12.3835C4.58981 12.2757 4.66635 12.1839 4.76432 12.1202C4.86229 12.0564 4.97716 12.0236 5.09403 12.0259H7.22103L8.47003 9.57189C8.52102 9.4754 8.59736 9.39463 8.69084 9.3383C8.78432 9.28197 8.89139 9.2522 9.00053 9.2522C9.10967 9.2522 9.21675 9.28197 9.31023 9.3383C9.4037 9.39463 9.48005 9.4754 9.53103 9.57189V9.57189Z" fill="currentColor"/>
</svg>
