<svg width="18" height="18" viewBox="0 0 18 18" fill="none" xmlns="http://www.w3.org/2000/svg">
<path fill-rule="evenodd" clip-rule="evenodd" d="M2.64579 0.00589477C2.33915 0.0459844 2.08931 0.190438 1.9091 0.431825C1.79271 0.587734 1.72406 0.769404 1.70599 0.969356C1.69668 1.07216 1.69711 4.82753 1.70642 4.93282C1.72913 5.18941 1.83662 5.41675 2.02038 5.59683C2.16658 5.74012 2.3322 5.82918 2.54859 5.88086C2.59969 5.89308 2.72022 5.89397 4.79859 5.89756L6.99459 5.90136L6.99621 10.1638C6.99798 14.7738 6.99565 14.4983 7.0344 14.691C7.08796 14.9574 7.20043 15.22 7.35732 15.445C7.64166 15.8527 8.09058 16.1511 8.57499 16.2544C8.79078 16.3005 8.67446 16.2976 10.398 16.3C11.873 16.3021 11.9656 16.3029 11.969 16.3146C11.971 16.3214 11.9812 16.3594 11.9918 16.399C12.0308 16.5453 12.112 16.742 12.1905 16.8802C12.4969 17.4201 13.0019 17.8 13.6041 17.9436C13.7817 17.9859 13.8796 17.9964 14.101 17.9967C14.2769 17.997 14.3168 17.9949 14.4142 17.9802C14.67 17.9415 14.8883 17.871 15.1175 17.7528C15.7001 17.4525 16.124 16.8911 16.2538 16.2481C16.3077 15.9811 16.3115 15.6772 16.2641 15.4177C16.114 14.5951 15.5121 13.93 14.7083 13.6987C14.5212 13.6448 14.3808 13.6239 14.1694 13.6184C13.9306 13.6122 13.7597 13.6305 13.5538 13.6844C13.1696 13.7849 12.8412 13.9729 12.5599 14.2534C12.3778 14.4349 12.251 14.6094 12.1396 14.8319C12.0745 14.9618 12.0037 15.156 11.9706 15.2957L11.9658 15.3156L10.4198 15.3133C8.69793 15.3107 8.8381 15.3149 8.6783 15.2615C8.46449 15.19 8.27147 15.0429 8.14923 14.8583C8.0864 14.7634 8.02653 14.6203 8.00313 14.509C7.9779 14.389 7.97687 14.2928 7.97894 12.259L7.98099 10.2502L9.97271 10.2483L11.9644 10.2465L11.9766 10.2951C12.0502 10.5879 12.1972 10.8833 12.3889 11.1235C12.9147 11.782 13.7608 12.0801 14.587 11.8978C14.692 11.8746 14.8749 11.8144 14.9866 11.7663C15.4776 11.5545 15.9022 11.13 16.1139 10.639C16.3751 10.0331 16.358 9.35687 16.0667 8.77674C15.7543 8.15444 15.1787 7.72392 14.4898 7.59716C14.2528 7.55357 13.9358 7.55498 13.6978 7.60067C13.3503 7.66739 13.0134 7.82198 12.7366 8.04172C12.6474 8.11252 12.4583 8.30189 12.3888 8.38995C12.1903 8.6415 12.0381 8.95354 11.9705 9.24757L11.9659 9.26738L9.97345 9.26557L7.98099 9.26376V7.58256V5.90136L10.1734 5.89731C11.7175 5.89446 12.3764 5.89094 12.4018 5.8854C12.6388 5.83363 12.8024 5.74672 12.9602 5.58868C13.112 5.43673 13.2077 5.26118 13.2509 5.05536C13.2761 4.93555 13.2772 4.83247 13.2745 2.87736C13.2717 0.801084 13.274 0.927617 13.2372 0.785756C13.2059 0.665256 13.1345 0.519917 13.0561 0.416993C13.0062 0.351401 12.8999 0.248592 12.8321 0.200309C12.7141 0.116242 12.556 0.047662 12.4107 0.0174292C12.3551 0.00585877 12.051 0.00503077 7.50939 0.00408037C4.84629 0.00352597 2.65767 0.00433957 2.64579 0.00589477ZM2.7151 1.00245C2.70619 1.01075 2.69586 1.02554 2.69215 1.03531C2.68799 1.04623 2.68539 1.78725 2.68542 2.95522C2.68544 4.82862 2.68565 4.8577 2.69948 4.88039C2.70915 4.89624 2.7223 4.90578 2.74165 4.911C2.76121 4.91626 4.21007 4.91802 7.50297 4.91676C12.1043 4.91501 12.2367 4.91458 12.2559 4.90156C12.267 4.89404 12.279 4.87668 12.2833 4.86196C12.2885 4.84386 12.2902 4.24737 12.2887 2.93256L12.2866 1.02937L12.2631 1.00837L12.2396 0.987356H7.48543H2.7313L2.7151 1.00245ZM14.0218 8.55152C13.8364 8.56888 13.6951 8.60927 13.5439 8.68806C13.2791 8.82605 13.0717 9.06325 12.9699 9.34429C12.9187 9.48591 12.8993 9.59915 12.8993 9.75696C12.8993 9.9159 12.9198 10.0351 12.971 10.173C13.096 10.5095 13.3594 10.7718 13.6942 10.8932C13.8329 10.9434 13.9444 10.9622 14.1046 10.9622C14.2648 10.9622 14.3763 10.9434 14.515 10.8932C14.851 10.7714 15.119 10.5034 15.2408 10.1674C15.2911 10.0286 15.3098 9.91715 15.3098 9.75696C15.3098 9.69162 15.3057 9.61224 15.3007 9.58056C15.2587 9.31677 15.1438 9.08993 14.9577 8.90385C14.7754 8.72157 14.5502 8.60565 14.2997 8.56508C14.2363 8.55483 14.0721 8.54682 14.0218 8.55152ZM14.0578 14.6006C13.7597 14.6118 13.4745 14.7355 13.2596 14.9467C13.0668 15.1363 12.9515 15.3625 12.9087 15.6358C12.897 15.7099 12.897 15.9071 12.9086 15.9814C13.0027 16.5815 13.504 17.0146 14.1046 17.0146C14.4196 17.0146 14.7123 16.8974 14.9381 16.6808C15.1343 16.4925 15.2526 16.2655 15.3005 15.985C15.3126 15.9142 15.3128 15.7097 15.3008 15.6322C15.2251 15.1427 14.8722 14.7549 14.3941 14.6356C14.2903 14.6097 14.1642 14.5966 14.0578 14.6006Z" fill="currentColor"/>
</svg>
