<svg width="20" height="20" viewBox="0 0 20 20" fill="none" xmlns="http://www.w3.org/2000/svg">
  <g clip-path="url(#clip0_2727_4906)">
    <path d="M6.87419 19.375H2.50002C2.00288 19.3748 1.52619 19.1771 1.17473 18.8255C0.823284 18.4739 0.625854 17.9971 0.625854 17.5" stroke="#B9BEC4" stroke-width="1.5" stroke-linecap="round" stroke-linejoin="round"/>
    <path d="M15.6259 7.5V1.25C15.6259 1.16785 15.6097 1.08651 15.5782 1.01063C15.5467 0.934748 15.5006 0.865811 15.4425 0.807764C15.3844 0.749716 15.3154 0.703697 15.2395 0.672336C15.1635 0.640976 15.0822 0.624891 15 0.625001H3.12585C2.46281 0.625001 1.82693 0.888393 1.35809 1.35723C0.889247 1.82607 0.625854 2.46196 0.625854 3.125V17.5C0.625854 17.0029 0.823284 16.5261 1.17473 16.1745C1.52619 15.8229 2.00288 15.6252 2.50002 15.625H7.50002" stroke="#B9BEC4" stroke-width="1.5" stroke-linecap="round" stroke-linejoin="round"/>
    <path d="M18.8575 12.392L12.5 18.7503L9.375 19.3753L10 16.2503L16.3583 9.89196C16.522 9.72808 16.7163 9.59807 16.9302 9.50936C17.1441 9.42066 17.3734 9.375 17.605 9.375C17.8366 9.375 18.0659 9.42066 18.2798 9.50936C18.4937 9.59807 18.688 9.72808 18.8517 9.89196L18.8583 9.89863C19.1888 10.2294 19.3743 10.6779 19.3742 11.1455C19.374 11.613 19.1882 12.0614 18.8575 12.392V12.392Z" stroke="#B9BEC4" stroke-width="1.5" stroke-linecap="round" stroke-linejoin="round"/>
  </g>
  <defs>
    <clipPath id="clip0_2727_4906">
      <rect width="20" height="20" fill="white"/>
    </clipPath>
  </defs>
</svg>
