<svg width="20" height="16" viewBox="0 0 20 16" fill="none" xmlns="http://www.w3.org/2000/svg">
  <path
    d="M2.8125 4.5625C2.8125 5.47418 3.17466 6.34852 3.81932 6.99318C4.46398 7.63784 5.33832 8 6.25 8C7.16168 8 8.03602 7.63784 8.68068 6.99318C9.32534 6.34852 9.6875 5.47418 9.6875 4.5625C9.6875 3.65082 9.32534 2.77648 8.68068 2.13182C8.03602 1.48716 7.16168 1.125 6.25 1.125C5.33832 1.125 4.46398 1.48716 3.81932 2.13182C3.17466 2.77648 2.8125 3.65082 2.8125 4.5625V4.5625Z"
    stroke="black" stroke-width="1.5" stroke-linecap="round" stroke-linejoin="round"/>
  <path
    d="M0.625 14.875C0.625 13.3832 1.21763 11.9524 2.27252 10.8975C3.32742 9.84263 4.75816 9.25 6.25 9.25C7.74184 9.25 9.17258 9.84263 10.2275 10.8975C11.2824 11.9524 11.875 13.3832 11.875 14.875"
    stroke="black" stroke-width="1.5" stroke-linecap="round" stroke-linejoin="round"/>
  <path
    d="M11.8759 1.68004C12.3949 1.34278 12.9954 1.15193 13.6139 1.12765C14.2324 1.10336 14.846 1.24654 15.3899 1.54207C15.9338 1.8376 16.3878 2.27451 16.704 2.80667C17.0202 3.33883 17.1868 3.94648 17.1863 4.56548C17.1857 5.18448 17.0181 5.79185 16.701 6.32346C16.3839 6.85507 15.9291 7.29119 15.3847 7.58577C14.8403 7.88036 14.2264 8.02247 13.608 7.99711C12.9895 7.97176 12.3893 7.77987 11.8708 7.44171"
    fill="#3B4659"/>
  <path
    d="M11.8759 1.68004C12.3949 1.34278 12.9954 1.15193 13.6139 1.12765C14.2324 1.10336 14.846 1.24654 15.3899 1.54207C15.9338 1.8376 16.3878 2.27451 16.704 2.80667C17.0202 3.33883 17.1868 3.94648 17.1863 4.56548C17.1857 5.18448 17.0181 5.79185 16.701 6.32346C16.3839 6.85507 15.9291 7.29119 15.3847 7.58577C14.8403 7.88036 14.2264 8.02247 13.608 7.99711C12.9895 7.97176 12.3893 7.77987 11.8708 7.44171"
    stroke="#3B4659" stroke-width="1.5" stroke-linecap="round" stroke-linejoin="round"/>
  <path
    d="M12.5 9.38917C13.3238 9.20254 14.179 9.20363 15.0023 9.39236C15.8256 9.5811 16.596 9.95264 17.2562 10.4795C17.9164 11.0063 18.4497 11.6749 18.8165 12.4358C19.1832 13.1967 19.3741 14.0303 19.375 14.875"
    fill="#3B4659"/>
  <path
    d="M12.5 9.38917C13.3238 9.20254 14.179 9.20363 15.0023 9.39236C15.8256 9.5811 16.596 9.95264 17.2562 10.4795C17.9164 11.0063 18.4497 11.6749 18.8165 12.4358C19.1832 13.1967 19.3741 14.0303 19.375 14.875H13.3333V10.5L12.5 9.38917Z"
    fill="#3B4659"/>
  <path
    d="M12.5 9.38917C13.3238 9.20254 14.179 9.20363 15.0023 9.39236C15.8256 9.5811 16.596 9.95264 17.2562 10.4795C17.9164 11.0063 18.4497 11.6749 18.8165 12.4358C19.1832 13.1967 19.3741 14.0303 19.375 14.875H13.3333V10.5L12.5 9.38917Z"
    stroke="#3B4659" stroke-width="1.5" stroke-linecap="round" stroke-linejoin="round"/>
</svg>
