<svg width="12" height="12" viewBox="0 0 12 12" fill="none" xmlns="http://www.w3.org/2000/svg">
  <g clip-path="url(#clip0)">
    <path
      d="M6 0C4.81331 0 3.65328 0.351894 2.66658 1.01118C1.67989 1.67047 0.910851 2.60754 0.456726 3.7039C0.00259975 4.80026 -0.11622 6.00666 0.115291 7.17054C0.346802 8.33443 0.918247 9.40353 1.75736 10.2426C2.59648 11.0818 3.66558 11.6532 4.82946 11.8847C5.99335 12.1162 7.19975 11.9974 8.2961 11.5433C9.39246 11.0892 10.3295 10.3201 10.9888 9.33342C11.6481 8.34673 12 7.18669 12 6C11.9982 4.40926 11.3655 2.88419 10.2406 1.75936C9.11581 0.634539 7.59074 0.00181488 6 0V0ZM6.64286 9C6.64286 9.1705 6.57513 9.33401 6.45457 9.45457C6.33401 9.57513 6.1705 9.64286 6 9.64286C5.82951 9.64286 5.66599 9.57513 5.54543 9.45457C5.42488 9.33401 5.35715 9.1705 5.35715 9V6C5.35715 5.8295 5.42488 5.66599 5.54543 5.54543C5.66599 5.42487 5.82951 5.35714 6 5.35714C6.1705 5.35714 6.33401 5.42487 6.45457 5.54543C6.57513 5.66599 6.64286 5.8295 6.64286 6V9ZM6 4.28571C5.83048 4.28571 5.66476 4.23544 5.5238 4.14126C5.38284 4.04708 5.27298 3.91321 5.20811 3.75659C5.14323 3.59996 5.12626 3.42762 5.15933 3.26135C5.1924 3.09508 5.27404 2.94235 5.39391 2.82248C5.51379 2.70261 5.66651 2.62097 5.83278 2.5879C5.99905 2.55483 6.17139 2.5718 6.32802 2.63667C6.48464 2.70155 6.61851 2.81141 6.71269 2.95237C6.80688 3.09332 6.85715 3.25904 6.85715 3.42857C6.85715 3.6559 6.76684 3.87392 6.60609 4.03466C6.44535 4.19541 6.22733 4.28571 6 4.28571Z"
      fill="#8E97A3"/>
  </g>
  <defs>
    <clipPath id="clip0">
      <rect width="12" height="12" fill="white"/>
    </clipPath>
  </defs>
</svg>
