<svg xmlns="http://www.w3.org/2000/svg" viewBox="0 0 24 24">
  
<g transform="matrix(1,0,0,1,0,0)"><g>
    <path d="M.5,15.25v4a2,2,0,0,0,2,2h19a2,2,0,0,0,2-2v-4a2,2,0,0,0-2-2H2.5A2,2,0,0,0,.5,15.25Zm19.5-1a1,1,0,1,1-1,1A1,1,0,0,1,20,14.25ZM3.5,17.5h17a.75.75,0,0,1,0,1.5H3.5a.75.75,0,0,1,0-1.5Z" style="fill: #000000"></path>
    <path d="M2.5,11.75h19a3.31,3.31,0,0,1,1.34.28.27.27,0,0,0,.26,0,.26.26,0,0,0,.08-.25L21.49,5.06h0a3.22,3.22,0,0,0-3-2.31H5.5a3.22,3.22,0,0,0-3,2.31L.82,11.74A.26.26,0,0,0,.9,12a.27.27,0,0,0,.26,0A3.31,3.31,0,0,1,2.5,11.75Z" style="fill: #000000"></path>
  </g></g></svg>