<svg xmlns="http://www.w3.org/2000/svg" viewBox="0 0 24 24">
  
<g transform="matrix(1,0,0,1,0,0)"><path d="M12,0A12,12,0,1,0,24,12,12,12,0,0,0,12,0ZM5.14,8.91l-.86-.5A.75.75,0,1,1,5,7.11l.86.5a.75.75,0,0,1,.28,1,.76.76,0,0,1-1,.27ZM5.25,12a.76.76,0,0,1-.75.75h-1a.75.75,0,0,1,0-1.5h1A.76.76,0,0,1,5.25,12Zm9,0A2.25,2.25,0,1,1,12,9.75h.08a.25.25,0,0,0,.23-.1l3.4-5.08a1,1,0,0,1,1.39-.27,1,1,0,0,1,.27,1.38l-3.37,5A.27.27,0,0,0,14,11,2.25,2.25,0,0,1,14.24,12ZM12.76,4.56a.75.75,0,1,1-1.5,0v-1a.75.75,0,0,1,1.5,0ZM7.39,4a.76.76,0,0,1,1,.28l.5.87a.75.75,0,0,1-.28,1,.71.71,0,0,1-.37.1.75.75,0,0,1-.65-.37l-.5-.87A.75.75,0,0,1,7.39,4ZM7.5,17a.5.5,0,0,1,.5-.5h8a.5.5,0,0,1,.5.5v2a.5.5,0,0,1-.5.5H8a.5.5,0,0,1-.5-.5ZM17.81,8.7a.74.74,0,0,1,.27-1l.87-.5h0a.74.74,0,0,1,1,.27.75.75,0,0,1-.27,1l-.87.5a.79.79,0,0,1-.37.1A.76.76,0,0,1,17.81,8.7Zm.88,3.37a.75.75,0,0,1,.75-.75h1a.75.75,0,1,1,0,1.5h-1A.76.76,0,0,1,18.69,12.07Z" style="fill: #000000"></path></g></svg>