<svg width="24" height="25" viewBox="0 0 24 25" fill="none" xmlns="http://www.w3.org/2000/svg">
  <g clip-path="url(#clip0_10602_198593)">
    <path
      d="M20.6741 23.7599L17.7141 22.0069C17.4537 21.8214 17.2507 21.5662 17.1283 21.2708C17.0059 20.9753 16.9691 20.6513 17.0221 20.3359V18.5119L15.9161 17.4049C15.7773 17.2664 15.6709 17.0987 15.6047 16.9141C15.5385 16.7294 15.514 16.5324 15.5332 16.3371C15.5523 16.1419 15.6145 15.9533 15.7153 15.7851C15.8161 15.6168 15.953 15.4729 16.1161 15.3639V15.3639C16.3713 15.1942 16.6773 15.118 16.9823 15.1482C17.2872 15.1785 17.5723 15.3134 17.7891 15.5299L19.3491 17.0909"
      stroke="#8E97A2" stroke-width="1.5" stroke-linecap="round" stroke-linejoin="round"/>
    <path
      d="M17.272 9.90002L21.434 13.583C21.9791 14.3464 22.2721 15.261 22.272 16.199V18.38C22.2721 19.0064 22.521 19.6071 22.964 20.05L23.25 20.336"
      stroke="#8E97A2" stroke-width="1.5" stroke-linecap="round" stroke-linejoin="round"/>
    <path
      d="M8.56413 23.76L10.9901 20.778C11.1973 20.5214 11.2966 20.1943 11.2669 19.8658C11.2373 19.5373 11.081 19.2333 10.8311 19.018C10.7088 18.9126 10.5664 18.833 10.4125 18.784C10.2586 18.7349 10.0964 18.7174 9.93566 18.7326C9.77487 18.7477 9.61879 18.7951 9.47677 18.872C9.33474 18.9489 9.2097 19.0536 9.10913 19.18L8.27213 19.896V14.01C8.27213 13.6122 8.11409 13.2307 7.83279 12.9493C7.55149 12.668 7.16995 12.51 6.77213 12.51C6.37431 12.51 5.99277 12.668 5.71147 12.9493C5.43017 13.2307 5.27213 13.6122 5.27213 14.01V17.76H4.03313C3.15912 17.7703 2.3249 18.1269 1.71353 18.7516C1.10216 19.3763 0.763594 20.218 0.77213 21.092V23.759"
      stroke="#8E97A2" stroke-width="1.5" stroke-linecap="round" stroke-linejoin="round"/>
    <path
      d="M17.272 15.213V5.01099C17.272 4.81207 17.193 4.62131 17.0523 4.48066C16.9117 4.34 16.7209 4.26099 16.522 4.26099H12.022C12.022 3.46534 11.7059 2.70228 11.1433 2.13967C10.5807 1.57706 9.81762 1.26099 9.02197 1.26099C8.22632 1.26099 7.46326 1.57706 6.90065 2.13967C6.33804 2.70228 6.02197 3.46534 6.02197 4.26099H1.52197C1.32306 4.26099 1.13229 4.34 0.991643 4.48066C0.85099 4.62131 0.771973 4.81207 0.771973 5.01099V14.76"
      stroke="#8E97A2" stroke-width="1.5" stroke-linecap="round" stroke-linejoin="round"/>
    <path
      d="M9.02197 3.88599C9.09614 3.88599 9.16864 3.90798 9.23031 3.94919C9.29198 3.99039 9.34005 4.04896 9.36843 4.11748C9.39681 4.186 9.40424 4.2614 9.38977 4.33415C9.3753 4.40689 9.33958 4.47371 9.28714 4.52615C9.23469 4.5786 9.16788 4.61431 9.09513 4.62878C9.02239 4.64325 8.94699 4.63583 8.87847 4.60744C8.80994 4.57906 8.75138 4.531 8.71017 4.46933C8.66897 4.40766 8.64697 4.33516 8.64697 4.26099C8.64684 4.2117 8.65645 4.16288 8.67525 4.11733C8.69405 4.07177 8.72167 4.03038 8.75651 3.99553C8.79136 3.96068 8.83275 3.93306 8.87831 3.91426C8.92387 3.89547 8.97269 3.88586 9.02197 3.88599"
      stroke="#8E97A2" stroke-width="1.5" stroke-linecap="round" stroke-linejoin="round"/>
  </g>
  <defs>
    <clipPath id="clip0_10602_198593">
      <rect width="24" height="24" fill="white" transform="translate(0 0.5)"/>
    </clipPath>
  </defs>
</svg>
