<svg width="25" height="25" viewBox="0 0 25 25" fill="none" xmlns="http://www.w3.org/2000/svg">
  <path fill-rule="evenodd" clip-rule="evenodd"
        d="M15.3931 1.64231C16.1244 0.910909 17.1164 0.5 18.1507 0.5C19.1851 0.5 20.1771 0.910909 20.9083 1.64224C21.6398 2.37362 22.0507 3.36562 22.0507 4.4C22.0507 5.43437 21.6398 6.42636 20.9084 7.15769C20.4625 7.6036 19.9198 7.93038 19.3296 8.11756C19.4847 8.14784 19.6389 8.18417 19.792 8.22657C21.0875 8.58531 22.2298 9.35861 23.044 10.428C23.7956 11.4151 24.2295 12.6046 24.2927 13.8398L24.3007 14.1494V16.3994C24.3007 16.855 23.9621 17.2316 23.5228 17.2912L23.4007 17.2994H21.9643L21.2963 23.989C21.2544 24.4072 20.9307 24.7348 20.5248 24.7909L20.4007 24.7994H15.9007C15.4804 24.7994 15.1222 24.5099 15.026 24.1115L15.0052 23.989L14.2552 16.489C14.2057 15.9944 14.5666 15.5533 15.0612 15.5039C15.5145 15.4585 15.9229 15.758 16.0259 16.1892L16.0463 16.3099L16.7143 22.9994H19.5859L20.2552 16.3099C20.297 15.8916 20.6208 15.564 21.0267 15.5079L21.1507 15.4994H22.5007V14.1502C22.5 13.2942 22.2471 12.4599 21.7766 11.7502L21.6118 11.5184C21.036 10.762 20.228 10.215 19.3116 9.96129C18.3954 9.70755 17.4212 9.761 16.5382 10.1135C15.6551 10.4659 14.9118 11.098 14.4222 11.9129C14.1662 12.339 13.6132 12.4768 13.1872 12.2208C12.7611 11.9648 12.6233 11.4119 12.8793 10.9858C13.5716 9.83368 14.6225 8.94003 15.8709 8.44171C16.229 8.2988 16.5976 8.19066 16.9719 8.11757C16.3817 7.9304 15.839 7.60363 15.3931 7.15775C14.6617 6.42636 14.2507 5.43437 14.2507 4.4C14.2507 3.36562 14.6617 2.37362 15.3931 1.64231ZM19.6355 2.91505C19.2418 2.52125 18.7076 2.3 18.1507 2.3C17.5938 2.3 17.0597 2.52125 16.6658 2.91511C16.272 3.30892 16.0507 3.84305 16.0507 4.4C16.0507 4.95695 16.272 5.49107 16.6659 5.88496C17.0597 6.27875 17.5938 6.5 18.1507 6.5C18.7076 6.5 19.2418 6.27875 19.6356 5.88489C20.0295 5.49107 20.2507 4.95695 20.2507 4.4C20.2507 3.84305 20.0295 3.30892 19.6355 2.91505ZM5.7635 8.13052C4.11252 8.54306 3.10624 9.93729 2.29688 12.3654L0.046875 19.1154L0.0162643 19.232C-0.0887457 19.7757 0.327341 20.3 0.90069 20.3H3.13749L3.76294 24.048C3.83526 24.4819 4.21073 24.8 4.65069 24.8H9.15069L9.2805 24.7907C9.66271 24.7352 9.97335 24.4385 10.0384 24.048L10.6627 20.3H12.9007C13.515 20.3 13.9488 19.6982 13.7545 19.1154L11.5045 12.3654C10.6951 9.93731 9.68888 8.54308 8.03792 8.13053C8.64421 7.94569 9.20206 7.61411 9.65845 7.15773C10.3898 6.42631 10.8007 5.43434 10.8007 4.4C10.8007 3.36566 10.3898 2.37367 9.65845 1.64228C8.92704 0.910886 7.93507 0.5 6.90073 0.5C5.86639 0.5 4.87442 0.910886 4.14302 1.64227C3.41162 2.37367 3.00073 3.36566 3.00073 4.4C3.00073 5.43434 3.41162 6.42631 4.14301 7.15771C4.59939 7.61409 5.15723 7.94568 5.7635 8.13052ZM7.06997 9.80444C8.34347 9.8729 9.06539 10.7402 9.79688 12.9346L11.6515 18.5H9.90069L9.77088 18.5093C9.38867 18.5648 9.07803 18.8615 9.01294 19.252L8.38749 23H5.41269L4.78844 19.252L4.75789 19.1255C4.64038 18.7576 4.29665 18.5 3.90069 18.5H2.14869L4.00451 12.9346C4.76779 10.6447 5.52066 9.8 6.90069 9.8L7.06997 9.80444ZM8.38567 2.91508C7.99183 2.52125 7.45769 2.3 6.90073 2.3C6.34378 2.3 5.80964 2.52125 5.4158 2.91507C5.02198 3.30889 4.80073 3.84304 4.80073 4.4C4.80073 4.95695 5.02198 5.4911 5.4158 5.88492C5.80964 6.27875 6.34378 6.5 6.90073 6.5C7.45769 6.5 7.99183 6.27875 8.38565 5.88493C8.77949 5.4911 9.00073 4.95695 9.00073 4.4C9.00073 3.84304 8.77948 3.30889 8.38567 2.91508Z"
        fill="#8E97A2"/>
</svg>
