<?xml version="1.0" encoding="utf-8"?>
<svg width="288" height="341" viewBox="0 0 288 341" fill="none" xmlns="http://www.w3.org/2000/svg">
  <defs/>
  <path d="M266.245 81.7659C268.263 76.9411 269.951 71.7102 269.145 66.5388C266.407 49.0188 243.924 51.276 233.464 59.9166C227.393 64.9281 223.098 71.6941 218.919 78.2625L203.069 76.8853C212.247 53.8815 235.473 37.6291 260.673 41.9764C270.653 43.6967 280.54 49.5342 284.173 58.981C287.805 68.4279 284.3 79.3991 280.741 89.1226L274.73 83.0317L266.245 81.7659Z" style="fill: rgb(230, 230, 230);"/>
  <path d="M283.417 129.629C279.226 150.56 273.72 171.628 267.859 192C267.012 194.952 264.178 209.306 260.382 200.279L249.497 174.422C245.737 165.85 244.662 161.571 248.231 151.858C255.214 132.85 261.742 113.667 269.107 94.7681C272.047 87.2264 276.518 82.5865 281.05 91.3006C283.842 96.774 285.743 102.657 286.683 108.729C287.367 112.94 284.952 121.923 283.417 129.629Z" style="fill: rgb(239, 239, 239);"/>
  <path d="M22.3315 313.554C17.2824 321.414 12.8614 329.662 9.11022 338.218C8.64 339.282 9.4971 340.455 10.6529 340.331C10.8336 340.311 11.0094 340.259 11.1717 340.177L31.2828 329.942C35.203 327.976 39.56 327.041 43.942 327.227C54.064 327.567 64.4338 327.08 73.8985 323.557C83.3632 320.034 91.8764 312.552 94.2431 302.625C77.8058 310.706 58.6357 310.557 40.3094 310.295C33.2472 310.188 26.1221 307.741 22.3315 313.554Z" style="fill: rgb(237, 237, 237);"/>
  <path d="M21.5431 292.787L20.0923 303.189C19.6182 305.234 19.7007 307.369 20.331 309.371C21.4317 312.05 24.2814 313.57 27.009 314.563C34.4883 317.238 42.4039 318.483 50.3432 318.233C57.6473 318.433 64.9507 317.819 72.1189 316.403C75.6462 315.42 79.083 314.138 82.3917 312.57C88.7788 309.61 96.317 304.791 98.0048 297.287C98.4554 294.436 98.3371 291.525 97.6565 288.72C97.1109 284.533 95.8704 280.467 93.9862 276.689C89.0648 268.513 85.8159 259.44 84.428 249.999C83.2033 241.279 84.0061 232.001 80.0269 224.131C79.4582 222.829 78.5679 221.692 77.4394 220.829C75.9991 220.002 74.3828 219.531 72.724 219.453C68.8724 218.995 56.8812 216.63 55.0587 221.563C54.2349 223.79 53.7947 226.141 53.7567 228.516C53.2432 228.167 52.71 227.819 52.1784 227.507C47.8482 224.628 42.5597 223.567 37.4543 224.553C17.713 228.237 3.83447 256.07 1.19858 274.076C-1.31715 291.264 16.6984 293.778 21.5431 292.787Z" style="fill: rgb(230, 230, 230);"/>
  <path d="M115.561 205.302C113.058 206.832 110.842 208.787 109.01 211.079C108.36 211.756 107.86 212.563 107.543 213.447C107.351 214.401 107.314 215.38 107.434 216.345C107.599 220.069 106.498 223.811 106.498 227.589C106.498 228.015 106.383 229.798 106.249 231.872C113.663 243.499 116.767 256.054 105.59 273.071C111.099 273.929 116.872 274.253 121.504 270.627C124.807 268.022 126.586 263.983 128.218 260.098C133.007 248.668 137.611 237.094 138.511 224.821C139.409 211.869 130.438 196.789 115.561 205.302Z" style="fill: rgb(230, 230, 230);"/>
  <path d="M130.583 203.864C123.129 199.184 113.81 203.618 108.364 210.457C107.598 211.257 107.017 212.217 106.663 213.267C106.453 214.293 106.41 215.347 106.536 216.386C106.692 219.893 105.6 223.858 105.6 227.593C105.6 227.907 105.525 229.135 105.43 230.62C105.997 231.471 106.542 232.327 107.064 233.186C107.139 229.594 107.407 226.008 107.866 222.445C108.822 215.46 107.967 215.981 108.389 213.752C108.675 212.962 109.127 212.243 109.714 211.642C114.636 205.474 123.002 201.228 129.628 205.388C134.893 208.69 138.177 216.656 137.615 224.757C136.746 236.627 132.468 247.628 127.39 259.753C125.643 263.917 123.952 267.557 120.949 269.923C116.64 273.303 111.09 273.01 106.121 272.257C105.774 272.801 105.415 273.35 105.044 273.904C111.149 274.901 117.146 275.19 122.065 271.34C125.404 268.706 127.204 264.85 129.049 260.453C134.19 248.18 138.52 237.032 139.408 224.89C140.012 216.146 136.385 207.502 130.583 203.864Z" style="fill: rgb(70, 70, 70);"/>
  <path d="M64.8557 68.2087C63.479 71.1912 62.284 74.2543 61.2771 77.3809C61.1159 77.8287 61.2557 78.3293 61.6254 78.6289C64.5457 80.5417 67.7609 81.9605 71.1422 82.8289C71.6371 83.0244 72.1879 83.0244 72.683 82.8289C72.991 82.5554 73.2136 82.1988 73.3239 81.8018C74.4803 78.7025 75.7642 75.7667 76.9942 72.6297L64.8557 68.2087Z" style="fill: rgb(220, 220, 220);"/>
  <path d="M41.1155 209.631C42.114 213.834 42.5094 218.158 42.2899 222.472C43.1159 226.14 46.9586 227.5 49.8494 229.369C50.9147 230.053 52.0239 230.666 53.1696 231.204C53.4134 231.32 53.6963 231.32 53.9399 231.204C54.1175 231.019 54.1985 230.761 54.159 230.507C54.159 224.508 50.7114 218.674 51.9038 212.804C52.051 212.313 52.051 211.79 51.9038 211.299C51.6272 210.638 50.8388 210.401 50.0685 210.254L42.5108 208.419C41.0759 208.112 40.7457 208.861 41.1155 209.631Z" fill="white"/>
  <path d="M41.4101 215.519C43.6008 218.773 49.2086 217.494 51.8858 217.135C51.6952 215.675 51.7443 214.194 52.0313 212.75C52.1786 212.259 52.1786 211.736 52.0313 211.245C51.7566 210.586 50.9683 210.348 50.198 210.2L42.6383 208.365C41.3204 208.083 40.954 208.644 41.1893 209.394C41.1469 211.438 41.2207 213.483 41.4101 215.519Z" style="fill: rgb(239, 239, 239);"/>
  <path d="M37.3196 316.728C33.6497 313.673 31.4655 309.192 31.3205 304.419C31.2324 299.32 34.0138 294.823 35.5582 290.054C29.3937 289.907 23.0318 288.492 18.6253 284.001C10.3222 275.536 13.3335 261.688 17.1205 251.841C20.862 241.995 26.5599 233.009 33.8702 225.425C15.9481 231.313 3.46127 257.108 1.10529 274.057C0.173354 280.772 2.27252 288.477 9.30591 290.576C11.3099 291.173 13.4521 290.853 15.4112 291.438C17.3702 292.024 18.9342 293.274 21.5397 292.742C21.062 296.209 20.5843 299.695 20.0888 303.157C19.6147 305.202 19.6972 307.337 20.3277 309.339C21.4284 312.016 24.2781 313.519 27.0056 314.53C30.6269 315.863 34.3773 316.816 38.196 317.373C37.8885 317.179 37.5957 316.964 37.3196 316.728Z" style="fill: rgb(230, 230, 230);"/>
  <path d="M43.6492 168.226C38.6388 168.853 34.184 171.721 31.5396 176.022C29.3918 180.173 28.7941 184.954 29.8533 189.506C32.9671 202.74 39.3021 213.54 53.0782 214.07C60.2312 214.522 66.8748 210.358 69.5872 203.724C75.9401 188.204 60.873 165.915 43.6492 168.226Z" fill="white"/>
  <path d="M44.4573 189.942C45.3175 189.679 45.9604 188.959 46.1253 188.075C46.4144 187.06 47.6301 187.821 47.2854 188.728C47.0246 189.336 46.635 189.88 46.1434 190.323C48.7758 191.529 48.6699 194.876 46.3606 194.729C45.0486 194.577 43.948 193.669 43.5504 192.409C43.3618 191.482 43.7127 190.527 44.4573 189.942Z" style="fill: rgb(70, 70, 70);"/>
  <path d="M60.126 180.355C60.9868 180.092 61.6298 179.373 61.7942 178.488C62.0851 177.473 63.2988 178.235 62.9541 179.141C62.6928 179.749 62.3032 180.293 61.8121 180.736C64.4445 181.942 64.3386 185.288 62.0293 185.142C60.7174 184.989 59.6174 184.08 59.2193 182.821C59.034 181.894 59.3842 180.941 60.126 180.355Z" style="fill: rgb(70, 70, 70);"/>
  <path d="M40.559 201.344C40.559 206.521 46.1629 209.756 50.646 207.168C52.7266 205.967 54.0083 203.747 54.0083 201.344C54.0083 196.168 48.4045 192.932 43.9214 195.521C41.8408 196.722 40.559 198.942 40.559 201.344Z" fill="#FF5470"/>
  <path d="M73.2629 166.268C72.0257 165.222 72.25 166.234 72.7241 164.857C73.1269 163.726 73.0024 162.475 72.3848 161.445C71.7051 160.547 70.7166 159.933 69.6105 159.721C69.8918 158.3 69.5341 156.826 68.6318 155.692C67.6789 154.7 66.2368 154.349 64.9346 154.794C64.877 153.797 64.5907 152.827 64.0979 151.959C63.2295 150.889 61.7957 150.458 60.4816 150.873C59.8928 148.463 57.0777 147.385 55.0299 148.784C54.523 147.721 53.6486 146.876 52.5682 146.407C51.4242 145.992 50.1457 146.221 49.2176 147.008C47.9285 145.132 45.236 144.924 43.6744 146.581C42.9383 145.562 41.8207 144.885 40.5769 144.705C39.1404 144.589 37.7702 145.328 37.0772 146.592C36.1937 145.868 35.111 145.429 33.9726 145.335C32.6205 145.379 31.4137 146.195 30.8696 147.434C29.8188 146.933 28.626 146.816 27.4975 147.102C26.3891 147.452 25.534 148.34 25.2261 149.461C24.0535 149.008 22.7333 149.156 21.6904 149.858C20.7529 150.595 20.2368 151.745 20.3096 152.936C19.167 152.539 17.9045 152.699 16.8978 153.37C15.7874 154.22 15.193 155.582 15.3248 156.974C11.6617 156.624 8.7778 160.043 9.74048 163.595C7.31538 164.227 5.94882 166.797 6.78126 169.161C5.47547 169.473 4.34627 170.289 3.64076 171.431C3.01079 172.703 3.21777 174.23 4.16326 175.288C3.31171 175.812 2.63503 176.577 2.21863 177.486C1.89392 178.563 2.19641 179.732 3.00332 180.517C2.60151 180.82 2.22714 181.157 1.88455 181.526C0.425775 183.017 0.545588 185.435 2.14501 186.775C0.611225 188.894 1.6279 191.894 4.13443 192.644C3.35096 193.934 3.15508 195.496 3.59579 196.94C4.17228 198.418 5.58105 199.404 7.16727 199.441C6.84291 200.58 6.92747 201.796 7.4062 202.88C8.16276 204.264 9.73405 204.992 11.2793 204.675C11.3119 206.529 12.3321 208.224 13.9548 209.121C15.3986 209.766 17.0816 209.549 18.3146 208.559C19.3544 211.465 22.8564 212.609 25.411 210.877C26.5404 213.36 29.9335 213.689 31.5187 211.469C31.6892 211.231 31.8295 210.971 31.9363 210.698C32.1284 210.19 31.8304 210.507 32.9023 210.599C34.7851 210.759 36.4597 209.408 36.7019 207.534C36.898 207.563 37.0965 207.573 37.2944 207.563C38.3507 208.695 39.5123 209.725 40.7636 210.637C41.5174 214.733 41.6896 218.916 41.2753 223.061C41.1967 223.748 41.8911 224.262 42.5254 223.987C42.8199 223.859 43.0237 223.584 43.0602 223.265C43.4929 219.511 43.4106 215.714 42.8161 211.982C45.344 213.554 48.1983 214.526 51.1603 214.824C50.875 218.025 51.1794 221.25 52.0582 224.341C52.2462 225.006 53.0842 225.219 53.5666 224.723C53.7904 224.493 53.8747 224.162 53.7873 223.853C52.9644 220.961 52.6826 217.943 52.9559 214.95C55.9405 215.039 58.907 214.458 61.6379 213.251C71.6774 208.694 74.2684 195.979 69.9283 186.085C68.7734 183.402 67.3283 180.854 65.6188 178.486C68.1901 179.403 69.8493 178.811 70.5963 176.994C70.9034 176.222 70.9482 175.371 70.7237 174.571C72.7784 173.946 74.3431 172.271 74.8286 170.179C74.9997 168.695 74.4108 167.225 73.2629 166.268ZM69.9894 199.197C68.5007 209.48 58.9318 215.153 49.0163 212.695C45.2243 211.756 41.7883 209.732 39.1296 206.87C40.5518 205.719 40.7002 203.603 39.4528 202.265C40.9543 200.947 40.9124 198.597 39.3649 197.333C40.1847 195.773 39.5728 193.845 38.0037 193.043C38.6025 191.604 37.9716 189.948 36.5672 189.272C37.0805 188.099 36.8383 186.733 35.9532 185.808C36.8692 184.671 37.0768 183.118 36.4918 181.779C37.7349 180.802 38.4625 179.311 38.467 177.73C39.5801 177.653 40.5565 176.96 40.9953 175.934C42.8881 177.095 45.37 176.234 46.1361 174.149C47.8296 175.502 50.3233 175.084 51.4817 173.252C52.953 174.901 55.4909 175.022 57.1129 173.521C57.803 174.584 59.0504 175.146 60.3038 174.958C64.7837 179.516 71.7544 188.541 69.9894 199.197Z" style="fill: rgb(70, 70, 70);"/>
  <path d="M58.991 207.44C58.0225 206.349 57.3515 205.026 57.0428 203.6C56.5265 201.741 56.2845 199.818 56.3246 197.889C56.335 197.38 56.7662 196.982 57.2744 197.012C60.5929 197.191 62.3832 196.216 65.7839 195.395C66.4499 195.21 67.0668 195.815 66.8946 196.484C66.8086 196.818 66.5388 197.073 66.2005 197.141C63.5919 198.051 60.8754 198.617 58.1202 198.825C58.1633 200.293 58.3847 201.749 58.7792 203.163C59.0192 204.296 59.5474 205.347 60.3126 206.216C60.9746 206.908 61.9643 207.178 62.8858 206.918C63.7363 206.43 64.387 205.657 64.7228 204.736C65.3698 203.7 65.6721 202.486 65.5865 201.267C65.5325 200.576 66.247 200.086 66.8725 200.385C67.1628 200.523 67.3571 200.806 67.3821 201.127C67.5058 202.664 67.1399 204.2 66.337 205.515C65.8192 206.852 64.8207 207.946 63.5377 208.584C61.928 209.103 60.1637 208.659 58.991 207.44Z" style="fill: rgb(70, 70, 70);"/>
  <path d="M32.906 219.365C30.4133 219.306 28.3211 217.47 27.9393 215.006C27.6698 213.249 28.0572 211.454 29.0273 209.965C29.4048 209.386 30.2677 209.433 30.5806 210.049C30.7257 210.335 30.7073 210.677 30.5321 210.946C29.0956 213.156 29.3147 216.406 31.9094 217.435C32.9501 217.73 34.0682 217.549 34.9619 216.939C37.6742 214.662 38.8576 211.042 38.0145 207.602C37.8524 206.93 38.4783 206.335 39.1411 206.53C39.4632 206.625 39.7053 206.892 39.7689 207.222C40.972 212.745 37.8583 219.365 32.906 219.365Z" style="fill: rgb(70, 70, 70);"/>
  <path d="M41.209 187.945C40.6596 187.951 40.2342 187.466 40.3111 186.922C40.5386 185.34 41.2719 183.874 42.4013 182.743C43.6973 181.48 45.617 181.1 47.2963 181.775C47.9471 182.008 48.102 182.858 47.5751 183.305C47.3114 183.529 46.9422 183.582 46.6263 183.44C44.2921 182.499 42.4157 184.876 42.0906 187.173C42.0285 187.613 41.6536 187.942 41.209 187.945Z" style="fill: rgb(70, 70, 70);"/>
  <path d="M57.6246 177.82C57.0738 177.821 56.652 177.33 56.7357 176.786C56.8944 175.754 57.2728 174.769 57.8455 173.896C58.617 172.787 60.0328 172.326 61.3093 172.77C61.954 173.019 62.0879 173.873 61.55 174.307C61.3188 174.493 61.0101 174.554 60.7257 174.467C60.2117 174.29 59.6425 174.471 59.3251 174.913C58.9082 175.564 58.6345 176.297 58.5223 177.062C58.4529 177.502 58.0705 177.825 57.6246 177.82Z" style="fill: rgb(70, 70, 70);"/>
  <path d="M40.0273 220.123C39.7012 219.965 39.3432 219.883 38.9806 219.884C38.5062 219.976 38.0784 220.23 37.7703 220.602C36.7109 221.619 35.7918 222.773 35.0374 224.032C34.2829 225.292 51.2483 227.735 52.9595 228.031C49.1291 224.68 44.756 222.006 40.0273 220.123Z" style="fill: rgb(230, 230, 230);"/>
  <path d="M52.9685 228.927C51.1704 228.638 49.3913 228.241 47.6408 227.738L34.8505 224.908C34.2539 224.773 33.9649 224.093 34.2813 223.569C35.0769 222.24 36.046 221.023 37.1632 219.951C37.5932 219.453 38.1806 219.118 38.8279 219.001C39.3692 218.972 39.9092 219.074 40.4027 219.299C45.2159 221.216 49.667 223.939 53.5646 227.352C54.0857 227.806 53.9201 228.654 53.2663 228.878C53.1705 228.911 53.0697 228.928 52.9685 228.927ZM36.5079 223.436C36.5079 223.436 49.002 226.251 49.4616 226.366C46.4524 224.154 43.1728 222.336 39.7024 220.956C39.5229 220.89 39.266 220.71 38.984 220.777C38.7807 220.864 38.6012 220.998 38.4598 221.168C37.7413 221.863 37.0879 222.622 36.5079 223.436Z" fill="#2F463F"/>
  <path d="M57.4075 219.188C57.2337 218.983 56.9932 218.847 56.7287 218.803C56.5492 218.771 51.6058 217.774 52.2522 217.905L53.7372 228.564C55.6704 226.019 56.9324 223.029 57.4075 219.868C57.4809 219.647 57.4809 219.408 57.4075 219.188Z" style="fill: rgb(230, 230, 230);"/>
  <path d="M67.3102 217.773C64.0636 217.624 60.8103 217.758 57.587 218.173C56.0603 217.6 54.4892 217.152 52.8896 216.835C52.3598 216.688 51.2483 217.194 51.3633 218.027L52.8483 228.685C52.9436 229.369 53.7442 229.694 54.2893 229.269C54.3503 229.221 54.405 229.166 54.4518 229.105C56.4029 226.759 57.6599 223.915 58.0808 220.893C59.3574 220.744 60.9231 219.636 62.2772 219.565C63.9181 218.869 65.5988 218.27 67.3102 217.773ZM54.299 226.092L53.2827 218.801L56.4933 219.669C55.9816 221.879 55.2464 224.031 54.299 226.092Z" style="fill: rgb(70, 70, 70);"/>
  <path d="M94.6759 297.445C91.4437 298.594 87.9781 296.461 86.1646 294.058C84.2846 291.025 83.0771 287.625 82.6235 284.085C82.5449 283.516 81.959 283.166 81.4205 283.367C72.383 286.712 60.6199 287.711 50.4476 288.82C49.761 288.899 49.417 289.692 49.8287 290.247C49.9221 290.373 50.047 290.472 50.1908 290.535C49.7527 295.06 49.9628 299.469 48.4563 303.507C47.3399 306.75 44.7299 309.257 41.4442 310.242C39.1351 309.56 39.0776 312.433 41.3742 312.092C60.4994 317.569 81.0953 312.578 95.5917 298.953C96.1057 298.491 95.927 297.646 95.2699 297.432C95.0761 297.369 94.8667 297.373 94.6759 297.445ZM44.4142 311.016C47.0548 309.44 49.0756 307.008 50.1406 304.123C51.7853 299.709 51.5412 294.92 52.0045 290.447C61.2627 289.445 72.173 288.452 81.0057 285.41C81.5935 288.838 82.8432 292.118 84.685 295.067C86.4791 297.528 89.2063 299.142 92.2266 299.531C79.0079 310.717 61.2712 314.977 44.4142 311.016Z" style="fill: rgb(70, 70, 70);"/>
  <path d="M64.6151 121.577C65.3694 117.598 67.7648 101.094 67.1291 95.9262C62.2808 96.1291 56.2332 94.3694 51.7601 93.0676C37.4652 88.8963 26.6051 80.8393 20.2558 69.0186C12.725 54.7039 17.5623 27.6042 38.2893 12.2497C51.8249 2.15635 70.2265 -1.98259 88.7682 0.893969C101.864 2.69516 114.098 8.45124 123.835 17.3923C133.917 26.6582 139.334 39.942 138.608 53.6156C137.288 67.2962 129.542 79.5342 117.743 86.5817C104.645 94.7771 89.9677 95.5599 76.935 96.1344C74.3008 106.343 70.0829 114.206 66.3084 122.125C66.0101 122.748 65.1487 122.815 64.758 122.244C64.6243 122.049 64.573 121.81 64.6151 121.577ZM68.7344 94.7607C69.6016 98.203 68.3159 108.979 67.3176 115.928C76.6549 96.6481 74.387 94.4555 76.188 94.3801C89.1633 93.8055 103.87 93.1519 116.791 85.068C128.416 77.8082 135.898 66.0127 136.812 53.5043C137.509 40.3723 132.307 27.6149 122.627 18.7139C113.154 10.0168 101.25 4.41978 88.5097 2.67172C53.6098 -2.74384 22.7697 17.087 19.0042 48.7764C18.1549 56.9735 19.0042 62.7824 21.8414 68.1693C25.0833 74.3515 29.8011 79.6381 35.5761 83.5596C40.5984 87.0496 46.1774 89.6605 52.0744 91.281C56.6299 92.5845 63.0511 94.513 67.7827 94.0766C68.2239 94.0372 68.6279 94.3254 68.7344 94.7554V94.7607Z" style="fill: rgb(70, 70, 70);"/>
  <path d="M87.2383 31.296C78.3392 27.0421 70.0505 31.0536 66.3604 39.6206C64.1482 44.7578 64.5362 48.807 64.8432 53.7917C65.3438 58.3389 65.1908 62.9345 64.3889 67.4385C64.2326 67.5293 64.1074 67.6651 64.0296 67.8281C62.6094 70.8436 61.3981 73.9532 60.4043 77.1348C60.1303 77.9616 60.4248 78.8706 61.1315 79.3795C64.1014 81.3276 67.371 82.7744 70.81 83.6621C71.5159 83.9387 72.3002 83.9387 73.0061 83.6621C73.5755 83.3122 73.9893 82.7577 74.1625 82.1125C75.3171 79.0168 76.5829 76.1239 77.8274 72.9548C77.8801 72.8195 77.8992 72.6735 77.883 72.5292C82.0579 65.1509 91.1707 58.4891 94.4478 51.6334C98.0591 44.0257 94.8349 34.9305 87.2383 31.296ZM72.207 82.0423C71.9286 82.0993 71.6395 82.0712 71.3775 81.9616C68.109 81.0913 64.9937 79.7239 62.1408 77.907C62.0833 77.706 62.0975 77.7185 62.6004 76.2496C65.9545 77.8301 69.4205 79.1613 72.9701 80.2325C72.3489 81.8503 72.4027 81.8161 72.207 82.0423ZM73.631 78.5552C70.0587 77.4863 66.5728 76.147 63.2036 74.5491C63.4575 73.8621 63.7197 73.1774 63.9902 72.4949C67.4198 73.9746 70.9142 75.368 74.405 76.6698C74.1445 77.2965 73.8842 77.9232 73.631 78.5552ZM75.0782 75.007C71.5965 73.716 68.1023 72.3137 64.6744 70.8341C64.9138 70.2679 65.1598 69.7058 65.4124 69.148C68.8062 70.674 72.2742 72.0289 75.8036 73.2079C75.5631 73.8113 75.3213 74.411 75.0782 75.007ZM72.5392 57.4422C72.2119 56.7968 71.7039 56.2602 71.0776 55.898C70.2823 55.1297 70.6169 53.7885 71.68 53.4839C71.7071 53.4762 71.7343 53.4693 71.7616 53.463C72.8017 53.2569 73.6748 54.254 73.3332 55.2576C73.328 55.2731 73.3225 55.2884 73.3167 55.3036C73.1363 55.7749 73.3798 56.3023 73.8554 56.4707C78.5564 58.1174 78.8077 58.656 79.3895 58.2663C79.6306 58.1234 79.7764 57.8624 79.7721 57.5822C80.1405 57.3051 80.5877 57.1522 81.0487 57.146C82.0237 57.1729 82.2105 58.4513 81.661 59.2486C80.9419 60.2511 79.6014 60.5836 78.497 60.0333C78.0608 59.8159 77.5307 59.9866 77.303 60.4176C75.7785 63.2905 74.0493 67.214 72.7116 70.2235C71.6432 69.8141 70.5011 69.3652 69.4471 68.9396C70.2355 66.1098 71.8406 61.9026 72.5624 59.1373C72.7066 58.5803 72.6984 57.9949 72.5392 57.4422ZM92.8298 50.8648C89.7773 57.2896 80.7219 63.9531 76.3855 71.5397C75.9384 71.4069 75.2344 71.1626 74.3959 70.8539C75.6295 68.0796 77.1468 64.6517 78.5258 61.951C80.2579 62.407 82.0911 61.7409 83.1263 60.2794C84.6066 58.4846 83.5891 55.7605 81.2947 55.3759C81.2322 55.3653 81.1694 55.3568 81.1062 55.3504C80.1435 55.3344 79.2098 55.6805 78.4899 56.32C77.2779 55.8244 76.3711 55.4671 75.1914 55.0415C75.3581 52.6018 72.8213 50.8966 70.6253 51.972C70.1255 52.2168 69.6987 52.5886 69.3879 53.0501C68.5084 54.3674 68.7046 56.1267 69.8529 57.2177C70.0002 57.3471 70.1618 57.4638 70.3252 57.5768C70.5046 57.6918 70.6713 57.8255 70.8225 57.9755C70.8837 58.2049 70.8837 58.4464 70.8225 58.6758C70.1438 61.2794 68.5978 65.3574 67.7701 68.2447C67.1361 67.979 66.5903 67.7437 66.1917 67.5623C66.972 62.9757 67.1189 58.3035 66.628 53.6768C66.3209 48.6974 65.96 45.1188 68.0034 40.3244C71.3379 32.6624 78.4918 29.1053 86.4571 32.9119C93.1717 36.1122 96.0252 44.1463 92.8335 50.8648H92.8298Z" style="fill: rgb(70, 70, 70);"/>
  <path d="M44.179 59.3833C43.4878 59.38 43.0596 58.6296 43.4082 58.0327C43.5465 57.796 43.7854 57.6354 44.0568 57.5966C47.9485 57.0615 51.8742 56.8137 55.8021 56.855C56.3015 56.855 56.7049 57.2626 56.6999 57.762C56.6676 58.2462 56.2764 58.6289 55.7914 58.6507C51.9077 58.6022 48.0257 58.847 44.179 59.3833Z" style="fill: rgb(70, 70, 70);"/>
  <path d="M57.9209 42.1218C53.5932 40.5436 49.1731 39.2315 44.6853 38.1928C44.01 38.045 43.7482 37.2216 44.2139 36.7108C44.4301 36.4738 44.7562 36.3699 45.0696 36.4385C49.5541 37.4205 53.9576 38.741 58.2423 40.389C58.8851 40.6429 59.012 41.4974 58.4706 41.9272C58.3142 42.0513 58.1207 42.1199 57.9209 42.1218Z" style="fill: rgb(70, 70, 70);"/>
  <path d="M66.1594 26.5284C65.8454 26.5291 65.5541 26.3657 65.3908 26.0976C64.1455 24.0527 62.706 22.1327 61.092 20.3641C60.6431 19.8387 60.9314 19.0241 61.6108 18.8981C61.9055 18.8436 62.208 18.9394 62.4172 19.1539C64.1095 21.0075 65.619 23.02 66.9243 25.1638C67.2837 25.7542 66.8692 26.5123 66.1783 26.5283C66.1719 26.5285 66.1656 26.5284 66.1594 26.5284Z" style="fill: rgb(70, 70, 70);"/>
  <path d="M84.4856 25.2249C83.9563 25.227 83.5401 24.7733 83.5877 24.2463C83.9824 19.9484 84.5992 15.6739 85.4354 11.4398C85.5702 10.7617 86.3884 10.4839 86.9083 10.9397C87.1494 11.1512 87.2595 11.4752 87.197 11.79C86.3722 15.9623 85.7645 20.1745 85.3762 24.4097C85.3337 24.8703 84.9482 25.2232 84.4856 25.2249Z" style="fill: rgb(70, 70, 70);"/>
  <path d="M98.7015 31.1326C98.0104 31.1328 97.5782 30.3849 97.9234 29.7862C97.9583 29.7258 98.0001 29.6695 98.0479 29.6188L103.002 24.372C103.491 23.8836 104.325 24.1078 104.504 24.7754C104.582 25.067 104.508 25.3783 104.308 25.6039L99.3533 30.8506C99.184 31.0302 98.9484 31.1321 98.7015 31.1326Z" style="fill: rgb(70, 70, 70);"/>
  <path d="M105.818 48.8178C105.127 48.8338 104.677 48.0955 105.009 47.4889C105.163 47.2074 105.456 47.0295 105.776 47.0222C110.583 46.7881 115.363 46.1805 120.075 45.205C120.757 45.0935 121.304 45.7624 121.06 46.4087C120.955 46.6851 120.721 46.8923 120.434 46.963C115.62 47.976 110.732 48.5964 105.818 48.8178Z" style="fill: rgb(70, 70, 70);"/>
  <path d="M110.131 63.7682C109.536 63.7682 107.944 62.6621 102.727 61.1646C102.06 60.9854 101.837 60.1509 102.326 59.6622C102.56 59.4276 102.906 59.3417 103.223 59.4389C105.699 60.1505 108.125 61.022 110.488 62.0481C111.121 62.3252 111.217 63.1839 110.66 63.5935C110.507 63.7064 110.321 63.7677 110.131 63.7682Z" style="fill: rgb(70, 70, 70);"/>
  <path d="M97.6008 82.3332C97.2568 82.3332 96.9429 82.1365 96.7929 81.8267L91.1618 70.1965C90.8604 69.5743 91.3455 68.8595 92.0349 68.9095C92.3547 68.9327 92.6379 69.1248 92.7779 69.4135L98.4107 81.044C98.7 81.6408 98.2643 82.3346 97.6008 82.3332Z" style="fill: rgb(70, 70, 70);"/>
  <path d="M275.363 83.3801C274.429 82.7256 273.328 82.3518 272.189 82.3028C247.532 78.9416 222.666 77.3536 197.783 77.5516C195.453 77.4054 193.119 77.7624 190.94 78.5983C188.386 80.0713 186.271 82.1986 184.813 84.7611C172.064 103.328 161.515 120.051 150.49 138.641C147.114 144.346 142.253 149.152 143.307 156.215C144.792 166.159 148.241 176.247 151.159 185.843C151.483 189.65 154.675 192.571 158.496 192.557C193.413 198.46 228.669 202.137 264.053 203.564C261.981 191.466 258.4 179.676 253.395 168.47C253.12 167.303 252.415 166.283 251.42 165.613C260.14 141.104 266.976 114.592 275.744 90.1191C276.538 87.8568 277.198 84.946 275.363 83.3801Z" fill="white"/>
  <path d="M203.322 189.542C210.469 187.926 213.346 180.612 210.478 174.099C206.998 166.198 197.147 163.731 191.444 169.714C186.898 174.492 188.392 183.691 193.498 187.583C196.32 189.662 199.919 190.38 203.322 189.542Z" style="fill: rgb(241, 241, 241);"/>
  <path d="M212.462 178.678C212.183 173.071 208.611 168.16 203.362 166.168C198.441 164.428 192.962 166.123 189.884 170.337C184.734 179.095 190.586 190.68 200.658 190.678C207.36 190.937 212.831 185.375 212.462 178.678ZM191.633 183.946C189.592 180.666 189.153 176.636 190.439 172.993C191.929 169.44 195.406 167.129 199.259 167.13C207.664 167.13 213.768 177.186 209.182 184.609C204.737 190.653 195.597 190.304 191.626 183.939L191.633 183.946Z" style="fill: rgb(70, 70, 70);"/>
  <path d="M286.423 103.504C285.233 98.7791 283.49 94.211 281.23 89.8946C281.388 89.7885 281.509 89.6344 281.574 89.4548C284.627 81.0764 288.432 70.6492 285.632 60.7731C283.577 53.4919 277.658 47.2934 269.396 43.7684C253.753 37.0905 233.527 40.8721 219.063 53.1793C211.675 59.5808 205.91 67.6422 202.24 76.7022C197.018 76.7022 193.304 76.4167 190.16 78.0418C187.744 79.5395 185.726 81.6003 184.28 84.0481C174.763 97.8046 161.804 117.763 150.186 137.465C147.559 141.938 143.659 146.226 142.58 151.544C142.169 154.474 142.357 157.457 143.133 160.312C144.567 167.061 146.366 173.727 148.52 180.282C149.252 183.371 150.252 186.39 151.509 189.305C152.933 191.734 155.482 193.286 158.293 193.435C193.279 199.342 228.604 203.026 264.056 204.463C264.236 204.463 265.177 204.241 265.329 203.697C279.795 155.479 283.483 132.396 286.024 121.503C286.899 117.925 287.448 114.274 287.665 110.597C287.565 108.188 287.147 105.803 286.423 103.504ZM265.536 44.1708C273.643 46.7438 279.965 51.8758 282.882 58.2485C287.338 67.9862 283.483 79.1371 280.17 88.2355C279.164 86.7583 278.055 85.3542 276.85 84.0337C276.15 82.7484 274.877 81.876 273.426 81.6869C271.508 81.3007 269.531 81.0512 267.586 80.834C269.793 75.2548 271.628 68.2645 268.637 61.6333C262.839 49.1015 244.38 50.3207 233.5 58.7441C227.125 63.6929 222.482 70.9417 218.736 76.9805C213.862 76.8189 208.988 76.7249 204.116 76.6985C214.775 51.4485 240.883 36.7208 265.536 44.1708ZM265.715 80.6346C249.854 78.9144 239.319 77.74 220.731 77.0559C223.943 71.6019 227.838 66.5802 232.322 62.1127C241.262 53.4039 259.673 50.5542 266.08 60.7946C270.163 67.2355 267.971 75.0394 265.719 80.6364L265.715 80.6346ZM147.586 144.976C153.14 136.698 159.044 126.107 167.984 111.954C171.608 106.323 184.761 86.4202 184.761 86.4202C186.204 83.7149 188.245 81.374 190.728 79.5752C193.527 77.9843 197.027 78.3182 200.045 78.3021C208.259 78.2483 216.285 78.2016 231.219 79.0724C243.575 79.7907 258.12 80.8105 272.327 83.0516C273.618 83.2509 274.921 83.5471 275.431 84.7286C275.8 85.9675 275.748 87.2937 275.283 88.4996C274.744 90.4658 274.015 92.4356 273.316 94.3408C269.709 104.148 257.502 145.658 250.803 164.37C249.554 163.973 248.259 163.739 246.951 163.674C242.033 163.22 206.19 157.56 144.318 152.165C144.965 149.592 146.072 147.156 147.586 144.976ZM160.179 192.162C152.772 191.111 153.323 189.877 150.303 180.174C148.281 173.677 146.352 167.312 145.022 160.86C144.359 158.605 144.073 156.256 144.174 153.907C163.343 155.568 183.915 157.615 203.048 159.833C212.626 160.964 248.703 165.759 249.734 165.956C250.816 166.205 251.722 166.94 252.189 167.947C257.267 179.049 260.923 190.747 263.068 202.765C228.581 201.391 194.214 197.85 160.171 192.162H160.179ZM284.647 119.713C278.971 147.438 272.909 172.523 264.415 200.737C262.411 190.064 259.219 179.649 254.898 169.685C254.424 168.065 253.568 166.582 252.402 165.36C260.923 141.453 266.378 119.666 274.699 95.4899C275.943 92.8155 276.826 89.9868 277.322 87.0792C278.846 88.9405 280.093 91.0126 281.023 93.231C283.312 98.4286 284.951 103.889 285.902 109.489C285.959 112.938 285.536 116.379 284.647 119.713Z" style="fill: rgb(70, 70, 70);"/>
  <path d="M238.143 114.362C237.176 112.231 235.516 110.49 233.433 109.422C225.085 104.337 216.518 103.856 206.763 104.454C202.89 104.643 199.135 105.852 195.879 107.959C193.24 109.692 192.469 113.216 194.141 115.894C196.17 119.251 200.015 120.503 203.773 121.496C211.838 123.727 220.286 124.211 228.553 122.916C233.529 122.2 239.28 119.422 238.143 114.362ZM222.521 121.864C218.04 122.136 213.541 121.848 209.131 121.006C207.018 120.589 204.919 119.998 202.836 119.39C199.437 118.404 195.402 116.549 195.023 113.013C194.913 111.965 195.274 110.921 196.009 110.164C200.061 105.689 210.412 105.721 216.436 106.073C221.146 106.232 225.768 107.395 229.993 109.485C232.34 110.401 234.414 111.901 236.019 113.843C239.637 119.063 228.853 121.494 222.516 121.864H222.521Z" style="fill: rgb(70, 70, 70);"/>
  <path d="M133.831 176.344C139.65 177.438 145.321 179.211 150.727 181.626C153.901 176.875 156.011 173.546 159.184 168.949C156.377 167.678 134.636 158.315 131.668 159.226C130.933 159.538 106.15 200.999 91.7489 219.344C67.1074 207.886 35.0301 229.652 37.0036 257.066C41.7022 255.297 46.4983 253.798 51.3687 252.577C57.2781 250.941 60.6413 252.637 64.2972 258.533C68.9498 256.546 74.5503 258.323 75.1483 265.878C75.2381 273.32 67.4827 277.984 62.3022 275.667C59.5418 278.806 56.0938 281.264 52.227 282.85C66.4125 292.252 84.683 290.178 97.7857 281.167C116.281 268.144 117.563 241.446 101.657 226.005C108.132 213.713 115.843 205.11 123.672 193.736L134.183 196.789C136.182 194.221 138.861 189.816 140.879 187.249C136.843 185.855 133.833 184.772 128.825 183.323C130.272 181.709 133.409 176.48 133.831 176.344Z" style="fill: rgb(241, 241, 241);"/>
  <path d="M159.125 167.888C154.375 165.854 140.488 159.878 133.551 158.233C131.607 157.612 130.479 158.623 129.626 160.451C124.325 168.493 103.866 202.318 91.379 218.25C66.0192 207.166 33.899 229.541 36.1704 257.395C36.7355 257.162 37.3023 256.936 37.8709 256.718C36.3429 230.538 66.7051 208.904 91.3144 220.148C91.6598 220.347 92.0956 220.286 92.3738 220.001C106.532 201.89 121.614 176.105 132.165 160.052C133.632 159.948 139.561 162.124 142.256 163.094C147.464 164.972 152.748 167.258 157.864 169.425C156.148 171.926 151.22 179.413 150.414 180.635C145.268 178.386 139.893 176.701 134.384 175.607C134.127 175.344 133.721 175.296 133.409 175.491C132.542 176.343 131.807 177.32 131.228 178.389C128.73 182.433 127.967 182.533 127.996 183.262C128.013 183.641 128.267 183.968 128.629 184.079C132.287 185.137 135.95 186.383 139.495 187.59C137.552 190.246 135.859 193.07 133.874 195.704L123.998 192.889C123.628 192.803 123.244 192.966 123.049 193.293C115.697 204.022 107.146 213.996 101.023 225.562C100.835 225.903 100.896 226.327 101.172 226.602C117.771 243.064 114.905 271.995 93.171 283.022C81.5641 289.28 66.416 290.408 54.0065 282.952C53.5718 283.283 53.0332 283.671 52.4371 284.03C63.1875 290.785 76.4428 291.363 88.5617 286.874C116.324 276.596 121.21 244.077 102.848 225.738C108.806 214.664 116.985 204.909 124.155 194.645L133.968 197.541C134.337 197.633 134.724 197.483 134.934 197.166C137.291 194.093 139.252 190.678 141.626 187.611C141.957 187.13 141.706 186.466 141.14 186.324C137.672 185.13 134.002 183.882 130.317 182.765C131.425 181.301 134.151 177.164 134.151 177.164C139.727 178.2 145.155 179.917 150.312 182.278C150.72 182.48 151.214 182.345 151.463 181.964C151.77 181.485 157.613 172.555 159.926 169.278C160.222 168.802 160.067 168.292 159.125 167.888Z" style="fill: rgb(70, 70, 70);"/>
  <path d="M70.212 257.42C68.1471 256.558 65.796 256.723 63.8717 257.866C64.1733 258.328 64.463 258.796 64.7407 259.27C66.2408 258.496 68.0021 258.409 69.5711 259.031C72.5541 260.495 74.3986 263.575 74.281 266.896C73.5951 273.166 67.2672 276.718 62.9578 274.935C62.5483 275.401 62.1359 275.849 61.7206 276.282C63.5888 277.214 65.7432 277.396 67.7413 276.79H67.7772C72.2862 275.505 75.5521 271.596 76.0138 266.93C76.1866 262.877 73.895 259.121 70.212 257.42Z" style="fill: rgb(70, 70, 70);"/>
  <path d="M78.0267 251.64C77.9016 251.319 77.6677 251.053 77.3659 250.888C75.3024 249.549 72.7196 249.29 70.4312 250.191L75.1645 247.806C76.5847 247.088 76.2814 246.179 74.985 245.806C70.3605 244.614 65.4586 246.125 62.3077 249.713C61.9791 248.485 63.026 247.379 63.8125 246.375C64.5989 245.372 65.0227 243.682 63.9238 243.055C62.8248 242.428 61.8319 243.384 61.1154 244.229C58.9788 246.491 57.2941 249.139 56.1522 252.033C60.6556 252.333 63.719 257.305 65.7715 261.098C68.0787 260.205 70.4939 259.622 72.954 259.363C73.9264 259.47 74.9103 259.389 75.8521 259.124C76.75 258.776 77.4682 257.675 77.0086 256.831C76.7695 256.472 76.4408 256.181 76.0551 255.987C70.9429 253.34 69.9176 255.448 76.6045 253.199C77.33 252.96 78.2475 252.392 78.0267 251.64Z" fill="white"/>
  <path d="M104.379 336.645C104.067 334.198 104.356 335.568 95.6598 304.437C99.4306 299.183 99.4593 292.728 97.8146 286.402C97.3513 284.976 96.8575 283.559 96.3332 282.15C95.8394 282.448 95.3042 282.753 94.7531 283.047C95.2258 284.331 95.6723 285.619 96.0925 286.912C98.6477 296.748 96.2919 304.02 87.7034 309.379C73.3994 318.299 53.7927 320.082 28.9502 313.938C25.9083 313.191 22.8916 312.176 21.4282 309.842C18.7492 305.505 22.9024 299.546 22.0424 293.415C38.9895 293.715 56.6208 285.617 66.4681 271.902C67.4625 270.684 68.1596 269.251 68.5044 267.716C68.6346 265.596 68.1714 263.482 67.1667 261.611C68.991 260.907 70.9021 260.453 72.8481 260.261C73.9634 260.382 75.0915 260.282 76.1681 259.966C77.6701 259.476 78.411 257.788 77.7556 256.35C77.4371 255.864 76.9976 255.47 76.4807 255.206C76.0587 254.989 75.6385 254.766 75.2058 254.576C75.7672 254.417 76.3239 254.244 76.8757 254.059C79.4524 253.22 79.4309 250.992 77.8561 250.141C76.9615 249.559 75.9646 249.152 74.9184 248.941C75.9115 248.44 77.0445 247.934 76.9995 246.733C76.969 245.91 76.3244 245.26 75.2039 244.937C71.696 244.021 67.9668 244.555 64.8574 246.42C65.7103 244.967 65.8128 243.098 64.3601 242.272C62.4908 241.213 60.9376 243.046 60.4222 243.651C58.408 245.839 56.7611 248.339 55.5453 251.053C54.0587 251.036 52.5777 251.237 51.1495 251.651C40.7589 254.387 30.9355 258.943 22.1358 265.109C21.5739 265.512 21.6588 266.372 22.2888 266.657C22.5812 266.79 22.9219 266.756 23.1827 266.569C31.8113 260.524 41.444 256.057 51.6326 253.376C58.5495 251.457 61.329 254.736 65.0335 261.557C66.2253 263.281 66.8223 265.346 66.7339 267.44C66.4297 268.672 65.8517 269.82 65.0425 270.798C53.062 287.484 29.2124 295.61 9.5573 289.702C3.10196 287.82 1.10716 280.544 1.99586 274.177C4.58348 255.52 19.1927 235.684 25.3751 231.082C29.2869 228.36 33.5679 226.212 38.0881 224.704L34.8758 224.003C31.0136 225.449 27.3655 227.412 24.032 229.839C16.4221 235.644 2.71596 255.933 0.216373 273.933C-0.778251 281.067 1.57044 289.244 9.04731 291.426C12.6691 292.504 16.4065 293.146 20.1804 293.34C20.9434 300.086 16.7687 305.683 19.9109 310.783C20.4278 311.599 21.0872 312.315 21.8574 312.898L8.96292 335.275C8.22824 336.384 7.71148 337.622 7.44025 338.924C7.27563 339.595 7.89936 340.193 8.56302 340C8.89138 339.904 9.13691 339.631 9.19647 339.294C9.58959 337.423 9.04193 338.728 23.3657 313.868C25.004 314.674 26.7347 315.277 28.5192 315.663C48.8385 320.691 70.7543 322.047 88.6532 310.885C90.7516 309.598 92.6485 308.009 94.2825 306.168C102.402 335.227 102.289 334.422 102.6 336.873C102.688 337.559 103.485 337.892 104.035 337.474C104.29 337.279 104.422 336.963 104.381 336.645H104.379ZM66.2311 260.02C63.9973 255.993 61.3542 252.286 57.3732 251.284C58.542 248.932 60.031 246.753 61.7976 244.809C62.8984 243.511 63.288 243.732 63.4766 243.836C63.9829 244.123 63.5108 245.3 63.1013 245.822L62.8411 246.152C61.7791 247.111 61.255 248.53 61.4385 249.948C61.6188 250.616 62.4538 250.838 62.9414 250.348C62.9544 250.335 62.9671 250.321 62.9793 250.308C65.892 246.965 70.4445 245.558 74.7352 246.673C75.0943 246.774 75.8503 247.083 74.7587 247.645C73.1478 248.131 71.5678 248.715 70.0271 249.392C69.4056 249.694 69.3445 250.556 69.917 250.943C70.1663 251.111 70.4834 251.144 70.7616 251.029C72.8029 250.232 75.1042 250.475 76.9349 251.679C77.4143 251.943 76.635 252.247 76.31 252.351C74.809 252.855 73.2773 253.262 71.7239 253.568C71.0458 253.702 70.7663 254.519 71.2209 255.04C71.3492 255.187 71.5221 255.288 71.7131 255.328C73.0867 255.639 74.4117 256.134 75.6527 256.799C76.635 257.307 76.1304 258.056 75.6008 258.264C74.7328 258.504 73.8267 258.573 72.9325 258.469C70.6352 258.658 68.3778 259.181 66.2311 260.02Z" style="fill: rgb(70, 70, 70);"/>
  <path d="M118.806 203.774C122.823 202.065 127.445 202.612 130.953 205.21C131.226 201.987 130.754 198.744 129.576 195.731C128.714 193.293 126.882 190.631 124.293 190.797C123.316 190.777 122.948 191.761 123.65 192.815L124.815 195.422C124.153 194.247 123.227 193.241 122.109 192.485C121.009 191.788 118.588 190.797 117.78 192.319C116.746 194.259 118.874 197.139 120.396 198.642C119.234 197.662 117.785 197.085 116.267 196.997C115.838 196.912 115.396 197.051 115.092 197.365C114.782 197.787 115.092 198.392 115.272 198.85C115.552 199.328 117.322 201.842 118.806 203.774Z" fill="white"/>
  <path d="M130.423 195.426C129.432 192.623 127.295 189.694 124.318 189.892C123.316 189.831 122.454 190.592 122.39 191.594C117.811 188.924 115.194 192.133 117.439 196.236C117.109 196.169 116.775 196.127 116.439 196.11C115.67 195.966 114.883 196.239 114.368 196.828C113.966 197.511 113.971 198.359 114.381 199.037C115.532 200.861 116.774 202.626 118.102 204.325C118.34 204.636 118.753 204.757 119.121 204.623C122.859 203.031 127.158 203.528 130.434 205.93C130.985 206.348 131.781 206.012 131.867 205.327C131.868 205.316 131.87 205.305 131.87 205.295C132.139 201.938 131.644 198.564 130.423 195.426ZM130.143 203.598C126.776 201.71 122.752 201.387 119.127 202.713C117.742 200.879 116.283 198.8 116.101 198.511C115.783 197.859 115.798 197.823 116.207 197.886C117.534 197.965 118.801 198.469 119.82 199.322C120.359 199.755 121.164 199.443 121.27 198.76C121.313 198.482 121.223 198.199 121.027 197.997C119.314 196.308 117.92 193.957 118.572 192.734C119.06 191.836 122.298 192.783 124.033 195.859C124.37 196.462 125.234 196.474 125.587 195.88C125.738 195.628 125.755 195.318 125.634 195.051L124.397 192.312C123.99 191.7 124.146 191.594 124.916 191.712C128.552 192.265 130.19 199.931 130.143 203.598Z" style="fill: rgb(70, 70, 70);"/>
  <path d="M206.736 180.24C202.437 180.091 198.154 179.633 193.92 178.868C193.245 178.722 192.981 177.899 193.446 177.387C193.645 177.168 193.939 177.061 194.233 177.101C198.377 177.829 202.566 178.278 206.77 178.446C207.461 178.459 207.879 179.216 207.522 179.808C207.356 180.083 207.057 180.248 206.736 180.242V180.24Z" style="fill: rgb(70, 70, 70);"/>
  <path d="M64.1806 187.895C64.1729 192.288 68.9236 195.042 72.7317 192.852C74.5053 191.832 75.5972 189.941 75.5936 187.895C75.6012 183.502 70.8507 180.748 67.0423 182.938C65.2689 183.958 64.1769 185.849 64.1806 187.895Z" fill="#FF5470"/>
  <path d="M64.9652 191.743C64.8345 191.743 64.7053 191.715 64.5863 191.66C61.6158 190.277 58.7422 188.693 55.9853 186.922C55.1563 186.466 54.621 185.615 54.5686 184.67C54.417 183.582 54.3605 182.482 54.3998 181.384C54.4039 180.883 54.8278 180.488 55.3281 180.519C55.8233 180.536 56.2107 180.951 56.1935 181.447C56.1591 182.456 56.2119 183.466 56.3515 184.465C56.346 184.867 56.5774 185.234 56.9424 185.403C59.6346 187.134 62.4417 188.68 65.3441 190.03C65.9717 190.319 66.0505 191.18 65.486 191.579C65.3337 191.686 65.1517 191.743 64.9652 191.743Z" style="fill: rgb(70, 70, 70);"/>
</svg>
