<svg height="100%" width="100%" xmlns="http://www.w3.org/2000/svg" viewBox="0 0 25 25">
<path d="M3.375 8.375C3.375 9.46902 3.8096 10.5182 4.58318 11.2918C5.35677 12.0654 6.40598 12.5 7.5 12.5C8.59402 12.5 9.64323 12.0654 10.4168 11.2918C11.1904 10.5182 11.625 9.46902 11.625 8.375C11.625 7.28098 11.1904 6.23177 10.4168 5.45818C9.64323 4.6846 8.59402 4.25 7.5 4.25C6.40598 4.25 5.35677 4.6846 4.58318 5.45818C3.8096 6.23177 3.375 7.28098 3.375 8.375L3.375 8.375Z" fill="none" opacity="1" stroke="currentColor" stroke-linecap="round" stroke-linejoin="round" stroke-width="1.5"/>
<path d="M0.75 20.75C0.75 18.9598 1.46116 17.2429 2.72703 15.977C3.9929 14.7112 5.70979 14 7.5 14C9.29021 14 11.0071 14.7112 12.273 15.977C13.5388 17.2429 14.25 18.9598 14.25 20.75" fill="none" opacity="1" stroke="currentColor" stroke-linecap="round" stroke-linejoin="round" stroke-width="1.5"/>
<path d="M14.2689 4.91605C14.8918 4.51133 15.6123 4.28232 16.3546 4.25318C17.0968 4.22404 17.8331 4.39585 18.4858 4.75049C19.1385 5.10512 19.6833 5.62941 20.0627 6.268C20.4421 6.90659 20.642 7.63578 20.6414 8.37858C20.6408 9.12138 20.4395 9.85022 20.059 10.4882C19.6785 11.1261 19.1328 11.6494 18.4795 12.0029C17.8262 12.3564 17.0896 12.527 16.3474 12.4965C15.6052 12.4661 14.8851 12.2358 14.2629 11.83" fill="none" opacity="1" stroke="currentColor" stroke-linecap="round" stroke-linejoin="round" stroke-width="1.5"/>
<path d="M15.5589 14.167C16.6004 13.943 17.6814 13.9444 18.7223 14.1708C19.7631 14.3973 20.7368 14.8432 21.5715 15.4754C22.4061 16.1076 23.0802 16.9099 23.544 17.823C24.0076 18.736 24.2489 19.7364 24.25 20.75" fill="none" opacity="1" stroke="currentColor" stroke-linecap="round" stroke-linejoin="round" stroke-width="1.5"/>
<path d="M11.6336 8.37306C11.6336 9.66753 12.1479 10.909 13.0632 11.8243C13.9786 12.7396 15.22 13.2539 16.5145 13.2539C17.8089 13.2539 19.0504 12.7396 19.9657 11.8243C20.881 10.909 21.3953 9.66753 21.3953 8.37306C21.3953 7.07858 20.881 5.83713 19.9657 4.92179C19.0504 4.00647 17.8089 3.49224 16.5145 3.49224C15.22 3.49224 13.9786 4.00647 13.0632 4.92179C12.1479 5.83713 11.6336 7.07858 11.6336 8.37306L11.6336 8.37306Z" fill="currentColor" opacity="1"/>
<path d="M8.71938 20.4794C8.73959 19.6992 8.95232 18.7268 9.20938 18.0957C9.61619 17.0971 10.148 16.3526 10.9141 15.5734C11.6804 14.7943 12.6823 14.1756 13.6644 13.7619C14.6466 13.3482 15.7604 13.1745 16.8441 13.1745C17.9277 13.1745 19.0868 13.369 20.0689 13.7827C21.051 14.1964 21.8823 14.6896 22.6714 15.4455C23.4611 16.202 24.0433 17.0693 24.4501 18.068C24.7393 18.7778 24.9471 19.6666 24.9625 20.535C24.9681 20.8505 24.9656 21.484 24.2334 21.484C23.5012 21.484 16.8441 21.484 16.8441 21.484C16.8441 21.484 9.9896 21.4836 9.42694 21.4836C8.86429 21.4836 8.7012 21.1811 8.71938 20.4794Z" fill="currentColor" opacity="1"/>
</svg>
