<svg width="18" height="18" viewBox="0 0 18 18" fill="none" xmlns="http://www.w3.org/2000/svg">
<path fill-rule="evenodd" clip-rule="evenodd" d="M5.3244 2.27891C4.73715 2.32262 4.17654 2.50712 3.6756 2.82151C3.03379 3.22432 2.52578 3.83185 2.245 4.53238C2.07087 4.96684 1.98747 5.40146 1.98727 5.87554C1.98713 6.22757 2.02937 6.54484 2.1176 6.85438C2.31035 7.53061 2.68355 8.12513 3.204 8.58503C3.61614 8.94924 4.08829 9.20693 4.6224 9.35918C5.063 9.48477 5.56345 9.52159 6.0444 9.46382C6.93593 9.35672 7.756 8.91234 8.35535 8.21158C8.53953 7.99622 8.69995 7.75039 8.83458 7.47718C9.04918 7.04166 9.16276 6.62441 9.19811 6.14158C9.28074 5.01321 8.83155 3.91537 7.98158 3.16838C7.24837 2.52399 6.29943 2.20634 5.3244 2.27891ZM12.1244 2.27851C11.5394 2.32657 11.0119 2.49817 10.512 2.80299C10.3429 2.90611 10.2763 2.98057 10.234 3.11398C10.1788 3.28797 10.2215 3.4706 10.3488 3.60551C10.4662 3.72996 10.6516 3.78408 10.8199 3.74302C10.8718 3.73034 10.9308 3.70146 11.0376 3.63637C11.2953 3.47938 11.5945 3.36267 11.8872 3.30498C12.0843 3.26615 12.168 3.25837 12.3912 3.25816C12.5998 3.25798 12.6716 3.26326 12.8412 3.2913C13.6603 3.42675 14.3751 3.95531 14.7484 4.70156C14.9034 5.01145 14.9895 5.31744 15.0198 5.66611C15.0307 5.79071 15.0243 6.10112 15.0086 6.21317C14.9252 6.80795 14.6749 7.31818 14.2632 7.73296C13.6148 8.38621 12.6779 8.64834 11.772 8.42992C11.5132 8.36753 11.2746 8.26664 11.0088 8.10723C10.8864 8.0338 10.8447 8.01691 10.7571 8.00525C10.5899 7.98299 10.4159 8.0538 10.315 8.18517C10.2372 8.28651 10.2061 8.37377 10.2069 8.48878C10.2083 8.69162 10.2926 8.82393 10.5012 8.95078C11.0117 9.26123 11.5105 9.4261 12.0996 9.47904C12.2338 9.4911 12.5354 9.4928 12.6692 9.48225C13.4362 9.42173 14.1291 9.14017 14.724 8.64731C14.8369 8.55381 15.0656 8.32542 15.1604 8.21158C15.5266 7.77204 15.7713 7.29492 15.9044 6.7615C15.9852 6.43752 16.0094 6.23165 16.0088 5.87158C16.0085 5.6113 16.0026 5.52891 15.9695 5.31353C15.8823 4.74796 15.6458 4.18847 15.2951 3.71878C14.9488 3.25488 14.4902 2.87666 13.9718 2.62757C13.5788 2.43871 13.1804 2.32797 12.7296 2.28228C12.6049 2.26964 12.2586 2.26749 12.1244 2.27851ZM5.4144 3.25871C4.97588 3.29691 4.60467 3.4135 4.24978 3.62452C3.96061 3.79645 3.67875 4.05389 3.47258 4.33438C3.05619 4.90086 2.88683 5.63616 3.01043 6.34089C3.08351 6.75758 3.26761 7.16886 3.53034 7.50238C3.67684 7.68834 3.8841 7.88587 4.07837 8.02467C4.2243 8.12893 4.45807 8.25582 4.626 8.3219C4.90143 8.43028 5.17331 8.48845 5.4703 8.50253C6.13973 8.53427 6.77588 8.31922 7.29 7.88739C7.38709 7.80584 7.56549 7.62401 7.64172 7.52892C7.92282 7.17825 8.11353 6.75615 8.18559 6.32518C8.21437 6.15306 8.21881 6.0917 8.21839 5.87158C8.21804 5.68892 8.2155 5.63791 8.20195 5.54118C8.16166 5.25349 8.08639 4.9994 7.9671 4.74838C7.61653 4.01067 6.92595 3.46988 6.1272 3.30753C5.94898 3.27131 5.84788 3.26109 5.6412 3.25841C5.53428 3.25703 5.43222 3.25716 5.4144 3.25871ZM5.3244 9.64795C4.22319 9.70637 3.20767 10.0619 2.32127 10.6993C2.08726 10.8676 1.86705 11.0563 1.64122 11.282C1.0904 11.8327 0.690645 12.4368 0.3997 13.158C0.150206 13.7765 0.0180355 14.4225 0.00272832 15.0984C-0.00227568 15.3195 0.00310991 15.3603 0.0497947 15.4548C0.15935 15.6764 0.409449 15.7823 0.645948 15.7071C0.760075 15.6708 0.870732 15.5765 0.927561 15.467C0.97385 15.3778 0.97907 15.3482 0.986292 15.1344C0.993376 14.9246 1.00114 14.8219 1.02304 14.6484C1.12655 13.8282 1.45834 13.0379 1.97211 12.3876C2.13358 12.1832 2.3817 11.9228 2.574 11.756C3.26546 11.156 4.11634 10.7763 5.022 10.6636C5.22725 10.6381 5.34869 10.6313 5.598 10.6314C5.91424 10.6315 6.12795 10.6494 6.40921 10.6994C7.53327 10.8992 8.54016 11.5106 9.24904 12.4236C9.70183 13.0068 10.0152 13.7181 10.1405 14.4468C10.1789 14.67 10.1925 14.8084 10.2057 15.1092C10.2168 15.3611 10.2201 15.3807 10.2659 15.4692C10.3056 15.546 10.4036 15.6413 10.4832 15.6805C10.6783 15.7767 10.9137 15.7333 11.0612 15.574C11.1369 15.4922 11.1755 15.4088 11.1902 15.295C11.1992 15.2251 11.1889 14.9228 11.1707 14.724C11.0171 13.042 10.1093 11.5208 8.69664 10.5783C7.89003 10.0402 6.97662 9.72866 5.9904 9.65541C5.84752 9.64479 5.46467 9.64051 5.3244 9.64795ZM12.096 9.64864C11.8109 9.66433 11.4795 9.7099 11.2032 9.77139C11.0699 9.80106 11.0019 9.83468 10.9289 9.90699C10.8702 9.96516 10.8271 10.0323 10.7994 10.1088C10.7846 10.1494 10.7824 10.1688 10.7822 10.2564C10.782 10.3677 10.7924 10.4135 10.8381 10.5012C10.8658 10.5542 10.96 10.6499 11.0179 10.6839C11.1459 10.759 11.2523 10.7688 11.4581 10.7244C11.6169 10.6902 11.8168 10.6606 12.0276 10.6401C12.1528 10.6279 12.6447 10.628 12.7692 10.6401C13.688 10.7302 14.4679 11.0256 15.1613 11.5464C15.7613 11.9969 16.2099 12.5376 16.5378 13.2053C16.6484 13.4304 16.7051 13.5678 16.7798 13.7916C16.927 14.2327 16.9962 14.6286 17.0135 15.1284C17.0208 15.3407 17.0265 15.3767 17.0648 15.454C17.145 15.6156 17.3001 15.7191 17.478 15.7298C17.6783 15.7419 17.8608 15.6356 17.9502 15.4548C17.9968 15.3605 18.0023 15.3192 17.9972 15.102C17.9725 14.0407 17.6541 13.0339 17.0605 12.1392C16.7092 11.6098 16.2946 11.1691 15.7824 10.7807C15.1601 10.3087 14.4723 9.98229 13.716 9.79977C13.1859 9.67184 12.625 9.61952 12.096 9.64864Z" fill="currentColor"/>
</svg>
