<svg width="24" height="23" viewBox="0 0 24 23" fill="none" xmlns="http://www.w3.org/2000/svg">
  <mask id="path-1-inside-1_13254_13348" fill="white">
    <path fill-rule="evenodd" clip-rule="evenodd"
          d="M4 0.136597C1.79086 0.136597 0 1.92746 0 4.1366V18.8734C0 21.0826 1.79086 22.8734 4 22.8734H20.2105L24 11.505L20.2105 0.136597H4Z"/>
  </mask>
  <path fill-rule="evenodd" clip-rule="evenodd"
        d="M4 0.136597C1.79086 0.136597 0 1.92746 0 4.1366V18.8734C0 21.0826 1.79086 22.8734 4 22.8734H20.2105L24 11.505L20.2105 0.136597H4Z"
        fill="#212B3D"/>
  <path
    d="M20.2105 22.8734V24.8734H21.652L22.1079 23.5059L20.2105 22.8734ZM24 11.505L25.8974 12.1375L26.1082 11.505L25.8974 10.8726L24 11.505ZM20.2105 0.136597L22.1079 -0.495859L21.652 -1.8634H20.2105V0.136597ZM2 4.1366C2 3.03203 2.89543 2.1366 4 2.1366V-1.8634C0.686288 -1.8634 -2 0.822896 -2 4.1366H2ZM2 18.8734V4.1366H-2V18.8734H2ZM4 20.8734C2.89543 20.8734 2 19.978 2 18.8734H-2C-2 22.1871 0.686296 24.8734 4 24.8734V20.8734ZM20.2105 20.8734H4V24.8734H20.2105V20.8734ZM22.1026 10.8726L18.3132 22.241L22.1079 23.5059L25.8974 12.1375L22.1026 10.8726ZM18.3132 0.769052L22.1026 12.1375L25.8974 10.8726L22.1079 -0.495859L18.3132 0.769052ZM4 2.1366H20.2105V-1.8634H4V2.1366Z"
    fill="#212B3D" mask="url(#path-1-inside-1_13254_13348)"/>
</svg>
