<svg width="18" height="18" fill="none" xmlns="http://www.w3.org/2000/svg">
  <path
    d="M0 3C0 1.34315 1.34315 0 3 0H15C16.6569 0 18 1.34315 18 3V15C18 16.6569 16.6569 18 15 18H3C1.34315 18 0 16.6569 0 15V3Z"
    fill="#4F96FF"/>
  <path
    d="M12.75 5.24951L7.71933 12.4358C7.65296 12.5312 7.56487 12.6095 7.46233 12.6641C7.35978 12.7188 7.24572 12.7483 7.12953 12.7502C7.01335 12.7521 6.89837 12.7264 6.79408 12.6752C6.68978 12.6239 6.59916 12.5486 6.52967 12.4555L5.25 10.7495"
    stroke="white" stroke-width="1.5" stroke-linecap="round" stroke-linejoin="round"/>
</svg>
