<svg xmlns="http://www.w3.org/2000/svg" viewBox="0 0 24 24">
  
<g transform="matrix(1,0,0,1,0,0)"><g>
    <path d="M2.43,11H1a1,1,0,0,0,0,2H2.43a1,1,0,0,0,0-2Z" style="fill: #000000"></path>
    <path d="M2.43,16H1a1,1,0,0,0,0,2H2.43a1,1,0,0,0,0-2Z" style="fill: #000000"></path>
    <path d="M2.43,6.5H1a1,1,0,0,0,0,2H2.43a1,1,0,0,0,0-2Z" style="fill: #000000"></path>
    <path d="M23,11H21.57a1,1,0,0,0,0,2H23a1,1,0,0,0,0-2Z" style="fill: #000000"></path>
    <path d="M21.57,8.5H23a1,1,0,0,0,0-2H21.57a1,1,0,0,0,0,2Z" style="fill: #000000"></path>
    <path d="M23,16H21.57a1,1,0,0,0,0,2H23a1,1,0,0,0,0-2Z" style="fill: #000000"></path>
    <path d="M12,3.44a1,1,0,0,0,1-1V1a1,1,0,0,0-2,0V2.44A1,1,0,0,0,12,3.44Z" style="fill: #000000"></path>
    <path d="M7.5,3.44a1,1,0,0,0,1-1V1a1,1,0,0,0-2,0V2.44A1,1,0,0,0,7.5,3.44Z" style="fill: #000000"></path>
    <path d="M16.5,3.44a1,1,0,0,0,1-1V1a1,1,0,0,0-2,0V2.44A1,1,0,0,0,16.5,3.44Z" style="fill: #000000"></path>
    <path d="M12,20.57a1,1,0,0,0-1,1V23a1,1,0,0,0,2,0V21.57A1,1,0,0,0,12,20.57Z" style="fill: #000000"></path>
    <path d="M16.5,20.57a1,1,0,0,0-1,1V23a1,1,0,0,0,2,0V21.57A1,1,0,0,0,16.5,20.57Z" style="fill: #000000"></path>
    <path d="M7.5,20.57a1,1,0,0,0-1,1V23a1,1,0,0,0,2,0V21.57A1,1,0,0,0,7.5,20.57Z" style="fill: #000000"></path>
    <path d="M18.07,4.5H5.93A1.43,1.43,0,0,0,4.5,5.93V18.07A1.43,1.43,0,0,0,5.93,19.5H18.07a1.43,1.43,0,0,0,1.43-1.43V5.93A1.43,1.43,0,0,0,18.07,4.5Zm-1.57,11a1,1,0,0,1-1,1H13a1,1,0,0,1,0-2h2.5A1,1,0,0,1,16.5,15.5Z" style="fill: #000000"></path>
  </g></g></svg>