<svg width="20" height="20" viewBox="0 0 20 20" fill="none" xmlns="http://www.w3.org/2000/svg">
    <g clip-path="url(#clip0)">
        <path
                d="M8.125 15C8.125 15.4973 8.32254 15.9742 8.67417 16.3258C9.02581 16.6775 9.50272 16.875 10 16.875C10.4973 16.875 10.9742 16.6775 11.3258 16.3258C11.6775 15.9742 11.875 15.4973 11.875 15C11.875 14.5027 11.6775 14.0258 11.3258 13.6742C10.9742 13.3225 10.4973 13.125 10 13.125C9.50272 13.125 9.02581 13.3225 8.67417 13.6742C8.32254 14.0258 8.125 14.5027 8.125 15Z"
                stroke="#B9BEC4" stroke-width="1.5" stroke-linecap="round" stroke-linejoin="round"/>
        <path
                d="M1.875 15C1.875 15.4973 2.07254 15.9742 2.42417 16.3258C2.77581 16.6775 3.25272 16.875 3.75 16.875C4.24728 16.875 4.72419 16.6775 5.07582 16.3258C5.42746 15.9742 5.625 15.4973 5.625 15C5.625 14.5027 5.42746 14.0258 5.07582 13.6742C4.72419 13.3225 4.24728 13.125 3.75 13.125C3.25272 13.125 2.77581 13.3225 2.42417 13.6742C2.07254 14.0258 1.875 14.5027 1.875 15V15Z"
                stroke="#B9BEC4" stroke-width="1.5" stroke-linecap="round" stroke-linejoin="round"/>
        <path
                d="M14.375 15C14.375 15.4973 14.5725 15.9742 14.9242 16.3258C15.2758 16.6775 15.7527 16.875 16.25 16.875C16.7473 16.875 17.2242 16.6775 17.5758 16.3258C17.9275 15.9742 18.125 15.4973 18.125 15C18.125 14.5027 17.9275 14.0258 17.5758 13.6742C17.2242 13.3225 16.7473 13.125 16.25 13.125C15.7527 13.125 15.2758 13.3225 14.9242 13.6742C14.5725 14.0258 14.375 14.5027 14.375 15Z"
                stroke="#B9BEC4" stroke-width="1.5" stroke-linecap="round" stroke-linejoin="round"/>
        <path
                d="M18.9675 19.3748C18.6097 18.9309 18.157 18.5728 17.6427 18.3268C17.1284 18.0808 16.5655 17.9531 15.9954 17.9531C15.4253 17.9531 14.8624 18.0808 14.3481 18.3268C13.8338 18.5728 13.3811 18.9309 13.0233 19.3748C12.6529 18.9326 12.1905 18.5766 11.6683 18.3315C11.1462 18.0864 10.5768 17.9581 10 17.9556"
                stroke="#B9BEC4" stroke-width="1.5" stroke-linecap="round" stroke-linejoin="round"/>
        <path
                d="M1.03247 19.3748C1.39027 18.9309 1.84295 18.5728 2.35725 18.3268C2.87156 18.0808 3.43444 17.9531 4.00455 17.9531C4.57467 17.9531 5.13755 18.0808 5.65186 18.3268C6.16616 18.5728 6.61884 18.9309 6.97664 19.3748C7.34708 18.9326 7.8095 18.5766 8.33166 18.3315C8.85382 18.0864 9.42315 17.9581 9.99997 17.9556"
                stroke="#B9BEC4" stroke-width="1.5" stroke-linecap="round" stroke-linejoin="round"/>
        <path
                d="M11.25 7.5C11.25 7.99728 11.4475 8.47419 11.7992 8.82582C12.1508 9.17746 12.6277 9.375 13.125 9.375C13.6223 9.375 14.0992 9.17746 14.4508 8.82582C14.8025 8.47419 15 7.99728 15 7.5C15 7.00272 14.8025 6.52581 14.4508 6.17417C14.0992 5.82254 13.6223 5.625 13.125 5.625C12.6277 5.625 12.1508 5.82254 11.7992 6.17417C11.4475 6.52581 11.25 7.00272 11.25 7.5V7.5Z"
                stroke="#B9BEC4" stroke-width="1.5" stroke-linecap="round" stroke-linejoin="round"/>
        <path
                d="M5 7.5C5 7.74623 5.0485 7.99005 5.14273 8.21753C5.23695 8.44502 5.37507 8.65172 5.54917 8.82582C5.72328 8.99993 5.92998 9.13805 6.15747 9.23227C6.38495 9.3265 6.62877 9.375 6.875 9.375C7.12123 9.375 7.36505 9.3265 7.59253 9.23227C7.82002 9.13805 8.02672 8.99993 8.20082 8.82582C8.37493 8.65172 8.51305 8.44502 8.60727 8.21753C8.7015 7.99005 8.75 7.74623 8.75 7.5C8.75 7.25377 8.7015 7.00995 8.60727 6.78247C8.51305 6.55498 8.37493 6.34828 8.20082 6.17417C8.02672 6.00007 7.82002 5.86195 7.59253 5.76773C7.36505 5.6735 7.12123 5.625 6.875 5.625C6.62877 5.625 6.38495 5.6735 6.15747 5.76773C5.92998 5.86195 5.72328 6.00007 5.54917 6.17417C5.37507 6.34828 5.23695 6.55498 5.14273 6.78247C5.0485 7.00995 5 7.25377 5 7.5V7.5Z"
                stroke="#B9BEC4" stroke-width="1.5" stroke-linecap="round" stroke-linejoin="round"/>
        <path d="M15.0834 10.9119C14.4284 10.4551 13.6487 10.2107 12.8501 10.2119" stroke="#B9BEC4"
              stroke-width="1.5" stroke-linecap="round" stroke-linejoin="round"/>
        <path d="M12.8534 10.2119C12.1188 10.2105 11.3992 10.4199 10.78 10.8153" stroke="#B9BEC4"
              stroke-width="1.5" stroke-linecap="round" stroke-linejoin="round"/>
        <path
                d="M8.88241 10.815C8.27095 10.4302 7.5632 10.2261 6.84074 10.2261C6.11828 10.2261 5.41053 10.4302 4.79907 10.815"
                stroke="#B9BEC4" stroke-width="1.5" stroke-linecap="round" stroke-linejoin="round"/>
        <path
                d="M1.84833 11.875H1.44C1.33374 11.8758 1.22837 11.8556 1.1299 11.8157C1.03143 11.7757 0.941798 11.7167 0.866118 11.6422C0.790438 11.5676 0.730192 11.4788 0.688821 11.3809C0.64745 11.283 0.625763 11.1779 0.625 11.0717V1.42835C0.625763 1.32209 0.64745 1.21702 0.688821 1.11914C0.730192 1.02126 0.790438 0.932486 0.866118 0.85789C0.941798 0.783293 1.03143 0.724333 1.1299 0.684377C1.22837 0.644422 1.33374 0.624252 1.44 0.625021H18.56C18.6663 0.624252 18.7716 0.644422 18.8701 0.684377C18.9686 0.724333 19.0582 0.783293 19.1339 0.85789C19.2096 0.932486 19.2698 1.02126 19.3112 1.11914C19.3525 1.21702 19.3742 1.32209 19.375 1.42835V11.0717C19.3742 11.1779 19.3525 11.283 19.3112 11.3809C19.2698 11.4788 19.2096 11.5676 19.1339 11.6422C19.0582 11.7167 18.9686 11.7757 18.8701 11.8157C18.7716 11.8556 18.6663 11.8758 18.56 11.875H18.1525"
                stroke="#B9BEC4" stroke-width="1.5" stroke-linecap="round" stroke-linejoin="round"/>
    </g>
    <defs>
        <clipPath id="clip0">
            <rect width="20" height="20" fill="white"/>
        </clipPath>
    </defs>
</svg>
