<svg width="12" height="12" fill="none" xmlns="http://www.w3.org/2000/svg">
  <path
    d="M11.4076 3.59235C11.421 3.60575 11.4286 3.62391 11.4286 3.64286C11.4286 3.6618 11.421 3.67997 11.4076 3.69337C11.3943 3.70676 11.3761 3.71429 11.3571 3.71429H10.5C10.2916 3.71429 10.0918 3.79706 9.94442 3.94441C9.79706 4.09177 9.71429 4.29162 9.71429 4.5V10.7143C9.71429 10.9037 9.63903 11.0854 9.50508 11.2194C9.37112 11.3533 9.18944 11.4286 9 11.4286H3C2.81056 11.4286 2.62888 11.3533 2.49492 11.2194C2.36097 11.0854 2.28571 10.9037 2.28571 10.7143V4.5C2.28571 4.29162 2.20293 4.09177 2.05558 3.94442C1.90823 3.79707 1.70838 3.71429 1.5 3.71429H0.642857C0.623912 3.71429 0.605744 3.70676 0.59235 3.69337C0.578954 3.67997 0.571429 3.6618 0.571429 3.64286C0.571429 3.62391 0.578954 3.60575 0.59235 3.59235C0.605745 3.57895 0.623913 3.57143 0.642857 3.57143H3C3.20838 3.57143 3.40823 3.48865 3.55558 3.3413L3.15152 2.93724L3.55558 3.3413C3.70293 3.19395 3.78571 2.9941 3.78571 2.78571C3.78571 2.19845 4.019 1.63524 4.43426 1.21998C4.84952 0.804719 5.41273 0.571429 6 0.571429C6.58727 0.571429 7.15048 0.804719 7.56574 1.21998C7.981 1.63524 8.21429 2.19845 8.21429 2.78571C8.21429 2.9941 8.29707 3.19395 8.44442 3.3413C8.59177 3.48865 8.79162 3.57143 9 3.57143H11.3571C11.3761 3.57143 11.3943 3.57895 11.4076 3.59235ZM4.1587 3.3413L4.56276 2.93724L4.1587 3.3413C4.30605 3.48865 4.5059 3.57143 4.71429 3.57143H7.28571C7.4941 3.57143 7.69395 3.48865 7.8413 3.3413L7.43724 2.93724L7.8413 3.3413C7.98865 3.19395 8.07143 2.9941 8.07143 2.78571C8.07143 2.23634 7.85319 1.70946 7.46472 1.32099C7.07625 0.932525 6.54938 0.714286 6 0.714286C5.45062 0.714286 4.92375 0.932525 4.53528 1.32099C4.14681 1.70946 3.92857 2.23634 3.92857 2.78571C3.92857 2.9941 4.01135 3.19395 4.1587 3.3413ZM3.42709 5.14137L3.81358 5.52786L3.42708 5.14137C3.19936 5.36909 3.07143 5.67795 3.07143 6V9.42857C3.07143 9.75062 3.19936 10.0595 3.42708 10.2872C3.65481 10.5149 3.96367 10.6429 4.28571 10.6429C4.60776 10.6429 4.91662 10.5149 5.14434 10.2872C5.37207 10.0595 5.5 9.75062 5.5 9.42857V6C5.5 5.67795 5.37207 5.36909 5.14434 5.14137C4.91662 4.91365 4.60776 4.78571 4.28571 4.78571C3.96367 4.78571 3.65481 4.91365 3.42709 5.14137ZM8.7872 10.2872C9.01492 10.0595 9.14286 9.75062 9.14286 9.42857V6C9.14286 5.67795 9.01492 5.36909 8.7872 5.14137C8.55948 4.91365 8.25062 4.78571 7.92857 4.78571C7.60652 4.78571 7.29766 4.91365 7.06994 5.14137C6.84222 5.36909 6.71429 5.67795 6.71429 6V9.42857C6.71429 9.75062 6.84222 10.0595 7.06994 10.2872C7.29766 10.5149 7.60652 10.6429 7.92857 10.6429C8.25062 10.6429 8.55948 10.5149 8.7872 10.2872Z"
    fill="#212B3D" stroke="#212B3D" stroke-width="1.14286"/>
</svg>
