<svg width="18" height="19" viewBox="0 0 18 19" fill="none" xmlns="http://www.w3.org/2000/svg">
<g clip-path="url(#clip0_1001_9791)">
<path fill-rule="evenodd" clip-rule="evenodd" d="M1.9292 0.121864C1.6409 0.156928 1.37995 0.261717 1.1444 0.436994C1.05452 0.503875 0.886604 0.672297 0.819615 0.762751C0.658054 0.980918 0.555634 1.22528 0.51301 1.49424C0.500526 1.57305 0.5 1.87956 0.5 9.11115C0.5 16.3427 0.500526 16.6493 0.51301 16.7281C0.555634 16.997 0.658054 17.2414 0.819615 17.4596C0.88808 17.552 1.05555 17.7195 1.148 17.7879C1.36286 17.947 1.5991 18.0471 1.87174 18.0943C1.94426 18.1069 2.2177 18.1075 8.8736 18.1097C13.9648 18.1113 15.8238 18.1098 15.89 18.1038C16.0943 18.0854 16.284 18.0303 16.4732 17.9342C16.9598 17.6873 17.2786 17.2298 17.3533 16.6712C17.3671 16.5679 17.3667 3.84964 17.3529 3.73995C17.328 3.54194 17.2796 3.379 17.1936 3.20355C17.1297 3.0733 17.0633 2.96999 16.9764 2.86595C16.9397 2.82192 16.4743 2.36829 15.7573 1.67755C15.1195 1.06309 14.5798 0.544274 14.558 0.524618C14.3341 0.322773 14.0575 0.190617 13.7336 0.130763L13.6472 0.114794L7.826 0.113735C3.14219 0.112879 1.99003 0.114463 1.9292 0.121864ZM1.994 1.10849C1.74044 1.1606 1.54185 1.36128 1.49298 1.61478C1.47764 1.69438 1.47764 16.5279 1.49298 16.6075C1.5379 16.8406 1.70826 17.0286 1.94 17.1009L2.0048 17.1212H8.9276C15.6301 17.1212 15.8519 17.1207 15.8972 17.1079C16.0039 17.0776 16.0967 17.0256 16.1729 16.9531C16.2765 16.8546 16.3378 16.7446 16.3663 16.6063C16.3805 16.5376 16.3808 3.88394 16.3666 3.80898C16.3401 3.66885 16.2759 3.54948 16.1721 3.44711C15.9066 3.18534 13.8892 1.24867 13.8568 1.22445C13.8022 1.18363 13.7255 1.14604 13.6461 1.12111L13.5824 1.10115L7.8116 1.10001C3.02224 1.09907 2.03284 1.10051 1.994 1.10849ZM6.35 2.95899C5.57209 3.02313 4.84602 3.30888 4.2404 3.78924C3.48609 4.38755 2.97671 5.24847 2.81903 6.19155C2.64188 7.25104 2.90275 8.32639 3.54387 9.17955C3.93 9.69338 4.45991 10.1216 5.0324 10.3823C5.50361 10.5969 5.95932 10.7067 6.48645 10.7324C7.21874 10.7682 7.9558 10.5907 8.5928 10.2251C9.65116 9.6176 10.3624 8.55959 10.5225 7.35435C10.5648 7.036 10.5647 6.65069 10.5222 6.32835C10.4322 5.64534 10.1562 4.9881 9.73147 4.44555C9.13856 3.6881 8.28739 3.17497 7.3436 3.00601C7.04718 2.95295 6.65079 2.93418 6.35 2.95899ZM11.6433 3.52726C11.6222 3.53236 11.5768 3.55045 11.5425 3.56747C11.4923 3.5923 11.4679 3.61062 11.4186 3.66018C11.3183 3.7611 11.2748 3.86576 11.2748 4.00635C11.2748 4.14712 11.3182 4.2514 11.4188 4.35195C11.4893 4.42246 11.5521 4.45948 11.6388 4.48165C11.6931 4.49555 11.7205 4.49595 12.6176 4.49595C13.5165 4.49595 13.542 4.49558 13.5967 4.48157C13.7701 4.43722 13.9169 4.27891 13.9506 4.09995C13.9641 4.02858 13.9604 3.93158 13.9418 3.86955C13.893 3.70631 13.7556 3.57177 13.5961 3.53097C13.5421 3.51715 13.5142 3.51676 12.611 3.51736C11.879 3.51784 11.6735 3.51995 11.6433 3.52726ZM6.1124 3.98261C5.98501 4.00454 5.73984 4.07672 5.5868 4.13735C4.65138 4.50796 3.96903 5.34374 3.79507 6.33195C3.76148 6.52277 3.75477 6.60708 3.75468 6.83955C3.75459 7.07141 3.76225 7.17038 3.79409 7.34871C3.82987 7.54915 3.89641 7.77728 3.97052 7.95364C3.99272 8.00648 3.99885 8.0155 4.00888 8.01003C4.01544 8.00645 4.50356 7.68291 5.0936 7.29104L6.1664 6.57855L6.16822 5.27805L6.17004 3.97755L6.15022 3.97853C6.13932 3.97907 6.1223 3.98091 6.1124 3.98261ZM7.1475 5.46615L7.1456 6.95475L7.12941 6.99723C7.09169 7.09627 7.03406 7.17494 6.95566 7.23448C6.93341 7.25138 6.38131 7.61954 5.72878 8.05261L4.54238 8.84003L4.56598 8.86483C4.57897 8.87848 4.6301 8.92714 4.6796 8.97297C5.14231 9.40145 5.69618 9.65636 6.3356 9.73512C6.48247 9.75321 6.83601 9.75325 6.9836 9.73521C7.2621 9.70115 7.48983 9.64338 7.74603 9.5418C8.41093 9.27818 8.96904 8.75642 9.28106 8.10675C9.42274 7.81175 9.50488 7.53077 9.55155 7.18155C9.56778 7.06003 9.57028 6.65386 9.55553 6.53355C9.50474 6.11918 9.38544 5.74855 9.19332 5.40828C9.13279 5.30105 9.01385 5.12607 8.93047 5.02155C8.83135 4.89731 8.60589 4.67171 8.48325 4.57407C8.19854 4.34739 7.89514 4.18397 7.55177 4.07237C7.4146 4.02779 7.20936 3.97755 7.16437 3.97755H7.1494L7.1475 5.46615ZM12.8264 6.92237C12.7182 6.93863 12.6326 6.98243 12.5526 7.06251C12.4398 7.17524 12.3909 7.31997 12.4124 7.47675C12.4378 7.66237 12.5708 7.82067 12.7531 7.88246C12.7955 7.89681 12.8148 7.89764 13.1579 7.89995C13.5675 7.90272 13.5829 7.90128 13.6868 7.85008C13.7364 7.82563 13.7603 7.80757 13.8131 7.75454C13.8663 7.7012 13.8837 7.67788 13.9079 7.62795C13.9473 7.5463 13.9567 7.50333 13.9567 7.40475C13.9568 7.33292 13.954 7.31355 13.936 7.25855C13.8778 7.08091 13.721 6.94781 13.5405 6.92292C13.4768 6.91414 12.8841 6.91368 12.8264 6.92237ZM10.5188 10.3319C10.4931 10.3375 10.4445 10.3556 10.4108 10.3722C10.3612 10.3966 10.3372 10.4148 10.2845 10.4678C10.2313 10.5211 10.2139 10.5444 10.1897 10.5944C10.1495 10.6776 10.1407 10.7189 10.1414 10.8212C10.1419 10.8957 10.1446 10.9154 10.1617 10.9651C10.2233 11.1443 10.3774 11.2746 10.5571 11.2994C10.636 11.3103 13.4616 11.3103 13.5405 11.2994C13.7202 11.2746 13.8743 11.1443 13.9359 10.9651C13.953 10.9154 13.9557 10.8957 13.9562 10.8212C13.9569 10.7189 13.9481 10.6776 13.9079 10.5944C13.8837 10.5444 13.8663 10.5211 13.8131 10.4678C13.7603 10.4147 13.7364 10.3967 13.6868 10.3722C13.5752 10.3173 13.6947 10.321 12.0452 10.3214C10.8074 10.3218 10.558 10.3235 10.5188 10.3319ZM4.28 13.7347C4.2602 13.7384 4.21338 13.7562 4.17595 13.7743C4.11873 13.802 4.09806 13.8172 4.04609 13.8694C3.94264 13.9734 3.90222 14.0708 3.90222 14.216C3.90222 14.2581 3.907 14.3119 3.91305 14.3375C3.95103 14.4986 4.10891 14.6565 4.27002 14.6945C4.31071 14.7041 4.84662 14.7053 8.92825 14.7054C13.498 14.7056 13.541 14.7054 13.5961 14.6913C13.7556 14.6505 13.893 14.516 13.9418 14.3528C13.9604 14.2907 13.9641 14.1937 13.9506 14.1224C13.9169 13.943 13.7705 13.7852 13.5967 13.7407C13.5408 13.7264 13.5161 13.7264 8.92825 13.7272C6.10529 13.7276 4.30203 13.7306 4.28 13.7347Z" fill="#878D96"/>
</g>
<defs>
<clipPath id="clip0_1001_9791">
<rect width="18" height="18" fill="white" transform="translate(0 0.113525)"/>
</clipPath>
</defs>
</svg>
