<svg width="24" height="24" viewBox="0 0 24 24" fill="none" xmlns="http://www.w3.org/2000/svg">
<path fill-rule="evenodd" clip-rule="evenodd" d="M1.90999 0.013804C1.5256 0.0605559 1.17766 0.200274 0.863594 0.433977C0.743748 0.523151 0.519866 0.747714 0.430548 0.868319C0.215134 1.15921 0.0785737 1.48502 0.0217417 1.84364C0.00509533 1.94871 0.00439453 2.3574 0.00439453 11.9995C0.00439453 21.6416 0.00509533 22.0503 0.0217417 22.1554C0.0785737 22.514 0.215134 22.8398 0.430548 23.1307C0.521834 23.254 0.74513 23.4773 0.868394 23.5686C1.15488 23.7807 1.46986 23.9141 1.83338 23.9771C1.93007 23.9938 2.29467 23.9946 11.1692 23.9975C17.9574 23.9997 20.4362 23.9977 20.5244 23.9897C20.7967 23.9652 21.0497 23.8917 21.302 23.7636C21.9508 23.4344 22.3758 22.8244 22.4754 22.0795C22.4938 21.9419 22.4933 4.98417 22.4749 4.83792C22.4417 4.5739 22.3772 4.35665 22.2625 4.12272C22.1774 3.94905 22.0887 3.8113 21.9729 3.67258C21.9239 3.61388 21.3034 3.00903 20.3474 2.08805C19.497 1.26877 18.7774 0.577017 18.7483 0.550809C18.4498 0.281682 18.081 0.105474 17.6492 0.0256696L17.534 0.00437676L9.77239 0.00296556C3.52732 0.00182316 1.9911 0.00393516 1.90999 0.013804ZM1.99639 1.32931C1.65831 1.39879 1.39352 1.66636 1.32837 2.00436C1.30792 2.11049 1.30792 21.8885 1.32837 21.9947C1.38826 22.3054 1.61541 22.5561 1.92439 22.6526L2.01079 22.6795H11.2412C20.1779 22.6795 20.4736 22.6789 20.534 22.6618C20.6763 22.6215 20.8 22.5521 20.9015 22.4555C21.0397 22.3241 21.1215 22.1775 21.1595 21.9931C21.1784 21.9014 21.1787 5.02991 21.1598 4.92996C21.1245 4.74312 21.039 4.58396 20.9005 4.44747C20.5465 4.09844 17.8566 1.51621 17.8135 1.48392C17.7407 1.4295 17.6385 1.37937 17.5325 1.34613L17.4476 1.31952L9.75319 1.318C3.36738 1.31674 2.04819 1.31866 1.99639 1.32931ZM7.80439 3.79664C6.76718 3.88215 5.79909 4.26316 4.99159 4.90364C3.98585 5.70138 3.30667 6.84928 3.09643 8.10672C2.86024 9.51938 3.20806 10.9532 4.06289 12.0907C4.57773 12.7758 5.28427 13.3467 6.04759 13.6944C6.67588 13.9806 7.28349 14.1269 7.98632 14.1612C8.96271 14.2089 9.94546 13.9722 10.7948 13.4847C12.2059 12.6748 13.1542 11.2641 13.3678 9.65712C13.4242 9.23265 13.424 8.71891 13.3674 8.28912C13.2473 7.37844 12.8793 6.50212 12.313 5.77872C11.5225 4.76879 10.3876 4.08461 9.12919 3.85933C8.73397 3.78858 8.20545 3.76356 7.80439 3.79664ZM14.8621 4.55433C14.834 4.56113 14.7735 4.58526 14.7277 4.60795C14.6608 4.64105 14.6282 4.66547 14.5625 4.73156C14.4288 4.86611 14.3708 5.00566 14.3708 5.19312C14.3708 5.38082 14.4287 5.51985 14.5628 5.65392C14.6568 5.74793 14.7405 5.79729 14.8561 5.82685C14.9286 5.84539 14.9651 5.84592 16.1612 5.84592C17.3597 5.84592 17.3937 5.84542 17.4667 5.82675C17.6979 5.76761 17.8937 5.55653 17.9386 5.31792C17.9565 5.22275 17.9516 5.09342 17.9268 5.01072C17.8617 4.79307 17.6786 4.61368 17.4659 4.55928C17.3938 4.54086 17.3566 4.54034 16.1525 4.54113C15.1763 4.54178 14.9023 4.54458 14.8621 4.55433ZM7.48759 5.16147C7.31774 5.1907 6.99084 5.28694 6.78679 5.36778C5.53956 5.86193 4.62977 6.9763 4.39782 8.29392C4.35304 8.54835 4.34409 8.66076 4.34397 8.97072C4.34384 9.27987 4.35406 9.41183 4.39651 9.64959C4.44422 9.91686 4.53294 10.221 4.63176 10.4562C4.66135 10.5266 4.66953 10.5386 4.6829 10.5314C4.69164 10.5266 5.34247 10.0952 6.12919 9.57271L7.55959 8.62272L7.56202 6.88872L7.56444 5.15472L7.53802 5.15602C7.52349 5.15674 7.50079 5.15919 7.48759 5.16147ZM8.86773 7.13952L8.86519 9.12432L8.84361 9.18096C8.79331 9.31301 8.71648 9.41791 8.61195 9.49729C8.58227 9.51982 7.84614 10.0107 6.97611 10.5881L5.39423 11.638L5.42571 11.6711C5.44302 11.6893 5.51119 11.7542 5.57719 11.8153C6.19415 12.3866 6.93264 12.7265 7.78519 12.8315C7.98102 12.8556 8.45241 12.8557 8.64919 12.8316C9.02052 12.7862 9.32417 12.7092 9.66577 12.5737C10.5523 12.2222 11.2964 11.5265 11.7125 10.6603C11.9014 10.267 12.0109 9.89235 12.0731 9.42672C12.0948 9.26469 12.0981 8.72313 12.0784 8.56272C12.0107 8.01022 11.8516 7.51605 11.5955 7.06235C11.5148 6.91939 11.3562 6.68607 11.245 6.54672C11.1129 6.38106 10.8122 6.08026 10.6487 5.95008C10.2691 5.64783 9.86458 5.42995 9.40675 5.28114C9.22386 5.2217 8.9502 5.15472 8.89022 5.15472H8.87026L8.86773 7.13952ZM16.4396 9.08114C16.2954 9.10282 16.1812 9.16123 16.0745 9.268C15.9242 9.4183 15.8589 9.61128 15.8875 9.82032C15.9215 10.0678 16.0988 10.2789 16.3419 10.3613C16.3984 10.3804 16.4241 10.3815 16.8815 10.3846C17.4278 10.3883 17.4482 10.3864 17.5868 10.3181C17.653 10.2855 17.6848 10.2614 17.7552 10.1907C17.8261 10.1196 17.8494 10.0885 17.8815 10.0219C17.9342 9.91305 17.9467 9.85576 17.9467 9.72432C17.9468 9.62854 17.9431 9.60272 17.9191 9.52938C17.8415 9.29253 17.6324 9.11506 17.3917 9.08188C17.3069 9.07017 16.5165 9.06956 16.4396 9.08114ZM13.3628 13.6272C13.3285 13.6346 13.2637 13.6588 13.2188 13.6809C13.1527 13.7135 13.1207 13.7377 13.0503 13.8083C12.9795 13.8795 12.9562 13.9106 12.9241 13.9771C12.8704 14.0881 12.8587 14.1432 12.8595 14.2795C12.8602 14.3789 12.8639 14.4052 12.8867 14.4714C12.9687 14.7103 13.1743 14.8841 13.4139 14.9172C13.519 14.9317 17.2866 14.9317 17.3917 14.9172C17.6313 14.8841 17.8368 14.7103 17.9189 14.4714C17.9417 14.4052 17.9454 14.3789 17.946 14.2795C17.9469 14.1432 17.9352 14.0881 17.8815 13.9771C17.8494 13.9106 17.8261 13.8795 17.7552 13.8083C17.6848 13.7376 17.653 13.7135 17.5868 13.681C17.4379 13.6077 17.5973 13.6126 15.398 13.6132C13.7476 13.6137 13.415 13.616 13.3628 13.6272ZM5.04439 18.1642C5.01799 18.1692 4.95557 18.193 4.90566 18.2171C4.82937 18.254 4.80181 18.2742 4.73251 18.3439C4.59458 18.4825 4.54068 18.6123 4.54068 18.8059C4.54068 18.8621 4.54707 18.9338 4.55513 18.968C4.60577 19.1828 4.81628 19.3933 5.03109 19.444C5.08534 19.4568 5.79989 19.4584 11.2421 19.4586C17.3351 19.4587 17.3924 19.4585 17.4659 19.4398C17.6786 19.3854 17.8617 19.206 17.9268 18.9883C17.9516 18.9056 17.9565 18.7763 17.9386 18.6811C17.8936 18.442 17.6984 18.2316 17.4667 18.1723C17.3921 18.1532 17.3591 18.1531 11.2421 18.1542C7.47812 18.1548 5.07377 18.1587 5.04439 18.1642Z" fill="currentColor"/>
</svg>
