<svg width="203" height="55" viewBox="0 0 203 55" fill="none" xmlns="http://www.w3.org/2000/svg">
<path d="M8.868 3.306V1.864C8.868 1.71 8.728 1.598 8.574 1.598H1.63C1.476 1.598 1.35 1.71 1.35 1.864V3.306C1.35 3.46 1.476 3.572 1.63 3.572H3.912V11.72C3.912 11.874 4.038 12 4.192 12H6.026C6.18 12 6.306 11.874 6.306 11.72V3.572H8.574C8.728 3.572 8.868 3.46 8.868 3.306ZM18.4428 11.72V1.864C18.4428 1.71 18.3168 1.598 18.1628 1.598H16.3288C16.1748 1.598 16.0488 1.71 16.0488 1.864V5.588H12.5908V1.864C12.5908 1.71 12.4648 1.598 12.3108 1.598H10.4768C10.3228 1.598 10.1968 1.71 10.1968 1.864V11.72C10.1968 11.874 10.3228 12 10.4768 12H12.3108C12.4648 12 12.5908 11.874 12.5908 11.72V7.674H16.0488V11.72C16.0488 11.874 16.1748 12 16.3288 12H18.1628C18.3168 12 18.4428 11.874 18.4428 11.72ZM28.446 7.632V5.966C28.446 2.718 26.612 1.472 24.302 1.472C21.992 1.472 20.158 2.718 20.158 5.966V7.632C20.158 10.88 21.992 12.126 24.302 12.126C26.612 12.126 28.446 10.88 28.446 7.632ZM26.038 7.632C26.038 9.312 25.478 10.026 24.302 10.026C23.126 10.026 22.58 9.312 22.58 7.632V5.966C22.58 4.286 23.126 3.572 24.302 3.572C25.478 3.572 26.038 4.286 26.038 5.966V7.632ZM39.6354 11.804V2.088C39.6354 1.794 39.4254 1.598 39.1314 1.598H37.8154C37.5214 1.598 37.3254 1.738 37.1994 1.976L35.0574 5.966C35.0014 6.078 34.9594 6.148 34.9034 6.148C34.8474 6.148 34.8054 6.078 34.7494 5.966L32.6074 1.976C32.4814 1.738 32.2854 1.598 31.9914 1.598H30.6754C30.3814 1.598 30.1714 1.78 30.1714 2.074V11.804C30.1714 11.958 30.2974 12 30.4094 12H32.2574C32.3834 12 32.4814 11.874 32.4814 11.72V5.882C32.4814 5.784 32.5234 5.77 32.5514 5.77C32.5934 5.77 32.6214 5.798 32.6634 5.868L33.9234 8.178C34.0214 8.346 34.1614 8.416 34.3434 8.416H35.4634C35.6454 8.416 35.7854 8.346 35.8834 8.178L37.1434 5.868C37.1854 5.798 37.2134 5.77 37.2554 5.77C37.2834 5.77 37.3254 5.784 37.3254 5.882V11.72C37.3254 11.874 37.4234 12 37.5494 12H39.3974C39.5094 12 39.6354 11.958 39.6354 11.804ZM48.2651 9.06C48.2651 7.926 47.8311 7.002 46.3751 6.218L44.5831 5.252C43.8271 4.846 43.6451 4.664 43.6451 4.272C43.6451 3.768 43.9391 3.53 44.7371 3.53C45.6891 3.53 47.3131 3.656 47.7051 3.684C47.7191 3.684 47.7331 3.684 47.7331 3.684C47.9151 3.684 47.9711 3.572 47.9711 3.446V2.032C47.9711 1.878 47.8731 1.808 47.7611 1.78C47.2291 1.64 45.8151 1.472 44.7931 1.472C42.0771 1.472 41.2091 2.662 41.2091 4.202C41.2091 5.224 41.5591 6.106 42.8611 6.876L44.7931 8.024C45.5211 8.458 45.7171 8.682 45.7171 9.088C45.7171 9.76 45.4371 10.068 44.4711 10.068C43.9251 10.068 42.3851 9.956 41.8111 9.9C41.7971 9.9 41.7831 9.9 41.7691 9.9C41.6291 9.9 41.5171 9.97 41.5171 10.166V11.538C41.5171 11.692 41.6571 11.776 41.7971 11.818C42.5111 12 43.3371 12.126 44.4431 12.126C47.2851 12.126 48.2651 10.544 48.2651 9.06ZM57.8816 7.632V5.966C57.8816 2.718 56.0476 1.472 53.7376 1.472C51.4276 1.472 49.5936 2.718 49.5936 5.966V7.632C49.5936 10.88 51.4276 12.126 53.7376 12.126C56.0476 12.126 57.8816 10.88 57.8816 7.632ZM55.4736 7.632C55.4736 9.312 54.9136 10.026 53.7376 10.026C52.5616 10.026 52.0156 9.312 52.0156 7.632V5.966C52.0156 4.286 52.5616 3.572 53.7376 3.572C54.9136 3.572 55.4736 4.286 55.4736 5.966V7.632ZM67.853 11.468V1.864C67.853 1.71 67.727 1.598 67.573 1.598H65.921C65.767 1.598 65.641 1.71 65.641 1.864V7.786C65.641 7.884 65.599 7.912 65.571 7.912C65.529 7.912 65.515 7.884 65.459 7.8L62.141 2.032C61.973 1.738 61.833 1.598 61.553 1.598H60.139C59.845 1.598 59.607 1.836 59.607 2.13V11.72C59.607 11.874 59.733 12 59.887 12H61.539C61.693 12 61.819 11.874 61.819 11.72V6.05C61.819 5.966 61.847 5.938 61.889 5.938C61.931 5.938 61.959 5.966 62.015 6.05L65.207 11.566C65.431 11.944 65.641 12 65.935 12H67.307C67.601 12 67.853 11.762 67.853 11.468ZM81.4789 11.832C81.4789 11.79 81.4649 11.734 81.4369 11.678L79.3229 7.73C80.3449 7.324 81.1289 6.414 81.1289 4.93V4.748C81.1289 2.27 79.2949 1.472 76.9149 1.472C75.9069 1.472 74.7169 1.556 74.0729 1.654C73.6389 1.724 73.4429 1.85 73.4429 2.326V11.72C73.4429 11.874 73.5689 12 73.7229 12H75.5429C75.6969 12 75.8229 11.874 75.8229 11.72V8.164C76.0889 8.164 76.5229 8.192 76.8169 8.192L76.9709 8.178L78.8469 11.72C78.9169 11.86 78.9729 12 79.1269 12H81.2689C81.4229 12 81.4789 11.93 81.4789 11.832ZM78.7489 4.93C78.7489 5.882 78.2869 6.26 76.8169 6.26C76.6629 6.26 75.9769 6.246 75.8229 6.232V3.544C75.9909 3.53 76.7189 3.502 76.9149 3.502C78.0909 3.502 78.7489 3.894 78.7489 4.748V4.93ZM88.9864 11.65V10.348C88.9864 10.194 88.8604 10.068 88.7064 10.068H85.8644C85.2064 10.068 84.9684 9.844 84.9684 9.116V7.632H88.5944C88.7484 7.632 88.8744 7.506 88.8744 7.352V6.022C88.8744 5.868 88.7484 5.742 88.5944 5.742H84.9684V4.468C84.9684 3.74 85.2064 3.516 85.8644 3.516H88.7064C88.8604 3.516 88.9864 3.39 88.9864 3.236V1.934C88.9864 1.752 88.9024 1.682 88.7064 1.654C88.2164 1.584 87.5164 1.472 86.0044 1.472C84.1984 1.472 82.5884 1.92 82.5884 4.468V9.116C82.5884 11.664 84.1844 12.126 85.9904 12.126C87.5024 12.126 88.2164 12.014 88.7064 11.944C88.9024 11.916 88.9864 11.832 88.9864 11.65ZM98.7875 8.094V1.864C98.7875 1.71 98.6475 1.598 98.4935 1.598H96.6735C96.5195 1.598 96.3935 1.71 96.3935 1.864V8.094C96.3935 9.522 96.0015 10.124 94.7415 10.124C93.4815 10.124 93.1035 9.522 93.1035 8.094V1.864C93.1035 1.71 92.9775 1.598 92.8235 1.598H90.9895C90.8355 1.598 90.7095 1.71 90.7095 1.864V8.094C90.7095 11.286 92.5155 12.126 94.7415 12.126C96.9675 12.126 98.7875 11.286 98.7875 8.094ZM107.593 3.306V1.864C107.593 1.71 107.453 1.598 107.299 1.598H100.355C100.201 1.598 100.075 1.71 100.075 1.864V3.306C100.075 3.46 100.201 3.572 100.355 3.572H102.637V11.72C102.637 11.874 102.763 12 102.917 12H104.751C104.905 12 105.031 11.874 105.031 11.72V3.572H107.299C107.453 3.572 107.593 3.46 107.593 3.306ZM114.949 11.65V10.348C114.949 10.194 114.823 10.068 114.669 10.068H111.827C111.169 10.068 110.931 9.844 110.931 9.116V7.632H114.557C114.711 7.632 114.837 7.506 114.837 7.352V6.022C114.837 5.868 114.711 5.742 114.557 5.742H110.931V4.468C110.931 3.74 111.169 3.516 111.827 3.516H114.669C114.823 3.516 114.949 3.39 114.949 3.236V1.934C114.949 1.752 114.865 1.682 114.669 1.654C114.179 1.584 113.479 1.472 111.967 1.472C110.161 1.472 108.551 1.92 108.551 4.468V9.116C108.551 11.664 110.147 12.126 111.953 12.126C113.465 12.126 114.179 12.014 114.669 11.944C114.865 11.916 114.949 11.832 114.949 11.65ZM124.75 11.832C124.75 11.79 124.736 11.734 124.708 11.678L122.594 7.73C123.616 7.324 124.4 6.414 124.4 4.93V4.748C124.4 2.27 122.566 1.472 120.186 1.472C119.178 1.472 117.988 1.556 117.344 1.654C116.91 1.724 116.714 1.85 116.714 2.326V11.72C116.714 11.874 116.84 12 116.994 12H118.814C118.968 12 119.094 11.874 119.094 11.72V8.164C119.36 8.164 119.794 8.192 120.088 8.192L120.242 8.178L122.118 11.72C122.188 11.86 122.244 12 122.398 12H124.54C124.694 12 124.75 11.93 124.75 11.832ZM122.02 4.93C122.02 5.882 121.558 6.26 120.088 6.26C119.934 6.26 119.248 6.246 119.094 6.232V3.544C119.262 3.53 119.99 3.502 120.186 3.502C121.362 3.502 122.02 3.894 122.02 4.748V4.93ZM132.785 9.06C132.785 7.926 132.351 7.002 130.895 6.218L129.103 5.252C128.347 4.846 128.165 4.664 128.165 4.272C128.165 3.768 128.459 3.53 129.257 3.53C130.209 3.53 131.833 3.656 132.225 3.684C132.239 3.684 132.253 3.684 132.253 3.684C132.435 3.684 132.491 3.572 132.491 3.446V2.032C132.491 1.878 132.393 1.808 132.281 1.78C131.749 1.64 130.335 1.472 129.313 1.472C126.597 1.472 125.729 2.662 125.729 4.202C125.729 5.224 126.079 6.106 127.381 6.876L129.313 8.024C130.041 8.458 130.237 8.682 130.237 9.088C130.237 9.76 129.957 10.068 128.991 10.068C128.445 10.068 126.905 9.956 126.331 9.9C126.317 9.9 126.303 9.9 126.289 9.9C126.149 9.9 126.037 9.97 126.037 10.166V11.538C126.037 11.692 126.177 11.776 126.317 11.818C127.031 12 127.857 12.126 128.963 12.126C131.805 12.126 132.785 10.544 132.785 9.06Z" fill="#404040"/>
<path d="M2.52 47V23.024H18.504V26.912H7.02V33.536H17.748V37.46H7.02V47H2.52ZM23.6869 44.012C21.7669 41.708 20.8069 38.708 20.8069 35.012C20.8069 31.316 21.7669 28.328 23.6869 26.048C25.6069 23.744 28.4029 22.592 32.0749 22.592C35.7469 22.592 38.5429 23.744 40.4629 26.048C42.3829 28.328 43.3429 31.316 43.3429 35.012C43.3429 38.708 42.3829 41.708 40.4629 44.012C38.5429 46.292 35.7469 47.432 32.0749 47.432C28.4029 47.432 25.6069 46.292 23.6869 44.012ZM32.0749 43.58C34.3309 43.58 36.0229 42.812 37.1509 41.276C38.2789 39.74 38.8429 37.652 38.8429 35.012C38.8429 32.372 38.2789 30.284 37.1509 28.748C36.0229 27.212 34.3309 26.444 32.0749 26.444C29.7949 26.444 28.0909 27.212 26.9629 28.748C25.8589 30.284 25.3069 32.372 25.3069 35.012C25.3069 37.652 25.8589 39.74 26.9629 41.276C28.0909 42.812 29.7949 43.58 32.0749 43.58ZM66.0333 30.512C66.0333 32.144 65.5773 33.596 64.6653 34.868C63.7773 36.14 62.5653 37.04 61.0293 37.568L67.4733 47H61.8213L56.0973 38.036H51.6333V47H47.1333V23.024H58.1133C60.5853 23.024 62.5173 23.708 63.9093 25.076C65.3253 26.42 66.0333 28.232 66.0333 30.512ZM61.5333 30.512C61.5333 29.312 61.1613 28.376 60.4173 27.704C59.6733 27.008 58.6773 26.66 57.4293 26.66H51.6333V34.472H57.4293C58.6773 34.472 59.6733 34.124 60.4173 33.428C61.1613 32.732 61.5333 31.76 61.5333 30.512ZM70.8629 47V23.024H75.3989L83.2109 39.584L91.0229 23.024H95.5229V47H91.1669V31.808L85.4069 43.976H80.9789L75.2189 31.808V47H70.8629ZM98.3396 47L107.124 23.024H112.128L120.912 47H116.34L114.432 41.348H104.82L102.912 47H98.3396ZM109.644 27.056L106.08 37.568H113.172L109.644 27.056ZM125.086 44.12C122.926 41.888 121.846 38.852 121.846 35.012C121.846 31.172 122.926 28.148 125.086 25.94C127.246 23.708 130.138 22.592 133.762 22.592C136.45 22.592 138.73 23.036 140.602 23.924L139.918 27.488C138.19 26.816 136.462 26.48 134.734 26.48C132.022 26.48 129.946 27.212 128.506 28.676C127.066 30.116 126.346 32.228 126.346 35.012C126.346 37.796 127.066 39.92 128.506 41.384C129.946 42.824 132.022 43.544 134.734 43.544C136.462 43.544 138.19 43.208 139.918 42.536L140.602 46.1C138.73 46.988 136.45 47.432 133.762 47.432C130.138 47.432 127.246 46.328 125.086 44.12ZM144.415 47V23.024H148.915V47H144.415ZM170.493 16.076L166.065 20.828H161.781L164.553 16.076H170.493ZM155.769 44.012C153.849 41.708 152.889 38.708 152.889 35.012C152.889 31.316 153.849 28.328 155.769 26.048C157.689 23.744 160.485 22.592 164.157 22.592C167.829 22.592 170.625 23.744 172.545 26.048C174.465 28.328 175.425 31.316 175.425 35.012C175.425 38.708 174.465 41.708 172.545 44.012C170.625 46.292 167.829 47.432 164.157 47.432C160.485 47.432 157.689 46.292 155.769 44.012ZM164.157 43.58C166.413 43.58 168.105 42.812 169.233 41.276C170.361 39.74 170.925 37.652 170.925 35.012C170.925 32.372 170.361 30.284 169.233 28.748C168.105 27.212 166.413 26.444 164.157 26.444C161.877 26.444 160.173 27.212 159.045 28.748C157.941 30.284 157.389 32.372 157.389 35.012C157.389 37.652 157.941 39.74 159.045 41.276C160.173 42.812 161.877 43.58 164.157 43.58ZM179.215 47V23.024H183.679L195.235 39.548V23.024H199.627V47H195.163L183.571 30.476V47H179.215Z" fill="#FF5900"/>
<path d="M2.52 47H2.02V47.5H2.52V47ZM2.52 23.024V22.524H2.02V23.024H2.52ZM18.504 23.024H19.004V22.524H18.504V23.024ZM18.504 26.912V27.412H19.004V26.912H18.504ZM7.02 26.912V26.412H6.52V26.912H7.02ZM7.02 33.536H6.52V34.036H7.02V33.536ZM17.748 33.536H18.248V33.036H17.748V33.536ZM17.748 37.46V37.96H18.248V37.46H17.748ZM7.02 37.46V36.96H6.52V37.46H7.02ZM7.02 47V47.5H7.52V47H7.02ZM3.02 47V23.024H2.02V47H3.02ZM2.52 23.524H18.504V22.524H2.52V23.524ZM18.004 23.024V26.912H19.004V23.024H18.004ZM18.504 26.412H7.02V27.412H18.504V26.412ZM6.52 26.912V33.536H7.52V26.912H6.52ZM7.02 34.036H17.748V33.036H7.02V34.036ZM17.248 33.536V37.46H18.248V33.536H17.248ZM17.748 36.96H7.02V37.96H17.748V36.96ZM6.52 37.46V47H7.52V37.46H6.52ZM7.02 46.5H2.52V47.5H7.02V46.5ZM23.6869 44.012L23.3028 44.3321L23.3044 44.3341L23.6869 44.012ZM23.6869 26.048L24.0693 26.3701L24.071 26.3681L23.6869 26.048ZM40.4629 26.048L40.0788 26.3681L40.0804 26.3701L40.4629 26.048ZM40.4629 44.012L40.8453 44.3341L40.847 44.3321L40.4629 44.012ZM37.1509 41.276L36.7479 40.98L36.7479 40.98L37.1509 41.276ZM26.9629 28.748L26.5599 28.452L26.5569 28.4562L26.9629 28.748ZM26.9629 41.276L26.5568 41.5678L26.5599 41.572L26.9629 41.276ZM24.071 43.6919C22.2421 41.4972 21.3069 38.6191 21.3069 35.012H20.3069C20.3069 38.7969 21.2917 41.9188 23.3028 44.3321L24.071 43.6919ZM21.3069 35.012C21.3069 31.4046 22.2421 28.5398 24.0693 26.3701L23.3044 25.7259C21.2916 28.1162 20.3069 31.2274 20.3069 35.012H21.3069ZM24.071 26.3681C25.8749 24.2034 28.5148 23.092 32.0749 23.092V22.092C28.291 22.092 25.3389 23.2846 23.3028 25.7279L24.071 26.3681ZM32.0749 23.092C35.635 23.092 38.2749 24.2034 40.0788 26.3681L40.847 25.7279C38.8109 23.2846 35.8588 22.092 32.0749 22.092V23.092ZM40.0804 26.3701C41.9076 28.5398 42.8429 31.4046 42.8429 35.012H43.8429C43.8429 31.2274 42.8581 28.1162 40.8453 25.7259L40.0804 26.3701ZM42.8429 35.012C42.8429 38.6191 41.9077 41.4972 40.0788 43.6919L40.847 44.3321C42.8581 41.9188 43.8429 38.7969 43.8429 35.012H42.8429ZM40.0804 43.6899C38.2771 45.8314 35.6367 46.932 32.0749 46.932V47.932C35.857 47.932 38.8086 46.7526 40.8453 44.3341L40.0804 43.6899ZM32.0749 46.932C28.513 46.932 25.8726 45.8314 24.0693 43.6899L23.3044 44.3341C25.3411 46.7526 28.2927 47.932 32.0749 47.932V46.932ZM32.0749 44.08C34.4569 44.08 36.3136 43.2608 37.5539 41.572L36.7479 40.98C35.7321 42.3632 34.2049 43.08 32.0749 43.08V44.08ZM37.5539 41.572C38.7651 39.9227 39.3429 37.7184 39.3429 35.012H38.3429C38.3429 37.5856 37.7927 39.5573 36.7479 40.98L37.5539 41.572ZM39.3429 35.012C39.3429 32.3056 38.7651 30.1013 37.5539 28.452L36.7479 29.044C37.7927 30.4667 38.3429 32.4384 38.3429 35.012H39.3429ZM37.5539 28.452C36.3136 26.7632 34.4569 25.944 32.0749 25.944V26.944C34.2049 26.944 35.7321 27.6608 36.7479 29.044L37.5539 28.452ZM32.0749 25.944C29.671 25.944 27.8012 26.7617 26.5599 28.452L27.3659 29.044C28.3806 27.6623 29.9187 26.944 32.0749 26.944V25.944ZM26.5569 28.4562C25.3718 30.1049 24.8069 32.3076 24.8069 35.012H25.8069C25.8069 32.4364 26.3459 30.4631 27.3689 29.0398L26.5569 28.4562ZM24.8069 35.012C24.8069 37.7164 25.3718 39.9191 26.5569 41.5678L27.3689 40.9842C26.3459 39.5609 25.8069 37.5876 25.8069 35.012H24.8069ZM26.5599 41.572C27.8012 43.2623 29.671 44.08 32.0749 44.08V43.08C29.9187 43.08 28.3806 42.3617 27.3659 40.98L26.5599 41.572ZM64.6653 34.868L64.2589 34.5766L64.2553 34.5818L64.6653 34.868ZM61.0293 37.568L60.8667 37.0952L60.2464 37.3084L60.6164 37.8501L61.0293 37.568ZM67.4733 47V47.5H68.4204L67.8861 46.7179L67.4733 47ZM61.8213 47L61.3999 47.2691L61.5473 47.5H61.8213V47ZM56.0973 38.036L56.5187 37.7669L56.3712 37.536H56.0973V38.036ZM51.6333 38.036V37.536H51.1333V38.036H51.6333ZM51.6333 47V47.5H52.1333V47H51.6333ZM47.1333 47H46.6333V47.5H47.1333V47ZM47.1333 23.024V22.524H46.6333V23.024H47.1333ZM63.9093 25.076L63.5588 25.4327L63.5651 25.4387L63.9093 25.076ZM60.4173 27.704L60.0757 28.0692L60.0821 28.0751L60.4173 27.704ZM51.6333 26.66V26.16H51.1333V26.66H51.6333ZM51.6333 34.472H51.1333V34.972H51.6333V34.472ZM60.4173 33.428L60.7589 33.7931L60.7589 33.7931L60.4173 33.428ZM65.5333 30.512C65.5333 32.0442 65.1073 33.3934 64.2589 34.5767L65.0716 35.1593C66.0472 33.7986 66.5333 32.2438 66.5333 30.512H65.5333ZM64.2553 34.5818C63.4309 35.7627 62.3076 36.5999 60.8667 37.0952L61.1918 38.0408C62.823 37.4801 64.1237 36.5173 65.0753 35.1542L64.2553 34.5818ZM60.6164 37.8501L67.0604 47.2821L67.8861 46.7179L61.4421 37.2859L60.6164 37.8501ZM67.4733 46.5H61.8213V47.5H67.4733V46.5ZM62.2427 46.7309L56.5187 37.7669L55.6759 38.3051L61.3999 47.2691L62.2427 46.7309ZM56.0973 37.536H51.6333V38.536H56.0973V37.536ZM51.1333 38.036V47H52.1333V38.036H51.1333ZM51.6333 46.5H47.1333V47.5H51.6333V46.5ZM47.6333 47V23.024H46.6333V47H47.6333ZM47.1333 23.524H58.1133V22.524H47.1333V23.524ZM58.1133 23.524C60.4908 23.524 62.2836 24.1793 63.5588 25.4326L64.2597 24.7194C62.751 23.2367 60.6797 22.524 58.1133 22.524V23.524ZM63.5651 25.4387C64.8648 26.6723 65.5333 28.3441 65.5333 30.512H66.5333C66.5333 28.1199 65.7858 26.1677 64.2535 24.7133L63.5651 25.4387ZM62.0333 30.512C62.0333 29.2009 61.622 28.1183 60.7524 27.3329L60.0821 28.0751C60.7006 28.6337 61.0333 29.4231 61.0333 30.512H62.0333ZM60.7589 27.3389C59.9024 26.5377 58.7741 26.16 57.4293 26.16V27.16C58.5805 27.16 59.4442 27.4783 60.0757 28.0691L60.7589 27.3389ZM57.4293 26.16H51.6333V27.16H57.4293V26.16ZM51.1333 26.66V34.472H52.1333V26.66H51.1333ZM51.6333 34.972H57.4293V33.972H51.6333V34.972ZM57.4293 34.972C58.7741 34.972 59.9024 34.5943 60.7589 33.7931L60.0757 33.0629C59.4442 33.6537 58.5805 33.972 57.4293 33.972V34.972ZM60.7589 33.7931C61.626 32.9819 62.0333 31.8649 62.0333 30.512H61.0333C61.0333 31.6551 60.6966 32.4821 60.0757 33.0629L60.7589 33.7931ZM70.8629 47H70.3629V47.5H70.8629V47ZM70.8629 23.024V22.524H70.3629V23.024H70.8629ZM75.3989 23.024L75.8511 22.8107L75.7159 22.524H75.3989V23.024ZM83.2109 39.584L82.7587 39.7973L83.2109 40.7559L83.6631 39.7973L83.2109 39.584ZM91.0229 23.024V22.524H90.7059L90.5707 22.8107L91.0229 23.024ZM95.5229 23.024H96.0229V22.524H95.5229V23.024ZM95.5229 47V47.5H96.0229V47H95.5229ZM91.1669 47H90.6669V47.5H91.1669V47ZM91.1669 31.808H91.6669L90.715 31.5941L91.1669 31.808ZM85.4069 43.976V44.476H85.7234L85.8588 44.1899L85.4069 43.976ZM80.9789 43.976L80.527 44.1899L80.6624 44.476H80.9789V43.976ZM75.2189 31.808L75.6708 31.5941L74.7189 31.808H75.2189ZM75.2189 47V47.5H75.7189V47H75.2189ZM71.3629 47V23.024H70.3629V47H71.3629ZM70.8629 23.524H75.3989V22.524H70.8629V23.524ZM74.9467 23.2373L82.7587 39.7973L83.6631 39.3707L75.8511 22.8107L74.9467 23.2373ZM83.6631 39.7973L91.4751 23.2373L90.5707 22.8107L82.7587 39.3707L83.6631 39.7973ZM91.0229 23.524H95.5229V22.524H91.0229V23.524ZM95.0229 23.024V47H96.0229V23.024H95.0229ZM95.5229 46.5H91.1669V47.5H95.5229V46.5ZM91.6669 47V31.808H90.6669V47H91.6669ZM90.715 31.5941L84.955 43.7621L85.8588 44.1899L91.6188 32.0219L90.715 31.5941ZM85.4069 43.476H80.9789V44.476H85.4069V43.476ZM81.4308 43.7621L75.6708 31.5941L74.767 32.0219L80.527 44.1899L81.4308 43.7621ZM74.7189 31.808V47H75.7189V31.808H74.7189ZM75.2189 46.5H70.8629V47.5H75.2189V46.5ZM98.3396 47L97.8701 46.828L97.6239 47.5H98.3396V47ZM107.124 23.024V22.524H106.774L106.654 22.852L107.124 23.024ZM112.128 23.024L112.597 22.852L112.477 22.524H112.128V23.024ZM120.912 47V47.5H121.627L121.381 46.828L120.912 47ZM116.34 47L115.866 47.1599L115.981 47.5H116.34V47ZM114.432 41.348L114.905 41.1881L114.791 40.848H114.432V41.348ZM104.82 41.348V40.848H104.461L104.346 41.1881L104.82 41.348ZM102.912 47V47.5H103.271L103.385 47.1599L102.912 47ZM109.644 27.056L110.118 26.8969L109.646 25.4917L109.17 26.8955L109.644 27.056ZM106.08 37.568L105.606 37.4075L105.382 38.068H106.08V37.568ZM113.172 37.568V38.068H113.867L113.646 37.4089L113.172 37.568ZM98.8091 47.172L107.593 23.196L106.654 22.852L97.8701 46.828L98.8091 47.172ZM107.124 23.524H112.128V22.524H107.124V23.524ZM111.658 23.196L120.442 47.172L121.381 46.828L112.597 22.852L111.658 23.196ZM120.912 46.5H116.34V47.5H120.912V46.5ZM116.813 46.8401L114.905 41.1881L113.958 41.5079L115.866 47.1599L116.813 46.8401ZM114.432 40.848H104.82V41.848H114.432V40.848ZM104.346 41.1881L102.438 46.8401L103.385 47.1599L105.293 41.5079L104.346 41.1881ZM102.912 46.5H98.3396V47.5H102.912V46.5ZM109.17 26.8955L105.606 37.4075L106.553 37.7285L110.117 27.2165L109.17 26.8955ZM106.08 38.068H113.172V37.068H106.08V38.068ZM113.646 37.4089L110.118 26.8969L109.17 27.2151L112.698 37.7271L113.646 37.4089ZM125.086 44.12L124.727 44.4677L124.729 44.4696L125.086 44.12ZM125.086 25.94L125.443 26.2897L125.445 26.2877L125.086 25.94ZM140.602 23.924L141.093 24.0182L141.166 23.6381L140.816 23.4722L140.602 23.924ZM139.918 27.488L139.737 27.954L140.296 28.1715L140.409 27.5822L139.918 27.488ZM128.506 28.676L128.86 29.0296L128.862 29.0266L128.506 28.676ZM128.506 41.384L128.149 41.7346L128.152 41.7376L128.506 41.384ZM139.918 42.536L140.409 42.4418L140.296 41.8525L139.737 42.07L139.918 42.536ZM140.602 46.1L140.816 46.5518L141.166 46.3859L141.093 46.0058L140.602 46.1ZM125.445 43.7723C123.396 41.6545 122.346 38.7546 122.346 35.012H121.346C121.346 38.9494 122.456 42.1215 124.727 44.4677L125.445 43.7723ZM122.346 35.012C122.346 31.2692 123.396 28.3827 125.443 26.2896L124.729 25.5904C122.456 27.9133 121.346 31.0748 121.346 35.012H122.346ZM125.445 26.2877C127.495 24.1694 130.249 23.092 133.762 23.092V22.092C130.027 22.092 126.997 23.2466 124.727 25.5923L125.445 26.2877ZM133.762 23.092C136.397 23.092 138.599 23.5275 140.388 24.3757L140.816 23.4722C138.86 22.5445 136.503 22.092 133.762 22.092V23.092ZM140.111 23.8298L139.427 27.3938L140.409 27.5822L141.093 24.0182L140.111 23.8298ZM140.099 27.022C138.318 26.3292 136.528 25.98 134.734 25.98V26.98C136.396 26.98 138.062 27.3028 139.737 27.954L140.099 27.022ZM134.734 25.98C131.933 25.98 129.711 26.7381 128.149 28.3254L128.862 29.0266C130.181 27.6859 132.111 26.98 134.734 26.98V25.98ZM128.152 28.3224C126.588 29.8864 125.846 32.1452 125.846 35.012H126.846C126.846 32.3108 127.543 30.3456 128.859 29.0296L128.152 28.3224ZM125.846 35.012C125.846 37.8794 126.589 40.1478 128.149 41.7346L128.862 41.0334C127.543 39.6922 126.846 37.7126 126.846 35.012H125.846ZM128.152 41.7376C129.714 43.2992 131.935 44.044 134.734 44.044V43.044C132.109 43.044 130.178 42.3488 128.859 41.0304L128.152 41.7376ZM134.734 44.044C136.528 44.044 138.318 43.6948 140.099 43.002L139.737 42.07C138.062 42.7212 136.396 43.044 134.734 43.044V44.044ZM139.427 42.6302L140.111 46.1942L141.093 46.0058L140.409 42.4418L139.427 42.6302ZM140.388 45.6482C138.599 46.4965 136.397 46.932 133.762 46.932V47.932C136.503 47.932 138.86 47.4795 140.816 46.5518L140.388 45.6482ZM133.762 46.932C130.247 46.932 127.493 45.8656 125.443 43.7704L124.729 44.4696C126.999 46.7904 130.029 47.932 133.762 47.932V46.932ZM144.415 47H143.915V47.5H144.415V47ZM144.415 23.024V22.524H143.915V23.024H144.415ZM148.915 23.024H149.415V22.524H148.915V23.024ZM148.915 47V47.5H149.415V47H148.915ZM144.915 47V23.024H143.915V47H144.915ZM144.415 23.524H148.915V22.524H144.415V23.524ZM148.415 23.024V47H149.415V23.024H148.415ZM148.915 46.5H144.415V47.5H148.915V46.5ZM170.493 16.076L170.859 16.4169L171.642 15.576H170.493V16.076ZM166.065 20.828V21.328H166.282L166.431 21.1689L166.065 20.828ZM161.781 20.828L161.349 20.5761L160.91 21.328H161.781V20.828ZM164.553 16.076V15.576H164.266L164.121 15.8241L164.553 16.076ZM155.769 44.012L155.385 44.3321L155.386 44.3341L155.769 44.012ZM155.769 26.048L156.151 26.3701L156.153 26.3681L155.769 26.048ZM172.545 26.048L172.161 26.3681L172.162 26.3701L172.545 26.048ZM172.545 44.012L172.927 44.3341L172.929 44.3321L172.545 44.012ZM169.233 41.276L168.83 40.98L168.83 40.98L169.233 41.276ZM159.045 28.748L158.642 28.452L158.639 28.4562L159.045 28.748ZM159.045 41.276L158.639 41.5678L158.642 41.572L159.045 41.276ZM170.127 15.7351L165.699 20.4871L166.431 21.1689L170.859 16.4169L170.127 15.7351ZM166.065 20.328H161.781V21.328H166.065V20.328ZM162.213 21.0799L164.985 16.3279L164.121 15.8241L161.349 20.5761L162.213 21.0799ZM164.553 16.576H170.493V15.576H164.553V16.576ZM156.153 43.6919C154.324 41.4972 153.389 38.6191 153.389 35.012H152.389C152.389 38.7969 153.374 41.9188 155.385 44.3321L156.153 43.6919ZM153.389 35.012C153.389 31.4046 154.324 28.5398 156.151 26.3701L155.386 25.7259C153.374 28.1162 152.389 31.2274 152.389 35.012H153.389ZM156.153 26.3681C157.957 24.2034 160.597 23.092 164.157 23.092V22.092C160.373 22.092 157.421 23.2846 155.385 25.7279L156.153 26.3681ZM164.157 23.092C167.717 23.092 170.357 24.2034 172.161 26.3681L172.929 25.7279C170.893 23.2846 167.941 22.092 164.157 22.092V23.092ZM172.162 26.3701C173.99 28.5398 174.925 31.4046 174.925 35.012H175.925C175.925 31.2274 174.94 28.1162 172.927 25.7259L172.162 26.3701ZM174.925 35.012C174.925 38.6191 173.99 41.4972 172.161 43.6919L172.929 44.3321C174.94 41.9188 175.925 38.7969 175.925 35.012H174.925ZM172.162 43.6899C170.359 45.8314 167.719 46.932 164.157 46.932V47.932C167.939 47.932 170.891 46.7526 172.927 44.3341L172.162 43.6899ZM164.157 46.932C160.595 46.932 157.955 45.8314 156.151 43.6899L155.386 44.3341C157.423 46.7526 160.375 47.932 164.157 47.932V46.932ZM164.157 44.08C166.539 44.08 168.396 43.2608 169.636 41.572L168.83 40.98C167.814 42.3632 166.287 43.08 164.157 43.08V44.08ZM169.636 41.572C170.847 39.9227 171.425 37.7184 171.425 35.012H170.425C170.425 37.5856 169.875 39.5573 168.83 40.98L169.636 41.572ZM171.425 35.012C171.425 32.3056 170.847 30.1013 169.636 28.452L168.83 29.044C169.875 30.4667 170.425 32.4384 170.425 35.012H171.425ZM169.636 28.452C168.396 26.7632 166.539 25.944 164.157 25.944V26.944C166.287 26.944 167.814 27.6608 168.83 29.044L169.636 28.452ZM164.157 25.944C161.753 25.944 159.883 26.7617 158.642 28.452L159.448 29.044C160.463 27.6623 162.001 26.944 164.157 26.944V25.944ZM158.639 28.4562C157.454 30.1049 156.889 32.3076 156.889 35.012H157.889C157.889 32.4364 158.428 30.4631 159.451 29.0398L158.639 28.4562ZM156.889 35.012C156.889 37.7164 157.454 39.9191 158.639 41.5678L159.451 40.9842C158.428 39.5609 157.889 37.5876 157.889 35.012H156.889ZM158.642 41.572C159.883 43.2623 161.753 44.08 164.157 44.08V43.08C162.001 43.08 160.463 42.3617 159.448 40.98L158.642 41.572ZM179.215 47H178.715V47.5H179.215V47ZM179.215 23.024V22.524H178.715V23.024H179.215ZM183.679 23.024L184.089 22.7374L183.94 22.524H183.679V23.024ZM195.235 39.548L194.826 39.8346L195.735 41.1354V39.548H195.235ZM195.235 23.024V22.524H194.735V23.024H195.235ZM199.627 23.024H200.127V22.524H199.627V23.024ZM199.627 47V47.5H200.127V47H199.627ZM195.163 47L194.754 47.2871L194.903 47.5H195.163V47ZM183.571 30.476L183.981 30.1888L183.071 28.8926V30.476H183.571ZM183.571 47V47.5H184.071V47H183.571ZM179.715 47V23.024H178.715V47H179.715ZM179.215 23.524H183.679V22.524H179.215V23.524ZM183.27 23.3106L194.826 39.8346L195.645 39.2614L184.089 22.7374L183.27 23.3106ZM195.735 39.548V23.024H194.735V39.548H195.735ZM195.235 23.524H199.627V22.524H195.235V23.524ZM199.127 23.024V47H200.127V23.024H199.127ZM199.627 46.5H195.163V47.5H199.627V46.5ZM195.573 46.7129L183.981 30.1888L183.162 30.7631L194.754 47.2871L195.573 46.7129ZM183.071 30.476V47H184.071V30.476H183.071ZM183.571 46.5H179.215V47.5H183.571V46.5Z" fill="#FF5900"/>
</svg>
