<svg width="24" height="18" viewBox="0 0 24 18" fill="none" xmlns="http://www.w3.org/2000/svg">
  <path
    d="M3.375 4.875C3.375 5.96902 3.8096 7.01823 4.58318 7.79182C5.35677 8.5654 6.40598 9 7.5 9C8.59402 9 9.64323 8.5654 10.4168 7.79182C11.1904 7.01823 11.625 5.96902 11.625 4.875C11.625 3.78098 11.1904 2.73177 10.4168 1.95818C9.64323 1.1846 8.59402 0.75 7.5 0.75C6.40598 0.75 5.35677 1.1846 4.58318 1.95818C3.8096 2.73177 3.375 3.78098 3.375 4.875V4.875Z"
    stroke="black" stroke-width="1.5" stroke-linecap="round" stroke-linejoin="round"/>
  <path
    d="M0.75 17.25C0.75 15.4598 1.46116 13.7429 2.72703 12.477C3.9929 11.2112 5.70979 10.5 7.5 10.5C9.29021 10.5 11.0071 11.2112 12.273 12.477C13.5388 13.7429 14.25 15.4598 14.25 17.25"
    stroke="black" stroke-width="1.5" stroke-linecap="round" stroke-linejoin="round"/>
  <path
    d="M14.251 1.41605C14.8739 1.01133 15.5944 0.782317 16.3367 0.753176C17.0789 0.724036 17.8152 0.895853 18.4679 1.25049C19.1206 1.60512 19.6654 2.12941 20.0448 2.768C20.4242 3.40659 20.6241 4.13578 20.6235 4.87858C20.6229 5.62138 20.4216 6.35022 20.0411 6.98815C19.6606 7.62608 19.1149 8.14942 18.4616 8.50293C17.8083 8.85643 17.0717 9.02697 16.3295 8.99654C15.5873 8.96611 14.8672 8.73584 14.245 8.33005"
    stroke="black" stroke-width="1.5" stroke-linecap="round" stroke-linejoin="round"/>
  <path
    d="M15 10.667C15.9886 10.443 17.0148 10.4444 18.0028 10.6708C18.9908 10.8973 19.9151 11.3432 20.7074 11.9754C21.4997 12.6076 22.1396 13.4099 22.5798 14.323C23.0199 15.236 23.249 16.2364 23.25 17.25"
    stroke="black" stroke-width="1.5" stroke-linecap="round" stroke-linejoin="round"/>
</svg>
