<svg width="17" height="16" viewBox="0 0 17 16" fill="none" xmlns="http://www.w3.org/2000/svg">
  <path d="M14.3721 0H2.37207C1.84256 0.00300012 1.3356 0.214677 0.961172 0.589102C0.586747 0.963526 0.37507 1.47049 0.37207 2L0.37207 14C0.37507 14.5295 0.586747 15.0365 0.961172 15.4109C1.3356 15.7853 1.84256 15.997 2.37207 16H14.3721C14.9016 15.997 15.4085 15.7853 15.783 15.4109C16.1574 15.0365 16.3691 14.5295 16.3721 14V2C16.3691 1.47049 16.1574 0.963526 15.783 0.589102C15.4085 0.214677 14.9016 0.00300012 14.3721 0V0ZM3.9835 4.43429C3.9641 4.4685 3.93785 4.49834 3.90638 4.52194C3.87492 4.54554 3.83892 4.56239 3.80064 4.57143H2.37207C2.29629 4.57143 2.22362 4.54133 2.17004 4.48774C2.11646 4.43416 2.08636 4.36149 2.08636 4.28571V2C2.08636 1.92422 2.11646 1.85155 2.17004 1.79797C2.22362 1.74439 2.29629 1.71429 2.37207 1.71429H5.17207C5.22206 1.71366 5.2712 1.72731 5.3137 1.75362C5.35621 1.77994 5.39034 1.81783 5.41207 1.86286C5.43962 1.90541 5.45428 1.95502 5.45428 2.00571C5.45428 2.05641 5.43962 2.10602 5.41207 2.14857L3.9835 4.43429ZM7.61779 1.85143C7.64292 1.81013 7.67812 1.77589 7.7201 1.7519C7.76207 1.72792 7.80945 1.71497 7.85779 1.71429H10.3149C10.3649 1.71366 10.4141 1.72731 10.4566 1.75362C10.4991 1.77994 10.5332 1.81783 10.5549 1.86286C10.5825 1.90541 10.5971 1.95502 10.5971 2.00571C10.5971 2.05641 10.5825 2.10602 10.5549 2.14857L9.12636 4.43429C9.10122 4.47558 9.06602 4.50983 9.02405 4.53381C8.98207 4.5578 8.9347 4.57074 8.88636 4.57143H6.42921C6.37922 4.57205 6.33009 4.55841 6.28758 4.53209C6.24507 4.50577 6.21095 4.46788 6.18921 4.42286C6.16166 4.3803 6.147 4.33069 6.147 4.28C6.147 4.22931 6.16166 4.1797 6.18921 4.13714L7.61779 1.85143ZM10.8064 10.9943L7.37779 12.9943C7.24748 13.0695 7.09967 13.1091 6.94921 13.1091C6.79875 13.1091 6.65094 13.0695 6.52064 12.9943C6.39264 12.9244 6.28519 12.8223 6.20899 12.6979C6.13279 12.5736 6.09051 12.4315 6.08636 12.2857V8.28571C6.08442 8.13412 6.12382 7.98486 6.20034 7.85398C6.27685 7.72309 6.38759 7.61553 6.52064 7.54286C6.65167 7.4698 6.7992 7.43144 6.94921 7.43144C7.09923 7.43144 7.24676 7.4698 7.37779 7.54286L10.8064 9.54286C10.9341 9.62025 11.0397 9.72928 11.113 9.8594C11.1863 9.98953 11.2248 10.1364 11.2248 10.2857C11.2248 10.4351 11.1863 10.5819 11.113 10.712C11.0397 10.8422 10.9341 10.9512 10.8064 11.0286V10.9943ZM14.6578 4.25143C14.6578 4.3272 14.6277 4.39988 14.5741 4.45346C14.5205 4.50704 14.4478 4.53714 14.3721 4.53714H11.5721C11.5221 4.53777 11.4729 4.52412 11.4304 4.4978C11.3879 4.47149 11.3538 4.4336 11.3321 4.38857C11.3045 4.34602 11.2899 4.29641 11.2899 4.24571C11.2899 4.19502 11.3045 4.14541 11.3321 4.10286L12.7606 1.81714C12.7858 1.77585 12.821 1.7416 12.863 1.71762C12.9049 1.69363 12.9523 1.68069 13.0006 1.68H14.3721C14.4478 1.68 14.5205 1.7101 14.5741 1.76368C14.6277 1.81727 14.6578 1.88994 14.6578 1.96571V4.25143Z" fill="currentColor"/>
</svg>
