<svg width="12" height="12" viewBox="0 0 12 12" fill="none" xmlns="http://www.w3.org/2000/svg">
  <path fill-rule="evenodd" clip-rule="evenodd"
        d="M7.25838 0.325952C7.40716 0.233413 7.57477 0.175463 7.74887 0.156386C7.92302 0.137288 8.09922 0.157547 8.26447 0.215663C8.42977 0.273786 8.57993 0.36829 8.7037 0.492122L11.5083 3.29675C11.6322 3.42064 11.7267 3.57078 11.7849 3.73632C11.8429 3.90163 11.863 4.07787 11.8438 4.25202C11.8246 4.42605 11.7667 4.59358 11.6741 4.74241C11.5814 4.8911 11.4566 5.01712 11.3089 5.11108L8.4335 6.94095L8.44054 6.98111C8.56452 7.82602 8.41901 8.69063 8.02165 9.45142L7.93265 9.61281C7.84211 9.76708 7.71744 9.89851 7.56806 9.99715C7.41863 10.0958 7.24868 10.1588 7.07141 10.1813C6.89391 10.2039 6.71353 10.1855 6.54446 10.1276C6.37512 10.0696 6.22137 9.97354 6.09546 9.84724L4.44199 8.19376L0.9181 11.7176C0.742364 11.8934 0.45744 11.8934 0.281704 11.7176C0.121944 11.5579 0.107421 11.3079 0.238133 11.1317L0.281704 11.0812L3.8056 7.55736L2.15376 5.90551C2.02704 5.77921 1.93098 5.62547 1.87296 5.45617C1.81497 5.28691 1.79656 5.10659 1.81916 4.92912C1.84177 4.75164 1.90478 4.58168 2.00332 4.43242C2.10188 4.28307 2.23339 4.15833 2.38929 4.06687C3.18647 3.6035 4.11421 3.42705 5.01941 3.55992L5.0591 3.56655L6.88943 0.691044C6.96471 0.572805 7.06046 0.469307 7.17192 0.385264L7.25838 0.325952ZM7.96591 1.0647C7.92778 1.05129 7.88715 1.04662 7.84694 1.05103C7.80678 1.05543 7.76811 1.0688 7.73373 1.09018C7.6994 1.11153 7.67032 1.1403 7.64868 1.17429L5.6543 4.30869C5.5511 4.47089 5.35626 4.54961 5.16935 4.50463C4.37854 4.31432 3.54479 4.43622 2.84315 4.84405C2.80754 4.86494 2.77721 4.89371 2.75445 4.9282C2.73171 4.96264 2.71717 5.00187 2.71195 5.04283C2.70674 5.08376 2.71099 5.12539 2.72436 5.16443C2.73775 5.2035 2.75992 5.23897 2.78963 5.26859L6.73235 9.21134C6.76151 9.24059 6.7969 9.2627 6.83605 9.2761C6.8751 9.28948 6.91672 9.29373 6.95787 9.28848C6.99864 9.28331 7.03776 9.2688 7.07223 9.24605C7.10674 9.22327 7.13553 9.19292 7.1555 9.15889C7.56425 8.45573 7.68613 7.622 7.49583 6.83112C7.45086 6.64423 7.52957 6.44941 7.69174 6.3462L10.8257 4.35174C10.8599 4.33002 10.8888 4.3009 10.91 4.26679C10.9314 4.2324 10.9448 4.19362 10.9493 4.15334C10.9537 4.1132 10.949 4.07253 10.9357 4.03458C10.9223 3.99632 10.9005 3.96169 10.8719 3.93316L8.06723 1.12844C8.03872 1.09992 8.00409 1.07812 7.96591 1.0647Z"
        fill="white"/>
</svg>
