<svg width="24" height="24" viewBox="0 0 24 24" fill="none" xmlns="http://www.w3.org/2000/svg">
    <path d="M6.07543 12.8462C6.54261 12.8462 6.92133 12.4673 6.92133 12C6.92133 11.5327 6.54261 11.1538 6.07543 11.1538C5.60825 11.1538 5.22952 11.5327 5.22952 12C5.22952 12.4673 5.60825 12.8462 6.07543 12.8462Z" stroke="currentColor" stroke-width="1.71429" stroke-linecap="round" stroke-linejoin="round"/>
    <path d="M11.5738 12.8462C12.041 12.8462 12.4197 12.4673 12.4197 12C12.4197 11.5327 12.041 11.1538 11.5738 11.1538C11.1066 11.1538 10.7279 11.5327 10.7279 12C10.7279 12.4673 11.1066 12.8462 11.5738 12.8462Z" stroke="currentColor" stroke-width="1.71429" stroke-linecap="round" stroke-linejoin="round"/>
    <path d="M17.0722 12.8462C17.5394 12.8462 17.9181 12.4673 17.9181 12C17.9181 11.5327 17.5394 11.1538 17.0722 11.1538C16.605 11.1538 16.2263 11.5327 16.2263 12C16.2263 12.4673 16.605 12.8462 17.0722 12.8462Z" stroke="currentColor" stroke-width="1.71429" stroke-linecap="round" stroke-linejoin="round"/>
    <path d="M11.9968 1C10.0076 1.00062 8.05585 1.54093 6.3494 2.56338C4.64295 3.58583 3.2457 5.05212 2.30647 6.8061C1.36725 8.56007 0.921214 10.536 1.01588 12.5235C1.11056 14.511 1.74238 16.4356 2.84407 18.0923L1 23L7.1751 21.8831C8.66204 22.6099 10.2938 22.9917 11.9488 22.9999C13.6038 23.0081 15.2392 22.6425 16.7333 21.9304C18.2274 21.2184 19.5415 20.1781 20.5777 18.8873C21.6139 17.5965 22.3455 16.0884 22.7179 14.4754C23.0904 12.8623 23.094 11.186 22.7286 9.57142C22.3633 7.95679 21.6382 6.44549 20.6077 5.15016C19.5771 3.85483 18.2675 2.80889 16.7766 2.0903C15.2856 1.37172 13.6517 0.999025 11.9968 1Z" stroke="currentColor" stroke-width="1.71429" stroke-linecap="round" stroke-linejoin="round"/>
</svg>
