<svg width="51" height="46" viewBox="0 0 51 46" fill="none" xmlns="http://www.w3.org/2000/svg">
<path d="M25.4994 0C20.9668 0.000456166 16.5163 1.09049 12.6061 3.15784C8.69595 5.22519 5.46734 8.19518 3.25273 11.762C1.03812 15.3288 -0.0824568 19.3635 0.0063789 23.4508C0.0952167 27.538 1.39025 31.5301 3.75816 35.0157L0.115209 43.7822C0.0123036 44.0306 -0.0224006 44.2977 0.014061 44.5609C0.0505227 44.8239 0.157066 45.0751 0.324591 45.2931C0.492115 45.511 0.715641 45.6892 0.97607 45.8123C1.2365 45.9353 1.52609 45.9997 1.82011 45.9999C1.93008 46.0009 2.0399 45.9921 2.14798 45.9737L14.8728 43.8839C18.2011 45.2806 21.8283 46.003 25.4994 45.9999C32.2626 45.9999 38.7486 43.5767 43.5309 39.2634C48.3133 34.95 51 29.0999 51 23C51 16.9 48.3133 11.0499 43.5309 6.73654C38.7486 2.4232 32.2626 0 25.4994 0Z" fill="white"/>
</svg>
