<svg width="32" height="32" viewBox="0 0 32 32" fill="none" xmlns="http://www.w3.org/2000/svg">
<path
  d="M14.0612 3.25071L14.6185 2.74872L14.6171 2.74728L14.0612 3.25071ZM12.8079 1.86671L13.3638 1.36328L13.3627 1.36204L12.8079 1.86671ZM11.4459 1.07532L11.2822 1.80722L11.2822 1.80722L11.4459 1.07532ZM9.87661 1.21093L10.1635 1.9039L10.1635 1.9039L9.87661 1.21093ZM8.67062 2.22423L9.30377 2.62625L9.30377 2.62625L8.67062 2.22423ZM8.26656 3.74671L7.51738 3.78186L7.51741 3.78254L8.26656 3.74671ZM8.35589 5.61471L7.60674 5.65054L7.60696 5.65482L8.35589 5.61471ZM8.18699 6.68791L8.88739 6.95612L8.88739 6.95612L8.18699 6.68791ZM7.59588 7.59944L8.12646 8.12951L8.12646 8.12951L7.59588 7.59944ZM5.61189 8.36138L5.65127 7.61241L5.64988 7.61234L5.61189 8.36138ZM3.74523 8.26671L3.78321 7.51767L3.78103 7.51757L3.74523 8.26671ZM2.22192 8.67002L1.82011 8.03673L1.82011 8.03673L2.22192 8.67002ZM1.07336 11.4464L0.341587 11.6108L0.341587 11.6108L1.07336 11.4464ZM1.86656 12.808L2.37066 12.2527L2.37046 12.2525L1.86656 12.808ZM3.25456 14.068L2.75045 14.6234L2.75183 14.6246L3.25456 14.068ZM3.89108 14.9463L3.20568 15.2508L3.20568 15.2508L3.89108 14.9463ZM3.89108 17.0684L3.20568 16.7639L3.20568 16.7639L3.89108 17.0684ZM3.25456 17.9467L3.7572 18.5034L3.75728 18.5033L3.25456 17.9467ZM1.86656 19.2L1.36392 18.6434L1.36326 18.644L1.86656 19.2ZM1.0711 20.5643L0.339277 20.4001L0.339277 20.4001L1.0711 20.5643ZM1.20773 22.1375L0.515169 22.4254L0.515169 22.4254L1.20773 22.1375ZM2.22648 23.3442L1.82658 23.9787L1.82658 23.9787L2.22648 23.3442ZM3.75456 23.7427L3.71657 22.9937L3.71547 22.9937L3.75456 23.7427ZM5.62122 23.648L5.65921 24.3971L5.65975 24.3971L5.62122 23.648ZM6.69209 23.8185L6.96121 23.1184L6.96121 23.1184L6.69209 23.8185ZM7.60136 24.4092L7.07103 24.9396L7.07103 24.9396L7.60136 24.4092ZM8.36256 26.3894L7.61355 26.3509L7.61355 26.3509L8.36256 26.3894ZM8.26656 28.256L7.51754 28.2175L7.51734 28.2217L8.26656 28.256ZM9.87795 30.7895L10.1645 30.0964L10.1645 30.0964L9.87795 30.7895ZM11.4466 30.9245L11.6105 31.6564L11.6105 31.6564L11.4466 30.9245ZM12.8079 30.1334L13.3627 30.6381L13.3632 30.6375L12.8079 30.1334ZM14.0679 28.7454L14.6232 29.2495L14.6246 29.248L14.0679 28.7454ZM14.9458 28.1089L14.6412 27.4236L14.6412 27.4236L14.9458 28.1089ZM17.0673 28.1089L16.7627 28.7943L16.7627 28.7943L17.0673 28.1089ZM17.9452 28.7454L17.3886 29.248L17.3888 29.2483L17.9452 28.7454ZM19.1999 30.1334L18.6435 30.6363L18.6467 30.6398L19.1999 30.1334ZM20.5608 30.9196L20.7232 30.1874L20.7232 30.1874L20.5608 30.9196ZM22.1266 30.7826L21.8394 30.0897L21.8394 30.0897L22.1266 30.7826ZM23.7359 28.2534L24.4852 28.22L24.4849 28.2154L23.7359 28.2534ZM23.6412 26.3867L24.3903 26.3487L24.3902 26.3482L23.6412 26.3867ZM23.8116 25.3158L23.1116 25.0467L23.1116 25.0467L23.8116 25.3158ZM25.3117 23.8158L25.5808 24.5158L25.5808 24.5158L25.3117 23.8158ZM26.3826 23.6454L26.344 24.3944L26.3446 24.3944L26.3826 23.6454ZM28.2492 23.74L28.2874 22.991L28.2872 22.991L28.2492 23.74ZM30.9302 20.5574L30.1985 20.7222L30.1986 20.7222L30.9302 20.5574ZM30.1332 19.1934L30.636 18.6369L30.6356 18.6365L30.1332 19.1934ZM28.7439 17.94L28.2412 18.4966L28.2415 18.4969L28.7439 17.94ZM28.1074 17.0618L28.7928 16.7573L28.7928 16.7573L28.1074 17.0618ZM28.1074 14.9397L28.7928 15.2442L28.7928 15.2442L28.1074 14.9397ZM28.7439 14.0614L28.2415 13.5045L28.2412 13.5048L28.7439 14.0614ZM30.1332 12.808L30.6356 13.3649L30.6361 13.3645L30.1332 12.808ZM30.9298 11.4451L31.6614 11.6102L31.6614 11.6102L30.9298 11.4451ZM30.7956 9.87213L30.1025 10.1587L30.1025 10.1587L30.7956 9.87213ZM29.7797 8.66377L30.1811 8.03021L30.1811 8.03021L29.7797 8.66377ZM28.2532 8.26138L28.2163 7.51229L28.2152 7.51234L28.2532 8.26138ZM26.3866 8.35605L26.4231 9.10516L26.4245 9.10508L26.3866 8.35605ZM24.4119 7.59316L24.9426 7.06321L24.9426 7.06321L24.4119 7.59316ZM23.8226 6.68576L24.5226 6.4165L24.5226 6.41649L23.8226 6.68576ZM23.6519 5.61738L22.9029 5.57939L22.9028 5.57972L23.6519 5.61738ZM23.7466 3.75071L22.9975 3.71257L22.9975 3.71273L23.7466 3.75071ZM23.346 2.22258L23.9801 1.82194L23.9801 1.82194L23.346 2.22258ZM22.1378 1.20482L22.4249 0.511949L22.4249 0.511949L22.1378 1.20482ZM20.5639 1.06973L20.399 0.338065L20.399 0.338066L20.5639 1.06973ZM19.1999 1.86671L19.7542 2.37191L19.7564 2.36953L19.1999 1.86671ZM17.9386 3.25071L17.3842 2.74551L17.3813 2.74872L17.9386 3.25071ZM17.0609 3.88811L16.7559 3.20292L16.7559 3.20292L17.0609 3.88811ZM11.7573 20.244L12.2876 19.7137L12.2876 19.7137L11.7573 20.244ZM11.7573 11.7587L11.2269 11.2284L11.2269 11.2284L11.7573 11.7587ZM20.2426 20.244L19.7122 19.7137L19.7122 19.7137L20.2426 20.244ZM13.504 3.7527C13.819 4.10237 14.204 4.38194 14.6339 4.57331L15.2439 3.20292C15.0059 3.097 14.7928 2.94226 14.6185 2.74872L13.504 3.7527ZM12.252 2.37015L13.5053 3.75415L14.6171 2.74728L13.3638 1.36328L12.252 2.37015ZM11.2822 1.80722C11.6562 1.89089 11.9952 2.0879 12.2531 2.37138L13.3627 1.36204C12.8971 0.850197 12.2849 0.494472 11.6097 0.343409L11.2822 1.80722ZM10.1635 1.9039C10.5176 1.75732 10.9082 1.72356 11.2822 1.80722L11.6097 0.343409C10.9345 0.192346 10.229 0.253303 9.58974 0.517963L10.1635 1.9039ZM9.30377 2.62625C9.50918 2.30273 9.80941 2.05048 10.1635 1.9039L9.58974 0.517962C8.95043 0.782622 8.40834 1.23809 8.03746 1.82222L9.30377 2.62625ZM9.01573 3.71157C8.99778 3.32877 9.09836 2.94976 9.30377 2.62625L8.03746 1.82222C7.66658 2.40635 7.48496 3.09069 7.51738 3.78186L9.01573 3.71157ZM9.10504 5.57889L9.0157 3.71089L7.51741 3.78254L7.60675 5.65054L9.10504 5.57889ZM8.88739 6.95612C9.05594 6.51596 9.13002 6.04526 9.10482 5.57461L7.60696 5.65482C7.62092 5.9154 7.5799 6.17601 7.48658 6.41971L8.88739 6.95612ZM8.12646 8.12951C8.45958 7.79607 8.71884 7.39628 8.88739 6.95612L7.48658 6.41971C7.39326 6.66341 7.24972 6.88475 7.06529 7.06937L8.12646 8.12951ZM6.95381 8.89158C7.39381 8.7226 7.79335 8.46295 8.12646 8.12951L7.06529 7.06937C6.88085 7.25398 6.65965 7.39773 6.41604 7.49129L6.95381 8.89158ZM5.57251 9.11035C6.04319 9.13509 6.51382 9.06056 6.95381 8.89158L6.41604 7.49129C6.17243 7.58485 5.91187 7.62612 5.65127 7.61241L5.57251 9.11035ZM3.70724 9.01575L5.5739 9.11042L5.64988 7.61234L3.78321 7.51768L3.70724 9.01575ZM2.62373 9.3033C2.94738 9.09795 3.32655 8.99756 3.70942 9.01586L3.78103 7.51757C3.08952 7.48452 2.40467 7.66583 1.82011 8.03673L2.62373 9.3033ZM1.90123 10.1631C2.04775 9.80895 2.30008 9.50865 2.62373 9.3033L1.82011 8.03673C1.23554 8.40763 0.77979 8.95002 0.515148 9.58974L1.90123 10.1631ZM1.80513 11.2821C1.72115 10.9081 1.75471 10.5173 1.90123 10.1631L0.515148 9.58974C0.250506 10.2295 0.18989 10.9353 0.341587 11.6108L1.80513 11.2821ZM2.37046 12.2525C2.08656 11.995 1.88912 11.6561 1.80513 11.2821L0.341587 11.6108C0.493283 12.2863 0.849889 12.8984 1.36266 13.3636L2.37046 12.2525ZM3.75866 13.5127L2.37066 12.2527L1.36245 13.3634L2.75045 14.6234L3.75866 13.5127ZM4.57648 14.6418C4.38547 14.2119 4.10639 13.8268 3.75728 13.5115L2.75183 14.6246C2.94525 14.7993 3.09986 15.0127 3.20568 15.2508L4.57648 14.6418ZM4.86618 16.0074C4.86618 15.5369 4.76749 15.0717 4.57648 14.6418L3.20568 15.2508C3.3115 15.489 3.36618 15.7467 3.36618 16.0074H4.86618ZM4.57648 17.373C4.76749 16.943 4.86618 16.4778 4.86618 16.0074H3.36618C3.36618 16.268 3.3115 16.5257 3.20568 16.7639L4.57648 17.373ZM3.75728 18.5033C4.10639 18.1879 4.38547 17.8029 4.57648 17.373L3.20568 16.7639C3.09986 17.0021 2.94525 17.2154 2.75183 17.3901L3.75728 18.5033ZM2.3692 19.7567L3.7572 18.5034L2.75192 17.3901L1.36392 18.6434L2.3692 19.7567ZM1.80292 20.7284C1.88699 20.3535 2.08503 20.0139 2.36986 19.7561L1.36326 18.644C0.848824 19.1096 0.491127 19.7231 0.339277 20.4001L1.80292 20.7284ZM1.9003 21.8497C1.75286 21.4949 1.71884 21.1033 1.80292 20.7284L0.339277 20.4001C0.187427 21.0772 0.24887 21.7846 0.515169 22.4254L1.9003 21.8497ZM2.62638 22.7097C2.30137 22.5049 2.04774 22.2044 1.9003 21.8497L0.515169 22.4254C0.781469 23.0661 1.23957 23.6087 1.82658 23.9787L2.62638 22.7097ZM3.71547 22.9937C3.33182 23.0138 2.95138 22.9145 2.62638 22.7097L1.82658 23.9787C2.41359 24.3487 3.10072 24.5279 3.79365 24.4917L3.71547 22.9937ZM5.58324 22.899L3.71657 22.9937L3.79254 24.4917L5.65921 24.3971L5.58324 22.899ZM6.96121 23.1184C6.52212 22.9496 6.05249 22.8749 5.5827 22.899L5.65975 24.3971C5.91986 24.3837 6.17988 24.4251 6.42298 24.5185L6.96121 23.1184ZM8.13169 23.8789C7.79906 23.5463 7.40029 23.2872 6.96121 23.1184L6.42298 24.5185C6.66609 24.612 6.88686 24.7554 7.07103 24.9396L8.13169 23.8789ZM8.89221 25.0494C8.72342 24.6103 8.46432 24.2115 8.13169 23.8789L7.07103 24.9396C7.25519 25.1237 7.39864 25.3445 7.4921 25.5876L8.89221 25.0494ZM9.11157 26.4279C9.13573 25.9581 9.061 25.4885 8.89221 25.0494L7.4921 25.5876C7.58555 25.8307 7.62693 26.0907 7.61355 26.3509L9.11157 26.4279ZM9.01557 28.2946L9.11157 26.4279L7.61355 26.3509L7.51755 28.2175L9.01557 28.2946ZM9.30469 29.3749C9.09912 29.0517 8.99823 28.673 9.01577 28.2904L7.51734 28.2217C7.48568 28.9126 7.66785 29.5964 8.03901 30.18L9.30469 29.3749ZM10.1645 30.0964C9.81049 29.9501 9.51026 29.6981 9.30469 29.3749L8.03901 30.18C8.41018 30.7635 8.95229 31.2184 9.59143 31.4826L10.1645 30.0964ZM11.2827 30.1926C10.9089 30.2763 10.5185 30.2427 10.1645 30.0964L9.59142 31.4826C10.2306 31.7468 10.9356 31.8075 11.6105 31.6564L11.2827 30.1926ZM12.2531 29.6287C11.9954 29.912 11.6565 30.1089 11.2827 30.1926L11.6105 31.6564C12.2854 31.5052 12.8973 31.1497 13.3627 30.6381L12.2531 29.6287ZM13.5126 28.2413L12.2526 29.6293L13.3632 30.6375L14.6232 29.2495L13.5126 28.2413ZM14.6412 27.4236C14.2114 27.6146 13.8264 27.8936 13.5112 28.2428L14.6246 29.248C14.7991 29.0547 15.0123 28.9001 15.2504 28.7943L14.6412 27.4236ZM16.0066 27.1338C15.5362 27.1338 15.0711 27.2325 14.6412 27.4236L15.2504 28.7943C15.4885 28.6885 15.7461 28.6338 16.0066 28.6338V27.1338ZM17.3719 27.4236C16.942 27.2325 16.4769 27.1338 16.0066 27.1338V28.6338C16.2671 28.6338 16.5247 28.6885 16.7627 28.7943L17.3719 27.4236ZM18.5019 28.2428C18.1867 27.8936 17.8017 27.6146 17.3719 27.4236L16.7627 28.7943C17.0008 28.9001 17.214 29.0547 17.3886 29.248L18.5019 28.2428ZM19.7563 29.6304L18.5016 28.2424L17.3888 29.2483L18.6435 30.6363L19.7563 29.6304ZM20.7232 30.1874C20.35 30.1046 20.0113 29.909 19.7531 29.6269L18.6467 30.6398C19.1128 31.149
  19.7244 31.5023 20.3984 31.6518L20.7232 30.1874ZM21.8394 30.0897C21.4862 30.2361 21.0965 30.2702 20.7232 30.1874L20.3984 31.6518C21.0724 31.8014 21.776 31.7398 22.4137 31.4754L21.8394 30.0897ZM22.6974 29.3692C22.4922 29.6918 22.1926 29.9434 21.8394 30.0897L22.4137 31.4754C23.0515 31.2111 23.5924 30.7569 23.963 30.1745L22.6974 29.3692ZM22.9866 28.2868C23.0037 28.6687 22.9027 29.0467 22.6974 29.3692L23.963 30.1745C24.3336 29.592 24.5159 28.9097 24.4851 28.22L22.9866 28.2868ZM22.8922 26.4247L22.9869 28.2914L24.4849 28.2154L24.3903 26.3487L22.8922 26.4247ZM23.1116 25.0467C22.9428 25.4858 22.8681 25.9555 22.8922 26.4252L24.3902 26.3482C24.3769 26.0881 24.4182 25.8281 24.5117 25.585L23.1116 25.0467ZM23.8721 23.8762C23.5395 24.2089 23.2804 24.6076 23.1116 25.0467L24.5117 25.585C24.6051 25.3419 24.7486 25.1211 24.9328 24.9369L23.8721 23.8762ZM25.0426 23.1157C24.6035 23.2845 24.2047 23.5436 23.8721 23.8762L24.9328 24.9369C25.1169 24.7527 25.3377 24.6093 25.5808 24.5158L25.0426 23.1157ZM26.4211 22.8964C25.9513 22.8722 25.4817 22.9469 25.0426 23.1157L25.5808 24.5158C25.8239 24.4224 26.0839 24.381 26.344 24.3944L26.4211 22.8964ZM28.2872 22.991L26.4205 22.8963L26.3446 24.3944L28.2112 24.4891L28.2872 22.991ZM29.3767 22.7055C29.0518 22.9108 28.6713 23.0106 28.2874 22.991L28.2111 24.4891C28.9042 24.5244 29.5913 24.3443 30.178 23.9736L29.3767 22.7055ZM30.1022 21.8442C29.9551 22.1993 29.7017 22.5002 29.3767 22.7055L30.178 23.9736C30.7647 23.6028 31.2223 23.0596 31.488 22.4184L30.1022 21.8442ZM30.1986 20.7222C30.283 21.0972 30.2494 21.4891 30.1022 21.8442L31.488 22.4184C31.7537 21.7773 31.8144 21.0696 31.6619 20.3925L30.1986 20.7222ZM29.6304 19.7499C29.9156 20.0076 30.1141 20.3472 30.1985 20.7222L31.6619 20.3925C31.5093 19.7155 31.151 19.1022 30.636 18.6369L29.6304 19.7499ZM28.2415 18.4969L29.6309 19.7503L30.6356 18.6365L29.2463 17.3832L28.2415 18.4969ZM27.422 17.3663C27.613 17.7962 27.8921 18.1813 28.2412 18.4966L29.2466 17.3835C29.0532 17.2088 28.8986 16.9954 28.7928 16.7573L27.422 17.3663ZM27.1323 16.0007C27.1323 16.4712 27.231 16.9364 27.422 17.3663L28.7928 16.7573C28.6869 16.5191 28.6323 16.2614 28.6323 16.0007H27.1323ZM27.422 14.6351C27.231 15.0651 27.1323 15.5303 27.1323 16.0007H28.6323C28.6323 15.7401 28.6869 15.4823 28.7928 15.2442L27.422 14.6351ZM28.2412 13.5048C27.8921 13.8201 27.613 14.2052 27.422 14.6351L28.7928 15.2442C28.8986 15.006 29.0532 14.7927 29.2466 14.6179L28.2412 13.5048ZM29.6309 12.2512L28.2415 13.5045L29.2463 14.6183L30.6356 13.3649L29.6309 12.2512ZM30.1982 11.28C30.1136 11.6547 29.9153 11.9941 29.6303 12.2516L30.6361 13.3645C31.1506 12.8994 31.5088 12.2867 31.6614 11.6102L30.1982 11.28ZM30.1025 10.1587C30.2493 10.5137 30.2827 10.9053 30.1982 11.28L31.6614 11.6102C31.814 10.9336 31.7537 10.2265 31.4887 9.58555L30.1025 10.1587ZM29.3784 9.29732C29.7028 9.50288 29.9558 9.80376 30.1025 10.1587L31.4887 9.58555C31.2237 8.94465 30.767 8.40138 30.1811 8.03021L29.3784 9.29732ZM28.2902 9.01047C28.6738 8.99156 29.0539 9.09175 29.3784 9.29732L30.1811 8.03021C29.5953 7.65905 28.909 7.47814 28.2163 7.51229L28.2902 9.01047ZM26.4245 9.10508L28.2912 9.01042L28.2152 7.51234L26.3486 7.60701L26.4245 9.10508ZM25.0481 8.88333C25.486 9.05248 25.9543 9.12804 26.4231 9.10516L26.35 7.60694C26.0904 7.61961 25.8311 7.57777 25.5887 7.48413L25.0481 8.88333ZM23.8812 8.1231C24.2128 8.45522 24.6103 8.71419 25.0481 8.88333L25.5887 7.48413C25.3463 7.39048 25.1262 7.2471 24.9426 7.06321L23.8812 8.1231ZM23.1226 6.95502C23.2912 7.39307 23.5495 7.79098 23.8812 8.1231L24.9426 7.06321C24.759 6.87933 24.6159 6.65903 24.5226 6.4165L23.1226 6.95502ZM22.9028 5.57972C22.8793 6.04847 22.9541 6.51696 23.1227 6.95502L24.5226 6.41649C24.4294 6.17396 24.3879 5.91458 24.4009 5.65504L22.9028 5.57972ZM22.9975 3.71273L22.9029 5.57939L24.4009 5.65537L24.4956 3.7887L22.9975 3.71273ZM22.712 2.62321C22.9173 2.94816 23.0171 3.32868 22.9975 3.71257L24.4956 3.78886C24.5309 3.09573 24.3508 2.40866 23.9801 1.82194L22.712 2.62321ZM21.8507 1.89769C22.2058 2.04483 22.5067 2.29827 22.712 2.62321L23.9801 1.82194C23.6093 1.23523 23.0661 0.777629 22.4249 0.511949L21.8507 1.89769ZM20.7287 1.80139C21.1037 1.71691 21.4956 1.75055 21.8507 1.89769L22.4249 0.511949C21.7838 0.246269 21.0761 0.185529 20.399 0.338065L20.7287 1.80139ZM19.7564 2.36953C20.0141 2.08433 20.3537 1.88587 20.7287 1.80139L20.399 0.338066C19.722 0.490602 19.1087 0.848939 18.6434 1.36389L19.7564 2.36953ZM18.4929 3.75591L19.7542 2.37191L18.6456 1.36152L17.3842 2.74552L18.4929 3.75591ZM17.3659 4.57331C17.7958 4.38194 18.1808 4.10237 18.4958 3.7527L17.3813 2.74872C17.207 2.94226 16.9939 3.097 16.7559 3.20292L17.3659 4.57331ZM15.9999 4.86357C16.4705 4.86357 16.9359 4.76468 17.3659 4.57331L16.7559 3.20292C16.518 3.30883 16.2604 3.36357 15.9999 3.36357V4.86357ZM14.6339 4.57331C15.0639 4.76468 15.5293 4.86357 15.9999 4.86357V3.36357C15.7394 3.36357 15.4818 3.30883 15.2439 3.20292L14.6339 4.57331ZM9.24992 16.0014C9.24992 17.7916 9.96108 19.5085 11.2269 20.7743L12.2876 19.7137C11.303 18.7291 10.7499 17.3938 10.7499 16.0014H9.24992ZM11.2269 11.2284C9.96108 12.4943 9.24992 14.2112 9.24992 16.0014H10.7499C10.7499 14.609 11.303 13.2736 12.2876 12.2891L11.2269 11.2284ZM15.9999 9.25138C14.2097 9.25138 12.4928 9.96254 11.2269 11.2284L12.2876 12.2891C13.2722 11.3045 14.6075 10.7514 15.9999 10.7514V9.25138ZM20.7729 11.2284C19.507 9.96254 17.7901 9.25138 15.9999 9.25138V10.7514C17.3923 10.7514 18.7277 11.3045 19.7122 12.2891L20.7729 11.2284ZM22.7499 16.0014C22.7499 14.2112 22.0388 12.4943 20.7729 11.2284L19.7122 12.2891C20.6968 13.2736 21.2499 14.609 21.2499 16.0014H22.7499ZM20.7729 20.7743C22.0388 19.5085 22.7499 17.7916 22.7499 16.0014H21.2499C21.2499 17.3938 20.6968 18.7291 19.7122 19.7137L20.7729 20.7743ZM15.9999 22.7514C17.7901 22.7514 19.507 22.0402 20.7729 20.7743L19.7122 19.7137C18.7277 20.6983 17.3923 21.2514 15.9999 21.2514V22.7514ZM11.2269 20.7743C12.4928 22.0402 14.2097 22.7514 15.9999 22.7514V21.2514C14.6075 21.2514 13.2722 20.6983 12.2876 19.7137L11.2269 20.7743Z" fill="currentColor"/>
<circle cx="16" cy="16" r="6" fill="currentColor" />
</svg>
