<svg width="16" height="16" viewBox="0 0 16 16" fill="none" xmlns="http://www.w3.org/2000/svg">
<path fill-rule="evenodd" clip-rule="evenodd" d="M10.9178 1.02715C10.5031 1.07006 10.1524 1.38344 10.064 1.79009C10.0485 1.86155 10.0345 2.03801 10.0255 2.27593C10.015 2.55409 10.0064 2.65273 9.99187 2.66195C9.98112 2.66876 9.8947 2.67463 9.79983 2.67497C9.44251 2.67626 9.18196 2.70046 9.04774 2.74481C8.75515 2.84152 8.53534 3.06092 8.42371 3.36772C8.38815 3.46547 8.38375 3.49918 8.38308 3.67981C8.38249 3.83984 8.38822 3.8996 8.41042 3.96481C8.51337 4.26709 8.65042 4.41148 9.09915 4.69045C9.27003 4.79666 9.40983 4.89025 9.40983 4.89839C9.40983 4.90654 9.33942 5.04581 9.25335 5.20789C9.01426 5.65811 8.98768 5.73499 8.98852 5.97367C8.98945 6.23644 9.08512 6.47183 9.2653 6.6547C9.47143 6.86389 9.69336 6.95618 9.98733 6.95495C10.2094 6.95404 10.2973 6.92347 10.7078 6.70462C11.0182 6.53917 11.0376 6.53098 11.0605 6.55592C11.0738 6.57043 11.1511 6.69031 11.2322 6.82231C11.4713 7.21121 11.5381 7.2952 11.6932 7.40153C12.1962 7.74641 12.8785 7.56194 13.1466 7.00859C13.2217 6.85354 13.2343 6.77377 13.2506 6.35006C13.2589 6.13157 13.2707 5.94809 13.2766 5.94233C13.2825 5.93656 13.4628 5.92492 13.6773 5.91644C14.1952 5.896 14.3053 5.86613 14.5336 5.68414C14.7624 5.50175 14.8829 5.26363 14.8963 4.96765C14.9078 4.71406 14.8488 4.51216 14.7071 4.32038C14.6162 4.19732 14.5305 4.13002 14.2032 3.9248C14.0377 3.82102 13.893 3.72736 13.8816 3.71666C13.8641 3.7003 13.8883 3.64537 14.0344 3.36904C14.2514 2.9588 14.2881 2.85551 14.2891 2.65231C14.29 2.46181 14.2671 2.35279 14.1944 2.20231C14.0152 1.83106 13.6666 1.62454 13.2509 1.64335C13.0413 1.65284 12.9691 1.67909 12.5771 1.88864C12.401 1.98278 12.2491 2.05975 12.2396 2.05966C12.2301 2.05958 12.1654 1.96676 12.0957 1.85341C11.8147 1.39601 11.7575 1.31974 11.6174 1.21621C11.4149 1.06652 11.1719 1.00085 10.9178 1.02715ZM10.9183 1.88095C10.8858 1.90951 10.8629 1.94525 10.8582 1.9747C10.854 2.00089 10.844 2.19443 10.8358 2.40481C10.82 2.81168 10.8082 2.88503 10.7345 3.03284C10.6758 3.1504 10.494 3.32918 10.3698 3.39133C10.227 3.46282 10.1061 3.48149 9.70915 3.4933C9.51492 3.49907 9.33289 3.51134 9.30468 3.52055C9.24508 3.54001 9.18483 3.62008 9.18483 3.67981C9.18483 3.76487 9.24282 3.81562 9.59022 4.03447C9.9684 4.27273 10.0486 4.34443 10.1365 4.52317C10.2336 4.72045 10.254 4.93783 10.1945 5.14058C10.1821 5.18278 10.0882 5.37637 9.98589 5.57077C9.8793 5.77327 9.79983 5.94176 9.79983 5.96527C9.79983 6.06113 9.88143 6.13981 9.98086 6.13981C10.0126 6.13981 10.1407 6.08042 10.3678 5.96035C10.5546 5.86163 10.7377 5.76979 10.7748 5.75623C10.812 5.74268 10.9065 5.72825 10.9848 5.72417C11.16 5.71507 11.2909 5.74268 11.4374 5.81969C11.6009 5.90563 11.6785 5.99501 11.8995 6.35221C12.0085 6.52826 12.1174 6.69088 12.1415 6.71356C12.2275 6.79457 12.3924 6.74938 12.4165 6.63815C12.4213 6.61568 12.4318 6.42181 12.4398 6.20731C12.4551 5.79439 12.4664 5.72159 12.5389 5.57177C12.5972 5.45153 12.7931 5.25997 12.9198 5.19944C13.0611 5.13193 13.1363 5.12081 13.5633 5.10434C13.7745 5.0962 13.9658 5.08204 13.9884 5.0729C14.039 5.05244 14.0898 4.97354 14.0898 4.91554C14.0897 4.82815 14.0446 4.78799 13.7134 4.58012C13.5193 4.45832 13.3557 4.3438 13.2998 4.29053C13.1968 4.19246 13.1146 4.05208 13.0773 3.91093C13.0458 3.79168 13.0457 3.58442 13.077 3.47465C13.0907 3.42661 13.1858 3.22772 13.2884 3.03266C13.482 2.66444 13.4956 2.62358 13.453 2.54108C13.4296 2.49595 13.3494 2.44981 13.2942 2.44981C13.2757 2.44981 13.1417 2.51317 12.9964 2.59061C12.6385 2.78141 12.5513 2.8243 12.4735 2.84773C12.2019 2.92943 11.8632 2.84578 11.6618 2.64728C11.6019 2.58832 11.5116 2.45945 11.3664 2.22626C11.2259 2.00044 11.1426 1.88114 11.1123 1.86256C11.0444 1.82083 10.9798 1.82695 10.9183 1.88095ZM11.4836 3.61255C11.2462 3.66413 11.0384 3.85574 10.9678 4.08817C10.9203 4.24453 10.9322 4.44757 10.9971 4.58617C11.0527 4.70503 11.1917 4.85701 11.2974 4.91453C11.6881 5.12719 12.1905 4.92229 12.3122 4.50065C12.3413 4.39969 12.3449 4.20806 12.3195 4.11356C12.2738 3.94394 12.1308 3.76412 11.9758 3.68152C11.8822 3.63164 11.7212 3.58964 11.6298 3.59126C11.601 3.59177 11.5351 3.60136 11.4836 3.61255ZM4.06233 5.27966C3.68596 5.35996 3.38289 5.60168 3.222 5.94992C3.13219 6.14429 3.12264 6.21532 3.11983 6.70981C3.11748 7.12687 3.1155 7.15619 3.08547 7.21981C3.04645 7.30247 2.97216 7.375 2.89233 7.40836C2.84641 7.42754 2.79048 7.43293 2.65411 7.43129C2.55609 7.43011 2.47051 7.42582 2.46393 7.42175C2.45734 7.41767 2.34178 7.41389 2.20714 7.41334C1.91748 7.41214 1.81668 7.43137 1.61733 7.52582C1.32381 7.6649 1.12512 7.8865 1.0072 8.20627C0.960448 8.33309 0.958858 8.34503 0.958108 8.57731C0.957418 8.78855 0.961543 8.83072 0.992488 8.92928C1.07638 9.19643 1.17055 9.32267 1.51434 9.62878C1.81027 9.89228 1.85103 9.94747 1.86171 10.099C1.86595 10.1593 1.85854 10.2063 1.83486 10.2693C1.8046 10.3497 1.78177 10.3746 1.52974 10.6023C1.17369 10.9239 1.08967 11.0334 1.00027 11.2923C0.961933 11.4033 0.958783 11.4303 0.958078 11.6523C0.957403 11.8673 0.961063 11.9033 0.993193 11.9973C1.1368 12.4178 1.42935 12.6947 1.84098 12.7996C1.94518 12.8261 2.00817 12.8298 2.35848 12.83C2.57784 12.8301 2.78277 12.8343 2.81385 12.8395C2.84494 12.8446 2.9055 12.8699 2.94843 12.8956C3.0105 12.9327 3.03577 12.9605 3.07189 13.0312L3.11733 13.1201L3.12043 13.5637C3.12315 13.9522 3.12727 14.0218 3.15357 14.1235C3.23868 14.453 3.46536 14.731 3.77733 14.8885C4.06341 15.033 4.44327 15.0423 4.75519 14.9126C4.93461 14.838 5.05146 14.743 5.31402 14.4582C5.44758 14.3133 5.57835 14.1788 5.6046 14.1594C5.71192 14.0797 5.84959 14.0677 5.96956 14.1275C6.02596 14.1556 6.09441 14.2195 6.23875 14.3787C6.34521 14.4962 6.46906 14.6287 6.51397 14.6732C6.81808 14.9746 7.29016 15.0831 7.69983 14.9458C8.07555 14.8199 8.33742 14.5502 8.46562 14.1573C8.49745 14.0598 8.50051 14.0182 8.50861 13.5723C8.51689 13.1159 8.51895 13.0893 8.55019 13.0309C8.56827 12.9971 8.60698 12.9485 8.63623 12.9228C8.73028 12.8402 8.79859 12.8298 9.24681 12.8298C9.75511 12.8298 9.85633 12.8106 10.1071 12.6662C10.5916 12.3875 10.8018 11.7886 10.6065 11.2439C10.5587 11.1107 10.4813 10.9803 10.3898 10.879C10.3582 10.8439 10.2311 10.7235 10.1073 10.6113C9.98359 10.4991 9.87012 10.3938 9.85519 10.3773C9.7999 10.3162 9.76795 10.222 9.76795 10.1201C9.76795 9.9662 9.81057 9.89518 10.0056 9.724C10.491 9.29786 10.6034 9.13867 10.6641 8.79077C10.7809 8.12114 10.3023 7.48487 9.63055 7.41679C9.56146 7.40978 9.41097 7.40962 9.29613 7.41643C8.90466 7.43965 8.79148 7.4363 8.71788 7.39934C8.63265 7.35655 8.58931 7.31608 8.54967 7.24231C8.51923 7.18565 8.51694 7.15555 8.50849 6.70231C8.4988 6.18235 8.49255 6.13657 8.40555 5.94964C8.24901 5.61329 7.97749 5.38991 7.59483 5.28265C7.55715 5.27209 7.44448 5.26364 7.33983 5.26355C7.12654 5.26336 6.99012 5.29384 6.80733 5.38249C6.6552 5.45629 6.55891 5.53916 6.32524 5.79746C6.00123 6.15565 5.97364 6.17621 5.81733 6.17611C5.66271 6.176 5.61805 6.14528 5.36935 5.86798C5.24818 5.73286 5.10366 5.58301 5.04819 5.53499C4.78902 5.31061 4.39524 5.20862 4.06233 5.27966ZM4.16733 6.09572C4.10265 6.11471 4.01428 6.19274 3.97564 6.26501C3.94389 6.3244 3.94191 6.34936 3.9334 6.79981C3.92374 7.31123 3.91615 7.36664 3.82924 7.56011C3.77269 7.68604 3.70809 7.77928 3.59901 7.89239C3.45706 8.0396 3.31063 8.13262 3.12472 8.19368C2.94355 8.25319 2.84682 8.2598 2.45355 8.23961C2.02767 8.21773 1.99369 8.22278 1.88038 8.32466C1.75951 8.43332 1.72653 8.59517 1.7952 8.74262C1.82335 8.80309 1.87732 8.85961 2.0688 9.02918C2.34055 9.26983 2.41237 9.34412 2.48887 9.46372C2.71359 9.815 2.73928 10.2882 2.554 10.6636C2.47144 10.8308 2.37513 10.9413 2.08762 11.1985C1.94569 11.3255 1.82595 11.4454 1.80649 11.4801C1.75965 11.5634 1.74961 11.6813 1.78126 11.7766C1.80792 11.8568 1.9027 11.9596 1.9812 11.9933C2.00821 12.0049 2.18701 12.0142 2.50233 12.0203C2.94786 12.0289 2.98987 12.032 3.08733 12.0639C3.48742 12.1948 3.77575 12.4864 3.89169 12.8775C3.92098 12.9763 3.92515 13.0347 3.93328 13.4598C3.94341 13.9891 3.94476 13.9961 4.05574 14.0964C4.1256 14.1595 4.25725 14.2022 4.33734 14.1878C4.45617 14.1664 4.51507 14.1218 4.71519 13.9019C5.0638 13.5188 5.20749 13.4084 5.46483 13.3259C5.67946 13.2571 5.97303 13.2617 6.19225 13.3373C6.44376 13.4239 6.54759 13.5058 6.93355 13.9217C7.17442 14.1813 7.25998 14.2247 7.43169 14.1744C7.53352 14.1446 7.60726 14.0839 7.65499 13.9904C7.69186 13.9182 7.69243 13.9113 7.70064 13.4373C7.70839 12.9885 7.7112 12.9505 7.7436 12.8523C7.88368 12.4278 8.21014 12.131 8.63305 12.0437C8.72158 12.0254 8.84418 12.0197 9.15795 12.0191C9.46051 12.0187 9.58201 12.0133 9.62361 11.9984C9.7714 11.9457 9.86005 11.8172 9.8595 11.6566C9.85897 11.505 9.83238 11.4656 9.57283 11.2313C9.26874 10.9568 9.225 10.9113 9.13972 10.7807C9.02062 10.5982 8.96337 10.4222 8.94997 10.1973C8.93166 9.8897 9.01425 9.61985 9.20337 9.36937C9.23617 9.32591 9.37198 9.19318 9.50517 9.07439C9.63835 8.95562 9.76219 8.84233 9.78036 8.82266C9.91225 8.67988 9.88285 8.416 9.72208 8.29954C9.61461 8.22169 9.58297 8.21812 9.18655 8.2391C8.98939 8.24953 8.7919 8.25349 8.7477 8.24789C8.26552 8.18684 7.89463 7.88183 7.74378 7.42231C7.71159 7.3243 7.70872 7.28488 7.70065 6.82981C7.69246 6.36836 7.69027 6.3391 7.65973 6.28231C7.58814 6.1492 7.47427 6.07958 7.32906 6.08014C7.18429 6.08069 7.14372 6.10916 6.8992 6.3818C6.77812 6.51683 6.63366 6.6667 6.57819 6.71483C6.44646 6.82915 6.22123 6.93961 6.0507 6.97351C5.8687 7.0097 5.61924 6.99679 5.45755 6.9428C5.19342 6.8546 5.08146 6.76978 4.76329 6.41678C4.49913 6.1237 4.43689 6.07892 4.29687 6.08116C4.25037 6.08191 4.19208 6.08846 4.16733 6.09572ZM5.51314 8.61616C5.19402 8.68318 4.94371 8.82107 4.72156 9.05224C4.46173 9.32261 4.3185 9.65293 4.29906 10.0265C4.25682 10.8384 4.87285 11.5477 5.67538 11.6111C6.15111 11.6487 6.55153 11.5031 6.88233 11.1723C7.12261 10.932 7.26288 10.6574 7.31715 10.3209C7.33456 10.2129 7.3258 9.92327 7.30158 9.80597C7.19179 9.27448 6.80433 8.8345 6.29391 8.6617C6.05977 8.58244 5.75766 8.56483 5.51314 8.61616ZM5.68983 9.41093C5.40585 9.45895 5.166 9.70733 5.11974 10.0013C5.06484 10.3502 5.29147 10.6916 5.63785 10.7818C5.88511 10.8462 6.12144 10.7805 6.30597 10.5959C6.79063 10.1113 6.36697 9.29645 5.68983 9.41093Z" fill="black"/>
</svg>
