<svg height="100%"  version="1.1" viewBox="0 0 700 700" width="100%" xmlns="http://www.w3.org/2000/svg">
<path d="M350.125 4.9375C310.562 4.9375 270.995 29.8337 264.156 79.6562C180.146 105.061 115.655 171.47 86.3438 253.531C-21.1102 259.393-23.0697 419.598 86.3438 425.469C109.789 499.704 166.461 562.209 238.75 593.469L238.75 665.781C238.75 697.062 285.625 697.062 285.625 665.781L285.625 609.125C299.304 613.034 314.954 614.969 328.625 614.969L328.625 665.781C328.625 697.062 375.531 697.062 375.531 665.781L375.531 614.969C389.202 614.969 402.866 613.036 414.594 609.125L414.594 665.781C414.594 697.062 461.5 697.062 461.5 665.781L461.5 593.469C533.789 562.208 590.429 499.689 613.875 425.469C656.864 421.547 692.031 384.412 692.031 339.5C692.031 294.56 656.864 257.436 613.875 253.531C584.567 171.468 520.117 107.006 436.094 79.6562C429.258 29.8337 389.688 4.9375 350.125 4.9375ZM350.938 46.6562C375.245 46.6562 394.938 66.38 394.938 90.6875C394.938 114.995 375.245 134.688 350.938 134.688C326.63 134.688 306.938 114.995 306.938 90.6875C306.938 66.38 326.63 46.6563 350.938 46.6562ZM270 124.594C281.726 149.999 303.226 167.574 328.625 173.438L328.625 572C314.952 570.037 299.302 568.089 285.625 562.219L285.625 339.5C285.625 325.823 273.915 316.063 262.188 316.062L174.281 316.062C168.425 292.623 152.776 275.019 131.281 263.312C154.725 198.839 205.527 148.041 270 124.594ZM430.219 124.594C494.681 148.039 543.526 198.822 568.938 261.344C545.492 273.063 527.905 292.617 522.062 316.062L438.031 316.062C426.305 316.062 414.594 325.816 414.594 339.5L414.594 562.219C402.869 566.138 389.204 570.031 375.531 570.031L375.531 173.406C400.922 165.597 420.452 148.039 430.219 124.594ZM91.9375 295.656C116.245 295.656 135.937 315.38 135.938 339.688C135.938 363.995 116.245 383.687 91.9375 383.688C67.63 383.688 47.9375 363.995 47.9375 339.688C47.9375 315.38 67.63 295.656 91.9375 295.656ZM604.938 295.656C629.245 295.656 648.938 315.38 648.938 339.688C648.938 363.995 629.245 383.687 604.938 383.688C580.63 383.688 560.937 363.995 560.938 339.688C560.938 315.38 580.63 295.656 604.938 295.656ZM174.281 362.969L238.75 362.969L238.75 542.688C187.953 515.339 148.863 470.402 131.281 415.688C152.774 405.927 168.424 386.408 174.281 362.969ZM461.5 362.969L522.062 362.969C527.905 386.408 545.472 407.891 568.938 417.656C549.401 472.343 512.302 517.277 461.5 542.688L461.5 362.969Z" fill="currentColor"  fill-rule="nonzero" opacity="1"/>
</svg>