<svg xmlns="http://www.w3.org/2000/svg" width="18" height="18" viewBox="0 0 18 18" fill="none">
  <g clip-path="url(#clip0_6142_5849)">
  <path fill-rule="evenodd" clip-rule="evenodd" d="M6.27497 0.00631911C6.14415 0.0196103 5.99682 0.0491015 5.89337 0.0827111C5.33305 0.264742 4.94868 0.717715 4.81996 1.34772C4.77881 1.54911 4.78097 1.38999 4.78097 4.23324C4.78097 5.93854 4.78349 6.87752 4.78822 6.92608C4.82191 7.27207 4.92098 7.54062 5.1056 7.78628C5.33445 8.0908 5.70528 8.31267 6.12737 8.39762C6.31277 8.43493 6.10436 8.43216 8.94977 8.43516C10.8481 8.43716 11.6169 8.43569 11.6894 8.42992C12.0347 8.40242 12.3135 8.30254 12.5618 8.11733C12.8784 7.88128 13.0928 7.52173 13.1829 7.07624C13.2211 6.88735 13.2194 7.02519 13.2194 4.20294C13.2194 2.41394 13.217 1.56024 13.2117 1.5065C13.176 1.13783 13.0575 0.839438 12.8473 0.588446C12.6216 0.318922 12.2787 0.123103 11.8887 0.0410663C11.6942 0.000134314 11.9348 0.00341751 9.01457 0.00187671C7.53947 0.00109911 6.30665 0.00310071 6.27497 0.00631911ZM6.37417 1.12953C6.29826 1.13688 6.21463 1.1599 6.16204 1.18793C6.11903 1.21086 6.05477 1.27098 6.02248 1.31851C5.96991 1.39588 5.92667 1.52476 5.91149 1.64924C5.90556 1.69787 5.90401 2.40962 5.90576 4.28624L5.90816 6.85664L5.92345 6.92253C5.94434 7.01251 5.97555 7.07456 6.02824 7.13089C6.10088 7.20854 6.20426 7.26056 6.35145 7.29352L6.42617 7.31024H9.02177C11.8413 7.31024 11.664 7.3128 11.7807 7.27048C11.8489 7.24571 11.8873 7.21975 11.9402 7.16266C12.0118 7.08534 12.0668 6.948 12.0884 6.79262C12.0987 6.71867 12.0991 1.74009 12.0889 1.61616C12.0804 1.51401 12.0673 1.45929 12.0349 1.39161C12.0112 1.34186 11.9541 1.2769 11.9048 1.24335C11.8623 1.2145 11.7882 1.18042 11.7288 1.16239C11.5864 1.11921 11.7676 1.12182 8.98217 1.12285C7.58033 1.12338 6.40673 1.12638 6.37417 1.12953ZM1.48337 9.57104C1.15443 9.60468 0.891706 9.70393 0.649203 9.88618C0.378015 10.09 0.176494 10.3981 0.073318 10.7667C0.046678 10.8619 0.0182812 11.0075 0.00784837 11.1026C0.00254917 11.1508 0.000187568 11.9866 0.000245168 13.799C0.000324368 16.6566 -0.00166283 16.5114 0.0401908 16.7151C0.171224 17.3529 0.639569 17.8049 1.32497 17.9552C1.52011 17.998 1.27802 17.9944 4.18337 17.9971C6.89852 17.9996 6.91929 17.9994 7.08137 17.9725C7.76409 17.8595 8.25545 17.3672 8.39915 16.6522C8.43645 16.4667 8.43368 16.6751 8.43668 13.8298C8.43953 11.1285 8.43918 11.0867 8.41232 10.921C8.34811 10.5249 8.15378 10.1849 7.85537 9.94647C7.65001 9.78241 7.37194 9.65605 7.09217 9.59969C6.90675 9.56233 7.11909 9.56503 4.24097 9.56337C2.11803 9.56214 1.55499 9.56371 1.48337 9.57104ZM11.045 9.57104C10.6883 9.60751 10.4016 9.72452 10.1484 9.93685C9.87937 10.1624 9.67993 10.5159 9.60121 10.9066C9.56388 11.0919 9.56665 10.8835 9.56365 13.729C9.56165 15.6274 9.56312 16.3961 9.56889 16.4686C9.59682 16.8193 9.6968 17.0956 9.8877 17.3496C10.0915 17.6208 10.3996 17.8223 10.7682 17.9255C10.8634 17.9521 11.0091 17.9805 11.1041 17.991C11.1523 17.9963 11.9881 17.9986 13.8005 17.9986C16.6582 17.9985 16.5129 18.0005 16.7166 17.9586C17.3543 17.8276 17.8065 17.3591 17.9567 16.6738C17.9995 16.4787 17.9959 16.7208 17.9986 13.8154C18.0004 11.8874 17.9988 11.1376 17.9929 11.0722C17.9609 10.7172 17.855 10.4398 17.6526 10.1811C17.4288 9.89487 17.0628 9.68188 16.6538 9.59966C16.4681 9.56233 16.6805 9.56503 13.8026 9.56337C11.6796 9.56214 11.1166 9.56371 11.045 9.57104ZM1.52657 10.7014C1.41638 10.7235 1.35107 10.7581 1.28357 10.8303C1.21059 10.9083 1.15847 11.0306 1.13442 11.1802C1.12471 11.2407 1.12345 11.5451 1.12358 13.7866C1.12368 15.3652 1.12637 16.3517 1.1307 16.3962C1.13864 16.478 1.15892 16.5585 1.18393 16.6077C1.25104 16.7396 1.40411 16.8297 1.62017 16.8644C1.68058 16.8741 1.98449 16.8754 4.22297 16.8752C5.6994 16.875 6.78792 16.8722 6.83055 16.8684C6.92334 16.86 6.98138 16.8451 7.04698 16.813C7.18505 16.7453 7.28225 16.5695 7.30862 16.3396C7.31372 16.2951 7.3153 15.456 7.31356 13.7074C7.31125 11.3826 7.30992 11.1359 7.29945 11.0902C7.28352 11.0208 7.25531 10.9485 7.22945 10.9109C7.17675 10.8344 7.07114 10.7636 6.95537 10.7272C6.83104 10.6881 7.01981 10.6906 4.1883 10.6913C2.07065 10.6919 1.56447 10.6938 1.52657 10.7014ZM11.0882 10.7014C11.0256 10.714 10.951 10.7428 10.9128 10.7691C10.815 10.8364 10.7416 10.964 10.707 11.1266L10.6918 11.1982L10.6938 13.8298C10.6957 16.3713 10.6963 16.463 10.7092 16.5082C10.7565 16.6735 10.8675 16.7792 11.0522 16.8349C11.195 16.878 11.0156 16.8754 13.7882 16.8752C15.3667 16.8751 16.3532 16.8724 16.3978 16.8681C16.4795 16.8602 16.56 16.8399 16.6092 16.8149C16.7407 16.748 16.8313 16.5941 16.8659 16.3786C16.8756 16.3182 16.8769 16.0143 16.8767 13.7758C16.8766 12.2994 16.8737 11.2109 16.8699 11.1683C16.8615 11.0755 16.8467 11.0174 16.8145 10.9518C16.7618 10.8443 16.6411 10.7593 16.4769 10.714L16.4054 10.6942L13.7702 10.6931C11.6212 10.6922 11.1263 10.6937 11.0882 10.7014Z" fill="#878D96"/>
  </g>
  <defs>
  <clipPath id="clip0_6142_5849">
  <rect width="18" height="18" fill="white" transform="translate(0.000244141 -0.000244141)"/>
  </clipPath>
  </defs>
  </svg>