<svg width="20" height="20" viewBox="0 0 20 20" fill="none" xmlns="http://www.w3.org/2000/svg">
<g clip-path="url(#clip0)">
<path d="M15 2.39418C13.5851 1.24935 11.8201 0.624756 10 0.624756C8.17991 0.624756 6.41495 1.24935 5 2.39418" stroke="white" stroke-width="1.5" stroke-linecap="round" stroke-linejoin="round"/>
<path d="M7.08337 5.40679C7.90887 4.7392 8.93839 4.375 10 4.375C11.0617 4.375 12.0912 4.7392 12.9167 5.40679" stroke="white" stroke-width="1.5" stroke-linecap="round" stroke-linejoin="round"/>
<path d="M0.625 11.5625C0.625 12.1427 0.855468 12.6991 1.2657 13.1093C1.67594 13.5195 2.23234 13.75 2.8125 13.75C3.39266 13.75 3.94906 13.5195 4.3593 13.1093C4.76953 12.6991 5 12.1427 5 11.5625C5 10.9823 4.76953 10.4259 4.3593 10.0157C3.94906 9.60547 3.39266 9.375 2.8125 9.375C2.23234 9.375 1.67594 9.60547 1.2657 10.0157C0.855468 10.4259 0.625 10.9823 0.625 11.5625V11.5625Z" stroke="white" stroke-width="1.5" stroke-linecap="round" stroke-linejoin="round"/>
<path d="M6.26167 16.6524C6.04068 16.1361 5.70652 15.676 5.28389 15.3061C4.86125 14.9362 4.36093 14.6659 3.81986 14.5153C3.27879 14.3647 2.71079 14.3375 2.15782 14.4358C1.60484 14.5341 1.08101 14.7554 0.625 15.0832" stroke="white" stroke-width="1.5" stroke-linecap="round" stroke-linejoin="round"/>
<path d="M15 11.5625C15 11.8498 15.0566 12.1342 15.1665 12.3996C15.2764 12.665 15.4376 12.9062 15.6407 13.1093C15.8438 13.3124 16.085 13.4736 16.3504 13.5835C16.6158 13.6934 16.9002 13.75 17.1875 13.75C17.4748 13.75 17.7592 13.6934 18.0246 13.5835C18.29 13.4736 18.5312 13.3124 18.7343 13.1093C18.9374 12.9062 19.0986 12.665 19.2085 12.3996C19.3184 12.1342 19.375 11.8498 19.375 11.5625C19.375 11.2752 19.3184 10.9908 19.2085 10.7254C19.0986 10.46 18.9374 10.2188 18.7343 10.0157C18.5312 9.81258 18.29 9.65145 18.0246 9.54151C17.7592 9.43158 17.4748 9.375 17.1875 9.375C16.9002 9.375 16.6158 9.43158 16.3504 9.54151C16.085 9.65145 15.8438 9.81258 15.6407 10.0157C15.4376 10.2188 15.2764 10.46 15.1665 10.7254C15.0566 10.9908 15 11.2752 15 11.5625V11.5625Z" stroke="white" stroke-width="1.5" stroke-linecap="round" stroke-linejoin="round"/>
<path d="M13.7383 16.6524C13.9593 16.1361 14.2934 15.676 14.7161 15.3061C15.1387 14.9362 15.639 14.6659 16.1801 14.5153C16.7212 14.3647 17.2892 14.3375 17.8421 14.4358C18.3951 14.5341 18.9189 14.7554 19.3749 15.0832" stroke="white" stroke-width="1.5" stroke-linecap="round" stroke-linejoin="round"/>
<path d="M7.1875 10.9375C7.1875 11.6834 7.48382 12.3988 8.01126 12.9262C8.53871 13.4537 9.25408 13.75 10 13.75C10.7459 13.75 11.4613 13.4537 11.9887 12.9262C12.5162 12.3988 12.8125 11.6834 12.8125 10.9375C12.8125 10.1916 12.5162 9.47621 11.9887 8.94876C11.4613 8.42132 10.7459 8.125 10 8.125C9.25408 8.125 8.53871 8.42132 8.01126 8.94876C7.48382 9.47621 7.1875 10.1916 7.1875 10.9375Z" fill="white" stroke="white" stroke-width="1.5" stroke-linecap="round" stroke-linejoin="round"/>
<path d="M15 19.3751C14.8372 18.1645 14.2407 17.054 13.3212 16.2498C12.4016 15.4457 11.2216 15.0024 10 15.0024C8.77844 15.0024 7.59837 15.4457 6.67885 16.2498C5.75932 17.054 5.16279 18.1645 5 19.3751" fill="white"/>
<path d="M15 19.3751C14.8372 18.1645 14.2407 17.054 13.3212 16.2498C12.4016 15.4457 11.2216 15.0024 10 15.0024C8.77844 15.0024 7.59837 15.4457 6.67885 16.2498C5.75932 17.054 5.16279 18.1645 5 19.3751H15Z" stroke="white" stroke-width="1.5" stroke-linecap="round" stroke-linejoin="round"/>
</g>
<defs>
<clipPath id="clip0">
<rect width="20" height="20" fill="white"/>
</clipPath>
</defs>
</svg>
