<svg width="24" height="25" viewBox="0 0 24 25" fill="none" xmlns="http://www.w3.org/2000/svg">
<path d="M10.5 13.0259C10.5005 13.2851 10.3981 13.5339 10.2153 13.7176C10.0325 13.9014 9.78421 14.0051 9.525 14.0059H1.725C1.59662 14.0056 1.46954 13.98 1.35104 13.9306C1.23254 13.8812 1.12494 13.809 1.03439 13.7179C0.943842 13.6269 0.872118 13.519 0.823321 13.4002C0.774524 13.2814 0.74961 13.1542 0.750005 13.0259V2.23586C0.749742 2.10743 0.774778 1.9802 0.823685 1.86144C0.872591 1.74269 0.944409 1.63472 1.03504 1.54372C1.12567 1.45272 1.23334 1.38046 1.35189 1.33107C1.47045 1.28168 1.59757 1.25612 1.726 1.25586L9.526 1.26886C9.78504 1.26992 10.0331 1.3737 10.2157 1.55743C10.3983 1.74116 10.5005 1.98982 10.5 2.24886V13.0259Z" stroke="currentColor" stroke-width="1.5" stroke-linecap="round" stroke-linejoin="round"/>
<path d="M23.246 7.04389C23.2442 7.30071 23.1405 7.54629 22.9576 7.72667C22.7748 7.90706 22.5279 8.00748 22.271 8.00589H14.471C14.3438 8.00681 14.2177 7.98265 14.0998 7.93479C13.982 7.88693 13.8747 7.81631 13.7841 7.72697C13.6936 7.63762 13.6215 7.53131 13.5721 7.4141C13.5227 7.29689 13.4968 7.17109 13.496 7.04389V2.23088C13.4976 1.97433 13.601 1.72889 13.7834 1.54851C13.9659 1.36813 14.2125 1.26755 14.469 1.26888L22.269 1.25588C22.5261 1.25402 22.7734 1.3543 22.9566 1.53468C23.1398 1.71506 23.2439 1.9608 23.246 2.21788V7.04389Z" stroke="currentColor" stroke-width="1.5" stroke-linecap="round" stroke-linejoin="round"/>
<path d="M10.5 22.7909C10.4992 22.9184 10.4733 23.0445 10.4238 23.162C10.3743 23.2795 10.3021 23.3861 10.2114 23.4757C10.1206 23.5653 10.0132 23.6362 9.89505 23.6843C9.77694 23.7323 9.65051 23.7567 9.523 23.7559L1.723 23.7429C1.46618 23.7439 1.21944 23.643 1.03699 23.4622C0.854547 23.2815 0.751323 23.0357 0.75 22.7789V17.9699C0.750655 17.8425 0.776401 17.7166 0.825766 17.5992C0.875131 17.4818 0.947148 17.3753 1.0377 17.2858C1.12825 17.1963 1.23556 17.1255 1.35349 17.0774C1.47142 17.0294 1.59766 17.0051 1.725 17.0059H9.525C9.78209 17.0045 10.0292 17.1053 10.212 17.2861C10.3948 17.4668 10.4984 17.7128 10.5 17.9699V22.7909Z" stroke="currentColor" stroke-width="1.5" stroke-linecap="round" stroke-linejoin="round"/>
<path d="M14.472 23.7559C14.3435 23.7556 14.2163 23.73 14.0976 23.6806C13.979 23.6311 13.8713 23.5588 13.7807 23.4676C13.69 23.3765 13.6182 23.2685 13.5694 23.1496C13.5205 23.0307 13.4956 22.9034 13.496 22.7749V11.9869C13.4956 11.8584 13.5205 11.7312 13.5693 11.6124C13.6181 11.4936 13.6898 11.3855 13.7803 11.2944C13.8708 11.2033 13.9784 11.131 14.0969 11.0815C14.2154 11.0319 14.3425 11.0063 14.471 11.0059H22.271C22.3994 11.0063 22.5265 11.0319 22.645 11.0815C22.7635 11.131 22.8711 11.2033 22.9616 11.2944C23.0522 11.3855 23.1239 11.4936 23.1727 11.6124C23.2215 11.7312 23.2464 11.8584 23.246 11.9869V22.7619C23.2465 23.021 23.1443 23.2698 22.9617 23.4536C22.7791 23.6375 22.5311 23.7415 22.272 23.7429L14.472 23.7559Z" stroke="currentColor" stroke-width="1.5" stroke-linecap="round" stroke-linejoin="round"/>
</svg>
