<?xml version="1.0" encoding="UTF-8" standalone="no"?>
<!DOCTYPE svg PUBLIC "-//W3C//DTD SVG 1.1//EN"
 "http://www.w3.org/Graphics/SVG/1.1/DTD/svg11.dtd">
<!-- Generated by graphviz version 2.49.0 (20210828.1703)
 -->
<!-- Title: G Pages: 1 -->
<svg width="509pt" height="1255pt"
 viewBox="0.00 0.00 509.20 1255.20" xmlns="http://www.w3.org/2000/svg" xmlns:xlink="http://www.w3.org/1999/xlink">
<g id="graph0" class="graph" transform="scale(1 1) rotate(0) translate(21.6 1233.6)">
<title>G</title>
<polygon fill="#111111" stroke="transparent" points="-21.6,21.6 -21.6,-1233.6 487.6,-1233.6 487.6,21.6 -21.6,21.6"/>
<!-- ../styles/globals.css -->
<g id="node1" class="node">
<title>../styles/globals.css</title>
<path fill="none" stroke="#cfffac" d="M458.33,-23C458.33,-23 336.67,-23 336.67,-23 332.83,-23 329,-19.17 329,-15.33 329,-15.33 329,-7.67 329,-7.67 329,-3.83 332.83,0 336.67,0 336.67,0 458.33,0 458.33,0 462.17,0 466,-3.83 466,-7.67 466,-7.67 466,-15.33 466,-15.33 466,-19.17 462.17,-23 458.33,-23"/>
<text text-anchor="middle" x="397.5" y="-7.8" font-family="Arial" font-size="14.00" fill="#cfffac">../styles/globals.css</text>
</g>
<!-- _app.js -->
<g id="node2" class="node">
<title>_app.js</title>
<path fill="none" stroke="#c6c5fe" d="M169.83,-23C169.83,-23 123.17,-23 123.17,-23 119.33,-23 115.5,-19.17 115.5,-15.33 115.5,-15.33 115.5,-7.67 115.5,-7.67 115.5,-3.83 119.33,0 123.17,0 123.17,0 169.83,0 169.83,0 173.67,0 177.5,-3.83 177.5,-7.67 177.5,-7.67 177.5,-15.33 177.5,-15.33 177.5,-19.17 173.67,-23 169.83,-23"/>
<text text-anchor="middle" x="146.5" y="-7.8" font-family="Arial" font-size="14.00" fill="#c6c5fe">_app.js</text>
</g>
<!-- _app.js&#45;&gt;../styles/globals.css -->
<g id="edge1" class="edge">
<title>_app.js&#45;&gt;../styles/globals.css</title>
<path fill="none" stroke="#757575" d="M177.54,-11.5C212.31,-11.5 270.95,-11.5 318.8,-11.5"/>
<polygon fill="#757575" stroke="#757575" points="318.83,-15 328.83,-11.5 318.83,-8 318.83,-15"/>
</g>
<!-- _document.js -->
<g id="node3" class="node">
<title>_document.js</title>
<path fill="none" stroke="#cfffac" d="M188.83,-64C188.83,-64 104.17,-64 104.17,-64 100.33,-64 96.5,-60.17 96.5,-56.33 96.5,-56.33 96.5,-48.67 96.5,-48.67 96.5,-44.83 100.33,-41 104.17,-41 104.17,-41 188.83,-41 188.83,-41 192.67,-41 196.5,-44.83 196.5,-48.67 196.5,-48.67 196.5,-56.33 196.5,-56.33 196.5,-60.17 192.67,-64 188.83,-64"/>
<text text-anchor="middle" x="146.5" y="-48.8" font-family="Arial" font-size="14.00" fill="#cfffac">_document.js</text>
</g>
<!-- classroom/private/tree/index.js -->
<g id="node4" class="node">
<title>classroom/private/tree/index.js</title>
<path fill="none" stroke="#cfffac" d="M241.83,-105C241.83,-105 51.17,-105 51.17,-105 47.33,-105 43.5,-101.17 43.5,-97.33 43.5,-97.33 43.5,-89.67 43.5,-89.67 43.5,-85.83 47.33,-82 51.17,-82 51.17,-82 241.83,-82 241.83,-82 245.67,-82 249.5,-85.83 249.5,-89.67 249.5,-89.67 249.5,-97.33 249.5,-97.33 249.5,-101.17 245.67,-105 241.83,-105"/>
<text text-anchor="middle" x="146.5" y="-89.8" font-family="Arial" font-size="14.00" fill="#cfffac">classroom/private/tree/index.js</text>
</g>
<!-- classroom/private/welcome.js -->
<g id="node5" class="node">
<title>classroom/private/welcome.js</title>
<path fill="none" stroke="#cfffac" d="M238.33,-146C238.33,-146 54.67,-146 54.67,-146 50.83,-146 47,-142.17 47,-138.33 47,-138.33 47,-130.67 47,-130.67 47,-126.83 50.83,-123 54.67,-123 54.67,-123 238.33,-123 238.33,-123 242.17,-123 246,-126.83 246,-130.67 246,-130.67 246,-138.33 246,-138.33 246,-142.17 242.17,-146 238.33,-146"/>
<text text-anchor="middle" x="146.5" y="-130.8" font-family="Arial" font-size="14.00" fill="#cfffac">classroom/private/welcome.js</text>
</g>
<!-- dataset/index.js -->
<g id="node6" class="node">
<title>dataset/index.js</title>
<path fill="none" stroke="#cfffac" d="M195.83,-187C195.83,-187 97.17,-187 97.17,-187 93.33,-187 89.5,-183.17 89.5,-179.33 89.5,-179.33 89.5,-171.67 89.5,-171.67 89.5,-167.83 93.33,-164 97.17,-164 97.17,-164 195.83,-164 195.83,-164 199.67,-164 203.5,-167.83 203.5,-171.67 203.5,-171.67 203.5,-179.33 203.5,-179.33 203.5,-183.17 199.67,-187 195.83,-187"/>
<text text-anchor="middle" x="146.5" y="-171.8" font-family="Arial" font-size="14.00" fill="#cfffac">dataset/index.js</text>
</g>
<!-- families/index.js -->
<g id="node7" class="node">
<title>families/index.js</title>
<path fill="none" stroke="#cfffac" d="M196.33,-228C196.33,-228 96.67,-228 96.67,-228 92.83,-228 89,-224.17 89,-220.33 89,-220.33 89,-212.67 89,-212.67 89,-208.83 92.83,-205 96.67,-205 96.67,-205 196.33,-205 196.33,-205 200.17,-205 204,-208.83 204,-212.67 204,-212.67 204,-220.33 204,-220.33 204,-224.17 200.17,-228 196.33,-228"/>
<text text-anchor="middle" x="146.5" y="-212.8" font-family="Arial" font-size="14.00" fill="#cfffac">families/index.js</text>
</g>
<!-- families/private/config.js -->
<g id="node8" class="node">
<title>families/private/config.js</title>
<path fill="none" stroke="#cfffac" d="M221.33,-269C221.33,-269 71.67,-269 71.67,-269 67.83,-269 64,-265.17 64,-261.33 64,-261.33 64,-253.67 64,-253.67 64,-249.83 67.83,-246 71.67,-246 71.67,-246 221.33,-246 221.33,-246 225.17,-246 229,-249.83 229,-253.67 229,-253.67 229,-261.33 229,-261.33 229,-265.17 225.17,-269 221.33,-269"/>
<text text-anchor="middle" x="146.5" y="-253.8" font-family="Arial" font-size="14.00" fill="#cfffac">families/private/config.js</text>
</g>
<!-- families/private/detail/[[...id]].js -->
<g id="node9" class="node">
<title>families/private/detail/[[...id]].js</title>
<path fill="none" stroke="#cfffac" d="M240.33,-310C240.33,-310 52.67,-310 52.67,-310 48.83,-310 45,-306.17 45,-302.33 45,-302.33 45,-294.67 45,-294.67 45,-290.83 48.83,-287 52.67,-287 52.67,-287 240.33,-287 240.33,-287 244.17,-287 248,-290.83 248,-294.67 248,-294.67 248,-302.33 248,-302.33 248,-306.17 244.17,-310 240.33,-310"/>
<text text-anchor="middle" x="146.5" y="-294.8" font-family="Arial" font-size="14.00" fill="#cfffac">families/private/detail/[[...id]].js</text>
</g>
<!-- families/private/list.js -->
<g id="node10" class="node">
<title>families/private/list.js</title>
<path fill="none" stroke="#cfffac" d="M211.33,-351C211.33,-351 81.67,-351 81.67,-351 77.83,-351 74,-347.17 74,-343.33 74,-343.33 74,-335.67 74,-335.67 74,-331.83 77.83,-328 81.67,-328 81.67,-328 211.33,-328 211.33,-328 215.17,-328 219,-331.83 219,-335.67 219,-335.67 219,-343.33 219,-343.33 219,-347.17 215.17,-351 211.33,-351"/>
<text text-anchor="middle" x="146.5" y="-335.8" font-family="Arial" font-size="14.00" fill="#cfffac">families/private/list.js</text>
</g>
<!-- index.js -->
<g id="node11" class="node">
<title>index.js</title>
<path fill="none" stroke="#cfffac" d="M170.83,-392C170.83,-392 122.17,-392 122.17,-392 118.33,-392 114.5,-388.17 114.5,-384.33 114.5,-384.33 114.5,-376.67 114.5,-376.67 114.5,-372.83 118.33,-369 122.17,-369 122.17,-369 170.83,-369 170.83,-369 174.67,-369 178.5,-372.83 178.5,-376.67 178.5,-376.67 178.5,-384.33 178.5,-384.33 178.5,-388.17 174.67,-392 170.83,-392"/>
<text text-anchor="middle" x="146.5" y="-376.8" font-family="Arial" font-size="14.00" fill="#cfffac">index.js</text>
</g>
<!-- layout/index.js -->
<g id="node12" class="node">
<title>layout/index.js</title>
<path fill="none" stroke="#cfffac" d="M191.33,-433C191.33,-433 101.67,-433 101.67,-433 97.83,-433 94,-429.17 94,-425.33 94,-425.33 94,-417.67 94,-417.67 94,-413.83 97.83,-410 101.67,-410 101.67,-410 191.33,-410 191.33,-410 195.17,-410 199,-413.83 199,-417.67 199,-417.67 199,-425.33 199,-425.33 199,-429.17 195.17,-433 191.33,-433"/>
<text text-anchor="middle" x="146.5" y="-417.8" font-family="Arial" font-size="14.00" fill="#cfffac">layout/index.js</text>
</g>
<!-- menu&#45;builder/index.js -->
<g id="node13" class="node">
<title>menu&#45;builder/index.js</title>
<path fill="none" stroke="#cfffac" d="M213.83,-474C213.83,-474 79.17,-474 79.17,-474 75.33,-474 71.5,-470.17 71.5,-466.33 71.5,-466.33 71.5,-458.67 71.5,-458.67 71.5,-454.83 75.33,-451 79.17,-451 79.17,-451 213.83,-451 213.83,-451 217.67,-451 221.5,-454.83 221.5,-458.67 221.5,-458.67 221.5,-466.33 221.5,-466.33 221.5,-470.17 217.67,-474 213.83,-474"/>
<text text-anchor="middle" x="146.5" y="-458.8" font-family="Arial" font-size="14.00" fill="#cfffac">menu&#45;builder/index.js</text>
</g>
<!-- mvp&#45;template/index.js -->
<g id="node14" class="node">
<title>mvp&#45;template/index.js</title>
<path fill="none" stroke="#cfffac" d="M215.33,-515C215.33,-515 77.67,-515 77.67,-515 73.83,-515 70,-511.17 70,-507.33 70,-507.33 70,-499.67 70,-499.67 70,-495.83 73.83,-492 77.67,-492 77.67,-492 215.33,-492 215.33,-492 219.17,-492 223,-495.83 223,-499.67 223,-499.67 223,-507.33 223,-507.33 223,-511.17 219.17,-515 215.33,-515"/>
<text text-anchor="middle" x="146.5" y="-499.8" font-family="Arial" font-size="14.00" fill="#cfffac">mvp&#45;template/index.js</text>
</g>
<!-- onboarding/email&#45;provider.js -->
<g id="node15" class="node">
<title>onboarding/email&#45;provider.js</title>
<path fill="none" stroke="#cfffac" d="M234.83,-556C234.83,-556 58.17,-556 58.17,-556 54.33,-556 50.5,-552.17 50.5,-548.33 50.5,-548.33 50.5,-540.67 50.5,-540.67 50.5,-536.83 54.33,-533 58.17,-533 58.17,-533 234.83,-533 234.83,-533 238.67,-533 242.5,-536.83 242.5,-540.67 242.5,-540.67 242.5,-548.33 242.5,-548.33 242.5,-552.17 238.67,-556 234.83,-556"/>
<text text-anchor="middle" x="146.5" y="-540.8" font-family="Arial" font-size="14.00" fill="#cfffac">onboarding/email&#45;provider.js</text>
</g>
<!-- onboarding/email&#45;provider/[providerName].js -->
<g id="node16" class="node">
<title>onboarding/email&#45;provider/[providerName].js</title>
<path fill="none" stroke="#cfffac" d="M285.33,-597C285.33,-597 7.67,-597 7.67,-597 3.83,-597 0,-593.17 0,-589.33 0,-589.33 0,-581.67 0,-581.67 0,-577.83 3.83,-574 7.67,-574 7.67,-574 285.33,-574 285.33,-574 289.17,-574 293,-577.83 293,-581.67 293,-581.67 293,-589.33 293,-589.33 293,-593.17 289.17,-597 285.33,-597"/>
<text text-anchor="middle" x="146.5" y="-581.8" font-family="Arial" font-size="14.00" fill="#cfffac">onboarding/email&#45;provider/[providerName].js</text>
</g>
<!-- onboarding/index.js -->
<g id="node17" class="node">
<title>onboarding/index.js</title>
<path fill="none" stroke="#cfffac" d="M207.83,-638C207.83,-638 85.17,-638 85.17,-638 81.33,-638 77.5,-634.17 77.5,-630.33 77.5,-630.33 77.5,-622.67 77.5,-622.67 77.5,-618.83 81.33,-615 85.17,-615 85.17,-615 207.83,-615 207.83,-615 211.67,-615 215.5,-618.83 215.5,-622.67 215.5,-622.67 215.5,-630.33 215.5,-630.33 215.5,-634.17 211.67,-638 207.83,-638"/>
<text text-anchor="middle" x="146.5" y="-622.8" font-family="Arial" font-size="14.00" fill="#cfffac">onboarding/index.js</text>
</g>
<!-- users/index.js -->
<g id="node18" class="node">
<title>users/index.js</title>
<path fill="none" stroke="#cfffac" d="M189.83,-679C189.83,-679 103.17,-679 103.17,-679 99.33,-679 95.5,-675.17 95.5,-671.33 95.5,-671.33 95.5,-663.67 95.5,-663.67 95.5,-659.83 99.33,-656 103.17,-656 103.17,-656 189.83,-656 189.83,-656 193.67,-656 197.5,-659.83 197.5,-663.67 197.5,-663.67 197.5,-671.33 197.5,-671.33 197.5,-675.17 193.67,-679 189.83,-679"/>
<text text-anchor="middle" x="146.5" y="-663.8" font-family="Arial" font-size="14.00" fill="#cfffac">users/index.js</text>
</g>
<!-- users/private/profiles/detail/[[...id]].js -->
<g id="node19" class="node">
<title>users/private/profiles/detail/[[...id]].js</title>
<path fill="none" stroke="#cfffac" d="M258.33,-720C258.33,-720 34.67,-720 34.67,-720 30.83,-720 27,-716.17 27,-712.33 27,-712.33 27,-704.67 27,-704.67 27,-700.83 30.83,-697 34.67,-697 34.67,-697 258.33,-697 258.33,-697 262.17,-697 266,-700.83 266,-704.67 266,-704.67 266,-712.33 266,-712.33 266,-716.17 262.17,-720 258.33,-720"/>
<text text-anchor="middle" x="146.5" y="-704.8" font-family="Arial" font-size="14.00" fill="#cfffac">users/private/profiles/detail/[[...id]].js</text>
</g>
<!-- users/private/profiles/list.js -->
<g id="node20" class="node">
<title>users/private/profiles/list.js</title>
<path fill="none" stroke="#cfffac" d="M229.33,-761C229.33,-761 63.67,-761 63.67,-761 59.83,-761 56,-757.17 56,-753.33 56,-753.33 56,-745.67 56,-745.67 56,-741.83 59.83,-738 63.67,-738 63.67,-738 229.33,-738 229.33,-738 233.17,-738 237,-741.83 237,-745.67 237,-745.67 237,-753.33 237,-753.33 237,-757.17 233.17,-761 229.33,-761"/>
<text text-anchor="middle" x="146.5" y="-745.8" font-family="Arial" font-size="14.00" fill="#cfffac">users/private/profiles/list.js</text>
</g>
<!-- users/private/profiles/wellcome.js -->
<g id="node21" class="node">
<title>users/private/profiles/wellcome.js</title>
<path fill="none" stroke="#cfffac" d="M249.83,-802C249.83,-802 43.17,-802 43.17,-802 39.33,-802 35.5,-798.17 35.5,-794.33 35.5,-794.33 35.5,-786.67 35.5,-786.67 35.5,-782.83 39.33,-779 43.17,-779 43.17,-779 249.83,-779 249.83,-779 253.67,-779 257.5,-782.83 257.5,-786.67 257.5,-786.67 257.5,-794.33 257.5,-794.33 257.5,-798.17 253.67,-802 249.83,-802"/>
<text text-anchor="middle" x="146.5" y="-786.8" font-family="Arial" font-size="14.00" fill="#cfffac">users/private/profiles/wellcome.js</text>
</g>
<!-- users/private/select&#45;profile.js -->
<g id="node22" class="node">
<title>users/private/select&#45;profile.js</title>
<path fill="none" stroke="#cfffac" d="M235.83,-843C235.83,-843 57.17,-843 57.17,-843 53.33,-843 49.5,-839.17 49.5,-835.33 49.5,-835.33 49.5,-827.67 49.5,-827.67 49.5,-823.83 53.33,-820 57.17,-820 57.17,-820 235.83,-820 235.83,-820 239.67,-820 243.5,-823.83 243.5,-827.67 243.5,-827.67 243.5,-835.33 243.5,-835.33 243.5,-839.17 239.67,-843 235.83,-843"/>
<text text-anchor="middle" x="146.5" y="-827.8" font-family="Arial" font-size="14.00" fill="#cfffac">users/private/select&#45;profile.js</text>
</g>
<!-- users/private/user&#45;data.js -->
<g id="node23" class="node">
<title>users/private/user&#45;data.js</title>
<path fill="none" stroke="#cfffac" d="M225.83,-884C225.83,-884 67.17,-884 67.17,-884 63.33,-884 59.5,-880.17 59.5,-876.33 59.5,-876.33 59.5,-868.67 59.5,-868.67 59.5,-864.83 63.33,-861 67.17,-861 67.17,-861 225.83,-861 225.83,-861 229.67,-861 233.5,-864.83 233.5,-868.67 233.5,-868.67 233.5,-876.33 233.5,-876.33 233.5,-880.17 229.67,-884 225.83,-884"/>
<text text-anchor="middle" x="146.5" y="-868.8" font-family="Arial" font-size="14.00" fill="#cfffac">users/private/user&#45;data.js</text>
</g>
<!-- users/private/users/detail/[[...id]].js -->
<g id="node24" class="node">
<title>users/private/users/detail/[[...id]].js</title>
<path fill="none" stroke="#cfffac" d="M252.83,-925C252.83,-925 40.17,-925 40.17,-925 36.33,-925 32.5,-921.17 32.5,-917.33 32.5,-917.33 32.5,-909.67 32.5,-909.67 32.5,-905.83 36.33,-902 40.17,-902 40.17,-902 252.83,-902 252.83,-902 256.67,-902 260.5,-905.83 260.5,-909.67 260.5,-909.67 260.5,-917.33 260.5,-917.33 260.5,-921.17 256.67,-925 252.83,-925"/>
<text text-anchor="middle" x="146.5" y="-909.8" font-family="Arial" font-size="14.00" fill="#cfffac">users/private/users/detail/[[...id]].js</text>
</g>
<!-- users/private/users/list.js -->
<g id="node25" class="node">
<title>users/private/users/list.js</title>
<path fill="none" stroke="#cfffac" d="M223.83,-966C223.83,-966 69.17,-966 69.17,-966 65.33,-966 61.5,-962.17 61.5,-958.33 61.5,-958.33 61.5,-950.67 61.5,-950.67 61.5,-946.83 65.33,-943 69.17,-943 69.17,-943 223.83,-943 223.83,-943 227.67,-943 231.5,-946.83 231.5,-950.67 231.5,-950.67 231.5,-958.33 231.5,-958.33 231.5,-962.17 227.67,-966 223.83,-966"/>
<text text-anchor="middle" x="146.5" y="-950.8" font-family="Arial" font-size="14.00" fill="#cfffac">users/private/users/list.js</text>
</g>
<!-- users/private/welcome.js -->
<g id="node26" class="node">
<title>users/private/welcome.js</title>
<path fill="none" stroke="#cfffac" d="M223.83,-1007C223.83,-1007 69.17,-1007 69.17,-1007 65.33,-1007 61.5,-1003.17 61.5,-999.33 61.5,-999.33 61.5,-991.67 61.5,-991.67 61.5,-987.83 65.33,-984 69.17,-984 69.17,-984 223.83,-984 223.83,-984 227.67,-984 231.5,-987.83 231.5,-991.67 231.5,-991.67 231.5,-999.33 231.5,-999.33 231.5,-1003.17 227.67,-1007 223.83,-1007"/>
<text text-anchor="middle" x="146.5" y="-991.8" font-family="Arial" font-size="14.00" fill="#cfffac">users/private/welcome.js</text>
</g>
<!-- users/public/auth/login.js -->
<g id="node27" class="node">
<title>users/public/auth/login.js</title>
<path fill="none" stroke="#cfffac" d="M223.83,-1048C223.83,-1048 69.17,-1048 69.17,-1048 65.33,-1048 61.5,-1044.17 61.5,-1040.33 61.5,-1040.33 61.5,-1032.67 61.5,-1032.67 61.5,-1028.83 65.33,-1025 69.17,-1025 69.17,-1025 223.83,-1025 223.83,-1025 227.67,-1025 231.5,-1028.83 231.5,-1032.67 231.5,-1032.67 231.5,-1040.33 231.5,-1040.33 231.5,-1044.17 227.67,-1048 223.83,-1048"/>
<text text-anchor="middle" x="146.5" y="-1032.8" font-family="Arial" font-size="14.00" fill="#cfffac">users/public/auth/login.js</text>
</g>
<!-- users/public/auth/logout.js -->
<g id="node28" class="node">
<title>users/public/auth/logout.js</title>
<path fill="none" stroke="#cfffac" d="M227.83,-1089C227.83,-1089 65.17,-1089 65.17,-1089 61.33,-1089 57.5,-1085.17 57.5,-1081.33 57.5,-1081.33 57.5,-1073.67 57.5,-1073.67 57.5,-1069.83 61.33,-1066 65.17,-1066 65.17,-1066 227.83,-1066 227.83,-1066 231.67,-1066 235.5,-1069.83 235.5,-1073.67 235.5,-1073.67 235.5,-1081.33 235.5,-1081.33 235.5,-1085.17 231.67,-1089 227.83,-1089"/>
<text text-anchor="middle" x="146.5" y="-1073.8" font-family="Arial" font-size="14.00" fill="#cfffac">users/public/auth/logout.js</text>
</g>
<!-- users/public/login.js -->
<g id="node29" class="node">
<title>users/public/login.js</title>
<path fill="none" stroke="#cfffac" d="M208.33,-1130C208.33,-1130 84.67,-1130 84.67,-1130 80.83,-1130 77,-1126.17 77,-1122.33 77,-1122.33 77,-1114.67 77,-1114.67 77,-1110.83 80.83,-1107 84.67,-1107 84.67,-1107 208.33,-1107 208.33,-1107 212.17,-1107 216,-1110.83 216,-1114.67 216,-1114.67 216,-1122.33 216,-1122.33 216,-1126.17 212.17,-1130 208.33,-1130"/>
<text text-anchor="middle" x="146.5" y="-1114.8" font-family="Arial" font-size="14.00" fill="#cfffac">users/public/login.js</text>
</g>
<!-- users/public/recover.js -->
<g id="node30" class="node">
<title>users/public/recover.js</title>
<path fill="none" stroke="#cfffac" d="M216.33,-1171C216.33,-1171 76.67,-1171 76.67,-1171 72.83,-1171 69,-1167.17 69,-1163.33 69,-1163.33 69,-1155.67 69,-1155.67 69,-1151.83 72.83,-1148 76.67,-1148 76.67,-1148 216.33,-1148 216.33,-1148 220.17,-1148 224,-1151.83 224,-1155.67 224,-1155.67 224,-1163.33 224,-1163.33 224,-1167.17 220.17,-1171 216.33,-1171"/>
<text text-anchor="middle" x="146.5" y="-1155.8" font-family="Arial" font-size="14.00" fill="#cfffac">users/public/recover.js</text>
</g>
<!-- users/public/reset.js -->
<g id="node31" class="node">
<title>users/public/reset.js</title>
<path fill="none" stroke="#cfffac" d="M208.83,-1212C208.83,-1212 84.17,-1212 84.17,-1212 80.33,-1212 76.5,-1208.17 76.5,-1204.33 76.5,-1204.33 76.5,-1196.67 76.5,-1196.67 76.5,-1192.83 80.33,-1189 84.17,-1189 84.17,-1189 208.83,-1189 208.83,-1189 212.67,-1189 216.5,-1192.83 216.5,-1196.67 216.5,-1196.67 216.5,-1204.33 216.5,-1204.33 216.5,-1208.17 212.67,-1212 208.83,-1212"/>
<text text-anchor="middle" x="146.5" y="-1196.8" font-family="Arial" font-size="14.00" fill="#cfffac">users/public/reset.js</text>
</g>
</g>
</svg>
