<svg width="48" height="47" viewBox="0 0 48 47" fill="none" xmlns="http://www.w3.org/2000/svg">
<path d="M24 46V28" stroke="currentColor" stroke-width="1.5" stroke-linecap="round" stroke-linejoin="round"/>
<path d="M16.5 35.5L24 28L31.5 35.5" stroke="currentColor" stroke-width="1.5" stroke-linecap="round" stroke-linejoin="round"/>
<path d="M34.5007 30.9991H36.7507C38.2804 31.0017 39.7892 30.6443 41.1552 29.9559C42.5213 29.2674 43.7061 28.2672 44.6141 27.0361C45.522 25.805 46.1275 24.3775 46.3817 22.8691C46.6359 21.3607 46.5315 19.8136 46.0771 18.3529C45.6227 16.8923 44.831 15.559 43.766 14.461C42.701 13.3629 41.3926 12.5308 39.9465 12.032C38.5004 11.5332 36.9573 11.3817 35.4418 11.5896C33.9263 11.7976 32.481 12.3592 31.2227 13.2291C30.7204 10.555 29.5003 8.06795 27.693 6.03413C25.8856 4.00032 23.5592 2.49639 20.9627 1.68337C18.3662 0.870357 15.5974 0.77888 12.9529 1.41874C10.3084 2.05859 7.88772 3.40569 5.95009 5.31577C4.01245 7.22585 2.63083 9.62699 1.95317 12.2621C1.27551 14.8971 1.32733 17.6669 2.10307 20.2748C2.87882 22.8827 4.34928 25.2304 6.35701 27.0667C8.36473 28.903 10.8341 30.1586 13.5007 30.6991" stroke="currentColor" stroke-width="1.5" stroke-linecap="round" stroke-linejoin="round"/>
</svg>
