<svg width="18" height="18" viewBox="0 0 18 18" fill="none" xmlns="http://www.w3.org/2000/svg">
<path fill-rule="evenodd" clip-rule="evenodd" d="M1.45479 0.764112C0.789268 0.831036 0.219301 1.32286 0.0510519 1.9754C0.00137185 2.16808 0.00398545 2.08428 0.00398545 3.48484V4.74844L0.0199551 4.79884C0.0431246 4.87197 0.0829551 4.9353 0.144436 4.99679C0.203886 5.05624 0.267088 5.0967 0.338785 5.12123L0.385585 5.13724L8.97879 5.13921C16.8156 5.141 17.5766 5.14016 17.6242 5.12971C17.7949 5.09226 17.9545 4.93332 17.9884 4.76705C17.9932 4.74342 17.9995 4.72174 18.0024 4.71886C18.0108 4.71045 18.0088 2.25204 18.0004 2.25724C17.9961 2.2599 17.9932 2.25102 17.9932 2.23519C17.9932 2.18955 17.9714 2.05954 17.9496 1.97495C17.8288 1.5065 17.4944 1.10667 17.0549 0.905283C16.8884 0.828992 16.7117 0.780795 16.5357 0.763688C16.4389 0.754277 1.54842 0.754695 1.45479 0.764112ZM1.49874 1.75357C1.2628 1.8048 1.08269 1.96941 1.01066 2.19964L0.990386 2.26444L0.988434 3.21304L0.986476 4.16164H9.00039H17.0143L17.0123 3.21304L17.0104 2.26444L16.9901 2.19964C16.9626 2.11173 16.9205 2.03531 16.8635 1.96998C16.7739 1.86717 16.6802 1.805 16.5565 1.76625L16.492 1.74604L9.01839 1.7448C2.66467 1.74375 1.53789 1.74506 1.49874 1.75357ZM0.00390625 3.49204C0.00390625 4.17118 0.00474865 4.44901 0.00578545 4.10944C0.00682225 3.76987 0.00682225 3.21421 0.00578545 2.87464C0.00474865 2.53507 0.00390625 2.8129 0.00390625 3.49204ZM1.55199 6.81078C1.49154 6.82066 1.4533 6.83307 1.40428 6.85871C1.27859 6.92445 1.18908 7.03454 1.14727 7.17484C1.13498 7.21605 1.13428 7.38412 1.1322 10.8108C1.13072 13.2415 1.13246 14.4596 1.13758 14.5768C1.15108 14.8855 1.186 15.0828 1.27454 15.3504C1.50805 16.0564 2.01657 16.6389 2.68239 16.963C2.98106 17.1084 3.27809 17.1941 3.61119 17.2309C3.73944 17.2451 14.2613 17.2451 14.3896 17.2309C14.7227 17.1941 15.0196 17.1084 15.3184 16.963C16.1487 16.5589 16.7256 15.7547 16.8445 14.8356C16.8695 14.6422 16.8707 14.4439 16.8685 10.8072C16.8665 7.38394 16.8658 7.21605 16.8535 7.17484C16.8117 7.03457 16.7223 6.92461 16.5965 6.85865C16.5257 6.82156 16.4691 6.80886 16.3732 6.80853C16.2295 6.80803 16.1329 6.84874 16.0267 6.95459C15.9741 7.00704 15.9597 7.02683 15.9321 7.08484C15.9141 7.12246 15.8968 7.16296 15.8937 7.17484C15.8905 7.18672 15.8861 8.87152 15.8838 10.9188L15.8797 14.6412L15.864 14.7369C15.83 14.9426 15.7764 15.1102 15.6896 15.282C15.5994 15.4606 15.5013 15.5965 15.3619 15.736C15.1164 15.9815 14.8247 16.1419 14.4863 16.2173C14.2918 16.2607 14.7023 16.2576 9.00039 16.2576C4.39046 16.2576 3.77307 16.2564 3.69081 16.2468C3.00469 16.1665 2.43023 15.6994 2.21161 15.0441C2.17729 14.9413 2.15033 14.8266 2.13042 14.6988C2.12338 14.6536 2.1206 13.8402 2.11752 10.9188C2.11372 7.32452 2.11312 7.19508 2.10029 7.15684C2.07304 7.07567 2.03733 7.01869 1.97354 6.95459C1.90589 6.88661 1.84824 6.85041 1.76941 6.8264C1.71428 6.80961 1.60655 6.80187 1.55199 6.81078ZM7.25799 7.197C7.01252 7.22648 6.8122 7.29186 6.62439 7.40377C6.24351 7.63072 5.99032 8.0134 5.89456 8.50684C5.86407 8.664 5.86118 8.72503 5.86126 9.2114C5.86134 9.69974 5.86531 9.78102 5.89707 9.94487C5.93186 10.1244 5.9983 10.2971 6.0903 10.4472C6.33374 10.8445 6.73931 11.0926 7.28688 11.1793C7.36508 11.1917 7.45903 11.1924 9.01119 11.1924C10.3111 11.1924 10.6693 11.1905 10.732 11.1831C11.074 11.1428 11.3548 11.0241 11.5893 10.8208C11.8873 10.5625 12.0803 10.1648 12.1322 9.70204C12.1364 9.66498 12.1394 9.43843 12.1394 9.17284C12.1393 8.69654 12.1346 8.58987 12.1078 8.45065C12.0233 8.01266 11.7782 7.6584 11.4067 7.43709C11.2227 7.32746 11.0226 7.25544 10.7644 7.20582L10.6816 7.1899L9.01119 7.18848C7.62823 7.1873 7.32654 7.18877 7.25799 7.197ZM7.32519 8.1827C7.20319 8.20484 7.12486 8.24206 7.04834 8.31424C6.95411 8.40313 6.89461 8.52546 6.86155 8.69828C6.84746 8.77193 6.84693 8.79568 6.84941 9.24586C6.85195 9.70543 6.85239 9.71787 6.86809 9.77764C6.91919 9.97218 7.0359 10.09 7.24683 10.1602C7.40569 10.213 7.28659 10.2096 9.01444 10.2096C10.0412 10.2096 10.5874 10.2071 10.6278 10.2022C10.7563 10.1865 10.8559 10.1483 10.9307 10.0861C11.0314 10.0022 11.1016 9.86722 11.1383 9.68651C11.1524 9.61728 11.1532 9.58958 11.1532 9.16725C11.1532 8.63495 11.1503 8.60641 11.0829 8.47084C11.0445 8.39363 10.9544 8.30819 10.8652 8.26443C10.7812 8.22324 10.7298 8.20581 10.6363 8.18676C10.5648 8.17218 10.5485 8.17205 8.97046 8.17269C7.69619 8.17321 7.36645 8.17522 7.32519 8.1827Z" fill="currentColor"/>
</svg>
