<svg stroke-width="1.5" viewBox="0 0 24 24" fill="none" xmlns="http://www.w3.org/2000/svg">
  <path d="M16.875,23.248H3.447a.819.819,0,0,1-.822-.815V1.727A.983.983,0,0,1,3.612.748H20.388a.983.983,0,0,1,.987.979V4.5" fill="none" stroke="currentColor" stroke-linecap="round" stroke-linejoin="round"></path>
  <path d="M21.375 17.674L16.875 19.701 16.875 13.113 21.375 11.086 21.375 17.674z" fill="none" stroke="currentColor" stroke-linecap="round" stroke-linejoin="round"></path>
  <path d="M21.375,22.235c0,.56-.672,1.013-1.5,1.013h-3V19.7l4.5-2.027Z" fill="none" stroke="currentColor" stroke-linecap="round" stroke-linejoin="round"></path>
  <path d="M21.375,11.087l-4.5,2.026V7.539a2.063,2.063,0,0,1,1.248-1.576L21.375,4.5Z" fill="none" stroke="currentColor" stroke-linecap="round" stroke-linejoin="round"></path>
</svg>
