<svg width="240" height="209" viewBox="0 0 240 209" fill="none" xmlns="http://www.w3.org/2000/svg">
<path d="M182.077 117.153L126.576 206.485C125.974 207.452 125.036 208.161 123.942 208.475C122.848 208.789 121.676 208.686 120.654 208.186L2.23211 150.134C1.76394 149.907 1.34511 149.59 0.999551 149.201C0.653995 148.812 0.388479 148.358 0.218172 147.867C0.0478643 147.375 -0.0238991 146.855 0.00698212 146.335C0.0378634 145.816 0.170785 145.307 0.398151 144.839C0.803701 144.002 -3.94996 149.403 72.5245 67.4869C73.2059 66.7566 74.0975 66.2562 75.0759 66.055C76.0543 65.8538 77.071 65.9618 77.9853 66.3639L180.156 110.886C180.726 111.136 181.235 111.505 181.649 111.97C182.063 112.435 182.372 112.983 182.554 113.578C182.737 114.173 182.789 114.801 182.706 115.418C182.624 116.035 182.409 116.626 182.077 117.153Z" fill="white"/>
<path d="M171.963 114.301L120.784 193.691L13.8018 141.46L77.3564 71.9684L171.963 114.301Z" fill="white"/>
<path d="M121.323 194.039C121.265 194.129 121.185 194.203 121.091 194.255C120.996 194.306 120.891 194.333 120.784 194.333C120.554 194.333 125.598 196.739 13.5195 142.037C13.4298 141.994 13.3517 141.93 13.2911 141.85C13.2306 141.771 13.1894 141.678 13.1709 141.58C13.1523 141.482 13.1569 141.381 13.1842 141.285C13.2115 141.189 13.2609 141.101 13.3283 141.027L76.8829 71.536C76.974 71.4359 77.0945 71.3673 77.2271 71.3399C77.3596 71.3124 77.4974 71.3276 77.6208 71.3832C179.18 116.815 172.45 113.682 172.579 114.12C172.707 114.558 176.303 108.799 121.323 194.039ZM14.8542 141.26L120.553 192.865L171.018 114.578L77.5181 72.7436L14.8542 141.26Z" fill="#2F473F"/>
<path d="M168.87 120.943C166.651 121.216 158.654 121.822 155.513 122.081C152.534 122.273 149.576 122.707 146.667 123.378C144.016 124.02 140.686 126 140.122 128.68C139.557 131.36 140.763 134.356 142.067 136.647C146.11 143.72 150.912 150.329 156.39 156.359L162.499 149.716C159.184 144.632 156.158 139.364 153.436 133.939C156.894 133.811 159.66 133.554 162.975 133.554L168.87 120.943Z" fill="white"/>
<path d="M101.837 123.435L95.3675 140.092C95.3161 140.228 95.3078 140.376 95.3438 140.517C95.3797 140.657 95.4582 140.784 95.5685 140.878C95.6788 140.972 95.8156 141.031 95.9601 141.044C96.1046 141.058 96.25 141.027 96.3762 140.956L112.225 131.738L101.837 123.435Z" fill="#B1E400"/>
<path d="M168.058 68.6688C169.442 67.332 170.6 65.7799 171.488 64.073L172.386 69.8354C172.386 69.9637 170.498 72.6589 170.267 72.9335C169.179 71.242 167.051 69.6416 168.058 68.6688Z" fill="white"/>
<path d="M130.74 108.134C130.206 108.248 129.819 108.811 129.299 109.099C128.881 109.266 128.431 109.337 127.982 109.308C127.533 109.278 127.097 109.147 126.705 108.926C126.389 108.739 126.014 108.677 125.654 108.753C125.536 108.813 125.432 108.899 125.35 109.004C125.268 109.108 125.209 109.229 125.178 109.359C124.891 110.539 126.663 111.865 127.772 111.376C125.961 112.171 124.941 110.832 123.868 111.851C123.69 112.049 123.592 112.306 123.592 112.572C123.592 112.837 123.69 113.094 123.868 113.292C124.689 113.841 125.688 114.057 126.663 113.897C126.049 114.089 125.491 114.425 125.034 114.877C123.999 115.747 124.948 116.96 126.244 116.001C128.579 114.674 130.38 112.527 132.901 111.678L130.74 108.134Z" fill="white"/>
<path d="M209.158 2.42178C210.502 3.53064 211.351 5.12801 211.517 6.86256C211.684 8.5971 211.154 10.3268 210.046 11.6711L206.088 16.4736C205.144 17.6175 203.785 18.3397 202.309 18.4815C200.833 18.6232 199.361 18.1729 198.217 17.2295L196.706 15.9833C196.14 15.5163 195.671 14.9423 195.326 14.2941C194.982 13.6458 194.768 12.9361 194.698 12.2053C194.627 11.4745 194.702 10.737 194.916 10.035C195.131 9.33294 195.482 8.68005 195.949 8.1136L199.91 3.31117C201.018 1.96718 202.615 1.11849 204.349 0.951705C206.084 0.784924 207.813 1.31371 209.158 2.42178Z" fill="#B1E400"/>
<path d="M210.541 12.0792C211.758 10.6035 212.339 8.70487 212.156 6.80096C211.973 4.89705 211.041 3.14383 209.565 1.92699C208.834 1.32447 207.992 0.871766 207.087 0.594735C206.181 0.317703 205.23 0.221764 204.287 0.312396C202.383 0.495434 200.63 1.4273 199.413 2.903C200.818 0.825198 114.453 106.893 101.683 122.547C101.17 123.181 101.772 121.632 94.7681 139.863C94.6709 140.122 94.6557 140.405 94.7247 140.673C94.7937 140.941 94.9435 141.181 95.1538 141.361C95.3641 141.541 95.6246 141.652 95.9 141.678C96.1754 141.705 96.4524 141.646 96.6932 141.51C113.173 132.044 112.366 132.506 112.992 131.75C189.247 38.1576 123.843 118.43 210.541 12.0792ZM95.9655 140.324L101.061 127.207C102.003 130.003 105.792 132.692 108.761 132.982L95.9655 140.324ZM209.553 11.263L205.592 16.0654C204.756 17.0767 203.553 17.715 202.247 17.8404C200.941 17.9657 199.638 17.5679 198.625 16.7341L197.114 15.4879C196.103 14.6523 195.464 13.4495 195.338 12.1434C195.213 10.8373 195.611 9.53471 196.444 8.52167L200.405 3.71923C201.413 2.53227 202.848 1.78973 204.4 1.65209C205.951 1.51445 207.494 1.99276 208.696 2.98366C209.898 3.97455 210.661 5.39846 210.821 6.94767C210.982 8.49687 210.526 10.047 209.553 11.263Z" fill="#2F473F"/>
<path d="M173.929 37.3953L188.296 19.827C188.57 19.5105 188.957 19.3133 189.374 19.2774C189.791 19.2415 190.206 19.3698 190.53 19.6348C190.854 19.8999 191.062 20.281 191.11 20.697C191.157 21.113 191.041 21.5311 190.785 21.8625L176.417 39.4307C176.143 39.7473 175.756 39.9445 175.339 39.9803C174.922 40.0162 174.507 39.888 174.183 39.6229C173.859 39.3578 173.651 38.9768 173.604 38.5608C173.556 38.1448 173.673 37.7267 173.929 37.3953Z" fill="white"/>
<path d="M175.233 35.5447C174.25 34.8981 173.128 34.4931 171.959 34.3629C170.79 34.2326 169.606 34.3808 168.505 34.7952L174.715 48.2708C178.469 52.1488 180.864 57.1382 181.544 62.492C181.874 60.9141 182.033 59.3053 182.019 57.6934C182.036 49.6722 181.864 40.0699 175.233 35.5447Z" fill="#B1E400"/>
<path d="M180.908 62.5639C180.236 57.3489 177.903 52.4889 174.253 48.7033C174.194 48.6427 174.148 48.5711 174.117 48.4925C174.085 48.414 174.07 48.33 174.071 48.2455C174.072 48.1609 174.09 48.0774 174.123 47.9997C174.157 47.9221 174.205 47.8517 174.266 47.7927C174.326 47.7337 174.398 47.6873 174.476 47.656C174.555 47.6246 174.639 47.6091 174.723 47.6102C174.808 47.6114 174.891 47.6291 174.969 47.6626C175.047 47.696 175.117 47.7443 175.176 47.8049C178.082 50.82 180.21 54.4971 181.376 58.5186C181.514 52.5855 181.576 46.3816 179.078 41.1506C178.184 39.0903 176.725 37.3249 174.871 36.0581C173.972 35.4715 172.948 35.1045 171.882 34.9868C170.815 34.8691 169.736 35.0039 168.731 35.3805C168.651 35.4291 168.561 35.4595 168.467 35.4695C168.374 35.4795 168.279 35.469 168.191 35.4385C168.102 35.408 168.021 35.3584 167.953 35.2932C167.885 35.228 167.833 35.1487 167.799 35.061C167.766 34.9733 167.752 34.8793 167.759 34.7856C167.765 34.6919 167.793 34.6009 167.838 34.5189C167.884 34.4368 167.947 34.3659 168.023 34.311C168.1 34.256 168.187 34.2185 168.279 34.201C169.475 33.7532 170.76 33.5935 172.03 33.7349C173.299 33.8763 174.517 34.3147 175.586 35.0147C177.638 36.4122 179.254 38.3625 180.244 40.6398C182.716 45.8131 182.798 51.6679 182.661 57.7088C182.691 59.3625 182.527 61.0141 182.171 62.6293C182.137 62.7768 182.053 62.9076 181.932 62.9989C181.812 63.0901 181.663 63.1359 181.512 63.128C181.361 63.1202 181.217 63.0593 181.107 62.9561C180.996 62.8529 180.926 62.714 180.908 62.5639Z" fill="#2F473F"/>
<path d="M169.024 67.7615C167.897 69.1627 166.362 70.178 164.632 70.6661C162.902 71.1542 161.062 71.0908 159.37 70.4848C150.724 67.3867 148.076 53.5852 154.878 47.6187C159.523 43.5376 168.526 42.1169 171.649 47.6033C172.39 49.3832 172.677 51.3192 172.485 53.2374C172.059 57.9115 172.756 62.5176 169.024 67.7615Z" fill="white"/>
<path d="M164.672 57.6561C164.315 56.7167 163.224 56.4369 162.765 56.8989C162.336 57.2828 161.822 57.5604 161.266 57.7091C160.71 57.8578 160.127 57.8735 159.564 57.7549C159.479 57.7431 159.393 57.7484 159.31 57.7703C159.228 57.7923 159.15 57.8305 159.083 57.8827C159.015 57.935 158.959 58.0003 158.917 58.0747C158.874 58.1491 158.848 58.2311 158.838 58.316C158.828 58.4009 158.835 58.4869 158.859 58.569C158.883 58.6511 158.923 58.7276 158.976 58.7941C159.03 58.8605 159.097 58.9156 159.172 58.956C159.247 58.9964 159.33 59.0213 159.415 59.0293C160.535 59.2041 161.683 59.0293 162.7 58.5288C162.817 59.0242 163.111 59.7249 163.844 59.7673C164.98 59.8314 164.98 58.4672 164.672 57.6561Z" fill="#2F473F"/>
<path d="M156.341 60.4231C155.984 59.4836 154.895 59.2039 154.435 59.6659C154.006 60.0508 153.491 60.3289 152.933 60.4774C152.376 60.6259 151.791 60.6407 151.227 60.5206C151.143 60.5108 151.058 60.5177 150.977 60.5407C150.896 60.5637 150.82 60.6025 150.754 60.6548C150.688 60.7071 150.633 60.7719 150.592 60.8456C150.551 60.9192 150.524 61.0003 150.515 61.084C150.505 61.1678 150.512 61.2527 150.535 61.3338C150.558 61.4149 150.596 61.4907 150.649 61.5568C150.701 61.623 150.766 61.6782 150.84 61.7193C150.913 61.7603 150.994 61.7865 151.078 61.7963C152.199 61.9703 153.346 61.7955 154.363 61.2958C154.48 61.7899 154.774 62.4919 155.507 62.533C156.649 62.5984 156.649 61.2342 156.341 60.4231Z" fill="#2F473F"/>
<path d="M214.957 120.701C213.719 111.624 212.666 102.576 208.964 94.089C203.431 81.4387 193.979 69.5943 180.858 65.3591C179.748 64.9133 178.546 64.745 177.357 64.8689C173.164 65.5748 169.749 73.3559 167.819 76.6119C166.288 79.1949 164.889 81.8472 163.621 84.5689C160.977 86.5573 158.276 88.4644 155.519 90.2902C151.326 88.4563 146.927 87.1384 142.416 86.3656C140.952 86.0551 139.446 86.0012 137.963 86.2065C137.274 86.3157 136.614 86.5616 136.022 86.9297C135.43 87.2978 134.917 87.7808 134.515 88.3501C134.112 88.9194 133.827 89.5635 133.678 90.2445C133.528 90.9255 133.516 91.6296 133.642 92.3154C134.162 95.2107 136.284 97.3796 138.891 98.9813C138.526 99.0545 138.159 99.1199 137.791 99.1738C135.533 99.3435 133.427 100.375 131.908 102.054C131.144 103.051 130.675 104.242 130.552 105.492C130.43 106.742 130.66 108.002 131.216 109.128C131.803 110.242 132.653 111.196 133.693 111.907C134.732 112.618 135.93 113.063 137.181 113.205C139.866 113.323 142.535 112.732 144.919 111.49C149.249 109.649 154.428 107.737 158.138 104.491C160.863 104.899 163.601 105.206 166.352 105.411C166.957 105.502 167.575 105.437 168.148 105.224C169.584 104.47 169.343 103.496 174.488 98.4218C174.488 98.5501 178.368 109.812 173.912 143.318C188.715 139.961 202.487 133.075 214.054 123.246C214.389 122.998 214.665 122.679 214.861 122.311C215.046 121.794 215.079 121.236 214.957 120.701Z" fill="#E2FD86"/>
<path d="M157.007 65.7094C156.907 65.7095 156.808 65.6859 156.718 65.6406C156.628 65.5953 156.55 65.5295 156.49 65.4486C156.431 65.3677 156.391 65.2738 156.374 65.1747C156.357 65.0755 156.364 64.9738 156.394 64.8778C156.881 63.3008 157.259 61.6924 157.526 60.0638C157.542 59.9725 157.542 59.8791 157.526 59.7878C157.163 59.3456 156.759 58.9383 156.321 58.5712C156.195 58.4609 156.117 58.3057 156.103 58.1386C156.09 57.9716 156.143 57.8061 156.25 57.6774C156.357 57.5487 156.511 57.4671 156.677 57.4499C156.844 57.4327 157.011 57.4814 157.142 57.5855C157.59 57.96 158.006 58.3708 158.386 58.8138C158.565 59.0074 158.696 59.2413 158.766 59.496C158.837 59.7506 158.845 60.0184 158.79 60.2768C158.514 61.9616 158.123 63.6254 157.618 65.2563C157.578 65.3871 157.497 65.5016 157.387 65.5831C157.277 65.6646 157.144 65.7089 157.007 65.7094Z" fill="#2F473F"/>
<path d="M176.761 45.8886C177.965 48.906 178.458 52.16 178.201 55.3985C178.161 58.9863 177.774 62.5617 177.046 66.075C176.334 69.9251 174.698 73.5446 172.277 76.6219C172.86 70.95 172.256 65.2188 170.505 59.7928C169.315 56.2187 167.161 53.0427 164.28 50.6153C164.94 53.7558 164.922 53.5877 164.886 53.7558C164.813 53.9727 164.525 53.9547 164.31 53.9432C162.204 53.8415 160.123 54.434 158.387 55.6295C155.865 57.0295 153.673 58.9553 151.961 61.2764C150.251 63.6187 149.438 66.4967 149.67 69.3874C147.377 65.5444 146.278 61.1061 146.514 56.637C146.322 52.3599 147.225 48.1045 149.138 44.2741C150.205 42.2638 151.721 40.5266 153.568 39.1971C155.416 37.8677 157.544 36.9819 159.79 36.6085C166.918 35.3482 173.663 39.5641 176.761 45.8886Z" fill="#B1E400"/>
<path d="M161.373 56.8912C161.237 56.8916 161.104 56.8487 160.994 56.7687C160.884 56.6887 160.802 56.5757 160.76 56.4461C160.719 56.3165 160.719 56.177 160.762 56.0478C160.805 55.9185 160.888 55.8062 160.999 55.7271C161.715 55.2099 162.561 54.9018 163.442 54.8372C164.324 54.7726 165.205 54.9541 165.99 55.3614C166.065 55.4001 166.131 55.4531 166.186 55.5175C166.24 55.5819 166.281 55.6564 166.307 55.7367C166.332 55.8171 166.342 55.9016 166.335 55.9857C166.328 56.0697 166.304 56.1515 166.266 56.2264C166.227 56.3013 166.174 56.3679 166.109 56.4223C166.045 56.4767 165.971 56.5179 165.89 56.5435C165.81 56.5691 165.725 56.5787 165.641 56.5716C165.557 56.5645 165.476 56.541 165.401 56.5023C164.827 56.2041 164.181 56.0712 163.536 56.1186C162.89 56.1659 162.271 56.3917 161.747 56.7705C161.638 56.8488 161.507 56.891 161.373 56.8912Z" fill="#2F473F"/>
<path d="M159.682 67.3444C159.6 67.3229 159.524 67.2856 159.457 67.2346C159.39 67.1835 159.333 67.1198 159.291 67.047C159.249 66.9741 159.221 66.8937 159.21 66.8102C159.198 66.7267 159.203 66.6417 159.225 66.5603C159.246 66.4788 159.284 66.4023 159.335 66.3353C159.386 66.2682 159.45 66.2118 159.522 66.1694C159.595 66.127 159.676 66.0993 159.759 66.088C159.843 66.0767 159.928 66.0819 160.009 66.1034C160.53 66.2394 161.077 66.2394 161.598 66.1034C161.925 65.9105 162.205 65.6483 162.42 65.3351C162.634 65.022 162.777 64.6657 162.839 64.2912C162.859 64.209 162.895 64.1315 162.945 64.0632C162.995 63.995 163.058 63.9373 163.131 63.8935C163.203 63.8497 163.284 63.8207 163.367 63.8081C163.451 63.7956 163.536 63.7997 163.618 63.8203C163.701 63.8408 163.778 63.8774 163.846 63.928C163.914 63.9785 163.971 64.042 164.014 64.1148C164.057 64.1876 164.086 64.2682 164.098 64.352C164.11 64.4358 164.105 64.5211 164.084 64.6031C163.984 65.191 163.742 65.7456 163.379 66.2189C163.016 66.6921 162.543 67.0696 162.001 67.3187C161.244 67.5325 160.443 67.5414 159.682 67.3444Z" fill="#2F473F"/>
<path d="M135.852 85.4941C135.794 85.1657 135.671 84.852 135.491 84.5713C135.4 84.4207 135.264 84.3023 135.102 84.2323C134.94 84.1623 134.761 84.1442 134.589 84.1805C134.416 84.2169 134.259 84.3058 134.14 84.4352C134.02 84.5645 133.943 84.7277 133.92 84.9024C133.849 85.2543 133.849 85.6171 133.92 85.9689C133.752 85.4278 133.441 84.9419 133.02 84.5618C132.6 84.1817 132.085 83.9213 131.529 83.8077C131.418 83.7712 131.299 83.7653 131.185 83.7906C131.071 83.8158 130.965 83.8714 130.88 83.9515C130.84 84.0398 130.819 84.1356 130.819 84.2325C130.819 84.3295 130.84 84.4253 130.88 84.5136C130.95 84.8218 131.062 85.1192 131.211 85.3978C130.892 84.9782 130.326 84.7189 129.928 85.0128C129.779 85.1445 129.674 85.319 129.628 85.5124C129.582 85.7059 129.597 85.9088 129.671 86.0934C129.798 86.3959 129.978 86.6733 130.202 86.9122C130.042 86.8338 129.858 86.8187 129.688 86.8698C129.517 86.921 129.372 87.0347 129.281 87.1882C129.192 87.3884 129.153 87.6074 129.169 87.8259C129.184 88.0445 129.252 88.2561 129.368 88.442C130.294 89.8299 131.708 90.8179 133.33 91.209C133.5 90.2113 133.83 89.2475 134.307 88.3548C134.742 87.693 135.325 87.1413 136.01 86.7428C135.981 86.3239 135.928 85.907 135.852 85.4941Z" fill="white"/>
<path d="M181.54 132.09C180.818 131.694 180.236 131.085 179.872 130.346C179.513 129.333 179.581 129.17 179.424 125.249C179.306 122.264 179.183 119.178 179.167 116.137C179.168 115.986 179.222 115.839 179.32 115.724C179.417 115.608 179.553 115.531 179.702 115.506C179.852 115.481 180.005 115.509 180.136 115.586C180.266 115.663 180.365 115.784 180.415 115.927C180.714 116.794 181.105 117.626 181.582 118.409C182.34 119.741 183.473 120.821 184.84 121.514C187.792 122.991 191.483 122.746 192.901 119.71C192.963 119.578 193.068 119.471 193.199 119.406C193.33 119.342 193.479 119.324 193.622 119.356C193.764 119.387 193.892 119.467 193.983 119.581C194.074 119.695 194.124 119.836 194.124 119.982C194.124 121.82 194.038 123.779 193.867 125.969C193.835 126.684 193.697 127.389 193.458 128.063C192.769 129.262 191.813 130.286 190.665 131.056C189.516 131.826 188.205 132.321 186.834 132.502C185.076 132.989 183.202 132.843 181.54 132.09ZM180.498 119.084C180.546 121.137 180.794 127.343 180.831 128.413C180.82 128.902 180.896 129.39 181.055 129.853C181.298 130.312 181.668 130.692 182.121 130.946C183.519 131.561 185.088 131.667 186.556 131.247C188.751 130.877 191.33 129.578 192.275 127.571C192.458 127.027 192.564 126.46 192.588 125.886C192.698 124.508 192.773 123.232 192.812 122.024C189.8 124.92 183.317 123.963 180.498 119.084Z" fill="#2F473F"/>
<path d="M163.898 61.9055C163.898 62.8334 164.266 63.7232 164.922 64.3793C165.579 65.0354 166.468 65.404 167.396 65.404C168.324 65.404 169.214 65.0354 169.87 64.3793C170.526 63.7232 170.895 62.8334 170.895 61.9055C170.895 60.9776 170.526 60.0878 169.87 59.4317C169.214 58.7756 168.324 58.407 167.396 58.407C166.468 58.407 165.579 58.7756 164.922 59.4317C164.266 60.0878 163.898 60.9776 163.898 61.9055Z" fill="#FF5470"/>
<path d="M159.34 152.872C160.928 151.444 161.993 149.527 162.367 147.425C163.646 151.013 165.777 154.237 168.577 156.82C169.163 157.339 169.698 157.913 170.176 158.534C171.083 160.345 171.253 162.436 170.651 164.37C170.22 166.53 169.657 168.661 168.966 170.752C168.966 170.897 168.879 170.825 168.721 170.839L166.386 170.955C166.213 169.428 166.157 168.174 165.84 166.387C165.78 166.389 165.723 166.405 165.67 166.432C165.618 166.459 165.572 166.498 165.537 166.545C163.058 168.93 159.982 170.602 156.632 171.386C155.033 171.943 153.335 172.159 151.647 172.02C151.407 171.986 151.189 171.86 151.042 171.668C150.894 171.476 150.827 171.234 150.855 170.993C150.949 170.749 151.108 170.535 151.315 170.375C152.454 169.348 153.709 168.46 154.802 167.377C156.693 165.507 159.038 162.469 157.684 159.712C157.087 158.53 156.282 157.466 155.307 156.571L153.289 154.467C155.437 154.746 157.609 154.173 159.34 152.872Z" fill="#B1E400"/>
<path d="M220.274 166.261L219.337 159.216L195.967 161.535L201.37 153.307L184.368 156.203C183.399 161.08 180.133 165.761 183.648 170.612C185.823 173.162 189.68 173.234 193.017 172.947C202.146 172.179 211.138 170.242 219.774 167.183C219.93 167.142 220.073 167.063 220.191 166.953C220.251 166.85 220.289 166.735 220.304 166.616C220.318 166.497 220.308 166.376 220.274 166.261Z" fill="white"/>
<path d="M230.778 153.751C230.771 153.366 230.642 152.994 230.408 152.688C230.175 152.382 229.85 152.159 229.481 152.05C228.878 151.959 228.817 152.027 224.928 152.886C223.941 153.034 222.974 153.295 222.047 153.664C221.386 154.038 220.795 154.526 220.303 155.105C219.282 156.287 218.069 157.986 216.47 158.462C214.959 158.715 213.434 158.878 211.903 158.952C216.12 158.905 217.908 165.672 213.863 169.629L224.193 167.049C230.353 165.348 232.219 166.111 237.867 167.64C238.045 167.715 238.236 167.754 238.428 167.754C238.621 167.754 238.812 167.715 238.99 167.64C239.466 167.323 239.362 166.59 239.135 166.055C237.939 163.252 235.259 161.387 232.665 159.758C232.665 159.63 231.542 159.065 231.382 158.967C228.743 157.323 228.311 157.156 227.463 156.56C229.399 154.739 230.631 154.733 230.762 153.793C230.763 153.813 230.778 153.779 230.778 153.751Z" fill="#B1E400"/>
<path d="M239.727 165.807C238.492 162.872 235.794 160.971 233.116 159.285C232.767 158.988 232.378 158.742 231.961 158.553C231.586 158.352 228.711 156.61 228.519 156.49C230.041 155.252 231.177 155.098 231.388 153.95C231.408 153.885 231.419 153.818 231.419 153.751V153.737C231.414 153.358 231.319 152.986 231.142 152.651C230.966 152.316 230.712 152.028 230.403 151.809C230.094 151.591 229.737 151.449 229.362 151.394C228.988 151.34 228.605 151.375 228.247 151.496L224.833 152.252C223.77 152.413 222.729 152.699 221.734 153.104C220.767 153.676 219.925 154.436 219.258 155.338C218.519 156.415 217.508 157.277 216.328 157.836C214.84 158.074 213.341 158.233 211.836 158.313C211.721 158.325 211.612 158.368 211.52 158.437C211.427 158.506 211.355 158.598 211.311 158.704C211.266 158.811 211.251 158.927 211.268 159.041C211.284 159.155 211.33 159.263 211.402 159.353L197.236 160.765L199.836 156.804C201.563 157.327 203.405 157.332 205.134 156.821L205.481 156.754C206.016 156.738 206.543 156.616 207.03 156.393C207.517 156.171 207.955 155.854 208.318 155.46C208.502 155.125 208.615 154.755 208.649 154.374C208.683 153.993 208.638 153.609 208.516 153.247C208.131 151.647 209.111 149.464 209.897 147.71C210.539 146.288 210.249 146.908 211.437 143.973C214.032 137.594 216.668 130.882 214.435 123.625C214.818 123.224 215.175 122.799 215.503 122.352C215.59 122.226 215.63 122.073 215.614 121.92C213.304 99.1531 208.243 88.7114 200.268 78.3673C194.563 70.9789 186.265 65.6618 178.048 64.1217C178.548 61.2611 178.809 58.364 178.83 55.4602C179.091 52.1235 178.584 48.7712 177.346 45.6615C176.496 43.9098 175.369 42.3065 174.01 40.913C174.309 40.6511 174.528 40.3091 174.64 39.9272C174.753 39.5453 174.754 39.1394 174.644 38.7569C174.533 38.4586 174.346 38.1948 174.1 37.992C173.855 37.7892 173.561 37.6546 173.247 37.6018C173.24 36.9855 173.094 36.3788 172.819 35.8272C172.543 35.2757 172.147 34.7938 171.658 34.4177C171.141 34.0728 170.545 33.8652 169.925 33.8145C169.306 33.7638 168.684 33.8715 168.118 34.1277C167.831 33.6734 167.428 33.305 166.949 33.0615C166.471 32.8179 165.935 32.7083 165.399 32.7442C164.712 32.8372 164.087 33.1903 163.652 33.7306C163.218 34.2709 163.007 34.9574 163.064 35.6485C163.073 35.6973 163.084 35.7448 163.096 35.7935C160.14 35.6319 157.2 36.3193 154.622 37.7748C152.045 39.2302 149.938 41.3928 148.55 44.0072C146.601 47.9145 145.677 52.2529 145.864 56.6152C145.615 61.2125 146.745 65.7794 149.109 69.7301C149.184 69.8553 149.298 69.9515 149.434 70.003C149.57 70.0544 149.72 70.0581 149.859 70.0133C149.997 69.9685 150.116 69.878 150.196 69.7566C150.277 69.6352 150.313 69.4901 150.3 69.3451C150.13 67.1682 150.581 64.9877 151.6 63.0565C152.373 65.3043 153.7 67.3211 155.458 68.9203C157.054 70.4597 159.133 71.4008 161.343 71.5846C163.552 71.7684 165.758 71.1836 167.586 69.9291C168.342 70.7738 168.988 71.7098 169.511 72.7153C167.373 75.9611 165.444 79.3399 163.736 82.8309C161.249 85.4135 158.441 87.6655 155.38 89.5315C151.263 87.7644 146.951 86.4898 142.534 85.734C140.564 85.2681 138.506 85.3363 136.571 85.9316C136.528 85.3333 136.345 84.7534 136.037 84.2388C135.907 84.0265 135.727 83.8497 135.512 83.7245C135.297 83.5994 135.054 83.5297 134.806 83.5218C134.557 83.5139 134.31 83.568 134.088 83.6793C133.865 83.7906 133.674 83.9556 133.532 84.1593C133.033 83.6734 132.407 83.3399 131.726 83.198C131.506 83.1257 131.27 83.1142 131.044 83.1648C130.819 83.2155 130.611 83.3262 130.442 83.4855C130.261 83.6996 130.169 83.9754 130.186 84.2555C129.953 84.2993 129.734 84.3972 129.546 84.5413C129.358 84.6854 129.207 84.8716 129.104 85.0849C129.002 85.2982 128.95 85.5327 128.955 85.7694C128.96 86.0061 129.02 86.2384 129.131 86.4475C128.8 86.7349 128.588 87.1347 128.534 87.5696C128.481 88.0045 128.591 88.4437 128.842 88.8025C129.807 90.2518 131.261 91.3055 132.939 91.771C133.097 93.0938 133.535 94.3678 134.223 95.5085C134.912 96.6491 135.835 97.6303 136.931 98.3869C134.831 98.9351 132.924 100.054 131.42 101.618C130.76 102.473 130.298 103.463 130.065 104.518C129.833 105.573 129.838 106.666 130.078 107.718C129.636 107.975 129.316 108.347 129.073 108.5C128.747 108.631 128.395 108.688 128.044 108.666C127.693 108.644 127.351 108.543 127.044 108.372C126.587 108.1 126.044 108.01 125.524 108.121C125.286 108.206 125.073 108.349 124.905 108.538C124.737 108.726 124.62 108.954 124.563 109.201C124.503 109.478 124.502 109.764 124.561 110.042C124.62 110.319 124.738 110.58 124.906 110.809C124.626 110.803 124.348 110.854 124.089 110.959C123.829 111.064 123.594 111.22 123.397 111.418C123.114 111.734 122.958 112.143 122.958 112.566C122.958 112.99 123.114 113.399 123.397 113.714C123.769 114.006 124.192 114.227 124.644 114.366L124.629 114.38C124.366 114.537 124.161 114.775 124.046 115.059C123.931 115.342 123.911 115.655 123.991 115.951C124.07 116.246 124.244 116.508 124.485 116.696C124.727 116.883 125.023 116.987 125.329 116.991C125.776 116.967 126.207 116.815 126.569 116.553C128.929 115.213 130.735 113.088 133.114 112.281L133.171 112.259C134.35 113.108 135.728 113.639 137.173 113.799C139.94 113.931 142.694 113.337 145.162 112.077C149.784 110.09 154.267 107.791 158.578 105.197C161.14 105.569 163.704 105.85 166.269 106.041C167.013 106.149 167.771 106.061 168.469 105.784C169.005 105.498 169.47 105.095 169.83 104.605C171.27 102.856 172.626 101.047 173.899 99.1774C174.77 104.502 175.237 109.884 175.297 115.279C171.607 117.766 167.412 119.403 163.013 120.074C162.924 120.087 162.839 120.119 162.763 120.168C162.687 120.216 162.622 120.281 162.572 120.356C162.523 120.431 162.49 120.516 162.475 120.606C162.461 120.695 162.465 120.786 162.489 120.873C154.095 121.561 151.484 121.606 146.517 122.751C143.565 123.471 140.119 125.591 139.499 128.544C138.879 131.497 140.254 134.757 141.515 136.962C144.929 142.93 148.881 148.573 153.323 153.82C153.194 153.814 153.066 153.848 152.957 153.915C152.847 153.983 152.76 154.082 152.708 154.2C152.655 154.318 152.639 154.448 152.662 154.575C152.685 154.702 152.746 154.819 152.836 154.911L154.879 157.039C155.796 157.88 156.553 158.88 157.114 159.991C158.269 162.338 156.232 165.069 154.361 166.921C152.749 168.512 150.639 169.806 150.266 170.763C150.214 170.976 150.209 171.196 150.249 171.411C150.29 171.625 150.375 171.828 150.5 172.007C150.625 172.186 150.787 172.336 150.974 172.448C151.162 172.56 151.371 172.63 151.588 172.655C153.347 172.805 155.118 172.586 156.788 172.013C159.979 171.265 162.934 169.735 165.386 167.561C165.558 168.787 165.62 169.793 165.76 171.027C165.78 171.188 165.86 171.336 165.984 171.441C166.108 171.547 166.267 171.601 166.43 171.595L168.8 171.481C168.977 171.511 169.158 171.471 169.306 171.37C169.454 171.269 169.557 171.114 169.592 170.938C170.283 168.849 170.845 166.719 171.276 164.561C171.939 162.43 171.732 160.123 170.7 158.144C170.202 157.494 169.643 156.892 169.031 156.347C166.308 153.829 164.234 150.69 162.984 147.198C162.935 147.064 162.842 146.95 162.721 146.875C162.6 146.799 162.457 146.766 162.315 146.781C162.174 146.796 162.041 146.857 161.938 146.956C161.835 147.055 161.767 147.185 161.747 147.326C159.129 143.174 156.701 138.905 154.471 134.532C157.269 134.404 159.699 134.211 162.455 134.188C162.222 137.632 166.013 139.347 166.657 142.063C167.082 143.86 166.13 145.858 166.832 147.886C167.681 150.365 170.534 151.395 172.921 151.532C175.133 151.66 177.697 151.011 179.767 151.647C181.857 152.307 181.253 154.639 183.673 156.446C182.618 161.173 179.495 165.953 183.175 171.019C185.009 173.169 187.861 173.695 190.599 173.695C198.285 173.295 205.902 172.024 213.302 169.905C213.354 170.012 213.436 170.103 213.538 170.167C213.639 170.23 213.757 170.264 213.877 170.264C214.005 170.264 213.279 170.579 224.38 167.662C230.251 166.121 232.03 166.707 237.632 168.225C237.908 168.337 238.205 168.39 238.503 168.38C238.801 168.37 239.094 168.298 239.362 168.167C239.693 167.881 239.912 167.487 239.978 167.054C240.045 166.622 239.956 166.18 239.727 165.807ZM162.482 149.393C165.167 155.273 168.22 157.054 169.602 158.822C170.445 160.505 170.595 162.451 170.022 164.244C169.619 166.261 169.101 168.252 168.468 170.209L166.96 170.283C166.521 165.97 166.527 166.935 166.527 166.387C166.517 166.212 166.44 166.048 166.312 165.929C166.184 165.809 166.015 165.743 165.84 165.745C165.698 165.744 165.557 165.774 165.428 165.832C165.299 165.89 165.184 165.976 165.091 166.083C162.675 168.402 159.677 170.026 156.414 170.783C154.915 171.303 153.324 171.508 151.742 171.386C151.679 171.377 151.621 171.348 151.576 171.303C151.532 171.259 151.503 171.201 151.494 171.138C151.717 170.731 153.941 169.131 155.254 167.836C158.36 164.756 159.443 161.831 158.253 159.422C157.374 157.815 156.22 156.374 154.843 155.165C156.634 155.085 158.356 154.451 159.77 153.349C160.974 152.263 161.903 150.907 162.482 149.393ZM164.474 129.414C163.961 130.582 163.151 131.641 162.712 132.909C159.488 132.923 156.776 133.165 153.409 133.294C153.301 133.298 153.197 133.329 153.104 133.384C153.012 133.439 152.935 133.516 152.88 133.608C152.826 133.701 152.795 133.806 152.791 133.913C152.788 134.02 152.811 134.127 152.859 134.223C155.402 139.285 158.207 144.212 161.263 148.982C160.764 150.272 159.971 151.428 158.946 152.357C157.819 153.23 156.459 153.753 155.037 153.86C150.343 148.428 146.185 142.554 142.622 136.321C141.467 134.309 140.21 131.37 140.748 128.803C141.225 126.526 144.23 124.626 146.806 123.996C151.774 122.85 154 122.861 163.49 122.07C164.289 123.098 164.801 124.319 164.974 125.609C165.147 126.899 164.974 128.212 164.474 129.414ZM151.445 60.8953C150.163 62.6604 149.352 64.7231 149.089 66.8887C147.628 63.6682 146.967 60.1422 147.164 56.6114C146.98 52.4496 147.855 48.3093 149.709 44.5783C150.727 42.6512 152.177 40.9857 153.945 39.7122C155.714 38.4387 157.753 37.5916 159.904 37.2374C166.353 36.1028 173.043 39.7656 176.178 46.1441C177.341 49.0808 177.815 52.2449 177.565 55.3934C177.525 58.944 177.142 62.4825 176.422 65.9595C175.87 68.9331 174.757 71.7746 173.143 74.3324C173.286 69.9503 172.788 65.571 171.665 61.3329C170.601 56.9453 168.159 53.0141 164.697 50.1161C164.595 50.0313 164.468 49.9805 164.336 49.9707C164.203 49.9609 164.07 49.9925 163.957 50.0613C163.843 50.1301 163.753 50.2326 163.7 50.3547C163.647 50.4767 163.633 50.6122 163.66 50.7424L164.228 53.2925C162.045 53.2289 159.897 53.8481 158.083 55.0636C155.479 56.5108 153.215 58.4994 151.445 60.8953ZM163.422 70.2204C159.186 70.8955 154.408 67.8936 152.528 61.5896C154.195 59.3583 156.315 57.5058 158.75 56.1545C160.376 55.0567 162.308 54.5047 164.269 54.5785C164.933 54.626 165.344 54.4129 165.51 53.9085C165.596 53.5697 165.53 53.4286 165.322 52.4378C168.019 55.286 169.876 58.824 170.688 62.6612C170.393 64.5127 169.539 66.2296 168.24 67.5816C166.941 68.9337 165.26 69.8562 163.422 70.2255V70.2204ZM168.594 69.1077C169.082 68.6508 169.526 68.1475 169.917 67.6048C170.436 66.8853 170.875 66.1105 171.225 65.2947C171.455 66.678 171.63 68.0699 171.749 69.467C171.264 70.1395 170.788 70.8189 170.32 71.5051C169.825 70.6514 169.247 69.8488 168.594 69.109V69.1077ZM162.243 86.0497C161.42 87.9183 160.657 89.8147 159.956 91.7389C158.917 91.1794 157.865 90.654 156.799 90.1629C158.72 88.9383 160.541 87.5629 162.243 86.0497ZM129.912 88.1031C129.853 88.0163 129.819 87.9145 129.815 87.8093C129.811 87.7042 129.837 87.6 129.889 87.5089C130.555 88.1377 131.527 87.1239 130.626 86.4257C129.984 85.7006 130.241 85.2501 130.672 85.7455C130.722 85.8366 130.776 85.9252 130.834 86.0137C130.922 86.1493 131.057 86.2468 131.214 86.2868C131.37 86.3268 131.536 86.3064 131.678 86.2297C131.82 86.1529 131.928 86.0254 131.98 85.8727C132.032 85.7199 132.025 85.553 131.959 85.4054C131.904 85.2793 131.835 85.1593 131.754 85.0474C131.314 84.1926 132.353 84.4339 132.493 84.534C132.901 84.9918 133.182 85.5484 133.308 86.1485C133.358 86.3051 133.465 86.4367 133.609 86.5164C133.752 86.596 133.921 86.6176 134.08 86.5766C134.239 86.5357 134.376 86.4353 134.464 86.2962C134.551 86.1572 134.582 85.9899 134.549 85.8289C134.493 85.5465 134.495 85.2555 134.557 84.9742C134.561 84.9429 134.572 84.913 134.589 84.8865C134.606 84.8601 134.629 84.8379 134.656 84.8215C134.951 84.6431 135.169 85.295 135.222 85.6056C135.274 85.9162 135.331 86.264 135.35 86.5964C134.084 87.5132 133.234 88.8946 132.985 90.4376C131.729 90.023 130.648 89.2014 129.912 88.1031ZM125.863 115.479C124.982 116.13 124.914 115.094 125.043 114.977C125.511 114.55 126.062 114.222 126.66 114.013C127.416 113.777 127.34 113.132 126.559 113.259C125.889 113.37 125.201 113.268 124.593 112.966C123.859 112.603 124.336 112.036 125.006 112.099C126.003 112.373 127.062 112.324 128.03 111.959C128.18 111.887 128.297 111.76 128.356 111.604C128.414 111.448 128.41 111.275 128.343 111.122C128.276 110.969 128.153 110.848 127.998 110.785C127.844 110.722 127.671 110.721 127.516 110.783C126.875 111.064 125.652 110.141 125.808 109.5C125.821 109.445 125.85 109.395 125.893 109.357C126.073 109.344 126.253 109.389 126.406 109.486C126.893 109.758 127.437 109.915 127.994 109.945C128.552 109.975 129.109 109.877 129.622 109.659C129.933 109.464 130.225 109.241 130.496 108.994C130.88 109.855 131.415 110.64 132.075 111.313C129.737 112.318 128.075 114.216 125.863 115.484V115.479ZM144.61 110.915C142.343 112.079 139.813 112.632 137.267 112.52C136.123 112.391 135.027 111.985 134.075 111.336C133.123 110.688 132.344 109.816 131.805 108.798C131.3 107.792 131.086 106.665 131.188 105.544C131.289 104.424 131.702 103.354 132.38 102.455C134.002 100.831 136.096 99.761 138.362 99.3969C140.993 100.962 143.843 102.125 146.818 102.845C150.026 103.668 153.269 104.349 156.538 104.885C152.7 107.158 148.717 109.174 144.614 110.92L144.61 110.915ZM174.182 142.669C178.459 120.638 176.001 101.118 174.977 97.536C177.214 94.0615 179.16 90.4076 180.794 86.6118C180.862 86.4554 180.865 86.2784 180.802 86.1196C180.74 85.9609 180.617 85.8335 180.46 85.7654C180.304 85.6973 180.127 85.6942 179.968 85.7566C179.81 85.8191 179.682 85.942 179.614 86.0984C176.865 92.4824 173.226 98.4451 168.805 103.809C168.574 104.133 168.278 104.404 167.935 104.606C167.446 104.786 166.92 104.837 166.405 104.755C159.902 104.27 153.455 103.21 147.138 101.589C142.762 100.463 135.268 97.7388 134.258 92.1291C134.06 90.9245 134.347 89.6904 135.056 88.6965C135.764 87.7027 136.838 87.0298 138.041 86.8248C139.46 86.6285 140.902 86.6806 142.302 86.9788C148.509 88.0414 154.491 90.1464 159.995 93.2046C160.076 93.2498 160.167 93.2768 160.26 93.2836C160.353 93.2903 160.446 93.2768 160.533 93.2438C160.621 93.2108 160.7 93.1592 160.765 93.0926C160.83 93.026 160.88 92.9459 160.911 92.858C163.595 85.2855 167.28 78.1063 171.869 71.5115C171.928 73.1858 171.853 74.8622 171.643 76.5244C171.625 76.6632 171.653 76.8041 171.722 76.9256C171.792 77.0471 171.899 77.1426 172.028 77.1974C172.157 77.2522 172.3 77.2634 172.436 77.2292C172.572 77.1951 172.693 77.1175 172.78 77.0082C175.261 73.8526 176.941 70.1432 177.676 66.197C177.73 65.9185 177.784 65.64 177.835 65.3602C185.746 66.8489 193.749 71.9889 199.268 79.1309C207.071 89.2517 212.041 99.4906 214.327 121.777C213.13 123.282 203.92 133.744 174.182 142.674V142.669ZM214.147 168.321C207.237 170.361 200.137 171.694 192.957 172.3C189.913 172.556 186.156 172.556 184.168 170.227C181.054 165.939 183.693 161.73 184.821 157.115C185.722 157.495 186.706 157.639 187.679 157.532C189.434 157.177 191.137 156.602 192.748 155.821C194.151 155.125 195.771 155.009 197.258 155.499C197.718 155.707 198.123 156.003 198.633 156.298L195.424 161.175C195.358 161.277 195.321 161.395 195.319 161.516C195.317 161.637 195.349 161.756 195.411 161.86C195.474 161.963 195.565 162.047 195.673 162.101C195.782 162.155 195.903 162.178 196.023 162.166L213.966 160.385C214.926 161.476 215.469 162.87 215.502 164.323C215.536 165.775 215.056 167.193 214.147 168.326V168.321ZM238.034 167.016C228.874 164.483 229.648 165.022 215.55 168.541C217.539 165.348 217.027 161.3 214.712 159.323C215.365 159.288 216.013 159.202 216.653 159.067C219.219 158.303 220.294 155.383 222.283 154.25C223.179 153.896 224.113 153.645 225.067 153.503C228.965 152.639 228.955 152.613 229.302 152.655C229.526 152.721 229.726 152.854 229.874 153.035C230.023 153.216 230.114 153.438 230.135 153.671C230.068 154.162 228.824 154.393 227.028 156.083C226.958 156.148 226.904 156.228 226.87 156.317C226.835 156.406 226.821 156.501 226.828 156.596C226.835 156.691 226.863 156.783 226.91 156.866C226.957 156.949 227.021 157.02 227.099 157.075C228.347 157.95 231.976 160.004 232.152 160.129C232.549 160.667 237.011 162.64 238.55 166.3C238.633 166.541 238.698 166.788 238.745 167.039C238.631 167.085 238.51 167.107 238.388 167.103C238.265 167.1 238.145 167.072 238.034 167.021V167.016Z" fill="#2F473F"/>
<path d="M137.884 129.653C137.884 130.368 138.024 131.076 138.298 131.736C138.572 132.397 138.973 132.997 139.478 133.502C139.984 134.008 140.584 134.409 141.244 134.682C141.905 134.956 142.613 135.097 143.328 135.097C144.043 135.097 144.751 134.956 145.411 134.682C146.072 134.409 146.672 134.008 147.177 133.502C147.683 132.997 148.084 132.397 148.357 131.736C148.631 131.076 148.772 130.368 148.772 129.653C148.772 128.938 148.631 128.23 148.357 127.569C148.084 126.909 147.683 126.309 147.177 125.803C146.672 125.298 146.072 124.897 145.411 124.623C144.751 124.349 144.043 124.209 143.328 124.209C142.613 124.209 141.905 124.349 141.244 124.623C140.584 124.897 139.984 125.298 139.478 125.803C138.973 126.309 138.572 126.909 138.298 127.569C138.024 128.23 137.884 128.938 137.884 129.653Z" fill="white"/>
<path d="M179.877 169.209C179.877 170.667 180.456 172.065 181.487 173.095C182.517 174.126 183.915 174.705 185.373 174.705C186.83 174.705 188.228 174.126 189.259 173.095C190.289 172.065 190.868 170.667 190.868 169.209C190.868 167.752 190.289 166.354 189.259 165.323C188.228 164.293 186.83 163.714 185.373 163.714C183.915 163.714 182.517 164.293 181.487 165.323C180.456 166.354 179.877 167.752 179.877 169.209Z" fill="white"/>
<path d="M171.407 145.984C171.243 145.948 171.099 145.85 171.007 145.709C170.915 145.569 170.881 145.398 170.914 145.233C170.946 145.068 171.042 144.923 171.18 144.828C171.319 144.733 171.489 144.696 171.655 144.725C176.89 145.739 182.287 145.545 187.436 144.157C192.584 142.77 197.349 140.225 201.365 136.718C201.493 136.61 201.659 136.556 201.827 136.568C201.994 136.581 202.15 136.658 202.261 136.785C202.372 136.911 202.429 137.075 202.42 137.243C202.41 137.411 202.336 137.568 202.212 137.682C198.048 141.319 193.108 143.958 187.77 145.396C182.431 146.835 176.835 147.036 171.407 145.984Z" fill="white"/>
<path d="M185.066 151.662C189.618 150.426 193.846 148.213 197.456 145.177C201.095 142.088 204.505 138.739 207.66 135.157C207.772 135.029 207.931 134.952 208.101 134.941C208.271 134.93 208.438 134.987 208.566 135.1C208.694 135.212 208.772 135.371 208.783 135.541C208.793 135.711 208.736 135.878 208.624 136.006C205.427 139.635 201.971 143.027 198.284 146.157C194.53 149.315 190.133 151.616 185.4 152.9C185.238 152.938 185.067 152.911 184.924 152.826C184.782 152.74 184.678 152.603 184.634 152.442C184.591 152.281 184.612 152.11 184.692 151.965C184.773 151.819 184.907 151.71 185.066 151.662Z" fill="white"/>
<path d="M150.59 65.2089C150.59 66.0153 150.911 66.7886 151.481 67.3588C152.051 67.9289 152.824 68.2493 153.631 68.2493C154.437 68.2493 155.21 67.9289 155.781 67.3588C156.351 66.7886 156.671 66.0153 156.671 65.2089C156.671 64.4026 156.351 63.6292 155.781 63.0591C155.21 62.4889 154.437 62.1686 153.631 62.1686C152.824 62.1686 152.051 62.4889 151.481 63.0591C150.911 63.6292 150.59 64.4026 150.59 65.2089Z" fill="#FF5470"/>
</svg>
