<svg width="240" height="209" viewBox="0 0 240 209" fill="none" xmlns="http://www.w3.org/2000/svg">
<path d="M182.077 116.873L126.576 206.206C125.974 207.172 125.036 207.881 123.942 208.195C122.848 208.509 121.676 208.406 120.654 207.906L2.23211 149.855C1.76394 149.628 1.34511 149.31 0.999551 148.921C0.653995 148.532 0.388479 148.079 0.218172 147.587C0.0478643 147.095 -0.0238991 146.575 0.00698212 146.056C0.0378634 145.536 0.170785 145.028 0.398151 144.56C0.803701 143.723 -3.94996 149.123 72.5245 67.2073C73.2059 66.4771 74.0975 65.9767 75.0759 65.7755C76.0543 65.5743 77.071 65.6822 77.9853 66.0844L180.156 110.606C180.726 110.856 181.235 111.226 181.649 111.691C182.063 112.155 182.372 112.704 182.554 113.299C182.737 113.894 182.789 114.521 182.706 115.138C182.624 115.755 182.409 116.347 182.077 116.873Z" fill="white"/>
<path d="M171.962 114.022L120.784 193.412L13.8018 141.181L77.3563 71.6895L171.962 114.022Z" fill="white"/>
<path d="M121.323 193.759C121.265 193.85 121.185 193.924 121.091 193.975C120.997 194.026 120.891 194.053 120.784 194.053C120.554 194.053 125.598 196.46 13.52 141.758C13.4303 141.714 13.3521 141.65 13.2916 141.571C13.2311 141.491 13.1899 141.399 13.1714 141.301C13.1528 141.203 13.1574 141.102 13.1847 141.006C13.212 140.91 13.2613 140.821 13.3288 140.748L76.8834 71.2563C76.9745 71.1563 77.095 71.0876 77.2275 71.0602C77.3601 71.0328 77.4979 71.0479 77.6213 71.1036C179.181 116.535 172.451 113.403 172.579 113.84C172.707 114.278 176.303 108.519 121.323 193.759ZM14.8547 140.98L120.553 192.585L171.018 114.299L77.5186 72.464L14.8547 140.98Z" fill="#343A3F"/>
<path d="M168.869 120.663C166.65 120.936 158.653 121.542 155.513 121.801C152.534 121.994 149.575 122.428 146.667 123.099C144.015 123.741 140.686 125.721 140.121 128.401C139.557 131.08 140.763 134.077 142.067 136.368C146.109 143.44 150.912 150.05 156.389 156.079L162.498 149.437C159.183 144.352 156.157 139.085 153.435 133.66C156.894 133.532 159.66 133.275 162.975 133.275L168.869 120.663Z" fill="white"/>
<path d="M101.837 123.155L95.367 139.812C95.3156 139.948 95.3073 140.097 95.3433 140.237C95.3793 140.378 95.4578 140.504 95.5681 140.598C95.6784 140.693 95.8151 140.751 95.9596 140.765C96.1042 140.779 96.2495 140.748 96.3758 140.676L112.224 131.459L101.837 123.155Z" fill="#343A3F"/>
<path d="M168.059 68.3898C169.442 67.0529 170.6 65.5009 171.488 63.7939L172.386 69.5563C172.386 69.6847 170.498 72.3798 170.267 72.6544C169.179 70.9629 167.051 69.3626 168.059 68.3898Z" fill="white"/>
<path d="M130.74 107.854C130.206 107.969 129.818 108.531 129.298 108.82C128.881 108.987 128.431 109.058 127.982 109.028C127.533 108.998 127.097 108.867 126.705 108.646C126.388 108.459 126.013 108.397 125.654 108.473C125.535 108.534 125.431 108.619 125.349 108.724C125.267 108.828 125.208 108.949 125.177 109.079C124.89 110.26 126.662 111.585 127.771 111.096C125.96 111.891 124.94 110.552 123.867 111.571C123.69 111.769 123.592 112.026 123.592 112.292C123.592 112.558 123.69 112.814 123.867 113.012C124.688 113.562 125.688 113.778 126.662 113.617C126.049 113.809 125.49 114.145 125.034 114.597C123.998 115.468 124.948 116.68 126.244 115.722C128.578 114.395 130.379 112.248 132.901 111.398L130.74 107.854Z" fill="white"/>
<path d="M209.157 2.14285C210.502 3.25171 211.35 4.84908 211.517 6.58363C211.683 8.31817 211.154 10.0478 210.046 11.3922L206.088 16.1947C205.144 17.3385 203.785 18.0608 202.309 18.2026C200.833 18.3443 199.361 17.894 198.217 16.9506L196.706 15.7044C196.14 15.2374 195.671 14.6634 195.326 14.0151C194.981 13.3669 194.768 12.6571 194.698 11.9264C194.627 11.1956 194.702 10.4581 194.916 9.75606C195.131 9.05401 195.482 8.40112 195.949 7.83467L199.909 3.03224C201.018 1.68825 202.615 0.839556 204.349 0.672775C206.084 0.505993 207.813 1.03478 209.157 2.14285Z" fill="#343A3F"/>
<path d="M210.541 11.7999C211.758 10.3242 212.338 8.42558 212.155 6.52166C211.972 4.61775 211.04 2.86453 209.565 1.64769C208.834 1.04517 207.992 0.59247 207.086 0.315438C206.18 0.0384066 205.229 -0.0575326 204.286 0.0330988C202.382 0.216137 200.629 1.14801 199.412 2.6237C200.818 0.545902 114.452 106.614 101.683 122.267C101.169 122.901 101.771 121.352 94.7676 139.584C94.6704 139.843 94.6552 140.126 94.7242 140.394C94.7932 140.662 94.943 140.902 95.1533 141.082C95.3636 141.262 95.6241 141.373 95.8995 141.399C96.175 141.426 96.4519 141.367 96.6927 141.231C113.173 131.764 112.365 132.227 112.992 131.471C189.247 37.8783 123.843 118.15 210.541 11.7999ZM95.965 140.045L101.06 126.927C102.002 129.724 105.792 132.413 108.76 132.703L95.965 140.045ZM209.552 10.9837L205.592 15.7861C204.756 16.7974 203.553 17.4357 202.246 17.5611C200.94 17.6864 199.638 17.2886 198.624 16.4548L197.114 15.2086C196.102 14.373 195.463 13.1702 195.338 11.8641C195.212 10.558 195.61 9.25541 196.444 8.24237L200.404 3.43994C201.413 2.25297 202.848 1.51043 204.399 1.37279C205.951 1.23515 207.494 1.71346 208.695 2.70436C209.897 3.69526 210.661 5.11916 210.821 6.66837C210.981 8.21758 210.526 9.76768 209.552 10.9837Z" fill="#343A3F"/>
<path d="M173.929 37.116L188.297 19.5477C188.571 19.2312 188.957 19.034 189.375 18.9981C189.792 18.9622 190.206 19.0905 190.531 19.3555C190.855 19.6206 191.063 20.0017 191.11 20.4177C191.158 20.8337 191.041 21.2518 190.785 21.5832L176.418 39.1514C176.144 39.468 175.757 39.6652 175.34 39.701C174.923 39.7369 174.508 39.6087 174.184 39.3436C173.86 39.0785 173.652 38.6975 173.604 38.2815C173.557 37.8655 173.673 37.4474 173.929 37.116Z" fill="white"/>
<path d="M175.232 35.2658C174.25 34.6192 173.128 34.2142 171.959 34.084C170.789 33.9537 169.606 34.1018 168.505 34.5163L174.715 47.9919C178.468 51.8699 180.864 56.8593 181.544 62.2131C181.874 60.6352 182.033 59.0264 182.019 57.4145C182.036 49.3933 181.864 39.791 175.232 35.2658Z" fill="#343A3F"/>
<path d="M180.908 62.2842C180.236 57.0692 177.902 52.2092 174.253 48.4236C174.194 48.363 174.148 48.2914 174.116 48.2129C174.085 48.1343 174.07 48.0504 174.071 47.9658C174.072 47.8813 174.09 47.7978 174.123 47.7201C174.156 47.6424 174.205 47.5721 174.265 47.5131C174.326 47.4541 174.398 47.4076 174.476 47.3763C174.555 47.345 174.639 47.3294 174.723 47.3306C174.808 47.3317 174.891 47.3495 174.969 47.3829C175.047 47.4163 175.117 47.4647 175.176 47.5253C178.082 50.5404 180.21 54.2175 181.376 58.239C181.513 52.3059 181.576 46.102 179.077 40.8709C178.183 38.8107 176.725 37.0453 174.871 35.7784C173.972 35.1918 172.948 34.8248 171.882 34.7071C170.815 34.5894 169.736 34.7243 168.731 35.1008C168.65 35.1494 168.56 35.1798 168.467 35.1899C168.374 35.1999 168.279 35.1893 168.19 35.1588C168.102 35.1284 168.02 35.0788 167.953 35.0135C167.885 34.9483 167.833 34.8691 167.799 34.7814C167.766 34.6937 167.752 34.5996 167.758 34.506C167.765 34.4123 167.792 34.3212 167.838 34.2392C167.884 34.1572 167.947 34.0862 168.023 34.0313C168.099 33.9764 168.187 33.9388 168.279 33.9214C169.475 33.4736 170.76 33.3139 172.029 33.4552C173.299 33.5966 174.517 34.035 175.585 34.735C177.638 36.1326 179.253 38.0828 180.244 40.3601C182.716 45.5334 182.798 51.3883 182.661 57.4292C182.691 59.0829 182.526 60.7344 182.17 62.3497C182.137 62.4971 182.052 62.628 181.932 62.7192C181.811 62.8104 181.662 62.8562 181.511 62.8484C181.36 62.8405 181.217 62.7797 181.107 62.6764C180.996 62.5732 180.926 62.4343 180.908 62.2842Z" fill="#343A3F"/>
<path d="M169.023 67.4819C167.897 68.8832 166.362 69.8984 164.632 70.3865C162.901 70.8747 161.062 70.8113 159.37 70.2053C150.723 67.1072 148.076 53.3057 154.878 47.3392C159.522 43.258 168.525 41.8373 171.649 47.3238C172.39 49.1037 172.677 51.0396 172.484 52.9579C172.058 57.6319 172.755 62.238 169.023 67.4819Z" fill="white"/>
<path d="M164.671 57.3769C164.314 56.4375 163.224 56.1577 162.764 56.6197C162.335 57.0036 161.822 57.2812 161.266 57.4299C160.71 57.5786 160.127 57.5943 159.563 57.4758C159.479 57.464 159.393 57.4692 159.31 57.4911C159.227 57.5131 159.15 57.5513 159.082 57.6036C159.015 57.6558 158.958 57.7211 158.916 57.7955C158.874 57.8699 158.847 57.952 158.837 58.0368C158.827 58.1217 158.835 58.2078 158.858 58.2899C158.882 58.3719 158.922 58.4485 158.976 58.5149C159.03 58.5814 159.096 58.6364 159.171 58.6768C159.247 58.7172 159.329 58.7421 159.414 58.7502C160.535 58.9249 161.682 58.7501 162.7 58.2496C162.817 58.745 163.111 59.4457 163.843 59.4881C164.979 59.5523 164.979 58.188 164.671 57.3769Z" fill="#343A3F"/>
<path d="M156.342 60.1435C155.985 59.2041 154.895 58.9243 154.436 59.3863C154.006 59.7713 153.491 60.0493 152.934 60.1978C152.376 60.3464 151.792 60.3612 151.227 60.2411C151.144 60.2313 151.059 60.2381 150.978 60.2611C150.896 60.2842 150.821 60.3229 150.755 60.3753C150.688 60.4276 150.633 60.4924 150.592 60.5661C150.551 60.6397 150.525 60.7207 150.515 60.8045C150.505 60.8882 150.512 60.9731 150.535 61.0542C150.558 61.1354 150.597 61.2112 150.649 61.2773C150.702 61.3434 150.766 61.3986 150.84 61.4397C150.914 61.4808 150.995 61.507 151.078 61.5168C152.199 61.6907 153.346 61.516 154.364 61.0162C154.481 61.5103 154.775 62.2123 155.507 62.2534C156.65 62.3189 156.65 60.9546 156.342 60.1435Z" fill="#343A3F"/>
<path d="M214.957 120.422C213.719 111.344 212.667 102.297 208.964 93.8095C203.431 81.1592 193.979 69.3148 180.858 65.0796C179.748 64.6337 178.546 64.4654 177.357 64.5894C173.164 65.2952 169.749 73.0764 167.819 76.3323C166.288 78.9154 164.889 81.5677 163.621 84.2893C160.977 86.2777 158.276 88.1848 155.519 90.0107C151.326 88.1767 146.927 86.8589 142.417 86.0861C140.952 85.7756 139.446 85.7217 137.963 85.9269C137.274 86.0361 136.615 86.282 136.022 86.6502C135.43 87.0183 134.918 87.5012 134.515 88.0705C134.112 88.6398 133.827 89.2839 133.678 89.965C133.528 90.646 133.516 91.3501 133.642 92.0359C134.162 94.9312 136.284 97.1001 138.891 98.7018C138.527 98.7749 138.16 98.8404 137.791 98.8943C135.533 99.064 133.427 100.095 131.908 101.774C131.144 102.771 130.675 103.962 130.552 105.212C130.43 106.463 130.66 107.722 131.216 108.848C131.803 109.963 132.653 110.917 133.693 111.628C134.732 112.338 135.93 112.784 137.182 112.926C139.867 113.043 142.535 112.452 144.919 111.211C149.249 109.369 154.428 107.457 158.138 104.211C160.863 104.619 163.601 104.926 166.352 105.132C166.957 105.222 167.575 105.158 168.148 104.944C169.585 104.191 169.343 103.217 174.488 98.1422C174.488 98.2705 178.368 109.532 173.912 143.039C188.715 139.682 202.487 132.796 214.054 122.967C214.389 122.719 214.665 122.399 214.861 122.031C215.046 121.515 215.079 120.956 214.957 120.422Z" fill="#F2F4F8"/>
<path d="M157.007 65.4298C156.907 65.4299 156.808 65.4064 156.718 65.3611C156.628 65.3158 156.55 65.25 156.49 65.1691C156.431 65.0881 156.391 64.9943 156.374 64.8951C156.357 64.796 156.364 64.6943 156.394 64.5982C156.881 63.0213 157.259 61.4128 157.526 59.7842C157.542 59.693 157.542 59.5996 157.526 59.5083C157.163 59.0661 156.759 58.6587 156.321 58.2916C156.195 58.1813 156.117 58.0261 156.104 57.8591C156.09 57.6921 156.143 57.5266 156.25 57.3979C156.358 57.2692 156.511 57.1875 156.677 57.1704C156.844 57.1532 157.011 57.2019 157.142 57.306C157.59 57.6805 158.006 58.0913 158.386 58.5342C158.565 58.7278 158.696 58.9618 158.766 59.2164C158.837 59.471 158.845 59.7389 158.79 59.9973C158.514 61.6821 158.123 63.3459 157.618 64.9768C157.578 65.1076 157.497 65.2221 157.387 65.3036C157.277 65.3851 157.144 65.4293 157.007 65.4298Z" fill="#343A3F"/>
<path d="M176.761 45.6096C177.965 48.6269 178.457 51.881 178.201 55.1195C178.161 58.7072 177.774 62.2827 177.046 65.796C176.334 69.6461 174.697 73.2656 172.277 76.3428C172.86 70.6709 172.256 64.9398 170.504 59.5138C169.314 55.9397 167.16 52.7637 164.28 50.3363C164.939 53.4767 164.921 53.3086 164.886 53.4767C164.812 53.6936 164.525 53.6757 164.309 53.6641C162.204 53.5625 160.123 54.1549 158.386 55.3505C155.864 56.7504 153.673 58.6762 151.961 60.9974C150.251 63.3397 149.438 66.2177 149.67 69.1084C147.376 65.2654 146.278 60.827 146.514 56.3579C146.321 52.0808 147.224 47.8255 149.137 43.9951C150.204 41.9848 151.72 40.2475 153.568 38.9181C155.415 37.5886 157.544 36.7028 159.789 36.3294C166.917 35.0691 173.663 39.285 176.761 45.6096Z" fill="#343A3F"/>
<path d="M161.373 56.6116C161.237 56.6121 161.104 56.5692 160.994 56.4892C160.884 56.4092 160.802 56.2962 160.76 56.1666C160.719 56.037 160.719 55.8975 160.762 55.7682C160.805 55.639 160.888 55.5267 160.998 55.4476C161.715 54.9304 162.561 54.6223 163.442 54.5577C164.323 54.4931 165.205 54.6746 165.99 55.0818C166.064 55.1205 166.131 55.1736 166.185 55.238C166.24 55.3024 166.281 55.3769 166.307 55.4572C166.332 55.5375 166.342 55.6221 166.335 55.7061C166.328 55.7901 166.304 55.8719 166.265 55.9468C166.227 56.0218 166.174 56.0883 166.109 56.1427C166.045 56.1971 165.97 56.2383 165.89 56.264C165.81 56.2896 165.725 56.2991 165.641 56.2921C165.557 56.285 165.475 56.2615 165.4 56.2228C164.826 55.9245 164.181 55.7917 163.536 55.839C162.89 55.8864 162.271 56.1121 161.747 56.491C161.638 56.5692 161.507 56.6114 161.373 56.6116Z" fill="#343A3F"/>
<path d="M159.682 67.0649C159.601 67.0434 159.524 67.006 159.457 66.955C159.39 66.904 159.334 66.8402 159.291 66.7674C159.249 66.6946 159.221 66.6141 159.21 66.5306C159.199 66.4471 159.204 66.3622 159.225 66.2807C159.247 66.1992 159.284 66.1228 159.335 66.0557C159.386 65.9887 159.45 65.9323 159.523 65.8899C159.596 65.8474 159.676 65.8198 159.76 65.8084C159.843 65.7971 159.928 65.8023 160.009 65.8238C160.53 65.9598 161.077 65.9598 161.598 65.8238C161.925 65.631 162.206 65.3687 162.42 65.0556C162.635 64.7425 162.778 64.3861 162.839 64.0117C162.859 63.9294 162.895 63.8519 162.945 63.7837C162.996 63.7154 163.059 63.6577 163.131 63.6139C163.203 63.5702 163.284 63.5412 163.368 63.5286C163.451 63.516 163.537 63.5201 163.619 63.5407C163.701 63.5613 163.778 63.5979 163.846 63.6485C163.914 63.699 163.971 63.7625 164.014 63.8353C164.058 63.908 164.086 63.9886 164.098 64.0724C164.11 64.1562 164.105 64.2416 164.084 64.3236C163.984 64.9115 163.742 65.4661 163.379 65.9393C163.016 66.4125 162.543 66.7901 162.001 67.0392C161.244 67.253 160.444 67.2618 159.682 67.0649Z" fill="#343A3F"/>
<path d="M135.852 85.215C135.794 84.8866 135.671 84.5729 135.491 84.2923C135.399 84.1417 135.263 84.0232 135.102 83.9532C134.94 83.8832 134.761 83.8651 134.588 83.9015C134.416 83.9378 134.259 84.0268 134.139 84.1561C134.02 84.2854 133.943 84.4487 133.92 84.6234C133.848 84.9753 133.848 85.338 133.92 85.6899C133.751 85.1488 133.44 84.6629 133.02 84.2827C132.599 83.9026 132.084 83.6422 131.529 83.5287C131.418 83.4921 131.299 83.4862 131.185 83.5115C131.07 83.5368 130.965 83.5924 130.88 83.6724C130.84 83.7607 130.819 83.8565 130.819 83.9535C130.819 84.0504 130.84 84.1462 130.88 84.2345C130.95 84.5428 131.061 84.8402 131.211 85.1188C130.891 84.6991 130.325 84.4399 129.927 84.7338C129.778 84.8654 129.674 85.0399 129.628 85.2334C129.582 85.4268 129.597 85.6298 129.671 85.8144C129.797 86.1169 129.977 86.3942 130.202 86.6332C130.042 86.5548 129.858 86.5396 129.687 86.5908C129.517 86.6419 129.371 86.7556 129.281 86.9091C129.192 87.1093 129.153 87.3283 129.168 87.5469C129.183 87.7655 129.252 87.977 129.368 88.163C130.293 89.5509 131.708 90.5389 133.33 90.93C133.5 89.9322 133.83 88.9685 134.306 88.0757C134.742 87.414 135.325 86.8622 136.009 86.4638C135.98 86.0449 135.928 85.628 135.852 85.215Z" fill="white"/>
<path d="M181.54 131.811C180.818 131.414 180.235 130.805 179.872 130.067C179.512 129.054 179.58 128.891 179.424 124.97C179.306 121.985 179.182 118.899 179.167 115.858C179.167 115.707 179.221 115.56 179.319 115.445C179.417 115.329 179.553 115.252 179.702 115.227C179.851 115.202 180.005 115.23 180.135 115.307C180.266 115.384 180.364 115.505 180.414 115.648C180.714 116.514 181.105 117.346 181.581 118.13C182.339 119.462 183.472 120.542 184.84 121.234C187.791 122.712 191.482 122.466 192.901 119.431C192.962 119.299 193.067 119.192 193.198 119.127C193.33 119.063 193.479 119.045 193.621 119.076C193.764 119.108 193.891 119.188 193.983 119.302C194.074 119.415 194.124 119.557 194.124 119.703C194.124 121.541 194.038 123.5 193.867 125.69C193.835 126.404 193.697 127.11 193.458 127.783C192.769 128.983 191.813 130.007 190.664 130.777C189.516 131.547 188.205 132.041 186.834 132.223C185.076 132.71 183.202 132.564 181.54 131.811ZM180.498 118.805C180.545 120.858 180.793 127.063 180.83 128.134C180.82 128.623 180.896 129.111 181.055 129.574C181.297 130.033 181.667 130.413 182.12 130.667C183.518 131.282 185.087 131.388 186.555 130.968C188.75 130.598 191.33 129.299 192.274 127.292C192.458 126.748 192.563 126.181 192.587 125.607C192.698 124.228 192.772 122.953 192.812 121.745C189.8 124.64 183.316 123.684 180.498 118.805Z" fill="#343A3F"/>
<path d="M163.897 61.6264C163.897 62.5543 164.266 63.4442 164.922 64.1003C165.578 64.7564 166.468 65.125 167.396 65.125C168.324 65.125 169.214 64.7564 169.87 64.1003C170.526 63.4442 170.894 62.5543 170.894 61.6264C170.894 60.6986 170.526 59.8087 169.87 59.1526C169.214 58.4965 168.324 58.1279 167.396 58.1279C166.468 58.1279 165.578 58.4965 164.922 59.1526C164.266 59.8087 163.897 60.6986 163.897 61.6264Z" fill="#FF5470"/>
<path d="M159.341 152.592C160.928 151.165 161.993 149.248 162.367 147.146C163.646 150.733 165.777 153.957 168.577 156.54C169.163 157.06 169.699 157.634 170.176 158.254C171.083 160.065 171.254 162.157 170.651 164.09C170.22 166.25 169.658 168.381 168.966 170.472C168.966 170.617 168.879 170.545 168.721 170.56L166.386 170.675C166.213 169.148 166.157 167.894 165.84 166.108C165.781 166.11 165.723 166.125 165.67 166.152C165.618 166.179 165.572 166.218 165.537 166.265C163.058 168.65 159.982 170.322 156.633 171.106C155.033 171.663 153.335 171.879 151.647 171.74C151.407 171.706 151.19 171.58 151.042 171.388C150.894 171.196 150.827 170.954 150.855 170.714C150.949 170.469 151.108 170.255 151.316 170.095C152.454 169.068 153.709 168.18 154.803 167.097C156.693 165.227 159.038 162.189 157.684 159.433C157.087 158.251 156.282 157.186 155.307 156.291L153.29 154.187C155.437 154.466 157.609 153.894 159.341 152.592Z" fill="#343A3F"/>
<path d="M220.274 165.982L219.337 158.936L195.967 161.255L201.37 153.027L184.368 155.924C183.399 160.801 180.132 165.481 183.648 170.333C185.823 172.883 189.68 172.954 193.016 172.667C202.145 171.9 211.138 169.963 219.774 166.903C219.929 166.862 220.073 166.783 220.191 166.674C220.251 166.57 220.289 166.455 220.304 166.336C220.318 166.217 220.308 166.097 220.274 165.982Z" fill="white"/>
<path d="M230.777 153.471C230.771 153.087 230.641 152.714 230.408 152.408C230.175 152.102 229.85 151.879 229.481 151.771C228.878 151.68 228.816 151.748 224.927 152.606C223.941 152.755 222.974 153.016 222.046 153.384C221.385 153.759 220.795 154.247 220.302 154.825C219.282 156.007 218.069 157.706 216.47 158.183C214.958 158.435 213.433 158.599 211.902 158.673C216.12 158.625 217.907 165.393 213.862 169.349L224.192 166.77C230.352 165.068 232.218 165.832 237.867 167.36C238.044 167.436 238.235 167.475 238.428 167.475C238.621 167.475 238.812 167.436 238.99 167.36C239.466 167.043 239.362 166.31 239.135 165.775C237.938 162.972 235.259 161.107 232.665 159.479C232.665 159.35 231.542 158.786 231.382 158.687C228.743 157.043 228.31 156.876 227.462 156.281C229.399 154.459 230.631 154.453 230.762 153.514C230.763 153.533 230.777 153.499 230.777 153.471Z" fill="#343A3F"/>
<path d="M239.727 165.527C238.492 162.592 235.795 160.692 233.116 159.005C232.767 158.709 232.378 158.462 231.961 158.274C231.586 158.072 228.712 156.331 228.519 156.21C230.041 154.973 231.177 154.819 231.389 153.67C231.408 153.606 231.419 153.539 231.419 153.471V153.457C231.414 153.079 231.319 152.707 231.142 152.372C230.966 152.037 230.713 151.748 230.403 151.53C230.094 151.311 229.737 151.169 229.363 151.115C228.988 151.06 228.606 151.095 228.247 151.216L224.833 151.972C223.77 152.133 222.73 152.419 221.734 152.825C220.767 153.396 219.926 154.156 219.258 155.059C218.52 156.136 217.509 156.998 216.328 157.556C214.84 157.794 213.341 157.954 211.836 158.034C211.722 158.046 211.612 158.088 211.52 158.157C211.428 158.226 211.355 158.319 211.311 158.425C211.267 158.531 211.252 158.648 211.268 158.762C211.284 158.876 211.33 158.983 211.402 159.073L197.236 160.485L199.837 156.525C201.563 157.047 203.405 157.053 205.134 156.541L205.481 156.474C206.016 156.459 206.543 156.336 207.03 156.114C207.517 155.892 207.955 155.574 208.319 155.181C208.503 154.845 208.615 154.476 208.649 154.095C208.683 153.714 208.638 153.33 208.516 152.967C208.131 151.368 209.112 149.185 209.897 147.43C210.539 146.008 210.249 146.628 211.437 143.693C214.032 137.315 216.668 130.603 214.435 123.345C214.818 122.944 215.175 122.519 215.503 122.072C215.59 121.946 215.63 121.793 215.615 121.641C213.304 98.8735 208.243 88.4319 200.268 78.0878C194.563 70.6993 186.265 65.3823 178.049 63.8422C178.548 60.9816 178.809 58.0844 178.83 55.1806C179.092 51.8439 178.584 48.4917 177.347 45.382C176.496 43.6303 175.37 42.0269 174.01 40.6334C174.309 40.3715 174.528 40.0296 174.641 39.6477C174.753 39.2658 174.754 38.8598 174.644 38.4773C174.533 38.1791 174.346 37.9152 174.101 37.7124C173.855 37.5097 173.561 37.3751 173.247 37.3223C173.241 36.706 173.094 36.0992 172.819 35.5477C172.544 34.9962 172.147 34.5143 171.659 34.1382C171.142 33.7933 170.545 33.5857 169.926 33.535C169.306 33.4842 168.684 33.592 168.118 33.8482C167.831 33.3939 167.428 33.0255 166.949 32.7819C166.471 32.5384 165.935 32.4288 165.4 32.4647C164.712 32.5577 164.087 32.9107 163.652 33.4511C163.218 33.9914 163.007 34.6779 163.064 35.369C163.073 35.4177 163.084 35.4652 163.096 35.514C160.14 35.3523 157.2 36.0398 154.623 37.4952C152.045 38.9507 149.938 41.1133 148.55 43.7277C146.601 47.635 145.677 51.9733 145.864 56.3357C145.615 60.933 146.745 65.4998 149.109 69.4506C149.184 69.5758 149.298 69.672 149.435 69.7234C149.571 69.7749 149.72 69.7785 149.859 69.7338C149.997 69.689 150.116 69.5985 150.197 69.477C150.277 69.3556 150.314 69.2105 150.3 69.0656C150.131 66.8886 150.581 64.7082 151.601 62.777C152.373 65.0248 153.7 67.0415 155.458 68.6408C157.054 70.1802 159.133 71.1213 161.343 71.3051C163.553 71.4889 165.758 70.9041 167.586 69.6495C168.342 70.4943 168.989 71.4303 169.511 72.4358C167.374 75.6816 165.445 79.0603 163.736 82.5514C161.25 85.1339 158.441 87.3859 155.38 89.252C151.263 87.4849 146.951 86.2102 142.535 85.4544C140.565 84.9885 138.506 85.0567 136.571 85.6521C136.528 85.0537 136.345 84.4738 136.037 83.9593C135.907 83.7469 135.727 83.5702 135.512 83.445C135.297 83.3198 135.054 83.2501 134.806 83.2422C134.557 83.2343 134.311 83.2885 134.088 83.3998C133.866 83.5111 133.674 83.676 133.532 83.8797C133.034 83.3938 132.407 83.0603 131.726 82.9185C131.506 82.8461 131.271 82.8347 131.045 82.8853C130.819 82.9359 130.611 83.0467 130.443 83.2059C130.261 83.42 130.169 83.6958 130.186 83.976C129.953 84.0198 129.734 84.1177 129.546 84.2617C129.358 84.4058 129.207 84.592 129.104 84.8053C129.002 85.0187 128.951 85.2531 128.955 85.4898C128.96 85.7265 129.02 85.9588 129.131 86.168C128.8 86.4554 128.588 86.8551 128.534 87.29C128.481 87.725 128.591 88.1642 128.842 88.523C129.807 89.9723 131.261 91.026 132.939 91.4915C133.097 92.8143 133.535 94.0883 134.223 95.2289C134.912 96.3696 135.835 97.3507 136.931 98.1073C134.832 98.6555 132.924 99.774 131.421 101.339C130.76 102.194 130.298 103.184 130.066 104.238C129.834 105.293 129.838 106.386 130.078 107.439C129.637 107.696 129.316 108.068 129.073 108.22C128.747 108.352 128.395 108.409 128.044 108.386C127.693 108.364 127.351 108.264 127.044 108.092C126.587 107.82 126.045 107.731 125.525 107.842C125.286 107.926 125.073 108.069 124.905 108.258C124.737 108.447 124.62 108.675 124.563 108.921C124.503 109.198 124.502 109.485 124.561 109.762C124.62 110.039 124.738 110.301 124.906 110.529C124.626 110.524 124.348 110.575 124.089 110.679C123.83 110.784 123.594 110.94 123.397 111.139C123.114 111.454 122.958 111.863 122.958 112.287C122.958 112.71 123.114 113.119 123.397 113.435C123.769 113.726 124.192 113.947 124.644 114.087L124.629 114.101C124.366 114.257 124.161 114.496 124.046 114.779C123.931 115.063 123.912 115.376 123.991 115.671C124.07 115.967 124.244 116.228 124.486 116.416C124.727 116.604 125.024 116.708 125.33 116.711C125.776 116.688 126.207 116.536 126.569 116.274C128.93 114.934 130.735 112.809 133.115 112.001L133.171 111.979C134.35 112.829 135.729 113.359 137.173 113.52C139.94 113.651 142.694 113.058 145.162 111.797C149.785 109.81 154.267 107.512 158.578 104.917C161.14 105.289 163.704 105.571 166.27 105.761C167.013 105.87 167.771 105.781 168.469 105.505C169.006 105.219 169.47 104.816 169.83 104.325C171.27 102.577 172.626 100.767 173.899 98.8979C174.77 104.222 175.237 109.605 175.297 114.999C171.607 117.486 167.412 119.124 163.014 119.794C162.924 119.807 162.839 119.839 162.763 119.888C162.687 119.937 162.622 120.001 162.572 120.076C162.523 120.152 162.49 120.237 162.475 120.326C162.461 120.415 162.466 120.506 162.489 120.594C154.095 121.281 151.484 121.326 146.517 122.471C143.565 123.191 140.119 125.311 139.499 128.264C138.88 131.217 140.254 134.477 141.516 136.682C144.929 142.65 148.881 148.293 153.323 153.541C153.194 153.535 153.067 153.568 152.957 153.636C152.847 153.703 152.76 153.803 152.708 153.92C152.655 154.038 152.64 154.169 152.663 154.296C152.686 154.423 152.746 154.54 152.836 154.632L154.88 156.759C155.796 157.601 156.553 158.601 157.114 159.711C158.269 162.058 156.232 164.79 154.361 166.641C152.749 168.233 150.639 169.527 150.266 170.484C150.215 170.696 150.209 170.917 150.249 171.131C150.29 171.345 150.375 171.549 150.5 171.728C150.625 171.907 150.787 172.057 150.974 172.169C151.162 172.28 151.371 172.351 151.588 172.376C153.347 172.525 155.118 172.306 156.788 171.734C159.979 170.986 162.934 169.456 165.387 167.282C165.559 168.507 165.62 169.514 165.76 170.747C165.78 170.908 165.86 171.057 165.984 171.162C166.108 171.267 166.267 171.322 166.43 171.316L168.8 171.201C168.977 171.232 169.159 171.192 169.306 171.09C169.454 170.989 169.557 170.834 169.592 170.658C170.283 168.569 170.845 166.439 171.276 164.281C171.939 162.15 171.732 159.843 170.7 157.864C170.202 157.214 169.643 156.612 169.031 156.068C166.308 153.549 164.234 150.411 162.984 146.918C162.935 146.784 162.842 146.671 162.721 146.595C162.6 146.52 162.458 146.487 162.316 146.502C162.174 146.516 162.041 146.578 161.938 146.677C161.835 146.775 161.768 146.906 161.747 147.047C159.129 142.895 156.701 138.626 154.471 134.253C157.269 134.124 159.699 133.932 162.455 133.909C162.222 137.352 166.013 139.068 166.657 141.784C167.082 143.58 166.13 145.579 166.832 147.606C167.681 150.086 170.534 151.115 172.921 151.252C175.133 151.381 177.697 150.731 179.767 151.368C181.858 152.028 181.253 154.359 183.674 156.166C182.619 160.893 179.495 165.674 183.176 170.739C185.01 172.889 187.861 173.415 190.599 173.415C198.286 173.016 205.902 171.744 213.302 169.625C213.355 169.733 213.436 169.824 213.538 169.887C213.64 169.951 213.757 169.984 213.877 169.985C214.005 169.985 213.279 170.299 224.38 167.382C230.252 165.842 232.03 166.427 237.632 167.945C237.909 168.058 238.205 168.111 238.503 168.101C238.802 168.091 239.094 168.018 239.362 167.888C239.693 167.602 239.912 167.207 239.979 166.775C240.045 166.342 239.956 165.9 239.727 165.527ZM162.482 149.113C165.167 154.993 168.22 156.775 169.603 158.542C170.445 160.225 170.596 162.171 170.022 163.964C169.62 165.981 169.101 167.973 168.468 169.929L166.96 170.004C166.521 165.69 166.528 166.656 166.528 166.108C166.517 165.933 166.44 165.768 166.312 165.649C166.184 165.53 166.015 165.464 165.84 165.466C165.698 165.465 165.558 165.494 165.428 165.552C165.299 165.611 165.184 165.696 165.091 165.803C162.675 168.122 159.677 169.746 156.415 170.503C154.915 171.023 153.324 171.228 151.742 171.106C151.679 171.097 151.621 171.068 151.577 171.024C151.532 170.979 151.503 170.921 151.494 170.859C151.717 170.452 153.941 168.851 155.254 167.557C158.36 164.476 159.443 161.552 158.254 159.143C157.374 157.535 156.22 156.094 154.844 154.886C156.635 154.806 158.356 154.171 159.771 153.07C160.974 151.983 161.903 150.627 162.482 149.113ZM164.474 129.134C163.961 130.302 163.151 131.361 162.712 132.629C159.488 132.643 156.776 132.886 153.409 133.014C153.301 133.018 153.197 133.049 153.105 133.104C153.012 133.159 152.935 133.236 152.881 133.329C152.826 133.421 152.795 133.526 152.792 133.633C152.788 133.741 152.811 133.847 152.86 133.943C155.402 139.006 158.207 143.932 161.263 148.702C160.764 149.992 159.971 151.148 158.947 152.078C157.819 152.951 156.46 153.473 155.037 153.58C150.343 148.148 146.185 142.275 142.622 136.042C141.467 134.029 140.21 131.09 140.748 128.524C141.226 126.247 144.23 124.346 146.806 123.716C151.774 122.57 154 122.582 163.49 121.791C164.289 122.819 164.801 124.04 164.974 125.33C165.147 126.62 164.974 127.933 164.474 129.134ZM151.445 60.6158C150.163 62.3808 149.352 64.4436 149.089 66.6092C147.628 63.3887 146.968 59.8627 147.164 56.3318C146.98 52.1701 147.856 48.0297 149.709 44.2988C150.727 42.3717 152.177 40.7062 153.946 39.4327C155.714 38.1591 157.754 37.3121 159.904 36.9578C166.353 35.8233 173.043 39.4861 176.179 45.8645C177.341 48.8013 177.815 51.9654 177.565 55.1139C177.525 58.6645 177.143 62.203 176.423 65.68C175.87 68.6536 174.757 71.495 173.143 74.0528C173.286 69.6708 172.788 65.2914 171.665 61.0534C170.601 56.6658 168.159 52.7346 164.697 49.8366C164.595 49.7518 164.469 49.701 164.336 49.6911C164.203 49.6813 164.071 49.713 163.957 49.7818C163.843 49.8506 163.753 49.9531 163.7 50.0751C163.647 50.1971 163.633 50.3327 163.661 50.4629L164.228 53.013C162.045 52.9494 159.897 53.5685 158.083 54.7841C155.479 56.2313 153.216 58.2199 151.445 60.6158ZM163.422 69.9408C159.187 70.6159 154.409 67.6141 152.528 61.3101C154.195 59.0788 156.315 57.2263 158.75 55.8749C160.376 54.7772 162.309 54.2252 164.269 54.2989C164.934 54.3464 165.344 54.1334 165.51 53.629C165.596 53.2902 165.53 53.149 165.322 52.1582C168.019 55.0064 169.876 58.5445 170.688 62.3817C170.393 64.2332 169.539 65.9501 168.24 67.3021C166.941 68.6542 165.26 69.5767 163.422 69.946V69.9408ZM168.594 68.8281C169.083 68.3713 169.526 67.868 169.917 67.3253C170.437 66.6057 170.875 65.831 171.225 65.0152C171.455 66.3985 171.63 67.7903 171.75 69.1875C171.265 69.86 170.788 70.5393 170.32 71.2255C169.825 70.3719 169.247 69.5693 168.594 68.8294V68.8281ZM162.244 85.7701C161.42 87.6387 160.657 89.5352 159.957 91.4594C158.917 90.8998 157.865 90.3745 156.8 89.8834C158.72 88.6588 160.541 87.2833 162.244 85.7701ZM129.913 87.8236C129.853 87.7368 129.819 87.635 129.815 87.5298C129.811 87.4246 129.837 87.3205 129.889 87.2293C130.556 87.8582 131.527 86.8443 130.626 86.1462C129.984 85.4211 130.241 84.9706 130.672 85.466C130.722 85.5571 130.776 85.6456 130.834 85.7342C130.922 85.8697 131.057 85.9672 131.214 86.0073C131.37 86.0473 131.536 86.0269 131.678 85.9501C131.82 85.8734 131.928 85.7459 131.98 85.5931C132.032 85.4403 132.025 85.2735 131.96 85.1259C131.904 84.9997 131.835 84.8797 131.754 84.7678C131.314 83.9131 132.354 84.1544 132.493 84.2545C132.901 84.7123 133.182 85.2689 133.308 85.869C133.358 86.0255 133.465 86.1572 133.609 86.2368C133.753 86.3165 133.921 86.338 134.08 86.2971C134.239 86.2561 134.377 86.1558 134.464 86.0167C134.551 85.8776 134.582 85.7104 134.549 85.5494C134.493 85.267 134.496 84.976 134.557 84.6947C134.561 84.6634 134.572 84.6334 134.589 84.607C134.606 84.5805 134.629 84.5583 134.656 84.5419C134.951 84.3635 135.169 85.0155 135.222 85.3261C135.275 85.6367 135.331 85.9845 135.35 86.3169C134.084 87.2337 133.234 88.615 132.985 90.158C131.73 89.7434 130.648 88.9219 129.913 87.8236ZM125.863 115.199C124.982 115.85 124.914 114.814 125.043 114.698C125.512 114.27 126.062 113.942 126.66 113.734C127.416 113.498 127.341 112.852 126.559 112.979C125.889 113.091 125.201 112.988 124.593 112.687C123.859 112.323 124.336 111.756 125.006 111.819C126.004 112.093 127.062 112.044 128.03 111.679C128.181 111.608 128.298 111.48 128.356 111.324C128.415 111.168 128.41 110.995 128.343 110.842C128.276 110.69 128.153 110.569 127.999 110.505C127.844 110.442 127.671 110.442 127.517 110.504C126.875 110.785 125.652 109.862 125.808 109.22C125.821 109.165 125.851 109.115 125.893 109.078C126.073 109.065 126.253 109.11 126.406 109.206C126.894 109.479 127.437 109.636 127.994 109.666C128.552 109.696 129.109 109.598 129.623 109.379C129.933 109.184 130.226 108.962 130.497 108.715C130.88 109.575 131.415 110.361 132.075 111.034C129.737 112.038 128.075 113.937 125.863 115.205V115.199ZM144.61 110.636C142.343 111.799 139.813 112.352 137.268 112.24C136.123 112.112 135.027 111.705 134.075 111.057C133.123 110.408 132.344 109.537 131.806 108.518C131.3 107.513 131.086 106.386 131.188 105.265C131.289 104.144 131.703 103.074 132.381 102.176C134.003 100.552 136.096 99.4814 138.362 99.1174C140.993 100.683 143.843 101.845 146.819 102.566C150.027 103.389 153.27 104.069 156.538 104.605C152.701 106.878 148.717 108.894 144.614 110.641L144.61 110.636ZM174.182 142.389C178.459 120.359 176.002 100.838 174.977 97.2564C177.215 93.7819 179.16 90.128 180.794 86.3323C180.862 86.1759 180.865 85.9988 180.803 85.8401C180.74 85.6814 180.617 85.5539 180.461 85.4859C180.304 85.4178 180.127 85.4146 179.969 85.4771C179.81 85.5395 179.682 85.6625 179.614 85.8189C176.865 92.2028 173.226 98.1655 168.806 103.53C168.575 103.853 168.278 104.125 167.935 104.327C167.447 104.506 166.92 104.557 166.406 104.475C159.902 103.99 153.455 102.931 147.138 101.309C142.762 100.184 135.268 97.4592 134.258 91.8495C134.06 90.6449 134.347 89.4109 135.056 88.417C135.765 87.4231 136.838 86.7502 138.042 86.5453C139.46 86.349 140.902 86.4011 142.302 86.6993C148.509 87.7619 154.491 89.8668 159.995 92.925C160.077 92.9703 160.167 92.9972 160.26 93.004C160.353 93.0108 160.446 92.9972 160.534 92.9642C160.621 92.9313 160.7 92.8797 160.765 92.813C160.83 92.7464 160.88 92.6664 160.912 92.5785C163.595 85.006 167.281 77.8267 171.869 71.2319C171.929 72.9063 171.853 74.5827 171.643 76.2448C171.625 76.3837 171.653 76.5246 171.723 76.6461C171.792 76.7676 171.899 76.863 172.028 76.9178C172.157 76.9726 172.3 76.9838 172.436 76.9497C172.572 76.9155 172.693 76.8379 172.78 76.7287C175.261 73.5731 176.941 69.8636 177.676 65.9174C177.73 65.6389 177.784 65.3604 177.836 65.0807C185.746 66.5694 193.75 71.7094 199.268 78.8514C207.071 88.9722 212.042 99.211 214.327 121.497C213.13 123.002 203.92 133.465 174.182 142.394V142.389ZM214.148 168.042C207.237 170.082 200.137 171.415 192.958 172.02C189.913 172.277 186.156 172.277 184.168 169.947C181.054 165.66 183.693 161.45 184.821 156.835C185.723 157.216 186.706 157.359 187.679 157.252C189.434 156.897 191.137 156.323 192.748 155.541C194.151 154.845 195.771 154.729 197.258 155.219C197.718 155.427 198.123 155.724 198.633 156.019L195.424 160.896C195.358 160.997 195.321 161.115 195.319 161.236C195.317 161.357 195.349 161.476 195.412 161.58C195.474 161.684 195.565 161.767 195.673 161.822C195.782 161.876 195.903 161.898 196.024 161.887L213.967 160.105C214.926 161.196 215.47 162.591 215.503 164.043C215.536 165.495 215.056 166.913 214.148 168.047V168.042ZM238.034 166.736C228.875 164.203 229.648 164.742 215.55 168.261C217.54 165.068 217.028 161.02 214.712 159.044C215.365 159.009 216.014 158.923 216.653 158.787C219.22 158.024 220.294 155.104 222.283 153.971C223.179 153.616 224.113 153.365 225.067 153.224C228.966 152.36 228.955 152.333 229.302 152.375C229.527 152.442 229.726 152.574 229.875 152.755C230.023 152.937 230.114 153.158 230.135 153.392C230.068 153.882 228.824 154.113 227.028 155.803C226.958 155.869 226.905 155.949 226.87 156.037C226.836 156.126 226.821 156.221 226.828 156.316C226.835 156.411 226.863 156.504 226.91 156.586C226.957 156.669 227.022 156.741 227.1 156.795C228.347 157.671 231.976 159.724 232.152 159.85C232.549 160.388 237.011 162.36 238.55 166.02C238.633 166.262 238.698 166.509 238.745 166.76C238.632 166.805 238.51 166.827 238.388 166.824C238.265 166.821 238.145 166.793 238.034 166.742V166.736Z" fill="#343A3F"/>
<path d="M137.884 129.374C137.884 130.089 138.025 130.797 138.298 131.457C138.572 132.118 138.973 132.718 139.478 133.223C139.984 133.729 140.584 134.13 141.245 134.404C141.905 134.677 142.613 134.818 143.328 134.818C144.043 134.818 144.751 134.677 145.411 134.404C146.072 134.13 146.672 133.729 147.177 133.223C147.683 132.718 148.084 132.118 148.358 131.457C148.631 130.797 148.772 130.089 148.772 129.374C148.772 128.659 148.631 127.951 148.358 127.29C148.084 126.63 147.683 126.03 147.177 125.524C146.672 125.019 146.072 124.618 145.411 124.344C144.751 124.07 144.043 123.93 143.328 123.93C142.613 123.93 141.905 124.07 141.245 124.344C140.584 124.618 139.984 125.019 139.478 125.524C138.973 126.03 138.572 126.63 138.298 127.29C138.025 127.951 137.884 128.659 137.884 129.374Z" fill="white"/>
<path d="M179.877 168.93C179.877 170.388 180.456 171.785 181.487 172.816C182.517 173.847 183.915 174.426 185.372 174.426C186.83 174.426 188.228 173.847 189.258 172.816C190.289 171.785 190.868 170.388 190.868 168.93C190.868 167.473 190.289 166.075 189.258 165.044C188.228 164.014 186.83 163.435 185.372 163.435C183.915 163.435 182.517 164.014 181.487 165.044C180.456 166.075 179.877 167.473 179.877 168.93Z" fill="white"/>
<path d="M171.407 145.704C171.243 145.669 171.099 145.57 171.007 145.43C170.915 145.289 170.881 145.118 170.913 144.954C170.946 144.789 171.042 144.643 171.18 144.548C171.319 144.453 171.489 144.416 171.654 144.445C176.89 145.46 182.287 145.266 187.436 143.878C192.584 142.49 197.348 139.946 201.365 136.438C201.493 136.33 201.659 136.276 201.826 136.289C201.994 136.301 202.15 136.379 202.261 136.505C202.372 136.631 202.429 136.796 202.42 136.964C202.41 137.131 202.336 137.289 202.212 137.402C198.048 141.04 193.108 143.678 187.77 145.117C182.431 146.556 176.835 146.757 171.407 145.704Z" fill="white"/>
<path d="M185.066 151.382C189.618 150.147 193.846 147.934 197.456 144.897C201.095 141.808 204.505 138.46 207.66 134.878C207.772 134.75 207.931 134.672 208.101 134.661C208.271 134.651 208.438 134.708 208.566 134.82C208.694 134.933 208.772 135.091 208.783 135.261C208.793 135.431 208.736 135.598 208.624 135.726C205.427 139.355 201.971 142.748 198.284 145.878C194.53 149.035 190.133 151.336 185.4 152.621C185.238 152.659 185.067 152.632 184.924 152.546C184.782 152.461 184.678 152.323 184.634 152.163C184.591 152.002 184.612 151.831 184.692 151.685C184.773 151.54 184.907 151.431 185.066 151.382Z" fill="white"/>
<path d="M150.59 64.93C150.59 65.7363 150.91 66.5097 151.48 67.0798C152.051 67.65 152.824 67.9703 153.63 67.9703C154.437 67.9703 155.21 67.65 155.78 67.0798C156.35 66.5097 156.671 65.7363 156.671 64.93C156.671 64.1236 156.35 63.3503 155.78 62.7801C155.21 62.21 154.437 61.8896 153.63 61.8896C152.824 61.8896 152.051 62.21 151.48 62.7801C150.91 63.3503 150.59 64.1236 150.59 64.93Z" fill="#FF5470"/>
</svg>
