<svg width="213" height="200" viewBox="0 0 213 200" fill="none" xmlns="http://www.w3.org/2000/svg">
<path d="M169.677 0.776367H0.791016V25.2938H169.677V0.776367Z" fill="#343A3F"/>
<path d="M97.3236 19.2586H154.755C161.901 19.2586 162.021 7.24131 155.091 6.84924C154.307 6.80555 153.518 6.84924 152.767 6.84924C94.149 6.84924 96.1978 6.42245 94.1356 7.8238C93.3389 8.40159 92.713 9.18379 92.324 10.0878C91.935 10.9918 91.7973 11.9841 91.9254 12.9598C91.5491 16.9107 94.3417 19.3449 97.3236 19.2586Z" fill="white"/>
<path d="M169.657 26.2305H55.2236V199.165H169.657V26.2305Z" fill="white"/>
<path d="M153.069 14.3468C153.686 13.8329 154.084 13.1023 154.181 12.3045C154.278 11.5067 154.066 10.7021 153.589 10.0554C153.234 9.57218 152.748 9.2003 152.189 8.98329C151.63 8.76628 151.021 8.71314 150.433 8.8301C149.845 8.94706 149.302 9.22927 148.868 9.64365C148.435 10.058 148.128 10.5874 147.985 11.1697C147.842 11.752 147.867 12.3632 148.059 12.9315C148.25 13.4998 148.6 14.0017 149.067 14.3784C149.533 14.7551 150.098 14.991 150.693 15.0584C151.289 15.1258 151.892 15.022 152.431 14.759C154.356 17.2559 154.302 17.3623 154.719 17.1954C155.432 16.7675 153.639 15.486 153.069 14.3468ZM152.396 13.9715C152.004 14.2247 151.551 14.3681 151.085 14.3837C150.51 14.3897 149.952 14.1891 149.512 13.8184C149.073 13.4477 148.781 12.9316 148.69 12.3639C148.598 11.7962 148.714 11.2146 149.015 10.725C149.317 10.2353 149.784 9.87011 150.332 9.69577C150.742 9.56712 151.18 9.55104 151.598 9.64921C152.017 9.74738 152.401 9.95619 152.712 10.2538C153.022 10.5515 153.247 10.927 153.362 11.3411C153.478 11.7553 153.48 12.1929 153.369 12.6082C153.219 13.1646 152.874 13.6484 152.396 13.9715Z" fill="#343A3F"/>
<path d="M11.1371 12.5469L13.0492 10.6348C13.0837 10.6004 13.111 10.5595 13.1296 10.5145C13.1482 10.4695 13.1578 10.4213 13.1578 10.3726C13.1578 10.324 13.1482 10.2758 13.1296 10.2308C13.111 10.1858 13.0837 10.145 13.0492 10.1105C13.0148 10.0761 12.974 10.0488 12.929 10.0302C12.884 10.0115 12.8358 10.002 12.7871 10.002C12.7384 10.002 12.6902 10.0115 12.6453 10.0302C12.6003 10.0488 12.5594 10.0761 12.525 10.1105C9.93738 12.6959 9.62036 12.8292 9.97546 13.1843C12.9719 16.1808 12.9619 16.3466 13.3114 15.996C13.6866 15.6207 13.2957 15.4549 11.1371 13.2963C15.7466 13.2963 17.4045 13.3591 18.0004 13.265C18.0875 13.2644 18.1711 13.2307 18.2341 13.1707C18.2971 13.1106 18.3348 13.0288 18.3396 12.9418C18.3443 12.8549 18.3156 12.7695 18.2595 12.7029C18.2033 12.6364 18.1239 12.5938 18.0374 12.5839C17.4751 12.482 15.8463 12.5469 11.1371 12.5469Z" fill="#343A3F"/>
<path d="M33.0682 9.88575C33.0337 9.85133 32.9928 9.82404 32.9477 9.80544C32.9027 9.78684 32.8544 9.77729 32.8057 9.77734C32.757 9.7774 32.7087 9.78705 32.6637 9.80574C32.6187 9.82444 32.5778 9.85182 32.5434 9.88631C32.509 9.92081 32.4817 9.96175 32.4631 10.0068C32.4445 10.0518 32.4349 10.1001 32.435 10.1488C32.435 10.1976 32.4447 10.2458 32.4634 10.2908C32.4821 10.3358 32.5095 10.3767 32.544 10.4111L34.7182 12.5854H27.8952C27.7958 12.5854 27.7005 12.6249 27.6303 12.6951C27.56 12.7654 27.5205 12.8607 27.5205 12.9601C27.5205 13.0595 27.56 13.1548 27.6303 13.2251C27.7005 13.2953 27.7958 13.3348 27.8952 13.3348H34.7182L32.8083 15.2469C32.7739 15.2814 32.7466 15.3224 32.728 15.3674C32.7094 15.4125 32.6999 15.4607 32.6999 15.5095C32.7 15.5582 32.7096 15.6064 32.7283 15.6514C32.747 15.6965 32.7744 15.7373 32.8089 15.7718C32.8434 15.8062 32.8843 15.8335 32.9294 15.8521C32.9744 15.8707 33.0227 15.8802 33.0714 15.8802C33.1201 15.8801 33.1684 15.8705 33.2134 15.8518C33.2584 15.8331 33.2993 15.8057 33.3337 15.7712C35.9191 13.1858 36.2372 13.0525 35.8821 12.6974L33.0682 9.88575Z" fill="#343A3F"/>
<path d="M157.342 6.6611C155.357 5.72799 157.342 6.3945 97.3608 6.06069C96.5501 6.05522 95.7463 6.21025 94.9958 6.51686C94.2452 6.82347 93.5628 7.27558 92.9878 7.84714C92.4128 8.4187 91.9566 9.09841 91.6455 9.84709C91.3344 10.5958 91.1746 11.3986 91.1752 12.2094C91.1752 13.818 90.9287 15.4478 92.2618 17.3454C92.8259 18.1437 93.5731 18.7951 94.4407 19.2451C95.3084 19.6951 96.2714 19.9307 97.2488 19.9319H154.796C161.924 19.9319 163.097 9.36411 157.342 6.6611ZM154.756 19.2576H97.5647C89.9475 19.2576 90.0595 6.61406 97.3239 6.84817C97.3239 6.84817 154.306 6.80561 155.056 6.84817C156.173 6.91878 157.239 7.3414 158.101 8.05541C158.963 8.76942 159.577 9.73812 159.855 10.8226C160.917 16.3977 158.238 19.1982 154.756 19.2576Z" fill="#343A3F"/>
<path d="M170.418 0.614807C170.418 0.521832 170.428 0.0961619 169.795 0.0726381C166.381 -0.0550628 144.174 0.024471 0.456039 0.024471C0.337832 0.0264872 0.225031 0.0743419 0.141434 0.157939C0.0578366 0.241536 0.00998189 0.354337 0.00796575 0.472544C-0.00995718 3.16098 0.00796575 24.9172 0.00796575 199.535C0.00796575 199.615 -0.0200391 199.767 0.394429 199.82C3.06046 200.164 22.8933 199.909 170.018 199.909C170.018 199.909 170.423 199.797 170.423 199.616L170.418 0.614807ZM169.657 199.165C169.657 199.165 55.4716 199.141 55.1859 199.165V26.23C55.1859 26.23 169.208 26.2681 169.657 26.23V199.165ZM169.676 25.2936C169.676 25.2936 1.50341 25.2555 0.752887 25.2936V0.776113C0.752887 0.776113 168.927 0.813079 169.638 0.776113C169.638 25.2812 169.564 25.2936 169.676 25.2936Z" fill="#343A3F"/>
<path d="M68.3449 84.1502C156.734 84.1502 156.855 84.4247 156.855 83.775C156.855 83.1253 156.855 83.4008 68.383 83.4008C67.8856 83.4008 67.8699 84.1502 68.3449 84.1502Z" fill="#F2F4F8"/>
<path d="M156.518 141.358C68.1288 141.358 68.0078 141.082 68.0078 141.732C68.0078 142.382 68.0213 142.107 156.518 142.107C156.569 142.11 156.62 142.102 156.668 142.084C156.716 142.067 156.76 142.04 156.797 142.005C156.834 141.97 156.863 141.927 156.883 141.88C156.903 141.834 156.913 141.783 156.913 141.732C156.913 141.681 156.903 141.631 156.883 141.584C156.862 141.537 156.833 141.495 156.796 141.46C156.759 141.425 156.715 141.398 156.667 141.38C156.62 141.363 156.569 141.355 156.518 141.358Z" fill="#F2F4F8"/>
<path d="M16.6104 48.9864L18.4105 50.073C18.4779 50.1086 18.5542 50.1238 18.6301 50.1166C18.7059 50.1095 18.7781 50.0803 18.8376 50.0327C18.8971 49.9851 18.9414 49.9211 18.965 49.8487C18.9886 49.7762 18.9906 49.6984 18.9706 49.6249L18.2582 47.3386C18.8721 46.3216 19.0925 45.1151 18.8778 43.9468C18.6631 42.7784 18.0282 41.7291 17.0928 40.9968C16.1575 40.2645 14.9865 39.8999 13.8008 39.9718C12.615 40.0437 11.4967 40.5472 10.6567 41.3872C9.81671 42.2271 9.31326 43.3455 9.24135 44.5312C9.16943 45.7169 9.53403 46.888 10.2663 47.8233C10.9986 48.7586 12.048 49.3936 13.2163 49.6083C14.3847 49.8229 15.5912 49.6025 16.6081 48.9886L16.6104 48.9864ZM11.7746 41.4117C12.5696 40.8741 13.527 40.63 14.4823 40.7214C15.4377 40.8128 16.3315 41.234 17.0101 41.9126C17.6887 42.5913 18.1099 43.485 18.2013 44.4404C18.2927 45.3958 18.0487 46.3532 17.511 47.1482C17.3777 47.324 17.4292 47.2714 17.9591 48.9102C16.7269 48.1978 16.6541 48.0791 16.4222 48.2381C15.517 48.8276 14.4169 49.0389 13.3578 48.8267C12.2987 48.6145 11.3649 47.9957 10.7567 47.103C10.1485 46.2104 9.91428 45.1149 10.1044 44.0516C10.2944 42.9883 10.8936 42.0418 11.7734 41.4151L11.7746 41.4117Z" fill="#F2F4F8"/>
<path d="M19.5346 67.5798L18.8973 65.5926C19.454 64.627 19.6165 63.4839 19.3511 62.4014C19.0856 61.3189 18.4126 60.3807 17.4724 59.7822C15.0886 58.2755 11.932 59.6467 11.3248 61.4692C11.1008 61.8814 11.7662 62.2903 11.9633 61.8433C12.1555 61.4162 12.4313 61.0318 12.7743 60.7128C13.1173 60.3938 13.5207 60.1467 13.9606 59.9859C14.4006 59.8252 14.8683 59.7541 15.3361 59.7768C15.804 59.7995 16.2626 59.9156 16.6849 60.1183C17.1409 60.3302 17.5469 60.6361 17.8764 61.016C18.2058 61.3959 18.4512 61.8411 18.5964 62.3225C18.7417 62.8039 18.7835 63.3106 18.7191 63.8093C18.6547 64.308 18.4856 64.7875 18.2229 65.2162C17.9776 65.5959 18.1053 65.7259 18.485 66.8662C17.5642 66.3297 17.4444 66.1885 17.2103 66.3409C16.6843 66.6892 16.0774 66.896 15.4482 66.9413C14.9609 66.9738 14.9609 67.7254 15.4482 67.6907C16.1342 67.6375 16.7999 67.4328 17.3973 67.0914L18.9723 68.0279C19.0397 68.0642 19.1163 68.0799 19.1926 68.0731C19.2689 68.0663 19.3415 68.0372 19.4014 67.9895C19.4613 67.9417 19.5058 67.8775 19.5295 67.8046C19.5532 67.7318 19.555 67.6536 19.5346 67.5798Z" fill="#F2F4F8"/>
<path d="M14.3248 68.1429C16.9012 64.3286 11.0449 60.501 8.5514 64.3186C8.20358 64.8573 8.00934 65.4807 7.9896 66.1216C7.96986 66.7625 8.12537 67.3967 8.43938 67.9558L7.72694 69.1174C7.69184 69.1848 7.67709 69.261 7.68447 69.3366C7.69186 69.4122 7.72106 69.4841 7.76853 69.5434C7.816 69.6028 7.87969 69.647 7.95186 69.6708C8.02403 69.6946 8.10155 69.6969 8.17502 69.6775L9.67382 69.1902C10.4355 69.6452 11.3429 69.7902 12.2085 69.5953C13.074 69.4004 13.8317 68.8804 14.3248 68.1429ZM9.26271 64.6557C11.3832 61.7701 15.6825 65.0164 13.5743 67.8426C13.139 68.3954 12.5117 68.764 11.817 68.8753C11.1223 68.9865 10.4112 68.8322 9.82504 68.4431C8.98939 68.4431 8.5794 69.1779 9.15293 68.1798C9.18918 68.1242 9.20848 68.0592 9.20848 67.9927C9.20848 67.9263 9.18918 67.8613 9.15293 67.8057C8.85119 67.3309 8.70018 66.7759 8.71978 66.2137C8.73937 65.6515 8.92864 65.1083 9.26271 64.6557Z" fill="#F2F4F8"/>
<path d="M16.7986 99.1076C10.1649 99.1076 10.3508 98.9699 10.3508 99.4829C10.3508 109.116 10.2198 108.71 10.6499 108.817C10.8605 108.817 10.6499 109.004 13.7248 105.968C18.0454 110.231 17.1358 110.94 17.1358 99.4448C17.1727 99.2578 17.0238 99.1076 16.7986 99.1076ZM13.4997 105.181L11.1002 107.543V99.8201H16.4233V107.543C13.894 105.054 13.8828 104.893 13.4997 105.181Z" fill="#F2F4F8"/>
<path d="M12.2249 44.2621C16.1455 44.2621 16.1231 44.364 16.1231 43.8868C16.1231 43.3839 15.9764 43.5116 12.2249 43.5116C12.1253 43.5116 12.0299 43.5511 11.9595 43.6215C11.8891 43.6918 11.8496 43.7873 11.8496 43.8868C11.8496 43.9863 11.8891 44.0818 11.9595 44.1522C12.0299 44.2225 12.1253 44.2621 12.2249 44.2621Z" fill="#F2F4F8"/>
<path d="M12.2243 46.2112C16.145 46.2112 16.1225 46.3131 16.1225 45.8359C16.1225 45.3341 15.9769 45.4618 12.2243 45.4618C12.1249 45.4618 12.0296 45.5013 11.9594 45.5715C11.8891 45.6418 11.8496 45.7371 11.8496 45.8365C11.8496 45.9359 11.8891 46.0312 11.9594 46.1014C12.0296 46.1717 12.1249 46.2112 12.2243 46.2112Z" fill="#F2F4F8"/>
<path d="M12.4878 79.8765C11.1976 80.2843 10.1205 81.1849 9.4906 82.3825C8.86075 83.5801 8.72907 84.9779 9.1242 86.2721C9.51933 87.5663 10.4093 88.6522 11.6007 89.2937C12.7921 89.9353 14.1886 90.0807 15.4866 89.6982C17.989 88.988 17.0929 87.9261 16.6482 88.2734C15.7219 88.9541 14.5655 89.244 13.4276 89.0808C12.2897 88.9176 11.2614 88.3143 10.5638 87.4006C9.86628 86.487 9.55521 85.336 9.69757 84.1954C9.83993 83.0547 10.4243 82.0155 11.3251 81.3013C11.9789 80.8215 12.7513 80.5293 13.559 80.4563C14.3667 80.3833 15.179 80.5323 15.9082 80.8871C16.6374 81.242 17.2559 81.7893 17.6968 82.4699C18.1377 83.1506 18.3844 83.9387 18.4102 84.7493C18.465 85.0039 18.4391 85.2693 18.3362 85.5086C18.2334 85.7479 18.0585 85.9493 17.836 86.0847C17.6135 86.2201 17.3544 86.283 17.0946 86.2645C16.8348 86.246 16.5871 86.1471 16.3861 85.9815C15.9223 85.4214 16.1015 83.069 16.162 82.1572C16.1934 81.6699 15.4496 81.6699 15.4126 82.1572C15.3801 82.4316 15.3678 82.706 15.3745 82.9827C15.0348 82.6041 14.5857 82.3406 14.0894 82.2288C13.5932 82.117 13.0744 82.1624 12.6051 82.3588C12.1359 82.5552 11.7394 82.8929 11.4707 83.3248C11.2021 83.7568 11.0745 84.2617 11.1058 84.7694C11.1371 85.2771 11.3257 85.7625 11.6453 86.1583C11.965 86.554 12.3999 86.8403 12.8898 86.9776C13.3796 87.1149 13.9 87.0964 14.3788 86.9245C14.8576 86.7526 15.271 86.4359 15.5616 86.0184C15.68 86.2754 15.8569 86.5012 16.0781 86.6776C16.2993 86.8541 16.5587 86.9764 16.8356 87.0347C17.1125 87.093 17.3992 87.0858 17.6728 87.0136C17.9464 86.9414 18.1993 86.8062 18.4114 86.6188C20.701 84.9319 17.7146 78.2791 12.4867 79.8765H12.4878ZM13.5363 86.3242C13.0866 86.3128 12.6591 86.1261 12.345 85.8039C12.031 85.4817 11.8552 85.0496 11.8552 84.5997C11.8552 84.1498 12.031 83.7177 12.345 83.3955C12.6591 83.0734 13.0866 82.8867 13.5363 82.8752C13.9861 82.8861 14.4138 83.0722 14.7283 83.394C15.0428 83.7157 15.2192 84.1476 15.2197 84.5975C15.2203 85.0475 15.0451 85.4798 14.7315 85.8024C14.4178 86.1249 13.9906 86.3122 13.5408 86.3242H13.5363Z" fill="#F2F4F8"/>
<path d="M46.4887 43.1382C24.0716 43.1382 23.9954 42.7013 23.9954 44.1464C23.9954 46.7049 23.7714 47.8206 25.0036 47.8206C47.4218 47.8206 47.4969 48.2574 47.4969 46.8124C47.5013 44.2539 47.7299 43.1382 46.4887 43.1382Z" fill="#F2F4F8"/>
<path d="M46.4887 62.5562C24.0716 62.5562 23.9954 62.1193 23.9954 63.5643C23.9954 66.1228 23.7714 67.2385 25.0036 67.2385C47.4218 67.2385 47.4969 67.6754 47.4969 66.2304C47.5013 63.6719 47.7299 62.5562 46.4887 62.5562Z" fill="#F2F4F8"/>
<path d="M46.4887 82.0122C24.0716 82.0122 23.9954 81.5754 23.9954 83.0204C23.9954 85.5789 23.7714 86.6946 25.0036 86.6946C47.4218 86.6946 47.4969 87.1315 47.4969 85.6864C47.5013 83.1279 47.7299 82.0122 46.4887 82.0122Z" fill="#F2F4F8"/>
<path d="M46.4887 101.432C24.0716 101.432 23.9954 100.995 23.9954 102.44C23.9954 104.998 23.7714 106.113 25.0036 106.113C47.4218 106.113 47.4969 106.55 47.4969 105.105C47.5013 102.548 47.7299 101.432 46.4887 101.432Z" fill="#F2F4F8"/>
<path d="M46.4887 140.308C33.4162 140.308 32.6937 139.907 32.6937 141.316C32.6937 143.874 32.4696 144.99 33.7018 144.99C46.7755 144.99 47.498 145.391 47.498 143.982C47.5014 141.423 47.7299 140.308 46.4898 140.308H46.4887Z" fill="#F2F4F8"/>
<path d="M46.4887 172.323C33.4162 172.323 32.6937 171.922 32.6937 173.331C32.6937 175.889 32.4696 177.005 33.7018 177.005C46.7755 177.005 47.498 177.406 47.498 175.996C47.5014 173.439 47.7299 172.323 46.4898 172.323H46.4887Z" fill="#F2F4F8"/>
<path d="M18.5598 151.778C19.963 151.775 21.3481 151.462 22.6155 150.86C23.8829 150.258 25.001 149.382 25.8895 148.296C26.778 147.21 27.4147 145.941 27.7538 144.579C28.0929 143.217 28.126 141.798 27.8506 140.422C27.483 138.582 26.5787 136.891 25.2519 135.565C23.925 134.238 22.2349 133.333 20.3947 132.966C19.0189 132.691 17.5994 132.725 16.2382 133.064C14.877 133.404 13.6079 134.041 12.5221 134.929C11.4363 135.817 10.5607 136.935 9.95836 138.202C9.356 139.469 9.04178 140.854 9.03829 142.257C9.02603 144.143 9.57813 145.991 10.6237 147.561C11.6692 149.132 13.1605 150.354 14.9058 151.07C16.0648 151.546 17.3069 151.787 18.5598 151.778Z" fill="white"/>
<path d="M15.8229 139.445C15.1765 139.015 15.0611 138.885 14.8483 138.958C14.7511 138.991 14.6701 139.059 14.6213 139.15C14.5725 139.24 14.5595 139.345 14.5851 139.445C14.6814 139.638 14.5952 139.557 15.0724 139.857C14.836 140.567 15.2348 141.089 15.6728 141.089C16.5151 141.094 16.5376 139.623 15.8229 139.445Z" fill="#343A3F"/>
<path d="M19.3093 140.119C19.3093 138.495 19.4213 138.133 18.9341 138.133C18.8841 138.129 18.834 138.137 18.7872 138.154C18.7404 138.172 18.698 138.2 18.663 138.236C18.6277 138.271 18.6003 138.314 18.5825 138.36C18.5648 138.407 18.5571 138.457 18.5599 138.507C18.5599 139.515 18.4849 140.569 18.5599 141.582C18.4837 141.657 16.3946 144.476 16.1975 144.731C15.904 145.11 16.5671 145.475 16.836 145.105C19.791 141.026 19.3093 142.158 19.3093 140.119Z" fill="#343A3F"/>
<path d="M22.5712 146.23C21.7703 147.748 20.5627 147.655 19.3473 147.655C19.3005 147.643 19.2518 147.64 19.2038 147.646C19.1559 147.653 19.1097 147.668 19.0679 147.693C19.026 147.717 18.9894 147.749 18.9601 147.788C18.9308 147.826 18.9093 147.87 18.897 147.917C18.8846 147.964 18.8816 148.013 18.8881 148.061C18.8946 148.109 18.9104 148.155 18.9348 148.197C18.9591 148.238 18.9915 148.275 19.0299 148.304C19.0684 148.334 19.1123 148.355 19.1591 148.367C19.6775 148.506 20.2206 148.523 20.7469 148.419C21.2732 148.316 21.7688 148.093 22.1959 147.768C24.07 146.465 22.8848 145.635 22.5712 146.23Z" fill="#343A3F"/>
<path d="M21.671 139.632C22.3084 140.038 22.0071 139.77 22.0071 140.233C22.0071 141.324 23.3513 141.324 23.3513 140.233C23.3693 140.035 23.309 139.837 23.1833 139.683C23.0577 139.529 22.8768 139.43 22.6792 139.408L22.0418 138.995C21.5277 138.736 21.27 139.497 21.671 139.632Z" fill="#343A3F"/>
<path d="M23.2859 142.657C23.376 142.439 23.5083 142.24 23.6754 142.073C23.8424 141.905 24.0408 141.772 24.2592 141.682C24.4777 141.591 24.7118 141.545 24.9483 141.545C25.1847 141.545 25.4189 141.592 25.6372 141.683C25.9658 141.819 26.2467 142.049 26.4443 142.345C26.642 142.641 26.7474 142.989 26.7474 143.345C26.7475 143.7 26.642 144.048 26.4444 144.344C26.2468 144.64 25.9659 144.87 25.6373 145.007C25.3086 145.143 24.947 145.178 24.598 145.109C24.2491 145.04 23.9285 144.869 23.6769 144.617C23.4252 144.366 23.2538 144.045 23.1842 143.697C23.1146 143.348 23.15 142.986 23.2859 142.657Z" fill="#FF5470"/>
<path d="M11.8951 142.661C11.9852 142.442 12.1177 142.243 12.2849 142.076C12.452 141.908 12.6506 141.776 12.8691 141.685C13.0877 141.595 13.3219 141.549 13.5585 141.549C13.795 141.549 14.0291 141.596 14.2474 141.687C14.5763 141.824 14.8574 142.054 15.0551 142.35C15.2528 142.647 15.3582 142.995 15.3581 143.351C15.358 143.707 15.2523 144.055 15.0544 144.351C14.8564 144.647 14.5752 144.877 14.2463 145.013C13.9173 145.149 13.5553 145.185 13.2062 145.115C12.857 145.046 12.5363 144.874 12.2846 144.622C12.033 144.371 11.8616 144.05 11.7923 143.701C11.7229 143.351 11.7587 142.989 11.8951 142.661Z" fill="#FF5470"/>
<path d="M20.3973 164.225C18.477 163.843 16.4854 164.063 14.6952 164.856C12.9049 165.649 11.4034 166.976 10.3962 168.655C9.38898 170.334 8.92522 172.283 9.06841 174.236C9.21159 176.189 9.95472 178.049 11.1961 179.564C12.4372 181.077 14.1154 182.171 16.0014 182.694C17.8874 183.218 19.8891 183.146 21.7328 182.489C23.5766 181.832 25.1725 180.622 26.3022 179.023C27.432 177.425 28.0406 175.517 28.0448 173.559C28.0461 171.359 27.2847 169.226 25.8903 167.525C24.4959 165.823 22.5548 164.657 20.3973 164.225Z" fill="white"/>
<path d="M15.7484 170.711C15.1267 170.284 15.046 170.194 14.8522 170.263C14.7551 170.296 14.674 170.365 14.6252 170.455C14.5764 170.545 14.5634 170.651 14.589 170.75C14.6853 170.943 14.5991 170.862 15.0763 171.163C14.8455 171.856 15.251 172.362 15.6767 172.362C16.565 172.361 16.5291 170.793 15.7484 170.711Z" fill="#343A3F"/>
<path d="M18.9344 176.559C19.4688 176.559 19.3097 176.508 19.3097 169.773C19.3134 169.696 19.2938 169.62 19.2534 169.555C19.213 169.49 19.1537 169.438 19.0834 169.408C19.0247 169.382 18.9606 169.372 18.897 169.379C18.8334 169.385 18.7726 169.408 18.7202 169.445C18.6678 169.481 18.6256 169.53 18.5976 169.588C18.5697 169.645 18.5568 169.709 18.5603 169.773C18.5603 176.393 18.4012 176.559 18.9344 176.559Z" fill="#343A3F"/>
<path d="M22.9088 176.934C22.8483 176.634 22.3375 176.552 22.2367 176.859C20.9933 179.211 18.6813 177.807 18.5256 178.584C18.3441 179.492 21.3059 179.256 22.3868 177.912C22.4596 178.381 22.3532 178.862 22.0877 179.256C21.4089 180.274 20.459 179.928 20.5878 180.569C20.7603 181.453 23.9372 180.016 22.9088 176.934Z" fill="#343A3F"/>
<path d="M21.6711 170.936C22.183 171.294 22.0072 171.075 22.0072 171.496C22.0072 172.587 23.3514 172.587 23.3514 171.496C23.3601 171.395 23.3485 171.293 23.3173 171.196C23.286 171.099 23.2358 171.01 23.1695 170.933C23.1033 170.856 23.0223 170.793 22.9314 170.748C22.8404 170.703 22.7414 170.676 22.6401 170.67C22.1181 170.312 21.7764 169.973 21.5199 170.408C21.4918 170.452 21.4734 170.501 21.4658 170.552C21.4582 170.604 21.4617 170.656 21.476 170.706C21.4904 170.756 21.5152 170.802 21.5488 170.842C21.5824 170.881 21.6241 170.913 21.6711 170.936Z" fill="#343A3F"/>
<path d="M23.3026 173.953C23.4978 173.531 23.8487 173.201 24.2818 173.032C24.7149 172.862 25.1967 172.867 25.6263 173.045C26.0559 173.223 26.4001 173.56 26.5869 173.986C26.7737 174.412 26.7886 174.893 26.6284 175.33C26.4332 175.752 26.0823 176.082 25.6492 176.251C25.2161 176.42 24.7343 176.416 24.3047 176.238C23.8751 176.06 23.5309 175.723 23.3441 175.297C23.1573 174.871 23.1424 174.39 23.3026 173.953Z" fill="#FF5470"/>
<path d="M11.9101 173.957C12.0228 173.683 12.2015 173.441 12.4303 173.253C12.659 173.065 12.9307 172.936 13.2212 172.878C13.5116 172.82 13.8119 172.835 14.0952 172.922C14.3785 173.008 14.636 173.163 14.845 173.373C15.0969 173.624 15.2684 173.945 15.3378 174.294C15.4073 174.643 15.3714 175.005 15.2348 175.333C15.1446 175.552 15.0122 175.75 14.8453 175.917C14.6783 176.084 14.48 176.217 14.2617 176.307C14.0434 176.398 13.8094 176.444 13.5731 176.444C13.3368 176.444 13.1029 176.397 12.8847 176.307C12.6664 176.216 12.468 176.084 12.3009 175.917C12.1337 175.75 12.0012 175.552 11.9107 175.333C11.8202 175.115 11.7735 174.881 11.7734 174.645C11.7733 174.409 11.8198 174.175 11.9101 173.957Z" fill="#FF5470"/>
<path d="M111.194 57.4205C111.577 57.5169 111.573 57.0374 111.457 68.5182C111.451 68.9565 111.531 69.3918 111.694 69.7988C111.857 70.2058 112.099 70.5765 112.406 70.8896C112.712 71.2029 113.078 71.4526 113.481 71.6246C113.884 71.7967 114.317 71.8876 114.756 71.8922H208.589C210.443 71.8922 212.128 70.567 211.963 67.7677V41.0009C211.977 40.3366 211.792 39.6832 211.433 39.1242C211.074 38.5651 210.557 38.1258 209.947 37.8621C209.541 37.6875 209.105 37.595 208.664 37.5899C181.619 37.3189 119.304 37.5182 115.65 37.4858C112.884 37.4611 111.665 38.2699 111.525 41.4714C111.456 43.0396 111.525 45.5421 111.525 49.8862C111.525 50.3119 111.949 50.0307 102.529 53.1851C100.871 53.8976 100.898 53.5839 111.194 57.4205Z" fill="#F2F4F8"/>
<path d="M212.751 40.8885C212.738 39.825 212.313 38.808 211.564 38.0523C210.815 37.2967 209.803 36.8616 208.739 36.839H114.793C113.738 36.8295 112.722 37.2388 111.969 37.9772C111.216 38.7157 110.786 39.7228 110.775 40.7776C110.685 42.1297 110.744 44.5336 110.744 49.627C97.4143 54.1683 97.85 53.2004 110.781 57.987V68.5592C110.782 69.5534 111.143 70.5136 111.798 71.2615C112.453 72.0095 113.357 72.4946 114.342 72.6266H208.739C209.782 72.6177 210.782 72.2107 211.534 71.489C212.287 70.7673 212.735 69.7854 212.788 68.7441C212.821 68.0059 212.779 42.6181 212.751 40.8885ZM208.572 71.791H114.793C114.361 71.793 113.933 71.71 113.534 71.5465C113.134 71.3831 112.771 71.1425 112.465 70.8385C112.158 70.5344 111.915 70.173 111.748 69.7748C111.582 69.3766 111.495 68.9494 111.494 68.5178V58.0194C111.494 57.7439 111.494 57.4672 111.27 57.3373C109.783 56.4411 102.902 54.4729 101.932 53.9341C101.372 53.5219 102.307 53.3348 102.532 53.2217C111.925 50.0774 111.529 50.3428 111.529 49.9228C111.529 44.8248 111.429 42.2652 111.575 40.7754C111.744 39.0335 112.728 37.6075 114.673 37.6388C117.038 37.6691 204.512 37.5896 208.699 37.6321C209.588 37.6483 210.435 38.0166 211.054 38.6562C211.672 39.2959 212.012 40.1546 211.998 41.0442C211.998 62.1238 212.055 67.056 211.968 68.6578C211.946 69.3048 211.731 69.9306 211.351 70.4544C210.971 70.9783 210.442 71.3763 209.834 71.5972C209.43 71.7445 209.001 71.8104 208.572 71.791Z" fill="#343A3F"/>
<path d="M212 153.865C212.009 153.426 211.93 152.99 211.768 152.581C211.606 152.173 211.365 151.801 211.058 151.487C210.751 151.173 210.384 150.923 209.98 150.752C209.575 150.581 209.141 150.492 208.701 150.491C202.678 150.491 117.823 150.603 115.115 150.603C113.305 150.603 111.876 151.059 111.57 153.348C111.376 154.794 111.494 157.342 111.494 162.757C111.494 163.169 111.956 162.913 102.497 166.093C101.166 166.541 101.74 166.754 102.945 167.181C111.919 170.348 111.458 170.221 111.458 170.63V181.351C111.45 181.79 111.53 182.226 111.692 182.634C111.855 183.041 112.096 183.413 112.404 183.726C112.71 184.04 113.076 184.29 113.48 184.462C113.884 184.633 114.318 184.723 114.757 184.725H208.629C209.323 184.73 210.002 184.521 210.572 184.125C211.143 183.729 211.577 183.166 211.815 182.514C212.112 181.489 211.71 182.406 212 153.865Z" fill="#F2F4F8"/>
<path d="M212.75 153.753C212.738 152.689 212.312 151.672 211.564 150.917C210.815 150.161 209.802 149.726 208.739 149.703H114.793C114.136 149.709 113.491 149.873 112.911 150.179C112.33 150.486 111.832 150.927 111.457 151.465C110.527 152.809 110.744 153.447 110.744 162.525C105.428 164.328 102.303 165.268 101.26 166.038C100.673 166.471 100.746 166.851 101.457 167.301C102.689 168.076 105.813 169.06 110.744 170.886V181.415C110.745 182.41 111.106 183.37 111.761 184.118C112.416 184.866 113.32 185.351 114.305 185.483H208.737C209.774 185.479 210.771 185.079 211.523 184.365C212.276 183.651 212.727 182.676 212.785 181.641C212.827 180.897 212.778 155.461 212.75 153.753ZM208.626 184.755H114.793C113.91 184.74 113.068 184.377 112.451 183.746C111.833 183.114 111.489 182.265 111.494 181.382V170.468C111.494 169.872 103.024 167.404 101.934 166.798C101.374 166.386 102.309 166.199 102.535 166.126C111.923 162.969 111.531 163.214 111.531 162.789C111.531 157.758 111.433 155.208 111.572 153.716C111.783 151.475 112.931 150.563 114.732 150.53C117.324 150.482 199.77 150.439 208.739 150.53C209.622 150.546 210.463 150.909 211.08 151.54C211.698 152.172 212.042 153.021 212.038 153.904C212.038 175.798 212.017 180.131 211.897 181.592C211.874 182.443 211.519 183.251 210.907 183.842C210.296 184.433 209.477 184.761 208.626 184.755Z" fill="#343A3F"/>
<path d="M173.012 159.99C123.859 159.99 123.827 159.714 123.827 160.364C123.827 161.014 123.827 160.739 173.012 160.739C173.063 160.742 173.114 160.734 173.162 160.716C173.21 160.699 173.254 160.672 173.291 160.637C173.328 160.602 173.357 160.559 173.377 160.512C173.397 160.465 173.407 160.415 173.408 160.364C173.407 160.313 173.397 160.263 173.377 160.216C173.357 160.169 173.327 160.127 173.29 160.092C173.253 160.057 173.209 160.03 173.162 160.012C173.114 159.995 173.063 159.987 173.012 159.99Z" fill="#343A3F"/>
<path d="M134.925 166.324C123.427 166.324 123.827 166.164 123.827 166.699C123.827 167.235 123.454 167.075 134.925 167.075C135.024 167.075 135.12 167.035 135.19 166.965C135.26 166.894 135.3 166.799 135.3 166.699C135.3 166.6 135.26 166.504 135.19 166.434C135.12 166.364 135.024 166.324 134.925 166.324Z" fill="#343A3F"/>
<path d="M200.379 159.991C178 159.991 177.998 159.756 177.998 160.365C177.998 160.973 178.005 160.74 200.379 160.74C200.43 160.742 200.481 160.735 200.529 160.717C200.577 160.7 200.621 160.673 200.658 160.638C200.695 160.603 200.724 160.56 200.744 160.513C200.764 160.466 200.775 160.416 200.775 160.365C200.775 160.314 200.764 160.263 200.744 160.217C200.724 160.17 200.694 160.128 200.657 160.093C200.62 160.058 200.577 160.031 200.529 160.013C200.481 159.995 200.43 159.988 200.379 159.991Z" fill="#343A3F"/>
<path d="M212 99.5576C212.013 98.8961 211.827 98.2459 211.467 97.6908C211.107 97.1358 210.589 96.7014 209.979 96.4435C209.575 96.2729 209.14 96.1845 208.701 96.1836C202.678 96.1836 117.823 96.2956 115.115 96.29C113.305 96.29 111.876 96.747 111.57 99.0345C111.376 100.481 111.494 103.03 111.494 108.444C111.494 108.857 111.956 108.601 102.497 111.781C101.166 112.229 101.74 112.442 102.945 112.868C111.919 116.035 111.458 115.909 111.458 116.317V127.039C111.438 127.942 111.772 128.816 112.389 129.476C113.005 130.135 113.855 130.528 114.757 130.569H208.486C209.212 130.544 209.915 130.307 210.506 129.886C211.098 129.465 211.553 128.879 211.813 128.201C212.112 127.181 211.71 128.099 212 99.5576Z" fill="#F2F4F8"/>
<path d="M212.75 99.4448C212.738 98.3814 212.312 97.3645 211.564 96.6091C210.815 95.8536 209.802 95.4188 208.739 95.3965H114.793C114.136 95.4027 113.491 95.5658 112.911 95.8724C112.33 96.1789 111.832 96.6199 111.457 97.1585C110.527 98.5028 110.744 99.139 110.744 108.217C105.428 110.02 102.303 110.96 101.26 111.731C100.673 112.165 100.746 112.544 101.457 112.993C102.689 113.769 105.813 114.752 110.744 116.578V127.113C110.745 128.108 111.106 129.068 111.761 129.816C112.416 130.564 113.32 131.049 114.305 131.181H208.737C209.775 131.178 210.772 130.778 211.525 130.064C212.278 129.349 212.729 128.374 212.785 127.337C212.827 126.589 212.778 101.154 212.75 99.4448ZM208.626 130.448H114.793C113.91 130.432 113.069 130.069 112.451 129.438C111.834 128.806 111.49 127.957 111.494 127.074V116.161C111.494 115.564 103.024 113.096 101.934 112.492C101.374 112.078 102.309 111.892 102.535 111.819C111.923 108.663 111.531 108.907 111.531 108.484C111.531 103.453 111.433 100.902 111.572 99.4101C111.783 97.1697 112.931 96.259 114.732 96.2254C117.324 96.1773 199.77 96.1336 208.739 96.2254C209.622 96.2416 210.463 96.6046 211.08 97.236C211.698 97.8674 212.042 98.7164 212.038 99.5994C212.038 121.495 212.017 125.827 211.897 127.288C211.873 128.138 211.517 128.944 210.906 129.535C210.294 130.126 209.476 130.453 208.626 130.448Z" fill="#343A3F"/>
<path d="M178.523 49.0285C178.523 48.3788 178.523 48.6533 124.202 48.6533C124.103 48.6533 124.007 48.6928 123.937 48.7632C123.867 48.8335 123.827 48.929 123.827 49.0285C123.827 49.128 123.867 49.2235 123.937 49.2939C124.007 49.3642 124.103 49.4038 124.202 49.4038C178.526 49.4374 178.523 49.6681 178.523 49.0285Z" fill="#343A3F"/>
<path d="M182.496 49.3984C199.411 49.3984 199.441 49.6078 199.441 49.0231C199.441 48.4384 199.423 48.6478 182.496 48.6478C182.397 48.6478 182.301 48.6874 182.231 48.7577C182.161 48.8281 182.121 48.9236 182.121 49.0231C182.121 49.1226 182.161 49.2181 182.231 49.2884C182.301 49.3588 182.397 49.3984 182.496 49.3984Z" fill="#343A3F"/>
<path d="M168.139 54.3456C123.855 54.3456 123.827 54.0712 123.827 54.7209C123.827 55.3706 123.827 55.0962 168.101 55.0962C168.197 55.0954 168.289 55.058 168.359 54.9916C168.428 54.9252 168.469 54.8348 168.474 54.7389C168.479 54.643 168.447 54.5488 168.385 54.4757C168.323 54.4026 168.235 54.3561 168.139 54.3456Z" fill="#343A3F"/>
<path d="M146.17 60.0824C123.833 60.0824 123.827 59.8483 123.827 60.4565C123.827 61.1018 123.885 60.8318 146.17 60.8318C146.266 60.8265 146.356 60.7848 146.422 60.7151C146.488 60.6454 146.525 60.5531 146.525 60.4571C146.525 60.3611 146.488 60.2688 146.422 60.1991C146.356 60.1294 146.266 60.0876 146.17 60.0824Z" fill="#343A3F"/>
<path d="M199.029 54.3456C172.722 54.3456 172.713 54.0712 172.713 54.7209C172.713 55.3706 172.713 55.0962 199.029 55.0962C199.129 55.0962 199.224 55.0566 199.295 54.9863C199.365 54.9159 199.405 54.8204 199.405 54.7209C199.405 54.6214 199.365 54.5259 199.295 54.4556C199.224 54.3852 199.129 54.3456 199.029 54.3456Z" fill="#343A3F"/>
<path d="M178.187 105.182C135.265 105.182 126.235 105.01 124.334 105.258C123.673 105.344 123.621 105.752 124.281 105.847C126.061 106.106 134.843 105.931 178.149 105.931C178.247 105.934 178.342 105.899 178.414 105.832C178.469 105.782 178.508 105.718 178.526 105.647C178.544 105.575 178.541 105.5 178.517 105.431C178.492 105.362 178.448 105.301 178.389 105.256C178.331 105.212 178.26 105.186 178.187 105.182Z" fill="#343A3F"/>
<path d="M178.186 110.767C136.767 110.767 126.908 110.608 124.561 110.82C123.522 110.913 123.598 111.38 124.585 111.467C126.972 111.676 136.897 111.517 178.148 111.517C178.197 111.518 178.246 111.51 178.291 111.493C178.337 111.476 178.378 111.45 178.414 111.417C178.469 111.368 178.508 111.304 178.526 111.232C178.544 111.161 178.541 111.086 178.517 111.016C178.492 110.947 178.448 110.886 178.389 110.842C178.33 110.798 178.26 110.772 178.186 110.767Z" fill="#343A3F"/>
<path d="M137.097 116.352C128.672 116.352 125.581 116.269 124.446 116.352C123.509 116.425 123.541 117.024 124.436 117.092C125.556 117.182 128.646 117.098 137.094 117.098C137.146 117.104 137.199 117.099 137.249 117.084C137.3 117.068 137.347 117.042 137.386 117.007C137.425 116.972 137.457 116.928 137.478 116.88C137.51 116.807 137.518 116.727 137.502 116.649C137.486 116.572 137.446 116.501 137.388 116.447C137.35 116.412 137.303 116.385 137.253 116.369C137.203 116.352 137.15 116.347 137.097 116.352Z" fill="#343A3F"/>
<path d="M137.097 120.627C128.757 120.627 125.643 120.545 124.48 120.627C123.472 120.699 123.561 121.299 124.454 121.37C125.594 121.458 128.69 121.37 137.097 121.37C137.186 121.357 137.268 121.312 137.327 121.244C137.386 121.176 137.418 121.089 137.418 120.999C137.418 120.908 137.386 120.821 137.327 120.753C137.268 120.685 137.186 120.64 137.097 120.627Z" fill="#343A3F"/>
<path d="M79.4416 40.7002C77.593 40.6957 75.7617 41.0553 74.052 41.7585C72.3424 42.4617 70.788 43.4948 69.4777 44.7987C68.1673 46.1026 67.1266 47.6519 66.4149 49.358C65.7033 51.0641 65.3347 52.8937 65.3301 54.7423C65.3256 56.5909 65.6852 58.4223 66.3884 60.1319C67.0916 61.8415 68.1246 63.3959 69.4286 64.7062C70.7325 66.0166 72.2817 67.0573 73.9879 67.769C75.694 68.4806 77.5236 68.8492 79.3722 68.8538C83.1056 68.863 86.6897 67.3888 89.3361 64.7554C91.9826 62.122 93.4745 58.5451 93.4837 54.8117C93.4929 51.0783 92.0186 47.4942 89.3852 44.8478C86.7518 42.2014 83.175 40.7094 79.4416 40.7002Z" fill="#F2F4F8"/>
<path d="M72.6186 51.6854C72.8219 51.3736 73.0975 51.1157 73.4221 50.9336C73.7467 50.7515 74.1105 50.6507 74.4824 50.6397C74.8544 50.6287 75.2236 50.7078 75.5583 50.8704C75.8931 51.033 76.1835 51.2742 76.4048 51.5734C76.4593 51.653 76.5415 51.7094 76.6354 51.7315C76.7293 51.7536 76.8281 51.7397 76.9123 51.6927C76.9965 51.6457 77.0601 51.5689 77.0906 51.4774C77.121 51.3858 77.1162 51.2862 77.0769 51.1981C76.7925 50.7841 76.4095 50.4474 75.9624 50.2184C75.5154 49.9895 75.0183 49.8754 74.5162 49.8865C74.014 49.8976 73.5225 50.0336 73.086 50.2821C72.6495 50.5306 72.2818 50.8839 72.016 51.3101C71.7191 51.6854 72.3643 52.0651 72.6186 51.6854Z" fill="#343A3F"/>
<path d="M81.7286 51.2695C81.4597 51.6795 82.1016 52.0537 82.3659 51.6448C83.0773 50.5313 84.6265 50.0138 86.1858 51.5675C86.2422 51.6397 86.3218 51.6903 86.4112 51.7107C86.5005 51.7311 86.5942 51.7201 86.6764 51.6795C86.7403 51.6417 86.7911 51.5853 86.8221 51.5179C86.8532 51.4504 86.8629 51.3751 86.85 51.302C86.8419 51.2534 86.824 51.2069 86.7974 51.1653C86.5123 50.7515 86.129 50.4148 85.6817 50.1856C85.2345 49.9564 84.7374 49.8419 84.2349 49.8522C83.7325 49.8625 83.2405 49.9974 82.803 50.2448C82.3656 50.4922 81.9964 50.8443 81.7286 51.2695Z" fill="#343A3F"/>
<path d="M79.4076 39.9893C76.4715 39.9886 73.6011 40.8587 71.1594 42.4894C68.7178 44.1202 66.8146 46.4383 65.6905 49.1508C64.5665 51.8632 64.272 54.8481 64.8444 57.7279C65.4168 60.6077 66.8304 63.2531 68.9063 65.3295C70.9822 67.4059 73.6273 68.82 76.507 69.3931C79.3866 69.9662 82.3716 69.6724 85.0843 68.5489C87.797 67.4255 90.1156 65.5228 91.7469 63.0815C93.3782 60.6403 94.2489 57.7701 94.2489 54.8339C94.2459 50.8984 92.6815 47.1248 89.8989 44.3416C87.1164 41.5584 83.3432 39.9931 79.4076 39.9893ZM79.4076 68.89C76.6231 68.8871 73.902 68.0585 71.5884 66.5089C69.2749 64.9594 67.4728 62.7586 66.4102 60.1848C65.3476 57.611 65.0721 54.7799 65.6187 52.0495C66.1652 49.3192 67.5092 46.8122 69.4807 44.8458C71.4521 42.8794 73.9625 41.5417 76.6942 41.0022C79.426 40.4626 82.2564 40.7452 84.8274 41.8144C87.3985 42.8836 89.5948 44.6912 91.1384 47.0087C92.682 49.3262 93.5037 52.0494 93.4995 54.8339C93.4897 58.5652 92.0008 62.1404 89.3592 64.7757C86.7177 67.411 83.1389 68.8913 79.4076 68.8922V68.89Z" fill="#343A3F"/>
<path d="M86.4148 55.7333C81.7804 56.2498 77.1029 56.2498 72.4685 55.7333C72.184 55.7333 72.3509 55.6963 72.0563 55.6963C71.1512 55.8778 72.8998 59.5116 75.9176 60.8323C82.9041 63.8882 88.0335 56.0032 86.4137 55.7333H86.4148ZM72.6925 56.4838C77.0411 56.9811 81.43 56.9811 85.7763 56.4838C83.1349 62.2986 74.8276 62.0298 72.6925 56.4838Z" fill="#343A3F"/>
<path d="M68.6451 52.0225C69.3021 52.0363 69.9276 52.3071 70.3873 52.7767C70.8471 53.2463 71.1046 53.8773 71.1046 54.5345C71.1046 55.1917 70.8471 55.8227 70.3873 56.2923C69.9276 56.7619 69.3021 57.0326 68.6451 57.0465C67.988 57.0326 67.3626 56.7619 66.9028 56.2923C66.443 55.8227 66.1855 55.1917 66.1855 54.5345C66.1855 53.8773 66.443 53.2463 66.9028 52.7767C67.3626 52.3071 67.988 52.0363 68.6451 52.0225Z" fill="#FF5470"/>
<path d="M89.7886 52.0225C90.4457 52.0363 91.0711 52.3071 91.5309 52.7767C91.9907 53.2463 92.2481 53.8773 92.2481 54.5345C92.2481 55.1917 91.9907 55.8227 91.5309 56.2923C91.0711 56.7619 90.4457 57.0326 89.7886 57.0465C89.1316 57.0326 88.5061 56.7619 88.0464 56.2923C87.5866 55.8227 87.3291 55.1917 87.3291 54.5345C87.3291 53.8773 87.5866 53.2463 88.0464 52.7767C88.5061 52.3071 89.1316 52.0363 89.7886 52.0225Z" fill="#FF5470"/>
<path d="M72.6934 56.4844C74.8564 62.1066 83.1895 62.2544 85.7401 56.4844C81.405 56.9907 77.0273 56.9907 72.6934 56.4844Z" fill="white"/>
<path d="M79.296 99.1825C77.4371 99.162 75.5926 99.5099 73.8689 100.206C72.1452 100.902 70.5764 101.933 69.2531 103.238C67.9298 104.544 66.8782 106.099 66.1589 107.813C65.4397 109.527 65.0671 111.367 65.0625 113.226C65.058 115.085 65.4217 116.926 66.1327 118.644C66.8436 120.362 67.8876 121.922 69.2046 123.234C70.5215 124.546 72.0853 125.584 73.8056 126.288C75.5259 126.993 77.3687 127.35 79.2276 127.338C82.9404 127.315 86.4938 125.826 89.1142 123.196C91.7346 120.566 93.2098 117.007 93.2187 113.294C93.2275 109.581 91.7693 106.015 89.1615 103.372C86.5537 100.729 83.0075 99.2233 79.2949 99.1825H79.296Z" fill="#F2F4F8"/>
<path d="M81.7659 116.09C81.7659 115.928 82.3126 115.978 76.855 115.978C76.7746 117.415 76.7869 118.855 76.892 120.29C76.9252 120.815 77.1263 121.316 77.4656 121.718C77.8049 122.121 78.2645 122.404 78.7767 122.526C79.2889 122.647 79.8267 122.601 80.3108 122.394C80.7949 122.187 81.1997 121.831 81.4657 121.376C81.9171 120.476 81.7659 120.28 81.7659 116.09Z" fill="#F2F4F8"/>
<path d="M79.2546 98.3955C77.3023 98.3931 75.3688 98.7752 73.5642 99.5201C71.7597 100.265 70.1195 101.358 68.7373 102.737C67.3552 104.115 66.2581 105.753 65.5088 107.555C64.7595 109.358 64.3726 111.291 64.3701 113.243C64.3677 115.195 64.7498 117.129 65.4947 118.933C66.2395 120.738 67.3325 122.378 68.7112 123.76C70.0899 125.142 71.7274 126.239 73.5301 126.989C75.3327 127.738 77.2654 128.125 79.2176 128.127C83.1603 128.132 86.9434 126.571 89.7348 123.786C92.5262 121.002 94.0971 117.223 94.102 113.28C94.1069 109.337 92.5454 105.554 89.761 102.763C86.9765 99.9713 83.1973 98.4004 79.2546 98.3955ZM79.2546 127.337C76.4702 127.334 73.7493 126.505 71.4362 124.955C69.1232 123.405 67.3219 121.203 66.2604 118.629C65.4661 116.705 65.1083 114.629 65.213 112.55C65.3176 110.471 65.8821 108.441 66.8657 106.606C67.8493 104.771 69.2275 103.178 70.9012 101.94C72.5748 100.702 74.5022 99.8504 76.5444 99.447C78.5867 99.0436 80.693 99.0981 82.7116 99.6067C84.7303 100.115 86.611 101.065 88.2183 102.388C89.8256 103.711 91.1196 105.374 92.0069 107.257C92.8943 109.14 93.3529 111.197 93.3498 113.278C93.3377 117.009 91.8476 120.584 89.2058 123.219C86.564 125.853 82.9857 127.334 79.2546 127.337Z" fill="#343A3F"/>
<path d="M83.34 110.466C83.3088 110.663 83.3316 110.864 83.4062 111.049C83.4808 111.234 83.6042 111.395 83.7633 111.515C83.9224 111.635 84.1111 111.709 84.3093 111.73C84.5074 111.751 84.7075 111.717 84.8881 111.633C85.0326 111.567 85.161 111.471 85.2643 111.35C85.3676 111.23 85.4434 111.088 85.4863 110.935C85.5297 110.783 85.5397 110.623 85.5154 110.466C85.5127 110.235 85.4525 110.008 85.3402 109.806C85.228 109.603 85.0672 109.432 84.8724 109.308C84.6014 109.14 84.0536 109.202 84.0536 108.367C84.1488 107.887 83.4408 107.744 83.3412 108.143C83.3029 108.383 83.3201 108.63 83.3915 108.862C83.463 109.095 83.5867 109.309 83.7534 109.487C83.6164 109.609 83.5084 109.761 83.4371 109.93C83.3658 110.099 83.333 110.282 83.3412 110.466H83.34Z" fill="#343A3F"/>
<path d="M73.8181 110.466C73.7871 110.663 73.8101 110.864 73.8845 111.048C73.959 111.233 74.0822 111.393 74.241 111.513C74.3997 111.633 74.588 111.708 74.7858 111.729C74.9836 111.75 75.1835 111.717 75.364 111.633C75.5086 111.568 75.6372 111.471 75.7408 111.351C75.8443 111.23 75.9202 111.088 75.9633 110.935C76.0067 110.783 76.0166 110.623 75.9924 110.466C75.9924 109.739 75.5589 109.466 75.0962 109.167C74.2359 108.607 74.9652 108.031 74.3446 107.918C73.6803 107.796 73.8551 108.89 74.3065 109.455C74.1466 109.568 74.018 109.721 73.9326 109.898C73.8473 110.074 73.8079 110.27 73.8181 110.466Z" fill="#343A3F"/>
<path d="M86.6404 115.344C76.8813 115.344 73.7235 115.289 72.6381 115.355C71.9391 115.397 71.8181 115.489 72.162 116.197C73.0818 117.908 74.4626 119.327 76.1476 120.293C76.2053 121.056 76.5356 121.774 77.0783 122.314C77.621 122.855 78.3398 123.182 79.1038 123.236C79.8675 123.29 80.6251 123.068 81.2387 122.609C81.8522 122.151 82.2807 121.488 82.4464 120.741C84.5164 119.74 86.1066 117.962 86.87 115.793C86.8925 115.726 86.8944 115.653 86.8754 115.585C86.8565 115.517 86.8175 115.456 86.7636 115.41C86.7274 115.38 86.6855 115.357 86.6404 115.344ZM81.7664 120.255C81.7664 123.271 76.8556 123.473 76.8556 119.806V115.982H81.7664C81.7664 120.246 81.8 119.725 81.7664 120.251V120.255Z" fill="#343A3F"/>
<path d="M79.442 154.367C76.5626 154.361 73.7505 155.237 71.3846 156.878C69.0187 158.52 67.2128 160.847 66.2104 163.546C65.4607 165.564 65.1837 167.727 65.4009 169.869C65.6181 172.011 66.3236 174.075 67.4632 175.901C68.6029 177.728 70.1462 179.269 71.9746 180.405C73.8029 181.542 75.8676 182.244 78.0099 182.458C80.1521 182.672 82.3148 182.391 84.3317 181.638C86.3487 180.885 88.166 179.68 89.644 178.114C91.122 176.549 92.2214 174.665 92.8575 172.609C93.4936 170.552 93.6495 168.377 93.3133 166.25C92.7904 162.944 91.1072 159.933 88.5653 157.755C86.0234 155.577 82.7891 154.376 79.442 154.367Z" fill="#F2F4F8"/>
<path d="M68.6448 165.688C69.311 165.688 69.95 165.952 70.4211 166.423C70.8922 166.894 71.1568 167.533 71.1568 168.2C71.1568 168.866 70.8922 169.505 70.4211 169.976C69.95 170.447 69.311 170.712 68.6448 170.712C67.9786 170.712 67.3397 170.447 66.8686 169.976C66.3975 169.505 66.1328 168.866 66.1328 168.2C66.1328 167.533 66.3975 166.894 66.8686 166.423C67.3397 165.952 67.9786 165.688 68.6448 165.688Z" fill="#FF5470"/>
<path d="M89.8255 165.688C90.4917 165.688 91.1307 165.952 91.6018 166.423C92.0728 166.894 92.3375 167.533 92.3375 168.2C92.3375 168.866 92.0728 169.505 91.6018 169.976C91.1307 170.447 90.4917 170.712 89.8255 170.712C89.1593 170.712 88.5203 170.447 88.0492 169.976C87.5781 169.505 87.3135 168.866 87.3135 168.2C87.3135 167.533 87.5781 166.894 88.0492 166.423C88.5203 165.952 89.1593 165.688 89.8255 165.688Z" fill="#FF5470"/>
<path d="M79.408 153.654C76.4718 153.655 73.6015 154.525 71.16 156.156C68.7186 157.788 66.8155 160.106 65.6914 162.819C64.4727 165.761 64.2326 169.017 65.0064 172.106C65.7803 175.195 67.527 177.954 69.9887 179.974C72.4504 181.994 75.4966 183.169 78.6774 183.326C81.8581 183.482 85.0049 182.611 87.6529 180.842C90.3009 179.073 92.3097 176.499 93.3828 173.501C94.4558 170.503 94.5362 167.239 93.612 164.191C92.6878 161.143 90.8081 158.474 88.2504 156.577C85.6927 154.679 82.5926 153.655 79.408 153.654ZM79.408 182.555C76.6236 182.552 73.9028 181.723 71.5897 180.173C69.2766 178.623 67.4754 176.422 66.4139 173.848C65.6195 171.924 65.2617 169.847 65.3664 167.768C65.4711 165.689 66.0355 163.659 67.0191 161.824C68.0027 159.99 69.381 158.396 71.0546 157.158C72.7283 155.92 74.6556 155.069 76.6979 154.665C78.7401 154.262 80.8464 154.317 82.8651 154.825C84.8837 155.334 86.7644 156.284 88.3718 157.607C89.9791 158.929 91.273 160.592 92.1604 162.475C93.0477 164.359 93.5063 166.415 93.5033 168.497C93.4935 172.229 92.0041 175.804 89.3618 178.44C86.7195 181.075 83.1399 182.555 79.408 182.555Z" fill="#343A3F"/>
<path d="M86.6021 169.362C85.6926 169.18 86.1362 172.106 82.3286 173.785C78.2478 175.585 73.6618 173.302 72.6951 169.624C72.6681 169.531 72.6063 169.453 72.5226 169.406C72.439 169.358 72.3401 169.345 72.247 169.369C72.154 169.394 72.0743 169.454 72.025 169.537C71.9756 169.62 71.9604 169.718 71.9826 169.812C74.2028 177.126 84.7102 176.706 86.9035 169.812C86.9113 169.714 86.8857 169.616 86.8311 169.534C86.7764 169.453 86.6957 169.392 86.6021 169.362Z" fill="#343A3F"/>
<path d="M86.1898 163.701C85.9884 164.015 85.7135 164.275 85.3889 164.459C85.0644 164.643 84.6999 164.746 84.327 164.757C83.9537 164.769 83.5832 164.689 83.248 164.524C82.9128 164.359 82.6229 164.115 82.4036 163.813C82.3627 163.754 82.3062 163.707 82.2405 163.679C82.1747 163.65 82.1022 163.64 82.0312 163.65C81.9601 163.66 81.8932 163.689 81.8379 163.735C81.7826 163.781 81.7411 163.841 81.718 163.909C81.6876 164.001 81.6924 164.1 81.7315 164.188C82.0153 164.603 82.3981 164.94 82.8453 165.17C83.2925 165.399 83.7898 165.513 84.2922 165.501C84.7945 165.49 85.286 165.354 85.7225 165.105C86.159 164.856 86.5267 164.503 86.7925 164.076C86.8186 164.037 86.8366 163.992 86.8452 163.946C86.8539 163.899 86.8532 163.851 86.8431 163.805C86.8329 163.758 86.8136 163.715 86.7863 163.676C86.759 163.637 86.7241 163.604 86.6839 163.579C86.6436 163.554 86.5987 163.537 86.5519 163.53C86.505 163.522 86.4572 163.524 86.4111 163.536C86.3651 163.547 86.3218 163.568 86.2838 163.596C86.2457 163.624 86.2138 163.66 86.1898 163.701Z" fill="#343A3F"/>
<path d="M77.0799 164.072C77.3465 163.663 76.7057 163.288 76.4425 163.698C76.1152 164.205 75.6022 164.564 75.0135 164.697C74.4248 164.83 73.8074 164.727 73.2937 164.41C72.5857 163.988 72.6417 163.456 72.1309 163.66C71.0847 164.296 75.0445 167.201 77.0799 164.072Z" fill="#343A3F"/>
</svg>
