<svg width="214" height="200" viewBox="0 0 214 200" fill="none" xmlns="http://www.w3.org/2000/svg">
<path d="M170.276 0.776367H1.39011V25.2938H170.276V0.776367Z" fill="#B1E400"/>
<path d="M97.923 19.2581H155.355C162.5 19.2581 162.62 7.24082 155.691 6.84875C154.907 6.80507 154.117 6.84875 153.366 6.84875C94.7484 6.84875 96.7972 6.42196 94.735 7.82331C93.9383 8.40111 93.3124 9.1833 92.9234 10.0873C92.5344 10.9913 92.3967 11.9836 92.5248 12.9593C92.1484 16.9102 94.9411 19.3444 97.923 19.2581Z" fill="white"/>
<path d="M170.257 26.23H55.8232V199.165H170.257V26.23Z" fill="white"/>
<path d="M153.668 14.3473C154.286 13.8334 154.684 13.1028 154.781 12.305C154.877 11.5072 154.666 10.7026 154.189 10.0558C153.833 9.57267 153.348 9.20079 152.789 8.98378C152.23 8.76677 151.62 8.71363 151.032 8.83059C150.444 8.94755 149.901 9.22976 149.468 9.64414C149.034 10.0585 148.728 10.5879 148.584 11.1702C148.441 11.7525 148.467 12.3637 148.658 12.932C148.85 13.5003 149.199 14.0022 149.666 14.3789C150.132 14.7556 150.697 14.9915 151.293 15.0589C151.889 15.1263 152.491 15.0224 153.03 14.7595C154.955 17.2564 154.901 17.3628 155.318 17.1959C156.031 16.768 154.238 15.4865 153.668 14.3473ZM152.996 13.972C152.604 14.2252 152.15 14.3685 151.684 14.3842C151.109 14.3902 150.551 14.1896 150.111 13.8189C149.672 13.4482 149.38 12.9321 149.289 12.3644C149.198 11.7967 149.313 11.2151 149.615 10.7255C149.916 10.2358 150.383 9.8706 150.931 9.69626C151.341 9.56761 151.779 9.55153 152.197 9.6497C152.616 9.74786 153.001 9.95668 153.311 10.2543C153.621 10.5519 153.846 10.9275 153.962 11.3416C154.077 11.7558 154.079 12.1934 153.968 12.6087C153.818 13.1651 153.473 13.6489 152.996 13.972Z" fill="#2F473F"/>
<path d="M11.7361 12.5472L13.6483 10.635C13.6827 10.6006 13.71 10.5597 13.7286 10.5148C13.7473 10.4698 13.7568 10.4216 13.7568 10.3729C13.7568 10.3242 13.7473 10.276 13.7286 10.231C13.71 10.1861 13.6827 10.1452 13.6483 10.1108C13.6138 10.0763 13.573 10.049 13.528 10.0304C13.483 10.0118 13.4348 10.0022 13.3861 10.0022C13.3375 10.0022 13.2893 10.0118 13.2443 10.0304C13.1993 10.049 13.1584 10.0763 13.124 10.1108C10.5364 12.6962 10.2194 12.8295 10.5745 13.1846C13.571 16.181 13.5609 16.3468 13.9104 15.9962C14.2857 15.621 13.8947 15.4552 11.7361 13.2966C16.3457 13.2966 18.0035 13.3593 18.5995 13.2652C18.6865 13.2647 18.7701 13.231 18.8331 13.1709C18.8961 13.1108 18.9339 13.029 18.9386 12.9421C18.9433 12.8551 18.9147 12.7697 18.8585 12.7032C18.8024 12.6367 18.7229 12.5941 18.6364 12.5841C18.0741 12.4822 16.4454 12.5472 11.7361 12.5472Z" fill="#2F473F"/>
<path d="M33.6671 9.88551C33.6326 9.85109 33.5916 9.8238 33.5466 9.8052C33.5015 9.78659 33.4533 9.77705 33.4045 9.7771C33.3558 9.77715 33.3076 9.7868 33.2626 9.8055C33.2176 9.8242 33.1767 9.85157 33.1423 9.88607C33.1078 9.92057 33.0805 9.9615 33.0619 10.0065C33.0433 10.0516 33.0338 10.0999 33.0338 10.1486C33.0339 10.1973 33.0435 10.2456 33.0622 10.2906C33.0809 10.3356 33.1083 10.3765 33.1428 10.4109L35.3171 12.5852H28.4941C28.3947 12.5852 28.2994 12.6246 28.2291 12.6949C28.1588 12.7652 28.1194 12.8605 28.1194 12.9599C28.1194 13.0592 28.1588 13.1545 28.2291 13.2248C28.2994 13.2951 28.3947 13.3346 28.4941 13.3346H35.3171L33.4072 15.2467C33.3728 15.2812 33.3455 15.3221 33.3269 15.3672C33.3083 15.4122 33.2987 15.4605 33.2988 15.5092C33.2988 15.558 33.3085 15.6062 33.3272 15.6512C33.3459 15.6962 33.3732 15.7371 33.4077 15.7715C33.4422 15.8059 33.4832 15.8332 33.5282 15.8518C33.5733 15.8704 33.6215 15.88 33.6703 15.8799C33.719 15.8799 33.7672 15.8702 33.8122 15.8515C33.8572 15.8328 33.8981 15.8054 33.9325 15.771C36.5179 13.1856 36.8361 13.0523 36.481 12.6972L33.6671 9.88551Z" fill="#2F473F"/>
<path d="M157.941 6.66159C155.956 5.72848 157.941 6.39499 97.96 6.06117C97.1492 6.05571 96.3454 6.21074 95.5949 6.51735C94.8444 6.82395 94.1619 7.27607 93.5869 7.84763C93.0119 8.41919 92.5557 9.0989 92.2447 9.84758C91.9336 10.5963 91.7737 11.3991 91.7743 12.2099C91.7743 13.8184 91.5279 15.4483 92.8609 17.3459C93.425 18.1442 94.1722 18.7956 95.0399 19.2456C95.9076 19.6956 96.8705 19.9311 97.8479 19.9324H155.395C162.523 19.9324 163.696 9.36459 157.941 6.66159ZM155.355 19.258H98.1638C90.5466 19.258 90.6586 6.61454 97.923 6.84866C97.923 6.84866 154.906 6.8061 155.655 6.84866C156.772 6.91927 157.838 7.34189 158.7 8.0559C159.563 8.7699 160.176 9.73861 160.454 10.8231C161.516 16.3982 158.837 19.1987 155.355 19.258Z" fill="#2F473F"/>
<path d="M171.017 0.614807C171.017 0.521832 171.027 0.0961619 170.394 0.0726381C166.98 -0.0550628 144.774 0.024471 1.05518 0.024471C0.936969 0.0264872 0.824167 0.0743419 0.74057 0.157939C0.656973 0.241536 0.609118 0.354337 0.607102 0.472544C0.589179 3.16098 0.607102 24.9172 0.607102 199.535C0.607102 199.615 0.579097 199.767 0.993565 199.82C3.6596 200.164 23.4924 199.909 170.617 199.909C170.617 199.909 171.022 199.797 171.022 199.616L171.017 0.614807ZM170.257 199.165C170.257 199.165 56.0707 199.141 55.7851 199.165V26.23C55.7851 26.23 169.807 26.2681 170.257 26.23V199.165ZM170.276 25.2936C170.276 25.2936 2.10255 25.2555 1.35202 25.2936V0.776113C1.35202 0.776113 169.526 0.813079 170.238 0.776113C170.238 25.2812 170.164 25.2936 170.276 25.2936Z" fill="#2F473F"/>
<path d="M68.9438 84.15C157.333 84.15 157.454 84.4244 157.454 83.7747C157.454 83.125 157.454 83.4006 68.9819 83.4006C68.4846 83.4006 68.4689 84.15 68.9438 84.15Z" fill="#E2FD86"/>
<path d="M157.117 141.358C68.7277 141.358 68.6067 141.083 68.6067 141.732C68.6067 142.382 68.6201 142.107 157.117 142.107C157.168 142.11 157.219 142.102 157.267 142.085C157.315 142.067 157.358 142.04 157.396 142.006C157.432 141.97 157.462 141.928 157.482 141.881C157.502 141.834 157.512 141.783 157.512 141.732C157.512 141.681 157.502 141.631 157.482 141.584C157.461 141.537 157.432 141.495 157.395 141.46C157.358 141.425 157.314 141.398 157.266 141.381C157.219 141.363 157.168 141.355 157.117 141.358Z" fill="#E2FD86"/>
<path d="M17.2093 48.9866L19.0095 50.0732C19.0768 50.1089 19.1531 50.124 19.229 50.1169C19.3049 50.1097 19.377 50.0805 19.4365 50.0329C19.496 49.9853 19.5403 49.9214 19.564 49.8489C19.5876 49.7765 19.5895 49.6987 19.5696 49.6251L18.8571 47.3389C19.471 46.3219 19.6914 45.1154 19.4767 43.947C19.2621 42.7787 18.6271 41.7293 17.6918 40.997C16.7565 40.2647 15.5854 39.9001 14.3997 39.9721C13.214 40.044 12.0956 40.5474 11.2556 41.3874C10.4157 42.2274 9.91221 43.3458 9.8403 44.5315C9.76839 45.7172 10.133 46.8882 10.8653 47.8236C11.5976 48.7589 12.6469 49.3938 13.8153 49.6085C14.9836 49.8232 16.1901 49.6028 17.2071 48.9889L17.2093 48.9866ZM12.3735 41.412C13.1685 40.8743 14.1259 40.6302 15.0813 40.7216C16.0367 40.8131 16.9304 41.2342 17.6091 41.9129C18.2877 42.5915 18.7089 43.4853 18.8003 44.4406C18.8917 45.396 18.6476 46.3534 18.11 47.1484C17.9767 47.3243 18.0282 47.2716 18.558 48.9105C17.3258 48.198 17.253 48.0793 17.0211 48.2384C16.116 48.8278 15.0159 49.0391 13.9568 48.8269C12.8976 48.6147 11.9638 47.9959 11.3556 47.1033C10.7474 46.2106 10.5132 45.1151 10.7033 44.0518C10.8934 42.9885 11.4926 42.042 12.3724 41.4153L12.3735 41.412Z" fill="#E2FD86"/>
<path d="M20.1341 67.5803L19.4967 65.5931C20.0534 64.6275 20.216 63.4844 19.9506 62.4019C19.6851 61.3194 19.0121 60.3812 18.0719 59.7827C15.6881 58.276 12.5315 59.6471 11.9243 61.4697C11.7003 61.8819 12.3657 62.2908 12.5628 61.8438C12.755 61.4167 13.0308 61.0323 13.3738 60.7133C13.7168 60.3943 14.1202 60.1472 14.5601 59.9864C15.0001 59.8257 15.4678 59.7546 15.9356 59.7773C16.4035 59.8 16.8621 59.9161 17.2844 60.1187C17.7404 60.3307 18.1464 60.6366 18.4759 61.0165C18.8053 61.3964 19.0507 61.8416 19.1959 62.323C19.3412 62.8044 19.383 63.3111 19.3186 63.8098C19.2542 64.3085 19.0851 64.7879 18.8224 65.2167C18.5771 65.5964 18.7048 65.7264 19.0845 66.8667C18.1637 66.3302 18.0439 66.189 17.8098 66.3414C17.2838 66.6897 16.6769 66.8965 16.0477 66.9418C15.5604 66.9743 15.5604 67.7259 16.0477 67.6912C16.7337 67.638 17.3994 67.4333 17.9968 67.0919L19.5718 68.0283C19.6392 68.0647 19.7158 68.0804 19.7921 68.0736C19.8684 68.0667 19.941 68.0377 20.0009 67.9899C20.0608 67.9422 20.1053 67.8779 20.129 67.8051C20.1527 67.7323 20.1545 67.6541 20.1341 67.5803Z" fill="#E2FD86"/>
<path d="M14.9242 68.1426C17.5006 64.3284 11.6443 60.5007 9.15074 64.3183C8.80292 64.857 8.60868 65.4804 8.58894 66.1213C8.5692 66.7623 8.72471 67.3965 9.03872 67.9555L8.32628 69.1172C8.29119 69.1846 8.27643 69.2607 8.28381 69.3363C8.2912 69.412 8.3204 69.4838 8.36787 69.5432C8.41534 69.6025 8.47904 69.6468 8.5512 69.6706C8.62337 69.6944 8.7009 69.6967 8.77436 69.6773L10.2732 69.19C11.0349 69.645 11.9422 69.79 12.8078 69.5951C13.6734 69.4002 14.431 68.8802 14.9242 68.1426ZM9.86205 64.6555C11.9826 61.7699 16.2818 65.0162 14.1736 67.8424C13.7384 68.3951 13.111 68.7638 12.4163 68.875C11.7216 68.9863 11.0105 68.832 10.4244 68.4428C9.58873 68.4428 9.17874 69.1777 9.75228 68.1796C9.78853 68.1239 9.80782 68.0589 9.80782 67.9925C9.80782 67.9261 9.78853 67.8611 9.75228 67.8054C9.45053 67.3307 9.29952 66.7757 9.31912 66.2134C9.33871 65.6512 9.52799 65.1081 9.86205 64.6555Z" fill="#E2FD86"/>
<path d="M17.3975 99.1081C10.7638 99.1081 10.9497 98.9703 10.9497 99.4834C10.9497 109.117 10.8187 108.71 11.2488 108.818C11.4594 108.818 11.2488 109.005 14.3237 105.968C18.6443 110.232 17.7347 110.941 17.7347 99.4453C17.7717 99.2582 17.6227 99.1081 17.3975 99.1081ZM14.0986 105.182L11.6992 107.543V99.8206H17.0223V107.543C14.4929 105.054 14.4817 104.894 14.0986 105.182Z" fill="#E2FD86"/>
<path d="M12.8238 44.2628C16.7445 44.2628 16.7221 44.3647 16.7221 43.8875C16.7221 43.3846 16.5753 43.5123 12.8238 43.5123C12.7243 43.5123 12.6288 43.5518 12.5585 43.6222C12.4881 43.6926 12.4486 43.788 12.4486 43.8875C12.4486 43.9871 12.4881 44.0825 12.5585 44.1529C12.6288 44.2233 12.7243 44.2628 12.8238 44.2628Z" fill="#E2FD86"/>
<path d="M12.8238 46.2114C16.7445 46.2114 16.7221 46.3134 16.7221 45.8362C16.7221 45.3343 16.5764 45.462 12.8238 45.462C12.7244 45.462 12.6291 45.5015 12.5589 45.5718C12.4886 45.6421 12.4491 45.7374 12.4491 45.8367C12.4491 45.9361 12.4886 46.0314 12.5589 46.1017C12.6291 46.172 12.7244 46.2114 12.8238 46.2114Z" fill="#E2FD86"/>
<path d="M13.0871 79.877C11.7968 80.2848 10.7197 81.1853 10.0898 82.383C9.45998 83.5806 9.3283 84.9784 9.72343 86.2726C10.1186 87.5668 11.0086 88.6527 12.1999 89.2942C13.3913 89.9358 14.7878 90.0812 16.0858 89.6987C18.5883 88.9885 17.6921 87.9266 17.2474 88.2738C16.3212 88.9546 15.1647 89.2445 14.0268 89.0813C12.889 88.9181 11.8606 88.3148 11.1631 87.4011C10.4655 86.4875 10.1544 85.3365 10.2968 84.1959C10.4392 83.0552 11.0236 82.016 11.9243 81.3018C12.5781 80.822 13.3505 80.5298 14.1582 80.4568C14.9659 80.3838 15.7782 80.5328 16.5074 80.8876C17.2366 81.2425 17.8551 81.7898 18.296 82.4704C18.737 83.151 18.9837 83.9392 19.0095 84.7498C19.0642 85.0044 19.0384 85.2698 18.9355 85.5091C18.8326 85.7484 18.6578 85.9497 18.4353 86.0852C18.2128 86.2206 17.9536 86.2835 17.6938 86.265C17.434 86.2465 17.1864 86.1476 16.9853 85.982C16.5215 85.4219 16.7008 83.0695 16.7613 82.1576C16.7926 81.6704 16.0488 81.6704 16.0119 82.1576C15.9794 82.4321 15.9671 82.7065 15.9738 82.9832C15.6341 82.6046 15.1849 82.3411 14.6886 82.2293C14.1924 82.1175 13.6736 82.1629 13.2044 82.3593C12.7351 82.5557 12.3386 82.8933 12.07 83.3253C11.8013 83.7573 11.6737 84.2622 11.705 84.7699C11.7363 85.2776 11.9249 85.763 12.2446 86.1587C12.5643 86.5544 12.9992 86.8408 13.489 86.9781C13.9788 87.1154 14.4992 87.0968 14.978 86.925C15.4568 86.7531 15.8702 86.4364 16.1608 86.0189C16.2793 86.2759 16.4561 86.5016 16.6773 86.6781C16.8986 86.8546 17.158 86.9768 17.4349 87.0352C17.7117 87.0935 17.9984 87.0863 18.272 87.0141C18.5456 86.9419 18.7985 86.8067 19.0106 86.6193C21.3002 84.9323 18.3138 78.2796 13.0859 79.877H13.0871ZM14.1356 86.3247C13.6858 86.3133 13.2583 86.1265 12.9442 85.8044C12.6302 85.4822 12.4544 85.0501 12.4544 84.6002C12.4544 84.1503 12.6302 83.7182 12.9442 83.396C13.2583 83.0739 13.6858 82.8871 14.1356 82.8757C14.5853 82.8865 15.0131 83.0727 15.3276 83.3945C15.6421 83.7162 15.8184 84.1481 15.819 84.598C15.8196 85.0479 15.6443 85.4803 15.3307 85.8029C15.017 86.1254 14.5898 86.3127 14.14 86.3247H14.1356Z" fill="#E2FD86"/>
<path d="M47.088 43.1382C24.6709 43.1382 24.5947 42.7013 24.5947 44.1464C24.5947 46.7049 24.3707 47.8206 25.6029 47.8206C48.0211 47.8206 48.0961 48.2574 48.0961 46.8124C48.1006 44.2539 48.3291 43.1382 47.088 43.1382Z" fill="#E2FD86"/>
<path d="M47.088 62.5562C24.6709 62.5562 24.5947 62.1193 24.5947 63.5643C24.5947 66.1228 24.3707 67.2385 25.6029 67.2385C48.0211 67.2385 48.0961 67.6754 48.0961 66.2304C48.1006 63.6719 48.3291 62.5562 47.088 62.5562Z" fill="#E2FD86"/>
<path d="M47.088 82.013C24.6709 82.013 24.5947 81.5761 24.5947 83.0211C24.5947 85.5796 24.3707 86.6953 25.6029 86.6953C48.0211 86.6953 48.0961 87.1322 48.0961 85.6872C48.1006 83.1287 48.3291 82.013 47.088 82.013Z" fill="#E2FD86"/>
<path d="M47.088 101.432C24.6709 101.432 24.5947 100.995 24.5947 102.44C24.5947 104.998 24.3707 106.113 25.6029 106.113C48.0211 106.113 48.0961 106.55 48.0961 105.105C48.1006 102.548 48.3291 101.432 47.088 101.432Z" fill="#E2FD86"/>
<path d="M47.088 140.308C34.0154 140.308 33.2929 139.907 33.2929 141.317C33.2929 143.875 33.0689 144.991 34.3011 144.991C47.3747 144.991 48.0973 145.392 48.0973 143.983C48.1006 141.424 48.3291 140.308 47.0891 140.308H47.088Z" fill="#E2FD86"/>
<path d="M47.088 172.323C34.0154 172.323 33.2929 171.922 33.2929 173.331C33.2929 175.889 33.0689 177.004 34.3011 177.004C47.3747 177.004 48.0973 177.405 48.0973 175.996C48.1006 173.439 48.3291 172.323 47.0891 172.323H47.088Z" fill="#E2FD86"/>
<path d="M19.1596 151.779C20.5627 151.776 21.9478 151.463 23.2152 150.86C24.4826 150.258 25.6008 149.383 26.4892 148.297C27.3777 147.211 28.0144 145.941 28.3535 144.58C28.6926 143.218 28.7257 141.798 28.4504 140.422C28.0828 138.582 27.1785 136.892 25.8516 135.565C24.5247 134.238 22.8346 133.334 20.9944 132.967C19.6187 132.692 18.1992 132.726 16.838 133.065C15.4767 133.405 14.2076 134.041 13.1218 134.93C12.036 135.818 11.1605 136.936 10.5581 138.203C9.95573 139.47 9.64151 140.854 9.63802 142.257C9.62576 144.144 10.1779 145.991 11.2234 147.562C12.269 149.132 13.7602 150.354 15.5055 151.071C16.6645 151.547 17.9066 151.788 19.1596 151.779Z" fill="white"/>
<path d="M16.423 139.446C15.7766 139.016 15.6612 138.886 15.4484 138.959C15.3512 138.992 15.2702 139.06 15.2214 139.151C15.1726 139.241 15.1596 139.346 15.1852 139.446C15.2815 139.638 15.1952 139.558 15.6724 139.858C15.4361 140.568 15.8349 141.09 16.2729 141.09C17.1152 141.095 17.1376 139.624 16.423 139.446Z" fill="#2F473F"/>
<path d="M19.909 140.12C19.909 138.496 20.021 138.134 19.5337 138.134C19.4838 138.13 19.4336 138.138 19.3868 138.156C19.34 138.173 19.2976 138.201 19.2626 138.237C19.2273 138.272 19.1999 138.315 19.1822 138.362C19.1644 138.408 19.1567 138.458 19.1596 138.508C19.1596 139.516 19.0845 140.57 19.1596 141.583C19.0834 141.658 16.9943 144.478 16.7971 144.732C16.5036 145.112 17.1668 145.477 17.4356 145.106C20.3907 141.027 19.909 142.159 19.909 140.12Z" fill="#2F473F"/>
<path d="M23.1709 146.231C22.37 147.748 21.1625 147.655 19.9471 147.655C19.9003 147.643 19.8515 147.64 19.8036 147.647C19.7556 147.653 19.7094 147.669 19.6676 147.693C19.6258 147.718 19.5892 147.75 19.5599 147.788C19.5306 147.827 19.5091 147.871 19.4967 147.918C19.4844 147.964 19.4814 148.013 19.4879 148.061C19.4943 148.109 19.5102 148.155 19.5345 148.197C19.5589 148.239 19.5912 148.275 19.6297 148.305C19.6682 148.334 19.7121 148.356 19.7589 148.368C20.2773 148.506 20.8204 148.524 21.3467 148.42C21.873 148.316 22.3686 148.093 22.7957 147.769C24.6697 146.466 23.4846 145.636 23.1709 146.231Z" fill="#2F473F"/>
<path d="M22.2703 139.633C22.9077 140.038 22.6064 139.77 22.6064 140.233C22.6064 141.324 23.9506 141.324 23.9506 140.233C23.9685 140.035 23.9082 139.838 23.7826 139.684C23.657 139.53 23.476 139.431 23.2785 139.409L22.6411 138.995C22.1269 138.736 21.8693 139.497 22.2703 139.633Z" fill="#2F473F"/>
<path d="M23.8856 142.658C23.9757 142.44 24.108 142.241 24.2751 142.074C24.4421 141.906 24.6405 141.773 24.8589 141.683C25.0774 141.592 25.3115 141.546 25.548 141.546C25.7845 141.546 26.0186 141.593 26.2369 141.684C26.5655 141.82 26.8464 142.05 27.044 142.346C27.2417 142.642 27.3471 142.99 27.3471 143.346C27.3472 143.701 27.2417 144.049 27.0441 144.345C26.8465 144.641 26.5656 144.871 26.237 145.008C25.9083 145.144 25.5467 145.179 25.1977 145.11C24.8488 145.041 24.5283 144.87 24.2766 144.618C24.0249 144.367 23.8535 144.046 23.7839 143.698C23.7143 143.349 23.7497 142.987 23.8856 142.658Z" fill="#FF5470"/>
<path d="M12.4945 142.662C12.5847 142.443 12.7171 142.244 12.8843 142.077C13.0514 141.909 13.25 141.777 13.4685 141.686C13.6871 141.596 13.9213 141.55 14.1579 141.55C14.3944 141.55 14.6285 141.597 14.8469 141.688C15.1757 141.824 15.4568 142.055 15.6545 142.351C15.8522 142.648 15.9576 142.996 15.9575 143.352C15.9574 143.708 15.8517 144.056 15.6538 144.352C15.4559 144.648 15.1747 144.878 14.8457 145.014C14.5167 145.15 14.1547 145.186 13.8056 145.116C13.4564 145.047 13.1357 144.875 12.8841 144.623C12.6324 144.372 12.4611 144.051 12.3917 143.702C12.3224 143.352 12.3581 142.99 12.4945 142.662Z" fill="#FF5470"/>
<path d="M20.9967 164.225C19.0764 163.843 17.0848 164.063 15.2946 164.856C13.5043 165.649 12.0028 166.976 10.9956 168.655C9.98837 170.334 9.52462 172.283 9.66781 174.236C9.81099 176.189 10.5541 178.05 11.7955 179.564C13.0366 181.077 14.7148 182.171 16.6008 182.694C18.4868 183.218 20.4885 183.147 22.3322 182.489C24.176 181.832 25.7719 180.622 26.9016 179.024C28.0314 177.425 28.64 175.517 28.6442 173.56C28.6455 171.359 27.8841 169.227 26.4897 167.525C25.0953 165.823 23.1542 164.657 20.9967 164.225Z" fill="white"/>
<path d="M16.3479 170.711C15.7262 170.284 15.6456 170.195 15.4518 170.263C15.3546 170.296 15.2735 170.365 15.2247 170.455C15.1759 170.545 15.163 170.651 15.1885 170.75C15.2849 170.943 15.1986 170.862 15.6758 171.164C15.445 171.856 15.8506 172.362 16.2762 172.362C17.1645 172.361 17.1287 170.793 16.3479 170.711Z" fill="#2F473F"/>
<path d="M19.5337 176.56C20.068 176.56 19.909 176.509 19.909 169.773C19.9127 169.697 19.8931 169.621 19.8526 169.556C19.8122 169.49 19.753 169.439 19.6827 169.408C19.624 169.383 19.5599 169.373 19.4963 169.38C19.4327 169.386 19.3719 169.409 19.3195 169.445C19.2671 169.482 19.2249 169.531 19.1969 169.589C19.1689 169.646 19.1561 169.71 19.1596 169.773C19.1596 176.394 19.0005 176.56 19.5337 176.56Z" fill="#2F473F"/>
<path d="M23.5081 176.934C23.4476 176.634 22.9368 176.552 22.836 176.859C21.5926 179.211 19.2806 177.807 19.1248 178.584C18.9434 179.492 21.9051 179.256 22.9861 177.912C23.0589 178.381 22.9525 178.862 22.687 179.256C22.0082 180.274 21.0583 179.928 21.1871 180.569C21.3596 181.453 24.5365 180.016 23.5081 176.934Z" fill="#2F473F"/>
<path d="M22.2703 170.936C22.7822 171.295 22.6064 171.075 22.6064 171.496C22.6064 172.587 23.9506 172.587 23.9506 171.496C23.9593 171.395 23.9477 171.293 23.9165 171.197C23.8852 171.1 23.835 171.011 23.7687 170.934C23.7025 170.857 23.6215 170.794 23.5306 170.749C23.4396 170.703 23.3406 170.677 23.2393 170.671C22.7173 170.312 22.3756 169.974 22.1191 170.408C22.091 170.452 22.0726 170.501 22.065 170.553C22.0575 170.604 22.0609 170.657 22.0753 170.707C22.0896 170.756 22.1144 170.803 22.148 170.842C22.1816 170.882 22.2233 170.914 22.2703 170.936Z" fill="#2F473F"/>
<path d="M23.9024 173.953C24.0977 173.531 24.4485 173.201 24.8816 173.032C25.3147 172.862 25.7965 172.867 26.2261 173.045C26.6558 173.223 27 173.56 27.1867 173.986C27.3735 174.412 27.3884 174.893 27.2282 175.33C27.033 175.752 26.6821 176.082 26.249 176.251C25.8159 176.42 25.3342 176.416 24.9045 176.238C24.4749 176.06 24.1307 175.723 23.9439 175.297C23.7571 174.871 23.7423 174.39 23.9024 173.953Z" fill="#FF5470"/>
<path d="M12.509 173.956C12.6218 173.682 12.8005 173.441 13.0292 173.253C13.2579 173.064 13.5296 172.936 13.8201 172.878C14.1106 172.82 14.4108 172.835 14.6941 172.921C14.9774 173.008 15.235 173.163 15.4439 173.373C15.6958 173.624 15.8674 173.945 15.9368 174.294C16.0062 174.643 15.9703 175.004 15.8337 175.333C15.7436 175.551 15.6112 175.75 15.4442 175.917C15.2772 176.084 15.0789 176.217 14.8606 176.307C14.6423 176.398 14.4083 176.444 14.172 176.444C13.9357 176.444 13.7018 176.397 13.4836 176.306C13.2653 176.216 13.0669 176.084 12.8998 175.917C12.7327 175.75 12.6001 175.551 12.5096 175.333C12.4191 175.115 12.3725 174.881 12.3724 174.645C12.3723 174.409 12.4187 174.175 12.509 173.956Z" fill="#FF5470"/>
<path d="M111.793 57.4205C112.176 57.5169 112.173 57.0374 112.056 68.5182C112.05 68.9565 112.131 69.3918 112.294 69.7988C112.456 70.2058 112.698 70.5765 113.005 70.8896C113.312 71.2029 113.677 71.4526 114.08 71.6246C114.484 71.7967 114.917 71.8876 115.355 71.8922H209.189C211.042 71.8922 212.727 70.567 212.562 67.7677V41.0009C212.576 40.3366 212.392 39.6832 212.033 39.1242C211.674 38.5651 211.156 38.1258 210.546 37.8621C210.141 37.6875 209.705 37.595 209.264 37.5899C182.219 37.3189 119.903 37.5182 116.249 37.4858C113.483 37.4611 112.265 38.2699 112.125 41.4714C112.055 43.0396 112.125 45.5421 112.125 49.8862C112.125 50.3119 112.548 50.0307 103.128 53.1851C101.471 53.8976 101.498 53.5839 111.793 57.4205Z" fill="#E2FD86"/>
<path d="M213.35 40.8887C213.337 39.8252 212.912 38.8082 212.163 38.0526C211.415 37.2969 210.402 36.8619 209.339 36.8393H115.392C114.337 36.8297 113.322 37.2391 112.569 37.9775C111.815 38.7159 111.386 39.723 111.374 40.7778C111.285 42.1299 111.344 44.5338 111.344 49.6273C98.0137 54.1685 98.4495 53.2007 111.381 57.9872V68.5595C111.382 69.5536 111.743 70.5138 112.398 71.2618C113.053 72.0098 113.957 72.4948 114.942 72.6269H209.339C210.381 72.6179 211.381 72.211 212.134 71.4893C212.886 70.7676 213.334 69.7856 213.387 68.7443C213.421 68.0061 213.378 42.6183 213.35 40.8887ZM209.172 71.7912H115.392C114.961 71.7933 114.533 71.7102 114.133 71.5468C113.734 71.3833 113.37 71.1427 113.064 70.8387C112.758 70.5347 112.514 70.1732 112.348 69.775C112.181 69.3768 112.095 68.9497 112.093 68.518V58.0197C112.093 57.7441 112.093 57.4674 111.869 57.3375C110.383 56.4414 103.502 54.4732 102.531 53.9344C101.971 53.5222 102.907 53.3351 103.132 53.2219C112.525 50.0776 112.128 50.3431 112.128 49.923C112.128 44.8251 112.028 42.2654 112.174 40.7756C112.343 39.0337 113.328 37.6077 115.272 37.6391C117.637 37.6693 205.111 37.5898 209.298 37.6324C210.188 37.6486 211.035 38.0169 211.653 38.6565C212.271 39.2961 212.611 40.1549 212.597 41.0444C212.597 62.124 212.654 67.0562 212.567 68.6581C212.545 69.3051 212.331 69.9308 211.95 70.4547C211.57 70.9786 211.042 71.3766 210.433 71.5974C210.03 71.7448 209.601 71.8106 209.172 71.7912Z" fill="#2F473F"/>
<path d="M212.599 153.865C212.608 153.426 212.529 152.989 212.367 152.581C212.206 152.173 211.964 151.801 211.657 151.487C211.35 151.173 210.984 150.923 210.579 150.752C210.174 150.581 209.74 150.492 209.301 150.491C203.277 150.491 118.422 150.603 115.714 150.603C113.905 150.603 112.475 151.059 112.169 153.347C111.976 154.794 112.093 157.342 112.093 162.757C112.093 163.169 112.555 162.913 103.096 166.093C101.765 166.541 102.339 166.754 103.544 167.181C112.518 170.347 112.057 170.221 112.057 170.63V181.351C112.05 181.79 112.129 182.226 112.291 182.633C112.454 183.041 112.696 183.412 113.003 183.726C113.309 184.04 113.675 184.29 114.079 184.461C114.483 184.633 114.917 184.722 115.356 184.725H209.228C209.922 184.73 210.601 184.52 211.172 184.124C211.742 183.729 212.176 183.166 212.415 182.514C212.712 181.489 212.309 182.406 212.599 153.865Z" fill="#E2FD86"/>
<path d="M213.35 153.753C213.337 152.689 212.912 151.672 212.163 150.917C211.415 150.161 210.402 149.726 209.339 149.703H115.392C114.736 149.709 114.091 149.873 113.51 150.179C112.93 150.486 112.431 150.927 112.056 151.465C111.127 152.809 111.344 153.447 111.344 162.525C106.028 164.328 102.902 165.268 101.859 166.038C101.272 166.471 101.345 166.851 102.056 167.301C103.289 168.076 106.413 169.06 111.344 170.886V181.415C111.345 182.41 111.706 183.37 112.361 184.118C113.016 184.866 113.92 185.351 114.905 185.483H209.336C210.374 185.479 211.37 185.079 212.123 184.365C212.875 183.651 213.327 182.676 213.385 181.641C213.426 180.897 213.378 155.461 213.35 153.753ZM209.225 184.755H115.392C114.509 184.74 113.668 184.377 113.05 183.746C112.433 183.114 112.089 182.265 112.093 181.382V170.468C112.093 169.872 103.624 167.404 102.534 166.798C101.974 166.386 102.909 166.199 103.134 166.126C112.522 162.969 112.13 163.214 112.13 162.789C112.13 157.758 112.033 155.208 112.172 153.716C112.382 151.475 113.53 150.563 115.332 150.53C117.924 150.482 200.369 150.439 209.339 150.53C210.222 150.546 211.063 150.909 211.68 151.54C212.297 152.172 212.641 153.021 212.638 153.904C212.638 175.798 212.616 180.131 212.496 181.592C212.474 182.443 212.119 183.251 211.507 183.842C210.895 184.433 210.076 184.761 209.225 184.755Z" fill="#2F473F"/>
<path d="M173.612 159.99C124.458 159.99 124.427 159.714 124.427 160.364C124.427 161.014 124.427 160.739 173.612 160.739C173.663 160.742 173.714 160.734 173.762 160.716C173.809 160.699 173.853 160.672 173.891 160.637C173.927 160.602 173.957 160.559 173.977 160.512C173.997 160.465 174.007 160.415 174.007 160.364C174.007 160.313 173.997 160.263 173.977 160.216C173.956 160.169 173.927 160.127 173.89 160.092C173.853 160.057 173.809 160.03 173.761 160.012C173.714 159.995 173.663 159.987 173.612 159.99Z" fill="#2F473F"/>
<path d="M135.524 166.325C124.027 166.325 124.427 166.165 124.427 166.7C124.427 167.235 124.053 167.075 135.524 167.075C135.624 167.075 135.719 167.036 135.79 166.965C135.86 166.895 135.899 166.799 135.899 166.7C135.899 166.6 135.86 166.505 135.79 166.435C135.719 166.364 135.624 166.325 135.524 166.325Z" fill="#2F473F"/>
<path d="M200.979 159.99C178.6 159.99 178.597 159.756 178.597 160.364C178.597 160.973 178.604 160.74 200.979 160.74C201.03 160.742 201.081 160.734 201.128 160.717C201.176 160.699 201.22 160.673 201.258 160.638C201.294 160.602 201.324 160.56 201.344 160.513C201.364 160.466 201.374 160.416 201.374 160.364C201.374 160.314 201.364 160.263 201.343 160.216C201.323 160.17 201.294 160.127 201.257 160.092C201.22 160.057 201.176 160.03 201.128 160.013C201.08 159.995 201.03 159.988 200.979 159.99Z" fill="#2F473F"/>
<path d="M212.599 99.5581C212.612 98.8965 212.426 98.2464 212.066 97.6913C211.706 97.1363 211.188 96.7018 210.579 96.444C210.174 96.2733 209.74 96.185 209.301 96.1841C203.277 96.1841 118.422 96.2961 115.714 96.2905C113.905 96.2905 112.475 96.7475 112.169 99.0349C111.976 100.481 112.093 103.031 112.093 108.444C112.093 108.858 112.555 108.601 103.096 111.782C101.765 112.23 102.339 112.442 103.544 112.868C112.518 116.036 112.057 115.909 112.057 116.317V127.04C112.038 127.942 112.371 128.817 112.988 129.476C113.604 130.136 114.455 130.528 115.356 130.569H209.085C209.811 130.545 210.514 130.307 211.106 129.886C211.697 129.465 212.152 128.879 212.412 128.201C212.712 127.182 212.309 128.099 212.599 99.5581Z" fill="#E2FD86"/>
<path d="M213.35 99.4453C213.337 98.3819 212.912 97.365 212.163 96.6096C211.415 95.8541 210.402 95.4193 209.339 95.397H115.392C114.736 95.4031 114.091 95.5663 113.51 95.8729C112.93 96.1794 112.431 96.6204 112.056 97.159C111.127 98.5032 111.344 99.1395 111.344 108.217C106.028 110.021 102.902 110.961 101.859 111.731C101.272 112.165 101.345 112.545 102.056 112.994C103.289 113.769 106.413 114.753 111.344 116.579V127.114C111.345 128.108 111.706 129.068 112.361 129.816C113.016 130.564 113.92 131.049 114.905 131.181H209.336C210.374 131.178 211.372 130.779 212.125 130.064C212.877 129.35 213.328 128.374 213.385 127.338C213.426 126.59 213.378 101.155 213.35 99.4453ZM209.225 130.449H115.392C114.509 130.432 113.668 130.069 113.051 129.438C112.434 128.807 112.09 127.958 112.093 127.075V116.162C112.093 115.565 103.624 113.097 102.534 112.492C101.974 112.079 102.909 111.893 103.134 111.82C112.522 108.663 112.13 108.907 112.13 108.484C112.13 103.453 112.033 100.903 112.172 99.4106C112.382 97.1702 113.53 96.2595 115.332 96.2259C117.924 96.1777 200.369 96.1341 209.339 96.2259C210.222 96.2421 211.063 96.6051 211.68 97.2365C212.297 97.8679 212.641 98.7169 212.638 99.5999C212.638 121.495 212.616 125.828 212.496 127.289C212.472 128.138 212.117 128.945 211.505 129.536C210.894 130.126 210.076 130.454 209.225 130.449Z" fill="#2F473F"/>
<path d="M179.123 49.029C179.123 48.3793 179.123 48.6537 124.802 48.6537C124.702 48.6537 124.607 48.6933 124.536 48.7637C124.466 48.834 124.427 48.9295 124.427 49.029C124.427 49.1285 124.466 49.224 124.536 49.2944C124.607 49.3647 124.702 49.4043 124.802 49.4043C179.125 49.4379 179.123 49.6686 179.123 49.029Z" fill="#2F473F"/>
<path d="M183.096 49.3986C200.011 49.3986 200.041 49.6081 200.041 49.0233C200.041 48.4386 200.023 48.6481 183.096 48.6481C182.997 48.6481 182.901 48.6876 182.831 48.758C182.76 48.8284 182.721 48.9238 182.721 49.0233C182.721 49.1229 182.76 49.2183 182.831 49.2887C182.901 49.3591 182.997 49.3986 183.096 49.3986Z" fill="#2F473F"/>
<path d="M168.739 54.3466C124.455 54.3466 124.427 54.0722 124.427 54.7219C124.427 55.3716 124.427 55.0971 168.701 55.0971C168.797 55.0964 168.889 55.059 168.958 54.9926C169.027 54.9262 169.069 54.8358 169.074 54.7398C169.079 54.6439 169.047 54.5498 168.984 54.4767C168.922 54.4036 168.834 54.3571 168.739 54.3466Z" fill="#2F473F"/>
<path d="M146.77 60.0831C124.432 60.0831 124.427 59.849 124.427 60.4573C124.427 61.1025 124.485 60.8325 146.77 60.8325C146.866 60.8273 146.956 60.7855 147.022 60.7158C147.088 60.6461 147.124 60.5538 147.124 60.4578C147.124 60.3618 147.088 60.2695 147.022 60.1998C146.956 60.1301 146.866 60.0884 146.77 60.0831Z" fill="#2F473F"/>
<path d="M199.629 54.3466C173.321 54.3466 173.312 54.0722 173.312 54.7219C173.312 55.3716 173.312 55.0971 199.629 55.0971C199.728 55.0971 199.824 55.0576 199.894 54.9872C199.965 54.9169 200.004 54.8214 200.004 54.7219C200.004 54.6224 199.965 54.5269 199.894 54.4565C199.824 54.3862 199.728 54.3466 199.629 54.3466Z" fill="#2F473F"/>
<path d="M178.786 105.182C135.864 105.182 126.834 105.01 124.933 105.258C124.272 105.344 124.22 105.752 124.88 105.847C126.66 106.106 135.442 105.931 178.748 105.931C178.846 105.934 178.941 105.899 179.013 105.832C179.068 105.782 179.107 105.718 179.125 105.647C179.143 105.575 179.14 105.5 179.116 105.431C179.091 105.362 179.047 105.301 178.988 105.256C178.93 105.212 178.859 105.186 178.786 105.182Z" fill="#2F473F"/>
<path d="M178.786 110.767C137.366 110.767 127.507 110.608 125.16 110.82C124.121 110.913 124.197 111.38 125.184 111.467C127.571 111.676 137.496 111.517 178.748 111.517C178.796 111.518 178.845 111.51 178.89 111.493C178.936 111.476 178.978 111.45 179.013 111.417C179.068 111.368 179.107 111.304 179.125 111.232C179.143 111.161 179.14 111.086 179.116 111.016C179.091 110.947 179.047 110.886 178.988 110.842C178.93 110.798 178.859 110.772 178.786 110.767Z" fill="#2F473F"/>
<path d="M137.696 116.353C129.271 116.353 126.18 116.27 125.045 116.353C124.108 116.425 124.14 117.025 125.035 117.092C126.155 117.183 129.246 117.099 137.693 117.099C137.745 117.104 137.798 117.099 137.849 117.084C137.899 117.068 137.946 117.042 137.985 117.007C138.024 116.972 138.056 116.929 138.077 116.88C138.109 116.808 138.117 116.727 138.101 116.65C138.085 116.572 138.045 116.502 137.987 116.448C137.949 116.412 137.902 116.385 137.852 116.369C137.802 116.353 137.749 116.347 137.696 116.353Z" fill="#2F473F"/>
<path d="M137.696 120.627C129.356 120.627 126.242 120.545 125.08 120.627C124.071 120.699 124.16 121.299 125.053 121.37C126.193 121.458 129.289 121.37 137.696 121.37C137.785 121.357 137.867 121.312 137.926 121.244C137.985 121.176 138.017 121.088 138.017 120.998C138.017 120.908 137.985 120.821 137.926 120.753C137.867 120.685 137.785 120.64 137.696 120.627Z" fill="#2F473F"/>
<path d="M80.0404 40.7007C78.1918 40.6962 76.3604 41.0558 74.6508 41.759C72.9412 42.4622 71.3868 43.4952 70.0764 44.7992C68.7661 46.1031 67.7254 47.6523 67.0137 49.3585C66.3021 51.0646 65.9335 52.8942 65.9289 54.7428C65.9243 56.5914 66.2839 58.4228 66.9871 60.1324C67.6903 61.842 68.7234 63.3964 70.0273 64.7067C71.3312 66.0171 72.8805 67.0578 74.5866 67.7695C76.2928 68.4811 78.1223 68.8497 79.9709 68.8543C83.7043 68.8635 87.2885 67.3892 89.9349 64.7558C92.5813 62.1224 94.0732 58.5456 94.0824 54.8122C94.0917 51.0788 92.6174 47.4947 89.984 44.8483C87.3506 42.2019 83.7738 40.7099 80.0404 40.7007Z" fill="#E2FD86"/>
<path d="M73.2173 51.6849C73.4206 51.3732 73.6963 51.1152 74.0208 50.9331C74.3454 50.7511 74.7092 50.6502 75.0812 50.6392C75.4532 50.6282 75.8223 50.7074 76.157 50.8699C76.4918 51.0325 76.7822 51.2737 77.0036 51.5729C77.058 51.6525 77.1402 51.7089 77.2341 51.731C77.328 51.7531 77.4268 51.7393 77.511 51.6922C77.5952 51.6452 77.6588 51.5684 77.6893 51.4769C77.7198 51.3853 77.7149 51.2857 77.6757 51.1976C77.3913 50.7836 77.0082 50.4469 76.5612 50.2179C76.1141 49.989 75.6171 49.8749 75.1149 49.886C74.6127 49.8971 74.1212 50.0331 73.6848 50.2816C73.2483 50.5302 72.8805 50.8834 72.6147 51.3096C72.3178 51.6849 72.9631 52.0646 73.2173 51.6849Z" fill="#2F473F"/>
<path d="M82.3278 51.2698C82.059 51.6798 82.7008 52.0539 82.9652 51.645C83.6765 50.5316 85.2257 50.014 86.785 51.5677C86.8415 51.64 86.9211 51.6905 87.0104 51.7109C87.0998 51.7313 87.1935 51.7203 87.2757 51.6798C87.3395 51.6419 87.3904 51.5856 87.4214 51.5181C87.4524 51.4507 87.4621 51.3754 87.4493 51.3023C87.4411 51.2536 87.4232 51.2071 87.3966 51.1656C87.1116 50.7517 86.7282 50.4151 86.281 50.1859C85.8338 49.9567 85.3366 49.8421 84.8342 49.8524C84.3317 49.8628 83.8397 49.9977 83.4023 50.245C82.9648 50.4924 82.5956 50.8445 82.3278 51.2698Z" fill="#2F473F"/>
<path d="M80.0068 39.9893C77.0707 39.9886 74.2003 40.8587 71.7586 42.4894C69.317 44.1202 67.4138 46.4383 66.2897 49.1508C65.1656 51.8632 64.8712 54.8481 65.4436 57.7279C66.016 60.6077 67.4295 63.2531 69.5055 65.3295C71.5814 67.4059 74.2265 68.82 77.1061 69.3931C79.9858 69.9662 82.9708 69.6724 85.6835 68.5489C88.3962 67.4255 90.7148 65.5228 92.3461 63.0815C93.9774 60.6403 94.8481 57.7701 94.8481 54.8339C94.8451 50.8984 93.2807 47.1248 90.4981 44.3416C87.7156 41.5584 83.9423 39.9931 80.0068 39.9893ZM80.0068 68.89C77.2223 68.8871 74.5012 68.0585 72.1876 66.5089C69.8741 64.9594 68.072 62.7586 67.0094 60.1848C65.9468 57.611 65.6713 54.7799 66.2179 52.0495C66.7644 49.3192 68.1084 46.8122 70.0799 44.8458C72.0513 42.8794 74.5617 41.5417 77.2934 41.0022C80.0252 40.4626 82.8556 40.7452 85.4266 41.8144C87.9977 42.8836 90.194 44.6912 91.7376 47.0087C93.2812 49.3262 94.1029 52.0494 94.0987 54.8339C94.0889 58.5652 92.6 62.1404 89.9584 64.7757C87.3168 67.411 83.7381 68.8913 80.0068 68.8922V68.89Z" fill="#2F473F"/>
<path d="M87.0135 55.7337C82.3791 56.2503 77.7017 56.2503 73.0673 55.7337C72.7827 55.7337 72.9496 55.6968 72.655 55.6968C71.7499 55.8782 73.4985 59.5121 76.5163 60.8328C83.5029 63.8887 88.6322 56.0037 87.0124 55.7337H87.0135ZM73.2913 56.4843C77.6398 56.9816 82.0287 56.9816 86.375 56.4843C83.7336 62.2991 75.4264 62.0303 73.2913 56.4843Z" fill="#2F473F"/>
<path d="M69.2441 52.0222C69.9011 52.0361 70.5266 52.3068 70.9863 52.7764C71.4461 53.246 71.7036 53.877 71.7036 54.5342C71.7036 55.1914 71.4461 55.8224 70.9863 56.292C70.5266 56.7616 69.9011 57.0324 69.2441 57.0462C68.587 57.0324 67.9616 56.7616 67.5018 56.292C67.042 55.8224 66.7845 55.1914 66.7845 54.5342C66.7845 53.877 67.042 53.246 67.5018 52.7764C67.9616 52.3068 68.587 52.0361 69.2441 52.0222Z" fill="#FF5470"/>
<path d="M90.3875 52.0222C91.0446 52.0361 91.67 52.3068 92.1298 52.7764C92.5896 53.246 92.847 53.877 92.847 54.5342C92.847 55.1914 92.5896 55.8224 92.1298 56.292C91.67 56.7616 91.0446 57.0324 90.3875 57.0462C89.7305 57.0324 89.105 56.7616 88.6453 56.292C88.1855 55.8224 87.928 55.1914 87.928 54.5342C87.928 53.877 88.1855 53.246 88.6453 52.7764C89.105 52.3068 89.7305 52.0361 90.3875 52.0222Z" fill="#FF5470"/>
<path d="M73.2924 56.4839C75.4555 62.1061 83.7885 62.2539 86.3392 56.4839C82.0041 56.9902 77.6264 56.9902 73.2924 56.4839Z" fill="white"/>
<path d="M79.8948 99.183C78.0359 99.1625 76.1914 99.5104 74.4677 100.207C72.744 100.903 71.1752 101.933 69.8519 103.239C68.5286 104.545 67.477 106.099 66.7577 107.814C66.0385 109.528 65.6659 111.367 65.6613 113.226C65.6568 115.085 66.0205 116.927 66.7315 118.645C67.4424 120.362 68.4864 121.922 69.8034 123.234C71.1203 124.546 72.6841 125.584 74.4044 126.289C76.1247 126.993 77.9675 127.35 79.8264 127.339C83.5392 127.316 87.0926 125.827 89.713 123.197C92.3334 120.566 93.8086 117.007 93.8175 113.294C93.8263 109.581 92.3681 106.015 89.7603 103.372C87.1525 100.729 83.6063 99.2238 79.8937 99.183H79.8948Z" fill="#E2FD86"/>
<path d="M82.3648 116.09C82.3648 115.928 82.9114 115.978 77.4539 115.978C77.3734 117.415 77.3858 118.855 77.4909 120.29C77.5241 120.815 77.7252 121.316 78.0645 121.718C78.4038 122.121 78.8634 122.404 79.3756 122.526C79.8878 122.647 80.4255 122.601 80.9096 122.394C81.3937 122.187 81.7986 121.831 82.0646 121.376C82.516 120.476 82.3648 120.28 82.3648 116.09Z" fill="#E2FD86"/>
<path d="M79.8533 98.3958C77.9011 98.3933 75.9675 98.7755 74.1629 99.5203C72.3584 100.265 70.7182 101.358 69.3361 102.737C67.9539 104.116 66.8569 105.753 66.1076 107.556C65.3582 109.358 64.9713 111.291 64.9689 113.243C64.9664 115.195 65.3486 117.129 66.0934 118.934C66.8383 120.738 67.9312 122.378 69.3099 123.76C70.6887 125.143 72.3261 126.24 74.1288 126.989C75.9315 127.738 77.8641 128.125 79.8163 128.128C83.759 128.133 87.5422 126.571 90.3336 123.787C93.1249 121.002 94.6959 117.223 94.7008 113.28C94.7057 109.337 93.1441 105.554 90.3597 102.763C87.5753 99.9716 83.796 98.4007 79.8533 98.3958ZM79.8533 127.337C77.069 127.334 74.3481 126.505 72.035 124.955C69.7219 123.405 67.9207 121.204 66.8592 118.63C66.0648 116.705 65.7071 114.629 65.8117 112.55C65.9164 110.471 66.4808 108.441 67.4644 106.606C68.448 104.772 69.8263 103.178 71.4999 101.94C73.1736 100.702 75.1009 99.8506 77.1432 99.4472C79.1854 99.0438 81.2917 99.0983 83.3104 99.6069C85.329 100.115 87.2097 101.065 88.8171 102.388C90.4244 103.711 91.7183 105.374 92.6057 107.257C93.493 109.14 93.9516 111.197 93.9486 113.279C93.9364 117.01 92.4463 120.584 89.8045 123.219C87.1627 125.854 83.5845 127.334 79.8533 127.337Z" fill="#2F473F"/>
<path d="M83.9386 110.467C83.9074 110.663 83.9302 110.865 84.0048 111.05C84.0794 111.235 84.2028 111.396 84.3619 111.515C84.521 111.635 84.7097 111.71 84.9079 111.731C85.1061 111.752 85.3061 111.718 85.4867 111.634C85.6312 111.568 85.7596 111.472 85.8629 111.351C85.9662 111.23 86.042 111.089 86.0849 110.936C86.1283 110.783 86.1383 110.623 86.114 110.467C86.1113 110.235 86.0511 110.008 85.9388 109.806C85.8266 109.604 85.6658 109.433 85.471 109.308C85.2 109.14 84.6522 109.203 84.6522 108.367C84.7474 107.888 84.0395 107.745 83.9398 108.143C83.9015 108.384 83.9187 108.63 83.9901 108.863C84.0616 109.096 84.1853 109.31 84.352 109.488C84.215 109.61 84.107 109.761 84.0357 109.931C83.9644 110.1 83.9317 110.283 83.9398 110.467H83.9386Z" fill="#2F473F"/>
<path d="M74.4171 110.467C74.3861 110.663 74.409 110.864 74.4835 111.049C74.558 111.233 74.6812 111.394 74.8399 111.514C74.9987 111.634 75.187 111.708 75.3848 111.73C75.5826 111.751 75.7824 111.718 75.9629 111.634C76.1076 111.568 76.2362 111.472 76.3397 111.351C76.4432 111.231 76.5192 111.089 76.5622 110.936C76.6056 110.784 76.6156 110.624 76.5913 110.467C76.5913 109.74 76.1578 109.466 75.6952 109.167C74.8349 108.607 75.5641 108.031 74.9436 107.918C74.2793 107.796 74.454 108.891 74.9055 109.455C74.7456 109.569 74.617 109.722 74.5316 109.898C74.4462 110.075 74.4068 110.271 74.4171 110.467Z" fill="#2F473F"/>
<path d="M87.2387 115.344C77.4797 115.344 74.3219 115.289 73.2364 115.355C72.5374 115.398 72.4164 115.49 72.7603 116.198C73.6802 117.908 75.0609 119.327 76.7459 120.293C76.8036 121.057 77.134 121.774 77.6766 122.315C78.2193 122.855 78.9382 123.182 79.7021 123.237C80.4659 123.291 81.2235 123.068 81.837 122.61C82.4505 122.152 82.8791 121.489 83.0447 120.741C85.1147 119.741 86.7049 117.962 87.4683 115.793C87.4908 115.726 87.4927 115.654 87.4738 115.585C87.4548 115.517 87.4158 115.456 87.3619 115.41C87.3258 115.38 87.2838 115.358 87.2387 115.344ZM82.3648 120.255C82.3648 123.272 77.4539 123.473 77.4539 119.807V115.983H82.3648C82.3648 120.246 82.3984 119.725 82.3648 120.252V120.255Z" fill="#2F473F"/>
<path d="M80.0404 154.367C77.161 154.36 74.3488 155.237 71.9829 156.878C69.617 158.519 67.8112 160.846 66.8088 163.546C66.059 165.564 65.7821 167.727 65.9993 169.869C66.2165 172.011 66.922 174.074 68.0616 175.901C69.2012 177.727 70.7445 179.268 72.5729 180.405C74.4013 181.542 76.466 182.244 78.6082 182.458C80.7505 182.671 82.9132 182.391 84.9301 181.638C86.947 180.885 88.7643 179.679 90.2424 178.114C91.7204 176.549 92.8197 174.665 93.4558 172.608C94.0919 170.552 94.2479 168.376 93.9116 166.25C93.3888 162.944 91.7055 159.932 89.1636 157.755C86.6218 155.577 83.3874 154.376 80.0404 154.367Z" fill="#E2FD86"/>
<path d="M69.2441 165.688C69.9103 165.688 70.5492 165.952 71.0203 166.423C71.4914 166.894 71.7561 167.533 71.7561 168.2C71.7561 168.866 71.4914 169.505 71.0203 169.976C70.5492 170.447 69.9103 170.712 69.2441 170.712C68.5778 170.712 67.9389 170.447 67.4678 169.976C66.9967 169.505 66.7321 168.866 66.7321 168.2C66.7321 167.533 66.9967 166.894 67.4678 166.423C67.9389 165.952 68.5778 165.688 69.2441 165.688Z" fill="#FF5470"/>
<path d="M90.4245 165.688C91.0907 165.688 91.7297 165.952 92.2008 166.423C92.6718 166.894 92.9365 167.533 92.9365 168.2C92.9365 168.866 92.6718 169.505 92.2008 169.976C91.7297 170.447 91.0907 170.712 90.4245 170.712C89.7583 170.712 89.1193 170.447 88.6482 169.976C88.1771 169.505 87.9125 168.866 87.9125 168.2C87.9125 167.533 88.1771 166.894 88.6482 166.423C89.1193 165.952 89.7583 165.688 90.4245 165.688Z" fill="#FF5470"/>
<path d="M80.0068 153.654C77.0706 153.655 74.2003 154.525 71.7588 156.156C69.3173 157.788 67.4143 160.106 66.2901 162.819C65.0715 165.761 64.8314 169.017 65.6052 172.106C66.379 175.195 68.1258 177.954 70.5875 179.974C73.0492 181.994 76.0954 183.169 79.2761 183.326C82.4569 183.482 85.6037 182.611 88.2516 180.842C90.8996 179.073 92.9085 176.499 93.9816 173.501C95.0546 170.503 95.135 167.239 94.2108 164.191C93.2866 161.143 91.4069 158.474 88.8492 156.577C86.2915 154.679 83.1914 153.655 80.0068 153.654ZM80.0068 182.555C77.2224 182.552 74.5015 181.723 72.1885 180.173C69.8754 178.623 68.0741 176.422 67.0127 173.848C66.2183 171.924 65.8605 169.847 65.9652 167.768C66.0698 165.689 66.6343 163.659 67.6179 161.824C68.6015 159.99 69.9798 158.396 71.6534 157.158C73.3271 155.92 75.2544 155.069 77.2967 154.665C79.3389 154.262 81.4452 154.317 83.4639 154.825C85.4825 155.334 87.3632 156.284 88.9705 157.607C90.5779 158.929 91.8718 160.592 92.7592 162.475C93.6465 164.359 94.1051 166.415 94.1021 168.497C94.0923 172.229 92.6029 175.804 89.9606 178.44C87.3183 181.075 83.7387 182.555 80.0068 182.555Z" fill="#2F473F"/>
<path d="M87.2006 169.361C86.291 169.18 86.7346 172.106 82.9271 173.785C78.8463 175.585 74.2603 173.302 73.2935 169.623C73.2666 169.531 73.2048 169.453 73.1211 169.405C73.0374 169.358 72.9386 169.345 72.8455 169.369C72.7525 169.394 72.6728 169.454 72.6234 169.537C72.5741 169.619 72.5589 169.718 72.5811 169.812C74.8013 177.125 85.3086 176.705 87.5019 169.812C87.5097 169.714 87.4842 169.616 87.4295 169.534C87.3748 169.452 87.2942 169.392 87.2006 169.361Z" fill="#2F473F"/>
<path d="M86.7884 163.701C86.5869 164.015 86.312 164.276 85.9875 164.46C85.6629 164.644 85.2984 164.746 84.9255 164.758C84.5522 164.769 84.1818 164.689 83.8466 164.524C83.5113 164.36 83.2214 164.116 83.0022 163.813C82.9612 163.754 82.9048 163.708 82.839 163.679C82.7732 163.65 82.7008 163.64 82.6297 163.65C82.5586 163.66 82.4917 163.69 82.4364 163.736C82.3811 163.782 82.3397 163.842 82.3166 163.91C82.2862 164.001 82.291 164.101 82.33 164.189C82.6138 164.603 82.9967 164.941 83.4438 165.17C83.891 165.399 84.3884 165.513 84.8908 165.502C85.393 165.49 85.8846 165.354 86.3211 165.105C86.7576 164.857 87.1253 164.503 87.391 164.077C87.4172 164.037 87.4351 163.993 87.4438 163.946C87.4525 163.899 87.4518 163.852 87.4416 163.805C87.4315 163.759 87.4122 163.715 87.3849 163.676C87.3575 163.637 87.3227 163.605 87.2824 163.58C87.2421 163.554 87.1973 163.538 87.1504 163.53C87.1036 163.523 87.0557 163.525 87.0097 163.536C86.9636 163.548 86.9203 163.568 86.8823 163.596C86.8443 163.625 86.8124 163.66 86.7884 163.701Z" fill="#2F473F"/>
<path d="M77.679 164.072C77.9456 163.663 77.3049 163.288 77.0417 163.698C76.7144 164.205 76.2014 164.564 75.6127 164.697C75.024 164.83 74.4065 164.727 73.8928 164.41C73.1849 163.988 73.2409 163.456 72.7301 163.66C71.6838 164.296 75.6437 167.201 77.679 164.072Z" fill="#2F473F"/>
</svg>
