<svg width="240" height="240" viewBox="0 0 240 240" fill="none" xmlns="http://www.w3.org/2000/svg">
<path d="M34.4859 162.859C34.1581 162.377 33.6736 162.023 33.1146 161.857C32.5555 161.691 31.9564 161.724 31.4187 161.949C30.598 162.393 30.2191 163.351 29.703 164.121C28.541 165.85 26.4963 166.696 24.6531 167.693C22.81 168.69 20.9181 170.103 20.5902 172.173C20.4207 172.828 20.938 173.376 22.2683 172.905C25.4589 171.657 28.9782 171.528 32.2517 172.539L35.6722 166.09C35.5359 164.935 35.1295 163.828 34.4859 162.859Z" fill="white"/>
<path d="M66.7699 182.775C60.6778 183.294 54.6377 181.679 48.7471 180.023C43.2187 178.44 37.8456 176.357 32.6937 173.802C32.507 173.713 32.3363 173.593 32.1886 173.448C31.9901 173.184 31.8717 172.869 31.8475 172.539C31.5942 171.052 31.7742 169.523 32.3659 168.135C32.7369 167.273 34.7684 165.616 34.2201 164.866C32.9759 163.139 32.2763 161.08 32.2112 158.952C32.146 156.825 32.7183 154.727 33.8546 152.927C33.9793 152.695 34.1564 152.497 34.3718 152.346C34.6246 152.225 34.8992 152.156 35.1793 152.144C40.258 151.857 66.4398 154.821 66.5561 154.857C68.6762 155.778 75.2037 161.747 77.0668 169.7C78.139 174.275 76.0444 179.287 72.9684 178.536C73.2907 178.68 72.5863 182.28 66.7699 182.775Z" fill="#2F473F"/>
<path d="M44.0185 100.439C44.064 100.503 44.1229 100.557 44.191 100.597C44.2592 100.637 44.3351 100.662 44.4137 100.67C44.4923 100.678 44.5717 100.67 44.6466 100.645C44.7216 100.62 44.7903 100.579 44.8481 100.525C45.7828 102.261 47.2052 103.686 48.9398 104.623C49.026 104.67 49.123 104.693 49.2209 104.69C49.3189 104.687 49.4143 104.658 49.4974 104.606C49.5805 104.554 49.6484 104.481 49.694 104.395C49.7397 104.308 49.7615 104.211 49.7573 104.113C49.631 101.216 51.1408 98.5645 52.8421 97.7282L47.6738 88.0505C42.6705 89.8605 41.5816 96.9905 44.0185 100.439Z" fill="#2F473F"/>
<path d="M97.8465 221.23C98.285 221.989 98.8087 222.689 99.388 223.29C99.9672 223.892 100.59 224.382 101.222 224.733C101.854 225.084 102.482 225.29 103.07 225.338C103.659 225.386 104.195 225.275 104.651 225.012C105.106 224.75 105.47 224.34 105.723 223.807C105.975 223.273 106.111 222.627 106.123 221.904C106.135 221.181 106.022 220.396 105.791 219.594C105.56 218.792 105.216 217.988 104.777 217.229C104.339 216.469 103.815 215.769 103.236 215.168C102.656 214.567 102.033 214.077 101.401 213.725C100.77 213.374 100.142 213.169 99.5534 213.121C98.9652 213.073 98.4282 213.183 97.9731 213.446C97.518 213.709 97.1538 214.119 96.9011 214.652C96.6485 215.185 96.5124 215.832 96.5006 216.554C96.4889 217.277 96.6017 218.062 96.8326 218.864C97.0635 219.666 97.4081 220.47 97.8465 221.23Z" fill="#B1E400"/>
<path d="M121.269 208.567C120.776 207.892 120.035 207.44 119.209 207.31C118.383 207.18 117.539 207.383 116.863 207.875L106.761 215.233C104.477 212.433 99.9822 211.596 97.697 212.957C93.2553 215.632 97.9662 225.907 103.322 225.907C104.521 225.819 105.666 225.371 106.606 224.621C107.546 223.871 108.238 222.854 108.59 221.704L120.577 212.973C121.252 212.48 121.703 211.739 121.833 210.913C121.963 210.087 121.76 209.244 121.269 208.567ZM104.373 224.532C102.755 225.466 99.9855 223.827 98.3262 220.953C96.6669 218.078 96.6315 214.861 98.2498 213.927C99.8681 212.993 102.637 214.631 104.297 217.506C105.956 220.38 105.991 223.598 104.373 224.532Z" fill="#2F473F"/>
<path d="M115.728 212.977C115.728 214.055 116.156 215.089 116.918 215.851C117.68 216.613 118.714 217.041 119.792 217.041C120.869 217.041 121.903 216.613 122.665 215.851C123.427 215.089 123.856 214.055 123.856 212.977C123.856 211.9 123.427 210.866 122.665 210.104C121.903 209.342 120.869 208.913 119.792 208.913C118.714 208.913 117.68 209.342 116.918 210.104C116.156 210.866 115.728 211.9 115.728 212.977Z" fill="white"/>
<path d="M119.792 217.595C118.878 217.595 117.985 217.324 117.226 216.817C116.467 216.31 115.875 215.588 115.525 214.745C115.176 213.901 115.084 212.972 115.263 212.077C115.441 211.181 115.88 210.358 116.526 209.712C117.172 209.066 117.995 208.627 118.891 208.448C119.786 208.27 120.715 208.362 121.559 208.711C122.403 209.061 123.124 209.653 123.631 210.412C124.139 211.171 124.409 212.064 124.409 212.977C124.408 214.202 123.921 215.375 123.055 216.241C122.19 217.107 121.016 217.594 119.792 217.595ZM119.792 209.467C119.097 209.467 118.419 209.673 117.841 210.059C117.264 210.445 116.814 210.993 116.549 211.634C116.283 212.276 116.213 212.981 116.349 213.662C116.484 214.343 116.819 214.969 117.31 215.46C117.8 215.95 118.426 216.285 119.107 216.42C119.788 216.556 120.494 216.486 121.135 216.22C121.776 215.955 122.325 215.505 122.71 214.928C123.096 214.35 123.302 213.672 123.302 212.977C123.301 212.047 122.931 211.154 122.273 210.496C121.615 209.838 120.722 209.468 119.792 209.467Z" fill="#2F473F"/>
<path d="M117.911 213.09C117.911 215.966 119.577 218.723 122.543 220.757C125.508 222.79 129.531 223.932 133.725 223.932C137.919 223.932 141.941 222.79 144.907 220.757C147.873 218.723 149.539 215.966 149.539 213.09C149.539 210.215 147.873 207.457 144.907 205.424C141.941 203.391 137.919 202.249 133.725 202.249C129.531 202.249 125.508 203.391 122.543 205.424C119.577 207.457 117.911 210.215 117.911 213.09Z" fill="white"/>
<path d="M124.259 208.724C130.257 212.429 136.665 203.147 129.307 200.002C128.199 199.542 126.993 199.365 125.799 199.486C124.605 199.607 123.46 200.023 122.467 200.697C119.229 202.844 121.666 207.119 124.259 208.724Z" fill="white"/>
<path d="M99.2189 197.503C98.2545 199.105 97.5835 200.866 97.2373 202.704C97.1987 202.845 97.1982 202.995 97.236 203.136C97.2737 203.278 97.3483 203.407 97.4522 203.511C97.7679 203.726 98.171 203.511 98.4491 203.221C99.4578 202.379 100.505 201.571 101.592 200.797L99.2189 197.503Z" fill="white"/>
<path d="M104.961 203.095C104.964 204.067 104.858 205.036 104.645 205.985C104.592 206.119 104.573 206.263 104.588 206.406C104.604 206.549 104.654 206.686 104.734 206.806C105.057 207.084 105.485 206.89 105.769 206.584C106.957 205.24 107.795 203.623 108.205 201.876L104.961 203.095Z" fill="white"/>
<path d="M146.397 192.922L207.097 180.566C207.097 180.566 218.367 95.4972 219.453 58.0659C198.375 63.5189 168.969 68.6053 157.609 70.7885C153.3 122.055 146.397 192.922 146.397 192.922Z" fill="white"/>
<path d="M102.412 171.479L139.851 162.396C139.851 162.396 150.042 71.8787 151.122 34.4441C139.491 44.6169 116.957 54.4363 107.138 56.254C107.132 127.495 102.412 171.479 102.412 171.479Z" fill="white"/>
<path d="M146.397 192.922L139.846 162.442C139.846 162.442 150.036 71.924 151.116 34.4905C152.567 46.1265 155.117 57.7514 157.652 70.8385C153.3 122.055 146.397 192.922 146.397 192.922Z" fill="white"/>
<path d="M102.412 171.479L57.3359 142.034V28.9875C57.3359 28.9875 76.236 38.0704 107.132 56.2494C107.132 127.494 102.412 171.479 102.412 171.479Z" fill="white"/>
<path d="M220 58.0828C220.002 57.9968 219.985 57.9113 219.949 57.8332C219.913 57.7551 219.859 57.6864 219.792 57.6327C219.725 57.5789 219.646 57.5415 219.562 57.5235C219.478 57.5055 219.391 57.5074 219.307 57.5289C199.148 62.7449 171.78 67.519 158.081 70.132C155.639 57.5766 153.097 45.8963 151.67 34.453C151.673 34.3454 151.644 34.2394 151.588 34.1479C151.531 34.0564 151.449 33.9833 151.352 33.9376C151.254 33.8919 151.146 33.8756 151.039 33.8906C150.933 33.9056 150.833 33.9513 150.752 34.0221C139.388 43.9545 117.007 53.7795 107.233 55.6659C76.7731 37.7571 57.4045 28.5779 57.2129 28.4871C57.0401 28.4062 56.7809 28.8006 56.782 28.9911V141.255C56.7637 141.49 56.8096 141.725 56.915 141.936C57.0204 142.147 57.1812 142.325 57.3802 142.451C62.3314 145.792 96.5328 168.298 101.676 171.617C102.083 171.881 102.248 172.082 103.359 171.82C105.66 171.275 113.337 169.396 139.414 163.069L145.742 192.514C145.75 193.068 145.936 193.498 146.811 193.401C146.985 193.381 142.89 194.214 207.202 181.115C207.314 181.092 207.417 181.035 207.495 180.951C207.574 180.866 207.624 180.76 207.639 180.646C207.752 179.787 218.926 95.1153 220 58.0828ZM57.8919 29.8739C61.8208 31.7746 79.6697 40.7523 106.578 56.5686C106.578 90.2804 105.217 137.524 101.954 170.517L57.8919 141.735V29.8739ZM107.686 56.706C117.334 54.7598 138.513 45.6792 150.524 35.6736C149.305 72.1158 140.054 155.537 139.336 161.947L103.04 170.759C106.281 139.445 107.676 90.4199 107.686 56.706ZM151.431 40.719C152.907 50.2804 154.984 59.9924 157.06 70.6847C156.804 71.964 155.139 96.7004 146.189 189.316L140.406 162.408C140.758 159.267 149.597 80.1054 151.431 40.719ZM206.593 180.103L147.02 192.23C147.769 184.518 154.109 119.044 158.175 71.2429C170.711 68.8482 198.303 64.052 218.875 58.7873C217.716 94.824 207.418 173.826 206.593 180.103Z" fill="#2F473F"/>
<path d="M110.464 103.465C109.921 103.629 109.771 105.042 109.442 105.459C108.811 105.206 108.823 104.31 108.998 103.653C109.156 103.041 109.35 102.438 109.58 101.849C109.87 101.281 110.097 100.436 109.58 100.019C109.387 99.8953 109.158 99.839 108.93 99.8591C108.701 99.8791 108.486 99.9744 108.317 100.13C107.995 100.435 107.749 100.811 107.598 101.229L106.803 102.932C106.794 101.995 106.887 101.06 107.081 100.143C107.183 99.8921 107.183 99.6112 107.081 99.3601C106.61 98.7808 105.863 99.3025 105.605 100.004C105.164 100.955 104.919 101.985 104.885 103.033L104.809 100.623C104.776 100.061 104.467 99.9582 104.19 100.069C103.924 100.268 103.704 100.522 103.545 100.814C103.386 101.105 103.292 101.428 103.27 101.759C103.06 102.936 103.06 104.141 103.27 105.318L107.182 110.783C108.17 110.326 109.047 109.66 109.754 108.832C110.462 108.005 110.982 107.034 111.28 105.987C111.461 105.408 111.575 103.149 110.464 103.465Z" fill="white"/>
<path d="M36.5173 118.265C35.7309 113.218 38.5111 108.49 44.014 108.471C45.4783 108.471 47.2705 108.768 48.8102 108.862C50.1421 108.864 51.4703 109.003 52.7734 109.279C52.6837 109.975 52.7346 110.682 52.9231 111.359C53.1117 112.035 53.434 112.667 53.8711 113.216C55.7021 112.093 57.9861 110.946 59.8525 111.955C61.1152 112.636 62.0745 114.213 63.4369 113.86C64.7993 113.507 64.9876 111.337 66.7189 111.463C68.4502 111.589 70.5071 112.717 72.1332 113.153C75.7033 114.164 79.4523 114.376 83.1134 113.772C89.0313 112.684 94.5965 110.176 99.3308 106.462C100.221 105.756 101.187 105.151 102.211 104.658C102.726 104.418 103.283 104.283 103.851 104.259C104.418 104.235 104.985 104.324 105.518 104.519C106.166 104.879 106.719 105.386 107.134 106C107.548 106.614 107.812 107.317 107.903 108.053C108.264 110.52 107.698 113.034 106.312 115.107C104.9 117.163 103.057 118.885 100.911 120.156C96.2305 122.958 90.9646 124.638 85.5259 125.066C80.1296 125.467 74.7094 125.42 69.3208 124.927C69.17 127.921 68.0794 130.791 66.2038 133.13C65.7577 133.572 65.4393 134.126 65.2823 134.734C65.2302 135.339 64.9356 133.765 69.3707 153.955C69.6487 155.217 65.4196 157.321 64.4969 157.628C56.2146 160.424 47.2621 160.54 38.9099 157.961C37.4583 157.474 36.0916 156.764 34.8592 155.856C33.6906 155.023 32.357 154.692 31.4387 153.446C31.2999 153.261 31.2127 153.044 31.1862 152.814C31.1982 152.514 31.2992 152.224 31.4764 151.981C34.5969 146.478 37.1712 140.683 39.1624 134.679C39.9123 132.429 38.5632 129.881 38.1024 127.597C37.4987 124.579 37.0069 121.412 36.5173 118.265Z" fill="#E2FD86"/>
<path d="M110.653 198.109L108.458 201.894C108.287 202.282 108.013 202.615 107.666 202.858C107.318 203.1 106.911 203.243 106.488 203.27C104.989 203.414 103.483 203.061 102.204 202.265C100.924 201.47 99.9419 200.275 99.4083 198.866C99.1944 198.297 99.1546 197.677 99.2938 197.085C99.4331 196.494 99.7451 195.957 100.19 195.543C101.063 194.296 102.08 193.157 103.22 192.148C107.938 187.982 114.312 192.661 110.653 198.109Z" fill="#B1E400"/>
<path d="M102.853 191.737C101.699 192.757 100.669 193.909 99.785 195.171C99.2235 195.777 98.8402 196.525 98.6773 197.335C97.7212 198.948 97.054 200.715 96.7056 202.558C96.6412 202.81 96.6478 203.076 96.7248 203.325C96.8019 203.574 96.9463 203.797 97.1421 203.969C97.4114 204.124 97.7278 204.177 98.033 204.118C98.3382 204.059 98.6118 203.891 98.8036 203.647C99.4748 203.093 100.172 202.539 100.882 202.004C101.872 202.892 103.086 203.492 104.393 203.74C104.361 204.426 104.273 205.108 104.131 205.78C103.578 207.169 105.074 208.164 106.184 206.945C107.244 205.744 108.041 204.334 108.522 202.806C109.465 201.392 110.33 199.927 111.113 198.418C111.634 197.645 112.006 196.781 112.211 195.871C113.137 190.335 106.867 188.198 102.853 191.737ZM97.7856 203.035C97.9614 201.704 98.352 200.411 98.942 199.205C99.2237 199.927 99.6181 200.6 100.111 201.199C99.6509 201.545 98.1223 202.891 97.7856 203.032V203.035ZM105.145 206.368C105.316 205.542 105.432 204.706 105.494 203.865C105.986 203.884 106.479 203.849 106.964 203.762C106.528 204.737 105.91 205.62 105.145 206.365V206.368ZM110.175 197.839L107.96 201.652C107.835 201.96 107.624 202.226 107.351 202.417C107.079 202.608 106.757 202.716 106.424 202.728C105.042 202.879 103.649 202.561 102.47 201.825C101.29 201.089 100.392 199.979 99.919 198.671C99.7442 198.186 99.7195 197.66 99.8479 197.161C99.9763 196.662 100.252 196.213 100.639 195.873C101.488 194.663 102.476 193.556 103.582 192.576C107.791 188.86 113.519 192.84 110.175 197.831V197.839Z" fill="#2F473F"/>
<path d="M112.472 185.226C108.647 186.645 105.848 190.058 105.615 191.382C105.034 194.673 109.634 196.895 111.47 193.579C112.293 192.048 113.676 190.895 115.329 190.359C115.602 190.313 115.852 190.176 116.036 189.969C116.221 189.762 116.33 189.499 116.345 189.222C116.645 186.491 114.971 184.298 112.472 185.226Z" fill="#2F473F"/>
<path d="M112.711 188.139C112.711 189.006 112.882 189.865 113.214 190.665C113.546 191.466 114.032 192.194 114.645 192.807C115.258 193.42 115.985 193.906 116.786 194.238C117.587 194.569 118.445 194.74 119.312 194.74C120.179 194.74 121.037 194.569 121.838 194.238C122.639 193.906 123.366 193.42 123.979 192.807C124.592 192.194 125.078 191.466 125.41 190.665C125.742 189.865 125.913 189.006 125.913 188.139C125.913 187.273 125.742 186.414 125.41 185.613C125.078 184.813 124.592 184.085 123.979 183.472C123.366 182.859 122.639 182.373 121.838 182.041C121.037 181.71 120.179 181.539 119.312 181.539C118.445 181.539 117.587 181.71 116.786 182.041C115.985 182.373 115.258 182.859 114.645 183.472C114.032 184.085 113.546 184.813 113.214 185.613C112.882 186.414 112.711 187.273 112.711 188.139Z" fill="white"/>
<path d="M119.312 195.293C117.897 195.294 116.513 194.874 115.336 194.088C114.159 193.302 113.242 192.184 112.7 190.877C112.158 189.569 112.017 188.13 112.293 186.742C112.569 185.354 113.25 184.079 114.251 183.078C115.252 182.077 116.527 181.396 117.915 181.12C119.303 180.844 120.742 180.986 122.05 181.527C123.357 182.069 124.475 182.986 125.261 184.163C126.047 185.34 126.467 186.724 126.466 188.139C126.464 190.036 125.709 191.854 124.368 193.195C123.027 194.537 121.209 195.291 119.312 195.293ZM119.312 182.091C118.116 182.091 116.946 182.445 115.952 183.11C114.957 183.774 114.182 184.719 113.724 185.824C113.266 186.929 113.146 188.145 113.379 189.318C113.612 190.491 114.188 191.569 115.034 192.415C115.88 193.261 116.957 193.837 118.131 194.071C119.304 194.304 120.52 194.184 121.625 193.727C122.73 193.269 123.675 192.494 124.339 191.499C125.004 190.505 125.359 189.335 125.359 188.139C125.357 186.536 124.719 184.999 123.586 183.865C122.452 182.731 120.915 182.093 119.312 182.091Z" fill="#2F473F"/>
<path d="M117.923 180.68V205.152C121.8 204.913 122.4 201.386 126.645 202.009C132.698 202.895 132.211 208.323 138.269 211.092C144.326 213.861 149.899 206.851 149.899 206.851V183.103L117.923 180.68Z" fill="white"/>
<path d="M149.947 182.551L117.965 180.127C117.889 180.122 117.812 180.132 117.74 180.157C117.668 180.182 117.602 180.222 117.546 180.274C117.49 180.326 117.445 180.389 117.415 180.459C117.384 180.529 117.369 180.605 117.369 180.681V205.153C117.369 205.229 117.384 205.303 117.414 205.373C117.444 205.443 117.488 205.505 117.543 205.557C117.598 205.609 117.664 205.649 117.735 205.675C117.806 205.7 117.882 205.711 117.957 205.707C118.926 205.649 119.869 205.369 120.713 204.889C120.818 205.22 120.944 205.544 121.09 205.858C119.973 206.714 119.059 207.807 118.413 209.058C117.768 210.308 117.407 211.686 117.357 213.093C117.357 219.376 124.7 224.488 133.725 224.488C142.75 224.488 150.093 219.376 150.093 213.093C150.083 211.564 149.658 210.067 148.863 208.762C149.39 208.276 149.883 207.755 150.339 207.202C150.525 206.968 150.458 208.469 150.458 183.106C150.459 182.966 150.407 182.831 150.312 182.728C150.217 182.625 150.086 182.562 149.947 182.551ZM121.685 204.261C123.346 203.096 124.284 202.205 126.567 202.553C129.368 202.95 130.665 204.402 131.995 206.143C130.709 207.75 127.896 210.398 124.561 208.258C123.139 207.331 122.114 205.908 121.685 204.266V204.261ZM121.626 206.823C122.383 208.036 123.473 209.005 124.766 209.614C123.827 211.283 123.258 213.135 123.098 215.043C122.938 216.951 123.191 218.872 123.84 220.673C123.88 220.784 123.923 220.888 123.971 220.991C117.742 217.498 116.57 211.258 121.626 206.828V206.823ZM148.985 213.086C148.985 220.957 136.247 225.968 126.085 221.989C125.55 221.533 125.137 220.952 124.881 220.297C124.276 218.612 124.047 216.815 124.212 215.033C124.377 213.25 124.93 211.525 125.834 209.98C128.512 210.621 130.924 209.178 132.69 207.051C137.552 213.397 142.881 213.711 148.023 209.488C148.647 210.586 148.979 211.827 148.985 213.09V213.086ZM149.351 206.65C148.529 207.607 143.632 212.941 138.496 210.588C132.636 207.903 133.046 202.353 126.723 201.458C122.458 200.809 121.603 203.993 118.473 204.527V192.563C120.193 194.532 122.371 196.046 124.816 196.972C124.839 197.321 124.97 197.655 125.19 197.928C125.411 198.2 125.71 198.398 126.047 198.495C126.384 198.591 126.742 198.581 127.073 198.466C127.404 198.351 127.692 198.137 127.896 197.852C129.387 198.142 130.902 198.285 132.42 198.278C138.357 198.179 144.176 196.599 149.347 193.68L149.351 206.65ZM149.351 192.378C149.24 192.404 139.424 198.949 128.219 196.782C128.202 196.427 128.074 196.085 127.852 195.806C127.631 195.527 127.328 195.324 126.986 195.226C126.643 195.129 126.279 195.141 125.944 195.261C125.609 195.381 125.319 195.603 125.117 195.896C122.462 194.868 120.158 193.1 118.478 190.801V184.796C120.929 187.965 124.477 190.104 128.424 190.792C132.074 191.524 135.84 191.445 139.457 190.561C143.073 189.676 146.451 188.008 149.352 185.675L149.351 192.378ZM149.351 184.22C149.333 184.232 149.317 184.245 149.301 184.259C146.502 186.681 143.187 188.43 139.608 189.373C136.029 190.315 132.282 190.427 128.654 189.699C123.83 188.669 120.125 186.088 118.477 182.61V181.274L149.351 183.613V184.22Z" fill="#2F473F"/>
<path d="M53.9675 105.065C53.6086 104.091 52.5353 102.96 52.1809 102.177C51.5005 100.925 51.3034 99.4663 51.627 98.0785C50.8838 100.277 47.4611 97.2666 47.9717 93.6988C48.5699 89.483 50.7686 87.4748 54.6233 85.9451C61.1585 83.361 70.5404 88.5858 69.6797 97.1148C69.2544 101.331 67.316 105.69 63.2431 107.489C60.8805 108.533 59.3054 107.742 57.0335 107.489C57.2484 108.752 57.4877 110.014 57.7147 111.276C56.5871 111.915 55.4514 112.521 54.3076 113.093C54.2733 113.11 54.2356 113.118 54.1974 113.118C54.1593 113.118 54.1217 113.109 54.0876 113.092C54.0535 113.075 54.0237 113.05 54.0006 113.02C53.9774 112.989 53.9616 112.954 53.9542 112.917C53.1831 110.999 53.116 108.871 53.7648 106.909C53.9208 106.631 54.0192 106.324 54.054 106.007C54.0888 105.69 54.0594 105.37 53.9675 105.065Z" fill="white"/>
<path d="M52.4056 99.2979C52.4056 100.145 52.7423 100.958 53.3416 101.558C53.9409 102.157 54.7537 102.494 55.6012 102.494C56.4488 102.494 57.2616 102.157 57.8609 101.558C58.4602 100.958 58.7969 100.145 58.7969 99.2979C58.7969 98.4504 58.4602 97.6376 57.8609 97.0383C57.2616 96.439 56.4488 96.1023 55.6012 96.1023C54.7537 96.1023 53.9409 96.439 53.3416 97.0383C52.7423 97.6376 52.4056 98.4504 52.4056 99.2979Z" fill="#FF5470"/>
<path d="M65.9857 102.131C65.9857 102.869 66.2786 103.576 66.8 104.097C67.3214 104.619 68.0285 104.912 68.7659 104.912C69.5033 104.912 70.2104 104.619 70.7318 104.097C71.2532 103.576 71.5461 102.869 71.5461 102.131C71.5461 101.394 71.2532 100.687 70.7318 100.165C70.2104 99.644 69.5033 99.3511 68.7659 99.3511C68.0285 99.3511 67.3214 99.644 66.8 100.165C66.2786 100.687 65.9857 101.394 65.9857 102.131Z" fill="#FF5470"/>
<path d="M66.205 98.0117C66.4918 97.3161 67.0712 96.8188 67.6294 96.9528C67.9727 97.0839 68.3516 97.0874 68.6972 96.9628C69.0051 96.852 69.5158 97.4612 68.9863 97.7791C68.857 97.872 68.7096 97.9364 68.5536 97.9681C68.3976 97.9998 68.2366 97.9981 68.0813 97.963C68.1177 98.2815 68.0679 98.604 67.9373 98.8967C67.1974 100.21 65.6024 99.4749 66.205 98.0117Z" fill="#2F473F"/>
<path d="M58.1501 95.3569C58.437 94.6613 59.0163 94.1639 59.5745 94.2991C59.9179 94.4299 60.2968 94.433 60.6423 94.3079C60.9503 94.1972 61.4609 94.8075 60.9314 95.1254C60.802 95.218 60.6545 95.2822 60.4986 95.3139C60.3426 95.3456 60.1818 95.344 60.0265 95.3093C60.0628 95.6274 60.0131 95.9495 59.8825 96.2419C59.1426 97.5523 57.5475 96.8212 58.1501 95.3569Z" fill="#2F473F"/>
<path d="M53.9099 106.532C54.487 107.982 55.5683 109.175 56.9549 109.891C56.7062 109.02 56.5696 108.12 56.5484 107.214C55.1981 106.306 54.5069 105.523 53.9852 105.22C53.9178 105.654 53.8926 106.093 53.9099 106.532Z" fill="white"/>
<path d="M65.2181 102.204C65.0962 102.204 64.9778 102.164 64.881 102.09C64.7843 102.016 64.7147 101.912 64.6831 101.795C64.2868 100.324 63.987 98.8285 63.7858 97.3185C63.739 97.0851 63.7529 96.8435 63.8262 96.617C63.8995 96.3904 64.0298 96.1865 64.2045 96.0248C64.5443 95.6465 64.918 95.3002 65.3211 94.9902C65.3783 94.943 65.4445 94.9078 65.5156 94.8867C65.5868 94.8656 65.6614 94.8589 65.7351 94.8672C65.8089 94.8755 65.8802 94.8985 65.9449 94.9349C66.0095 94.9713 66.0662 95.0203 66.1116 95.079C66.157 95.1378 66.1901 95.205 66.2089 95.2768C66.2278 95.3485 66.2321 95.4234 66.2214 95.4968C66.2108 95.5702 66.1856 95.6408 66.1472 95.7043C66.1088 95.7678 66.058 95.8229 65.9979 95.8664C65.5664 96.1889 65.1824 96.5703 64.857 96.9995C64.8647 96.9851 64.8658 97.0726 64.8802 97.1513C65.0758 98.6205 65.367 100.075 65.752 101.507C65.774 101.589 65.777 101.675 65.7605 101.758C65.744 101.841 65.7086 101.92 65.657 101.987C65.6054 102.055 65.539 102.109 65.4629 102.147C65.3868 102.185 65.303 102.204 65.2181 102.204Z" fill="#2F473F"/>
<path d="M60.9036 93.5725C60.415 93.2479 59.8452 93.0667 59.2588 93.0494C58.6725 93.0322 58.093 93.1796 57.5862 93.475C57.4596 93.5412 57.3123 93.5559 57.1752 93.5161C57.038 93.4763 56.9215 93.3851 56.85 93.2614C56.7785 93.1377 56.7576 92.9912 56.7915 92.8525C56.8255 92.7137 56.9118 92.5935 57.0323 92.5168C57.7171 92.1176 58.5001 91.9182 59.2924 91.9413C60.0847 91.9644 60.8547 92.209 61.5151 92.6476C61.6377 92.7286 61.7231 92.8551 61.7525 92.9992C61.7819 93.1432 61.7529 93.2931 61.6718 93.4157C61.5907 93.5384 61.4642 93.6238 61.3202 93.6532C61.1761 93.6826 61.0263 93.6535 60.9036 93.5725Z" fill="#2F473F"/>
<path d="M50.6102 95.0044C50.536 94.5115 50.238 93.6187 49.6421 93.7572C49.5705 93.7757 49.4959 93.7797 49.4227 93.769C49.3496 93.7582 49.2793 93.7329 49.216 93.6946C49.1528 93.6562 49.0979 93.6056 49.0545 93.5457C49.0112 93.4858 48.9803 93.4178 48.9636 93.3457C48.947 93.2736 48.9449 93.199 48.9576 93.1261C48.9703 93.0532 48.9974 92.9836 49.0374 92.9214C49.0774 92.8592 49.1295 92.8057 49.1906 92.7639C49.2516 92.7222 49.3204 92.693 49.3929 92.6783C49.7142 92.6031 50.0507 92.6263 50.3586 92.7448C50.6666 92.8633 50.9318 93.0717 51.1197 93.3429C51.4233 93.7923 51.6234 94.3034 51.7057 94.8394C51.7165 94.9113 51.7131 94.9846 51.6956 95.0553C51.6781 95.1259 51.6468 95.1923 51.6036 95.2508C51.5604 95.3094 51.5061 95.3588 51.4438 95.3964C51.3815 95.4339 51.3124 95.4588 51.2405 95.4696C51.1685 95.4805 51.0952 95.477 51.0246 95.4595C50.954 95.442 50.8875 95.4107 50.829 95.3675C50.7705 95.3243 50.721 95.27 50.6835 95.2077C50.6459 95.1454 50.621 95.0763 50.6102 95.0044Z" fill="#2F473F"/>
<path d="M63.357 104.503C62.0118 104.87 60.6144 105.008 59.2232 104.913C59.1505 104.908 59.0795 104.889 59.0142 104.856C58.9489 104.824 58.8906 104.779 58.8427 104.724C58.7947 104.669 58.7581 104.605 58.7348 104.536C58.7116 104.467 58.7021 104.394 58.7071 104.321C58.712 104.249 58.7312 104.177 58.7636 104.112C58.796 104.047 58.841 103.989 58.8959 103.941C58.9508 103.893 59.0147 103.856 59.0838 103.833C59.1528 103.81 59.2258 103.8 59.2986 103.805C60.566 103.892 61.839 103.766 63.0646 103.432C63.2067 103.393 63.3583 103.412 63.4861 103.485C63.614 103.558 63.7076 103.679 63.7464 103.821C63.7852 103.963 63.7659 104.115 63.6929 104.243C63.6199 104.371 63.4991 104.464 63.357 104.503Z" fill="#2F473F"/>
<path d="M75.9424 87.623C75.2818 85.012 73.8898 82.6437 71.9298 80.7964C69.9699 78.949 67.5235 77.6994 64.8779 77.1943C62.8194 76.5699 60.6506 76.3958 58.5187 76.6838C56.3869 76.9718 54.3421 77.7153 52.523 78.8636C49.5265 80.8859 47.4382 83.9984 46.7031 87.5379C45.9679 91.0774 46.6441 94.7641 48.5875 97.8124C48.8774 98.2519 49.2723 98.6123 49.7364 98.8608C50.2006 99.1093 50.7194 99.2382 51.2459 99.2357C51.3531 101.317 52.0627 103.323 53.2884 105.009C53.0946 106.471 52.7861 107.915 52.3658 109.329C52.1575 110.033 53.1799 110.491 53.3859 109.788C53.7454 108.57 54.0328 107.331 54.2466 106.078C58.2674 109.918 64.3119 109.423 67.8808 104.003C67.5621 105.452 67.0498 106.852 66.3578 108.165C66.2998 108.274 66.2803 108.4 66.3022 108.522C66.3242 108.644 66.3864 108.755 66.4789 108.837C66.5713 108.92 66.6888 108.969 66.8124 108.976C66.936 108.984 67.0587 108.95 67.1608 108.88C68.7903 107.763 70.2781 106.453 71.5915 104.977C75.6976 99.6943 77.0323 92.4336 75.9424 87.623ZM68.2397 101.358C66.8739 104.826 64.2277 107.405 60.5226 107.706C55.095 107.857 51.5904 102.634 52.1675 97.4956C52.1675 97.3781 52.1208 97.2654 52.0377 97.1823C51.9546 97.0992 51.8419 97.0525 51.7244 97.0525C51.6069 97.0525 51.4942 97.0992 51.4111 97.1823C51.328 97.2654 51.2814 97.3781 51.2814 97.4956C51.2599 97.7061 51.2448 97.9165 51.2359 98.127C50.8965 98.1253 50.5626 98.0412 50.2629 97.8818C49.9632 97.7224 49.7068 97.4926 49.5157 97.212C49.0757 96.511 48.8162 95.7118 48.7603 94.8859C48.5853 93.9057 48.6916 92.1633 49.6874 92.0625C51.4597 91.8775 51.4719 93.8558 51.8108 95.6181C51.8337 95.7366 51.8946 95.8444 51.9844 95.925C52.0741 96.0057 52.1878 96.0548 52.308 96.065C52.4282 96.0751 52.5485 96.0457 52.6505 95.9813C52.7525 95.9168 52.8306 95.8208 52.8731 95.7078C53.7012 93.5051 54.7904 91.4096 56.1174 89.4661C56.7465 90.759 57.6852 91.8765 58.85 92.7194C59.527 93.4693 60.4693 93.9262 61.4774 93.9932C61.5947 94.0023 61.7119 93.9737 61.8119 93.9117C61.9119 93.8497 61.9896 93.7575 62.0337 93.6484C62.0777 93.5393 62.0859 93.419 62.057 93.3049C62.0281 93.1908 61.9636 93.0889 61.8728 93.014C61.5926 92.0054 61.5151 90.9513 61.6447 89.9125C63.2452 92.0381 64.2155 92.3361 65.3797 93.5313C66.1971 94.2149 66.889 95.0358 67.4244 95.9571C68.1419 97.661 68.4221 99.5172 68.2397 101.357V101.358Z" fill="#2F473F"/>
<path d="M65.5459 107.503C65.6662 107.363 65.7563 107.2 65.8106 107.024C65.8283 106.804 65.759 106.585 65.6176 106.415C65.4762 106.246 65.2739 106.138 65.0541 106.116C64.6152 106.082 64.1762 106.179 63.7914 106.392C62.2649 107.109 60.8898 108.111 59.7407 109.345C59.4657 108.65 59.0335 108.028 58.4779 107.528C58.2867 107.301 58.0291 107.14 57.7415 107.068C57.4539 106.995 57.1508 107.015 56.8751 107.125C55.7974 107.783 56.9538 110.253 57.6582 111.302C59.4916 111.975 61.1761 113 62.6173 114.319C63.2615 114.124 63.8591 113.8 64.3734 113.366C64.8877 112.932 65.3078 112.397 65.6079 111.795C66.051 111.09 65.3089 110.075 64.8891 109.674C64.731 109.526 64.5392 109.418 64.3302 109.36C64.1213 109.303 63.9014 109.296 63.6895 109.342C64.3687 108.793 64.9906 108.177 65.5459 107.503Z" fill="white"/>
<path d="M37.4389 204.369L42.9772 199.043C42.9772 199.043 33.0991 198.718 35.5304 196.141C38.5211 192.964 46.6071 194.499 46.6071 194.499L52.7911 188.593C52.7911 188.593 31.8397 185.917 23.5233 194.285C15.207 202.654 37.4389 204.369 37.4389 204.369Z" fill="#B1E400"/>
<path d="M52.8687 188.048C52.0026 187.938 31.5506 185.436 23.1379 193.9C21.3657 195.688 20.7487 197.373 21.3191 198.908C23.1257 203.771 36.8143 204.883 37.3958 204.927C37.4738 204.933 37.5522 204.923 37.6259 204.896C37.6996 204.87 37.7669 204.828 37.8233 204.774L43.3617 199.448C43.4401 199.373 43.4946 199.276 43.5182 199.17C43.5419 199.063 43.5337 198.953 43.4947 198.851C43.4557 198.749 43.3876 198.661 43.2989 198.598C43.2103 198.535 43.1049 198.499 42.9961 198.496C41.1419 198.434 34.6543 197.879 35.9348 196.525C38.6818 193.603 46.431 195.034 46.5085 195.049C46.5951 195.065 46.6844 195.061 46.769 195.036C46.8535 195.011 46.931 194.967 46.9948 194.906L53.1789 188.999C53.2547 188.927 53.3085 188.835 53.3341 188.733C53.3597 188.632 53.356 188.525 53.3236 188.426C53.2911 188.326 53.2312 188.238 53.1507 188.171C53.0702 188.104 52.9725 188.062 52.8687 188.048ZM46.4343 193.911C44.9224 193.661 38.0006 192.714 35.1306 195.765C32.7303 198.304 38.0814 199.293 41.6725 199.537L40.0974 201.051L35.2358 200.443C35.1634 200.434 35.0898 200.438 35.0193 200.457C34.9488 200.476 34.8827 200.509 34.8249 200.554C34.0717 201.145 32.0624 201.515 32.8843 200.414C32.9437 200.336 32.9813 200.244 32.9934 200.147C33.0055 200.05 32.9916 199.951 32.9531 199.861C32.9145 199.771 32.8528 199.693 32.7742 199.634C32.6955 199.576 32.6028 199.539 32.5054 199.528C31.565 199.417 28.7826 198.816 28.3473 197.562C28.0814 196.793 28.807 195.85 29.4616 195.195C33.8922 190.8 45.2646 191.207 48.9897 191.465L46.4343 193.911ZM50.063 190.446C47.9585 190.239 34.0362 189.097 28.6851 194.416C25.7011 197.401 27.4323 199.695 31.6038 200.508C31.5219 200.701 31.4917 200.911 31.5161 201.118C31.5405 201.326 31.6188 201.523 31.743 201.691C31.8673 201.859 32.0332 201.992 32.2245 202.076C32.4157 202.16 32.6256 202.192 32.8333 202.17C33.7082 202.275 34.5917 202.061 35.3211 201.566L39.0761 202.035L37.2407 203.799C33.2996 203.467 23.6308 201.934 22.3626 198.519C21.9572 197.425 22.4833 196.132 23.9288 194.678C29.8847 188.686 43.1501 188.279 51.5528 189.029L50.063 190.446Z" fill="#2F473F"/>
<path d="M61.9859 216.856V216.006C61.9859 215.859 61.9275 215.718 61.8237 215.614C61.7198 215.51 61.5789 215.452 61.4321 215.452C61.2852 215.452 61.1443 215.51 61.0404 215.614C60.9366 215.718 60.8782 215.859 60.8782 216.006V216.892C59.1492 217.35 59.5324 219.281 61.5196 219.281C63.6153 219.284 63.8756 217.202 61.9859 216.856Z" fill="#2F473F"/>
<path d="M53.5588 224.028L51.9216 223.332C52.1166 222.023 51.0665 221.377 50.1649 222.057C49.8645 222.303 49.6279 222.618 49.475 222.975C49.3221 223.332 49.2575 223.72 49.2865 224.107C49.4272 225.291 50.7265 225.557 51.5207 224.365L53.1245 225.048C53.2598 225.105 53.4124 225.107 53.5488 225.052C53.6852 224.997 53.7942 224.89 53.8517 224.755C53.9093 224.619 53.9108 224.467 53.8558 224.33C53.8009 224.194 53.694 224.085 53.5588 224.028Z" fill="#2F473F"/>
<path d="M68.0736 221.635C68.154 219.908 68.3468 218.188 68.6507 216.485C68.8506 215.278 69.2201 214.105 69.7484 213.002C70.286 211.887 71.2166 211.011 72.3614 210.541C76.8795 209.001 79.4648 212.323 79.6941 216.27C79.8222 218.248 79.7799 220.233 79.5678 222.203C79.5678 222.203 79.3286 225.27 74.1536 225.27C68.1456 225.266 68.0736 221.635 68.0736 221.635Z" fill="white"/>
<path d="M74.1536 225.82C67.6782 225.82 67.5176 221.684 67.5165 221.643C67.5829 219.876 67.7799 218.117 68.1058 216.379C68.302 215.119 68.6886 213.896 69.2522 212.752C69.8447 211.513 70.8795 210.539 72.1532 210.023C73.0096 209.669 73.9387 209.526 74.8621 209.606C75.7855 209.686 76.6761 209.987 77.4589 210.483C78.3324 211.166 79.0379 212.041 79.5212 213.039C80.0044 214.038 80.2527 215.134 80.2469 216.243C80.3895 218.249 80.3465 220.264 80.1184 222.262C80.1084 222.392 79.7761 225.82 74.1536 225.82ZM68.6241 221.628C68.6408 221.886 68.9409 224.712 74.1536 224.712C78.7626 224.712 79.014 222.181 79.0162 222.155C79.2382 220.214 79.2801 218.255 79.1414 216.306C78.9642 212.346 76.4299 209.734 72.5397 211.061C71.5328 211.477 70.7164 212.252 70.2491 213.237C69.731 214.286 69.3765 215.409 69.1979 216.566C68.8842 218.239 68.6924 219.932 68.6241 221.633V221.628Z" fill="#2F473F"/>
<path d="M74.9223 216.635C73.1024 216.635 70.4916 215.622 70.2856 213.796C70.2691 213.65 70.3114 213.503 70.403 213.389C70.4946 213.274 70.6281 213.2 70.7741 213.183C70.9201 213.167 71.0666 213.209 71.1815 213.301C71.2964 213.392 71.3702 213.526 71.3866 213.672C71.4708 214.423 72.4389 214.89 72.8509 215.064C74.57 215.861 76.7178 215.748 77.5297 214.027C77.5998 213.908 77.7121 213.819 77.8445 213.778C77.9768 213.738 78.1197 213.748 78.2448 213.807C78.3699 213.867 78.4682 213.971 78.5204 214.099C78.5726 214.227 78.5748 214.371 78.5266 214.5C78.2067 215.175 77.6927 215.738 77.0506 216.118C76.4084 216.499 75.6673 216.678 74.9223 216.635Z" fill="#2F473F"/>
<path d="M87.3802 224.197C88.3284 224.1 89.2797 224.351 90.0563 224.904C90.4427 225.186 90.7029 225.609 90.7808 226.081C90.8587 226.553 90.7481 227.037 90.4728 227.428C90.1711 227.686 89.8188 227.879 89.4385 227.993C89.0582 228.108 88.6582 228.142 88.2641 228.093C85.3731 228.093 82.5341 228.093 79.6431 228.282C81.0698 225.547 84.5279 224.286 87.3802 224.197Z" fill="white"/>
<path d="M87.3447 223.644C84.5678 223.735 80.763 224.937 79.148 228.031C79.1026 228.118 79.0812 228.215 79.086 228.313C79.0908 228.412 79.1216 228.507 79.1752 228.589C79.2289 228.671 79.3035 228.738 79.3914 228.782C79.4792 228.826 79.5772 228.846 79.6753 228.839C82.5474 228.651 85.3243 228.651 88.1921 228.646C92.7834 229.215 92.2982 223.182 87.3447 223.644ZM88.2641 227.543C85.6821 227.543 83.2253 227.543 80.7065 227.669C81.5644 226.753 82.6004 226.021 83.751 225.52C84.9016 225.018 86.1426 224.756 87.3979 224.751H87.4344C90.7209 224.415 91.3401 227.904 88.2641 227.543Z" fill="#2F473F"/>
<path d="M83.0515 226.91C82.9046 226.91 82.7637 226.851 82.6599 226.747C82.556 226.644 82.4977 226.503 82.4977 226.356C82.4977 224.179 82.4091 225.433 82.4091 223.629C82.4091 223.482 82.4674 223.341 82.5713 223.237C82.6751 223.133 82.816 223.075 82.9629 223.075C83.1098 223.075 83.2506 223.133 83.3545 223.237C83.4584 223.341 83.5167 223.482 83.5167 223.629C83.5039 224.117 83.5321 224.605 83.6009 225.088V226.356C83.6009 226.502 83.5432 226.642 83.4403 226.746C83.3374 226.85 83.1976 226.909 83.0515 226.91Z" fill="#2F473F"/>
<path d="M88.592 226.817C88.4451 226.817 88.3042 226.758 88.2004 226.655C88.0965 226.551 88.0381 226.41 88.0381 226.263V223.17C88.0381 223.023 88.0965 222.883 88.2004 222.779C88.3042 222.675 88.4451 222.616 88.592 222.616C88.7389 222.616 88.8797 222.675 88.9836 222.779C89.0875 222.883 89.1458 223.023 89.1458 223.17V226.263C89.1458 226.41 89.0875 226.551 88.9836 226.655C88.8797 226.758 88.7389 226.817 88.592 226.817Z" fill="#2F473F"/>
<path d="M75.8705 188.29C75.8705 189.421 76.5699 190.506 77.8148 191.306C79.0597 192.106 80.7482 192.555 82.5087 192.555C84.2693 192.555 85.9577 192.106 87.2027 191.306C88.4476 190.506 89.1469 189.421 89.1469 188.29C89.1469 187.158 88.4476 186.073 87.2027 185.274C85.9577 184.474 84.2693 184.024 82.5087 184.024C80.7482 184.024 79.0597 184.474 77.8148 185.274C76.5699 186.073 75.8705 187.158 75.8705 188.29Z" fill="white"/>
<path d="M82.5087 183.47C78.4757 183.47 75.3156 185.587 75.3156 188.29C75.3156 190.992 78.4757 193.11 82.5087 193.11C86.5417 193.11 89.7019 190.992 89.7019 188.29C89.7019 185.587 86.5417 183.47 82.5087 183.47ZM82.5087 191.999C79.2101 191.999 76.4232 190.299 76.4232 188.286C76.4242 188.064 76.4578 187.844 76.5229 187.632L79.1292 187.913C79.1724 189.301 80.8517 190.38 82.9883 190.38C85.1527 190.38 86.8486 189.272 86.8486 187.858C86.8486 186.443 85.1527 185.336 82.9883 185.336C82.3212 185.287 81.6522 185.398 81.0361 185.658C80.42 185.919 79.8743 186.321 79.4438 186.833L77.1177 186.584C77.8325 185.903 78.6778 185.374 79.6026 185.029C80.5275 184.683 81.5126 184.529 82.4988 184.575C85.7974 184.575 88.5843 186.275 88.5843 188.286C88.5843 190.298 85.8074 192.003 82.5087 192.003V191.999ZM80.2391 187.861C80.2391 187.191 81.3689 186.447 82.9917 186.447C84.6144 186.447 85.7442 187.191 85.7442 187.861C85.7442 188.531 84.6133 189.275 82.9917 189.275C81.37 189.275 80.2391 188.53 80.2391 187.861Z" fill="#2F473F"/>
<path d="M111.438 103.207C111.293 103.06 111.11 102.956 110.91 102.908C110.709 102.86 110.499 102.869 110.303 102.934C110.142 102.993 109.995 103.085 109.87 103.204C109.746 103.322 109.648 103.465 109.581 103.623C109.719 103.108 109.884 102.6 110.074 102.101C110.617 101.038 110.562 100.098 109.879 99.5538C109.582 99.3636 109.23 99.2778 108.878 99.3099C108.527 99.342 108.196 99.4902 107.938 99.7311C107.853 99.8112 107.772 99.8959 107.696 99.9847C107.753 99.6497 107.688 99.3052 107.512 99.0144C107.318 98.7783 107.042 98.6236 106.74 98.5812C106.437 98.5387 106.13 98.6115 105.878 98.7851C105.523 99.0364 105.25 99.3871 105.094 99.7931C104.938 99.6295 104.73 99.5239 104.506 99.4937C104.282 99.4635 104.054 99.5105 103.86 99.6269C103.536 99.8657 103.267 100.171 103.071 100.523C102.875 100.874 102.757 101.264 102.725 101.665C102.592 102.414 102.539 103.175 102.567 103.935C101.277 104.444 100.073 105.15 98.9985 106.028C94.2751 109.592 88.8136 112.052 83.0149 113.228C77.1188 114.295 72.1033 112.794 66.205 110.68C65.9503 110.006 65.5011 109.423 64.9145 109.004C65.2836 108.643 65.6326 108.262 65.9602 107.862C66.1337 107.661 66.2638 107.426 66.3423 107.172C66.3731 106.983 66.3647 106.79 66.3176 106.604C66.2706 106.419 66.1859 106.245 66.0689 106.093C65.9519 105.941 65.805 105.815 65.6373 105.723C65.4696 105.63 65.2846 105.573 65.094 105.555C64.5602 105.516 64.0263 105.631 63.5566 105.887C62.2072 106.519 60.9703 107.367 59.8946 108.397C59.6282 107.938 59.2918 107.524 58.8977 107.168C57.8787 105.958 55.3344 106.149 55.9812 108.914C56.185 109.696 56.495 110.446 56.9028 111.144C56.0479 111.57 55.222 112.051 54.4305 112.584C53.8696 111.648 53.5164 110.601 53.3948 109.516C53.3559 109.329 53.2608 109.158 53.1222 109.027C52.9837 108.895 52.8083 108.809 52.6195 108.78C49.1525 108.233 48.9088 108.197 48.9088 108.197C45.1372 107.617 40.444 106.893 37.6848 110.393C36.3926 112.414 35.7784 114.793 35.9314 117.187C35.9911 122.572 37.039 127.902 39.0229 132.909C36.8884 139.356 34.1951 145.604 30.9735 151.582C30.629 152.142 30.6069 152.413 30.7409 152.721C31.0723 153.397 31.5225 154.009 32.0701 154.527C31.395 156.709 31.349 159.036 31.9372 161.243C30.3942 161.465 30.0154 162.655 29.2411 163.812C28.1656 165.412 26.2371 166.208 24.3884 167.206C21.7577 168.629 20.3355 170.226 20.0519 172.035C19.7617 173.158 20.7043 174.045 22.4677 173.421C25.2925 172.322 28.3882 172.126 31.3291 172.859C31.3845 173.17 31.5141 173.462 31.707 173.712C31.8998 173.962 32.1502 174.161 32.4367 174.293C37.6031 176.88 43.0079 178.96 48.5754 180.504C53.5599 181.974 58.8501 183.384 64.2832 183.384C67.43 183.384 70.9148 183.079 72.7623 180.594C72.9607 180.249 73.129 179.888 73.2652 179.515C74.3061 179.213 75.258 178.663 76.0384 177.911C76.8189 177.159 77.4045 176.229 77.7446 175.2C78.076 173.894 78.1359 172.535 77.9207 171.205C77.5088 168.177 76.5045 165.26 74.965 162.62C73.4256 159.98 71.3812 157.669 68.9487 155.819C69.2985 155.451 69.6017 155.042 69.8514 154.6C69.919 154.479 69.9387 154.337 69.9068 154.203C65.2934 134.535 65.4307 135.739 65.5215 134.772C65.6988 133.731 67.2938 132.324 67.8942 131.142C68.7936 129.358 69.3568 127.423 69.5557 125.434C74.877 125.99 80.2382 126.055 85.5714 125.627C91.0908 125.175 96.4345 123.47 101.196 120.643C103.41 119.328 105.313 117.549 106.773 115.428C107.734 114.01 108.332 112.378 108.516 110.675C110.118 109.608 111.288 108.005 111.816 106.154C111.94 105.736 112.166 103.949 111.438 103.207ZM58.1079 107.94C58.5989 108.384 58.9812 108.934 59.2256 109.549C59.2599 109.636 59.3158 109.713 59.3879 109.773C59.46 109.832 59.546 109.873 59.6379 109.89C59.7298 109.907 59.8246 109.901 59.9134 109.872C60.0023 109.843 60.0823 109.792 60.146 109.723C61.2556 108.531 62.5847 107.565 64.0605 106.877C64.7362 106.502 65.567 106.616 65.1139 107.157C64.5859 107.8 63.9939 108.388 63.3472 108.911C63.249 108.989 63.1798 109.097 63.1509 109.219C63.122 109.34 63.1352 109.468 63.1882 109.581C63.2412 109.695 63.331 109.787 63.4429 109.842C63.5549 109.898 63.6824 109.914 63.8047 109.888C64.5468 109.733 65.0752 110.655 65.0619 111.286C65.043 112.258 63.9963 113.127 63.0105 113.577C61.792 112.406 59.2577 110.758 57.9684 110.761C57.5621 110.109 57.2563 109.4 57.0612 108.657C56.7079 107.142 57.7347 107.508 58.1079 107.94ZM38.0271 125.824C37.3399 122.988 37.0102 120.076 37.0457 117.158C36.9003 115.005 37.4434 112.863 38.5964 111.039C40.9225 108.094 45.063 108.728 48.7504 109.296C52.4932 109.872 52.0258 109.56 52.3093 109.769C52.4934 111 52.9127 112.185 53.5444 113.258C50.9325 115.375 50.3454 116.901 49.3242 120.119C48.3297 123.38 46.8104 126.458 44.8259 129.231C44.7406 129.351 44.7063 129.5 44.7305 129.645C44.7547 129.789 44.8354 129.919 44.955 130.004C45.0746 130.089 45.2231 130.124 45.368 130.1C45.5129 130.075 45.6422 129.995 45.7276 129.875C50.8572 122.691 50.1749 118.044 52.9075 115.347C54.3396 113.884 56.0402 112.71 57.9163 111.89C58.9531 111.862 61.1861 113.376 62.1055 114.244C61.9526 114.924 61.8963 115.623 61.9383 116.319C62.0185 117.77 61.7951 119.221 61.2825 120.581C60.4398 121.876 59.5043 123.109 58.4834 124.269C56.4897 127.029 54.3485 129.948 52.0402 132.611C50.7646 134.28 49.3137 135.808 47.7125 137.168C45.341 138.906 43.2054 138.386 42.0258 136.614C40.3133 134.07 38.7205 128.86 38.0271 125.824ZM22.0867 172.383C21.6879 172.525 21.0433 172.677 21.1397 172.26C21.3778 170.762 22.614 169.428 24.9212 168.179C26.7976 167.163 28.9177 166.287 30.166 164.43C30.9912 163.194 31.1485 162.378 32.2817 162.311C32.6599 163.353 33.1851 164.336 33.8412 165.231C32.9271 166.026 32.2105 167.024 31.7482 168.144C31.2858 169.265 31.0904 170.477 31.1773 171.686C28.1447 171.017 24.982 171.259 22.0867 172.383ZM66.7145 182.172C60.5902 182.693 54.5523 181.109 48.8811 179.437C43.3775 177.914 38.0354 175.858 32.9307 173.299C32.7629 173.228 32.6213 173.107 32.5254 172.952C32.4295 172.797 32.3842 172.617 32.3957 172.435C32.1721 171.289 32.2497 170.105 32.6209 168.998C32.9922 167.892 33.6443 166.9 34.5136 166.121C36.4607 168.565 38.9847 170.487 41.8585 171.714C45.4049 173.18 49.0826 174.306 52.8421 175.075C65.8705 177.851 65.0862 177.917 65.1981 177.917C65.3338 177.916 65.4646 177.866 65.5656 177.775C65.6666 177.684 65.7308 177.56 65.746 177.425C65.7611 177.29 65.7263 177.154 65.6479 177.043C65.5696 176.932 65.4533 176.854 65.3211 176.823L53.0736 173.992C49.3759 173.269 45.7632 172.164 42.2938 170.695C38.8834 169.239 36.0141 166.752 34.0883 163.583C32.6604 161.076 32.2707 158.109 33.0027 155.318C38.5499 159.491 50.3576 160.695 57.779 159.925C61.1732 161.534 64.237 163.763 66.8131 166.497C69.4137 168.932 71.3211 172.015 72.3403 175.429C73.6086 179.615 71.0599 181.802 66.7112 182.172H66.7145ZM76.8286 171.366C77.0204 172.538 76.9718 173.736 76.6857 174.888C76.4363 175.629 76.0333 176.309 75.5031 176.883C74.9728 177.457 74.3272 177.913 73.6086 178.22C73.7761 177.18 73.7049 176.115 73.4004 175.107C72.3298 171.518 70.3271 168.276 67.5962 165.714C65.3347 163.269 62.6757 161.225 59.7318 159.669C62.7393 159.344 65.6201 158.282 68.119 156.577C70.4803 158.34 72.4665 160.556 73.9614 163.095C75.4563 165.634 76.4299 168.446 76.8253 171.366H76.8286ZM68.1988 151.789L68.7803 154.238C64.0173 161.872 35.5692 159.801 31.7976 152.361C32.0612 151.89 32.2074 151.667 33.2165 149.691C37.5397 156.108 62.481 158.142 68.1988 151.789ZM67.8665 150.386C63.8479 157.225 36.3135 154.943 33.8235 148.485C36.0721 143.96 38.0202 139.292 39.6554 134.511C40.044 135.464 40.5299 136.375 41.1053 137.229C42.5951 139.471 45.4629 140.244 48.458 137.992C49.6628 137.018 50.7571 135.915 51.7212 134.702C55.8461 135.906 60.2098 136.039 64.4006 135.09C64.3873 135.994 64.2311 135.059 67.8665 150.388V150.386ZM105.859 114.799C104.491 116.787 102.706 118.455 100.63 119.687C96.0146 122.429 90.8345 124.082 85.4839 124.519C80.206 124.943 74.9002 124.879 69.6343 124.326C69.7411 121.494 69.1267 118.681 67.8488 116.152C67.7802 116.026 67.665 115.931 67.5277 115.888C67.3904 115.845 67.2416 115.857 67.1131 115.921C66.9845 115.986 66.8861 116.098 66.8388 116.234C66.7915 116.37 66.7989 116.519 66.8596 116.65C67.9559 118.817 68.5312 121.21 68.5399 123.639C68.5485 126.068 67.9902 128.465 66.9095 130.64C66.4376 131.576 65.2635 132.619 64.7019 133.795C63.345 134.526 57.6261 135.177 52.5054 133.774C54.9334 130.952 57.2184 128.009 59.3519 124.958C60.421 123.743 61.395 122.446 62.265 121.081C62.8694 119.546 63.1365 117.898 63.0481 116.251C63.0166 115.74 63.0474 115.227 63.1401 114.723C64.4979 114.209 65.5973 113.179 66.1983 111.858C71.915 113.885 77.1908 115.402 83.2276 114.316C89.1975 113.102 94.8196 110.566 99.6808 106.894C100.535 106.212 101.464 105.63 102.45 105.16C103.331 104.747 104.339 104.691 105.26 105.005C105.833 105.324 106.322 105.773 106.688 106.317C107.053 106.861 107.285 107.484 107.365 108.135C107.702 110.466 107.165 112.84 105.856 114.799H105.859ZM110.755 105.837C110.378 107.162 109.618 108.348 108.57 109.244C108.552 108.826 108.515 108.409 108.459 107.994C108.352 107.159 108.046 106.361 107.569 105.668C107.091 104.974 106.454 104.405 105.712 104.007C105.061 103.77 104.368 103.673 103.677 103.724C103.667 103.08 103.718 102.436 103.83 101.801C103.856 101.415 104.009 101.048 104.267 100.758L104.339 103.054C104.339 103.201 104.397 103.342 104.501 103.446C104.605 103.55 104.745 103.608 104.892 103.608C105.039 103.608 105.18 103.55 105.284 103.446C105.388 103.342 105.446 103.201 105.446 103.054C105.479 102.066 105.712 101.096 106.131 100.201C106.207 99.9967 106.343 99.8198 106.52 99.6923C106.812 99.4896 106.236 100.542 106.257 102.94C106.258 103.066 106.302 103.187 106.381 103.284C106.461 103.382 106.571 103.449 106.693 103.476C106.816 103.503 106.944 103.487 107.057 103.431C107.169 103.375 107.259 103.283 107.313 103.169C108.301 101.054 108.3 100.92 108.703 100.54C108.773 100.472 108.862 100.428 108.958 100.412C109.053 100.396 109.152 100.41 109.24 100.451C109.443 100.614 109.316 101.163 109.072 101.648C108.835 102.257 108.635 102.879 108.472 103.512C108.153 104.692 108.457 105.659 109.248 105.974C109.871 106.223 110.106 105.471 110.313 104.833C110.392 104.536 110.507 104.25 110.654 103.98C110.883 104.573 110.917 105.223 110.752 105.837H110.755Z" fill="#2F473F"/>
<path d="M108.407 159.754C108.407 167.007 111.288 173.964 116.417 179.093C121.546 184.222 128.503 187.103 135.756 187.103C143.01 187.103 149.966 184.222 155.095 179.093C160.224 173.964 163.106 167.007 163.106 159.754C163.106 152.5 160.224 145.544 155.095 140.415C149.966 135.286 143.01 132.405 135.756 132.405C128.503 132.405 121.546 135.286 116.417 140.415C111.288 145.544 108.407 152.5 108.407 159.754Z" fill="#B1E400"/>
<path d="M135.756 131.851C130.238 131.851 124.843 133.488 120.254 136.554C115.666 139.62 112.09 143.978 109.978 149.077C107.866 154.175 107.314 159.786 108.391 165.198C109.467 170.611 112.125 175.583 116.027 179.485C119.93 183.387 124.902 186.045 130.314 187.121C135.727 188.198 141.337 187.645 146.436 185.533C151.534 183.421 155.892 179.845 158.958 175.256C162.024 170.667 163.661 165.273 163.661 159.754C163.652 152.356 160.71 145.263 155.478 140.032C150.247 134.801 143.154 131.859 135.756 131.851ZM135.756 186.549C129.6 186.542 123.633 184.418 118.857 180.533C114.08 176.649 110.784 171.241 109.52 165.216C118.131 166.619 126.411 169.589 133.95 173.981C135.238 174.883 136.61 175.658 138.048 176.295C138.829 176.636 139.675 176.803 140.528 176.784C141.38 176.765 142.218 176.56 142.983 176.184C145.043 175.036 145.962 172.539 145.791 168.541C145.473 161.341 140.745 154.765 133.141 150.957C125.562 147.159 117.855 147.227 112.025 151.156C111.147 151.744 110.376 152.476 109.744 153.322C110.95 148.445 113.502 144.005 117.11 140.509C120.718 137.013 125.236 134.602 130.148 133.55C135.061 132.498 140.17 132.849 144.893 134.561C149.616 136.274 153.762 139.279 156.859 143.235C159.956 147.191 161.878 151.937 162.407 156.933C162.936 161.929 162.05 166.973 159.85 171.489C157.65 176.006 154.224 179.813 149.965 182.476C145.705 185.139 140.782 186.552 135.759 186.552L135.756 186.549Z" fill="#2F473F"/>
<path d="M158.429 174.296C159.103 174.402 159.797 174.341 160.469 174.116C161.141 173.892 161.78 173.508 162.347 172.986C162.915 172.465 163.4 171.817 163.775 171.079C164.151 170.341 164.409 169.528 164.534 168.687C164.66 167.846 164.651 166.993 164.507 166.178C164.364 165.362 164.089 164.601 163.699 163.936C163.308 163.272 162.81 162.718 162.233 162.307C161.655 161.896 161.01 161.635 160.334 161.54C159.66 161.433 158.967 161.494 158.294 161.719C157.622 161.944 156.984 162.328 156.416 162.849C155.849 163.37 155.363 164.018 154.988 164.756C154.613 165.494 154.355 166.307 154.229 167.148C154.104 167.989 154.113 168.842 154.256 169.658C154.399 170.473 154.674 171.235 155.065 171.899C155.455 172.563 155.953 173.117 156.531 173.528C157.108 173.94 157.753 174.2 158.429 174.296Z" fill="white"/>
<path d="M158.346 174.845C155.001 174.344 153.183 170.636 153.716 167.071C154.286 163.252 157.289 160.522 160.416 160.992C161.202 161.125 161.947 161.435 162.594 161.899C163.242 162.363 163.775 162.968 164.152 163.67C166.994 168.543 163.356 175.597 158.346 174.845ZM154.811 167.235C154.283 170.768 156.251 173.412 158.51 173.749C162.608 174.355 165.568 168.298 163.195 164.224C160.839 160.186 155.576 162.12 154.811 167.235Z" fill="#2F473F"/>
<path d="M144.212 194.55C144.212 196.398 144.946 198.17 146.253 199.477C147.559 200.784 149.332 201.518 151.179 201.518C153.027 201.518 154.799 200.784 156.106 199.477C157.413 198.17 158.147 196.398 158.147 194.55C158.147 192.703 157.413 190.931 156.106 189.624C154.799 188.317 153.027 187.583 151.179 187.583C149.332 187.583 147.559 188.317 146.253 189.624C144.946 190.931 144.212 192.703 144.212 194.55Z" fill="white"/>
<path d="M151.179 202.07C149.692 202.07 148.238 201.629 147.001 200.803C145.764 199.976 144.8 198.801 144.231 197.427C143.662 196.053 143.513 194.54 143.803 193.081C144.093 191.622 144.81 190.282 145.862 189.231C146.914 188.179 148.254 187.463 149.713 187.172C151.172 186.882 152.684 187.031 154.058 187.601C155.433 188.17 156.607 189.134 157.433 190.371C158.26 191.608 158.701 193.063 158.7 194.55C158.697 196.544 157.904 198.455 156.494 199.864C155.084 201.274 153.173 202.067 151.179 202.07ZM151.179 188.137C149.911 188.137 148.671 188.513 147.616 189.218C146.562 189.922 145.74 190.924 145.254 192.096C144.769 193.268 144.642 194.557 144.889 195.801C145.137 197.045 145.748 198.188 146.644 199.085C147.541 199.982 148.684 200.593 149.928 200.84C151.172 201.088 152.462 200.961 153.634 200.475C154.806 199.99 155.807 199.168 156.512 198.113C157.217 197.059 157.593 195.819 157.593 194.55C157.59 192.85 156.913 191.221 155.711 190.019C154.509 188.816 152.879 188.14 151.179 188.137Z" fill="#2F473F"/>
<path d="M151.192 194.734C150.531 195.142 150.049 195.785 149.842 196.534C149.635 197.283 149.719 198.082 150.076 198.772C150.356 199.173 150.678 199.545 151.035 199.879C154.747 203.449 152.872 206.992 153.362 209.943C153.492 210.587 153.806 211.179 154.266 211.647C154.727 212.115 155.313 212.439 155.954 212.58C156.595 212.721 157.263 212.672 157.878 212.44C158.492 212.208 159.025 211.802 159.413 211.273C162.864 206.942 158.189 190.239 151.192 194.734Z" fill="#2F473F"/>
<path d="M80.1693 65.8897C80.0958 65.8897 80.0231 65.8751 79.9553 65.8467C79.8875 65.8183 79.8261 65.7767 79.7745 65.7244C79.723 65.672 79.6824 65.6099 79.6551 65.5417C79.6278 65.4734 79.6143 65.4005 79.6155 65.327L79.8138 53.2069C79.2229 54.3217 78.5568 55.395 77.82 56.4192C77.7787 56.481 77.7253 56.5339 77.6631 56.5746C77.6009 56.6154 77.5312 56.6432 77.458 56.6565C77.3848 56.6697 77.3097 56.668 77.2372 56.6516C77.1647 56.6352 77.0962 56.6043 77.0359 56.5609C76.9755 56.5174 76.9245 56.4623 76.886 56.3987C76.8474 56.3351 76.822 56.2644 76.8114 56.1908C76.8007 56.1172 76.805 56.0422 76.8239 55.9703C76.8429 55.8984 76.8761 55.8311 76.9217 55.7723C78.1168 54.1123 79.1166 52.3201 79.9013 50.4311C79.9506 50.3119 80.0399 50.2136 80.154 50.1532C80.268 50.0929 80.3995 50.0742 80.5258 50.1005C80.6522 50.1267 80.7653 50.1963 80.8459 50.2971C80.9264 50.3979 80.9692 50.5237 80.9669 50.6527L80.7265 65.3425C80.7247 65.4888 80.6651 65.6285 80.5608 65.731C80.4564 65.8335 80.3156 65.8906 80.1693 65.8897Z" fill="#2F473F"/>
<path d="M124.358 71.0127C125.68 66.4768 129.302 62.7894 130.424 58.4085C130.887 57.1746 130.106 56.4147 129.229 56.7537C128.677 57.0146 128.196 57.4036 127.825 57.8881C127.454 58.3727 127.204 58.9389 127.097 59.5395C127.112 59.8718 127.52 60.3614 127.85 60.2451C127.988 60.1964 128.141 60.2049 128.273 60.2686C128.406 60.3322 128.507 60.4459 128.556 60.5846C128.605 60.7232 128.596 60.8755 128.532 61.0079C128.469 61.1404 128.355 61.2421 128.216 61.2907C127.95 61.3532 127.673 61.3547 127.407 61.295C127.14 61.2353 126.89 61.116 126.676 60.946C126.462 60.7761 126.289 60.5599 126.17 60.3136C126.051 60.0673 125.99 59.7974 125.99 59.524C126.097 58.7047 126.412 57.9264 126.904 57.2627C127.396 56.599 128.05 56.0719 128.802 55.7313C129.212 55.5627 129.664 55.5256 130.095 55.6253C130.526 55.725 130.916 55.9564 131.21 56.2875C131.504 56.6186 131.688 57.033 131.736 57.4732C131.784 57.9134 131.693 58.3576 131.477 58.7442C130.443 62.8082 127.457 66.1135 125.904 69.946L132.188 66.3328C132.252 66.2964 132.321 66.2728 132.393 66.2634C132.466 66.2539 132.539 66.2587 132.609 66.2776C132.679 66.2965 132.745 66.329 132.803 66.3734C132.861 66.4177 132.909 66.473 132.946 66.536C132.982 66.5991 133.006 66.6687 133.015 66.7409C133.024 66.813 133.02 66.8864 133.001 66.9567C132.982 67.027 132.949 67.0929 132.905 67.1506C132.861 67.2083 132.805 67.2568 132.742 67.2931L125.169 71.6473C125.073 71.7034 124.963 71.7293 124.852 71.7218C124.742 71.7143 124.636 71.6738 124.548 71.6054C124.461 71.537 124.396 71.4439 124.362 71.3382C124.328 71.2325 124.327 71.1191 124.358 71.0127Z" fill="#2F473F"/>
<path d="M193.131 86.6785C193.11 86.609 193.074 86.5445 193.028 86.4886C192.981 86.4327 192.924 86.3865 192.86 86.3526C192.796 86.3188 192.725 86.298 192.653 86.2913C192.58 86.2847 192.507 86.2924 192.438 86.3141C191.634 86.5629 190.834 86.8029 190.039 87.034L190.405 85.2618C190.428 85.1205 190.396 84.9759 190.315 84.8581C190.233 84.7402 190.11 84.6584 189.969 84.6298C189.829 84.6012 189.683 84.6279 189.562 84.7044C189.442 84.7809 189.355 84.9013 189.321 85.0402L188.837 87.3796C187.279 87.816 185.751 88.2144 184.253 88.5748C185.947 84.6609 187.426 80.6573 188.684 76.5821C188.706 76.5127 188.714 76.4396 188.707 76.3671C188.701 76.2945 188.68 76.224 188.646 76.1595C188.613 76.0949 188.567 76.0376 188.511 75.9909C188.455 75.9442 188.391 75.9089 188.321 75.8871C188.252 75.8652 188.179 75.8573 188.106 75.8637C188.034 75.8702 187.963 75.8908 187.898 75.9245C187.834 75.9582 187.777 76.0042 187.73 76.0601C187.683 76.1159 187.648 76.1804 187.626 76.2498C186.27 80.6373 184.655 84.9407 182.79 89.1375C182.748 89.2315 182.734 89.3353 182.748 89.4371C182.762 89.539 182.804 89.635 182.869 89.7144C182.934 89.7937 183.021 89.8532 183.118 89.8864C183.215 89.9195 183.32 89.9248 183.42 89.9018C185.149 89.5035 186.87 89.0673 188.58 88.5936L187.625 93.2004C187.602 93.3416 187.634 93.4863 187.716 93.6041C187.797 93.7219 187.92 93.8037 188.061 93.8324C188.201 93.861 188.347 93.8343 188.468 93.7578C188.589 93.6812 188.675 93.5609 188.709 93.4219L189.787 88.2602C190.772 87.9789 191.766 87.6835 192.768 87.3741C192.837 87.3524 192.902 87.3172 192.958 87.2704C193.014 87.2237 193.06 87.1664 193.094 87.1017C193.128 87.0371 193.148 86.9664 193.155 86.8938C193.161 86.8212 193.153 86.748 193.131 86.6785Z" fill="#2F473F"/>
<path d="M100.594 87.6993C100.379 87.6993 102.65 88.8668 68.5278 70.5438C68.4629 70.5098 68.4054 70.4633 68.3586 70.407C68.3118 70.3507 68.2767 70.2857 68.2552 70.2157C68.2337 70.1457 68.2263 70.0721 68.2334 69.9992C68.2405 69.9264 68.262 69.8556 68.2967 69.7911C68.3313 69.7266 68.3784 69.6696 68.4352 69.6234C68.492 69.5772 68.5574 69.5427 68.6276 69.522C68.6978 69.5012 68.7715 69.4946 68.8442 69.5025C68.917 69.5104 68.9875 69.5326 69.0517 69.5679L100.856 86.657C100.965 86.7152 101.051 86.8083 101.102 86.9213C101.152 87.0343 101.162 87.1608 101.132 87.2807C101.102 87.4006 101.033 87.5069 100.935 87.5827C100.837 87.6586 100.717 87.6996 100.594 87.6993Z" fill="#2F473F"/>
<path d="M100.228 92.9752C100.022 92.9752 101.196 93.5368 83.6196 84.5459C83.5527 84.5141 83.4928 84.4693 83.4435 84.4139C83.3942 84.3586 83.3565 84.2939 83.3327 84.2237C83.3088 84.1536 83.2993 84.0793 83.3047 84.0054C83.31 83.9315 83.3302 83.8594 83.3639 83.7934C83.3977 83.7274 83.4443 83.6689 83.5011 83.6213C83.5578 83.5736 83.6236 83.5379 83.6944 83.5161C83.7653 83.4944 83.8398 83.487 83.9135 83.4946C83.9872 83.5021 84.0587 83.5244 84.1236 83.5601L100.481 91.9274C100.592 91.9837 100.681 92.076 100.733 92.1892C100.785 92.3024 100.798 92.4299 100.769 92.5512C100.739 92.6724 100.67 92.7802 100.572 92.8572C100.474 92.9341 100.353 92.9757 100.228 92.9752Z" fill="#2F473F"/>
<path d="M90.9646 111.869C90.7852 111.869 92.0645 112.405 72.0136 103.644C71.8789 103.586 71.773 103.476 71.7193 103.339C71.6656 103.202 71.6685 103.05 71.7272 102.915C71.786 102.78 71.8959 102.675 72.0326 102.621C72.1694 102.567 72.3219 102.57 72.4566 102.629L91.1861 110.807C91.3033 110.857 91.3993 110.947 91.4581 111.06C91.5168 111.173 91.5347 111.303 91.5087 111.428C91.4826 111.553 91.4143 111.665 91.3151 111.745C91.216 111.826 91.0922 111.869 90.9646 111.869Z" fill="#2F473F"/>
<path d="M97.3248 140.947C97.1221 140.947 98.5432 141.631 74.3585 129.441C74.2284 129.374 74.1299 129.258 74.0846 129.119C74.0393 128.98 74.0508 128.829 74.1166 128.699C74.1824 128.568 74.2972 128.469 74.4358 128.423C74.5745 128.376 74.7259 128.387 74.8569 128.452L97.5751 139.899C97.6861 139.956 97.775 140.048 97.8273 140.161C97.8796 140.274 97.8923 140.401 97.8634 140.522C97.8345 140.643 97.7656 140.751 97.6679 140.828C97.5701 140.905 97.4493 140.947 97.3248 140.947Z" fill="#2F473F"/>
<path d="M96.4165 146.589C96.2116 146.589 97.1919 147.057 81.2592 138.892C81.1945 138.859 81.137 138.814 81.0898 138.758C81.0427 138.703 81.007 138.639 80.9847 138.57C80.9624 138.5 80.9539 138.427 80.9598 138.355C80.9656 138.282 80.9857 138.212 81.0189 138.147C81.052 138.082 81.0976 138.025 81.153 137.978C81.2085 137.93 81.2726 137.895 81.3418 137.872C81.4111 137.85 81.484 137.842 81.5565 137.848C81.629 137.853 81.6996 137.873 81.7643 137.907L96.6691 145.542C96.7797 145.598 96.868 145.691 96.9199 145.804C96.9717 145.917 96.9841 146.044 96.9549 146.165C96.9258 146.285 96.8568 146.393 96.7592 146.47C96.6615 146.547 96.5408 146.589 96.4165 146.589Z" fill="#2F473F"/>
<path d="M95.3188 155.676C95.0873 155.676 96.8695 156.673 69.4194 140.696C69.3016 140.618 69.2179 140.498 69.1856 140.361C69.1532 140.223 69.1746 140.079 69.2453 139.956C69.316 139.834 69.4308 139.744 69.5661 139.703C69.7014 139.663 69.847 139.675 69.9732 139.739L95.5946 154.644C95.6995 154.705 95.7815 154.799 95.8278 154.911C95.8741 155.023 95.8822 155.148 95.8508 155.265C95.8195 155.382 95.7504 155.486 95.6543 155.56C95.5581 155.635 95.4402 155.675 95.3188 155.676Z" fill="#2F473F"/>
<path d="M115.854 86.6142C115.727 86.6146 115.604 86.5716 115.505 86.4924C115.407 86.4132 115.338 86.3025 115.311 86.1788C115.284 86.055 115.3 85.9258 115.357 85.8125C115.413 85.6993 115.507 85.6089 115.622 85.5564L142.164 73.3776C142.23 73.3473 142.302 73.3303 142.374 73.3275C142.447 73.3248 142.52 73.3364 142.588 73.3617C142.656 73.387 142.719 73.4255 142.772 73.475C142.825 73.5245 142.868 73.584 142.899 73.6501C142.929 73.7162 142.946 73.7876 142.949 73.8603C142.951 73.933 142.94 74.0055 142.914 74.0737C142.889 74.1419 142.851 74.2044 142.801 74.2578C142.752 74.3111 142.692 74.3541 142.626 74.3845C114.149 87.4416 116.037 86.6142 115.854 86.6142Z" fill="#2F473F"/>
<path d="M126.582 88.0649C126.456 88.0653 126.333 88.0227 126.235 87.9442C126.136 87.8657 126.068 87.7559 126.04 87.6331C126.012 87.5103 126.027 87.3817 126.082 87.2685C126.137 87.1553 126.23 87.0643 126.343 87.0105L140.884 80.1075C140.95 80.069 141.023 80.0447 141.099 80.036C141.176 80.0274 141.253 80.0346 141.326 80.0572C141.399 80.0799 141.467 80.1175 141.524 80.1676C141.582 80.2177 141.629 80.2793 141.662 80.3484C141.695 80.4176 141.713 80.4928 141.716 80.5694C141.718 80.6459 141.704 80.7221 141.676 80.7932C141.647 80.8642 141.604 80.9286 141.549 80.9821C141.495 81.0357 141.429 81.0773 141.358 81.1044C125.793 88.4969 126.761 88.0649 126.582 88.0649Z" fill="#2F473F"/>
<path d="M114.944 104.788C114.818 104.789 114.696 104.746 114.597 104.667C114.499 104.589 114.43 104.479 114.402 104.355C114.375 104.232 114.39 104.104 114.446 103.99C114.502 103.877 114.594 103.786 114.708 103.733L140.517 91.5486C140.583 91.5097 140.657 91.485 140.733 91.4761C140.81 91.4672 140.887 91.4743 140.96 91.4969C141.034 91.5195 141.102 91.5571 141.16 91.6074C141.218 91.6576 141.265 91.7194 141.298 91.7888C141.331 91.8582 141.349 91.9337 141.351 92.0105C141.353 92.0873 141.339 92.1637 141.31 92.2349C141.281 92.306 141.238 92.3704 141.183 92.4239C141.128 92.4773 141.062 92.5188 140.99 92.5455C113.384 105.586 115.137 104.788 114.944 104.788Z" fill="#2F473F"/>
<path d="M114.768 110.594C114.644 110.593 114.522 110.551 114.425 110.473C114.327 110.396 114.258 110.287 114.23 110.166C114.202 110.044 114.215 109.916 114.269 109.804C114.322 109.691 114.412 109.599 114.524 109.544L127.426 103.182C127.558 103.117 127.71 103.107 127.85 103.155C127.989 103.202 128.104 103.303 128.169 103.435C128.234 103.568 128.244 103.72 128.197 103.86C128.149 103.999 128.049 104.114 127.916 104.179C114.075 110.999 114.959 110.594 114.768 110.594Z" fill="#2F473F"/>
<path d="M114.226 116.604C114.099 116.604 113.977 116.562 113.878 116.483C113.779 116.405 113.71 116.294 113.683 116.171C113.655 116.048 113.67 115.919 113.726 115.806C113.781 115.693 113.874 115.602 113.988 115.548L133.249 106.465C133.315 106.426 133.388 106.402 133.465 106.393C133.541 106.384 133.618 106.391 133.692 106.414C133.765 106.436 133.833 106.474 133.891 106.524C133.949 106.574 133.996 106.636 134.029 106.706C134.062 106.775 134.08 106.85 134.082 106.927C134.085 107.004 134.071 107.08 134.042 107.152C134.013 107.223 133.97 107.287 133.914 107.341C133.859 107.394 133.794 107.436 133.722 107.462C113.106 117.181 114.418 116.604 114.226 116.604Z" fill="#2F473F"/>
<path d="M113.683 123.139C113.558 123.139 113.437 123.097 113.339 123.02C113.241 122.942 113.172 122.834 113.144 122.712C113.115 122.59 113.129 122.463 113.182 122.35C113.235 122.237 113.325 122.145 113.437 122.089L127.426 115.185C127.558 115.12 127.71 115.11 127.85 115.158C127.989 115.205 128.104 115.306 128.169 115.438C128.234 115.571 128.244 115.723 128.197 115.863C128.149 116.002 128.048 116.117 127.916 116.182C112.948 123.561 113.873 123.139 113.683 123.139Z" fill="#2F473F"/>
<path d="M112.775 130.774C112.649 130.774 112.528 130.731 112.43 130.654C112.333 130.576 112.264 130.467 112.236 130.345C112.208 130.223 112.222 130.095 112.276 129.982C112.329 129.87 112.42 129.778 112.532 129.723L138.695 117C138.827 116.936 138.979 116.927 139.118 116.975C139.257 117.023 139.371 117.125 139.435 117.257C139.5 117.389 139.509 117.541 139.461 117.68C139.413 117.819 139.311 117.933 139.179 117.997C111.151 131.633 112.973 130.774 112.775 130.774Z" fill="#2F473F"/>
<path d="M164.263 110.231L207.515 100.778C207.587 100.762 207.66 100.76 207.733 100.772C207.805 100.784 207.874 100.811 207.936 100.85C207.997 100.889 208.051 100.941 208.093 101.001C208.135 101.061 208.164 101.128 208.18 101.2C208.195 101.271 208.197 101.345 208.183 101.417C208.17 101.489 208.143 101.558 208.103 101.619C208.063 101.681 208.012 101.734 207.951 101.775C207.891 101.816 207.823 101.845 207.751 101.86L164.499 111.313C164.356 111.342 164.207 111.315 164.085 111.235C163.963 111.156 163.877 111.031 163.845 110.889C163.814 110.746 163.841 110.597 163.919 110.474C163.997 110.351 164.121 110.263 164.263 110.231Z" fill="#2F473F"/>
<path d="M179.652 115.327C179.515 115.328 179.382 115.277 179.28 115.186C179.178 115.095 179.113 114.969 179.098 114.833C179.084 114.696 179.12 114.559 179.2 114.448C179.281 114.337 179.399 114.26 179.533 114.231L193.53 111.14C193.671 111.113 193.818 111.142 193.939 111.221C194.059 111.3 194.144 111.423 194.175 111.564C194.206 111.705 194.181 111.852 194.106 111.975C194.03 112.098 193.909 112.186 193.769 112.221C178.842 115.52 179.764 115.327 179.652 115.327Z" fill="#2F473F"/>
<path d="M162.387 129.422C162.372 129.351 162.372 129.277 162.386 129.206C162.4 129.134 162.428 129.066 162.469 129.006C162.509 128.945 162.561 128.893 162.621 128.853C162.682 128.812 162.75 128.784 162.821 128.769L204.445 120.401C204.589 120.372 204.739 120.401 204.861 120.482C204.984 120.563 205.07 120.69 205.099 120.834C205.128 120.978 205.099 121.128 205.018 121.25C204.937 121.373 204.81 121.458 204.666 121.488L163.043 129.855C162.971 129.87 162.897 129.87 162.826 129.857C162.754 129.843 162.686 129.815 162.625 129.775C162.564 129.735 162.511 129.683 162.47 129.622C162.43 129.562 162.401 129.493 162.387 129.422Z" fill="#2F473F"/>
<path d="M162.752 135.324C162.614 135.323 162.481 135.271 162.379 135.178C162.277 135.085 162.214 134.956 162.202 134.819C162.19 134.681 162.229 134.544 162.313 134.434C162.397 134.324 162.519 134.249 162.655 134.225L197.186 128.035C197.259 128.02 197.334 128.02 197.406 128.034C197.479 128.049 197.548 128.077 197.609 128.119C197.67 128.16 197.723 128.214 197.763 128.276C197.804 128.338 197.831 128.407 197.844 128.48C197.857 128.553 197.855 128.628 197.839 128.7C197.823 128.772 197.792 128.84 197.749 128.9C197.706 128.96 197.651 129.011 197.588 129.05C197.525 129.089 197.454 129.114 197.381 129.125C161.032 135.63 162.864 135.324 162.752 135.324Z" fill="#2F473F"/>
<path d="M162.02 142.046C161.881 142.046 161.747 141.994 161.645 141.9C161.543 141.806 161.479 141.677 161.468 141.539C161.456 141.4 161.497 141.263 161.582 141.153C161.667 141.043 161.79 140.969 161.927 140.946L203.185 133.857C203.33 133.832 203.479 133.866 203.599 133.951C203.719 134.036 203.8 134.165 203.825 134.31C203.85 134.454 203.816 134.603 203.731 134.723C203.646 134.843 203.517 134.924 203.373 134.949C160.073 142.375 162.132 142.046 162.02 142.046Z" fill="#2F473F"/>
<path d="M161.112 148.76C160.974 148.758 160.842 148.705 160.741 148.612C160.64 148.518 160.577 148.39 160.565 148.253C160.554 148.115 160.594 147.978 160.678 147.869C160.762 147.76 160.883 147.685 161.019 147.661L194.818 141.854C194.963 141.83 195.112 141.863 195.232 141.948C195.352 142.033 195.433 142.162 195.458 142.307C195.483 142.452 195.449 142.6 195.364 142.72C195.279 142.84 195.15 142.922 195.005 142.947C159.517 149.036 161.225 148.76 161.112 148.76Z" fill="#2F473F"/>
<path d="M162.93 155.853C162.791 155.853 162.657 155.8 162.555 155.706C162.453 155.612 162.39 155.483 162.378 155.345C162.367 155.207 162.407 155.069 162.493 154.959C162.578 154.85 162.701 154.776 162.838 154.753L201.546 148.218C201.619 148.202 201.695 148.201 201.768 148.216C201.841 148.23 201.911 148.259 201.973 148.301C202.035 148.343 202.088 148.397 202.128 148.46C202.169 148.522 202.196 148.593 202.208 148.667C202.221 148.74 202.218 148.816 202.201 148.888C202.183 148.961 202.151 149.03 202.107 149.09C202.062 149.15 202.006 149.2 201.941 149.238C201.877 149.275 201.805 149.299 201.731 149.309C161.431 156.109 163.04 155.853 162.93 155.853Z" fill="#2F473F"/>
<path d="M163.838 163.665C163.699 163.666 163.564 163.614 163.462 163.52C163.359 163.427 163.295 163.298 163.283 163.159C163.271 163.02 163.312 162.882 163.397 162.772C163.482 162.662 163.605 162.588 163.743 162.565L181.374 159.474C181.446 159.461 181.519 159.463 181.59 159.479C181.661 159.494 181.729 159.524 181.788 159.566C181.848 159.607 181.898 159.661 181.937 159.722C181.977 159.783 182.003 159.852 182.016 159.923C182.028 159.995 182.027 160.068 182.011 160.139C181.995 160.21 181.965 160.278 181.924 160.337C181.882 160.397 181.829 160.447 181.767 160.487C181.706 160.526 181.638 160.552 181.566 160.565C163.387 163.749 163.95 163.665 163.838 163.665Z" fill="#2F473F"/>
<path d="M164.015 170.935C163.877 170.935 163.744 170.883 163.642 170.789C163.54 170.696 163.477 170.568 163.465 170.43C163.452 170.292 163.492 170.155 163.576 170.045C163.66 169.935 163.782 169.861 163.918 169.836L199.357 163.475C199.5 163.453 199.645 163.488 199.763 163.573C199.88 163.657 199.96 163.783 199.985 163.925C200.01 164.067 199.979 164.213 199.899 164.333C199.818 164.452 199.694 164.536 199.552 164.565C162.477 171.224 164.128 170.935 164.015 170.935Z" fill="#2F473F"/>
<path d="M139.971 220.247C139.971 220.796 140.079 221.339 140.289 221.846C140.499 222.353 140.807 222.813 141.195 223.201C141.583 223.589 142.043 223.897 142.55 224.107C143.057 224.317 143.6 224.425 144.149 224.425C144.698 224.425 145.241 224.317 145.748 224.107C146.255 223.897 146.716 223.589 147.103 223.201C147.491 222.813 147.799 222.353 148.009 221.846C148.219 221.339 148.327 220.796 148.327 220.247C148.327 219.698 148.219 219.155 148.009 218.648C147.799 218.141 147.491 217.681 147.103 217.293C146.716 216.905 146.255 216.597 145.748 216.387C145.241 216.177 144.698 216.069 144.149 216.069C143.6 216.069 143.057 216.177 142.55 216.387C142.043 216.597 141.583 216.905 141.195 217.293C140.807 217.681 140.499 218.141 140.289 218.648C140.079 219.155 139.971 219.698 139.971 220.247Z" fill="white"/>
<path d="M144.151 224.978C143.215 224.978 142.3 224.701 141.522 224.181C140.744 223.661 140.137 222.922 139.779 222.057C139.42 221.193 139.327 220.241 139.509 219.323C139.692 218.405 140.142 217.562 140.804 216.9C141.466 216.238 142.309 215.787 143.227 215.605C144.145 215.422 145.097 215.516 145.962 215.874C146.826 216.233 147.565 216.839 148.085 217.618C148.605 218.396 148.882 219.311 148.882 220.247C148.881 221.501 148.382 222.704 147.495 223.591C146.608 224.477 145.406 224.976 144.151 224.978ZM144.151 216.623C143.434 216.622 142.734 216.835 142.137 217.233C141.541 217.631 141.077 218.197 140.802 218.859C140.528 219.521 140.456 220.25 140.595 220.953C140.735 221.656 141.08 222.302 141.587 222.809C142.094 223.316 142.74 223.662 143.443 223.802C144.146 223.941 144.875 223.87 145.537 223.595C146.199 223.321 146.765 222.857 147.164 222.261C147.562 221.665 147.774 220.964 147.774 220.247C147.772 219.287 147.39 218.367 146.711 217.688C146.032 217.009 145.111 216.627 144.151 216.626V216.623Z" fill="#2F473F"/>
<path d="M124.119 235.002C124.591 235.822 125.155 236.578 125.78 237.228C126.404 237.877 127.075 238.407 127.756 238.787C128.437 239.167 129.114 239.39 129.748 239.442C130.382 239.495 130.96 239.376 131.45 239.093C131.94 238.81 132.332 238.369 132.604 237.793C132.875 237.218 133.02 236.521 133.032 235.741C133.043 234.961 132.92 234.115 132.67 233.249C132.419 232.384 132.047 231.518 131.573 230.699C130.619 229.046 129.311 227.688 127.937 226.923C126.564 226.158 125.237 226.049 124.248 226.619C123.259 227.19 122.69 228.394 122.666 229.966C122.642 231.538 123.164 233.35 124.118 235.002" fill="#B1E400"/>
<path d="M145.77 219.519L133.378 228.545C130.75 225.525 126.068 224.935 123.971 226.14C121.192 227.732 121.886 232.267 123.627 235.278C124.971 237.596 127.457 240 130.027 240C131.389 239.811 132.658 239.204 133.659 238.262C134.66 237.321 135.344 236.091 135.616 234.744L149.484 224.618C152.858 222.164 149.142 217.069 145.77 219.519ZM131.165 238.601C128.961 239.876 125.894 236.969 124.598 234.724C122.798 231.607 122.766 228.116 124.526 227.099C126.286 226.082 129.289 227.858 131.093 230.976C132.897 234.094 132.926 237.585 131.165 238.601Z" fill="#2F473F"/>
</svg>
