<svg width="200" height="212" viewBox="0 0 200 212" fill="none" xmlns="http://www.w3.org/2000/svg">
<path d="M14.4854 134.383C14.1576 133.9 13.6731 133.546 13.1141 133.381C12.5551 133.215 11.9559 133.248 11.4183 133.473C10.5975 133.916 10.2187 134.874 9.70248 135.644C8.54054 137.373 6.49579 138.22 4.65264 139.216C2.80949 140.213 0.917595 141.627 0.589727 143.697C0.420254 144.352 0.937533 144.9 2.26784 144.429C5.45836 143.181 8.97775 143.052 12.2512 144.062L15.6717 137.614C15.5354 136.458 15.129 135.352 14.4854 134.383Z" fill="white"/>
<path d="M46.7703 154.298C40.6782 154.818 34.6381 153.203 28.7475 151.547C23.2192 149.963 17.846 147.881 12.6942 145.325C12.5074 145.236 12.3367 145.117 12.1891 144.972C11.9905 144.708 11.8721 144.392 11.8479 144.062C11.5947 142.575 11.7746 141.046 12.3663 139.658C12.7374 138.797 14.7688 137.14 14.2205 136.39C12.9763 134.663 12.2767 132.603 12.2116 130.476C12.1464 128.348 12.7187 126.25 13.855 124.45C13.9797 124.219 14.1569 124.02 14.3723 123.87C14.625 123.748 14.8997 123.679 15.1798 123.667C20.2584 123.38 46.4403 126.344 46.5566 126.381C48.6766 127.301 55.2041 133.27 57.0672 141.223C58.1394 145.798 56.0448 150.81 52.9688 150.059C53.2912 150.203 52.5867 153.803 46.7703 154.298Z" fill="#343A3F"/>
<path d="M24.0181 71.9623C24.0637 72.0269 24.1225 72.081 24.1907 72.1209C24.2588 72.1609 24.3347 72.1858 24.4133 72.1939C24.4919 72.2021 24.5713 72.1934 24.6463 72.1684C24.7212 72.1433 24.7899 72.1025 24.8478 72.0487C25.7825 73.7849 27.2048 75.2096 28.9395 76.1471C29.0256 76.1938 29.1226 76.2169 29.2206 76.2139C29.3185 76.2109 29.4139 76.1819 29.497 76.13C29.5801 76.0781 29.648 76.0051 29.6937 75.9183C29.7393 75.8316 29.7611 75.7344 29.7569 75.6365C29.6307 72.7399 31.1404 70.0882 32.8418 69.2519L27.6734 59.5742C22.6701 61.3841 21.5813 68.5142 24.0181 71.9623Z" fill="#343A3F"/>
<path d="M77.8467 192.754C78.2851 193.513 78.8089 194.213 79.3881 194.814C79.9674 195.415 80.5907 195.906 81.2225 196.257C81.8543 196.608 82.4822 196.814 83.0705 196.862C83.6587 196.909 84.1957 196.799 84.6507 196.536C85.1058 196.273 85.4701 195.864 85.7227 195.33C85.9754 194.797 86.1114 194.151 86.1232 193.428C86.135 192.705 86.0222 191.92 85.7912 191.118C85.5603 190.316 85.2158 189.512 84.7773 188.753C84.3389 187.993 83.8151 187.293 83.2359 186.692C82.6567 186.091 82.0334 185.601 81.4015 185.249C80.7697 184.898 80.1418 184.693 79.5536 184.645C78.9653 184.597 78.4284 184.707 77.9733 184.97C77.5182 185.233 77.154 185.642 76.9013 186.176C76.6487 186.709 76.5126 187.356 76.5008 188.078C76.4891 188.801 76.6019 189.586 76.8328 190.388C77.0637 191.19 77.4082 191.994 77.8467 192.754Z" fill="#343A3F"/>
<path d="M101.269 180.09C100.776 179.415 100.035 178.963 99.209 178.833C98.383 178.703 97.5392 178.907 96.8627 179.398L86.7608 186.756C84.4768 183.956 79.9819 183.12 77.6968 184.48C73.2551 187.155 77.966 197.431 83.3215 197.431C84.521 197.343 85.6659 196.894 86.606 196.144C87.5461 195.394 88.2375 194.377 88.5896 193.227L100.577 184.497C101.251 184.003 101.703 183.262 101.833 182.436C101.963 181.611 101.76 180.767 101.269 180.09ZM84.3727 196.055C82.7544 196.99 79.9852 195.351 78.3259 192.476C76.6667 189.602 76.6312 186.384 78.2495 185.45C79.8678 184.517 82.637 186.155 84.2963 189.029C85.9555 191.904 85.991 195.121 84.3727 196.055Z" fill="#343A3F"/>
<path d="M95.7275 184.502C95.7275 185.579 96.1557 186.613 96.9179 187.375C97.68 188.137 98.7137 188.566 99.7916 188.566C100.869 188.566 101.903 188.137 102.665 187.375C103.427 186.613 103.856 185.579 103.856 184.502C103.856 183.424 103.427 182.39 102.665 181.628C101.903 180.866 100.869 180.438 99.7916 180.438C98.7137 180.438 97.68 180.866 96.9179 181.628C96.1557 182.39 95.7275 183.424 95.7275 184.502Z" fill="white"/>
<path d="M99.7917 189.119C98.8784 189.119 97.9855 188.848 97.2261 188.34C96.4667 187.833 95.8749 187.112 95.5253 186.268C95.1758 185.424 95.0844 184.496 95.2626 183.6C95.4407 182.704 95.8805 181.881 96.5264 181.235C97.1722 180.59 97.995 180.15 98.8908 179.972C99.7866 179.793 100.715 179.885 101.559 180.234C102.403 180.584 103.124 181.176 103.631 181.935C104.139 182.695 104.41 183.587 104.41 184.501C104.408 185.725 103.921 186.899 103.055 187.764C102.19 188.63 101.016 189.117 99.7917 189.119ZM99.7917 180.99C99.0974 180.99 98.4188 181.196 97.8415 181.582C97.2643 181.968 96.8144 182.516 96.5487 183.157C96.283 183.799 96.2135 184.505 96.3489 185.185C96.4844 185.866 96.8187 186.492 97.3096 186.983C97.8005 187.474 98.426 187.808 99.1069 187.943C99.7878 188.079 100.494 188.009 101.135 187.744C101.776 187.478 102.325 187.028 102.71 186.451C103.096 185.874 103.302 185.195 103.302 184.501C103.301 183.57 102.931 182.678 102.273 182.02C101.615 181.361 100.722 180.991 99.7917 180.99Z" fill="#343A3F"/>
<path d="M97.9111 184.614C97.9111 187.49 99.5773 190.247 102.543 192.281C105.509 194.314 109.531 195.456 113.725 195.456C117.919 195.456 121.942 194.314 124.908 192.281C127.873 190.247 129.539 187.49 129.539 184.614C129.539 181.739 127.873 178.981 124.908 176.948C121.942 174.915 117.919 173.772 113.725 173.772C109.531 173.772 105.509 174.915 102.543 176.948C99.5773 178.981 97.9111 181.739 97.9111 184.614Z" fill="white"/>
<path d="M104.259 180.247C110.257 183.952 116.665 174.67 109.307 171.526C108.199 171.066 106.993 170.888 105.799 171.01C104.605 171.131 103.46 171.547 102.467 172.22C99.2288 174.368 101.666 178.642 104.259 180.247Z" fill="white"/>
<path d="M79.2189 169.027C78.2545 170.629 77.5835 172.39 77.2373 174.228C77.1987 174.369 77.1982 174.519 77.236 174.66C77.2737 174.802 77.3483 174.932 77.4522 175.035C77.7679 175.25 78.171 175.035 78.4491 174.745C79.4578 173.903 80.5053 173.095 81.5915 172.322L79.2189 169.027Z" fill="white"/>
<path d="M84.9609 174.619C84.9635 175.591 84.8576 176.56 84.6452 177.509C84.5923 177.642 84.5727 177.787 84.5881 177.93C84.6036 178.073 84.6536 178.21 84.7339 178.329C85.0573 178.608 85.4849 178.414 85.7684 178.108C86.9573 176.764 87.7945 175.147 88.2053 173.4L84.9609 174.619Z" fill="white"/>
<path d="M126.396 164.446L187.096 152.09C187.096 152.09 198.367 67.0211 199.452 29.5898C178.375 35.0429 148.968 40.1293 137.609 42.3125C133.299 93.5785 126.396 164.446 126.396 164.446Z" fill="white"/>
<path d="M82.4121 143.002L119.851 133.92C119.851 133.92 130.042 43.4024 131.122 5.96777C119.491 16.1406 96.9569 25.96 87.1374 27.7777C87.1319 99.0182 82.4121 143.002 82.4121 143.002Z" fill="white"/>
<path d="M126.396 164.446L119.846 133.966C119.846 133.966 130.036 43.4482 131.116 6.01465C132.567 17.6507 135.117 29.2756 137.651 42.3627C133.299 93.5788 126.396 164.446 126.396 164.446Z" fill="white"/>
<path d="M82.4123 143.003L37.3359 113.558V0.511719C37.3359 0.511719 56.236 9.59456 87.1321 27.7735C87.1321 99.0185 82.4123 143.003 82.4123 143.003Z" fill="white"/>
<path d="M200 29.6065C200.003 29.5205 199.985 29.435 199.949 29.3569C199.913 29.2787 199.86 29.2101 199.792 29.1563C199.725 29.1026 199.646 29.0652 199.562 29.0472C199.478 29.0292 199.391 29.0311 199.308 29.0526C179.148 34.2686 151.78 39.0427 138.082 41.6556C135.639 29.1003 133.097 17.4199 131.67 5.97666C131.673 5.86912 131.644 5.76311 131.588 5.67159C131.531 5.58006 131.449 5.50699 131.352 5.46129C131.255 5.41559 131.146 5.39925 131.039 5.41425C130.933 5.42925 130.833 5.47496 130.752 5.54578C119.389 15.4782 97.0071 25.3032 87.2331 27.1895C56.7734 9.28082 37.4048 0.10161 37.2131 0.0107812C37.0404 -0.0700783 36.7812 0.32425 36.7823 0.514768V112.779C36.7639 113.014 36.8099 113.249 36.9153 113.46C37.0206 113.671 37.1814 113.849 37.3804 113.975C42.3317 117.316 76.533 139.821 81.6759 143.141C82.0835 143.405 82.2486 143.606 83.3596 143.344C85.6602 142.799 93.3374 140.92 119.414 134.593L125.742 164.038C125.75 164.592 125.936 165.022 126.811 164.924C126.985 164.904 122.89 165.737 187.202 152.639C187.315 152.616 187.417 152.558 187.496 152.474C187.574 152.39 187.624 152.284 187.64 152.17C187.752 151.311 198.927 66.639 200 29.6065ZM37.8921 1.39758C41.821 3.29833 59.6699 12.2759 86.5784 28.0923C86.5784 61.804 85.2171 109.048 81.9539 142.041L37.8921 113.258V1.39758ZM87.6861 28.2296C97.3338 26.2835 118.514 17.2028 130.524 7.19731C129.305 43.6395 120.054 127.061 119.336 133.471L83.0405 142.282C86.2816 110.969 87.6761 61.9436 87.6861 28.2296ZM131.431 12.2427C132.908 21.8041 134.984 31.5161 137.06 42.2084C136.804 43.4877 135.14 68.2241 126.19 160.839L120.406 133.932C120.759 130.79 129.597 51.629 131.431 12.2427ZM186.593 151.627L127.02 163.753C127.769 156.042 134.109 90.5679 138.176 42.7666C150.711 40.3719 178.303 35.5757 198.876 30.3109C197.716 66.3477 187.418 145.35 186.593 151.627Z" fill="#343A3F"/>
<path d="M90.4636 74.9888C89.9208 75.1527 89.7702 76.5661 89.4412 76.9826C88.811 76.73 88.8232 75.8339 88.9982 75.1771C89.1558 74.5645 89.35 73.962 89.5797 73.3727C89.8699 72.8044 90.097 71.9593 89.5797 71.5428C89.3866 71.419 89.1579 71.3627 88.9294 71.3827C88.7009 71.4028 88.4855 71.498 88.3169 71.6536C87.9946 71.9585 87.7484 72.3349 87.5981 72.7524L86.8028 74.456C86.7938 73.5189 86.8871 72.5837 87.0808 71.6669C87.1827 71.4158 87.1827 71.1348 87.0808 70.8838C86.61 70.3044 85.8624 70.8262 85.6043 71.5273C85.1636 72.4786 84.9188 73.5089 84.8843 74.5568L84.809 72.1465C84.7757 71.5849 84.4667 71.4819 84.1898 71.5927C83.9237 71.7915 83.7037 72.0455 83.5448 72.3372C83.3859 72.6289 83.292 72.9515 83.2693 73.283C83.06 74.46 83.06 75.6648 83.2693 76.8419L87.1816 82.3071C88.1693 81.8492 89.0467 81.1838 89.754 80.3561C90.4612 79.5284 90.9817 78.558 91.28 77.5109C91.4605 76.9316 91.5746 74.6731 90.4636 74.9888Z" fill="white"/>
<path d="M16.5177 89.7894C15.7313 84.7417 18.5115 80.0142 24.0144 79.9954C25.4787 79.9954 27.2709 80.2922 28.8106 80.3864C30.1425 80.3878 31.4707 80.5274 32.7738 80.8029C32.684 81.4993 32.7349 82.2066 32.9235 82.883C33.112 83.5594 33.4344 84.1911 33.8715 84.7406C35.7025 83.6174 37.9865 82.4699 39.8529 83.479C41.1156 84.1602 42.0748 85.7375 43.4373 85.3842C44.7997 85.0308 44.988 82.8609 46.7193 82.9872C48.4506 83.1135 50.5075 84.2411 52.1335 84.6775C55.7037 85.6883 59.4527 85.8997 63.1138 85.2967C69.0317 84.2086 74.5969 81.6999 79.3311 77.9861C80.2216 77.2802 81.1874 76.675 82.211 76.1817C82.7262 75.9423 83.2835 75.8068 83.851 75.7831C84.4185 75.7593 84.9852 75.8477 85.5185 76.0432C86.1661 76.4029 86.7196 76.9104 87.134 77.5244C87.5484 78.1384 87.812 78.8416 87.9033 79.5767C88.2649 82.0441 87.6981 84.5579 86.3127 86.6314C84.9006 88.6867 83.0575 90.4096 80.9118 91.6801C76.2308 94.4821 70.965 96.1627 65.5263 96.5904C60.13 96.9909 54.7098 96.9442 49.3212 96.4508C49.1704 99.445 48.0797 102.315 46.2042 104.654C45.7581 105.096 45.4397 105.65 45.2826 106.258C45.2306 106.863 44.9359 105.289 49.371 125.479C49.6491 126.741 45.42 128.846 44.4973 129.152C36.2149 131.948 27.2625 132.064 18.9103 129.485C17.4587 128.998 16.092 128.288 14.8595 127.38C13.691 126.547 12.3573 126.216 11.4391 124.97C11.3002 124.786 11.2131 124.568 11.1865 124.339C11.1986 124.038 11.2996 123.748 11.4767 123.506C14.5973 118.003 17.1716 112.207 19.1628 106.203C19.9127 103.953 18.5636 101.405 18.1028 99.1214C17.4991 96.103 17.0073 92.9362 16.5177 89.7894Z" fill="#F2F4F8"/>
<path d="M90.6529 169.633L88.4575 173.418C88.2866 173.805 88.0126 174.139 87.6653 174.381C87.318 174.624 86.9108 174.766 86.4881 174.793C84.9882 174.938 83.4825 174.585 82.2031 173.789C80.9236 172.993 79.9415 171.798 79.4079 170.389C79.194 169.82 79.1542 169.201 79.2934 168.609C79.4327 168.017 79.7447 167.48 80.1899 167.066C81.0627 165.819 82.0796 164.68 83.2194 163.671C87.938 159.505 94.3115 164.184 90.6529 169.633Z" fill="#343A3F"/>
<path d="M82.8535 163.261C81.6991 164.28 80.6692 165.433 79.7853 166.694C79.2239 167.3 78.8406 168.049 78.6777 168.859C77.7215 170.472 77.0543 172.239 76.706 174.081C76.6415 174.334 76.6482 174.6 76.7252 174.849C76.8022 175.098 76.9466 175.321 77.1424 175.493C77.4118 175.648 77.7281 175.701 78.0333 175.642C78.3385 175.582 78.6122 175.415 78.8039 175.17C79.4752 174.616 80.1719 174.063 80.8819 173.528C81.8723 174.415 83.0865 175.016 84.3932 175.263C84.3612 175.949 84.2738 176.632 84.1318 177.304C83.578 178.693 85.0744 179.687 86.1843 178.469C87.2446 177.268 88.0412 175.858 88.5226 174.33C89.4655 172.915 90.3304 171.451 91.1134 169.942C91.6343 169.168 92.0065 168.305 92.2111 167.395C93.1371 161.858 86.8677 159.722 82.8535 163.261ZM77.786 174.559C77.9618 173.228 78.3523 171.934 78.9424 170.729C79.2241 171.451 79.6185 172.124 80.111 172.722C79.6513 173.069 78.1227 174.415 77.786 174.556V174.559ZM85.1453 177.892C85.3161 177.066 85.4327 176.23 85.4942 175.389C85.9865 175.408 86.4793 175.373 86.9641 175.286C86.528 176.26 85.9108 177.144 85.1453 177.889V177.892ZM90.1752 169.363L87.9599 173.175C87.8352 173.484 87.6239 173.75 87.3515 173.941C87.0791 174.132 86.7572 174.24 86.4247 174.252C85.0425 174.403 83.6498 174.085 82.4701 173.349C81.2904 172.613 80.3921 171.502 79.9193 170.195C79.7446 169.71 79.7198 169.184 79.8482 168.685C79.9766 168.186 80.2523 167.737 80.6393 167.397C81.4883 166.186 82.476 165.08 83.5824 164.099C87.7915 160.384 93.5192 164.364 90.1752 169.355V169.363Z" fill="#343A3F"/>
<path d="M92.4723 156.75C88.6475 158.169 85.8484 161.581 85.6147 162.906C85.0343 166.197 89.6344 168.419 91.4698 165.103C92.2931 163.572 93.6756 162.418 95.3289 161.883C95.6022 161.837 95.8518 161.699 96.0364 161.493C96.2211 161.286 96.3298 161.023 96.3447 160.746C96.6448 158.015 94.9712 155.821 92.4723 156.75Z" fill="#343A3F"/>
<path d="M92.7109 159.663C92.7109 160.53 92.8817 161.388 93.2134 162.189C93.5451 162.99 94.0313 163.717 94.6442 164.33C95.2571 164.943 95.9848 165.429 96.7856 165.761C97.5864 166.093 98.4447 166.264 99.3115 166.264C100.178 166.264 101.037 166.093 101.837 165.761C102.638 165.429 103.366 164.943 103.979 164.33C104.592 163.717 105.078 162.99 105.41 162.189C105.741 161.388 105.912 160.53 105.912 159.663C105.912 158.796 105.741 157.938 105.41 157.137C105.078 156.336 104.592 155.609 103.979 154.996C103.366 154.383 102.638 153.897 101.837 153.565C101.037 153.233 100.178 153.062 99.3115 153.062C98.4447 153.062 97.5864 153.233 96.7856 153.565C95.9848 153.897 95.2571 154.383 94.6442 154.996C94.0313 155.609 93.5451 156.336 93.2134 157.137C92.8817 157.938 92.7109 158.796 92.7109 159.663Z" fill="white"/>
<path d="M99.3119 166.817C97.8966 166.817 96.513 166.398 95.3361 165.611C94.1592 164.825 93.2419 163.708 92.7002 162.4C92.1584 161.093 92.0167 159.654 92.2927 158.266C92.5688 156.878 93.2503 155.602 94.2511 154.602C95.2519 153.601 96.527 152.919 97.9151 152.643C99.3032 152.367 100.742 152.509 102.05 153.051C103.357 153.592 104.475 154.51 105.261 155.687C106.047 156.864 106.467 158.247 106.466 159.662C106.464 161.559 105.709 163.378 104.368 164.719C103.027 166.06 101.209 166.815 99.3119 166.817ZM99.3119 153.615C98.1157 153.614 96.9463 153.969 95.9516 154.633C94.9569 155.298 94.1815 156.242 93.7236 157.347C93.2657 158.452 93.1458 159.668 93.379 160.842C93.6122 162.015 94.1882 163.093 95.0339 163.939C95.8797 164.784 96.9573 165.361 98.1305 165.594C99.3037 165.827 100.52 165.708 101.625 165.25C102.73 164.792 103.675 164.017 104.339 163.023C105.004 162.028 105.359 160.859 105.359 159.662C105.357 158.059 104.719 156.522 103.586 155.388C102.452 154.255 100.915 153.617 99.3119 153.615Z" fill="#343A3F"/>
<path d="M97.9229 152.204V176.676C101.8 176.436 102.4 172.91 106.645 173.533C112.698 174.419 112.211 179.847 118.268 182.616C124.326 185.385 129.899 178.375 129.899 178.375V154.627L97.9229 152.204Z" fill="white"/>
<path d="M129.946 154.075L97.9645 151.651C97.8884 151.645 97.8118 151.655 97.7397 151.68C97.6675 151.706 97.6014 151.746 97.5454 151.798C97.4895 151.85 97.4449 151.913 97.4144 151.983C97.384 152.053 97.3684 152.128 97.3686 152.205V176.676C97.3685 176.752 97.3839 176.827 97.4138 176.897C97.4438 176.966 97.4877 177.029 97.5428 177.081C97.5979 177.133 97.6631 177.173 97.7343 177.198C97.8055 177.224 97.8812 177.235 97.9568 177.23C98.9259 177.173 99.8688 176.893 100.713 176.413C100.818 176.744 100.943 177.067 101.089 177.382C99.9723 178.238 99.0584 179.331 98.4131 180.581C97.7677 181.832 97.4069 183.21 97.3564 184.616C97.3564 190.9 104.699 196.012 113.724 196.012C122.75 196.012 130.092 190.9 130.092 184.616C130.082 183.088 129.657 181.591 128.863 180.285C129.39 179.8 129.883 179.279 130.338 178.726C130.524 178.492 130.458 179.993 130.458 154.63C130.459 154.489 130.406 154.354 130.311 154.251C130.216 154.148 130.086 154.085 129.946 154.075ZM101.684 175.785C103.346 174.62 104.284 173.729 106.567 174.077C109.368 174.473 110.665 175.925 111.994 177.667C110.708 179.274 107.896 181.921 104.561 179.781C103.139 178.854 102.113 177.431 101.684 175.789V175.785ZM101.625 178.347C102.382 179.56 103.472 180.529 104.766 181.138C103.826 182.807 103.257 184.658 103.098 186.567C102.938 188.475 103.191 190.395 103.84 192.197C103.879 192.308 103.923 192.412 103.97 192.515C97.7419 189.021 96.57 182.782 101.625 178.351V178.347ZM128.985 184.61C128.985 192.481 116.247 197.492 106.085 193.513C105.55 193.057 105.136 192.475 104.881 191.82C104.275 190.136 104.047 188.339 104.212 186.556C104.376 184.774 104.93 183.049 105.833 181.504C108.512 182.145 110.923 180.702 112.69 178.575C117.551 184.921 122.88 185.234 128.022 181.012C128.647 182.11 128.978 183.351 128.985 184.614V184.61ZM129.35 178.174C128.528 179.131 123.631 184.464 118.495 182.112C112.636 179.427 113.045 173.876 106.723 172.981C102.457 172.332 101.602 175.517 98.473 176.051V164.087C100.193 166.055 102.371 167.57 104.815 168.495C104.839 168.845 104.97 169.179 105.19 169.451C105.41 169.724 105.709 169.922 106.046 170.018C106.383 170.115 106.742 170.104 107.073 169.99C107.404 169.875 107.691 169.66 107.896 169.376C109.386 169.666 110.901 169.808 112.42 169.801C118.357 169.703 124.176 168.122 129.347 165.203L129.35 178.174ZM129.35 163.902C129.239 163.927 119.423 170.472 108.218 168.306C108.201 167.95 108.073 167.609 107.852 167.33C107.631 167.051 107.328 166.848 106.985 166.75C106.643 166.652 106.279 166.664 105.943 166.784C105.608 166.905 105.319 167.127 105.117 167.42C102.462 166.392 100.157 164.623 98.4774 162.324V156.32C100.929 159.489 104.476 161.627 108.423 162.316C112.073 163.048 115.84 162.969 119.456 162.084C123.073 161.2 126.451 159.532 129.351 157.198L129.35 163.902ZM129.35 155.744C129.333 155.756 129.316 155.769 129.3 155.783C126.502 158.204 123.186 159.953 119.608 160.896C116.029 161.839 112.282 161.951 108.654 161.222C103.83 160.192 100.125 157.611 98.4763 154.133V152.797L129.35 155.137V155.744Z" fill="#343A3F"/>
<path d="M33.9674 76.5885C33.6085 75.6148 32.5352 74.4839 32.1807 73.7008C31.5004 72.4486 31.3033 70.9903 31.6269 69.6024C30.8837 71.8011 27.461 68.7905 27.9716 65.2227C28.5698 61.0069 30.7685 58.9987 34.6231 57.4691C41.1584 54.8849 50.5403 60.1097 49.6796 68.6387C49.2543 72.8545 47.3159 77.2143 43.243 79.0131C40.8803 80.0566 39.3052 79.2657 37.0334 79.0131C37.2483 80.2759 37.4876 81.5375 37.7146 82.8002C36.587 83.439 35.4513 84.0445 34.3075 84.6168C34.2731 84.6335 34.2355 84.642 34.1973 84.6418C34.1592 84.6416 34.1216 84.6326 34.0875 84.6156C34.0533 84.5986 34.0236 84.574 34.0004 84.5437C33.9773 84.5133 33.9615 84.4781 33.9541 84.4407C33.183 82.5233 33.1159 80.3948 33.7647 78.4327C33.9207 78.1547 34.0191 77.8481 34.0539 77.5312C34.0887 77.2144 34.0593 76.8937 33.9674 76.5885Z" fill="white"/>
<path d="M32.4053 70.8216C32.4053 71.6691 32.742 72.4819 33.3412 73.0812C33.9405 73.6805 34.7534 74.0172 35.6009 74.0172C36.4484 74.0172 37.2612 73.6805 37.8605 73.0812C38.4598 72.4819 38.7965 71.6691 38.7965 70.8216C38.7965 69.9741 38.4598 69.1612 37.8605 68.5619C37.2612 67.9627 36.4484 67.626 35.6009 67.626C34.7534 67.626 33.9405 67.9627 33.3412 68.5619C32.742 69.1612 32.4053 69.9741 32.4053 70.8216Z" fill="#FF5470"/>
<path d="M45.9854 73.6552C45.9854 74.3926 46.2783 75.0998 46.7997 75.6212C47.3211 76.1426 48.0282 76.4355 48.7656 76.4355C49.503 76.4355 50.2101 76.1426 50.7315 75.6212C51.2529 75.0998 51.5458 74.3926 51.5458 73.6552C51.5458 72.9179 51.2529 72.2107 50.7315 71.6893C50.2101 71.1679 49.503 70.875 48.7656 70.875C48.0282 70.875 47.3211 71.1679 46.7997 71.6893C46.2783 72.2107 45.9854 72.9179 45.9854 73.6552Z" fill="#FF5470"/>
<path d="M46.2054 69.5359C46.4923 68.8403 47.0716 68.3429 47.6299 68.477C47.9732 68.6081 48.3521 68.6116 48.6977 68.4869C49.0056 68.3762 49.5163 68.9854 48.9868 69.3033C48.8575 69.3962 48.71 69.4606 48.554 69.4923C48.398 69.524 48.2371 69.5223 48.0818 69.4872C48.1182 69.8057 48.0684 70.1281 47.9378 70.4209C47.1979 71.7346 45.6029 70.9991 46.2054 69.5359Z" fill="#343A3F"/>
<path d="M38.1498 66.8808C38.4367 66.1852 39.016 65.6879 39.5742 65.823C39.9176 65.9538 40.2965 65.957 40.642 65.8319C40.95 65.7211 41.4606 66.3314 40.9311 66.6493C40.8017 66.7419 40.6542 66.8061 40.4983 66.8378C40.3423 66.8695 40.1815 66.8679 40.0262 66.8332C40.0625 67.1514 40.0128 67.4735 39.8822 67.7658C39.1423 69.0762 37.5472 68.3451 38.1498 66.8808Z" fill="#343A3F"/>
<path d="M33.9096 78.0556C34.4867 79.5057 35.568 80.6987 36.9546 81.4152C36.7059 80.5436 36.5693 79.644 36.548 78.7379C35.1978 77.8297 34.5066 77.0465 33.9849 76.7441C33.9175 77.1778 33.8923 77.6171 33.9096 78.0556Z" fill="white"/>
<path d="M45.2182 73.7284C45.0963 73.7284 44.9779 73.6883 44.8812 73.6142C44.7844 73.5401 44.7149 73.4362 44.6832 73.3185C44.2869 71.8477 43.9872 70.3524 43.786 68.8425C43.7391 68.609 43.753 68.3674 43.8263 68.1409C43.8996 67.9143 44.0299 67.7104 44.2047 67.5487C44.5444 67.1704 44.9181 66.8241 45.3212 66.5141C45.3785 66.4669 45.4446 66.4317 45.5157 66.4106C45.5869 66.3895 45.6615 66.3829 45.7353 66.3912C45.809 66.3994 45.8803 66.4225 45.945 66.4588C46.0097 66.4952 46.0664 66.5442 46.1117 66.603C46.1571 66.6617 46.1902 66.7289 46.2091 66.8007C46.2279 66.8725 46.2322 66.9473 46.2216 67.0207C46.211 67.0942 46.1857 67.1647 46.1473 67.2282C46.1089 67.2917 46.0581 67.3468 45.998 67.3903C45.5666 67.7128 45.1825 68.0942 44.8571 68.5234C44.8648 68.509 44.8659 68.5966 44.8803 68.6752C45.0759 70.1444 45.3671 71.5993 45.7521 73.0305C45.7742 73.1125 45.7771 73.1985 45.7606 73.2819C45.7442 73.3652 45.7088 73.4436 45.6571 73.5111C45.6055 73.5785 45.5391 73.6332 45.463 73.6709C45.3869 73.7086 45.3031 73.7282 45.2182 73.7284Z" fill="#343A3F"/>
<path d="M40.9034 65.0959C40.4148 64.7713 39.845 64.5901 39.2586 64.5729C38.6722 64.5557 38.0928 64.7031 37.5859 64.9984C37.4594 65.0646 37.3121 65.0794 37.1749 65.0396C37.0377 64.9998 36.9212 64.9085 36.8497 64.7848C36.7782 64.6612 36.7573 64.5147 36.7913 64.3759C36.8253 64.2372 36.9116 64.1169 37.0321 64.0403C37.7169 63.641 38.4998 63.4416 39.2922 63.4647C40.0845 63.4878 40.8545 63.7325 41.5148 64.171C41.6375 64.2521 41.7229 64.3786 41.7523 64.5226C41.7817 64.6667 41.7526 64.8165 41.6716 64.9392C41.5905 65.0618 41.464 65.1472 41.3199 65.1766C41.1759 65.206 41.026 65.177 40.9034 65.0959Z" fill="#343A3F"/>
<path d="M30.61 66.5286C30.5358 66.0357 30.2379 65.1429 29.6419 65.2813C29.5703 65.2999 29.4957 65.3039 29.4226 65.2932C29.3494 65.2824 29.2791 65.2571 29.2159 65.2188C29.1526 65.1804 29.0977 65.1298 29.0543 65.0699C29.011 65.0099 28.9801 64.9419 28.9634 64.8699C28.9468 64.7978 28.9447 64.7231 28.9574 64.6503C28.9701 64.5774 28.9972 64.5078 29.0373 64.4456C29.0773 64.3834 29.1293 64.3298 29.1904 64.2881C29.2514 64.2463 29.3202 64.2172 29.3927 64.2025C29.714 64.1273 30.0505 64.1504 30.3584 64.2689C30.6664 64.3875 30.9316 64.5959 31.1196 64.8671C31.4231 65.3164 31.6232 65.8275 31.7055 66.3635C31.7163 66.4355 31.7129 66.5088 31.6954 66.5794C31.6779 66.65 31.6466 66.7165 31.6034 66.775C31.5602 66.8335 31.5059 66.883 31.4436 66.9205C31.3813 66.9581 31.3122 66.983 31.2403 66.9938C31.1684 67.0046 31.095 67.0012 31.0244 66.9837C30.9538 66.9662 30.8873 66.9349 30.8288 66.8917C30.7703 66.8485 30.7208 66.7942 30.6833 66.7319C30.6458 66.6696 30.6209 66.6005 30.61 66.5286Z" fill="#343A3F"/>
<path d="M43.3567 76.0266C42.0114 76.3936 40.614 76.5322 39.2229 76.4364C39.1501 76.4315 39.0791 76.4122 39.0138 76.3798C38.9485 76.3474 38.8902 76.3025 38.8423 76.2476C38.7944 76.1926 38.7577 76.1288 38.7345 76.0597C38.7112 75.9906 38.7018 75.9177 38.7067 75.8449C38.7117 75.7722 38.7309 75.7012 38.7633 75.6359C38.7957 75.5705 38.8406 75.5123 38.8956 75.4643C38.9505 75.4164 39.0143 75.3798 39.0834 75.3565C39.1525 75.3332 39.2255 75.3238 39.2982 75.3287C40.5656 75.4161 41.8387 75.2899 43.0643 74.9555C43.2063 74.9167 43.3579 74.9359 43.4858 75.0089C43.6136 75.082 43.7072 75.2028 43.746 75.3448C43.7848 75.4869 43.7656 75.6385 43.6926 75.7663C43.6195 75.8942 43.4987 75.9878 43.3567 76.0266Z" fill="#343A3F"/>
<path d="M55.9422 59.1464C55.2816 56.5354 53.8896 54.1671 51.9296 52.3198C49.9697 50.4725 47.5233 49.2229 44.8777 48.7178C42.8192 48.0933 40.6504 47.9192 38.5186 48.2073C36.3868 48.4953 34.3419 49.2387 32.5229 50.387C29.5263 52.4093 27.438 55.5218 26.7029 59.0614C25.9677 62.6009 26.6439 66.2876 28.5873 69.3358C28.8772 69.7754 29.2721 70.1357 29.7362 70.3842C30.2004 70.6328 30.7192 70.7616 31.2457 70.7592C31.353 72.8408 32.0625 74.8464 33.2883 76.5323C33.0944 77.9943 32.7859 79.4387 32.3656 80.8522C32.1573 81.5567 33.1797 82.0142 33.3857 81.3119C33.7452 80.093 34.0326 78.8539 34.2464 77.6012C38.2672 81.4415 44.3117 80.9464 47.8806 75.5266C47.5619 76.9758 47.0497 78.3755 46.3576 79.6881C46.2997 79.7976 46.2801 79.9233 46.3021 80.0452C46.324 80.1671 46.3862 80.2782 46.4787 80.3606C46.5712 80.443 46.6886 80.492 46.8122 80.4998C46.9359 80.5076 47.0585 80.4737 47.1606 80.4036C48.7901 79.2867 50.2779 77.976 51.5913 76.5002C55.6974 71.2178 57.0321 63.957 55.9422 59.1464ZM48.2395 72.8815C46.8738 76.3496 44.2275 78.9282 40.5224 79.2295C35.0949 79.3801 31.5902 74.1575 32.1673 69.019C32.1673 68.9015 32.1206 68.7888 32.0375 68.7057C31.9544 68.6227 31.8417 68.576 31.7242 68.576C31.6067 68.576 31.494 68.6227 31.4109 68.7057C31.3278 68.7888 31.2812 68.9015 31.2812 69.019C31.2598 69.2295 31.2446 69.44 31.2358 69.6504C30.8963 69.6488 30.5624 69.5647 30.2627 69.4053C29.9631 69.2459 29.7066 69.016 29.5155 68.7355C29.0755 68.0344 28.816 67.2352 28.7601 66.4094C28.5851 65.4291 28.6914 63.6868 29.6872 63.586C31.4595 63.401 31.4717 65.3793 31.8106 67.1416C31.8335 67.26 31.8945 67.3678 31.9842 67.4484C32.0739 67.5291 32.1876 67.5783 32.3078 67.5884C32.428 67.5986 32.5483 67.5692 32.6503 67.5047C32.7523 67.4402 32.8305 67.3442 32.8729 67.2313C33.701 65.0285 34.7902 62.933 36.1172 60.9896C36.7464 62.2824 37.685 63.3999 38.8498 64.2428C39.5268 64.9927 40.4692 65.4496 41.4772 65.5166C41.5945 65.5257 41.7117 65.4972 41.8117 65.4352C41.9117 65.3732 41.9894 65.2809 42.0335 65.1718C42.0775 65.0627 42.0857 64.9424 42.0568 64.8283C42.0279 64.7143 41.9634 64.6124 41.8727 64.5374C41.5924 63.5288 41.5149 62.4747 41.6445 61.436C43.245 63.5616 44.2154 63.8595 45.3795 65.0547C46.1969 65.7383 46.8888 66.5592 47.4243 67.4805C48.1417 69.1844 48.4219 71.0406 48.2395 72.8804V72.8815Z" fill="#343A3F"/>
<path d="M45.5459 79.0271C45.6661 78.8871 45.7562 78.7238 45.8106 78.5475C45.8282 78.3272 45.7589 78.1088 45.6175 77.9391C45.4761 77.7693 45.2739 77.6616 45.0541 77.6392C44.6151 77.6061 44.1761 77.7024 43.7913 77.9161C42.2648 78.6326 40.8898 79.635 39.7406 80.8691C39.4656 80.1739 39.0334 79.5518 38.4778 79.0515C38.2867 78.8247 38.0291 78.6638 37.7415 78.5914C37.4538 78.5191 37.1508 78.539 36.8751 78.6483C35.7973 79.3062 36.9537 81.7763 37.6582 82.8253C39.4916 83.4992 41.176 84.524 42.6172 85.8426C43.2614 85.6478 43.859 85.3234 44.3733 84.8893C44.8876 84.4552 45.3077 83.9206 45.6079 83.3182C46.0509 82.6137 45.3088 81.5991 44.889 81.1981C44.7309 81.0498 44.5391 80.942 44.3302 80.8841C44.1212 80.8262 43.9013 80.82 43.6894 80.8658C44.3686 80.317 44.9906 79.701 45.5459 79.0271Z" fill="white"/>
<path d="M17.439 175.894L22.9774 170.567C22.9774 170.567 13.0992 170.242 15.5305 167.665C18.5212 164.488 26.6072 166.023 26.6072 166.023L32.7913 160.117C32.7913 160.117 11.8398 157.441 3.52345 165.809C-4.79289 174.178 17.439 175.894 17.439 175.894Z" fill="#343A3F"/>
<path d="M32.8689 159.573C32.0027 159.462 11.5508 156.961 3.13805 165.424C1.36579 167.212 0.748818 168.897 1.31927 170.432C3.12587 175.295 16.8144 176.407 17.3959 176.451C17.4739 176.457 17.5524 176.447 17.6261 176.42C17.6998 176.394 17.767 176.352 17.8235 176.298L23.3618 170.973C23.4402 170.897 23.4947 170.8 23.5184 170.694C23.542 170.588 23.5338 170.477 23.4948 170.375C23.4558 170.273 23.3877 170.186 23.2991 170.122C23.2104 170.059 23.1051 170.024 22.9963 170.02C21.142 169.958 14.6544 169.403 15.9349 168.049C18.6819 165.127 26.4311 166.559 26.5087 166.573C26.5952 166.59 26.6845 166.585 26.7691 166.56C26.8537 166.536 26.9311 166.491 26.9949 166.43L33.179 160.523C33.2548 160.451 33.3086 160.359 33.3342 160.257C33.3598 160.156 33.3562 160.049 33.3237 159.95C33.2913 159.85 33.2313 159.762 33.1508 159.695C33.0703 159.629 32.9726 159.586 32.8689 159.573ZM26.4344 165.435C24.9225 165.185 18.0007 164.238 15.1307 167.29C12.7304 169.828 18.0815 170.818 21.6726 171.061L20.0975 172.575L15.236 171.967C15.1635 171.958 15.09 171.963 15.0194 171.982C14.9489 172.001 14.8828 172.033 14.825 172.078C14.0718 172.67 12.0625 173.039 12.8844 171.938C12.9438 171.861 12.9814 171.768 12.9935 171.671C13.0056 171.574 12.9917 171.475 12.9532 171.385C12.9147 171.295 12.8529 171.217 12.7743 171.158C12.6957 171.1 12.6029 171.063 12.5056 171.052C11.5652 170.942 8.78271 170.34 8.3474 169.086C8.08156 168.318 8.80707 167.374 9.4617 166.719C13.8924 162.324 25.2648 162.732 28.9898 162.99L26.4344 165.435ZM30.0632 161.971C27.9586 161.763 14.0364 160.621 8.68523 165.94C5.70118 168.926 7.43246 171.22 11.6039 172.033C11.5221 172.225 11.4918 172.435 11.5163 172.642C11.5407 172.85 11.6189 173.047 11.7431 173.215C11.8674 173.383 12.0334 173.516 12.2246 173.6C12.4159 173.684 12.6257 173.716 12.8334 173.694C13.7084 173.799 14.5919 173.585 15.3212 173.09L19.0762 173.559L17.2408 175.323C13.2998 174.991 3.63096 173.458 2.36269 170.043C1.95728 168.949 2.48342 167.656 3.92892 166.202C9.88483 160.211 23.1502 159.803 31.553 160.553L30.0632 161.971Z" fill="#343A3F"/>
<path d="M41.9862 188.38V187.529C41.9862 187.383 41.9278 187.242 41.824 187.138C41.7201 187.034 41.5792 186.976 41.4324 186.976C41.2855 186.976 41.1446 187.034 41.0407 187.138C40.9369 187.242 40.8785 187.383 40.8785 187.529V188.416C39.1495 188.874 39.5327 190.805 41.5199 190.805C43.6156 190.808 43.8759 188.726 41.9862 188.38Z" fill="#343A3F"/>
<path d="M33.5583 195.551L31.9212 194.856C32.1161 193.546 31.0661 192.901 30.1644 193.581C29.8641 193.827 29.6275 194.142 29.4746 194.498C29.3217 194.855 29.257 195.244 29.2861 195.631C29.4267 196.815 30.726 197.081 31.5202 195.889L33.1241 196.571C33.2594 196.629 33.412 196.63 33.5484 196.576C33.6848 196.521 33.7937 196.414 33.8513 196.278C33.9089 196.143 33.9104 195.991 33.8554 195.854C33.8005 195.718 33.6936 195.609 33.5583 195.551Z" fill="#343A3F"/>
<path d="M48.0732 193.159C48.1536 191.431 48.3464 189.711 48.6503 188.009C48.8502 186.802 49.2198 185.629 49.748 184.525C50.2856 183.411 51.2163 182.534 52.361 182.064C56.8792 180.525 59.4645 183.846 59.6937 187.794C59.8218 189.772 59.7795 191.757 59.5675 193.727C59.5675 193.727 59.3282 196.794 54.1532 196.794C48.1452 196.79 48.0732 193.159 48.0732 193.159Z" fill="white"/>
<path d="M54.1537 197.344C47.6783 197.344 47.5177 193.208 47.5166 193.167C47.583 191.4 47.78 189.641 48.1059 187.903C48.3022 186.643 48.6887 185.42 49.2523 184.277C49.8448 183.037 50.8796 182.063 52.1533 181.547C53.0098 181.193 53.9388 181.05 54.8622 181.13C55.7856 181.21 56.6762 181.511 57.459 182.007C58.3326 182.691 59.038 183.565 59.5213 184.563C60.0046 185.562 60.2528 186.658 60.247 187.767C60.3896 189.773 60.3466 191.788 60.1185 193.786C60.1085 193.917 59.7762 197.344 54.1537 197.344ZM48.6243 193.152C48.6409 193.41 48.9411 196.236 54.1537 196.236C58.7627 196.236 59.0142 193.705 59.0164 193.68C59.2383 191.738 59.2802 189.78 59.1415 187.83C58.9643 183.87 56.43 181.258 52.5399 182.585C51.5329 183.001 50.7165 183.777 50.2492 184.761C49.7311 185.81 49.3766 186.933 49.198 188.09C48.8843 189.763 48.6926 191.456 48.6243 193.157V193.152Z" fill="#343A3F"/>
<path d="M54.9224 188.158C53.1025 188.158 50.4917 187.146 50.2857 185.319C50.2693 185.173 50.3115 185.027 50.4031 184.912C50.4947 184.797 50.6282 184.723 50.7742 184.707C50.9202 184.69 51.0668 184.732 51.1816 184.824C51.2965 184.916 51.3703 185.049 51.3867 185.195C51.4709 185.946 52.439 186.414 52.8511 186.587C54.5702 187.384 56.7179 187.271 57.5298 185.551C57.5999 185.431 57.7122 185.342 57.8446 185.302C57.977 185.261 58.1198 185.271 58.2449 185.331C58.37 185.39 58.4684 185.494 58.5205 185.622C58.5727 185.751 58.5749 185.894 58.5267 186.024C58.2068 186.698 57.6928 187.261 57.0507 187.642C56.4085 188.022 55.6674 188.202 54.9224 188.158Z" fill="#343A3F"/>
<path d="M67.3806 195.721C68.3288 195.623 69.2801 195.875 70.0567 196.427C70.4431 196.71 70.7033 197.132 70.7812 197.604C70.8591 198.077 70.7485 198.56 70.4732 198.952C70.1715 199.21 69.8192 199.403 69.4389 199.517C69.0586 199.631 68.6586 199.665 68.2645 199.616C65.3735 199.616 62.5346 199.616 59.6436 199.806C61.0702 197.071 64.5284 195.809 67.3806 195.721Z" fill="white"/>
<path d="M67.3444 195.168C64.5674 195.259 60.7626 196.46 59.1476 199.554C59.1022 199.641 59.0808 199.739 59.0856 199.837C59.0904 199.935 59.1212 200.03 59.1749 200.113C59.2285 200.195 59.3031 200.261 59.391 200.305C59.4789 200.349 59.5768 200.369 59.6749 200.363C62.5471 200.174 65.324 200.174 68.1917 200.17C72.783 200.738 72.2978 194.706 67.3444 195.168ZM68.2637 199.067C65.6818 199.067 63.225 199.067 60.7061 199.193C61.5641 198.277 62.6001 197.545 63.7507 197.043C64.9013 196.541 66.1422 196.28 67.3975 196.274H67.4341C70.7205 195.939 71.3397 199.428 68.2637 199.067Z" fill="#343A3F"/>
<path d="M63.0516 198.433C62.9047 198.433 62.7639 198.375 62.66 198.271C62.5561 198.167 62.4978 198.026 62.4978 197.88C62.4978 195.703 62.4092 196.957 62.4092 195.152C62.4092 195.006 62.4675 194.865 62.5714 194.761C62.6753 194.657 62.8161 194.599 62.963 194.599C63.1099 194.599 63.2508 194.657 63.3546 194.761C63.4585 194.865 63.5168 195.006 63.5168 195.152C63.504 195.64 63.5322 196.128 63.601 196.611V197.88C63.601 198.026 63.5433 198.166 63.4404 198.27C63.3375 198.373 63.1977 198.432 63.0516 198.433Z" fill="#343A3F"/>
<path d="M68.5919 198.341C68.445 198.341 68.3042 198.283 68.2003 198.179C68.0964 198.075 68.0381 197.934 68.0381 197.787V194.694C68.0381 194.548 68.0964 194.407 68.2003 194.303C68.3042 194.199 68.445 194.141 68.5919 194.141C68.7388 194.141 68.8797 194.199 68.9835 194.303C69.0874 194.407 69.1458 194.548 69.1458 194.694V197.787C69.1458 197.934 69.0874 198.075 68.9835 198.179C68.8797 198.283 68.7388 198.341 68.5919 198.341Z" fill="#343A3F"/>
<path d="M55.8701 159.813C55.8701 160.945 56.5695 162.03 57.8144 162.83C59.0593 163.63 60.7478 164.079 62.5084 164.079C64.2689 164.079 65.9574 163.63 67.2023 162.83C68.4472 162.03 69.1466 160.945 69.1466 159.813C69.1466 158.682 68.4472 157.597 67.2023 156.797C65.9574 155.997 64.2689 155.548 62.5084 155.548C60.7478 155.548 59.0593 155.997 57.8144 156.797C56.5695 157.597 55.8701 158.682 55.8701 159.813Z" fill="white"/>
<path d="M62.5086 154.994C58.4756 154.994 55.3154 157.111 55.3154 159.814C55.3154 162.516 58.4756 164.634 62.5086 164.634C66.5416 164.634 69.7018 162.516 69.7018 159.814C69.7018 157.111 66.5416 154.994 62.5086 154.994ZM62.5086 163.523C59.21 163.523 56.4231 161.823 56.4231 159.81C56.4241 159.588 56.4577 159.368 56.5228 159.156L59.1291 159.437C59.1723 160.825 60.8515 161.904 62.9882 161.904C65.1526 161.904 66.8484 160.796 66.8484 159.382C66.8484 157.967 65.1526 156.859 62.9882 156.859C62.3211 156.811 61.6521 156.922 61.036 157.182C60.4199 157.443 59.8742 157.845 59.4437 158.357L57.1176 158.108C57.8324 157.427 58.6777 156.898 59.6025 156.553C60.5273 156.207 61.5125 156.053 62.4986 156.098C65.7973 156.098 68.5841 157.799 68.5841 159.81C68.5841 161.822 65.8072 163.526 62.5086 163.526V163.523ZM60.239 159.385C60.239 158.715 61.3688 157.97 62.9915 157.97C64.6143 157.97 65.7441 158.715 65.7441 159.385C65.7441 160.055 64.6132 160.799 62.9915 160.799C61.3699 160.799 60.239 160.054 60.239 159.385Z" fill="#343A3F"/>
<path d="M91.4376 74.7303C91.2931 74.583 91.1102 74.4793 90.9096 74.4312C90.709 74.383 90.4989 74.3922 90.3033 74.4579C90.142 74.5168 89.9946 74.6085 89.8703 74.727C89.7461 74.8456 89.6476 74.9885 89.5811 75.1468C89.719 74.6313 89.8835 74.1234 90.074 73.6249C90.6168 72.5615 90.5625 71.6211 89.8791 71.0773C89.5819 70.8871 89.2298 70.8012 88.8784 70.8333C88.527 70.8654 88.1963 71.0136 87.9384 71.2545C87.8531 71.3347 87.7721 71.4193 87.6959 71.5082C87.7532 71.1731 87.688 70.8286 87.512 70.5378C87.318 70.3017 87.0424 70.1471 86.7398 70.1046C86.4372 70.0621 86.1297 70.1349 85.8782 70.3086C85.523 70.5598 85.2502 70.9105 85.094 71.3165C84.9377 71.1529 84.7304 71.0473 84.5061 71.0171C84.2819 70.9869 84.054 71.0339 83.86 71.1504C83.5361 71.3892 83.2671 71.6947 83.0712 72.0463C82.8754 72.3978 82.7572 72.7873 82.7247 73.1885C82.5918 73.9373 82.539 74.6981 82.5674 75.4581C81.2768 75.9674 80.0729 76.6736 78.9985 77.5516C74.2751 81.115 68.8136 83.5751 63.0149 84.7514C57.1188 85.8181 52.1033 84.3172 46.205 82.2038C45.9503 81.5297 45.5011 80.9464 44.9145 80.5279C45.2836 80.1665 45.6326 79.7852 45.9602 79.3859C46.1337 79.1846 46.2638 78.9497 46.3423 78.6958C46.3731 78.5067 46.3647 78.3134 46.3176 78.1277C46.2706 77.9421 46.1859 77.7681 46.0689 77.6164C45.9519 77.4648 45.805 77.3389 45.6373 77.2464C45.4696 77.1538 45.2846 77.0967 45.094 77.0786C44.5602 77.039 44.0263 77.1544 43.5566 77.4109C42.2072 78.0423 40.9703 78.8902 39.8946 79.9209C39.6282 79.4618 39.2918 79.047 38.8977 78.6914C37.8787 77.4818 35.3344 77.6723 35.9812 80.437C36.185 81.2193 36.495 81.9699 36.9028 82.6679C36.0479 83.093 35.222 83.574 34.4305 84.1078C33.8696 83.171 33.5164 82.1247 33.3948 81.0396C33.3559 80.8525 33.2608 80.6818 33.1222 80.5502C32.9837 80.4186 32.8083 80.3323 32.6195 80.303C29.1525 79.7569 28.9088 79.7204 28.9088 79.7204C25.1372 79.14 20.444 78.4167 17.6848 81.9169C16.3926 83.9371 15.7784 86.3169 15.9314 88.7102C15.9911 94.0959 17.039 99.425 19.0229 104.432C16.8884 110.879 14.1951 117.127 10.9735 123.105C10.629 123.666 10.6069 123.936 10.7409 124.244C11.0723 124.921 11.5225 125.533 12.0701 126.051C11.395 128.232 11.349 130.56 11.9372 132.766C10.3942 132.988 10.0154 134.179 9.24111 135.335C8.16557 136.936 6.23713 137.731 4.38844 138.729C1.75773 140.152 0.335491 141.75 0.0519287 143.558C-0.238279 144.682 0.704344 145.569 2.46775 144.944C5.29246 143.845 8.38825 143.649 11.3291 144.382C11.3845 144.693 11.5141 144.986 11.707 145.236C11.8998 145.485 12.1502 145.685 12.4367 145.817C17.6031 148.403 23.0079 150.483 28.5754 152.028C33.5599 153.497 38.8501 154.908 44.2832 154.908C47.4301 154.908 50.9148 154.603 52.7623 152.117C52.9607 151.773 53.129 151.412 53.2652 151.038C54.3061 150.737 55.258 150.186 56.0384 149.434C56.8189 148.683 57.4045 147.752 57.7446 146.723C58.076 145.418 58.1359 144.058 57.9207 142.729C57.5088 139.701 56.5045 136.783 54.965 134.143C53.4256 131.503 51.3812 129.192 48.9487 127.342C49.2985 126.975 49.6017 126.565 49.8514 126.124C49.919 126.003 49.9387 125.861 49.9068 125.726C45.2934 106.058 45.4307 107.262 45.5215 106.295C45.6988 105.254 47.2938 103.848 47.8942 102.666C48.7936 100.881 49.3568 98.9463 49.5557 96.9578C54.877 97.5138 60.2382 97.5784 65.5714 97.1506C71.0908 96.6986 76.4345 94.9939 81.1961 92.1661C83.4104 90.8516 85.3132 89.0724 86.7732 86.9512C87.7341 85.5333 88.3324 83.9012 88.5155 82.1982C90.1178 81.1313 91.2879 79.5289 91.8164 77.6778C91.9404 77.2591 92.1664 75.4725 91.4376 74.7303ZM38.1079 79.4634C38.5989 79.9072 38.9812 80.4578 39.2256 81.0728C39.2599 81.1598 39.3158 81.2367 39.3879 81.2963C39.46 81.3559 39.546 81.3962 39.6379 81.4136C39.7298 81.4309 39.8246 81.4247 39.9134 81.3956C40.0023 81.3664 40.0823 81.3152 40.1461 81.2467C41.2556 80.0549 42.5847 79.0883 44.0605 78.4C44.7362 78.0256 45.567 78.1397 45.1139 78.6803C44.5859 79.3234 43.9939 79.9112 43.3472 80.4348C43.249 80.5122 43.1798 80.6205 43.1509 80.7421C43.122 80.8638 43.1352 80.9916 43.1882 81.1049C43.2412 81.2181 43.331 81.3101 43.4429 81.3658C43.5549 81.4215 43.6824 81.4377 43.8047 81.4118C44.5468 81.2567 45.0752 82.1783 45.0619 82.8097C45.043 83.7811 43.9963 84.6506 43.0105 85.1003C41.792 83.9295 39.2577 82.2813 37.9684 82.2846C37.5621 81.6326 37.2563 80.9231 37.0612 80.1801C36.7079 78.6659 37.7347 79.0314 38.1079 79.4634ZM18.0271 97.3477C17.3399 94.5112 17.0102 91.5998 17.0457 88.6814C16.9003 86.5289 17.4434 84.386 18.5964 82.5626C20.9225 79.6174 25.063 80.2509 28.7504 80.8192C32.4932 81.3952 32.0258 81.0839 32.3093 81.2922C32.4934 82.5236 32.9127 83.7082 33.5444 84.7813C30.9325 86.898 30.3454 88.4244 29.3242 91.6422C28.3297 94.9039 26.8104 97.9818 24.8259 100.755C24.7406 100.874 24.7063 101.023 24.7305 101.168C24.7547 101.313 24.8354 101.442 24.955 101.528C25.0746 101.613 25.2231 101.647 25.368 101.623C25.5129 101.599 25.6422 101.518 25.7276 101.398C30.8572 94.2142 30.1749 89.5675 32.9075 86.8703C34.3396 85.407 36.0402 84.2333 37.9163 83.4133C38.9531 83.3856 41.1861 84.8998 42.1055 85.7671C41.9526 86.4478 41.8963 87.1465 41.9383 87.8429C42.0185 89.2934 41.7951 90.7447 41.2825 92.1041C40.4398 93.3996 39.5043 94.6323 38.4834 95.7926C36.4897 98.5529 34.3485 101.472 32.0402 104.134C30.7646 105.804 29.3137 107.331 27.7125 108.691C25.341 110.429 23.2054 109.91 22.0258 108.138C20.3133 105.593 18.7205 100.384 18.0271 97.3477ZM2.08671 143.906C1.68795 144.048 1.04329 144.201 1.13966 143.783C1.3778 142.286 2.61396 140.951 4.92122 139.703C6.7976 138.687 8.91767 137.811 10.166 135.953C10.9912 134.717 11.1485 133.902 12.2817 133.834C12.6599 134.877 13.1851 135.86 13.8412 136.754C12.9271 137.55 12.2105 138.547 11.7482 139.668C11.2858 140.788 11.0904 142.001 11.1773 143.209C8.14468 142.54 4.98196 142.783 2.08671 143.906ZM46.7145 153.696C40.5902 154.216 34.5523 152.632 28.8811 150.961C23.3775 149.438 18.0354 147.382 12.9307 144.822C12.7629 144.752 12.6213 144.63 12.5254 144.476C12.4295 144.321 12.3842 144.14 12.3957 143.958C12.1721 142.813 12.2497 141.628 12.6209 140.522C12.9922 139.415 13.6443 138.424 14.5136 137.645C16.4607 140.089 18.9847 142.01 21.8585 143.237C25.4049 144.703 29.0826 145.829 32.8421 146.599C45.8705 149.375 45.0862 149.44 45.1981 149.44C45.3338 149.439 45.4646 149.389 45.5656 149.298C45.6666 149.208 45.7308 149.083 45.746 148.948C45.7611 148.813 45.7263 148.678 45.6479 148.567C45.5696 148.456 45.4533 148.378 45.3211 148.347L33.0736 145.516C29.3759 144.793 25.7632 143.688 22.2938 142.218C18.8834 140.762 16.0141 138.276 14.0883 135.107C12.6604 132.599 12.2707 129.633 13.0027 126.842C18.5499 131.014 30.3576 132.218 37.779 131.448C41.1732 133.057 44.237 135.286 46.8131 138.02C49.4137 140.456 51.3211 143.538 52.3403 146.952C53.6086 151.138 51.0599 153.326 46.7112 153.696H46.7145ZM56.8286 142.889C57.0204 144.061 56.9718 145.259 56.6857 146.412C56.4363 147.152 56.0333 147.832 55.5031 148.406C54.9728 148.981 54.3272 149.436 53.6086 149.744C53.7761 148.703 53.7049 147.639 53.4004 146.63C52.3298 143.041 50.3271 139.8 47.5962 137.237C45.3347 134.793 42.6757 132.749 39.7318 131.192C42.7393 130.868 45.6201 129.806 48.119 128.101C50.4803 129.864 52.4665 132.079 53.9614 134.618C55.4563 137.158 56.4299 139.969 56.8253 142.889H56.8286ZM48.1988 123.312L48.7803 125.762C44.0173 133.396 15.5692 131.324 11.7976 123.884C12.0612 123.413 12.2074 123.191 13.2165 121.215C17.5397 127.631 42.481 129.665 48.1988 123.312ZM47.8665 121.909C43.8479 128.749 16.3135 126.466 13.8235 120.008C16.0721 115.483 18.0202 110.815 19.6554 106.034C20.044 106.988 20.5299 107.898 21.1053 108.752C22.5951 110.994 25.4629 111.767 28.458 109.515C29.6628 108.542 30.7571 107.438 31.7212 106.226C35.8461 107.43 40.2098 107.563 44.4006 106.613C44.3873 107.517 44.2311 106.582 47.8665 121.911V121.909ZM85.8594 86.3221C84.4905 88.3107 82.7064 89.9784 80.6301 91.2102C76.0146 93.9521 70.8345 95.605 65.4839 96.0429C60.206 96.4669 54.9002 96.402 49.6343 95.8491C49.7411 93.0173 49.1267 90.2049 47.8488 87.6756C47.7802 87.5491 47.665 87.4542 47.5277 87.4111C47.3904 87.368 47.2416 87.3801 47.1131 87.4447C46.9845 87.5094 46.8861 87.6216 46.8388 87.7575C46.7915 87.8934 46.7989 88.0424 46.8596 88.173C47.9559 90.3404 48.5312 92.7337 48.5399 95.1625C48.5485 97.5914 47.9902 99.9887 46.9095 102.164C46.4376 103.1 45.2635 104.142 44.7019 105.318C43.345 106.05 37.6261 106.701 32.5054 105.297C34.9334 102.475 37.2184 99.5327 39.3519 96.4815C40.421 95.266 41.395 93.9699 42.265 92.6047C42.8694 91.0693 43.1365 89.4219 43.0481 87.7742C43.0166 87.2632 43.0474 86.7503 43.1401 86.2467C44.4979 85.7329 45.5973 84.7027 46.1983 83.3812C51.915 85.4082 57.1908 86.9257 63.2276 85.8391C69.1975 84.6253 74.8196 82.0895 79.6808 78.4178C80.5347 77.7359 81.4638 77.1539 82.45 76.6832C83.3314 76.2702 84.3386 76.2147 85.2601 76.5281C85.8328 76.847 86.322 77.2969 86.6877 77.8409C87.0535 78.3849 87.2854 79.0076 87.3647 79.6583C87.702 81.9897 87.1646 84.3634 85.856 86.3221H85.8594ZM90.7552 77.3599C90.3777 78.6859 89.6176 79.8711 88.5698 80.7671C88.5521 80.3492 88.5151 79.9322 88.459 79.5177C88.3517 78.6823 88.0465 77.8846 87.5687 77.1911C87.0909 76.4975 86.4543 75.928 85.712 75.5301C85.0614 75.2931 84.3679 75.1969 83.6773 75.2476C83.6667 74.6032 83.7179 73.9593 83.8301 73.3247C83.8559 72.9382 84.0094 72.5711 84.2665 72.2813L84.3385 74.5775C84.3385 74.7244 84.3969 74.8652 84.5007 74.9691C84.6046 75.073 84.7455 75.1313 84.8924 75.1313C85.0393 75.1313 85.1801 75.073 85.284 74.9691C85.3878 74.8652 85.4462 74.7244 85.4462 74.5775C85.4794 73.5899 85.7123 72.6193 86.1307 71.7241C86.2075 71.5201 86.3427 71.3433 86.5195 71.2157C86.8119 71.013 86.236 72.0653 86.257 74.4634C86.2582 74.589 86.302 74.7105 86.3812 74.8079C86.4605 74.9053 86.5705 74.9729 86.6933 74.9995C86.816 75.0262 86.9441 75.0103 87.0567 74.9546C87.1692 74.8988 87.2595 74.8065 87.3126 74.6927C88.3006 72.577 88.2995 72.443 88.7027 72.0631C88.7727 71.9956 88.8616 71.951 88.9575 71.9352C89.0535 71.9193 89.152 71.933 89.2399 71.9745C89.4426 72.1373 89.3164 72.6867 89.0716 73.1719C88.8348 73.7804 88.6347 74.4025 88.4723 75.035C88.1533 76.2157 88.4568 77.1827 89.2477 77.4973C89.8713 77.7465 90.1061 76.9944 90.3133 76.3564C90.3922 76.0594 90.5068 75.773 90.6544 75.5035C90.8833 76.0962 90.9175 76.7465 90.7519 77.3599H90.7552Z" fill="#343A3F"/>
<path d="M88.4072 131.278C88.4072 138.532 91.2887 145.488 96.4177 150.617C101.547 155.746 108.503 158.627 115.757 158.627C123.01 158.627 129.966 155.746 135.095 150.617C140.224 145.488 143.106 138.532 143.106 131.278C143.106 124.025 140.224 117.068 135.095 111.939C129.966 106.81 123.01 103.929 115.757 103.929C108.503 103.929 101.547 106.81 96.4177 111.939C91.2887 117.068 88.4072 124.025 88.4072 131.278Z" fill="#343A3F"/>
<path d="M115.757 103.374C110.238 103.374 104.843 105.011 100.255 108.077C95.6662 111.143 92.0899 115.501 89.9782 120.6C87.8664 125.699 87.314 131.309 88.3908 136.722C89.4676 142.134 92.1252 147.106 96.0275 151.008C99.9299 154.91 104.902 157.568 110.314 158.644C115.727 159.721 121.337 159.168 126.436 157.056C131.535 154.944 135.892 151.368 138.958 146.779C142.024 142.191 143.661 136.796 143.661 131.277C143.653 123.879 140.71 116.786 135.479 111.555C130.247 106.324 123.155 103.382 115.757 103.374ZM115.757 158.073C109.6 158.065 103.633 155.941 98.8568 152.057C94.0801 148.173 90.7838 142.765 89.5204 136.739C98.1312 138.142 106.411 141.113 113.95 145.504C115.238 146.406 116.61 147.181 118.048 147.818C118.829 148.159 119.676 148.327 120.528 148.307C121.38 148.288 122.218 148.083 122.983 147.707C125.043 146.56 125.963 144.062 125.791 140.064C125.473 132.864 120.745 126.288 113.141 122.48C105.563 118.682 97.8556 118.751 92.0249 122.68C91.1476 123.267 90.3764 123.999 89.7442 124.845C90.95 119.968 93.5025 115.528 97.1103 112.032C100.718 108.536 105.236 106.125 110.149 105.073C115.061 104.022 120.17 104.372 124.893 106.084C129.616 107.797 133.762 110.802 136.859 114.758C139.956 118.714 141.879 123.461 142.407 128.456C142.936 133.452 142.05 138.496 139.85 143.013C137.65 147.529 134.225 151.336 129.965 153.999C125.705 156.663 120.783 158.075 115.759 158.075L115.757 158.073Z" fill="#343A3F"/>
<path d="M138.429 145.819C139.104 145.926 139.797 145.865 140.469 145.64C141.142 145.416 141.78 145.032 142.347 144.51C142.915 143.989 143.4 143.341 143.776 142.603C144.151 141.865 144.409 141.052 144.535 140.211C144.66 139.37 144.651 138.517 144.508 137.702C144.364 136.886 144.09 136.124 143.699 135.46C143.309 134.796 142.811 134.242 142.233 133.831C141.656 133.419 141.01 133.159 140.335 133.064C139.66 132.957 138.967 133.018 138.295 133.243C137.622 133.467 136.984 133.851 136.417 134.373C135.849 134.894 135.364 135.542 134.988 136.28C134.613 137.018 134.355 137.831 134.23 138.672C134.104 139.513 134.113 140.366 134.256 141.182C134.4 141.997 134.675 142.759 135.065 143.423C135.455 144.087 135.954 144.641 136.531 145.052C137.108 145.464 137.754 145.724 138.429 145.819Z" fill="white"/>
<path d="M138.346 146.369C135.001 145.868 133.183 142.16 133.716 138.596C134.286 134.776 137.289 132.046 140.416 132.517C141.202 132.649 141.947 132.959 142.594 133.423C143.242 133.887 143.775 134.493 144.152 135.194C146.993 140.068 143.356 147.121 138.346 146.369ZM134.811 138.759C134.283 142.292 136.251 144.936 138.51 145.274C142.608 145.88 145.568 139.822 143.195 135.748C140.839 131.71 135.576 133.644 134.811 138.759Z" fill="#343A3F"/>
<path d="M124.212 166.074C124.212 167.921 124.946 169.694 126.253 171C127.559 172.307 129.331 173.041 131.179 173.041C133.027 173.041 134.799 172.307 136.106 171C137.412 169.694 138.146 167.921 138.146 166.074C138.146 164.226 137.412 162.454 136.106 161.147C134.799 159.84 133.027 159.106 131.179 159.106C129.331 159.106 127.559 159.84 126.253 161.147C124.946 162.454 124.212 164.226 124.212 166.074Z" fill="white"/>
<path d="M131.179 173.594C129.692 173.594 128.238 173.153 127.001 172.326C125.764 171.5 124.8 170.325 124.231 168.951C123.661 167.576 123.513 166.064 123.803 164.605C124.093 163.146 124.81 161.806 125.861 160.754C126.913 159.702 128.254 158.986 129.713 158.696C131.172 158.406 132.684 158.555 134.058 159.125C135.432 159.694 136.607 160.658 137.433 161.895C138.26 163.132 138.701 164.586 138.7 166.074C138.697 168.068 137.904 169.979 136.494 171.388C135.084 172.798 133.173 173.591 131.179 173.594ZM131.179 159.661C129.911 159.661 128.671 160.037 127.616 160.741C126.561 161.446 125.739 162.448 125.254 163.62C124.769 164.792 124.642 166.081 124.889 167.325C125.137 168.569 125.747 169.712 126.644 170.609C127.541 171.506 128.684 172.117 129.928 172.364C131.172 172.612 132.462 172.485 133.634 171.999C134.805 171.514 135.807 170.692 136.512 169.637C137.216 168.582 137.593 167.342 137.593 166.074C137.59 164.374 136.913 162.744 135.711 161.542C134.509 160.34 132.879 159.663 131.179 159.661Z" fill="#343A3F"/>
<path d="M131.192 166.258C130.531 166.666 130.049 167.309 129.842 168.058C129.635 168.807 129.719 169.606 130.076 170.295C130.356 170.697 130.678 171.069 131.035 171.403C134.747 174.973 132.872 178.515 133.362 181.467C133.492 182.111 133.806 182.703 134.266 183.171C134.726 183.639 135.313 183.963 135.954 184.104C136.595 184.244 137.263 184.196 137.877 183.964C138.492 183.732 139.025 183.326 139.413 182.797C142.864 178.466 138.189 161.763 131.192 166.258Z" fill="#343A3F"/>
<path d="M60.1693 37.4131C60.0958 37.4131 60.0231 37.3985 59.9553 37.3701C59.8875 37.3418 59.8261 37.3002 59.7745 37.2478C59.723 37.1954 59.6824 37.1333 59.6551 37.0651C59.6278 36.9969 59.6143 36.9239 59.6155 36.8504L59.8138 24.7304C59.2229 25.8452 58.5568 26.9184 57.82 27.9426C57.7787 28.0044 57.7253 28.0573 57.6631 28.0981C57.6009 28.1388 57.5312 28.1667 57.458 28.1799C57.3848 28.1931 57.3097 28.1915 57.2372 28.175C57.1647 28.1586 57.0962 28.1278 57.0359 28.0843C56.9755 28.0409 56.9245 27.9857 56.886 27.9221C56.8474 27.8585 56.822 27.7879 56.8114 27.7143C56.8007 27.6407 56.805 27.5657 56.8239 27.4938C56.8429 27.4219 56.8761 27.3545 56.9217 27.2957C58.1168 25.6358 59.1166 23.8435 59.9013 21.9546C59.9506 21.8353 60.0399 21.737 60.154 21.6767C60.268 21.6163 60.3995 21.5976 60.5258 21.6239C60.6522 21.6502 60.7653 21.7197 60.8459 21.8205C60.9264 21.9213 60.9692 22.0471 60.9669 22.1761L60.7265 36.8659C60.7247 37.0123 60.6651 37.1519 60.5608 37.2545C60.4564 37.357 60.3156 37.414 60.1693 37.4131Z" fill="#343A3F"/>
<path d="M104.359 42.5368C105.68 38.0009 109.302 34.3135 110.424 29.9327C110.887 28.6988 110.106 27.9389 109.229 28.2779C108.677 28.5388 108.196 28.9277 107.825 29.4123C107.454 29.8969 107.204 30.463 107.097 31.0636C107.112 31.3959 107.52 31.8855 107.85 31.7692C107.989 31.7206 108.141 31.7291 108.273 31.7927C108.406 31.8564 108.507 31.9701 108.556 32.1087C108.605 32.2474 108.596 32.3997 108.533 32.5321C108.469 32.6645 108.355 32.7662 108.217 32.8149C107.95 32.8774 107.673 32.8788 107.407 32.8191C107.14 32.7595 106.89 32.6402 106.676 32.4702C106.462 32.3003 106.289 32.084 106.17 31.8378C106.051 31.5915 105.99 31.3215 105.99 31.0481C106.097 30.2289 106.412 29.4506 106.904 28.7869C107.396 28.1232 108.05 27.5961 108.802 27.2555C109.212 27.0869 109.664 27.0498 110.095 27.1495C110.527 27.2491 110.916 27.4806 111.21 27.8117C111.504 28.1428 111.688 28.5572 111.736 28.9974C111.784 29.4376 111.693 29.8818 111.477 30.2683C110.443 34.3324 107.457 37.6376 105.904 41.4701L112.189 37.8569C112.252 37.8206 112.321 37.797 112.393 37.7875C112.466 37.7781 112.539 37.7829 112.609 37.8018C112.68 37.8206 112.745 37.8532 112.803 37.8975C112.861 37.9419 112.909 37.9971 112.946 38.0602C112.982 38.1233 113.006 38.1929 113.015 38.265C113.025 38.3372 113.02 38.4105 113.001 38.4808C112.982 38.5511 112.949 38.617 112.905 38.6748C112.861 38.7325 112.806 38.7809 112.742 38.8173L105.169 43.1715C105.074 43.2275 104.963 43.2535 104.852 43.246C104.742 43.2385 104.636 43.1979 104.548 43.1295C104.461 43.0611 104.396 42.9681 104.362 42.8624C104.328 42.7567 104.327 42.6433 104.359 42.5368Z" fill="#343A3F"/>
<path d="M173.131 58.2017C173.109 58.1322 173.074 58.0677 173.028 58.0118C172.981 57.9559 172.924 57.9097 172.86 57.8758C172.795 57.842 172.725 57.8212 172.652 57.8145C172.58 57.8079 172.507 57.8156 172.437 57.8372C171.633 58.0861 170.834 58.3261 170.038 58.5572L170.405 56.785C170.428 56.6437 170.396 56.4991 170.314 56.3812C170.233 56.2634 170.109 56.1816 169.969 56.153C169.829 56.1244 169.683 56.1511 169.562 56.2276C169.441 56.3041 169.355 56.4245 169.321 56.5634L168.836 58.9028C167.278 59.3392 165.751 59.7376 164.253 60.098C165.947 56.1841 167.426 52.1805 168.684 48.1053C168.705 48.0358 168.713 47.9628 168.707 47.8903C168.701 47.8177 168.68 47.7472 168.646 47.6826C168.613 47.6181 168.566 47.5608 168.511 47.5141C168.455 47.4674 168.39 47.4321 168.321 47.4102C168.251 47.3884 168.178 47.3805 168.106 47.3869C168.033 47.3933 167.963 47.414 167.898 47.4477C167.834 47.4814 167.776 47.5274 167.73 47.5832C167.683 47.6391 167.648 47.7035 167.626 47.773C166.269 52.1605 164.655 56.4639 162.79 60.6607C162.748 60.7547 162.733 60.8584 162.747 60.9603C162.761 61.0622 162.803 61.1582 162.869 61.2375C162.934 61.3169 163.02 61.3764 163.118 61.4095C163.215 61.4426 163.32 61.448 163.42 61.425C165.149 61.0267 166.869 60.5905 168.579 60.1168L167.625 64.7236C167.602 64.8648 167.634 65.0095 167.715 65.1273C167.797 65.2451 167.92 65.3269 168.06 65.3556C168.201 65.3842 168.346 65.3575 168.467 65.2809C168.588 65.2044 168.675 65.0841 168.709 64.9451L169.787 59.7834C170.772 59.5021 171.766 59.2067 172.768 58.8973C172.837 58.8756 172.902 58.8404 172.958 58.7936C173.014 58.7469 173.06 58.6896 173.094 58.6249C173.127 58.5603 173.148 58.4896 173.154 58.417C173.161 58.3444 173.153 58.2712 173.131 58.2017Z" fill="#343A3F"/>
<path d="M80.5932 59.2234C80.3783 59.2234 82.6502 60.3909 48.5275 42.0679C48.4626 42.034 48.4051 41.9875 48.3583 41.9312C48.3115 41.8749 48.2764 41.8098 48.2549 41.7398C48.2334 41.6698 48.226 41.5963 48.2331 41.5234C48.2402 41.4505 48.2617 41.3798 48.2963 41.3153C48.331 41.2508 48.3781 41.1938 48.4349 41.1476C48.4917 41.1014 48.5571 41.0669 48.6273 41.0462C48.6975 41.0254 48.7711 41.0188 48.8439 41.0267C48.9167 41.0345 48.9872 41.0568 49.0514 41.0921L80.8557 58.1811C80.9648 58.2394 81.0512 58.3324 81.1012 58.4455C81.1512 58.5585 81.162 58.685 81.1318 58.8049C81.1016 58.9247 81.0322 59.0311 80.9346 59.1069C80.837 59.1828 80.7168 59.2238 80.5932 59.2234Z" fill="#343A3F"/>
<path d="M80.2275 64.4992C80.0215 64.4992 81.1956 65.0607 63.6192 56.0698C63.5522 56.0381 63.4923 55.9932 63.443 55.9378C63.3937 55.8825 63.356 55.8178 63.3322 55.7477C63.3083 55.6775 63.2988 55.6033 63.3042 55.5293C63.3096 55.4554 63.3297 55.3833 63.3634 55.3174C63.3972 55.2514 63.4438 55.1928 63.5006 55.1452C63.5573 55.0976 63.6231 55.0618 63.6939 55.04C63.7648 55.0183 63.8393 55.011 63.913 55.0185C63.9867 55.0261 64.0582 55.0483 64.1231 55.084L80.48 63.4513C80.5913 63.5077 80.6802 63.5999 80.7325 63.7131C80.7848 63.8263 80.7973 63.9539 80.7681 64.0751C80.7389 64.1963 80.6696 64.3041 80.5715 64.3811C80.4734 64.4581 80.3522 64.4996 80.2275 64.4992Z" fill="#343A3F"/>
<path d="M70.9642 83.3928C70.7848 83.3928 72.0641 83.9289 52.0132 75.1684C51.8785 75.1096 51.7727 74.9998 51.719 74.863C51.6653 74.7262 51.6681 74.5737 51.7269 74.439C51.7856 74.3043 51.8955 74.1985 52.0323 74.1448C52.1691 74.0911 52.3216 74.0939 52.4563 74.1527L71.1858 82.3305C71.3029 82.3811 71.3989 82.4706 71.4577 82.5839C71.5165 82.6971 71.5343 82.8271 71.5083 82.952C71.4823 83.0769 71.4139 83.189 71.3148 83.2693C71.2156 83.3496 71.0918 83.3932 70.9642 83.3928Z" fill="#343A3F"/>
<path d="M77.325 112.471C77.1223 112.471 78.5434 113.154 54.3587 100.965C54.2286 100.898 54.1302 100.782 54.0849 100.643C54.0396 100.504 54.0511 100.353 54.1169 100.223C54.1827 100.092 54.2974 99.9928 54.4361 99.9465C54.5748 99.9002 54.7261 99.9106 54.8571 99.9754L77.5753 111.423C77.6864 111.479 77.7752 111.571 77.8276 111.684C77.8799 111.797 77.8926 111.925 77.8637 112.046C77.8347 112.167 77.7658 112.275 77.6681 112.352C77.5704 112.429 77.4495 112.471 77.325 112.471Z" fill="#343A3F"/>
<path d="M76.4166 118.112C76.2117 118.112 77.192 118.58 61.2593 110.416C61.1946 110.383 61.137 110.337 61.0899 110.282C61.0428 110.226 61.0071 110.162 60.9847 110.093C60.9624 110.024 60.9539 109.951 60.9598 109.878C60.9657 109.806 60.9858 109.735 61.0189 109.67C61.0521 109.606 61.0977 109.548 61.1531 109.501C61.2085 109.454 61.2727 109.418 61.3419 109.396C61.4111 109.374 61.4841 109.365 61.5566 109.371C61.629 109.377 61.6997 109.397 61.7644 109.43L76.6691 117.065C76.7798 117.122 76.8681 117.214 76.9199 117.327C76.9718 117.44 76.9841 117.567 76.955 117.688C76.9258 117.809 76.8569 117.916 76.7592 117.993C76.6616 118.07 76.5409 118.112 76.4166 118.112Z" fill="#343A3F"/>
<path d="M75.3188 127.199C75.0873 127.199 76.8696 128.196 49.4194 112.219C49.3016 112.141 49.218 112.021 49.1856 111.884C49.1533 111.746 49.1747 111.602 49.2454 111.48C49.3161 111.357 49.4309 111.267 49.5662 111.226C49.7014 111.186 49.8471 111.199 49.9733 111.262L75.5947 126.167C75.6996 126.228 75.7815 126.322 75.8278 126.434C75.8741 126.546 75.8822 126.671 75.8509 126.788C75.8195 126.906 75.7505 127.009 75.6543 127.084C75.5582 127.158 75.4403 127.198 75.3188 127.199Z" fill="#343A3F"/>
<path d="M95.8536 58.1376C95.7269 58.1381 95.604 58.0951 95.5052 58.0158C95.4064 57.9366 95.3377 57.8259 95.3107 57.7022C95.2836 57.5785 95.2997 57.4492 95.3564 57.336C95.4131 57.2227 95.5068 57.1323 95.6221 57.0798L122.164 44.901C122.23 44.8707 122.301 44.8537 122.374 44.851C122.447 44.8483 122.519 44.8599 122.588 44.8852C122.656 44.9105 122.718 44.949 122.772 44.9984C122.825 45.0479 122.868 45.1074 122.898 45.1735C122.929 45.2396 122.946 45.3111 122.948 45.3838C122.951 45.4564 122.939 45.5289 122.914 45.5971C122.889 45.6653 122.85 45.7279 122.801 45.7812C122.751 45.8345 122.692 45.8776 122.626 45.9079C94.1489 58.965 96.0363 58.1376 95.8536 58.1376Z" fill="#343A3F"/>
<path d="M106.582 59.5891C106.456 59.5894 106.333 59.5468 106.235 59.4683C106.136 59.3898 106.068 59.2801 106.04 59.1573C106.012 59.0345 106.027 58.9059 106.082 58.7927C106.138 58.6795 106.23 58.5885 106.343 58.5346L120.884 51.6317C120.95 51.5932 121.023 51.5688 121.1 51.5602C121.176 51.5515 121.253 51.5588 121.326 51.5814C121.399 51.604 121.467 51.6416 121.525 51.6917C121.582 51.7419 121.629 51.8035 121.662 51.8726C121.695 51.9418 121.713 52.017 121.716 52.0936C121.718 52.1701 121.704 52.2463 121.676 52.3174C121.647 52.3884 121.604 52.4527 121.549 52.5063C121.495 52.5599 121.429 52.6015 121.358 52.6286C105.793 60.0211 106.761 59.5891 106.582 59.5891Z" fill="#343A3F"/>
<path d="M94.944 76.3122C94.8179 76.3125 94.6954 76.2698 94.5968 76.191C94.4983 76.1123 94.4295 76.0023 94.402 75.8792C94.3745 75.756 94.3898 75.6272 94.4455 75.514C94.5011 75.4008 94.5938 75.31 94.7081 75.2566L120.517 63.0723C120.583 63.0334 120.657 63.0087 120.733 62.9998C120.809 62.9909 120.886 62.998 120.96 63.0206C121.033 63.0432 121.101 63.0808 121.159 63.1311C121.217 63.1813 121.264 63.2431 121.297 63.3125C121.33 63.3819 121.348 63.4574 121.351 63.5342C121.353 63.611 121.339 63.6874 121.31 63.7586C121.281 63.8297 121.238 63.8941 121.182 63.9476C121.127 64.001 121.062 64.0424 120.99 64.0692C93.3833 77.1097 95.1368 76.3122 94.944 76.3122Z" fill="#343A3F"/>
<path d="M94.7685 82.1169C94.6437 82.1167 94.5226 82.0742 94.4249 81.9965C94.3272 81.9188 94.2586 81.8104 94.2303 81.6888C94.2019 81.5673 94.2155 81.4397 94.2688 81.3268C94.322 81.2139 94.4119 81.1223 94.5237 81.0669L107.426 74.7056C107.558 74.6405 107.711 74.6306 107.85 74.6781C107.99 74.7255 108.105 74.8265 108.17 74.9587C108.235 75.0909 108.245 75.2435 108.197 75.383C108.15 75.5225 108.049 75.6374 107.916 75.7025C94.0751 82.5223 94.959 82.1169 94.7685 82.1169Z" fill="#343A3F"/>
<path d="M94.2254 88.1277C94.0992 88.1283 93.9765 88.0858 93.8777 88.0071C93.779 87.9284 93.7101 87.8184 93.6824 87.6952C93.6547 87.5721 93.67 87.4431 93.7256 87.3298C93.7813 87.2165 93.874 87.1255 93.9884 87.0721L113.248 77.9893C113.315 77.9504 113.388 77.9257 113.465 77.9168C113.541 77.9079 113.618 77.915 113.692 77.9376C113.765 77.9602 113.833 77.9978 113.891 78.0481C113.949 78.0983 113.996 78.1601 114.029 78.2295C114.062 78.2989 114.08 78.3744 114.082 78.4512C114.085 78.528 114.071 78.6044 114.042 78.6756C114.013 78.7467 113.969 78.8111 113.914 78.8646C113.859 78.918 113.793 78.9594 113.721 78.9862C93.1056 88.7048 94.4181 88.1277 94.2254 88.1277Z" fill="#343A3F"/>
<path d="M93.6827 94.6626C93.5578 94.6626 93.4365 94.6204 93.3386 94.5428C93.2408 94.4651 93.172 94.3567 93.1435 94.2351C93.115 94.1134 93.1285 93.9857 93.1817 93.8727C93.235 93.7597 93.3249 93.668 93.4368 93.6126L107.425 86.7085C107.558 86.6434 107.71 86.6335 107.85 86.681C107.989 86.7284 108.104 86.8294 108.169 86.9616C108.234 87.0938 108.244 87.2464 108.197 87.3859C108.149 87.5254 108.048 87.6403 107.916 87.7054C92.9483 95.0846 93.8732 94.6626 93.6827 94.6626Z" fill="#343A3F"/>
<path d="M92.7744 102.298C92.6494 102.298 92.5281 102.255 92.4303 102.177C92.3325 102.099 92.264 101.991 92.2359 101.869C92.2077 101.747 92.2217 101.619 92.2754 101.506C92.3292 101.393 92.4195 101.302 92.5318 101.247L118.695 88.5244C118.827 88.4602 118.979 88.4512 119.118 88.4993C119.257 88.5473 119.371 88.6486 119.435 88.7808C119.5 88.913 119.509 89.0653 119.46 89.2042C119.412 89.343 119.311 89.4571 119.179 89.5213C91.1506 103.157 92.9727 102.298 92.7744 102.298Z" fill="#343A3F"/>
<path d="M144.263 81.7538L187.515 72.301C187.587 72.2847 187.661 72.2827 187.733 72.2951C187.805 72.3076 187.874 72.3342 187.936 72.3734C187.998 72.4126 188.051 72.4637 188.093 72.5237C188.135 72.5837 188.164 72.6514 188.18 72.723C188.196 72.7945 188.197 72.8684 188.184 72.9404C188.171 73.0124 188.143 73.0811 188.103 73.1425C188.064 73.2039 188.012 73.2568 187.952 73.2981C187.891 73.3394 187.823 73.3684 187.751 73.3832L144.499 82.836C144.356 82.8657 144.208 82.8377 144.085 82.7583C143.963 82.6788 143.877 82.5543 143.846 82.4117C143.815 82.2691 143.841 82.1201 143.919 81.9969C143.998 81.8737 144.121 81.7864 144.263 81.7538Z" fill="#343A3F"/>
<path d="M159.652 86.8503C159.514 86.851 159.382 86.8009 159.28 86.7096C159.177 86.6183 159.113 86.4923 159.098 86.356C159.083 86.2197 159.12 86.0828 159.2 85.9717C159.28 85.8607 159.399 85.7834 159.533 85.7548L173.53 82.6633C173.671 82.636 173.818 82.6651 173.938 82.7443C174.059 82.8236 174.144 82.9467 174.175 83.0875C174.206 83.2283 174.181 83.3757 174.105 83.4984C174.029 83.6211 173.909 83.7093 173.769 83.7444C158.842 87.043 159.763 86.8503 159.652 86.8503Z" fill="#343A3F"/>
<path d="M142.387 100.946C142.373 100.875 142.372 100.801 142.386 100.73C142.4 100.658 142.428 100.59 142.469 100.53C142.509 100.469 142.561 100.417 142.621 100.377C142.682 100.336 142.75 100.308 142.821 100.294L184.445 91.9252C184.589 91.8959 184.739 91.9249 184.862 92.006C184.984 92.0872 185.07 92.2137 185.099 92.3578C185.128 92.5019 185.099 92.6517 185.018 92.7744C184.937 92.8971 184.811 92.9825 184.666 93.0119L143.043 101.379C142.971 101.394 142.897 101.395 142.826 101.381C142.754 101.367 142.686 101.339 142.625 101.299C142.564 101.259 142.511 101.207 142.47 101.146C142.43 101.086 142.401 101.018 142.387 100.946Z" fill="#343A3F"/>
<path d="M142.752 106.847C142.614 106.847 142.481 106.795 142.379 106.701C142.277 106.608 142.214 106.48 142.201 106.342C142.189 106.204 142.229 106.067 142.313 105.957C142.397 105.847 142.518 105.773 142.654 105.748L177.186 99.5584C177.258 99.5434 177.333 99.543 177.406 99.5574C177.478 99.5717 177.547 99.6005 177.609 99.6419C177.67 99.6834 177.722 99.7367 177.763 99.7988C177.803 99.8608 177.831 99.9303 177.844 100.003C177.857 100.076 177.855 100.151 177.839 100.223C177.822 100.295 177.792 100.363 177.748 100.424C177.705 100.484 177.65 100.535 177.587 100.573C177.524 100.612 177.454 100.637 177.381 100.648C141.032 107.154 142.864 106.847 142.752 106.847Z" fill="#343A3F"/>
<path d="M142.02 113.57C141.881 113.57 141.748 113.518 141.645 113.424C141.543 113.33 141.48 113.201 141.468 113.063C141.456 112.924 141.497 112.787 141.582 112.677C141.667 112.567 141.79 112.493 141.927 112.47L183.186 105.381C183.33 105.356 183.479 105.39 183.599 105.475C183.719 105.56 183.8 105.689 183.825 105.833C183.85 105.978 183.816 106.127 183.731 106.247C183.647 106.367 183.518 106.448 183.373 106.473C140.073 113.899 142.132 113.57 142.02 113.57Z" fill="#343A3F"/>
<path d="M141.112 120.283C140.974 120.282 140.842 120.229 140.741 120.135C140.64 120.042 140.577 119.914 140.565 119.776C140.554 119.639 140.594 119.502 140.678 119.393C140.762 119.283 140.883 119.209 141.019 119.184L174.818 113.378C174.963 113.353 175.112 113.387 175.232 113.472C175.352 113.557 175.433 113.686 175.458 113.831C175.483 113.975 175.449 114.124 175.364 114.244C175.279 114.364 175.15 114.445 175.005 114.47C139.517 120.56 141.225 120.283 141.112 120.283Z" fill="#343A3F"/>
<path d="M142.929 127.377C142.791 127.377 142.657 127.325 142.555 127.231C142.453 127.137 142.389 127.008 142.378 126.869C142.366 126.731 142.407 126.593 142.492 126.484C142.577 126.374 142.701 126.3 142.837 126.277L181.546 119.742C181.619 119.726 181.694 119.725 181.768 119.74C181.841 119.754 181.911 119.783 181.973 119.825C182.035 119.867 182.087 119.921 182.128 119.984C182.168 120.047 182.196 120.117 182.208 120.191C182.221 120.264 182.218 120.34 182.201 120.413C182.183 120.485 182.151 120.554 182.107 120.614C182.062 120.674 182.006 120.724 181.941 120.762C181.877 120.799 181.805 120.824 181.731 120.833C141.431 127.633 143.04 127.377 142.929 127.377Z" fill="#343A3F"/>
<path d="M143.838 135.189C143.699 135.19 143.565 135.138 143.462 135.044C143.359 134.951 143.295 134.822 143.283 134.683C143.271 134.544 143.312 134.406 143.397 134.296C143.482 134.186 143.606 134.112 143.743 134.089L161.375 130.998C161.446 130.985 161.52 130.987 161.591 131.002C161.662 131.018 161.729 131.048 161.788 131.09C161.848 131.131 161.899 131.184 161.938 131.246C161.977 131.307 162.003 131.376 162.016 131.447C162.028 131.519 162.027 131.592 162.011 131.663C161.995 131.734 161.966 131.802 161.924 131.861C161.882 131.921 161.829 131.971 161.768 132.01C161.706 132.05 161.638 132.076 161.566 132.089C143.387 135.273 143.95 135.189 143.838 135.189Z" fill="#343A3F"/>
<path d="M144.016 142.458C143.877 142.458 143.744 142.406 143.642 142.313C143.541 142.219 143.477 142.091 143.465 141.954C143.453 141.816 143.493 141.679 143.576 141.569C143.66 141.459 143.782 141.384 143.918 141.36L179.358 134.998C179.5 134.977 179.646 135.012 179.763 135.096C179.88 135.18 179.96 135.307 179.985 135.449C180.011 135.59 179.98 135.737 179.899 135.856C179.818 135.976 179.694 136.059 179.553 136.088C142.477 142.748 144.129 142.458 144.016 142.458Z" fill="#343A3F"/>
<path d="M119.971 191.771C119.971 192.32 120.079 192.863 120.289 193.37C120.499 193.877 120.806 194.337 121.194 194.725C121.582 195.113 122.043 195.421 122.55 195.631C123.057 195.841 123.6 195.949 124.149 195.949C124.697 195.949 125.241 195.841 125.748 195.631C126.255 195.421 126.715 195.113 127.103 194.725C127.491 194.337 127.799 193.877 128.009 193.37C128.219 192.863 128.327 192.32 128.327 191.771C128.327 191.222 128.219 190.679 128.009 190.172C127.799 189.665 127.491 189.204 127.103 188.817C126.715 188.429 126.255 188.121 125.748 187.911C125.241 187.701 124.697 187.593 124.149 187.593C123.6 187.593 123.057 187.701 122.55 187.911C122.043 188.121 121.582 188.429 121.194 188.817C120.806 189.204 120.499 189.665 120.289 190.172C120.079 190.679 119.971 191.222 119.971 191.771Z" fill="white"/>
<path d="M124.151 196.501C123.215 196.501 122.3 196.224 121.522 195.704C120.743 195.184 120.137 194.445 119.778 193.58C119.42 192.716 119.326 191.764 119.509 190.846C119.691 189.928 120.142 189.085 120.804 188.423C121.466 187.761 122.309 187.311 123.227 187.128C124.145 186.945 125.097 187.039 125.961 187.398C126.826 187.756 127.565 188.362 128.085 189.141C128.605 189.919 128.882 190.834 128.882 191.77C128.88 193.024 128.381 194.227 127.495 195.114C126.608 196.001 125.405 196.5 124.151 196.501ZM124.151 188.146C123.434 188.146 122.733 188.358 122.137 188.756C121.541 189.154 121.076 189.72 120.802 190.382C120.527 191.045 120.455 191.773 120.595 192.477C120.735 193.18 121.08 193.826 121.587 194.333C122.094 194.839 122.739 195.185 123.442 195.325C124.146 195.465 124.874 195.393 125.537 195.119C126.199 194.844 126.765 194.38 127.163 193.784C127.562 193.188 127.774 192.487 127.774 191.77C127.772 190.81 127.39 189.89 126.711 189.211C126.031 188.533 125.111 188.151 124.151 188.149V188.146Z" fill="#343A3F"/>
<path d="M104.119 206.526C104.591 207.346 105.155 208.102 105.779 208.752C106.403 209.401 107.075 209.931 107.756 210.311C108.437 210.691 109.114 210.914 109.748 210.966C110.381 211.019 110.96 210.9 111.45 210.617C111.94 210.334 112.332 209.893 112.603 209.317C112.875 208.742 113.02 208.045 113.032 207.265C113.043 206.485 112.92 205.639 112.67 204.773C112.419 203.908 112.046 203.041 111.572 202.223C110.618 200.57 109.311 199.212 107.937 198.447C106.563 197.682 105.236 197.573 104.248 198.143C103.259 198.714 102.69 199.918 102.666 201.49C102.641 203.062 103.164 204.873 104.118 206.526" fill="#343A3F"/>
<path d="M125.77 191.043L113.378 200.07C110.75 197.049 106.068 196.46 103.971 197.664C101.192 199.257 101.886 203.791 103.628 206.802C104.971 209.12 107.457 211.524 110.028 211.524C111.389 211.335 112.658 210.728 113.659 209.786C114.66 208.845 115.344 207.615 115.616 206.268L129.484 196.142C132.858 193.688 129.143 188.593 125.77 191.043ZM111.165 210.125C108.961 211.4 105.894 208.493 104.598 206.248C102.798 203.131 102.766 199.64 104.526 198.623C106.286 197.606 109.289 199.382 111.093 202.5C112.898 205.618 112.926 209.109 111.165 210.125Z" fill="#343A3F"/>
</svg>
