<svg width="239" height="196" viewBox="0 0 239 196" fill="none" xmlns="http://www.w3.org/2000/svg">
<path d="M94.5898 189.037L143.451 189.415V166.65H94.5898V189.037Z" fill="#F2F4F8"/>
<path d="M237.236 40.4053H54.3633L54.477 145.405H237.352C237.335 145.27 237.312 113.317 237.236 40.4053Z" fill="#343A3F"/>
<path d="M120.082 150.97C119.041 150.758 117.961 150.87 116.986 151.29C116.011 151.709 115.188 152.417 114.627 153.318C114.214 154 113.964 154.767 113.896 155.561C113.829 156.355 113.946 157.154 114.239 157.895C114.532 158.636 114.992 159.299 115.583 159.833C116.175 160.366 116.882 160.756 117.649 160.971C118.416 161.186 119.222 161.221 120.005 161.073C120.788 160.925 121.526 160.598 122.161 160.117C122.796 159.636 123.312 159.015 123.668 158.302C124.023 157.589 124.209 156.804 124.21 156.007C124.194 154.824 123.777 153.681 123.027 152.766C122.277 151.851 121.239 151.218 120.082 150.97Z" fill="white"/>
<path d="M53.9852 40.4053H0.691406V145.402H53.9852V40.4053Z" fill="white"/>
<path d="M238.041 40.213C238.043 40.147 238.031 40.0813 238.006 40.02C237.981 39.9588 237.944 39.9032 237.897 39.8568C237.851 39.8099 237.795 39.773 237.734 39.7483C237.673 39.7236 237.607 39.7116 237.541 39.713H0.3125C0.22962 39.713 0.150134 39.7459 0.0915289 39.8045C0.0329238 39.8631 0 39.9426 0 40.0255V166.651C0.000329144 166.733 0.0333586 166.813 0.0918925 166.871C0.150426 166.93 0.229721 166.963 0.3125 166.963H93.8975V188.685C80.28 188.569 80.505 188.475 80.2725 188.702L74.1425 194.838C74.0713 194.908 74.0233 194.998 74.0048 195.096C73.9863 195.194 73.9983 195.296 74.0391 195.387C74.08 195.478 74.1477 195.554 74.2332 195.605C74.3187 195.657 74.4179 195.681 74.5175 195.674H163.563C163.66 195.676 163.757 195.649 163.839 195.595C163.92 195.541 163.984 195.464 164.021 195.373C164.058 195.282 164.065 195.182 164.043 195.086C164.021 194.99 163.97 194.904 163.897 194.838C158.059 188.992 158.426 189.278 158.084 189.182C157.959 189.162 158.061 189.182 144.141 189.067V166.926H237.728C237.81 166.926 237.89 166.893 237.948 166.834C238.007 166.775 238.04 166.696 238.04 166.613L238.041 40.213ZM53.6412 145.088H1.00375V40.713H53.6725C53.6725 40.713 53.5787 144.279 53.6412 145.088ZM114.891 153.481C115.43 152.612 116.231 151.938 117.179 151.555C118.126 151.173 119.17 151.101 120.161 151.351C120.902 151.536 121.588 151.895 122.162 152.398C122.737 152.901 123.184 153.534 123.466 154.243C123.748 154.953 123.858 155.719 123.785 156.48C123.713 157.24 123.461 157.972 123.05 158.615C122.501 159.477 121.692 160.141 120.741 160.513C119.79 160.885 118.745 160.945 117.758 160.686C116.769 160.426 115.89 159.858 115.245 159.065C114.62 158.283 114.251 157.328 114.188 156.329C114.125 155.33 114.371 154.336 114.893 153.482L114.891 153.481ZM143.175 166.924V189.099L94.9012 188.688V166.926L143.175 166.924ZM237.038 40.7805C237.038 40.7805 236.944 144.317 237.006 145.127L54.6763 145.103V40.7555L237.038 40.7805Z" fill="#343A3F"/>
<path d="M44.5913 88.0167H10.0476C10.0124 88.0158 9.97737 88.0221 9.94468 88.0352C9.91199 88.0483 9.8823 88.0679 9.8574 88.0928C9.83251 88.1176 9.81293 88.1473 9.79985 88.18C9.78677 88.2127 9.78047 88.2477 9.78133 88.2829V90.4079C9.78047 90.4431 9.78677 90.4781 9.79985 90.5108C9.81293 90.5435 9.83251 90.5732 9.8574 90.5981C9.8823 90.623 9.91199 90.6426 9.94468 90.6557C9.97737 90.6687 10.0124 90.675 10.0476 90.6742H44.5913C44.6265 90.675 44.6614 90.6687 44.694 90.6556C44.7267 90.6426 44.7563 90.623 44.7811 90.598C44.8059 90.5731 44.8253 90.5434 44.8383 90.5107C44.8512 90.4781 44.8574 90.4431 44.8563 90.4079V88.2829C44.8938 88.1304 44.7426 88.0167 44.5913 88.0167Z" fill="#F2F4F8"/>
<path d="M44.5914 94.6457H10.0476C10.0124 94.6444 9.97737 94.6505 9.9446 94.6633C9.91183 94.6762 9.88205 94.6957 9.8571 94.7205C9.83215 94.7453 9.81255 94.775 9.79953 94.8077C9.7865 94.8404 9.78032 94.8755 9.78136 94.9107V97.0357C9.78068 97.0708 9.78711 97.1056 9.80026 97.1382C9.81341 97.1707 9.83302 97.2003 9.8579 97.225C9.88278 97.2498 9.91241 97.2692 9.94502 97.2822C9.97762 97.2952 10.0125 97.3015 10.0476 97.3007H44.5914C44.6264 97.3015 44.6612 97.2953 44.6938 97.2822C44.7263 97.2692 44.7559 97.2497 44.7807 97.2249C44.8054 97.2002 44.8249 97.1706 44.8379 97.1381C44.851 97.1055 44.8572 97.0707 44.8564 97.0357V94.9107C44.8939 94.7607 44.7426 94.6457 44.5914 94.6457Z" fill="#F2F4F8"/>
<path d="M38.417 108.963H16.2583C16.2231 108.962 16.1882 108.968 16.1558 108.982C16.1228 108.995 16.093 109.014 16.0683 109.039C16.0437 109.064 16.0244 109.094 16.0115 109.126C15.9986 109.158 15.9924 109.193 15.9933 109.228V111.353C15.9922 111.388 15.9984 111.423 16.0113 111.456C16.0243 111.489 16.0437 111.518 16.0685 111.543C16.0933 111.568 16.1229 111.588 16.1556 111.601C16.1882 111.614 16.2231 111.62 16.2583 111.619H38.417C38.4521 111.621 38.4871 111.614 38.5195 111.601C38.5683 111.58 38.6098 111.546 38.6388 111.502C38.6678 111.458 38.6828 111.406 38.682 111.353V109.228C38.6829 109.193 38.6766 109.158 38.6636 109.126C38.6506 109.093 38.6311 109.064 38.6063 109.039C38.5815 109.014 38.552 108.995 38.5194 108.981C38.4869 108.968 38.4521 108.962 38.417 108.963Z" fill="#F2F4F8"/>
<path d="M38.418 115.403H16.2592C16.2241 115.401 16.1891 115.408 16.1567 115.421C16.1238 115.434 16.094 115.454 16.0692 115.479C16.0446 115.504 16.0253 115.533 16.0124 115.565C15.9995 115.598 15.9933 115.633 15.9942 115.668V117.793C15.9934 117.828 15.9996 117.862 16.0126 117.895C16.0257 117.927 16.0452 117.957 16.0699 117.982C16.0947 118.007 16.1243 118.026 16.1568 118.039C16.1893 118.052 16.2242 118.058 16.2592 118.058H38.418C38.4531 118.059 38.4881 118.052 38.5205 118.039C38.5534 118.026 38.5832 118.006 38.608 117.981C38.6326 117.956 38.6519 117.927 38.6648 117.895C38.6777 117.862 38.6838 117.827 38.683 117.793V115.668C38.6783 115.599 38.6489 115.534 38.6002 115.485C38.5514 115.437 38.4867 115.407 38.418 115.403Z" fill="#F2F4F8"/>
<path d="M38.418 121.879H16.2592C16.2241 121.878 16.1891 121.884 16.1567 121.898C16.1238 121.911 16.094 121.93 16.0692 121.955C16.0446 121.98 16.0253 122.01 16.0124 122.042C15.9995 122.074 15.9933 122.109 15.9942 122.144V124.269C15.9934 124.304 15.9996 124.339 16.0126 124.371C16.0257 124.404 16.0452 124.434 16.0699 124.458C16.0947 124.483 16.1243 124.503 16.1568 124.516C16.1893 124.529 16.2242 124.535 16.2592 124.534H38.418C38.4531 124.535 38.4881 124.529 38.5205 124.515C38.5534 124.503 38.5832 124.483 38.608 124.458C38.6326 124.433 38.6519 124.404 38.6648 124.371C38.6777 124.339 38.6838 124.304 38.683 124.269V122.144C38.6838 122.109 38.6776 122.074 38.6645 122.042C38.6515 122.009 38.632 121.98 38.6073 121.955C38.5825 121.93 38.5529 121.911 38.5204 121.898C38.4878 121.884 38.453 121.878 38.418 121.879Z" fill="#F2F4F8"/>
<path d="M38.418 128.32H16.2592C16.2241 128.318 16.1891 128.325 16.1567 128.338C16.1238 128.351 16.094 128.371 16.0692 128.396C16.0446 128.421 16.0253 128.45 16.0124 128.482C15.9995 128.515 15.9933 128.55 15.9942 128.585V130.71C15.9934 130.745 15.9996 130.779 16.0126 130.812C16.0257 130.844 16.0452 130.874 16.0699 130.899C16.0947 130.924 16.1243 130.943 16.1568 130.956C16.1893 130.969 16.2242 130.975 16.2592 130.975H38.418C38.4528 130.975 38.4875 130.969 38.5199 130.956C38.5523 130.943 38.5818 130.924 38.6067 130.9C38.6314 130.874 38.6508 130.845 38.6639 130.812C38.677 130.78 38.6835 130.745 38.683 130.71V128.585C38.6838 128.549 38.6776 128.515 38.6645 128.482C38.6515 128.45 38.632 128.42 38.6073 128.395C38.5825 128.37 38.5529 128.351 38.5204 128.338C38.4878 128.325 38.453 128.319 38.418 128.32Z" fill="#F2F4F8"/>
<path d="M12.3579 108.963H10.0854C10.0503 108.962 10.0153 108.968 9.98292 108.982C9.94999 108.995 9.92016 109.014 9.89542 109.039C9.87084 109.064 9.85152 109.094 9.83863 109.126C9.82574 109.158 9.81955 109.193 9.82042 109.228V111.353C9.81939 111.388 9.82553 111.423 9.83847 111.456C9.85141 111.489 9.87087 111.518 9.89567 111.543C9.92047 111.568 9.95008 111.588 9.98271 111.601C10.0153 111.614 10.0503 111.62 10.0854 111.619H12.3579C12.393 111.621 12.428 111.614 12.4604 111.601C12.5092 111.58 12.5507 111.546 12.5797 111.502C12.6086 111.458 12.6237 111.406 12.6229 111.353V109.228C12.6238 109.193 12.6175 109.158 12.6045 109.126C12.5915 109.093 12.572 109.064 12.5472 109.039C12.5224 109.014 12.4929 108.995 12.4603 108.981C12.4278 108.968 12.393 108.962 12.3579 108.963Z" fill="#F2F4F8"/>
<path d="M12.3579 115.403H10.0854C10.0503 115.401 10.0153 115.408 9.98289 115.421C9.94996 115.434 9.92013 115.454 9.89539 115.479C9.87081 115.504 9.85149 115.533 9.8386 115.565C9.82571 115.598 9.81952 115.633 9.82039 115.668V117.793C9.81954 117.828 9.82581 117.862 9.83882 117.895C9.85183 117.927 9.87132 117.957 9.8961 117.982C9.92088 118.007 9.95044 118.026 9.98298 118.039C10.0155 118.052 10.0504 118.058 10.0854 118.058H12.3579C12.393 118.059 12.428 118.052 12.4604 118.039C12.4933 118.026 12.5232 118.006 12.5479 117.981C12.5725 117.956 12.5918 117.927 12.6047 117.895C12.6176 117.862 12.6238 117.827 12.6229 117.793V115.668C12.6182 115.599 12.5888 115.534 12.5401 115.485C12.4914 115.437 12.4266 115.407 12.3579 115.403Z" fill="#F2F4F8"/>
<path d="M12.3579 121.879H10.0854C10.0503 121.878 10.0153 121.884 9.98289 121.898C9.94996 121.911 9.92013 121.93 9.89539 121.955C9.87081 121.98 9.85149 122.01 9.8386 122.042C9.82571 122.074 9.81952 122.109 9.82039 122.144V124.269C9.81954 124.304 9.82581 124.339 9.83882 124.371C9.85183 124.404 9.87132 124.434 9.8961 124.458C9.92088 124.483 9.95044 124.503 9.98298 124.516C10.0155 124.529 10.0504 124.535 10.0854 124.534H12.3579C12.393 124.535 12.428 124.529 12.4604 124.515C12.4933 124.503 12.5232 124.483 12.5479 124.458C12.5725 124.433 12.5918 124.404 12.6047 124.371C12.6176 124.339 12.6238 124.304 12.6229 124.269V122.144C12.6238 122.109 12.6175 122.074 12.6045 122.042C12.5915 122.009 12.572 121.98 12.5472 121.955C12.5224 121.93 12.4928 121.911 12.4603 121.898C12.4278 121.884 12.3929 121.878 12.3579 121.879Z" fill="#F2F4F8"/>
<path d="M12.3579 128.32H10.0854C10.0503 128.318 10.0153 128.325 9.98289 128.338C9.94996 128.351 9.92013 128.371 9.89539 128.396C9.87081 128.421 9.85149 128.45 9.8386 128.482C9.82571 128.515 9.81952 128.55 9.82039 128.585V130.71C9.81954 130.745 9.82581 130.779 9.83882 130.812C9.85183 130.844 9.87132 130.874 9.8961 130.899C9.92088 130.924 9.95044 130.943 9.98298 130.956C10.0155 130.969 10.0504 130.975 10.0854 130.975H12.3579C12.3928 130.975 12.4274 130.969 12.4598 130.956C12.4922 130.943 12.5217 130.924 12.5466 130.9C12.5714 130.875 12.591 130.845 12.6041 130.812C12.6172 130.78 12.6236 130.745 12.6229 130.71V128.585C12.6238 128.549 12.6175 128.515 12.6045 128.482C12.5915 128.45 12.572 128.42 12.5472 128.395C12.5224 128.37 12.4928 128.351 12.4603 128.338C12.4278 128.325 12.3929 128.319 12.3579 128.32Z" fill="#F2F4F8"/>
<path d="M27.3575 47.4131C24.3922 47.4237 21.4933 48.2923 19.0107 49.9139C16.5281 51.5355 14.5678 53.841 13.3663 56.552C12.1649 59.263 11.7737 62.2638 12.2399 65.1923C12.7061 68.1207 14.0098 70.8517 15.9937 73.0556C17.1708 71.093 18.8361 69.4687 20.8275 68.3409C22.8188 67.2132 25.0683 66.6204 27.3569 66.6204C29.6454 66.6204 31.8949 67.2132 33.8863 68.3409C35.8776 69.4687 37.5429 71.093 38.72 73.0556C40.7044 70.8519 42.0086 68.121 42.4751 65.1925C42.9417 62.264 42.5507 59.263 41.3493 56.5518C40.1479 53.8406 38.1876 51.5351 35.7048 49.9134C33.222 48.2918 30.3229 47.4234 27.3575 47.4131Z" fill="#F2F4F8"/>
<path d="M16.2959 73.283C17.7222 74.7821 19.4383 75.9756 21.34 76.7911C23.2416 77.6066 25.2892 78.0272 27.3584 78.0272C29.4276 78.0272 31.4751 77.6066 33.3768 76.7911C35.2785 75.9756 36.9946 74.7821 38.4209 73.283C37.2858 71.3587 35.6683 69.7637 33.7282 68.6557C31.7881 67.5476 29.5926 66.9648 27.3584 66.9648C25.1242 66.9648 22.9286 67.5476 20.9886 68.6557C19.0485 69.7637 17.431 71.3587 16.2959 73.283Z" fill="white"/>
<path d="M27.3575 64.3707C28.6084 64.3705 29.8311 63.9993 30.871 63.3042C31.911 62.6091 32.7215 61.6213 33.2 60.4656C33.6786 59.3099 33.8037 58.0383 33.5597 56.8115C33.3156 55.5846 32.7132 54.4578 31.8287 53.5733C30.9442 52.6888 29.8173 52.0864 28.5905 51.8423C27.3637 51.5982 26.092 51.7234 24.9364 52.2019C23.7807 52.6805 22.7928 53.491 22.0977 54.531C21.4026 55.5709 21.0315 56.7936 21.0312 58.0445C21.0342 59.7214 21.7017 61.3288 22.8875 62.5145C24.0732 63.7003 25.6806 64.3677 27.3575 64.3707Z" fill="white"/>
<path d="M23.3036 59.9754C23.6149 59.9754 23.9135 59.8518 24.1336 59.6316C24.3537 59.4115 24.4774 59.113 24.4774 58.8017C24.4774 58.4904 24.3537 58.1918 24.1336 57.9717C23.9135 57.7516 23.6149 57.6279 23.3036 57.6279C22.9923 57.6279 22.6938 57.7516 22.4737 57.9717C22.2535 58.1918 22.1299 58.4904 22.1299 58.8017C22.1299 59.113 22.2535 59.4115 22.4737 59.6316C22.6938 59.8518 22.9923 59.9754 23.3036 59.9754Z" fill="#FF5470"/>
<path d="M31.2587 59.9754C31.57 59.9754 31.8686 59.8518 32.0887 59.6316C32.3088 59.4115 32.4325 59.113 32.4325 58.8017C32.4325 58.4904 32.3088 58.1918 32.0887 57.9717C31.8686 57.7516 31.57 57.6279 31.2587 57.6279C30.9474 57.6279 30.6489 57.7516 30.4287 57.9717C30.2086 58.1918 30.085 58.4904 30.085 58.8017C30.085 59.113 30.2086 59.4115 30.4287 59.6316C30.6489 59.8518 30.9474 59.9754 31.2587 59.9754Z" fill="#FF5470"/>
<path d="M27.3562 46.7217C24.1856 46.7219 21.0862 47.6624 18.45 49.424C15.8139 51.1857 13.7593 53.6896 12.5461 56.6189C11.333 59.5483 11.0157 62.7716 11.6344 65.8812C12.2531 68.9909 13.78 71.8473 16.0221 74.0892C18.2641 76.3311 21.1206 77.8578 24.2303 78.4762C27.3401 79.0947 30.5634 78.7772 33.4926 77.5638C36.4219 76.3504 38.9255 74.2956 40.687 71.6593C42.4485 69.023 43.3887 65.9236 43.3887 62.7529C43.3837 58.5025 41.6929 54.4276 38.6873 51.4222C35.6817 48.4168 31.6066 46.7263 27.3562 46.7217ZM16.6874 73.2767C17.8092 71.4553 19.3786 69.9515 21.2461 68.9084C23.1136 67.8654 25.2171 67.3177 27.3562 67.3177C29.4953 67.3177 31.5987 67.8654 33.4662 68.9084C35.3338 69.9515 36.9031 71.4553 38.0249 73.2767C36.6324 74.6928 34.9719 75.8176 33.1402 76.5853C31.3085 77.3531 29.3423 77.7485 27.3562 77.7485C25.3701 77.7485 23.4039 77.3531 21.5722 76.5853C19.7405 75.8176 18.0799 74.6928 16.6874 73.2767ZM15.9487 72.4954C14.0775 70.3138 12.8713 67.6413 12.473 64.7949C12.0748 61.9485 12.5012 59.0476 13.7017 56.4362C14.9023 53.8248 16.8266 51.6125 19.2465 50.0617C21.6663 48.5108 24.4802 47.6866 27.3543 47.6866C30.2284 47.6866 33.0423 48.5108 35.4621 50.0617C37.882 51.6125 39.8063 53.8248 41.0069 56.4362C42.2074 59.0476 42.6339 61.9485 42.2356 64.7949C41.8373 67.6413 40.6311 70.3138 38.7599 72.4954C37.5307 70.5877 35.8426 69.0188 33.8501 67.9323C31.8576 66.8459 29.6244 66.2766 27.3549 66.2766C25.0855 66.2766 22.8523 66.8459 20.8598 67.9323C18.8673 69.0188 17.1792 70.5877 15.9499 72.4954H15.9487Z" fill="#343A3F"/>
<path d="M27.356 51.0283C25.4947 51.0283 23.7096 51.7677 22.3935 53.0839C21.0773 54.4 20.3379 56.1851 20.3379 58.0464C20.3379 59.9078 21.0773 61.6929 22.3935 63.009C23.7096 64.3252 25.4947 65.0646 27.356 65.0646C29.2173 65.0646 31.0024 64.3252 32.3186 63.009C33.6347 61.6929 34.3741 59.9078 34.3741 58.0464C34.3741 56.1851 33.6347 54.4 32.3186 53.0839C31.0024 51.7677 29.2173 51.0283 27.356 51.0283ZM27.356 64.0583C25.7611 64.0583 24.2314 63.4247 23.1037 62.2969C21.9759 61.1691 21.3423 59.6395 21.3423 58.0446C21.3423 56.4496 21.9759 54.92 23.1037 53.7922C24.2314 52.6644 25.7611 52.0308 27.356 52.0308C28.951 52.0308 30.4806 52.6644 31.6084 53.7922C32.7362 54.92 33.3698 56.4496 33.3698 58.0446C33.3698 59.6395 32.7362 61.1691 31.6084 62.2969C30.4806 63.4247 28.951 64.0583 27.356 64.0583Z" fill="#343A3F"/>
<path d="M24.9371 55.7256C24.0196 55.7256 24.0196 57.5631 24.9371 57.5631C25.8546 57.5631 25.8496 55.7256 24.9371 55.7256Z" fill="#343A3F"/>
<path d="M29.4772 55.7256C28.561 55.7256 28.561 57.5631 29.4772 57.5631C30.3935 57.5631 30.3947 55.7256 29.4772 55.7256Z" fill="#343A3F"/>
<path d="M28.345 58.5438C27.87 58.7913 27.3288 58.8738 26.8025 58.7763C26.24 58.6825 26.2863 58.4263 25.9488 58.4813C25.5288 58.55 25.3338 59.025 25.7438 59.42C26.2103 59.6926 26.7403 59.8378 27.2807 59.8411C27.821 59.8444 28.3527 59.7057 28.8225 59.4388C29.4225 59.14 28.915 58.2425 28.345 58.5438Z" fill="#343A3F"/>
<path d="M78.3022 0.713867C78.3022 13.6489 78.2384 12.7214 78.4159 12.7214H213.448L213.372 0.713867H78.3022Z" fill="#F2F4F8"/>
<path d="M213.412 145.667V13.0957L78.3027 13.1332L78.3402 145.704L213.412 145.667Z" fill="white"/>
<path d="M139.852 76.7295H87.5059V122.939H139.852V76.7295Z" fill="#FFE55D"/>
<path d="M172.692 133.14L151.897 139.001V145.705H204.245V136.728L189.435 141.462L172.692 133.14Z" fill="#F2F4F8"/>
<path d="M151.897 131.273V138.622L172.73 132.761C183.022 137.707 181.912 137.221 182.237 137.221C182.435 137.197 182.272 137.212 204.245 135.553V131.312L151.897 131.273Z" fill="#F2F4F8"/>
<path d="M204.437 130.588H151.712C151.646 130.586 151.58 130.598 151.519 130.623C151.458 130.648 151.402 130.685 151.356 130.732C151.309 130.778 151.272 130.834 151.247 130.895C151.222 130.956 151.21 131.022 151.212 131.088V146.088C151.212 146.129 151.22 146.17 151.235 146.208C151.251 146.246 151.274 146.28 151.303 146.309C151.332 146.339 151.367 146.362 151.405 146.377C151.443 146.393 151.483 146.401 151.525 146.401H204.627C204.668 146.401 204.709 146.393 204.747 146.377C204.785 146.362 204.819 146.339 204.848 146.309C204.878 146.28 204.901 146.246 204.916 146.208C204.932 146.17 204.94 146.129 204.94 146.088V131.088C204.936 130.956 204.882 130.83 204.789 130.737C204.695 130.644 204.569 130.591 204.437 130.588ZM203.897 137.162V145.398H152.21V139.243L172.661 133.479C189.482 141.842 189.338 141.826 189.536 141.766L203.897 137.162ZM203.936 135.232L182.085 136.876L172.87 132.447C172.702 132.366 172.836 132.376 152.213 138.187V131.588H203.937L203.936 135.232Z" fill="#343A3F"/>
<path d="M113.68 135.895C111.126 135.9 108.673 136.899 106.842 138.681C105.011 140.462 103.945 142.886 103.87 145.44H123.453C123.38 142.892 122.32 140.472 120.497 138.691C118.673 136.91 116.229 135.907 113.68 135.895Z" fill="#F2F4F8"/>
<path d="M87.5059 131.273V145.705C103.486 145.705 103.49 145.755 103.491 145.63C103.55 142.967 104.649 140.433 106.553 138.571C108.457 136.708 111.015 135.665 113.678 135.665C116.342 135.665 118.899 136.708 120.804 138.571C122.708 140.433 123.807 142.967 123.866 145.63C123.866 145.755 123.88 145.705 139.85 145.705V131.273H87.5059Z" fill="#F2F4F8"/>
<path d="M140.043 130.588H87.3126C87.2466 130.587 87.1809 130.599 87.1197 130.623C87.0585 130.648 87.0029 130.685 86.9564 130.732C86.9096 130.778 86.8727 130.834 86.848 130.895C86.8233 130.956 86.8113 131.022 86.8126 131.088V145.899C86.8104 145.999 86.8387 146.096 86.8937 146.179C86.9487 146.262 87.0277 146.326 87.1201 146.363C87.1814 146.388 87.2464 146.401 87.3126 146.399C140.313 146.399 140.125 146.477 140.334 146.274C140.543 146.072 140.459 146.274 140.459 131.188C140.483 131.121 140.49 131.049 140.481 130.978C140.471 130.907 140.445 130.84 140.404 130.781C140.364 130.723 140.31 130.675 140.247 130.641C140.184 130.607 140.114 130.589 140.043 130.588ZM104.196 145.088C104.339 142.669 105.4 140.396 107.163 138.733C108.926 137.07 111.257 136.144 113.68 136.143C116.103 136.144 118.435 137.07 120.197 138.733C121.96 140.396 123.021 142.669 123.164 145.088H104.196ZM113.68 135.202C110.951 135.211 108.333 136.277 106.374 138.178C104.416 140.078 103.271 142.663 103.18 145.391H87.8189V131.588H139.541V145.394H124.178C124.091 142.666 122.947 140.078 120.989 138.177C119.03 136.275 116.41 135.209 113.68 135.203V135.202Z" fill="#343A3F"/>
<path d="M200.45 4.50719C199.922 4.30502 199.339 4.29348 198.803 4.47456C198.268 4.65564 197.812 5.01799 197.514 5.49915C197.217 5.98031 197.097 6.55015 197.174 7.11043C197.252 7.67071 197.523 8.18634 197.94 8.56844C198.217 8.82135 198.55 9.00648 198.911 9.10928C199.272 9.21209 199.652 9.22977 200.021 9.16094C200.577 9.0502 201.078 8.75285 201.442 8.31818C201.806 7.88352 202.01 7.33761 202.021 6.77094C202.017 6.27943 201.865 5.80057 201.585 5.39678C201.304 4.99298 200.909 4.68298 200.45 4.50719ZM198.337 6.02344C198.457 5.82203 198.623 5.65279 198.823 5.53042C199.023 5.40804 199.249 5.33623 199.483 5.3212C199.716 5.30617 199.95 5.34839 200.164 5.44419C200.377 5.53999 200.564 5.68648 200.709 5.87094C200.901 6.11719 201.01 6.41969 201.016 6.73219C201.014 7.02656 200.921 7.31316 200.75 7.55241C200.578 7.79165 200.337 7.97173 200.059 8.06778C199.78 8.16383 199.479 8.17111 199.197 8.0886C198.914 8.00609 198.664 7.83788 198.481 7.60719C198.284 7.39721 198.162 7.12715 198.136 6.8401C198.11 6.55304 198.181 6.26554 198.337 6.02344Z" fill="#343A3F"/>
<path d="M207.344 4.50751C206.994 4.37237 206.617 4.32028 206.243 4.35534C205.869 4.3904 205.509 4.51165 205.189 4.70957C204.87 4.9075 204.602 5.1767 204.404 5.49603C204.207 5.81537 204.086 6.17614 204.051 6.55002C204.017 6.92389 204.069 7.30068 204.205 7.65079C204.341 8.00091 204.556 8.31481 204.833 8.56785C205.11 8.82088 205.443 9.00616 205.804 9.10912C206.165 9.21208 206.545 9.22993 206.914 9.16126C207.47 9.05031 207.971 8.75291 208.335 8.31828C208.698 7.88366 208.903 7.33787 208.914 6.77126C208.91 6.28003 208.758 5.8014 208.478 5.3978C208.198 4.99421 207.803 4.68439 207.344 4.50876V4.50751ZM205.231 6.02376C205.392 5.75554 205.635 5.54679 205.925 5.42901C206.215 5.31123 206.535 5.29079 206.837 5.37079C207.139 5.45079 207.407 5.62687 207.6 5.8725C207.794 6.11812 207.902 6.41997 207.909 6.73251C207.908 7.02693 207.815 7.31369 207.644 7.5531C207.472 7.79252 207.231 7.97275 206.953 8.06886C206.674 8.16496 206.373 8.17219 206.09 8.08954C205.808 8.00688 205.558 7.83844 205.375 7.60751C205.178 7.39753 205.056 7.12747 205.03 6.84042C205.004 6.55337 205.075 6.26586 205.231 6.02376Z" fill="#343A3F"/>
<path d="M213.547 0.0959415C211.252 -0.0565585 195.467 0.0184412 78.1125 0.0184412C78.0465 0.017255 77.9809 0.0293774 77.9197 0.0540848C77.8585 0.0787922 77.8029 0.115578 77.7563 0.162246C77.7096 0.208913 77.6728 0.264507 77.6481 0.325706C77.6234 0.386904 77.6113 0.452453 77.6124 0.518441V145.588C77.61 145.688 77.6382 145.786 77.6932 145.869C77.7482 145.952 77.8273 146.017 77.92 146.053C77.9812 146.078 78.0466 146.089 78.1125 146.088H213.6C213.666 146.09 213.731 146.077 213.792 146.052C213.854 146.028 213.91 145.992 213.957 145.945C214.003 145.898 214.04 145.842 214.064 145.781C214.089 145.72 214.101 145.654 214.1 145.588C214.112 20.2759 214.146 3.10594 214.035 0.633442C214.015 0.133442 214.062 0.129692 213.547 0.0959415ZM78.5775 12.3922V1.01719C78.5775 1.01719 212.009 1.04219 213.099 1.01719V12.3922H78.5775ZM78.615 145.053C78.615 145.053 78.6375 14.4909 78.615 13.4084C78.615 13.4084 212.806 13.4297 213.055 13.4234C213.055 13.4234 213.012 144.77 213.029 145.08L78.615 145.053Z" fill="#343A3F"/>
<path d="M114.7 46.1611C111.164 42.6865 106.605 40.4396 101.695 39.7514C96.7857 39.0632 91.7849 39.9701 87.4297 42.3386V68.3598H121.027C123.362 60.5773 120.085 51.3936 114.7 46.1611Z" fill="#F2F4F8"/>
<path d="M103.129 34.5346C104.617 34.5711 106.091 34.2397 107.421 33.57C108.75 32.9002 109.894 31.9127 110.75 30.6951C111.606 29.4775 112.149 28.0673 112.33 26.5897C112.511 25.1121 112.324 23.6128 111.786 22.2246H94.7789C94.2595 23.5886 94.0766 25.0578 94.2457 26.5075C94.4148 27.9572 94.9308 29.3448 95.7502 30.5527C96.5695 31.7606 97.6679 32.7532 98.9524 33.4463C100.237 34.1395 101.669 34.5128 103.129 34.5346Z" fill="#F2F4F8"/>
<path d="M123.951 39.6911C121.666 37.4717 120.087 34.6271 119.412 31.514C118.737 28.4009 118.996 25.1577 120.156 22.1911H112.203C113.614 28.2498 110.328 34.6723 103.899 34.9586C102.328 35.0333 100.763 34.7178 99.3444 34.0404C97.9254 33.3629 96.6962 32.3445 95.7667 31.0762C94.8373 29.8078 94.2364 28.3291 94.0177 26.7719C93.7991 25.2147 93.9696 23.6276 94.5139 22.1523H87.6576C87.6576 22.2773 87.6201 22.1848 87.6201 41.8873C91.6377 39.7443 96.1909 38.813 100.727 39.2064C105.264 39.5998 109.589 41.301 113.177 44.1037C116.766 46.9064 119.465 50.6902 120.945 54.9961C122.426 59.302 122.626 63.9452 121.52 68.3623C121.645 68.3623 121.55 68.3998 139.853 68.3998V43.8923C137.115 44.6861 128.98 44.6086 123.951 39.6923V39.6911Z" fill="#BEA2DC"/>
<path d="M140.544 21.9972C140.546 21.8975 140.518 21.7994 140.463 21.7162C140.408 21.6331 140.329 21.5688 140.236 21.5322C140.175 21.5076 140.11 21.4957 140.044 21.4972H87.3126C87.2466 21.4958 87.1809 21.5078 87.1197 21.5325C87.0584 21.5571 87.0027 21.5939 86.956 21.6406C86.9093 21.6873 86.8725 21.743 86.8479 21.8042C86.8232 21.8655 86.8112 21.9312 86.8126 21.9972V68.5484C86.8126 68.6141 86.8255 68.6791 86.8507 68.7398C86.8758 68.8005 86.9126 68.8556 86.9591 68.902C87.0055 68.9484 87.0606 68.9853 87.1213 69.0104C87.1819 69.0355 87.2469 69.0484 87.3126 69.0484H140.038C140.137 69.0509 140.235 69.0227 140.318 68.9677C140.402 68.9127 140.466 68.8336 140.503 68.7409C140.527 68.6796 140.539 68.6143 140.538 68.5484L140.544 21.9984V21.9972ZM87.7814 42.5259C91.6724 40.4624 96.0757 39.564 100.464 39.9383C104.853 40.3127 109.04 41.944 112.525 44.6368C116.011 47.3297 118.646 50.97 120.116 55.1219C121.585 59.2738 121.827 63.7613 120.813 68.0472H87.7814V42.5259ZM87.8951 41.3734L87.9114 22.5659C87.9214 22.4409 87.4401 22.5009 94.0364 22.5009C93.5599 24.0134 93.456 25.6186 93.7336 27.1799C94.0112 28.7411 94.6619 30.2122 95.6305 31.4677C96.599 32.7233 97.8567 33.7262 99.2963 34.391C100.736 35.0558 102.315 35.3628 103.899 35.2859C111.794 34.8947 113.899 26.5822 112.608 22.5359H119.696C118.693 25.3799 118.478 28.4425 119.074 31.3988C119.671 34.355 121.056 37.0947 123.084 39.3272C125.111 41.5603 127.704 43.203 130.589 44.0811C133.474 44.9593 136.543 45.04 139.47 44.3147C139.595 44.3147 139.538 68.0459 139.538 68.0459L121.866 68.0359C126.378 48.1872 105.894 32.4809 87.8951 41.3734ZM111.574 22.5172C112.033 23.7973 112.186 25.1669 112.021 26.5167C111.857 27.8665 111.379 29.1592 110.626 30.2915C109.873 31.4239 108.866 32.3646 107.685 33.0386C106.504 33.7126 105.182 34.1012 103.824 34.1734C102.382 34.2503 100.943 33.972 99.6329 33.3631C98.3233 32.7541 97.1831 31.8331 96.3124 30.6807C95.4417 29.5284 94.867 28.18 94.6389 26.7539C94.4107 25.3277 94.5361 23.8674 95.0039 22.5009L111.574 22.5172Z" fill="#343A3F"/>
<path d="M132.505 52.4887C131.719 52.1265 130.856 51.9614 129.991 52.0076C129.127 52.0538 128.286 52.3098 127.543 52.7537C126.49 53.3688 125.674 54.3198 125.226 55.454C124.778 56.5883 124.724 57.8401 125.073 59.0087C125.421 60.1779 126.153 61.1957 127.151 61.8982C128.148 62.6006 129.353 62.9469 130.572 62.8812C131.79 62.8164 132.951 62.3439 133.868 61.5394C134.786 60.735 135.406 59.6455 135.629 58.446C135.852 57.2466 135.665 56.0069 135.099 54.9264C134.532 53.8459 133.619 52.9873 132.505 52.4887Z" fill="#343A3F"/>
<path d="M172.163 22.2246H151.86V42.5271L172.163 22.2246Z" fill="#F2F4F8"/>
<path d="M185.571 22.1875L204.245 40.86V22.225C185.571 22.225 185.571 22.3125 185.571 22.1875Z" fill="#F2F4F8"/>
<path d="M158.867 68.1324C178.689 48.3124 178.68 48.2462 178.867 48.2462C178.992 48.2462 178.907 48.2112 199.132 68.4349H204.246V56.9199L178.871 31.5449L151.938 58.4737V68.2837C159.313 68.2837 158.649 68.3499 158.867 68.1337V68.1324Z" fill="#AAF3FD"/>
<path d="M178.754 31.1263C178.78 31.0994 178.814 31.081 178.85 31.0735C178.887 31.0659 178.925 31.0695 178.959 31.0838C178.982 31.0938 179.002 31.1083 179.019 31.1263L204.245 56.39V41.39L185.042 22.1875H172.769L151.86 43.0625V58.0187L178.754 31.1263Z" fill="#AAF3FD"/>
<path d="M204.813 21.6632C204.589 21.437 204.78 21.5382 151.714 21.5382C151.653 21.5356 151.591 21.5457 151.534 21.5681C151.476 21.5905 151.424 21.6245 151.38 21.6681C151.337 21.7117 151.303 21.7639 151.28 21.8214C151.258 21.8789 151.248 21.9404 151.25 22.002V68.5482C151.248 68.6479 151.276 68.7461 151.331 68.8293C151.386 68.9125 151.465 68.9767 151.558 69.0132C151.619 69.0385 151.684 69.0504 151.75 69.0482H204.4C204.466 69.0498 204.532 69.0378 204.593 69.0131C204.655 68.9884 204.71 68.9514 204.757 68.9045C204.804 68.858 204.841 68.8024 204.865 68.7412C204.89 68.6799 204.902 68.6143 204.9 68.5482L204.938 21.997C204.94 21.8739 204.896 21.7545 204.813 21.6632ZM179.239 47.987C179.141 47.9026 179.016 47.8563 178.886 47.8563C178.757 47.8563 178.631 47.9026 178.533 47.987L158.494 68.047H152.21V58.672L178.829 32.0532C178.829 32.0532 203.704 56.9495 203.894 57.1282V68.0407H199.299L179.239 47.987ZM186.325 22.4632H203.938V40.067L186.325 22.4632ZM203.825 41.4845V55.4457C203.825 55.4457 179.495 31.1045 179.245 30.867C179.152 30.7738 179.025 30.7215 178.892 30.7215C178.76 30.7215 178.633 30.7738 178.539 30.867L152.21 57.1882V43.1107L172.835 22.4995H184.835L203.825 41.4845ZM152.179 41.7745C152.179 22.5032 152.217 23.6095 152.217 22.502H171.452L152.179 41.7745Z" fill="#343A3F"/>
<path d="M125.497 117.751C119.023 99.7158 119.096 99.7508 119.096 100.138L113.562 114.986C113.557 115.031 113.534 115.072 113.498 115.101C113.463 115.129 113.417 115.143 113.372 115.138C113.152 115.138 113.247 115.181 108.107 100.707C107.931 101.061 105.516 107.596 101.555 118.243C125.603 118.243 125.607 118.331 125.607 118.206L125.497 117.751Z" fill="#F2F4F8"/>
<path d="M125.687 81.3135H101.635C101.635 81.4385 101.624 81.3572 108.187 99.6085C113.826 84.3797 113.737 84.4197 113.945 84.4197C114.152 84.4197 114.07 84.3847 119.21 98.8885L125.687 81.3135Z" fill="white"/>
<path d="M140.043 76.0384H87.3126C87.2467 76.0375 87.1813 76.0499 87.1203 76.0747C87.0592 76.0995 87.0038 76.1363 86.9572 76.1829C86.9106 76.2295 86.8738 76.285 86.849 76.346C86.8241 76.4071 86.8118 76.4725 86.8126 76.5384V123.088C86.8104 123.188 86.8387 123.286 86.8937 123.368C86.9487 123.451 87.0277 123.515 87.1201 123.552C87.1814 123.577 87.2464 123.59 87.3126 123.588L140.188 123.543C140.275 123.516 140.35 123.459 140.401 123.383C140.452 123.307 140.476 123.216 140.468 123.125V76.7496C140.499 76.6949 140.52 76.6344 140.528 76.5716C140.535 76.5089 140.531 76.4453 140.514 76.3844C140.497 76.3235 140.468 76.2666 140.429 76.2171C140.389 76.1675 140.341 76.1263 140.285 76.0959C140.211 76.0553 140.127 76.0355 140.043 76.0384ZM139.543 77.0046V122.588H87.8189V77.0046H139.543Z" fill="#343A3F"/>
<path d="M126.437 118.327C126.437 118.327 119.887 99.9645 119.662 99.4445C119.662 99.4445 126.364 81.4545 126.402 81.337C126.428 81.2598 126.435 81.1774 126.422 81.097C126.411 81.0163 126.381 80.9395 126.333 80.8732C126.286 80.807 126.223 80.7534 126.15 80.717C126.078 80.6796 125.998 80.6599 125.916 80.6595C100.981 80.6595 101.224 80.5032 100.954 80.8757C100.909 80.9369 100.88 81.0079 100.869 81.0828C100.857 81.1576 100.864 81.2341 100.889 81.3057C100.889 81.3057 107.439 99.6695 107.664 100.188L100.914 118.386C100.894 118.495 100.912 118.608 100.964 118.706C101.016 118.804 101.1 118.882 101.201 118.927C101.268 118.958 101.34 118.973 101.414 118.972H125.957C126.036 118.972 126.113 118.954 126.183 118.919C126.253 118.884 126.313 118.833 126.36 118.77C126.407 118.708 126.438 118.635 126.451 118.558C126.465 118.481 126.46 118.402 126.437 118.327ZM119.139 97.9632L114.376 84.4307C114.34 84.3308 114.274 84.2448 114.186 84.1853C114.098 84.1258 113.993 84.0958 113.887 84.0997C113.781 84.1036 113.679 84.1412 113.596 84.207C113.512 84.2728 113.452 84.3634 113.424 84.4657L108.156 98.7057L102.025 81.6632H125.205L119.139 97.9632ZM108.164 101.654L112.951 115.099C112.963 115.217 113.015 115.327 113.1 115.409C113.184 115.492 113.295 115.543 113.412 115.552C113.53 115.561 113.648 115.528 113.744 115.458C113.839 115.389 113.907 115.287 113.935 115.172L119.2 101.016L125.325 118.044H102.062L108.164 101.654Z" fill="#343A3F"/>
<path d="M151.897 76.7295V122.941H204.245V76.7295H151.897Z" fill="#FFB2BF"/>
<path d="M204.437 76.0382H151.712C151.613 76.036 151.515 76.0643 151.432 76.1193C151.349 76.1743 151.285 76.2533 151.248 76.3457C151.223 76.4067 151.211 76.4722 151.212 76.5382V123.088C151.21 123.154 151.222 123.22 151.247 123.281C151.272 123.343 151.309 123.398 151.356 123.444C151.402 123.492 151.458 123.529 151.519 123.553C151.58 123.578 151.646 123.59 151.712 123.588L204.622 123.543C204.709 123.515 204.784 123.459 204.835 123.383C204.886 123.307 204.909 123.216 204.901 123.124L204.938 76.5357C204.94 76.4698 204.928 76.4042 204.903 76.3432C204.878 76.2821 204.84 76.2268 204.793 76.1807C204.746 76.1346 204.691 76.0982 204.63 76.0737C204.568 76.0493 204.503 76.0372 204.437 76.0382ZM203.937 77.0045V122.588H152.21V77.0045H203.937Z" fill="#343A3F"/>
<path d="M177.881 83.2832H157.049V114.797H177.881V83.2832Z" fill="white"/>
<path d="M199.093 83.2832H178.261V114.797H199.093V83.2832Z" fill="white"/>
<path d="M199.472 82.5889H156.671C156.609 82.5888 156.549 82.6071 156.497 82.6414C156.446 82.6756 156.406 82.7243 156.382 82.7814C156.366 82.8193 156.358 82.8602 156.358 82.9014V115.176C156.358 115.217 156.366 115.258 156.382 115.296C156.397 115.334 156.42 115.369 156.45 115.398C156.479 115.427 156.513 115.45 156.551 115.466C156.589 115.481 156.63 115.489 156.671 115.489H199.472C199.555 115.489 199.635 115.456 199.693 115.397C199.752 115.339 199.785 115.259 199.785 115.176V82.9039C199.785 82.8416 199.767 82.7806 199.733 82.7287C199.699 82.6768 199.65 82.6364 199.592 82.6126C199.554 82.5967 199.513 82.5887 199.472 82.5889ZM178.573 114.483V83.5964H198.781V114.485L178.573 114.483ZM177.573 83.5939V114.483H157.361V83.5964L177.573 83.5939Z" fill="#343A3F"/>
<path d="M175.837 94.9111H158.905V96.4636H175.837V94.9111Z" fill="#F2F4F8"/>
<path d="M175.837 98.2822H158.905V99.8347H175.837V98.2822Z" fill="#F2F4F8"/>
<path d="M175.837 101.653H158.905V103.206H175.837V101.653Z" fill="#F2F4F8"/>
<path d="M175.837 105.024H158.905V106.577H175.837V105.024Z" fill="#F2F4F8"/>
<path d="M175.837 108.396H158.905V109.948H175.837V108.396Z" fill="#F2F4F8"/>
<path d="M197.161 94.9111H180.192V96.4636H197.161V94.9111Z" fill="#F2F4F8"/>
<path d="M197.161 98.2822H180.192V99.8347H197.161V98.2822Z" fill="#F2F4F8"/>
<path d="M197.161 101.653H180.192V103.206H197.161V101.653Z" fill="#F2F4F8"/>
<path d="M197.161 105.024H180.192V106.577H197.161V105.024Z" fill="#F2F4F8"/>
<path d="M197.161 108.396H180.192V109.948H197.161V108.396Z" fill="#F2F4F8"/>
<path d="M170.269 86.123H164.549V91.8431H170.269V86.123Z" fill="#F2F4F8"/>
<path d="M188.678 84.9492L184.624 89.0017L188.678 93.0555L192.693 89.0017L188.678 84.9492Z" fill="#F2F4F8"/>
<path d="M170.835 85.6384C170.621 85.3446 170.91 85.4321 164.36 85.4321C164.26 85.4299 164.162 85.4582 164.079 85.5132C163.997 85.5682 163.932 85.6472 163.896 85.7396C163.871 85.8007 163.858 85.8662 163.859 85.9321V92.0296C163.858 92.0956 163.87 92.1613 163.895 92.2225C163.919 92.2838 163.956 92.3394 164.003 92.3859C164.05 92.4327 164.105 92.4696 164.167 92.4943C164.228 92.519 164.293 92.531 164.36 92.5296C170.795 92.5296 170.61 92.5859 170.792 92.4046C170.975 92.2234 170.917 92.5521 170.917 86.0084C170.929 85.9445 170.928 85.8789 170.913 85.8156C170.899 85.7522 170.872 85.6923 170.835 85.6396V85.6384ZM164.861 91.5309V86.4359H169.956V91.5309H164.861Z" fill="#343A3F"/>
<path d="M193.33 88.6684L189.049 84.3496C188.955 84.2564 188.828 84.2041 188.696 84.2041C188.563 84.2041 188.436 84.2564 188.343 84.3496C183.666 89.0259 183.955 88.7034 183.901 88.8659C183.877 88.9543 183.875 89.0475 183.897 89.1366C183.919 89.2257 183.964 89.3076 184.026 89.3746C188.704 94.0521 188.409 93.8409 188.699 93.8409C188.989 93.8409 188.699 94.0133 193.331 89.3746C193.425 89.2807 193.477 89.1536 193.477 89.0212C193.476 88.8888 193.424 88.7619 193.33 88.6684ZM192.25 89.0021L188.639 92.6146L185.029 89.0021L188.639 85.3909L192.25 89.0034V89.0021Z" fill="#343A3F"/>
</svg>
