<svg width="240" height="196" viewBox="0 0 240 196" fill="none" xmlns="http://www.w3.org/2000/svg">
<path d="M95.5693 189.361L144.431 189.74V166.975H95.5693V189.361Z" fill="#E2FD86"/>
<path d="M238.216 40.7302H55.343L55.4568 145.73H238.332C238.314 145.595 238.292 113.641 238.216 40.7302Z" fill="#B1E400"/>
<path d="M121.061 151.294C120.02 151.083 118.94 151.194 117.965 151.614C116.99 152.034 116.167 152.742 115.606 153.643C115.192 154.324 114.943 155.092 114.875 155.885C114.808 156.679 114.925 157.478 115.218 158.219C115.51 158.96 115.971 159.623 116.562 160.157C117.154 160.691 117.86 161.081 118.628 161.296C119.395 161.511 120.201 161.546 120.984 161.398C121.767 161.249 122.505 160.922 123.14 160.442C123.775 159.961 124.291 159.34 124.646 158.627C125.002 157.914 125.188 157.128 125.189 156.332C125.173 155.148 124.756 154.006 124.006 153.091C123.256 152.176 122.217 151.542 121.061 151.294Z" fill="white"/>
<path d="M54.9643 40.7302H1.67056V145.726H54.9643V40.7302Z" fill="white"/>
<path d="M239.021 40.5377C239.022 40.4717 239.01 40.406 238.985 40.3447C238.961 40.2835 238.924 40.2279 238.877 40.1815C238.83 40.1346 238.775 40.0977 238.713 40.073C238.652 40.0483 238.587 40.0363 238.521 40.0377H1.29181C1.20893 40.0377 1.12944 40.0706 1.07084 40.1292C1.01223 40.1878 0.979309 40.2673 0.979309 40.3502V166.975C0.979638 167.058 1.01267 167.137 1.0712 167.196C1.12974 167.254 1.20903 167.287 1.29181 167.288H94.8768V189.01C81.2593 188.894 81.4843 188.8 81.2518 189.026L75.1218 195.163C75.0506 195.233 75.0026 195.323 74.9841 195.421C74.9656 195.519 74.9776 195.62 75.0184 195.711C75.0593 195.802 75.127 195.879 75.2125 195.93C75.298 195.982 75.3972 196.006 75.4968 195.999H164.542C164.64 196.001 164.736 195.973 164.818 195.919C164.9 195.866 164.963 195.788 165.001 195.698C165.037 195.607 165.045 195.506 165.022 195.411C165 195.315 164.95 195.229 164.877 195.163C159.038 189.316 159.406 189.603 159.063 189.506C158.938 189.486 159.041 189.506 145.121 189.391V167.25H238.707C238.79 167.25 238.869 167.217 238.928 167.159C238.986 167.1 239.019 167.021 239.019 166.938L239.021 40.5377ZM54.6206 145.413H1.98306V41.0377H54.6518C54.6518 41.0377 54.5581 144.604 54.6206 145.413ZM115.871 153.805C116.41 152.937 117.211 152.263 118.158 151.88C119.105 151.497 120.15 151.425 121.141 151.675C121.881 151.861 122.567 152.22 123.142 152.723C123.716 153.226 124.163 153.858 124.445 154.568C124.727 155.278 124.837 156.044 124.765 156.804C124.692 157.564 124.44 158.297 124.029 158.94C123.48 159.801 122.672 160.466 121.72 160.838C120.769 161.21 119.725 161.27 118.737 161.01C117.749 160.75 116.869 160.183 116.224 159.39C115.6 158.608 115.231 157.653 115.168 156.654C115.105 155.655 115.35 154.661 115.872 153.806L115.871 153.805ZM144.154 167.249V189.424L95.8806 189.013V167.25L144.154 167.249ZM238.017 41.1052C238.017 41.1052 237.923 144.641 237.986 145.451L55.6556 145.428V41.0802L238.017 41.1052Z" fill="#2F473F"/>
<path d="M45.5705 88.3414H11.0268C10.9916 88.3405 10.9566 88.3468 10.9239 88.3599C10.8912 88.373 10.8615 88.3926 10.8366 88.4175C10.8117 88.4424 10.7921 88.4721 10.7791 88.5047C10.766 88.5374 10.7597 88.5724 10.7605 88.6076V90.7326C10.7597 90.7678 10.766 90.8028 10.7791 90.8355C10.7921 90.8682 10.8117 90.8979 10.8366 90.9228C10.8615 90.9477 10.8912 90.9673 10.9239 90.9804C10.9566 90.9934 10.9916 90.9997 11.0268 90.9989H45.5705C45.6057 90.9997 45.6406 90.9934 45.6733 90.9804C45.7059 90.9673 45.7355 90.9477 45.7603 90.9228C45.7851 90.8978 45.8046 90.8681 45.8175 90.8354C45.8304 90.8028 45.8366 90.7678 45.8355 90.7326V88.6076C45.873 88.4551 45.7218 88.3414 45.5705 88.3414Z" fill="#E2FD86"/>
<path d="M45.5706 94.9701H11.0268C10.9916 94.9689 10.9566 94.9749 10.9238 94.9878C10.891 95.0007 10.8612 95.0201 10.8363 95.045C10.8113 95.0698 10.7917 95.0995 10.7787 95.1322C10.7657 95.1649 10.7595 95.1999 10.7606 95.2351V97.3601C10.7599 97.3952 10.7663 97.4301 10.7794 97.4626C10.7926 97.4952 10.8122 97.5247 10.8371 97.5495C10.862 97.5742 10.8916 97.5937 10.9242 97.6067C10.9568 97.6197 10.9917 97.626 11.0268 97.6251H45.5706C45.6056 97.626 45.6404 97.6197 45.673 97.6067C45.7055 97.5937 45.7351 97.5742 45.7598 97.5494C45.7846 97.5246 45.8041 97.4951 45.8171 97.4625C45.8301 97.43 45.8364 97.3952 45.8356 97.3601V95.2351C45.8731 95.0851 45.7218 94.9701 45.5706 94.9701Z" fill="#E2FD86"/>
<path d="M39.3968 109.288H17.2381C17.2029 109.286 17.168 109.293 17.1356 109.307C17.1026 109.319 17.0728 109.339 17.0481 109.364C17.0235 109.389 17.0042 109.418 16.9913 109.451C16.9784 109.483 16.9722 109.518 16.9731 109.553V111.678C16.972 111.713 16.9782 111.748 16.9911 111.781C17.0041 111.813 17.0235 111.843 17.0483 111.868C17.0731 111.893 17.1027 111.912 17.1354 111.925C17.168 111.939 17.2029 111.945 17.2381 111.944H39.3968C39.4319 111.945 39.4669 111.939 39.4993 111.925C39.5481 111.905 39.5896 111.871 39.6186 111.826C39.6475 111.782 39.6626 111.731 39.6618 111.678V109.553C39.6627 109.518 39.6564 109.483 39.6434 109.45C39.6304 109.418 39.6109 109.388 39.5861 109.363C39.5613 109.339 39.5318 109.319 39.4992 109.306C39.4667 109.293 39.4319 109.287 39.3968 109.288Z" fill="#E2FD86"/>
<path d="M39.3968 115.728H17.2381C17.2029 115.726 17.168 115.733 17.1356 115.746C17.1026 115.759 17.0728 115.779 17.0481 115.804C17.0235 115.829 17.0042 115.858 16.9913 115.891C16.9784 115.923 16.9722 115.958 16.9731 115.993V118.118C16.9722 118.153 16.9785 118.188 16.9915 118.22C17.0045 118.253 17.024 118.282 17.0488 118.307C17.0736 118.332 17.1031 118.351 17.1357 118.364C17.1682 118.377 17.203 118.384 17.2381 118.383H39.3968C39.432 118.384 39.4669 118.378 39.4993 118.364C39.5323 118.351 39.5621 118.332 39.5868 118.306C39.6114 118.282 39.6307 118.252 39.6436 118.22C39.6565 118.187 39.6627 118.153 39.6618 118.118V115.993C39.6571 115.924 39.6277 115.859 39.579 115.811C39.5303 115.762 39.4656 115.732 39.3968 115.728Z" fill="#E2FD86"/>
<path d="M39.3968 122.204H17.2381C17.2029 122.203 17.168 122.209 17.1356 122.223C17.1026 122.235 17.0728 122.255 17.0481 122.28C17.0235 122.305 17.0042 122.335 16.9913 122.367C16.9784 122.399 16.9722 122.434 16.9731 122.469V124.594C16.9722 124.629 16.9785 124.664 16.9915 124.696C17.0045 124.729 17.024 124.759 17.0488 124.783C17.0736 124.808 17.1031 124.828 17.1357 124.841C17.1682 124.854 17.203 124.86 17.2381 124.859H39.3968C39.432 124.86 39.4669 124.854 39.4993 124.84C39.5323 124.828 39.5621 124.808 39.5868 124.783C39.6114 124.758 39.6307 124.729 39.6436 124.696C39.6565 124.664 39.6627 124.629 39.6618 124.594V122.469C39.6627 122.434 39.6564 122.399 39.6434 122.367C39.6304 122.334 39.6109 122.305 39.5861 122.28C39.5613 122.255 39.5318 122.235 39.4992 122.222C39.4667 122.209 39.4319 122.203 39.3968 122.204Z" fill="#E2FD86"/>
<path d="M39.3968 128.644H17.2381C17.2029 128.643 17.168 128.649 17.1356 128.663C17.1026 128.675 17.0728 128.695 17.0481 128.72C17.0235 128.745 17.0042 128.774 16.9913 128.807C16.9784 128.839 16.9722 128.874 16.9731 128.909V131.034C16.9722 131.069 16.9785 131.104 16.9915 131.136C17.0045 131.169 17.024 131.198 17.0488 131.223C17.0736 131.248 17.1031 131.268 17.1357 131.281C17.1682 131.294 17.203 131.3 17.2381 131.299H39.3968C39.4317 131.3 39.4663 131.293 39.4987 131.28C39.5312 131.268 39.5607 131.248 39.5856 131.224C39.6102 131.199 39.6297 131.169 39.6428 131.137C39.6559 131.104 39.6623 131.069 39.6618 131.034V128.909C39.6627 128.874 39.6564 128.839 39.6434 128.807C39.6304 128.774 39.6109 128.744 39.5861 128.72C39.5613 128.695 39.5318 128.675 39.4992 128.662C39.4667 128.649 39.4319 128.643 39.3968 128.644Z" fill="#E2FD86"/>
<path d="M13.3368 109.288H11.0643C11.0292 109.286 10.9942 109.293 10.9618 109.307C10.9289 109.319 10.899 109.339 10.8743 109.364C10.8497 109.389 10.8304 109.418 10.8175 109.451C10.8046 109.483 10.7984 109.518 10.7993 109.553V111.678C10.7983 111.713 10.8044 111.748 10.8174 111.781C10.8303 111.813 10.8498 111.843 10.8746 111.868C10.8993 111.893 10.929 111.912 10.9616 111.925C10.9942 111.939 11.0292 111.945 11.0643 111.944H13.3368C13.3719 111.945 13.4069 111.939 13.4393 111.925C13.488 111.905 13.5296 111.871 13.5586 111.826C13.5875 111.782 13.6026 111.731 13.6018 111.678V109.553C13.6027 109.518 13.5964 109.483 13.5834 109.45C13.5704 109.418 13.5509 109.388 13.5261 109.363C13.5013 109.339 13.4718 109.319 13.4392 109.306C13.4067 109.293 13.3718 109.287 13.3368 109.288Z" fill="#E2FD86"/>
<path d="M13.3368 115.728H11.0643C11.0292 115.726 10.9942 115.733 10.9618 115.746C10.9289 115.759 10.899 115.779 10.8743 115.804C10.8497 115.829 10.8304 115.858 10.8175 115.891C10.8046 115.923 10.7984 115.958 10.7993 115.993V118.118C10.7984 118.153 10.8047 118.188 10.8177 118.22C10.8307 118.253 10.8502 118.282 10.875 118.307C10.8998 118.332 10.9294 118.351 10.9619 118.364C10.9944 118.377 11.0293 118.384 11.0643 118.383H13.3368C13.3719 118.384 13.4069 118.378 13.4393 118.364C13.4722 118.351 13.5021 118.332 13.5268 118.306C13.5514 118.282 13.5707 118.252 13.5836 118.22C13.5965 118.187 13.6027 118.153 13.6018 118.118V115.993C13.5971 115.924 13.5677 115.859 13.519 115.811C13.4703 115.762 13.4055 115.732 13.3368 115.728Z" fill="#E2FD86"/>
<path d="M13.3368 122.204H11.0643C11.0292 122.203 10.9942 122.209 10.9618 122.223C10.9289 122.235 10.899 122.255 10.8743 122.28C10.8497 122.305 10.8304 122.335 10.8175 122.367C10.8046 122.399 10.7984 122.434 10.7993 122.469V124.594C10.7984 124.629 10.8047 124.664 10.8177 124.696C10.8307 124.729 10.8502 124.759 10.875 124.783C10.8998 124.808 10.9294 124.828 10.9619 124.841C10.9944 124.854 11.0293 124.86 11.0643 124.859H13.3368C13.3719 124.86 13.4069 124.854 13.4393 124.84C13.4722 124.828 13.5021 124.808 13.5268 124.783C13.5514 124.758 13.5707 124.729 13.5836 124.696C13.5965 124.664 13.6027 124.629 13.6018 124.594V122.469C13.6027 122.434 13.5964 122.399 13.5834 122.367C13.5704 122.334 13.5509 122.305 13.5261 122.28C13.5013 122.255 13.4718 122.235 13.4392 122.222C13.4067 122.209 13.3718 122.203 13.3368 122.204Z" fill="#E2FD86"/>
<path d="M13.3368 128.644H11.0643C11.0292 128.643 10.9942 128.649 10.9618 128.663C10.9289 128.675 10.899 128.695 10.8743 128.72C10.8497 128.745 10.8304 128.774 10.8175 128.807C10.8046 128.839 10.7984 128.874 10.7993 128.909V131.034C10.7984 131.069 10.8047 131.104 10.8177 131.136C10.8307 131.169 10.8502 131.198 10.875 131.223C10.8998 131.248 10.9294 131.268 10.9619 131.281C10.9944 131.294 11.0293 131.3 11.0643 131.299H13.3368C13.3717 131.3 13.4063 131.293 13.4387 131.28C13.4711 131.268 13.5007 131.248 13.5256 131.224C13.5503 131.199 13.5699 131.169 13.583 131.137C13.5961 131.104 13.6025 131.069 13.6018 131.034V128.909C13.6027 128.874 13.5964 128.839 13.5834 128.807C13.5704 128.774 13.5509 128.744 13.5261 128.72C13.5013 128.695 13.4718 128.675 13.4392 128.662C13.4067 128.649 13.3718 128.643 13.3368 128.644Z" fill="#E2FD86"/>
<path d="M28.3368 47.7378C25.3715 47.7484 22.4726 48.617 19.99 50.2386C17.5074 51.8602 15.5471 54.1657 14.3456 56.8767C13.1442 59.5877 12.753 62.5885 13.2192 65.517C13.6854 68.4454 14.9892 71.1764 16.973 73.3803C18.1501 71.4177 19.8154 69.7934 21.8068 68.6656C23.7981 67.5379 26.0476 66.9451 28.3362 66.9451C30.6247 66.9451 32.8742 67.5379 34.8656 68.6656C36.8569 69.7934 38.5223 71.4177 39.6993 73.3803C41.6837 71.1766 42.9879 68.4457 43.4544 65.5172C43.921 62.5887 43.53 59.5877 42.3286 56.8765C41.1273 54.1653 39.1669 51.8598 36.6841 50.2381C34.2013 48.6165 31.3022 47.7481 28.3368 47.7378Z" fill="#E2FD86"/>
<path d="M17.2756 73.6077C18.7019 75.1068 20.418 76.3003 22.3197 77.1158C24.2213 77.9313 26.2689 78.3519 28.3381 78.3519C30.4072 78.3519 32.4548 77.9313 34.3565 77.1158C36.2582 76.3003 37.9743 75.1068 39.4006 73.6077C38.2654 71.6834 36.648 70.0884 34.7079 68.9804C32.7678 67.8724 30.5723 67.2896 28.3381 67.2896C26.1039 67.2896 23.9083 67.8724 21.9683 68.9804C20.0282 70.0884 18.4107 71.6834 17.2756 73.6077Z" fill="white"/>
<path d="M28.3368 64.6952C29.5877 64.6949 30.8104 64.3238 31.8503 63.6287C32.8903 62.9336 33.7008 61.9458 34.1793 60.7901C34.6579 59.6344 34.7831 58.3627 34.539 57.1359C34.2949 55.9091 33.6925 54.7822 32.808 53.8977C31.9235 53.0132 30.7966 52.4109 29.5698 52.1668C28.343 51.9227 27.0714 52.0478 25.9157 52.5264C24.76 53.005 23.7721 53.8155 23.077 54.8554C22.3819 55.8954 22.0108 57.1181 22.0106 58.3689C22.0135 60.0458 22.681 61.6532 23.8668 62.839C25.0525 64.0247 26.6599 64.6922 28.3368 64.6952Z" fill="white"/>
<path d="M24.2831 60.3001C24.5944 60.3001 24.8929 60.1765 25.113 59.9564C25.3331 59.7362 25.4568 59.4377 25.4568 59.1264C25.4568 58.8151 25.3331 58.5165 25.113 58.2964C24.8929 58.0763 24.5944 57.9526 24.2831 57.9526C23.9718 57.9526 23.6732 58.0763 23.4531 58.2964C23.233 58.5165 23.1093 58.8151 23.1093 59.1264C23.1093 59.4377 23.233 59.7362 23.4531 59.9564C23.6732 60.1765 23.9718 60.3001 24.2831 60.3001Z" fill="#FF5470"/>
<path d="M32.238 60.3001C32.5493 60.3001 32.8479 60.1765 33.068 59.9564C33.2881 59.7362 33.4118 59.4377 33.4118 59.1264C33.4118 58.8151 33.2881 58.5165 33.068 58.2964C32.8479 58.0763 32.5493 57.9526 32.238 57.9526C31.9268 57.9526 31.6282 58.0763 31.4081 58.2964C31.188 58.5165 31.0643 58.8151 31.0643 59.1264C31.0643 59.4377 31.188 59.7362 31.4081 59.9564C31.6282 60.1765 31.9268 60.3001 32.238 60.3001Z" fill="#FF5470"/>
<path d="M28.3356 47.0464C25.1649 47.0466 22.0656 47.9871 19.4294 49.7487C16.7932 51.5104 14.7387 54.0143 13.5255 56.9436C12.3123 59.873 11.995 63.0963 12.6137 66.2059C13.2324 69.3156 14.7594 72.172 17.0014 74.4139C19.2435 76.6558 22.1 78.1825 25.2097 78.8009C28.3194 79.4194 31.5427 79.1019 34.472 77.8885C37.4012 76.6751 39.9049 74.6203 41.6664 71.984C43.4279 69.3477 44.368 66.2483 44.368 63.0776C44.3631 58.8272 42.6723 54.7523 39.6667 51.7469C36.661 48.7415 32.586 47.051 28.3356 47.0464ZM17.6668 73.6014C18.7886 71.7801 20.358 70.2762 22.2255 69.2331C24.093 68.1901 26.1965 67.6424 28.3356 67.6424C30.4746 67.6424 32.5781 68.1901 34.4456 69.2331C36.3131 70.2762 37.8825 71.7801 39.0043 73.6014C37.6118 75.0175 35.9513 76.1423 34.1196 76.91C32.2879 77.6778 30.3216 78.0732 28.3356 78.0732C26.3495 78.0732 24.3832 77.6778 22.5515 76.91C20.7198 76.1423 19.0593 75.0175 17.6668 73.6014ZM16.9281 72.8201C15.0569 70.6385 13.8506 67.966 13.4524 65.1196C13.0541 62.2732 13.4806 59.3723 14.6811 56.7609C15.8817 54.1495 17.806 51.9372 20.2258 50.3864C22.6457 48.8355 25.4595 48.0113 28.3337 48.0113C31.2078 48.0113 34.0217 48.8355 36.4415 50.3864C38.8614 51.9372 40.7857 54.1495 41.9862 56.7609C43.1868 59.3723 43.6132 62.2732 43.215 65.1196C42.8167 67.966 41.6105 70.6385 39.7393 72.8201C38.5101 70.9124 36.8219 69.3435 34.8294 68.2571C32.837 67.1706 30.6038 66.6013 28.3343 66.6013C26.0648 66.6013 23.8316 67.1706 21.8392 68.2571C19.8467 69.3435 18.1585 70.9124 16.9293 72.8201H16.9281Z" fill="#2F473F"/>
<path d="M28.3356 51.3528C26.4742 51.3528 24.6892 52.0922 23.373 53.4083C22.0569 54.7245 21.3174 56.5096 21.3174 58.3709C21.3174 60.2322 22.0569 62.0173 23.373 63.3335C24.6892 64.6496 26.4742 65.389 28.3356 65.389C30.1969 65.389 31.982 64.6496 33.2981 63.3335C34.6143 62.0173 35.3537 60.2322 35.3537 58.3709C35.3537 56.5096 34.6143 54.7245 33.2981 53.4083C31.982 52.0922 30.1969 51.3528 28.3356 51.3528ZM28.3356 64.3828C26.7406 64.3828 25.211 63.7492 24.0832 62.6214C22.9554 61.4936 22.3218 59.964 22.3218 58.369C22.3218 56.7741 22.9554 55.2445 24.0832 54.1167C25.211 52.9889 26.7406 52.3553 28.3356 52.3553C29.9305 52.3553 31.4601 52.9889 32.5879 54.1167C33.7157 55.2445 34.3493 56.7741 34.3493 58.369C34.3493 59.964 33.7157 61.4936 32.5879 62.6214C31.4601 63.7492 29.9305 64.3828 28.3356 64.3828Z" fill="#2F473F"/>
<path d="M25.9168 56.0503C24.9993 56.0503 24.9993 57.8878 25.9168 57.8878C26.8343 57.8878 26.8293 56.0503 25.9168 56.0503Z" fill="#2F473F"/>
<path d="M30.4568 56.0503C29.5406 56.0503 29.5406 57.8878 30.4568 57.8878C31.3731 57.8878 31.3743 56.0503 30.4568 56.0503Z" fill="#2F473F"/>
<path d="M29.3243 58.869C28.8493 59.1165 28.3081 59.199 27.7818 59.1015C27.2193 59.0077 27.2656 58.7515 26.9281 58.8065C26.5081 58.8752 26.3131 59.3502 26.7231 59.7452C27.1896 60.0178 27.7196 60.163 28.2599 60.1663C28.8003 60.1696 29.332 60.0309 29.8018 59.764C30.4018 59.4652 29.8943 58.5677 29.3243 58.869Z" fill="#2F473F"/>
<path d="M79.2818 1.0376C79.2818 13.9726 79.2181 13.0451 79.3956 13.0451H214.428L214.352 1.0376H79.2818Z" fill="#E2FD86"/>
<path d="M214.391 145.991V13.4202L79.2818 13.4577L79.3193 146.029L214.391 145.991Z" fill="white"/>
<path d="M140.832 77.054H88.4856V123.264H140.832V77.054Z" fill="#FFE55D"/>
<path d="M173.672 133.464L152.877 139.325V146.029H205.224V137.053L190.414 141.786L173.672 133.464Z" fill="#E2FD86"/>
<path d="M152.877 131.598V138.946L173.709 133.085C184.002 138.031 182.892 137.545 183.217 137.545C183.414 137.521 183.252 137.536 205.224 135.878V131.636L152.877 131.598Z" fill="#E2FD86"/>
<path d="M205.417 130.913H152.692C152.626 130.911 152.56 130.923 152.499 130.948C152.437 130.972 152.382 131.009 152.336 131.057C152.288 131.103 152.251 131.158 152.227 131.22C152.202 131.281 152.19 131.347 152.192 131.413V146.413C152.191 146.454 152.199 146.495 152.215 146.533C152.231 146.571 152.254 146.605 152.283 146.634C152.312 146.663 152.346 146.686 152.384 146.702C152.422 146.718 152.463 146.726 152.504 146.725H205.607C205.648 146.726 205.689 146.718 205.727 146.702C205.765 146.686 205.799 146.663 205.828 146.634C205.857 146.605 205.881 146.571 205.896 146.533C205.912 146.495 205.92 146.454 205.919 146.413V131.413C205.916 131.281 205.862 131.155 205.768 131.062C205.675 130.969 205.549 130.915 205.417 130.913ZM204.877 137.487V145.723H153.189V139.568L173.641 133.804C190.462 142.167 190.318 142.15 190.516 142.09L204.877 137.487ZM204.916 135.557L183.064 137.2L173.849 132.772C173.682 132.69 173.816 132.7 153.193 138.512V131.913H204.917L204.916 135.557Z" fill="#2F473F"/>
<path d="M114.659 136.219C112.105 136.224 109.652 137.224 107.822 139.005C105.991 140.787 104.925 143.21 104.849 145.764H124.432C124.359 143.216 123.299 140.796 121.476 139.015C119.652 137.234 117.208 136.232 114.659 136.219Z" fill="#E2FD86"/>
<path d="M88.4856 131.598V146.029C104.466 146.029 104.469 146.079 104.471 145.954C104.53 143.291 105.629 140.757 107.533 138.895C109.437 137.032 111.995 135.99 114.658 135.99C117.322 135.99 119.879 137.032 121.783 138.895C123.687 140.757 124.787 143.291 124.846 145.954C124.846 146.079 124.859 146.029 140.829 146.029V131.598H88.4856Z" fill="#E2FD86"/>
<path d="M141.022 130.913H88.2918C88.2258 130.911 88.1602 130.923 88.0989 130.948C88.0377 130.973 87.9821 131.01 87.9356 131.056C87.8888 131.103 87.852 131.159 87.8272 131.22C87.8025 131.281 87.7905 131.347 87.7918 131.413V146.224C87.7897 146.323 87.818 146.421 87.8729 146.504C87.9279 146.587 88.0069 146.651 88.0993 146.688C88.1606 146.713 88.2256 146.725 88.2918 146.724C141.292 146.724 141.104 146.801 141.313 146.599C141.522 146.396 141.438 146.599 141.438 131.513C141.462 131.445 141.469 131.374 141.46 131.303C141.45 131.232 141.424 131.165 141.384 131.106C141.343 131.048 141.289 130.999 141.226 130.966C141.163 130.932 141.093 130.914 141.022 130.913ZM105.176 145.413C105.318 142.994 106.379 140.72 108.142 139.058C109.905 137.395 112.236 136.469 114.659 136.468C117.083 136.469 119.414 137.395 121.177 139.058C122.94 140.72 124.001 142.994 124.143 145.413H105.176ZM114.659 135.526C111.931 135.535 109.312 136.602 107.354 138.502C105.395 140.402 104.25 142.988 104.159 145.715H88.7981V131.913H140.521V145.719H125.157C125.07 142.991 123.927 140.403 121.968 138.501C120.01 136.6 117.389 135.534 114.659 135.528V135.526Z" fill="#2F473F"/>
<path d="M201.429 4.8314C200.901 4.62924 200.319 4.6177 199.783 4.79878C199.247 4.97986 198.791 5.34221 198.494 5.82337C198.196 6.30453 198.076 6.87436 198.154 7.43465C198.232 7.99493 198.502 8.51056 198.919 8.89265C199.197 9.14557 199.529 9.3307 199.89 9.4335C200.251 9.53631 200.631 9.55399 201.001 9.48516C201.556 9.37441 202.058 9.07707 202.422 8.6424C202.785 8.20773 202.99 7.66183 203.001 7.09516C202.996 6.60365 202.844 6.12479 202.564 5.72099C202.284 5.3172 201.888 5.0072 201.429 4.8314ZM199.317 6.34766C199.436 6.14625 199.603 5.97701 199.803 5.85463C200.002 5.73226 200.229 5.66044 200.462 5.64542C200.696 5.63039 200.93 5.67261 201.143 5.76841C201.357 5.86421 201.544 6.0107 201.688 6.19516C201.881 6.44141 201.989 6.74391 201.996 7.05641C201.994 7.35078 201.901 7.63738 201.729 7.87662C201.558 8.11587 201.316 8.29595 201.038 8.392C200.76 8.48805 200.459 8.49533 200.176 8.41282C199.893 8.33031 199.643 8.1621 199.461 7.93141C199.263 7.72143 199.142 7.45137 199.116 7.16432C199.09 6.87726 199.16 6.58975 199.317 6.34766Z" fill="#2F473F"/>
<path d="M208.323 4.83148C207.973 4.69634 207.596 4.64425 207.222 4.67931C206.848 4.71437 206.488 4.83563 206.169 5.03355C205.85 5.23147 205.581 5.50067 205.383 5.82001C205.186 6.13934 205.065 6.50012 205.03 6.87399C204.996 7.24786 205.048 7.62465 205.184 7.97477C205.32 8.32488 205.535 8.63879 205.812 8.89182C206.089 9.14486 206.422 9.33013 206.783 9.43309C207.144 9.53606 207.524 9.55391 207.893 9.48524C208.449 9.37428 208.95 9.07688 209.314 8.64226C209.677 8.20763 209.882 7.66185 209.893 7.09524C209.889 6.604 209.737 6.12537 209.457 5.72178C209.177 5.31818 208.782 5.00836 208.323 4.83274V4.83148ZM206.211 6.34774C206.371 6.07951 206.615 5.87077 206.904 5.75298C207.194 5.6352 207.514 5.61477 207.816 5.69476C208.118 5.77476 208.386 5.95085 208.58 6.19647C208.773 6.4421 208.881 6.74394 208.888 7.05648C208.887 7.3509 208.794 7.63766 208.623 7.87708C208.451 8.11649 208.21 8.29673 207.932 8.39283C207.653 8.48894 207.352 8.49616 207.069 8.41351C206.787 8.33086 206.537 8.16241 206.354 7.93149C206.157 7.72151 206.035 7.45145 206.009 7.1644C205.983 6.87734 206.054 6.58983 206.211 6.34774Z" fill="#2F473F"/>
<path d="M214.527 0.42016C212.232 0.26766 196.447 0.34266 79.0918 0.34266C79.0258 0.341474 78.9603 0.353596 78.8991 0.378304C78.8379 0.403011 78.7823 0.439797 78.7356 0.486465C78.689 0.533132 78.6522 0.588725 78.6275 0.649924C78.6028 0.711123 78.5906 0.776672 78.5918 0.84266V145.913C78.5894 146.012 78.6176 146.11 78.6725 146.193C78.7275 146.277 78.8067 146.341 78.8993 146.378C78.9606 146.402 79.026 146.414 79.0918 146.413H214.579C214.645 146.414 214.711 146.402 214.772 146.376C214.833 146.352 214.889 146.316 214.936 146.269C214.983 146.223 215.019 146.167 215.043 146.105C215.068 146.044 215.081 145.979 215.079 145.913C215.092 20.6002 215.126 3.43016 215.014 0.957661C214.994 0.457661 215.042 0.45391 214.527 0.42016ZM79.5568 12.7164V1.34141C79.5568 1.34141 212.988 1.36641 214.078 1.34141V12.7164H79.5568ZM79.5943 145.378C79.5943 145.378 79.6168 14.8152 79.5943 13.7327C79.5943 13.7327 213.786 13.7539 214.034 13.7477C214.034 13.7477 213.992 145.094 214.008 145.404L79.5943 145.378Z" fill="#2F473F"/>
<path d="M115.679 46.4853C112.143 43.0107 107.584 40.7638 102.675 40.0756C97.7653 39.3874 92.7645 40.2943 88.4093 42.6628V68.684H122.007C124.342 60.9015 121.064 51.7178 115.679 46.4853Z" fill="#E2FD86"/>
<path d="M104.108 34.8588C105.596 34.8953 107.07 34.5639 108.4 33.8942C109.729 33.2244 110.873 32.2369 111.729 31.0193C112.586 29.8017 113.128 28.3915 113.309 26.914C113.49 25.4364 113.303 23.937 112.766 22.5488H95.7581C95.2387 23.9129 95.0558 25.382 95.2249 26.8317C95.394 28.2814 95.91 29.669 96.7294 30.8769C97.5487 32.0848 98.6471 33.0774 99.9316 33.7706C101.216 34.4637 102.649 34.837 104.108 34.8588Z" fill="#E2FD86"/>
<path d="M124.931 40.0151C122.645 37.7957 121.066 34.9511 120.391 31.838C119.716 28.7248 119.975 25.4817 121.136 22.5151H113.182C114.593 28.5738 111.307 34.9963 104.878 35.2826C103.307 35.3573 101.743 35.0418 100.324 34.3643C98.9046 33.6869 97.6755 32.6685 96.746 31.4002C95.8165 30.1318 95.2156 28.653 94.997 27.0958C94.7783 25.5387 94.9488 23.9516 95.4931 22.4763H88.6368C88.6368 22.6013 88.5993 22.5088 88.5993 42.2113C92.617 40.0682 97.1701 39.1369 101.707 39.5303C106.243 39.9237 110.568 41.6249 114.157 44.4276C117.745 47.2303 120.444 51.0141 121.925 55.3201C123.405 59.626 123.605 64.2691 122.499 68.6863C122.624 68.6863 122.529 68.7238 140.832 68.7238V44.2163C138.094 45.0101 129.959 44.9326 124.931 40.0163V40.0151Z" fill="#BEA2DC"/>
<path d="M141.523 22.3214C141.526 22.2217 141.498 22.1236 141.443 22.0405C141.388 21.9573 141.308 21.893 141.216 21.8564C141.154 21.8319 141.089 21.8199 141.023 21.8214H88.2918C88.2258 21.82 88.1602 21.832 88.0989 21.8567C88.0376 21.8813 87.9819 21.9181 87.9352 21.9648C87.8885 22.0115 87.8518 22.0672 87.8271 22.1285C87.8025 22.1897 87.7905 22.2554 87.7918 22.3214V68.8727C87.7918 68.9383 87.8048 69.0033 87.8299 69.064C87.855 69.1247 87.8918 69.1798 87.9383 69.2262C87.9847 69.2726 88.0398 69.3095 88.1005 69.3346C88.1612 69.3597 88.2262 69.3727 88.2918 69.3727H141.017C141.116 69.3751 141.214 69.3469 141.298 69.2919C141.381 69.237 141.445 69.1578 141.482 69.0652C141.506 69.0039 141.518 68.9385 141.517 68.8727L141.523 22.3227V22.3214ZM88.7606 42.8502C92.6516 40.7866 97.0549 39.8882 101.443 40.2625C105.832 40.6369 110.019 42.2682 113.505 44.961C116.99 47.6539 119.625 51.2942 121.095 55.4461C122.565 59.598 122.807 64.0855 121.792 68.3714H88.7606V42.8502ZM88.8743 41.6977L88.8906 22.8902C88.9006 22.7652 88.4193 22.8252 95.0156 22.8252C94.5391 24.3376 94.4352 25.9428 94.7128 27.5041C94.9904 29.0653 95.6411 30.5364 96.6097 31.792C97.5783 33.0475 98.8359 34.0504 100.276 34.7152C101.715 35.38 103.294 35.6871 104.878 35.6102C112.773 35.2189 114.878 26.9064 113.587 22.8602H120.676C119.672 25.7041 119.457 28.7667 120.053 31.723C120.65 34.6793 122.035 37.419 124.063 39.6514C126.09 41.8845 128.683 43.5273 131.568 44.4054C134.453 45.2835 137.522 45.3642 140.449 44.6389C140.574 44.6389 140.517 68.3702 140.517 68.3702L122.846 68.3602C127.357 48.5114 106.873 32.8052 88.8743 41.6977ZM112.553 22.8414C113.012 24.1215 113.165 25.4911 113 26.8409C112.836 28.1907 112.358 29.4834 111.605 30.6157C110.852 31.7481 109.845 32.6888 108.664 33.3628C107.483 34.0368 106.161 34.4254 104.803 34.4977C103.361 34.5745 101.922 34.2962 100.612 33.6873C99.3025 33.0783 98.1623 32.1573 97.2916 31.005C96.4209 29.8526 95.8462 28.5043 95.6181 27.0781C95.39 25.652 95.5153 24.1916 95.9831 22.8252L112.553 22.8414Z" fill="#2F473F"/>
<path d="M133.484 52.8127C132.698 52.4505 131.835 52.2854 130.97 52.3316C130.106 52.3777 129.265 52.6338 128.522 53.0776C127.469 53.6928 126.653 54.6438 126.205 55.778C125.757 56.9123 125.703 58.1641 126.052 59.3326C126.4 60.5018 127.132 61.5196 128.13 62.2221C129.127 62.9246 130.332 63.2709 131.551 63.2051C132.769 63.1404 133.93 62.6678 134.847 61.8634C135.765 61.059 136.385 59.9694 136.608 58.77C136.831 57.5706 136.644 56.3309 136.078 55.2504C135.511 54.1699 134.598 53.3113 133.484 52.8127Z" fill="#2F473F"/>
<path d="M173.142 22.5488H152.839V42.8513L173.142 22.5488Z" fill="#E2FD86"/>
<path d="M186.551 22.5115L205.224 41.184V22.549C186.551 22.549 186.551 22.6365 186.551 22.5115Z" fill="#E2FD86"/>
<path d="M159.847 68.4564C179.668 48.6364 179.659 48.5701 179.847 48.5701C179.972 48.5701 179.887 48.5351 200.112 68.7589H205.226V57.2439L179.851 31.8689L152.917 58.7976V68.6077C160.292 68.6077 159.628 68.6739 159.847 68.4576V68.4564Z" fill="#AAF3FD"/>
<path d="M179.733 31.4502C179.759 31.4234 179.792 31.405 179.829 31.3974C179.866 31.3899 179.904 31.3934 179.938 31.4077C179.961 31.4178 179.981 31.4322 179.998 31.4502L205.224 56.714V41.714L186.021 22.5115H173.748L152.839 43.3865V58.3427L179.733 31.4502Z" fill="#AAF3FD"/>
<path d="M205.792 21.9877C205.568 21.7614 205.759 21.8627 152.693 21.8627C152.631 21.86 152.57 21.8702 152.513 21.8926C152.455 21.9149 152.403 21.949 152.359 21.9926C152.316 22.0362 152.282 22.0884 152.259 22.1459C152.237 22.2033 152.227 22.2648 152.229 22.3264V68.8727C152.227 68.9724 152.255 69.0706 152.31 69.1538C152.365 69.237 152.444 69.3012 152.537 69.3377C152.598 69.3629 152.663 69.3749 152.729 69.3727H205.379C205.445 69.3742 205.511 69.3623 205.572 69.3376C205.634 69.3129 205.689 69.2759 205.736 69.2289C205.783 69.1825 205.82 69.1269 205.844 69.0656C205.869 69.0044 205.881 68.9387 205.879 68.8727L205.917 22.3214C205.919 22.1983 205.874 22.079 205.792 21.9877ZM180.218 48.3114C180.12 48.2271 179.994 48.1808 179.865 48.1808C179.735 48.1808 179.61 48.2271 179.512 48.3114L159.473 68.3714H153.189V58.9964L179.808 32.3777C179.808 32.3777 204.683 57.2739 204.873 57.4527V68.3652H200.278L180.218 48.3114ZM187.304 22.7877H204.917V40.3914L187.304 22.7877ZM204.804 41.8089V55.7702C204.804 55.7702 180.474 31.4289 180.224 31.1914C180.13 31.0982 180.003 31.0459 179.871 31.0459C179.739 31.0459 179.612 31.0982 179.518 31.1914L153.189 57.5127V43.4352L173.814 22.8239H185.814L204.804 41.8089ZM153.158 42.0989C153.158 22.8277 153.196 23.9339 153.196 22.8264H172.431L153.158 42.0989Z" fill="#2F473F"/>
<path d="M126.477 118.075C120.003 100.04 120.076 100.075 120.076 100.463L114.542 115.31C114.536 115.355 114.513 115.397 114.478 115.425C114.442 115.453 114.397 115.467 114.352 115.463C114.132 115.463 114.227 115.505 109.087 101.031C108.911 101.385 106.496 107.92 102.534 118.568C126.583 118.568 126.587 118.655 126.587 118.53L126.477 118.075Z" fill="#E2FD86"/>
<path d="M126.667 81.6377H102.614C102.614 81.7627 102.603 81.6814 109.167 99.9327C114.806 84.7039 114.717 84.7439 114.924 84.7439C115.132 84.7439 115.049 84.7089 120.189 99.2127L126.667 81.6377Z" fill="white"/>
<path d="M141.022 76.3626H88.2918C88.2259 76.3617 88.1606 76.3741 88.0995 76.3989C88.0385 76.4238 87.983 76.4606 87.9364 76.5072C87.8898 76.5538 87.853 76.6092 87.8282 76.6703C87.8034 76.7313 87.791 76.7967 87.7918 76.8626V123.413C87.7897 123.512 87.818 123.61 87.8729 123.693C87.9279 123.776 88.0069 123.84 88.0993 123.876C88.1606 123.901 88.2256 123.914 88.2918 123.913L141.167 123.868C141.254 123.84 141.33 123.784 141.38 123.707C141.431 123.631 141.455 123.54 141.447 123.449V77.0738C141.478 77.0191 141.499 76.9586 141.507 76.8959C141.515 76.8331 141.51 76.7695 141.493 76.7086C141.476 76.6477 141.447 76.5908 141.408 76.5413C141.368 76.4917 141.32 76.4505 141.264 76.4201C141.19 76.3796 141.106 76.3597 141.022 76.3626ZM140.522 77.3288V122.913H88.7981V77.3288H140.522Z" fill="#2F473F"/>
<path d="M127.417 118.651C127.417 118.651 120.867 100.289 120.642 99.7689C120.642 99.7689 127.343 81.7789 127.382 81.6614C127.408 81.5842 127.415 81.5019 127.402 81.4214C127.391 81.3407 127.36 81.2639 127.313 81.1977C127.265 81.1315 127.202 81.0779 127.129 81.0414C127.057 81.0041 126.977 80.9844 126.896 80.9839C101.961 80.9839 102.203 80.8277 101.933 81.2002C101.889 81.2614 101.859 81.3324 101.848 81.4072C101.837 81.4821 101.844 81.5586 101.868 81.6302C101.868 81.6302 108.418 99.9939 108.643 100.513L101.893 118.71C101.874 118.82 101.891 118.932 101.944 119.03C101.996 119.128 102.079 119.206 102.181 119.251C102.247 119.282 102.32 119.298 102.393 119.296H126.937C127.015 119.297 127.092 119.279 127.162 119.244C127.232 119.209 127.293 119.158 127.339 119.095C127.386 119.032 127.417 118.959 127.431 118.882C127.444 118.805 127.44 118.726 127.417 118.651ZM120.118 98.2877L115.356 84.7552C115.32 84.6552 115.253 84.5693 115.165 84.5098C115.077 84.4503 114.973 84.4203 114.867 84.4242C114.76 84.4281 114.658 84.4656 114.575 84.5315C114.492 84.5973 114.431 84.6879 114.403 84.7902L109.136 99.0302L103.004 81.9877H126.184L120.118 98.2877ZM109.143 101.979L113.931 115.424C113.942 115.541 113.995 115.651 114.079 115.734C114.163 115.817 114.274 115.867 114.392 115.876C114.51 115.886 114.627 115.852 114.723 115.783C114.819 115.713 114.887 115.612 114.914 115.496L120.179 101.34L126.304 118.369H103.042L109.143 101.979Z" fill="#2F473F"/>
<path d="M152.877 77.054V123.265H205.224V77.054H152.877Z" fill="#FFB2BF"/>
<path d="M205.417 76.3627H152.692C152.592 76.3605 152.495 76.3888 152.412 76.4438C152.329 76.4987 152.265 76.5777 152.228 76.6702C152.203 76.7312 152.191 76.7967 152.192 76.8627V123.413C152.19 123.479 152.202 123.544 152.227 123.606C152.251 123.667 152.288 123.723 152.336 123.769C152.382 123.816 152.437 123.853 152.499 123.878C152.56 123.903 152.626 123.914 152.692 123.913L205.602 123.868C205.689 123.84 205.764 123.783 205.815 123.707C205.865 123.631 205.889 123.54 205.881 123.449L205.918 76.8602C205.919 76.7942 205.907 76.7287 205.882 76.6676C205.857 76.6066 205.82 76.5513 205.773 76.5052C205.726 76.459 205.67 76.4227 205.609 76.3982C205.548 76.3737 205.483 76.3617 205.417 76.3627ZM204.917 77.3289V122.913H153.189V77.3289H204.917Z" fill="#2F473F"/>
<path d="M178.861 83.6077H158.028V115.121H178.861V83.6077Z" fill="white"/>
<path d="M200.073 83.6077H179.241V115.121H200.073V83.6077Z" fill="white"/>
<path d="M200.452 82.9126H157.651C157.589 82.9126 157.528 82.9308 157.477 82.9651C157.426 82.9993 157.386 83.0481 157.362 83.1051C157.346 83.1431 157.338 83.1839 157.338 83.2251V115.5C157.338 115.541 157.346 115.582 157.361 115.62C157.377 115.658 157.4 115.692 157.429 115.721C157.458 115.751 157.493 115.774 157.531 115.789C157.569 115.805 157.609 115.813 157.651 115.813H200.452C200.535 115.813 200.614 115.78 200.673 115.721C200.731 115.662 200.764 115.583 200.764 115.5V83.2276C200.765 83.1654 200.747 83.1044 200.713 83.0524C200.678 83.0005 200.629 82.9601 200.572 82.9363C200.534 82.9205 200.493 82.9124 200.452 82.9126ZM179.553 114.806V83.9201H199.761V114.809L179.553 114.806ZM178.553 83.9176V114.806H158.341V83.9201L178.553 83.9176Z" fill="#2F473F"/>
<path d="M176.816 95.2351H159.884V96.7876H176.816V95.2351Z" fill="#E2FD86"/>
<path d="M176.816 98.6064H159.884V100.159H176.816V98.6064Z" fill="#E2FD86"/>
<path d="M176.816 101.978H159.884V103.53H176.816V101.978Z" fill="#E2FD86"/>
<path d="M176.816 105.349H159.884V106.901H176.816V105.349Z" fill="#E2FD86"/>
<path d="M176.816 108.72H159.884V110.273H176.816V108.72Z" fill="#E2FD86"/>
<path d="M198.141 95.2351H181.172V96.7876H198.141V95.2351Z" fill="#E2FD86"/>
<path d="M198.141 98.6064H181.172V100.159H198.141V98.6064Z" fill="#E2FD86"/>
<path d="M198.141 101.978H181.172V103.53H198.141V101.978Z" fill="#E2FD86"/>
<path d="M198.141 105.349H181.172V106.901H198.141V105.349Z" fill="#E2FD86"/>
<path d="M198.141 108.72H181.172V110.273H198.141V108.72Z" fill="#E2FD86"/>
<path d="M171.248 86.4478H165.528V92.1678H171.248V86.4478Z" fill="#E2FD86"/>
<path d="M189.657 85.2739L185.603 89.3264L189.657 93.3802L193.672 89.3264L189.657 85.2739Z" fill="#E2FD86"/>
<path d="M171.814 85.9626C171.601 85.6688 171.889 85.7563 165.339 85.7563C165.24 85.7542 165.142 85.7825 165.059 85.8374C164.976 85.8924 164.912 85.9714 164.876 86.0638C164.851 86.1249 164.838 86.1904 164.839 86.2563V92.3538C164.838 92.4199 164.85 92.4855 164.875 92.5468C164.899 92.608 164.936 92.6636 164.983 92.7101C165.03 92.7569 165.085 92.7938 165.146 92.8185C165.208 92.8432 165.273 92.8553 165.339 92.8538C171.774 92.8538 171.589 92.9101 171.772 92.7288C171.954 92.5476 171.897 92.8763 171.897 86.3326C171.909 86.2687 171.907 86.2032 171.893 86.1398C171.879 86.0764 171.852 86.0166 171.814 85.9638V85.9626ZM165.841 91.8551V86.7601H170.936V91.8551H165.841Z" fill="#2F473F"/>
<path d="M194.309 88.9926L190.028 84.6738C189.934 84.5806 189.807 84.5283 189.675 84.5283C189.543 84.5283 189.416 84.5806 189.322 84.6738C184.646 89.3501 184.934 89.0276 184.881 89.1901C184.856 89.2785 184.855 89.3717 184.877 89.4608C184.898 89.5499 184.943 89.6319 185.006 89.6988C189.683 94.3763 189.388 94.1651 189.678 94.1651C189.968 94.1651 189.678 94.3376 194.311 89.6988C194.404 89.6049 194.456 89.4778 194.456 89.3454C194.456 89.213 194.403 89.0861 194.309 88.9926ZM193.229 89.3263L189.618 92.9388L186.008 89.3263L189.618 85.7151L193.229 89.3276V89.3263Z" fill="#2F473F"/>
</svg>
