<svg width="240" height="229" viewBox="0 0 240 229" fill="none" xmlns="http://www.w3.org/2000/svg">
<path d="M177.221 56.2209C176.243 55.3127 174.974 54.7838 173.641 54.7295C170.632 54.4307 167.625 55.3148 165.257 57.1946C166.458 55.8477 167.748 54.5838 169.119 53.4116C170.025 52.7892 170.83 52.0321 171.506 51.1664C171.846 50.7238 172.055 50.1943 172.107 49.6387C172.16 49.0831 172.055 48.5239 171.804 48.0254C170.645 46.3405 168.481 46.6433 166.717 47.6798C163.78 49.3506 161.523 52.0013 160.343 55.168C159.966 52.6728 159.685 51.1061 156.7 50.7417C155.282 50.5807 153.847 50.8186 152.557 51.4288C151.267 52.0391 150.174 52.9973 149.399 54.1955C147.955 57.3039 153.717 56.7611 155.099 57.6645C155.593 57.9802 155.969 58.449 156.17 58.9992C156.371 59.5493 156.387 60.1504 156.214 60.71C155.937 61.2575 155.505 61.7112 154.972 62.0141C153.669 62.768 150.592 63.1286 149.855 61.3545C149.69 60.6107 149.723 59.8368 149.949 59.1093C150.045 58.7534 150.061 58.381 149.997 58.018C149.934 57.6551 149.791 57.3105 149.58 57.0083C149.37 56.7062 149.095 56.4539 148.776 56.269C148.458 56.0841 148.102 55.9712 147.735 55.9382C147.048 56.0319 146.417 56.3721 145.961 56.8956C144.723 58.2424 144.018 59.9941 143.977 61.8232C143.937 63.6522 144.564 65.4334 145.741 66.8337C148.611 70.1317 153.657 70.0752 154.894 74.6045C155.136 75.4719 155.518 76.294 156.025 77.0382C157.328 78.718 160.608 79.0484 162.478 78.2619C163.177 77.9708 163.78 77.4896 164.22 76.8729C164.659 76.2562 164.917 75.5287 164.964 74.7729C164.784 73.7684 164.721 72.7464 164.776 71.7274C166.508 70.518 168.452 69.6447 170.506 69.153C172.076 68.8854 174.719 69.4608 175.215 67.3161C175.295 66.9594 175.287 66.5885 175.191 66.2356C175.096 65.8827 174.915 65.5584 174.666 65.2908C173.122 63.6098 169.825 63.0205 167.539 63.2969C168.764 61.7428 172.044 61.3796 173.821 61.1774C175.217 61.0191 176.836 60.9424 177.667 59.828C178.019 59.2675 178.168 58.6023 178.086 57.945C178.005 57.2877 177.699 56.6786 177.221 56.2209Z" fill="white"/>
<path d="M22.7058 223.814C22.6775 222.878 22.5081 221.952 22.2033 221.067C21.4774 218.314 21.2644 215.451 21.5751 212.62L7.50336 210.046C7.45436 210.172 7.63906 212.613 3.17004 216.216C2.53519 216.647 2.00009 217.209 1.60079 217.864C0.238852 220.485 4.9579 220.921 6.20801 219.45C5.68415 220.259 5.02944 220.975 4.27064 221.57C3.50173 222.37 2.96776 223.673 3.65878 224.552C4.03094 224.882 4.49405 225.091 4.98734 225.153C5.48062 225.215 5.98102 225.126 6.42286 224.898C7.96616 224.318 9.29295 223.276 10.2222 221.914L8.65172 225.902C8.3994 226.384 8.32724 226.941 8.44818 227.472C8.61569 227.796 8.89062 228.051 9.22579 228.194C9.56095 228.337 9.93546 228.359 10.285 228.256C10.985 228.009 11.6006 227.569 12.0603 226.986C13.7757 225.132 15.1763 223.01 16.2065 220.704C16.5333 221.969 17.0632 223.173 17.7757 224.268C18.576 225.492 20.0209 226.686 21.3715 226.105C21.7831 225.883 22.1255 225.551 22.3609 225.147C22.5963 224.743 22.7156 224.281 22.7058 223.814Z" fill="white"/>
<path d="M166.419 70.9006C165.806 74.0416 156.544 79.2997 152.761 72.4711C154.472 75.5631 152.73 82.1731 151.787 85.1608C149.291 93.2771 144.752 101.85 136.731 105.664C124.041 111.318 108.653 105.716 96.0698 99.8242L102.004 120.061C119.823 130.877 147.36 127.392 158.35 108.898C164.908 97.3728 167.727 84.0964 166.419 70.9006Z" fill="#E2FD86"/>
<path d="M102.743 102.162C88.6106 95.3691 70.041 98.9964 56.899 106.746C47.3743 112.364 45.2497 121.661 45.7171 132.211C45.9683 137.832 46.5651 143.452 46.3453 149.073C46.1254 154.694 44.3199 159.843 42.6879 165.353C41.8599 167.534 41.5481 169.877 41.777 172.198C42.437 174.829 43.9978 177.145 46.1882 178.744C51.636 183.234 58.5876 185.258 65.5933 186.217C73.138 187.367 80.8134 187.367 88.3581 186.217C94.6552 185.16 100.682 182.135 104.44 177.045C108.198 171.956 109.624 165.388 110.722 158.849C112.518 148.813 113.108 138.599 112.481 128.424C111.929 120.911 110.292 105.787 102.743 102.162Z" fill="#E2FD86"/>
<path d="M177.645 55.7585C176.565 54.7634 175.17 54.1783 173.702 54.1051C171.999 53.9335 170.279 54.121 168.653 54.6554C168.926 54.4041 169.201 54.1641 169.476 53.9279C170.433 53.2654 171.286 52.4628 172.005 51.547C172.423 50.9988 172.675 50.3423 172.731 49.6554C172.787 48.9684 172.645 48.2798 172.322 47.671C170.976 45.7161 168.468 45.9259 166.417 47.132C163.956 48.5335 161.935 50.5943 160.583 53.0824C160.151 51.5747 159.268 50.4339 156.779 50.1185C152.071 49.5644 148.184 53.3047 148.577 55.4419C148.279 55.3556 147.97 55.3132 147.66 55.3162C146.825 55.4284 146.06 55.8385 145.504 56.4709C144.164 57.9351 143.403 59.8364 143.361 61.8204C143.32 63.8044 144.002 65.7358 145.279 67.2546C148.439 70.8868 152.786 69.8289 152.857 75.8948C152.724 78.9828 152.163 82.0374 151.19 84.9711C149.034 91.9805 144.73 101.162 136.479 105.086C126.786 109.409 115.168 106.889 105.219 103.076C104.558 102.481 103.817 101.982 103.017 101.593C87.3651 94.0637 68.2225 99.3694 56.582 106.203C45.5382 112.746 44.7379 124.195 45.0972 132.237C45.3485 137.809 45.9428 143.477 45.7254 149.045C45.5055 154.647 43.6787 159.782 42.107 165.127C41.2387 167.429 40.9194 169.901 41.1747 172.348C41.5955 174.026 42.3661 175.596 43.4362 176.956C43.4261 176.979 43.4173 177.002 43.4098 177.025C39.6497 188.617 40.6439 201.228 46.1739 212.087C47.2733 214.246 46.8298 215.58 58.1273 217.567C69.9787 219.656 82.1421 219.152 93.7802 216.09C100.538 214.289 118.631 208.384 115.316 201.819L103.74 178.898C108.507 173.591 110.22 165.924 111.34 158.959C113.311 147.841 113.807 136.512 112.815 125.264C129.72 129.704 149.831 124.467 158.9 109.205C165.499 97.6495 168.352 84.3323 167.066 71.0878C168.19 70.5133 169.377 70.0739 170.604 69.7787C172.085 69.5274 175.156 70.128 175.823 67.4531C176.458 64.4968 172.682 62.8861 169.677 62.6373C173.147 61.347 176.577 62.3345 178.19 60.1672C178.616 59.4805 178.795 58.6687 178.695 57.8666C178.596 57.0646 178.226 56.3207 177.645 55.7585ZM110.097 158.749C109.076 165.101 107.623 171.668 103.931 176.672C100.615 181.169 95.0442 184.336 88.2671 185.592C80.7783 186.724 73.1621 186.724 65.6733 185.592C57.7303 184.615 51.3114 182.149 46.5622 178.236C44.5137 176.743 43.0452 174.587 42.406 172.134C42.1896 169.894 42.4931 167.634 43.293 165.53C44.9364 159.983 46.7531 154.821 46.9768 149.095C47.1979 143.448 46.5998 137.709 46.3486 132.182C45.7932 119.743 49.1466 112.068 57.2177 107.287C70.2843 99.6169 88.4242 95.9797 102.47 102.728C109.899 106.298 111.316 122.413 111.847 128.463C112.429 138.592 111.842 148.755 110.097 158.749ZM157.803 108.57C148.998 123.387 129.213 128.465 112.66 123.922C111.984 117.996 110.578 109.962 107.006 105.076C116.681 108.495 127.648 110.397 136.997 106.227C145.673 102.101 150.152 92.5912 152.383 85.3455C153.539 82.0301 154.11 78.5389 154.07 75.0279C154.851 75.6289 155.752 76.0558 156.712 76.2799C157.672 76.504 158.669 76.52 159.636 76.327C162.05 75.9222 164.268 74.7467 165.958 72.9762C166.81 85.3855 163.973 97.7696 157.803 108.57ZM177.151 59.4573C176.309 60.1942 175.213 60.5749 174.096 60.519C171.844 60.7615 168.442 61.1309 167.035 62.9137C166.958 63.0114 166.911 63.1298 166.902 63.2539C166.892 63.3779 166.919 63.5021 166.98 63.6106C167.041 63.719 167.133 63.807 167.244 63.8632C167.355 63.9194 167.48 63.9414 167.604 63.9264C169.833 63.6575 172.818 64.2329 174.192 65.7205C174.371 65.912 174.501 66.1435 174.571 66.3956C174.641 66.6477 174.649 66.913 174.596 67.1691C174.226 68.7723 172.04 68.2534 170.349 68.5512C168.217 69.0597 166.201 69.9659 164.405 71.2223C163.987 71.515 163.995 72.4171 164.176 72.9285C161.868 74.8357 158.152 75.9966 155.514 74.499C154.634 71.5741 153.047 70.7222 150.194 69.1882C148.712 68.5189 147.365 67.5852 146.219 66.4329C145.14 65.1458 144.567 63.51 144.606 61.831C144.646 60.1521 145.295 58.545 146.434 57.3101C146.77 56.9195 147.233 56.6583 147.741 56.5714C147.997 56.5707 148.248 56.6368 148.47 56.7631C148.692 56.8894 148.878 57.0714 149.008 57.2913C149.293 57.7853 149.411 58.3581 149.345 58.9246C149.079 59.7928 149.054 60.7167 149.27 61.5982C149.426 61.9526 149.658 62.2682 149.95 62.5221C150.242 62.7761 150.587 62.9622 150.959 63.067C152.409 63.4481 153.95 63.2687 155.274 62.5644C155.944 62.1813 156.479 61.6009 156.808 60.9022C157.022 60.2137 157.005 59.474 156.759 58.7961C156.513 58.1182 156.053 57.5394 155.447 57.1481C154.252 56.3653 150.408 56.4131 149.857 55.3678C149.318 54.3488 152.484 50.8774 156.617 51.3674C159.019 51.6702 159.319 52.6715 159.682 54.9921C159.632 55.1587 159.651 55.3383 159.733 55.4915C159.815 55.6446 159.955 55.7588 160.122 55.8087C160.289 55.8587 160.468 55.8405 160.621 55.758C160.775 55.6755 160.889 55.5356 160.939 55.369C162.044 52.3256 164.214 49.7853 167.047 48.2176C168.41 47.4185 170.328 47.0089 171.241 48.3093C171.438 48.7014 171.521 49.1411 171.481 49.5782C171.44 50.0152 171.277 50.4319 171.01 50.7806C170.355 51.6103 169.58 52.337 168.71 52.9366C167.317 54.1281 166.007 55.4121 164.787 56.7799C164.683 56.8974 164.627 57.0496 164.629 57.2065C164.632 57.3634 164.693 57.5136 164.801 57.6277C164.909 57.7417 165.055 57.8113 165.212 57.8228C165.368 57.8342 165.523 57.7867 165.646 57.6896C167.893 55.8996 170.753 55.0632 173.611 55.3602C174.789 55.4129 175.912 55.8785 176.782 56.6757C177.148 57.03 177.383 57.4974 177.45 58.0023C177.517 58.5071 177.412 59.0198 177.151 59.4573ZM150.331 57.143C151.792 57.6745 154.131 57.7712 154.76 58.1972C155.127 58.4266 155.41 58.7679 155.569 59.1708C155.727 59.5737 155.752 60.0168 155.639 60.4348C155.416 60.8752 155.066 61.2388 154.634 61.4789C153.621 62.0081 152.449 62.1476 151.34 61.8709C150.972 61.7786 150.656 61.5447 150.46 61.2201C150.319 60.5525 150.354 59.8597 150.562 59.2098C150.674 58.5131 150.596 57.7991 150.336 57.143H150.331Z" fill="#2F463F"/>
<path d="M44.0988 126.853C46.0688 122.597 47.6004 118.109 49.4058 113.854C51.2113 109.6 57.2973 110.98 60.3013 112.991C63.4746 115.168 65.842 118.329 67.0369 121.987C69.5321 127.816 67.7304 131.503 64.6347 136.965C52.0543 159.155 40.3861 182.538 31.9167 206.821C31.5398 207.904 31.5059 209.973 30.7709 210.777C30.6227 210.935 30.4536 211.073 30.2683 211.185C29.4194 211.575 28.5019 211.794 27.5683 211.829C23.5805 212.41 20.1015 215.144 16.0911 215.44C14.3094 215.537 12.526 215.281 10.844 214.686C9.16189 214.09 7.61448 213.168 6.29115 211.971C4.99864 210.87 3.89219 209.568 3.01446 208.115C1.50678 205.548 -0.126544 202.634 0.98914 199.621C3.18407 193.698 7.50232 191.232 21.5401 168.598C29.8006 155.097 37.3309 141.162 44.0988 126.853Z" fill="#E2FD86"/>
<path d="M67.636 121.786C66.4039 117.99 63.9443 114.71 60.6442 112.465C58.4505 110.997 54.7617 109.907 51.9863 110.766C47.7497 112.078 49.182 115.356 41.4539 130.945C31.6665 150.688 19.4807 172.697 6.04348 190.379C3.75184 193.111 1.85385 196.15 0.404748 199.408C-0.825269 202.735 1.00405 205.895 2.47781 208.441C3.37509 209.951 4.51872 211.3 5.8613 212.432C5.00821 213.659 3.98488 214.759 2.82206 215.698C1.47646 216.613 0.0969293 218.377 1.04928 219.77C1.42744 220.193 1.90223 220.517 2.43305 220.716C2.96386 220.914 3.53489 220.981 4.09731 220.911C3.44595 221.35 2.99208 222.025 2.83287 222.794C2.67366 223.563 2.82176 224.364 3.24547 225.025C3.70232 225.43 4.26948 225.691 4.87486 225.774C5.48024 225.856 6.0965 225.757 6.64529 225.488C7.31196 225.238 7.945 224.906 8.52989 224.5L8.09267 225.614C7.91898 225.941 7.81149 226.299 7.77635 226.668C7.74121 227.036 7.77911 227.408 7.88787 227.762C8.1266 228.219 8.5177 228.579 8.99339 228.777C9.46908 228.976 9.99938 229.003 10.4924 228.852C11.2892 228.573 11.9912 228.074 12.5177 227.414C13.9218 225.899 15.1214 224.206 16.0859 222.379C16.3974 223.161 16.7859 223.91 17.2456 224.615C18.2507 226.15 19.987 227.379 21.6643 226.662C22.1799 226.385 22.6085 225.971 22.9024 225.465C23.1964 224.959 23.3441 224.382 23.329 223.797C23.3007 222.813 23.1245 221.839 22.8064 220.907C22.2371 218.753 21.9915 216.526 22.0777 214.299C23.8329 213.462 25.6852 212.846 27.592 212.464C28.6333 212.425 29.6557 212.175 30.5973 211.728C31.767 211.005 31.9279 209.948 32.2093 208.384C32.4367 207.116 32.2822 207.618 34.1869 202.335C42.4088 179.936 53.3005 158.272 65.181 137.276C68.3635 131.68 70.1652 127.679 67.636 121.786ZM21.609 221.269C21.8932 222.093 22.0512 222.955 22.0777 223.826C22.088 224.17 22.0046 224.509 21.8364 224.809C21.6681 225.109 21.4215 225.357 21.1228 225.527C20.173 225.941 18.9945 224.983 18.3022 223.925C17.6268 222.887 17.1244 221.746 16.8146 220.547C16.7822 220.421 16.7112 220.308 16.6116 220.223C16.512 220.139 16.3887 220.088 16.2587 220.077C16.1288 220.066 15.9987 220.096 15.8864 220.162C15.7742 220.229 15.6854 220.328 15.6323 220.448C14.6234 222.706 13.2503 224.782 11.5679 226.595C11.1908 227.077 10.6858 227.444 10.1104 227.653C9.91319 227.71 9.70268 227.702 9.5107 227.629C9.31872 227.556 9.1557 227.422 9.04628 227.249C8.98508 226.865 9.05267 226.472 9.23851 226.13L10.804 222.149C10.8602 222.005 10.8617 221.846 10.808 221.701C10.7544 221.557 10.6494 221.437 10.5131 221.365C10.3767 221.292 10.2186 221.273 10.0688 221.31C9.91905 221.347 9.78807 221.437 9.70086 221.565C8.82872 222.839 7.58163 223.809 6.13268 224.342C5.81983 224.505 5.46697 224.575 5.1157 224.544C4.76443 224.513 4.42939 224.382 4.15008 224.167C3.7116 223.609 4.11741 222.638 4.65264 222.068C5.60885 221.326 6.40647 220.399 6.99834 219.343C7.03456 219.269 7.05579 219.188 7.06084 219.106C7.06589 219.023 7.05464 218.941 7.02775 218.863C7.00086 218.785 6.95885 218.713 6.90411 218.651C6.84937 218.589 6.78299 218.538 6.70874 218.502C6.63449 218.466 6.55384 218.445 6.47139 218.44C6.38893 218.435 6.30629 218.446 6.22818 218.473C6.15007 218.5 6.07803 218.542 6.01615 218.596C5.95428 218.651 5.9038 218.717 5.86758 218.792C5.8123 218.887 5.75576 218.981 5.69545 219.074C4.96925 219.858 2.6135 219.855 2.07199 219.063C1.60964 218.385 2.87232 217.178 3.55706 216.709C4.8021 215.707 5.90155 214.537 6.8237 213.232C9.50318 215.242 12.8026 216.248 16.1475 216.075C17.7544 215.896 19.3245 215.472 20.8037 214.819C20.7769 216.996 21.0478 219.166 21.609 221.269ZM64.0917 136.654C51.3581 159.16 39.9475 182.011 31.3273 206.62C30.9868 207.601 30.8423 209.781 30.3222 210.35C30.2286 210.45 30.125 210.541 30.0131 210.62C29.2178 210.983 28.3587 211.184 27.4852 211.213C23.2939 211.822 19.7671 214.544 16.0658 214.818C10.9786 215.195 6.08745 212.036 3.5646 207.799C2.15617 205.367 0.559285 202.61 1.58576 199.839C3.80206 193.866 7.6278 192.22 22.0802 168.931C29.5055 156.953 36.2247 144.327 42.5809 131.502C50.1947 116.141 48.9307 113.033 52.3607 111.964C53.6647 111.708 55.0064 111.712 56.3086 111.977C57.6108 112.242 58.8477 112.762 59.9481 113.506C63.0291 115.613 65.3222 118.684 66.4663 122.236C68.8334 127.775 67.0694 131.411 64.0917 136.656V136.654Z" fill="#2F463F"/>
<path d="M121.345 29.2347C121.108 29.2347 122.224 29.8063 104.198 19.926C104.056 19.844 103.952 19.7096 103.907 19.5515C103.863 19.3933 103.882 19.2241 103.961 19.08C104.04 18.9359 104.172 18.8285 104.329 18.7806C104.486 18.7328 104.656 18.7484 104.802 18.8241L121.647 28.0549C121.77 28.1218 121.867 28.2278 121.923 28.3559C121.979 28.4841 121.99 28.6273 121.955 28.7627C121.92 28.8981 121.842 29.018 121.731 29.1035C121.62 29.189 121.484 29.2351 121.345 29.2347Z" fill="#2F463F"/>
<path d="M74.4193 94.6857C72.7559 95.5966 72.8501 97.7463 72.8501 99.396V102.096C72.8501 102.944 73.9432 103.678 74.7812 104.121C77.6089 105.591 80.844 106.082 83.9806 105.518C84.2012 105.502 84.4132 105.426 84.5937 105.299C84.7463 105.134 84.8595 104.937 84.9248 104.722C84.9901 104.507 85.0058 104.28 84.9706 104.058C84.969 101.468 85.2373 98.8842 85.7709 96.3492C85.8275 96.1927 85.8485 96.0255 85.8322 95.8598C85.8159 95.6942 85.7627 95.5343 85.6767 95.3918C85.5522 95.2778 85.4009 95.197 85.237 95.1569C82.5929 94.2562 79.7978 93.8827 77.01 94.0575C76.1138 94.0963 75.2338 94.3097 74.4193 94.6857Z" fill="white"/>
<path d="M78.0777 101.436C80.3446 102.278 82.8357 102.295 85.1136 101.483C85.2306 99.7572 85.4665 98.0419 85.8197 96.3489C85.8766 96.1925 85.8976 96.0252 85.8813 95.8595C85.865 95.6939 85.8117 95.5339 85.7254 95.3916C85.6009 95.2776 85.4497 95.1968 85.2857 95.1566C82.6408 94.2613 79.8472 93.888 77.06 94.0573C76.1478 94.0914 75.2513 94.3048 74.4216 94.6855C73.9078 95.0257 73.4925 95.495 73.2171 96.0462C72.9417 96.5974 72.8159 97.2113 72.8523 97.8265C74.2343 99.4816 76.0406 100.729 78.0777 101.436Z" fill="white"/>
<path d="M239.343 73.7577C239.218 73.7577 239.483 73.774 205.052 70.2222C204.886 70.2055 204.733 70.1234 204.627 69.9938C204.521 69.8642 204.47 69.6978 204.487 69.5312C204.504 69.3645 204.586 69.2114 204.715 69.1054C204.845 68.9993 205.011 68.9491 205.178 68.9658L239.402 72.4988C239.569 72.5071 239.725 72.5813 239.837 72.705C239.949 72.8287 240.008 72.9918 239.999 73.1584C239.991 73.325 239.917 73.4815 239.793 73.5934C239.669 73.7053 239.506 73.7635 239.34 73.7552L239.343 73.7577Z" fill="#2F463F"/>
<path d="M93.6371 99.5844C93.4959 99.5849 93.3586 99.5379 93.2474 99.4509C93.1362 99.3639 93.0576 99.2419 93.0242 99.1047C92.9908 98.9675 93.0046 98.8231 93.0634 98.6947C93.1221 98.5663 93.2225 98.4614 93.3481 98.3971L119.692 84.8241C119.766 84.7823 119.847 84.7557 119.931 84.746C120.015 84.7364 120.101 84.7438 120.182 84.7679C120.263 84.792 120.338 84.8323 120.404 84.8863C120.469 84.9403 120.523 85.0069 120.561 85.0822C120.6 85.1574 120.623 85.2398 120.63 85.3242C120.636 85.4086 120.625 85.4935 120.597 85.5736C120.57 85.6537 120.527 85.7274 120.47 85.7904C120.413 85.8533 120.345 85.9041 120.268 85.9398C92.0352 100.479 93.872 99.5844 93.6371 99.5844Z" fill="#2F463F"/>
<path d="M115.913 119.962C115.797 119.962 115.682 119.929 115.583 119.868C115.484 119.807 115.404 119.719 115.351 119.615C115.299 119.51 115.277 119.393 115.288 119.277C115.298 119.161 115.341 119.05 115.411 118.957L133.88 93.6955C133.98 93.5658 134.127 93.4803 134.289 93.4572C134.451 93.4341 134.616 93.4753 134.748 93.572C134.88 93.6687 134.97 93.8132 134.997 93.9748C135.024 94.1364 134.987 94.3022 134.894 94.4368L116.425 119.698C116.367 119.78 116.29 119.846 116.201 119.892C116.112 119.938 116.013 119.962 115.913 119.962Z" fill="#2F463F"/>
<path d="M202.028 124.024C201.921 124.024 201.815 123.996 201.722 123.944C201.628 123.892 201.549 123.816 201.493 123.725L184.908 96.8379C184.864 96.7676 184.834 96.6893 184.82 96.6073C184.806 96.5253 184.808 96.4413 184.827 96.3602C184.845 96.2791 184.88 96.2026 184.928 96.135C184.977 96.0673 185.038 96.01 185.109 95.9664C185.18 95.9227 185.259 95.8935 185.341 95.8805C185.423 95.8675 185.507 95.871 185.588 95.8907C185.668 95.9104 185.745 95.946 185.811 95.9953C185.878 96.0447 185.935 96.1069 185.978 96.1782L202.562 123.065C202.621 123.16 202.653 123.269 202.656 123.381C202.659 123.493 202.631 123.604 202.577 123.701C202.522 123.799 202.443 123.881 202.346 123.937C202.25 123.994 202.14 124.024 202.028 124.024Z" fill="#2F463F"/>
<path d="M229.452 112.897C229.112 112.897 231.473 114.672 195.921 86.4173C195.856 86.3661 195.801 86.3026 195.761 86.2304C195.72 86.1582 195.695 86.0787 195.685 85.9965C195.675 85.9143 195.682 85.831 195.705 85.7514C195.727 85.6718 195.765 85.5974 195.817 85.5326C195.868 85.4678 195.932 85.4138 196.005 85.3737C196.077 85.3336 196.157 85.3083 196.239 85.2991C196.321 85.2899 196.404 85.297 196.484 85.3201C196.563 85.3431 196.638 85.3817 196.702 85.4335L229.844 111.776C229.946 111.858 230.02 111.969 230.057 112.094C230.093 112.219 230.09 112.353 230.047 112.476C230.003 112.6 229.923 112.706 229.816 112.782C229.71 112.857 229.582 112.898 229.452 112.897Z" fill="#2F463F"/>
<path d="M214.239 46.8807C214.089 46.8811 213.944 46.8276 213.83 46.7299C213.716 46.6323 213.64 46.4969 213.617 46.3485C213.594 46.2 213.625 46.0483 213.705 45.9207C213.784 45.7932 213.906 45.6983 214.05 45.6532L233.611 39.4202C233.767 39.3782 233.934 39.3982 234.076 39.4761C234.218 39.554 234.324 39.6837 234.373 39.8383C234.422 39.9928 234.409 40.1601 234.337 40.3054C234.265 40.4506 234.14 40.5624 233.988 40.6176C213.085 47.2866 214.393 46.8807 214.239 46.8807Z" fill="#2F463F"/>
<path d="M100.623 106.004C97.7017 103.211 94.5495 100.669 91.2001 98.4057C90.389 97.7371 89.4411 97.2544 88.4232 96.9917C87.4053 96.7291 86.3423 96.6928 85.3089 96.8854L88.3242 100.934C92.6357 105.756 95.6227 111.614 96.9934 117.936C98.3663 124.3 97.5416 130.941 94.654 136.775C90.1171 145.584 81.0848 152.606 73.8831 159.148C67.9127 164.55 63.1397 170.455 65.5633 178.176C68.3097 188.064 77.4903 196.384 88.4373 194.706C82.9305 190.362 88.1446 180.697 90.9966 174.517C93.7745 168.535 97.4042 161.676 100.181 155.677C103.322 148.943 105.989 144.296 107.606 137.027C110.215 125.629 108.473 113.901 100.623 106.004Z" fill="#B4E600"/>
<path d="M198.762 30.3177C198.635 30.3179 198.511 30.2797 198.407 30.2082C198.302 30.1368 198.221 30.0353 198.176 29.9172C198.13 29.7992 198.12 29.6699 198.149 29.5466C198.178 29.4232 198.244 29.3114 198.337 29.2259L226.581 3.41565C226.642 3.35996 226.713 3.31682 226.791 3.28867C226.868 3.26052 226.951 3.24793 227.033 3.2516C227.115 3.25528 227.196 3.27515 227.271 3.31009C227.346 3.34503 227.413 3.39434 227.469 3.45523C227.524 3.51611 227.567 3.58736 227.596 3.66492C227.624 3.74248 227.636 3.82482 227.633 3.90725C227.629 3.98967 227.609 4.07057 227.574 4.14531C227.539 4.22006 227.49 4.28719 227.429 4.34287C197.296 31.8958 199.139 30.3177 198.762 30.3177Z" fill="#2F463F"/>
<path d="M164.536 21.9023C164.45 21.9025 164.365 21.885 164.286 21.8509C164.207 21.8169 164.136 21.767 164.077 21.7043C164.018 21.6416 163.972 21.5676 163.943 21.4866C163.914 21.4057 163.902 21.3197 163.908 21.2339L165.258 0.588693C165.269 0.422084 165.346 0.266601 165.471 0.156448C165.533 0.101906 165.605 0.0601348 165.684 0.0335189C165.762 0.00690291 165.845 -0.00403659 165.927 0.00132569C166.01 0.00668796 166.09 0.0282473 166.165 0.0647715C166.239 0.101296 166.305 0.15207 166.359 0.214195C166.414 0.276321 166.456 0.348581 166.482 0.42685C166.509 0.505119 166.52 0.587863 166.515 0.67036L165.164 21.3155C165.153 21.4749 165.083 21.6242 164.966 21.7332C164.849 21.8422 164.695 21.9026 164.536 21.9023Z" fill="#2F463F"/>
<path d="M68.1084 93.6969C65.02 91.194 62.5758 87.988 60.9802 84.3471C59.3845 80.7062 58.6838 76.7362 58.9366 72.769C59.3349 66.286 60.6466 56.329 67.0379 52.8148C76.7223 47.4889 95.4075 49.6738 98.6251 61.7792C101.546 72.769 98.0773 88.6436 88.0902 94.8892C85.0488 96.7922 81.49 97.7 77.9087 97.4863C74.3274 97.2726 70.9018 95.948 68.1084 93.6969Z" fill="white"/>
<path d="M76.7892 65.2971C76.6376 65.2281 76.4648 65.2222 76.3088 65.2806C76.1528 65.3391 76.0265 65.4571 75.9574 65.6086C75.0106 67.469 73.5458 69.0158 71.7397 70.0626C71.1664 70.5418 70.7989 71.2228 70.7131 71.9651C70.6273 72.7074 70.8298 73.4543 71.2786 74.0517C71.4098 74.3479 71.6231 74.6004 71.8932 74.7793C72.1633 74.9582 72.4789 75.0561 72.8029 75.0614C73.1268 75.0667 73.4455 74.9792 73.7213 74.8091C73.9971 74.6391 74.2185 74.3937 74.3593 74.1019C74.6028 73.475 74.646 72.7881 74.4831 72.1357C74.3202 71.4832 73.9592 70.8972 73.4497 70.4584C74.9946 69.3285 76.2473 67.8458 77.1033 66.1338C77.1381 66.0583 77.1576 65.9767 77.1607 65.8936C77.1637 65.8105 77.1502 65.7277 77.121 65.6498C77.0918 65.572 77.0474 65.5007 76.9905 65.4402C76.9335 65.3796 76.8651 65.331 76.7892 65.2971Z" fill="#2F463F"/>
<path d="M93.8381 60.9059C93.6864 60.837 93.5137 60.8311 93.3577 60.8895C93.2017 60.948 93.0753 61.0659 93.0063 61.2175C92.0592 63.0782 90.594 64.625 88.7873 65.6715C88.2136 66.1503 87.8457 66.8313 87.7596 67.5737C87.6736 68.3161 87.876 69.0631 88.325 69.6605C88.4561 69.9568 88.6692 70.2094 88.9392 70.3885C89.2093 70.5675 89.5249 70.6655 89.8489 70.6709C90.1728 70.6764 90.4915 70.5889 90.7674 70.419C91.0433 70.2491 91.2647 70.0038 91.4057 69.7121C91.6495 69.0852 91.6929 68.3982 91.53 67.7457C91.3671 67.0931 91.0059 66.5072 90.496 66.0685C92.0408 64.9378 93.2933 63.4548 94.1496 61.7427C94.1846 61.6674 94.2042 61.5859 94.2074 61.5029C94.2106 61.4199 94.1974 61.3371 94.1684 61.2593C94.1394 61.1815 94.0953 61.1102 94.0386 61.0496C93.9819 60.9889 93.9137 60.9401 93.8381 60.9059Z" fill="#2F463F"/>
<path d="M119.687 64.5747C117.943 61.9187 114.65 60.3029 112.179 58.4724C113.596 57.6269 114.776 56.4374 115.611 55.0142C116.445 53.591 116.907 51.9801 116.953 50.3309C116.848 46.813 114.664 44.4962 112.625 42.6065C102.81 33.4273 88.9306 31.0376 79.0264 30.6481C72.4283 30.2701 65.8208 31.2063 59.5873 33.4021C54.0198 35.4788 49.0002 38.7998 44.9113 43.1116C41.7253 41.0261 37.9562 40.0136 34.154 40.2219C32.269 40.2801 30.438 40.8651 28.8683 41.9105C28.2204 42.378 27.6823 42.9814 27.2917 43.6784C26.9011 44.3754 26.6673 45.1493 26.6068 45.946C25.7869 45.6104 24.9058 45.4502 24.0202 45.4759C23.1346 45.5015 22.2642 45.7125 21.4651 46.095C20.6661 46.4776 19.956 47.0234 19.3807 47.6971C18.8054 48.3709 18.3776 49.1577 18.125 50.0068C17.8723 50.856 17.8004 51.7487 17.9138 52.6273C18.0271 53.506 18.3234 54.3511 18.7833 55.1083C19.2433 55.8655 19.8568 56.518 20.5843 57.0236C21.3118 57.5292 22.1372 57.8768 23.0072 58.0439C22.6415 58.4036 22.1906 58.6647 21.6967 58.8028C21.2027 58.9409 20.6818 58.9515 20.1826 58.8337C19.6834 58.7159 19.2222 58.4734 18.8421 58.129C18.4621 57.7845 18.1755 57.3494 18.0093 56.8642C17.9739 56.7605 17.9121 56.6679 17.8299 56.5955C17.7477 56.5231 17.648 56.4734 17.5407 56.4515C17.4334 56.4295 17.3222 56.436 17.2181 56.4702C17.1141 56.5045 17.0208 56.5654 16.9476 56.6468C14.0026 59.9135 14.421 65.6816 17.866 69.0023C19.548 70.4595 21.5906 71.4382 23.7802 71.8361C25.9698 72.2339 28.2261 72.0363 30.3132 71.2638C32.805 70.2868 35.074 68.8173 36.9847 66.943C37.2775 70.7004 38.9755 74.2094 41.7402 76.7706C40.4665 77.4773 39.3711 78.4657 38.5376 79.6603C37.9337 80.5172 37.5863 81.5282 37.5361 82.5753C37.4858 83.6223 37.7347 84.662 38.2538 85.5728C38.7728 86.4835 39.5404 87.2276 40.4669 87.718C41.3934 88.2085 42.4403 88.4249 43.4853 88.342C43.2149 88.9867 43.0924 89.6837 43.127 90.3819C43.1616 91.0801 43.3523 91.7616 43.6851 92.3764C45.9077 96.7436 50.883 97.074 55.69 95.9759C57.3394 95.6432 58.8995 94.9641 60.267 93.9836C61.6345 93.0032 62.7784 91.7436 63.6229 90.2882C65.4152 92.6048 67.6845 94.5089 70.2771 95.8715C72.8698 97.2342 75.7251 98.0235 78.6495 98.186C81.4482 98.202 84.2156 97.5964 86.7518 96.4129C89.288 95.2294 91.5299 93.4975 93.3154 91.3423C96.0031 88.0755 97.8789 84.2186 98.7896 80.0875C100.008 80.4845 101.313 80.5353 102.558 80.2341C103.804 79.933 104.941 79.2917 105.844 78.382C106.746 77.4722 107.379 76.3296 107.67 75.0816C107.961 73.8336 107.899 72.5293 107.493 71.314C108.206 71.3429 109.24 71.3065 110.759 71.2085C113.609 71.0238 118.81 70.329 120.101 67.7873C120.337 67.2663 120.423 66.6897 120.35 66.1223C120.277 65.5549 120.048 65.019 119.687 64.5747ZM97.6739 78.9919C95.8257 87.9124 90.3051 95.2246 81.2515 96.7587C78.4704 97.041 75.6618 96.675 73.0459 95.6895C70.43 94.7039 68.0781 93.1257 66.1747 91.0785C65.4931 90.4204 64.863 89.711 64.2901 88.9564C65.1326 86.8467 65.4261 84.5578 65.1432 82.3038C64.8749 79.9086 65.2065 77.4843 66.1081 75.2491C68.9978 67.5034 72.4881 65.0949 75.8075 61.5631C76.0957 62.0478 76.4838 62.4655 76.9459 62.7887C77.408 63.1118 77.9336 63.3329 78.4878 63.4372C79.0419 63.5415 79.6119 63.5267 80.1599 63.3938C80.7079 63.2609 81.2213 63.0129 81.6661 62.6662C82.0931 63.3803 82.7438 63.9336 83.5173 64.2402C84.2908 64.5469 85.1438 64.5898 85.9441 64.3624C87.3204 63.8532 88.5301 62.9752 89.4407 61.8244C89.6428 61.5875 89.8766 61.3795 90.1355 61.2063C90.4118 61.3558 90.6691 61.5381 90.9019 61.7491C93.3436 63.6886 95.1243 66.3371 95.9991 69.3302C97.1479 72.4201 97.7157 75.6957 97.6739 78.9919Z" fill="#2F463F"/>
<path d="M69.1134 67.6353C68.988 67.6351 68.8654 67.5973 68.7617 67.5268C68.6579 67.4563 68.5776 67.3564 68.5311 67.2399C68.4846 67.1234 68.474 66.9956 68.5008 66.8731C68.5275 66.7505 68.5904 66.6388 68.6812 66.5523C71.1412 64.2116 74.8866 62.5443 77.1732 65.0107C77.2836 65.1334 77.3412 65.2947 77.3336 65.4595C77.326 65.6244 77.2538 65.7797 77.1326 65.8918C77.0115 66.0039 76.8511 66.0638 76.6861 66.0585C76.5211 66.0533 76.3648 65.9833 76.251 65.8637C74.5046 63.9791 71.3774 65.7218 69.5469 67.4619C69.43 67.5732 69.2748 67.6353 69.1134 67.6353Z" fill="#2F463F"/>
<path d="M87.5372 64.6063C87.4227 64.6061 87.3104 64.5747 87.2125 64.5154C87.1145 64.4561 87.0347 64.3712 86.9815 64.2697C86.9283 64.1683 86.9039 64.0543 86.9108 63.94C86.9178 63.8257 86.9558 63.7155 87.0208 63.6212C89.7661 59.6397 94.3331 60.3119 94.9362 63.2883C94.9527 63.3691 94.9531 63.4525 94.9374 63.5335C94.9217 63.6145 94.8902 63.6916 94.8447 63.7604C94.7992 63.8293 94.7406 63.8885 94.6722 63.9346C94.6038 63.9808 94.527 64.0131 94.4462 64.0296C94.3653 64.0461 94.282 64.0465 94.201 64.0308C94.12 64.0151 94.0429 63.9836 93.9741 63.9381C93.9052 63.8926 93.846 63.834 93.7998 63.7656C93.7537 63.6972 93.7214 63.6204 93.7049 63.5396C93.328 61.6964 90.1468 61.3044 88.0511 64.3374C87.9933 64.4202 87.9165 64.4879 87.827 64.5347C87.7376 64.5815 87.6382 64.606 87.5372 64.6063Z" fill="#2F463F"/>
<path d="M81.816 92.997C79.3032 92.997 78.4551 90.2178 78.4551 87.6359C78.6738 84.8164 79.2099 82.0305 80.0532 79.3311C80.0862 79.2266 80.1459 79.1326 80.2265 79.0584C80.3071 78.9841 80.4056 78.9322 80.5124 78.9078C80.6192 78.8835 80.7306 78.8874 80.8354 78.9194C80.9402 78.9513 81.0348 79.0101 81.1099 79.0899C82.2537 80.3046 83.7247 81.1623 85.3452 81.5596C86.9658 81.9569 88.6666 81.8767 90.2426 81.3288C90.3211 81.2992 90.4046 81.2857 90.4884 81.2889C90.5721 81.2922 90.6544 81.3121 90.7303 81.3476C90.8062 81.3832 90.8743 81.4335 90.9304 81.4957C90.9866 81.5579 91.0297 81.6308 91.0573 81.7099C91.0849 81.7891 91.0964 81.8729 91.091 81.9566C91.0857 82.0402 91.0637 82.122 91.0263 82.197C90.9889 82.272 90.9369 82.3387 90.8733 82.3933C90.8097 82.4479 90.7358 82.4892 90.656 82.5148C89.0205 83.0824 87.2648 83.2115 85.5638 82.8892C83.8629 82.5669 82.2761 81.8045 80.9616 80.678C80.3152 82.9658 79.8944 85.3114 79.7052 87.6812C79.7052 89.4954 80.2015 91.5471 81.5898 91.718C83.9305 92.0798 87.226 86.2175 88.3957 84.1796C88.4367 84.1076 88.4915 84.0443 88.5569 83.9936C88.6224 83.9428 88.6973 83.9055 88.7772 83.8838C88.8572 83.8621 88.9406 83.8564 89.0228 83.8671C89.105 83.8778 89.1842 83.9046 89.2559 83.946C89.3277 83.9875 89.3905 84.0427 89.4409 84.1085C89.4912 84.1743 89.528 84.2494 89.5492 84.3295C89.5703 84.4096 89.5755 84.4931 89.5642 84.5752C89.553 84.6573 89.5257 84.7363 89.4838 84.8078C87.9598 87.4739 84.8652 92.9907 81.816 92.997Z" fill="#2F463F"/>
<path d="M90.6054 111.327C89.8118 112.709 88.6691 113.858 87.2916 114.66C85.9142 115.462 84.3504 115.888 82.7567 115.895C79.7375 115.964 76.7355 115.421 73.932 114.298C71.1285 113.175 68.5815 111.496 66.4448 109.362C66.0661 109.047 65.7603 108.654 65.5488 108.21C65.3372 107.765 65.225 107.28 65.2198 106.787C65.054 106.042 65.0966 105.265 65.3431 104.543C65.5895 103.82 66.0303 103.179 66.617 102.69C67.3394 102.171 68.3759 101.717 68.2968 100.853C68.2968 100.303 67.7 99.8634 67.7314 99.2829C67.7628 98.7024 68.6272 98.2966 69.3019 98.1835C70.5746 97.97 71.924 97.6973 73.1012 97.4297C72.5045 99.6586 72.458 102.33 74.8125 103.712C75.7184 104.177 76.6947 104.49 77.7022 104.638C78.8719 104.912 80.0658 105.07 81.2666 105.109C82.2504 105.233 83.2482 105.191 84.2179 104.983C84.2805 104.956 84.3386 104.919 84.39 104.874C84.4051 104.801 84.4051 104.727 84.39 104.654C85.0974 100.287 84.4717 99.9375 85.1124 96.5992C85.4666 96.4926 85.8438 96.4891 86.1999 96.5892C86.5559 96.6894 86.8761 96.889 87.1227 97.1646C87.6079 97.7248 87.9765 98.3762 88.207 99.0806C89.7737 102.771 92.5843 107.314 90.6054 111.327Z" fill="#B4E600"/>
<path d="M101.057 105.555C98.1253 102.75 94.9631 100.198 91.6034 97.9245C90.6179 97.1094 89.4475 96.5486 88.1948 96.2912C85.9056 95.8213 84.8766 95.5122 84.7572 96.2912C84.3727 99.0035 84.2142 101.743 84.2836 104.482C82.4543 105.183 77.5241 104.949 73.618 101.994C73.628 101.856 73.618 101.961 73.618 96.5123C73.618 96.3457 73.5518 96.1859 73.434 96.0681C73.3162 95.9503 73.1564 95.8841 72.9898 95.8841C72.8232 95.8841 72.6634 95.9503 72.5456 96.0681C72.4278 96.1859 72.3616 96.3457 72.3616 96.5123V97.0438L69.2005 97.5727C68.2255 97.731 67.1538 98.3266 67.1035 99.2576C67.0621 100.047 67.6639 100.543 67.6702 100.919C67.7079 101.339 66.8623 101.743 66.214 102.216C65.5468 102.771 65.0433 103.496 64.7576 104.316C64.4718 105.135 64.4145 106.016 64.592 106.865C64.6037 107.427 64.735 107.98 64.9772 108.488C65.2194 108.995 65.567 109.445 65.9967 109.808C68.1955 112.001 70.8155 113.727 73.6989 114.882C76.5822 116.037 79.6694 116.596 82.7746 116.527C84.4925 116.511 86.1756 116.041 87.6537 115.166C89.1318 114.29 90.3526 113.04 91.1925 111.541C91.763 109.959 91.9562 108.265 91.7567 106.595C97.3866 115.753 98.9558 126.662 94.0936 136.497C84.8603 154.42 59.8453 162.09 64.9551 178.352C67.8448 188.78 77.44 197.04 88.5302 195.337C88.6513 195.319 88.7643 195.265 88.8554 195.183C88.9464 195.101 89.0116 194.995 89.0428 194.876C89.0741 194.758 89.07 194.633 89.0312 194.517C88.9923 194.401 88.9204 194.298 88.8242 194.223C83.6956 190.178 88.8732 180.622 91.5632 174.791C94.3272 168.851 97.9557 161.976 100.747 155.953C103.877 149.233 106.582 144.519 108.217 137.176C111.104 124.555 108.497 113.037 101.057 105.555ZM90.0593 111.021C89.3173 112.308 88.2506 113.378 86.9657 114.124C85.6808 114.87 84.2226 115.266 82.7369 115.272C79.7942 115.336 76.8689 114.803 74.1378 113.705C71.4066 112.607 68.9261 110.968 66.846 108.885C66.5292 108.607 66.2751 108.264 66.1005 107.88C65.9259 107.496 65.8349 107.08 65.8333 106.658C65.6911 106.032 65.7232 105.38 65.9262 104.771C66.1291 104.163 66.495 103.621 66.9842 103.206C67.738 102.667 69.0384 102.068 68.9253 100.859C68.9031 100.48 68.7776 100.113 68.5622 99.7991C68.4605 99.658 68.3911 99.4963 68.3587 99.3254C68.6285 99.0257 69.0032 98.8413 69.4053 98.8103L72.3628 98.3153V101.283C72.2503 101.309 72.1472 101.366 72.0649 101.447C71.9825 101.528 71.9241 101.63 71.8961 101.742C71.868 101.854 71.8714 101.972 71.9059 102.082C71.9404 102.192 72.0046 102.291 72.0915 102.367C73.6244 103.707 75.4177 104.715 77.3589 105.328C79.3001 105.942 81.3471 106.147 83.3714 105.932C84.2916 105.898 85.1749 105.561 85.8842 104.974C86.222 104.631 86.4803 104.218 86.6409 103.765C86.8016 103.311 86.8606 102.827 86.814 102.348C86.6219 101.354 86.2216 100.412 85.6392 99.5842C85.7046 98.7198 85.7975 97.8588 85.9182 97.0011L85.9358 97.0212C88.2958 99.3621 89.6329 102.542 89.6547 105.866C89.3934 109.902 85.9822 112.029 82.0095 111.665C79.3636 111.452 76.814 110.576 74.5967 109.117C74.5283 109.07 74.4515 109.038 74.3707 109.022C74.2898 109.005 74.2065 109.005 74.1254 109.02C74.0444 109.036 73.9673 109.068 73.8984 109.113C73.8296 109.159 73.7704 109.217 73.7242 109.286C73.678 109.354 73.6457 109.431 73.6292 109.512C73.6127 109.592 73.6122 109.676 73.6279 109.757C73.6436 109.838 73.6751 109.915 73.7206 109.984C73.7661 110.053 73.8248 110.112 73.8931 110.158C76.2867 111.736 79.04 112.684 81.8977 112.915C85.9056 113.28 89.47 111.394 90.5844 107.763C90.6043 108.871 90.4264 109.973 90.0593 111.017V111.021ZM106.996 136.894C105.396 144.083 102.696 148.803 99.6129 155.417C96.869 161.341 93.2053 168.28 90.4274 174.263C87.7739 180.03 82.786 189.206 87.0527 194.24C76.9374 195.041 68.7205 187.191 66.165 177.991C63.2941 168.858 71.0022 162.502 77.9865 156.34C84.261 150.803 91.3722 144.529 95.2206 137.058C100.896 125.585 98.1568 112.519 90.5719 102.664C90.072 100.814 89.2187 99.0782 88.0591 97.5526C89.0829 97.7891 90.0369 98.2624 90.8445 98.9347C94.159 101.176 97.2788 103.692 100.171 106.457C107.296 113.609 109.782 124.705 106.996 136.891V136.894Z" fill="#2F463F"/>
<path d="M92.3003 76.2465C92.3003 77.784 92.9111 79.2585 93.9982 80.3456C95.0854 81.4328 96.5599 82.0435 98.0973 82.0435C99.6348 82.0435 101.109 81.4328 102.196 80.3456C103.284 79.2585 103.894 77.784 103.894 76.2465C103.894 74.709 103.284 73.2345 102.196 72.1474C101.109 71.0602 99.6348 70.4495 98.0973 70.4495C96.5599 70.4495 95.0854 71.0602 93.9982 72.1474C92.9111 73.2345 92.3003 74.709 92.3003 76.2465Z" fill="#FF5470"/>
<path d="M61.2119 83.1909C61.2119 85.0662 61.9569 86.8648 63.283 88.1909C64.609 89.5169 66.4076 90.2619 68.2829 90.2619C70.1583 90.2619 71.9568 89.5169 73.2829 88.1909C74.609 86.8648 75.354 85.0662 75.354 83.1909C75.354 81.3155 74.609 79.517 73.2829 78.1909C71.9568 76.8648 70.1583 76.1199 68.2829 76.1199C66.4076 76.1199 64.609 76.8648 63.283 78.1909C61.9569 79.517 61.2119 81.3155 61.2119 83.1909Z" fill="#FF5470"/>
<path d="M93.1647 76.0193C93.0697 76.0196 92.9759 75.9977 92.8908 75.9552C89.8573 74.4823 86.927 72.8058 84.1199 70.9371C83.7383 70.7212 83.4193 70.4099 83.194 70.0338C82.9687 69.6577 82.8449 69.2295 82.8346 68.7912C82.7025 67.6832 82.666 66.5659 82.7253 65.4517C82.7363 65.286 82.8115 65.131 82.9349 65.0198C83.0583 64.9086 83.2202 64.8499 83.3861 64.8562C83.4686 64.8605 83.5493 64.881 83.6238 64.9166C83.6983 64.9522 83.765 65.0021 83.8202 65.0634C83.8754 65.1248 83.918 65.1965 83.9455 65.2743C83.973 65.3521 83.9848 65.4346 83.9804 65.517C83.9245 66.576 83.9598 67.6378 84.086 68.6907C84.0774 68.9347 84.1391 69.176 84.2639 69.3858C84.3886 69.5957 84.5711 69.7652 84.7895 69.8742C87.5574 71.7182 90.4471 73.3725 93.4386 74.8257C93.5666 74.8877 93.6698 74.9913 93.7312 75.1195C93.7927 75.2477 93.8089 75.393 93.7771 75.5316C93.7453 75.6702 93.6674 75.7939 93.5561 75.8825C93.4449 75.9711 93.3069 76.0193 93.1647 76.0193Z" fill="#2F463F"/>
</svg>
