<svg width="240" height="229" viewBox="0 0 240 229" fill="none" xmlns="http://www.w3.org/2000/svg">
<path d="M177.221 56.2209C176.243 55.3127 174.974 54.7838 173.641 54.7295C170.632 54.4307 167.625 55.3148 165.257 57.1946C166.458 55.8477 167.748 54.5838 169.119 53.4116C170.025 52.7892 170.83 52.0321 171.506 51.1664C171.846 50.7238 172.055 50.1943 172.107 49.6387C172.16 49.0831 172.055 48.5239 171.804 48.0254C170.645 46.3405 168.481 46.6433 166.717 47.6798C163.78 49.3506 161.523 52.0013 160.343 55.168C159.966 52.6728 159.685 51.1061 156.7 50.7417C155.282 50.5807 153.847 50.8186 152.557 51.4288C151.267 52.0391 150.174 52.9973 149.399 54.1955C147.955 57.3039 153.717 56.7611 155.099 57.6645C155.593 57.9802 155.969 58.449 156.17 58.9992C156.371 59.5493 156.387 60.1504 156.213 60.71C155.937 61.2575 155.505 61.7112 154.972 62.0141C153.669 62.768 150.592 63.1286 149.855 61.3545C149.69 60.6107 149.723 59.8368 149.949 59.1093C150.045 58.7534 150.061 58.381 149.997 58.018C149.934 57.6551 149.791 57.3105 149.58 57.0083C149.37 56.7062 149.095 56.4539 148.776 56.269C148.458 56.0841 148.102 55.9712 147.735 55.9382C147.048 56.0319 146.417 56.3721 145.961 56.8956C144.723 58.2424 144.018 59.9941 143.977 61.8232C143.937 63.6522 144.564 65.4334 145.741 66.8337C148.611 70.1317 153.657 70.0752 154.894 74.6045C155.136 75.4719 155.518 76.294 156.025 77.0382C157.328 78.718 160.608 79.0484 162.478 78.2619C163.177 77.9708 163.78 77.4896 164.22 76.8729C164.659 76.2562 164.917 75.5287 164.964 74.7729C164.784 73.7684 164.721 72.7464 164.776 71.7274C166.508 70.518 168.452 69.6447 170.506 69.153C172.076 68.8854 174.719 69.4608 175.215 67.3161C175.295 66.9594 175.287 66.5885 175.191 66.2356C175.096 65.8827 174.915 65.5584 174.666 65.2908C173.122 63.6098 169.825 63.0205 167.539 63.2969C168.764 61.7427 172.044 61.3796 173.821 61.1774C175.217 61.0191 176.836 60.9424 177.667 59.828C178.019 59.2675 178.168 58.6023 178.086 57.945C178.005 57.2877 177.699 56.6786 177.221 56.2209Z" fill="white"/>
<path d="M22.7058 223.814C22.6775 222.878 22.5081 221.952 22.2033 221.067C21.4774 218.314 21.2644 215.451 21.5751 212.62L7.50336 210.046C7.45436 210.172 7.63906 212.613 3.17004 216.216C2.53519 216.647 2.00009 217.209 1.60079 217.864C0.238852 220.485 4.9579 220.921 6.20802 219.45C5.68415 220.259 5.02944 220.975 4.27064 221.57C3.50173 222.37 2.96776 223.673 3.65878 224.552C4.03094 224.882 4.49405 225.091 4.98734 225.153C5.48062 225.215 5.98102 225.126 6.42286 224.898C7.96616 224.318 9.29295 223.276 10.2222 221.914L8.65172 225.902C8.3994 226.384 8.32724 226.941 8.44818 227.472C8.61569 227.796 8.89062 228.051 9.22579 228.194C9.56095 228.337 9.93546 228.359 10.285 228.256C10.985 228.009 11.6006 227.569 12.0603 226.986C13.7757 225.132 15.1763 223.01 16.2065 220.704C16.5333 221.969 17.0632 223.173 17.7757 224.268C18.576 225.492 20.0209 226.686 21.3715 226.105C21.7831 225.883 22.1255 225.551 22.3609 225.147C22.5963 224.743 22.7156 224.281 22.7058 223.814Z" fill="white"/>
<path d="M166.419 70.9004C165.806 74.0414 156.544 79.2994 152.761 72.4709C154.472 75.5629 152.729 82.1728 151.787 85.1605C149.29 93.2769 144.751 101.849 136.73 105.664C124.041 111.318 108.652 105.715 96.0693 99.824L102.003 120.061C119.823 130.877 147.359 127.392 158.349 108.898C164.907 97.3726 167.727 84.0961 166.419 70.9004Z" fill="#F2F4F8"/>
<path d="M102.743 102.162C88.6106 95.3689 70.041 98.9961 56.899 106.746C47.3743 112.364 45.2497 121.66 45.7171 132.21C45.9683 137.831 46.5651 143.451 46.3453 149.073C46.1254 154.694 44.3199 159.842 42.6879 165.353C41.8599 167.534 41.5481 169.876 41.777 172.198C42.437 174.828 43.9978 177.144 46.1882 178.744C51.636 183.234 58.5876 185.258 65.5933 186.217C73.138 187.366 80.8134 187.366 88.3581 186.217C94.6552 185.16 100.682 182.135 104.44 177.045C108.198 171.955 109.624 165.388 110.722 158.849C112.518 148.813 113.108 138.599 112.481 128.424C111.929 120.91 110.292 105.787 102.743 102.162Z" fill="#F2F4F8"/>
<path d="M177.646 55.7585C176.565 54.7634 175.17 54.1783 173.703 54.1051C172 53.9336 170.28 54.121 168.653 54.6554C168.926 54.4041 169.201 54.1641 169.476 53.9279C170.434 53.2654 171.286 52.4628 172.006 51.547C172.423 50.9988 172.675 50.3423 172.731 49.6554C172.787 48.9684 172.645 48.2798 172.322 47.671C170.977 45.7161 168.469 45.9259 166.417 47.132C163.956 48.5335 161.936 50.5943 160.584 53.0824C160.151 51.5747 159.268 50.4339 156.779 50.1185C152.071 49.5644 148.184 53.3047 148.577 55.4419C148.279 55.3556 147.97 55.3132 147.66 55.3162C146.826 55.4284 146.06 55.8385 145.504 56.4709C144.165 57.9351 143.403 59.8364 143.362 61.8204C143.321 63.8044 144.002 65.7358 145.279 67.2546C148.439 70.8868 152.786 69.8289 152.858 75.8948C152.725 78.9828 152.164 82.0374 151.191 84.9711C149.035 91.9805 144.73 101.162 136.48 105.086C126.786 109.409 115.168 106.889 105.219 103.076C104.558 102.481 103.817 101.982 103.018 101.593C87.3655 94.0637 68.223 99.3694 56.5824 106.203C45.5387 112.746 44.7384 124.195 45.0977 132.237C45.349 137.809 45.9432 143.477 45.7259 149.045C45.506 154.647 43.6792 159.782 42.1074 165.127C41.2391 167.429 40.9199 169.901 41.1752 172.348C41.596 174.026 42.3666 175.596 43.4367 176.956C43.4266 176.978 43.4178 177.002 43.4103 177.025C39.6502 188.617 40.6444 201.228 46.1744 212.087C47.2738 214.246 46.8303 215.58 58.1278 217.567C69.9792 219.656 82.1426 219.152 93.7807 216.09C100.539 214.289 118.631 208.384 115.317 201.819L103.74 178.898C108.507 173.591 110.221 165.924 111.34 158.959C113.311 147.841 113.807 136.512 112.815 125.264C129.72 129.704 149.831 124.467 158.9 109.205C165.499 97.6495 168.352 84.3323 167.067 71.0878C168.19 70.5133 169.378 70.0739 170.605 69.7787C172.086 69.5274 175.157 70.128 175.824 67.4531C176.458 64.4968 172.683 62.8861 169.677 62.6373C173.148 61.347 176.578 62.3345 178.191 60.1672C178.617 59.4805 178.795 58.6687 178.696 57.8666C178.597 57.0646 178.226 56.3207 177.646 55.7585ZM110.098 158.749C109.076 165.101 107.624 171.668 103.931 176.672C100.616 181.169 95.0447 184.336 88.2676 185.592C80.7788 186.724 73.1626 186.724 65.6738 185.592C57.7308 184.615 51.3118 182.149 46.5626 178.236C44.5142 176.743 43.0457 174.587 42.4065 172.134C42.1901 169.894 42.4936 167.634 43.2935 165.53C44.9369 159.983 46.7536 154.821 46.9773 149.095C47.1984 143.448 46.6003 137.709 46.3491 132.182C45.7937 119.743 49.1471 112.068 57.2182 107.287C70.2848 99.6169 88.4247 95.9797 102.47 102.728C109.899 106.298 111.316 122.413 111.848 128.463C112.429 138.592 111.842 148.755 110.098 158.749ZM157.803 108.57C148.998 123.387 129.214 128.465 112.661 123.922C111.985 117.996 110.579 109.962 107.007 105.076C116.681 108.495 127.648 110.397 136.997 106.227C145.674 102.101 150.153 92.5912 152.383 85.3455C153.539 82.0301 154.11 78.5389 154.07 75.0279C154.852 75.6289 155.753 76.0558 156.713 76.2799C157.673 76.504 158.67 76.52 159.636 76.327C162.05 75.9222 164.268 74.7467 165.958 72.9762C166.81 85.3855 163.973 97.7696 157.803 108.57ZM177.152 59.4573C176.31 60.1942 175.214 60.5749 174.096 60.519C171.845 60.7615 168.442 61.1309 167.035 62.9137C166.958 63.0114 166.912 63.1298 166.902 63.2539C166.892 63.3779 166.92 63.5021 166.981 63.6106C167.042 63.719 167.134 63.807 167.245 63.8632C167.356 63.9194 167.481 63.9414 167.604 63.9264C169.833 63.6575 172.818 64.2329 174.193 65.7205C174.371 65.912 174.501 66.1435 174.571 66.3956C174.641 66.6477 174.65 66.913 174.596 67.1691C174.227 68.7723 172.041 68.2534 170.35 68.5512C168.218 69.0597 166.201 69.9659 164.406 71.2223C163.987 71.515 163.996 72.4171 164.177 72.9285C161.869 74.8357 158.152 75.9966 155.514 74.499C154.635 71.5741 153.048 70.7222 150.194 69.1882C148.713 68.5189 147.366 67.5852 146.219 66.4329C145.14 65.1458 144.567 63.51 144.607 61.831C144.646 60.1521 145.296 58.545 146.434 57.3101C146.771 56.9195 147.233 56.6583 147.742 56.5714C147.997 56.5707 148.249 56.6368 148.471 56.7631C148.693 56.8894 148.878 57.0714 149.008 57.2913C149.294 57.7853 149.412 58.3581 149.345 58.9246C149.08 59.7928 149.054 60.7167 149.271 61.5982C149.426 61.9526 149.658 62.2682 149.95 62.5221C150.242 62.7761 150.587 62.9622 150.96 63.067C152.41 63.4481 153.95 63.2687 155.274 62.5644C155.944 62.1813 156.48 61.6009 156.808 60.9022C157.022 60.2137 157.005 59.474 156.76 58.7961C156.514 58.1182 156.053 57.5394 155.447 57.1481C154.253 56.3653 150.408 56.4131 149.858 55.3678C149.319 54.3488 152.485 50.8774 156.617 51.3674C159.019 51.6702 159.32 52.6715 159.683 54.9921C159.633 55.1587 159.651 55.3383 159.733 55.4915C159.816 55.6446 159.956 55.7588 160.122 55.8087C160.289 55.8587 160.469 55.8405 160.622 55.758C160.775 55.6755 160.889 55.5356 160.939 55.369C162.045 52.3256 164.215 49.7853 167.048 48.2176C168.411 47.4185 170.328 47.0089 171.242 48.3093C171.439 48.7014 171.522 49.1411 171.481 49.5782C171.44 50.0152 171.277 50.4319 171.01 50.7806C170.356 51.6103 169.58 52.337 168.71 52.9366C167.318 54.1281 166.007 55.4121 164.787 56.7799C164.684 56.8974 164.627 57.0496 164.63 57.2065C164.632 57.3634 164.694 57.5136 164.801 57.6277C164.909 57.7417 165.056 57.8113 165.212 57.8228C165.369 57.8342 165.524 57.7867 165.647 57.6896C167.894 55.8996 170.754 55.0632 173.611 55.3602C174.79 55.4129 175.912 55.8785 176.782 56.6757C177.148 57.03 177.384 57.4974 177.451 58.0023C177.518 58.5071 177.412 59.0198 177.152 59.4573ZM150.331 57.143C151.793 57.6745 154.132 57.7712 154.76 58.1972C155.127 58.4266 155.411 58.7679 155.569 59.1708C155.728 59.5737 155.752 60.0168 155.64 60.4348C155.416 60.8752 155.066 61.2388 154.635 61.4789C153.621 62.0081 152.449 62.1476 151.34 61.8709C150.973 61.7786 150.656 61.5447 150.461 61.2201C150.319 60.5525 150.354 59.8597 150.563 59.2098C150.674 58.5131 150.596 57.7991 150.336 57.143H150.331Z" fill="#343A3F"/>
<path d="M44.0983 126.853C46.0683 122.597 47.5999 118.109 49.4053 113.854C51.2108 109.6 57.2968 110.98 60.3008 112.991C63.4741 115.168 65.8415 118.329 67.0364 121.987C69.5316 127.816 67.7299 131.503 64.6342 136.965C52.0538 159.155 40.3856 182.538 31.9162 206.821C31.5393 207.904 31.5054 209.973 30.7704 210.777C30.6222 210.935 30.4531 211.073 30.2678 211.185C29.4189 211.575 28.5014 211.794 27.5678 211.829C23.58 212.41 20.101 215.144 16.0906 215.44C14.3089 215.537 12.5255 215.281 10.8435 214.686C9.1614 214.09 7.614 213.168 6.29067 211.971C4.99815 210.87 3.8917 209.568 3.01397 208.115C1.50629 205.548 -0.127033 202.634 0.988652 199.621C3.18358 193.698 7.50184 191.232 21.5396 168.598C29.8001 155.097 37.3304 141.162 44.0983 126.853Z" fill="#F2F4F8"/>
<path d="M67.636 121.786C66.4039 117.99 63.9443 114.711 60.6442 112.465C58.4505 110.998 54.7617 109.907 51.9863 110.767C47.7497 112.078 49.182 115.356 41.4539 130.946C31.6665 150.689 19.4807 172.697 6.04348 190.38C3.75184 193.111 1.85385 196.15 0.404748 199.408C-0.825269 202.735 1.00405 205.895 2.47781 208.442C3.37509 209.951 4.51872 211.3 5.8613 212.432C5.00821 213.659 3.98488 214.759 2.82206 215.699C1.47646 216.613 0.0969293 218.377 1.04928 219.771C1.42744 220.193 1.90223 220.517 2.43305 220.716C2.96386 220.914 3.53489 220.982 4.09731 220.911C3.44595 221.35 2.99208 222.026 2.83287 222.795C2.67366 223.563 2.82176 224.364 3.24547 225.025C3.70232 225.431 4.26948 225.691 4.87486 225.774C5.48024 225.856 6.0965 225.757 6.64529 225.489C7.31196 225.238 7.945 224.906 8.52989 224.5L8.09267 225.614C7.91898 225.941 7.81149 226.299 7.77635 226.668C7.74121 227.037 7.77911 227.409 7.88787 227.763C8.1266 228.22 8.5177 228.579 8.99339 228.778C9.46908 228.977 9.99938 229.003 10.4924 228.852C11.2892 228.573 11.9912 228.075 12.5177 227.415C13.9218 225.899 15.1214 224.206 16.0859 222.379C16.3974 223.161 16.7859 223.91 17.2455 224.615C18.2507 226.151 19.987 227.379 21.6643 226.662C22.1799 226.386 22.6085 225.971 22.9024 225.466C23.1964 224.96 23.3441 224.382 23.329 223.797C23.3007 222.813 23.1245 221.839 22.8064 220.908C22.2371 218.753 21.9915 216.526 22.0777 214.299C23.8329 213.462 25.6852 212.846 27.592 212.465C28.6333 212.425 29.6557 212.175 30.5973 211.728C31.767 211.005 31.9279 209.948 32.2093 208.384C32.4367 207.116 32.2822 207.619 34.1869 202.336C42.4088 179.936 53.3005 158.272 65.181 137.277C68.3635 131.681 70.1652 127.679 67.636 121.786ZM21.609 221.27C21.8932 222.093 22.0512 222.955 22.0777 223.826C22.088 224.17 22.0046 224.51 21.8364 224.809C21.6681 225.109 21.4215 225.357 21.1228 225.527C20.173 225.941 18.9945 224.983 18.3022 223.926C17.6268 222.887 17.1244 221.746 16.8146 220.547C16.7822 220.421 16.7112 220.308 16.6116 220.224C16.512 220.139 16.3887 220.088 16.2587 220.077C16.1288 220.067 15.9987 220.096 15.8864 220.163C15.7742 220.229 15.6854 220.329 15.6323 220.448C14.6234 222.706 13.2503 224.783 11.5679 226.595C11.1908 227.078 10.6858 227.444 10.1104 227.653C9.91319 227.711 9.70268 227.702 9.5107 227.629C9.31872 227.556 9.1557 227.423 9.04628 227.249C8.98508 226.865 9.05267 226.472 9.23851 226.131L10.804 222.149C10.8602 222.005 10.8617 221.846 10.808 221.701C10.7544 221.557 10.6494 221.437 10.5131 221.365C10.3767 221.293 10.2186 221.273 10.0688 221.31C9.91905 221.347 9.78807 221.438 9.70086 221.565C8.82872 222.839 7.58163 223.81 6.13268 224.343C5.81983 224.505 5.46697 224.575 5.1157 224.544C4.76443 224.513 4.42939 224.382 4.15008 224.167C3.7116 223.609 4.11741 222.638 4.65264 222.069C5.60885 221.326 6.40647 220.4 6.99834 219.343C7.03456 219.269 7.05579 219.189 7.06084 219.106C7.06589 219.024 7.05464 218.941 7.02775 218.863C7.00086 218.785 6.95885 218.713 6.90411 218.651C6.84937 218.589 6.78299 218.539 6.70874 218.502C6.63449 218.466 6.55384 218.445 6.47139 218.44C6.38893 218.435 6.30629 218.446 6.22818 218.473C6.15007 218.5 6.07803 218.542 6.01615 218.597C5.95428 218.651 5.9038 218.718 5.86758 218.792C5.8123 218.887 5.75576 218.982 5.69545 219.075C4.96925 219.859 2.6135 219.855 2.07199 219.063C1.60964 218.385 2.87232 217.179 3.55706 216.709C4.8021 215.707 5.90155 214.537 6.8237 213.232C9.50318 215.242 12.8026 216.248 16.1475 216.076C17.7544 215.896 19.3245 215.472 20.8037 214.819C20.7769 216.996 21.0478 219.166 21.609 221.27ZM64.0917 136.655C51.3581 159.161 39.9475 182.011 31.3273 206.62C30.9868 207.601 30.8423 209.781 30.3222 210.35C30.2286 210.45 30.125 210.541 30.0131 210.62C29.2179 210.983 28.3587 211.184 27.4852 211.213C23.2939 211.823 19.7671 214.544 16.0658 214.818C10.9786 215.195 6.08745 212.036 3.5646 207.8C2.15617 205.367 0.559285 202.611 1.58576 199.839C3.80206 193.866 7.6278 192.22 22.0802 168.932C29.5055 156.953 36.2247 144.328 42.5809 131.502C50.1947 116.141 48.9307 113.033 52.3607 111.964C53.6647 111.708 55.0064 111.712 56.3086 111.977C57.6108 112.242 58.8477 112.762 59.9481 113.507C63.0291 115.613 65.3222 118.684 66.4663 122.236C68.8334 127.776 67.0694 131.412 64.0917 136.656V136.655Z" fill="#343A3F"/>
<path d="M121.345 29.2342C121.108 29.2342 122.224 29.8059 104.198 19.9255C104.056 19.8436 103.952 19.7091 103.907 19.551C103.863 19.3928 103.882 19.2236 103.961 19.0795C104.04 18.9354 104.172 18.828 104.329 18.7802C104.486 18.7323 104.656 18.7479 104.802 18.8237L121.647 28.0544C121.77 28.1213 121.867 28.2273 121.923 28.3555C121.979 28.4836 121.99 28.6268 121.955 28.7622C121.92 28.8976 121.842 29.0175 121.731 29.103C121.62 29.1885 121.484 29.2347 121.345 29.2342Z" fill="#343A3F"/>
<path d="M74.4198 94.6857C72.7564 95.5966 72.8506 97.7463 72.8506 99.396V102.096C72.8506 102.944 73.9437 103.678 74.7817 104.121C77.6094 105.591 80.8445 106.082 83.981 105.518C84.2016 105.502 84.4137 105.426 84.5942 105.299C84.7468 105.134 84.86 104.937 84.9253 104.722C84.9906 104.507 85.0063 104.28 84.9711 104.058C84.9695 101.468 85.2378 98.8842 85.7714 96.3492C85.828 96.1927 85.849 96.0255 85.8327 95.8598C85.8164 95.6942 85.7632 95.5343 85.6772 95.3918C85.5527 95.2778 85.4014 95.197 85.2374 95.1569C82.5934 94.2562 79.7983 93.8827 77.0105 94.0575C76.1143 94.0963 75.2343 94.3097 74.4198 94.6857Z" fill="white"/>
<path d="M78.0782 101.436C80.3451 102.278 82.8362 102.295 85.1141 101.483C85.2311 99.7572 85.467 98.0419 85.8202 96.3489C85.877 96.1925 85.8981 96.0252 85.8818 95.8595C85.8655 95.6939 85.8122 95.5339 85.7259 95.3916C85.6014 95.2776 85.4502 95.1968 85.2862 95.1566C82.6413 94.2613 79.8477 93.888 77.0605 94.0573C76.1483 94.0914 75.2518 94.3048 74.4221 94.6855C73.9083 95.0257 73.493 95.495 73.2176 96.0462C72.9422 96.5974 72.8164 97.2113 72.8528 97.8265C74.2348 99.4816 76.0411 100.729 78.0782 101.436Z" fill="white"/>
<path d="M239.344 73.7579C239.218 73.7579 239.483 73.7743 205.053 70.2224C204.886 70.2058 204.733 70.1236 204.627 69.994C204.521 69.8644 204.471 69.698 204.488 69.5314C204.504 69.3648 204.586 69.2116 204.716 69.1056C204.846 68.9996 205.012 68.9494 205.179 68.966L239.403 72.499C239.57 72.5074 239.726 72.5815 239.838 72.7052C239.95 72.8289 240.008 72.992 240 73.1586C239.991 73.3252 239.917 73.4817 239.793 73.5936C239.67 73.7056 239.507 73.7638 239.34 73.7554L239.344 73.7579Z" fill="#343A3F"/>
<path d="M93.6376 99.5846C93.4964 99.5852 93.3591 99.5381 93.2479 99.4511C93.1367 99.3641 93.058 99.2422 93.0247 99.105C92.9913 98.9678 93.0051 98.8233 93.0638 98.6949C93.1226 98.5665 93.2229 98.4617 93.3486 98.3973L119.693 84.8244C119.766 84.7825 119.848 84.756 119.932 84.7463C120.016 84.7366 120.101 84.7441 120.182 84.7682C120.264 84.7923 120.339 84.8325 120.404 84.8865C120.469 84.9405 120.523 85.0072 120.562 85.0824C120.601 85.1577 120.624 85.24 120.63 85.3244C120.636 85.4089 120.625 85.4937 120.598 85.5738C120.57 85.6539 120.527 85.7277 120.47 85.7906C120.414 85.8535 120.345 85.9044 120.268 85.9401C92.0357 100.479 93.8725 99.5846 93.6376 99.5846Z" fill="#343A3F"/>
<path d="M115.913 119.962C115.797 119.962 115.682 119.93 115.583 119.868C115.484 119.807 115.404 119.719 115.351 119.615C115.299 119.511 115.277 119.394 115.288 119.278C115.298 119.161 115.341 119.05 115.411 118.957L133.88 93.6958C133.98 93.566 134.127 93.4805 134.289 93.4574C134.451 93.4344 134.616 93.4756 134.748 93.5723C134.88 93.6689 134.97 93.8135 134.997 93.975C135.024 94.1366 134.987 94.3024 134.894 94.4371L116.425 119.698C116.367 119.78 116.29 119.846 116.201 119.892C116.112 119.938 116.013 119.962 115.913 119.962Z" fill="#343A3F"/>
<path d="M202.028 124.024C201.921 124.024 201.815 123.997 201.722 123.944C201.628 123.892 201.549 123.817 201.493 123.725L184.908 96.8381C184.864 96.7679 184.834 96.6895 184.82 96.6075C184.806 96.5255 184.808 96.4415 184.827 96.3605C184.845 96.2794 184.88 96.2028 184.928 96.1352C184.977 96.0676 185.038 96.0103 185.109 95.9666C185.18 95.9229 185.259 95.8937 185.341 95.8808C185.423 95.8678 185.507 95.8712 185.588 95.8909C185.668 95.9106 185.745 95.9462 185.811 95.9956C185.878 96.045 185.935 96.1071 185.978 96.1785L202.562 123.065C202.621 123.161 202.653 123.27 202.656 123.382C202.659 123.493 202.631 123.604 202.577 123.702C202.522 123.799 202.443 123.881 202.346 123.937C202.25 123.994 202.14 124.024 202.028 124.024Z" fill="#343A3F"/>
<path d="M229.452 112.897C229.112 112.897 231.473 114.672 195.921 86.417C195.856 86.3659 195.801 86.3024 195.761 86.2302C195.72 86.158 195.695 86.0785 195.685 85.9963C195.675 85.9141 195.682 85.8307 195.705 85.7511C195.727 85.6715 195.765 85.5972 195.817 85.5324C195.868 85.4676 195.932 85.4136 196.005 85.3735C196.077 85.3334 196.157 85.308 196.239 85.2988C196.321 85.2896 196.404 85.2967 196.484 85.3198C196.563 85.3429 196.638 85.3815 196.702 85.4333L229.844 111.776C229.946 111.857 230.02 111.968 230.057 112.094C230.093 112.219 230.09 112.353 230.047 112.476C230.003 112.599 229.923 112.706 229.816 112.782C229.71 112.857 229.582 112.897 229.452 112.897Z" fill="#343A3F"/>
<path d="M214.239 46.8805C214.089 46.8808 213.943 46.8273 213.829 46.7297C213.715 46.632 213.64 46.4967 213.617 46.3482C213.594 46.1998 213.625 46.048 213.704 45.9205C213.783 45.7929 213.906 45.698 214.049 45.653L233.61 39.42C233.767 39.3779 233.933 39.3979 234.075 39.4758C234.217 39.5537 234.324 39.6835 234.372 39.838C234.421 39.9925 234.408 40.1599 234.336 40.3051C234.265 40.4503 234.139 40.5622 233.987 40.6173C213.084 47.2863 214.392 46.8805 214.239 46.8805Z" fill="#343A3F"/>
<path d="M100.623 106.004C97.7017 103.211 94.5495 100.669 91.2001 98.4057C90.389 97.7371 89.4411 97.2544 88.4232 96.9917C87.4053 96.7291 86.3423 96.6928 85.3089 96.8854L88.3242 100.934C92.6357 105.756 95.6227 111.614 96.9934 117.936C98.3663 124.3 97.5416 130.941 94.654 136.775C90.1171 145.584 81.0848 152.606 73.8831 159.148C67.9127 164.55 63.1397 170.455 65.5633 178.176C68.3097 188.064 77.4903 196.384 88.4373 194.706C82.9305 190.362 88.1446 180.697 90.9966 174.517C93.7745 168.536 97.4042 161.676 100.181 155.677C103.322 148.943 105.989 144.296 107.606 137.027C110.215 125.629 108.473 113.901 100.623 106.004Z" fill="#DDE1E6"/>
<path d="M198.762 30.3177C198.635 30.3179 198.511 30.2797 198.407 30.2082C198.302 30.1368 198.221 30.0353 198.176 29.9172C198.13 29.7992 198.12 29.6699 198.149 29.5466C198.178 29.4232 198.244 29.3114 198.337 29.2259L226.581 3.41565C226.642 3.35996 226.713 3.31682 226.791 3.28867C226.868 3.26052 226.951 3.24793 227.033 3.2516C227.115 3.25528 227.196 3.27515 227.271 3.31009C227.346 3.34503 227.413 3.39434 227.469 3.45523C227.524 3.51611 227.567 3.58736 227.596 3.66492C227.624 3.74248 227.636 3.82482 227.633 3.90725C227.629 3.98967 227.609 4.07057 227.574 4.14531C227.539 4.22006 227.49 4.28719 227.429 4.34287C197.296 31.8958 199.139 30.3177 198.762 30.3177Z" fill="#343A3F"/>
<path d="M164.536 21.9023C164.45 21.9025 164.365 21.885 164.286 21.8509C164.207 21.8169 164.136 21.767 164.077 21.7043C164.018 21.6416 163.972 21.5676 163.943 21.4866C163.914 21.4057 163.902 21.3197 163.908 21.2339L165.258 0.588693C165.269 0.422084 165.346 0.266601 165.471 0.156448C165.533 0.101906 165.605 0.0601348 165.684 0.0335189C165.762 0.00690291 165.845 -0.00403659 165.927 0.00132569C166.01 0.00668796 166.09 0.0282473 166.165 0.0647714C166.239 0.101296 166.305 0.15207 166.359 0.214195C166.414 0.276321 166.456 0.348581 166.482 0.42685C166.509 0.505119 166.52 0.587863 166.515 0.67036L165.164 21.3155C165.153 21.4749 165.083 21.6242 164.966 21.7332C164.849 21.8422 164.695 21.9026 164.536 21.9023Z" fill="#343A3F"/>
<path d="M68.1089 93.6964C65.0205 91.1935 62.5763 87.9875 60.9807 84.3466C59.385 80.7057 58.6843 76.7357 58.9371 72.7685C59.3354 66.2855 60.6471 56.3285 67.0384 52.8143C76.7227 47.4884 95.4079 49.6733 98.6256 61.7788C101.547 72.7685 98.0778 88.6431 88.0907 94.8887C85.0493 96.7917 81.4905 97.6995 77.9092 97.4858C74.3279 97.2721 70.9023 95.9476 68.1089 93.6964Z" fill="white"/>
<path d="M76.7887 65.2975C76.6371 65.2286 76.4643 65.2227 76.3083 65.2811C76.1524 65.3396 76.026 65.4575 75.957 65.6091C75.0101 67.4695 73.5453 69.0163 71.7392 70.0631C71.1659 70.5423 70.7985 71.2233 70.7127 71.9656C70.6269 72.7079 70.8293 73.4548 71.2781 74.0521C71.4093 74.3484 71.6226 74.6009 71.8927 74.7798C72.1628 74.9587 72.4785 75.0566 72.8024 75.0619C73.1264 75.0672 73.4451 74.9796 73.7208 74.8096C73.9966 74.6396 74.218 74.3942 74.3588 74.1024C74.6023 73.4755 74.6455 72.7886 74.4826 72.1362C74.3197 71.4837 73.9587 70.8977 73.4492 70.4588C74.9942 69.329 76.2468 67.8463 77.1028 66.1343C77.1376 66.0588 77.1571 65.9772 77.1602 65.8941C77.1632 65.811 77.1498 65.7281 77.1205 65.6503C77.0913 65.5725 77.0469 65.5012 76.99 65.4407C76.933 65.3801 76.8646 65.3315 76.7887 65.2975Z" fill="#343A3F"/>
<path d="M93.8381 60.9059C93.6864 60.837 93.5137 60.8311 93.3577 60.8895C93.2017 60.948 93.0753 61.0659 93.0063 61.2175C92.0592 63.0782 90.594 64.625 88.7873 65.6715C88.2136 66.1503 87.8457 66.8313 87.7596 67.5737C87.6736 68.3161 87.876 69.0631 88.325 69.6605C88.4561 69.9568 88.6692 70.2094 88.9392 70.3885C89.2093 70.5675 89.5249 70.6655 89.8489 70.6709C90.1728 70.6764 90.4915 70.5889 90.7674 70.419C91.0433 70.2491 91.2647 70.0038 91.4057 69.7121C91.6495 69.0852 91.6929 68.3982 91.53 67.7457C91.3671 67.0931 91.0059 66.5072 90.496 66.0685C92.0408 64.9378 93.2933 63.4548 94.1496 61.7427C94.1846 61.6674 94.2042 61.5859 94.2074 61.5029C94.2106 61.4199 94.1974 61.3371 94.1684 61.2593C94.1394 61.1815 94.0953 61.1102 94.0386 61.0496C93.9819 60.9889 93.9137 60.9401 93.8381 60.9059Z" fill="#343A3F"/>
<path d="M119.687 64.5747C117.943 61.9187 114.65 60.3029 112.179 58.4724C113.596 57.6269 114.776 56.4374 115.611 55.0142C116.445 53.591 116.907 51.9801 116.953 50.3309C116.848 46.813 114.664 44.4962 112.625 42.6065C102.81 33.4273 88.9306 31.0376 79.0264 30.6481C72.4283 30.2701 65.8208 31.2063 59.5873 33.4021C54.0198 35.4788 49.0002 38.7998 44.9113 43.1116C41.7253 41.0261 37.9562 40.0136 34.154 40.2219C32.269 40.2801 30.438 40.8651 28.8683 41.9105C28.2204 42.378 27.6823 42.9814 27.2917 43.6784C26.9011 44.3754 26.6673 45.1493 26.6068 45.946C25.7869 45.6104 24.9058 45.4502 24.0202 45.4759C23.1346 45.5015 22.2642 45.7125 21.4651 46.095C20.6661 46.4776 19.956 47.0234 19.3807 47.6971C18.8054 48.3709 18.3776 49.1577 18.125 50.0068C17.8723 50.856 17.8004 51.7487 17.9138 52.6273C18.0271 53.506 18.3234 54.3511 18.7833 55.1083C19.2433 55.8655 19.8568 56.518 20.5843 57.0236C21.3118 57.5292 22.1372 57.8768 23.0072 58.0439C22.6415 58.4036 22.1906 58.6647 21.6967 58.8028C21.2027 58.9409 20.6818 58.9515 20.1826 58.8337C19.6834 58.7159 19.2222 58.4734 18.8421 58.129C18.4621 57.7845 18.1755 57.3494 18.0093 56.8642C17.9739 56.7605 17.9121 56.6679 17.8299 56.5955C17.7477 56.5231 17.648 56.4734 17.5407 56.4515C17.4334 56.4295 17.3222 56.436 17.2182 56.4702C17.1141 56.5045 17.0208 56.5654 16.9476 56.6468C14.0026 59.9135 14.421 65.6816 17.866 69.0023C19.548 70.4595 21.5906 71.4382 23.7802 71.8361C25.9698 72.2339 28.2261 72.0363 30.3132 71.2638C32.805 70.2868 35.074 68.8173 36.9847 66.943C37.2775 70.7004 38.9755 74.2094 41.7402 76.7706C40.4665 77.4773 39.3711 78.4657 38.5376 79.6603C37.9337 80.5171 37.5863 81.5282 37.5361 82.5753C37.4858 83.6223 37.7347 84.662 38.2538 85.5728C38.7728 86.4835 39.5404 87.2276 40.4669 87.718C41.3934 88.2085 42.4403 88.4249 43.4853 88.342C43.2149 88.9867 43.0924 89.6837 43.127 90.3819C43.1616 91.0801 43.3523 91.7616 43.6851 92.3764C45.9077 96.7436 50.883 97.074 55.69 95.9759C57.3394 95.6432 58.8995 94.9641 60.267 93.9836C61.6345 93.0032 62.7783 91.7436 63.6229 90.2882C65.4152 92.6048 67.6845 94.5089 70.2771 95.8715C72.8698 97.2342 75.7251 98.0235 78.6495 98.186C81.4482 98.202 84.2156 97.5964 86.7518 96.4129C89.288 95.2294 91.5299 93.4975 93.3154 91.3423C96.003 88.0755 97.8789 84.2186 98.7896 80.0875C100.008 80.4845 101.313 80.5353 102.558 80.2341C103.804 79.933 104.941 79.2917 105.844 78.382C106.746 77.4722 107.379 76.3296 107.67 75.0816C107.961 73.8336 107.899 72.5293 107.493 71.314C108.206 71.3429 109.24 71.3065 110.759 71.2085C113.609 71.0238 118.81 70.329 120.101 67.7873C120.337 67.2663 120.423 66.6897 120.35 66.1223C120.277 65.5549 120.048 65.019 119.687 64.5747ZM97.6739 78.9919C95.8257 87.9124 90.3051 95.2246 81.2515 96.7587C78.4704 97.041 75.6618 96.675 73.0459 95.6895C70.43 94.7039 68.0781 93.1257 66.1747 91.0785C65.4931 90.4204 64.863 89.711 64.2901 88.9564C65.1326 86.8467 65.4261 84.5578 65.1432 82.3038C64.8749 79.9086 65.2065 77.4843 66.1081 75.2491C68.9978 67.5034 72.4881 65.0949 75.8075 61.5631C76.0957 62.0478 76.4838 62.4655 76.9459 62.7887C77.408 63.1118 77.9336 63.3329 78.4878 63.4372C79.0419 63.5415 79.6119 63.5267 80.1599 63.3938C80.7079 63.2609 81.2213 63.0129 81.6661 62.6662C82.0931 63.3803 82.7438 63.9336 83.5173 64.2402C84.2908 64.5469 85.1438 64.5898 85.9441 64.3624C87.3204 63.8532 88.5301 62.9752 89.4407 61.8244C89.6428 61.5875 89.8766 61.3795 90.1355 61.2063C90.4118 61.3558 90.6691 61.5381 90.9019 61.7491C93.3436 63.6886 95.1243 66.3371 95.9991 69.3302C97.1479 72.4201 97.7157 75.6957 97.6739 78.9919Z" fill="#343A3F"/>
<path d="M69.1134 67.6355C68.988 67.6353 68.8654 67.5975 68.7617 67.5271C68.6579 67.4566 68.5776 67.3567 68.5311 67.2402C68.4846 67.1236 68.474 66.9959 68.5008 66.8733C68.5275 66.7508 68.5904 66.639 68.6812 66.5525C71.1412 64.2118 74.8866 62.5446 77.1732 65.0109C77.2836 65.1336 77.3412 65.2949 77.3336 65.4598C77.326 65.6247 77.2538 65.7799 77.1326 65.892C77.0115 66.0041 76.8511 66.064 76.6861 66.0588C76.5211 66.0535 76.3648 65.9835 76.251 65.864C74.5046 63.9794 71.3774 65.722 69.5469 67.4621C69.43 67.5735 69.2748 67.6356 69.1134 67.6355Z" fill="#343A3F"/>
<path d="M87.5377 64.606C87.4232 64.6059 87.3109 64.5745 87.213 64.5152C87.115 64.4559 87.0351 64.3709 86.982 64.2695C86.9288 64.1681 86.9044 64.0541 86.9113 63.9398C86.9182 63.8255 86.9563 63.7152 87.0213 63.621C89.7666 59.6395 94.3336 60.3116 94.9367 63.2881C94.9532 63.3689 94.9536 63.4522 94.9379 63.5332C94.9222 63.6142 94.8907 63.6913 94.8452 63.7602C94.7997 63.829 94.7411 63.8882 94.6727 63.9344C94.6043 63.9806 94.5275 64.0128 94.4467 64.0293C94.3658 64.0458 94.2825 64.0462 94.2015 64.0305C94.1205 64.0149 94.0434 63.9834 93.9745 63.9379C93.9057 63.8924 93.8465 63.8337 93.8003 63.7654C93.7542 63.697 93.7219 63.6202 93.7054 63.5393C93.3285 61.6962 90.1473 61.3042 88.0516 64.3372C87.9938 64.42 87.917 64.4876 87.8275 64.5344C87.7381 64.5812 87.6387 64.6058 87.5377 64.606Z" fill="#343A3F"/>
<path d="M81.816 92.9975C79.3032 92.9975 78.4551 90.2183 78.4551 87.6364C78.6738 84.8169 79.2099 82.031 80.0532 79.3316C80.0862 79.2271 80.1459 79.1331 80.2265 79.0589C80.3071 78.9846 80.4056 78.9327 80.5124 78.9083C80.6192 78.884 80.7306 78.8879 80.8354 78.9199C80.9402 78.9518 81.0348 79.0106 81.1099 79.0904C82.2537 80.3051 83.7247 81.1628 85.3452 81.5601C86.9658 81.9573 88.6666 81.8772 90.2426 81.3293C90.3211 81.2997 90.4046 81.2862 90.4884 81.2894C90.5721 81.2926 90.6544 81.3126 90.7303 81.3481C90.8062 81.3837 90.8743 81.434 90.9304 81.4962C90.9866 81.5584 91.0297 81.6313 91.0573 81.7104C91.0849 81.7895 91.0964 81.8734 91.091 81.9571C91.0857 82.0407 91.0637 82.1224 91.0263 82.1975C90.9889 82.2725 90.9369 82.3392 90.8733 82.3938C90.8097 82.4484 90.7358 82.4897 90.656 82.5153C89.0205 83.0829 87.2648 83.212 85.5638 82.8897C83.8629 82.5674 82.2761 81.805 80.9616 80.6785C80.3152 82.9663 79.8944 85.3118 79.7052 87.6817C79.7052 89.4959 80.2015 91.5476 81.5898 91.7185C83.9305 92.0803 87.226 86.2179 88.3957 84.1801C88.4367 84.108 88.4915 84.0448 88.5569 83.9941C88.6224 83.9433 88.6973 83.906 88.7772 83.8843C88.8572 83.8626 88.9406 83.8569 89.0228 83.8676C89.105 83.8783 89.1842 83.9051 89.2559 83.9465C89.3277 83.9879 89.3905 84.0432 89.4409 84.109C89.4912 84.1748 89.528 84.2499 89.5492 84.33C89.5703 84.4101 89.5755 84.4936 89.5642 84.5757C89.553 84.6577 89.5257 84.7368 89.4838 84.8083C87.9598 87.4743 84.8652 92.9912 81.816 92.9975Z" fill="#343A3F"/>
<path d="M90.6059 111.327C89.8123 112.709 88.6695 113.858 87.2921 114.66C85.9147 115.462 84.3509 115.888 82.7572 115.895C79.7379 115.964 76.736 115.421 73.9325 114.298C71.129 113.175 68.582 111.496 66.4453 109.362C66.0666 109.047 65.7608 108.654 65.5493 108.21C65.3377 107.765 65.2255 107.28 65.2203 106.787C65.0545 106.042 65.0971 105.265 65.3436 104.543C65.59 103.82 66.0308 103.179 66.6174 102.69C67.3399 102.171 68.3764 101.717 68.2973 100.853C68.2973 100.303 67.7005 99.8634 67.7319 99.2829C67.7633 98.7024 68.6277 98.2966 69.3024 98.1835C70.5751 97.97 71.9245 97.6973 73.1017 97.4297C72.5049 99.6586 72.4585 102.33 74.813 103.712C75.7189 104.177 76.6952 104.49 77.7027 104.638C78.8724 104.912 80.0663 105.07 81.2671 105.109C82.2509 105.233 83.2487 105.191 84.2184 104.983C84.281 104.956 84.3391 104.919 84.3905 104.874C84.4056 104.801 84.4056 104.727 84.3905 104.654C85.0979 100.287 84.4722 99.9375 85.1129 96.5992C85.4671 96.4926 85.8443 96.4891 86.2004 96.5892C86.5564 96.6894 86.8765 96.889 87.1232 97.1646C87.6084 97.7248 87.977 98.3762 88.2074 99.0806C89.7742 102.771 92.5847 107.314 90.6059 111.327Z" fill="#DDE1E6"/>
<path d="M101.056 105.555C98.1248 102.751 94.9626 100.198 91.6029 97.925C90.6174 97.1099 89.447 96.5491 88.1943 96.2917C85.9051 95.8218 84.8761 95.5127 84.7568 96.2917C84.3722 99.004 84.2138 101.744 84.2831 104.482C82.4538 105.183 77.5237 104.95 73.6175 101.995C73.6276 101.856 73.6175 101.962 73.6175 96.5128C73.6175 96.3462 73.5513 96.1864 73.4335 96.0686C73.3157 95.9508 73.1559 95.8846 72.9893 95.8846C72.8227 95.8846 72.6629 95.9508 72.5451 96.0686C72.4273 96.1864 72.3611 96.3462 72.3611 96.5128V97.0443L69.2 97.5732C68.225 97.7315 67.1533 98.3271 67.1031 99.2581C67.0616 100.047 67.6634 100.543 67.6697 100.919C67.7074 101.34 66.8618 101.743 66.2135 102.217C65.5464 102.771 65.0428 103.497 64.7571 104.316C64.4713 105.135 64.4141 106.016 64.5915 106.866C64.6032 107.428 64.7345 107.981 64.9767 108.488C65.2189 108.996 65.5665 109.446 65.9962 109.808C68.195 112.002 70.815 113.728 73.6984 114.883C76.5817 116.037 79.6689 116.597 82.7742 116.527C84.492 116.511 86.1751 116.041 87.6532 115.166C89.1313 114.291 90.3521 113.04 91.192 111.542C91.7626 109.959 91.9557 108.266 91.7562 106.595C97.3861 115.753 98.9553 126.663 94.0931 136.498C84.8598 154.42 59.8448 162.091 64.9546 178.352C67.8443 188.78 77.4395 197.04 88.5297 195.338C88.6508 195.319 88.7638 195.266 88.8549 195.184C88.9459 195.102 89.0111 194.995 89.0423 194.877C89.0736 194.758 89.0695 194.633 89.0307 194.517C88.9918 194.401 88.9199 194.299 88.8237 194.223C83.6951 190.179 88.8727 180.623 91.5627 174.792C94.3268 168.851 97.9553 161.976 100.747 155.953C103.877 149.234 106.582 144.52 108.216 137.176C111.103 124.556 108.496 113.037 101.056 105.555ZM90.0588 111.022C89.3168 112.309 88.2501 113.379 86.9652 114.125C85.6803 114.871 84.2221 115.266 82.7365 115.272C79.7937 115.336 76.8685 114.803 74.1373 113.706C71.4061 112.608 68.9256 110.968 66.8455 108.886C66.5287 108.607 66.2746 108.265 66.1 107.881C65.9254 107.497 65.8344 107.08 65.8328 106.658C65.6906 106.033 65.7227 105.38 65.9257 104.772C66.1286 104.163 66.4945 103.622 66.9837 103.207C67.7375 102.668 69.0379 102.069 68.9248 100.86C68.9026 100.48 68.7771 100.113 68.5617 99.7996C68.4601 99.6585 68.3906 99.4968 68.3582 99.3259C68.628 99.0262 69.0027 98.8418 69.4048 98.8108L72.3624 98.3158V101.283C72.2498 101.31 72.1467 101.366 72.0644 101.447C71.982 101.528 71.9236 101.631 71.8956 101.743C71.8675 101.855 71.8709 101.972 71.9054 102.083C71.9399 102.193 72.0041 102.292 72.091 102.368C73.6239 103.707 75.4173 104.715 77.3584 105.329C79.2996 105.942 81.3466 106.148 83.3709 105.932C84.2911 105.898 85.1745 105.562 85.8837 104.975C86.2215 104.632 86.4798 104.219 86.6404 103.765C86.8011 103.311 86.8602 102.828 86.8135 102.349C86.6215 101.355 86.2211 100.413 85.6388 99.5847C85.7041 98.7203 85.7971 97.8593 85.9177 97.0016L85.9353 97.0217C88.2953 99.3625 89.6324 102.543 89.6542 105.867C89.3929 109.902 85.9817 112.029 82.009 111.665C79.3631 111.453 76.8135 110.576 74.5962 109.117C74.5278 109.071 74.451 109.039 74.3702 109.022C74.2893 109.006 74.206 109.005 74.125 109.021C74.0439 109.037 73.9668 109.068 73.8979 109.114C73.8291 109.159 73.7699 109.218 73.7237 109.286C73.6775 109.354 73.6452 109.431 73.6287 109.512C73.6122 109.593 73.6118 109.676 73.6274 109.757C73.6431 109.838 73.6746 109.915 73.7201 109.984C73.7656 110.053 73.8243 110.112 73.8927 110.159C76.2862 111.737 79.0395 112.685 81.8972 112.915C85.9051 113.281 89.4695 111.395 90.5839 107.764C90.6038 108.871 90.426 109.973 90.0588 111.018V111.022ZM106.995 136.895C105.396 144.084 102.696 148.803 99.6124 155.418C96.8685 161.342 93.2048 168.281 90.4269 174.264C87.7734 180.031 82.7855 189.206 87.0522 194.241C76.9369 195.041 68.72 187.191 66.1645 177.992C63.2936 168.859 71.0017 162.503 77.986 156.34C84.2605 150.803 91.3717 144.53 95.2201 137.058C100.895 125.586 98.1563 112.519 90.5714 102.664C90.0715 100.814 89.2182 99.0787 88.0586 97.5531C89.0824 97.7895 90.0364 98.2629 90.844 98.9352C94.1585 101.176 97.2783 103.692 100.17 106.457C107.295 113.61 109.782 124.705 106.995 136.891V136.895Z" fill="#343A3F"/>
<path d="M92.3008 76.2463C92.3008 77.7837 92.9115 79.2582 93.9987 80.3454C95.0858 81.4325 96.5604 82.0433 98.0978 82.0433C99.6353 82.0433 101.11 81.4325 102.197 80.3454C103.284 79.2582 103.895 77.7837 103.895 76.2463C103.895 74.7088 103.284 73.2343 102.197 72.1471C101.11 71.06 99.6353 70.4492 98.0978 70.4492C96.5604 70.4492 95.0858 71.06 93.9987 72.1471C92.9115 73.2343 92.3008 74.7088 92.3008 76.2463Z" fill="#FF5470"/>
<path d="M61.2119 83.1911C61.2119 85.0665 61.9569 86.865 63.283 88.1911C64.609 89.5172 66.4076 90.2622 68.2829 90.2622C70.1583 90.2622 71.9568 89.5172 73.2829 88.1911C74.609 86.865 75.354 85.0665 75.354 83.1911C75.354 81.3158 74.609 79.5172 73.2829 78.1912C71.9568 76.8651 70.1583 76.1201 68.2829 76.1201C66.4076 76.1201 64.609 76.8651 63.283 78.1912C61.9569 79.5172 61.2119 81.3158 61.2119 83.1911Z" fill="#FF5470"/>
<path d="M93.1652 76.019C93.0702 76.0194 92.9763 75.9974 92.8913 75.955C89.8578 74.4821 86.9275 72.8056 84.1204 70.9369C83.7388 70.721 83.4198 70.4097 83.1945 70.0336C82.9692 69.6574 82.8454 69.2293 82.8351 68.791C82.703 67.683 82.6665 66.5657 82.7258 65.4515C82.7368 65.2857 82.8119 65.1308 82.9353 65.0196C83.0587 64.9084 83.2206 64.8497 83.3866 64.8559C83.4691 64.8603 83.5498 64.8808 83.6243 64.9164C83.6988 64.9519 83.7655 65.0018 83.8207 65.0632C83.8759 65.1246 83.9185 65.1962 83.946 65.2741C83.9734 65.3519 83.9853 65.4344 83.9809 65.5168C83.925 66.5757 83.9603 67.6376 84.0865 68.6905C84.0779 68.9344 84.1396 69.1757 84.2644 69.3856C84.3891 69.5954 84.5716 69.765 84.79 69.874C87.5579 71.7179 90.4476 73.3722 93.4391 74.8255C93.5671 74.8875 93.6702 74.991 93.7317 75.1192C93.7932 75.2475 93.8094 75.3928 93.7776 75.5313C93.7458 75.6699 93.6679 75.7937 93.5566 75.8822C93.4454 75.9708 93.3074 76.0191 93.1652 76.019Z" fill="#343A3F"/>
</svg>
