<svg width="24" height="24" viewBox="0 0 24 24" fill="none" xmlns="http://www.w3.org/2000/svg">
    <path d="M0 1.5C0 0.671573 0.671573 0 1.5 0H13.5C14.3284 0 15 0.671573 15 1.5V4.5C15 5.32843 14.3284 6 13.5 6H1.5C0.671573 6 0 5.32843 0 4.5V1.5Z" fill="currentColor"/>

<path d="M6.75 5.24805V6.74805C6.75 7.14587 6.90804 7.5274 7.18934 7.80871C7.47064 8.09001 7.85218 8.24805 8.25 8.24805H12.75C13.1478 8.24805 13.5294 8.40608 13.8107 8.68739C14.092 8.96869 14.25 9.35022 14.25 9.74805V11.248M17.25 15.748V18.748M10.5 18.748H22.5C22.9142 18.748 23.25 19.0838 23.25 19.498V22.498C23.25 22.9123 22.9142 23.248 22.5 23.248H10.5C10.0858 23.248 9.75 22.9123 9.75 22.498V19.498C9.75 19.0838 10.0858 18.748 10.5 18.748ZM10.5 11.248H22.5C22.9142 11.248 23.25 11.5838 23.25 11.998V14.998C23.25 15.4123 22.9142 15.748 22.5 15.748H10.5C10.0858 15.748 9.75 15.4123 9.75 14.998V11.998C9.75 11.5838 10.0858 11.248 10.5 11.248ZM1.5 0.748047H13.5C13.9142 0.748047 14.25 1.08383 14.25 1.49805V4.49805C14.25 4.91226 13.9142 5.24805 13.5 5.24805H1.5C1.08579 5.24805 0.75 4.91226 0.75 4.49805V1.49805C0.75 1.08383 1.08579 0.748047 1.5 0.748047Z" stroke="currentColor" stroke-width="1.5" stroke-linecap="round" stroke-linejoin="round"/>
</svg>
