<svg width="20" height="20" viewBox="0 0 20 20" fill="none" xmlns="http://www.w3.org/2000/svg">
<g clip-path="url(#clip0)">
<path d="M15 3.45341C16.3042 3.24382 17.6225 3.13405 18.9433 3.12508C19.0568 3.12334 19.1664 3.16646 19.2483 3.24508C19.2881 3.28363 19.3198 3.32972 19.3415 3.38066C19.3633 3.4316 19.3747 3.48636 19.375 3.54175V16.6817C19.3739 16.7919 19.3297 16.8973 19.2518 16.9752C19.1739 17.0531 19.0685 17.0973 18.9583 17.0984C12.0475 17.1842 10 19.3751 10 19.3751V5.40175C10 5.40175 7.95417 3.21341 1.05667 3.12508C0.942587 3.12289 0.832299 3.16605 0.75 3.24508C0.71053 3.28377 0.679152 3.32992 0.657692 3.38085C0.636231 3.43178 0.625119 3.48648 0.625 3.54175V16.6817C0.626086 16.7919 0.670333 16.8973 0.748239 16.9752C0.826145 17.0531 0.931496 17.0973 1.04167 17.0984C7.9525 17.1842 10 19.3751 10 19.3751" stroke="#B9BEC4" stroke-width="1.5" stroke-linecap="round" stroke-linejoin="round"/>
<path d="M10 18.9633C10.1317 17.8833 10.61 16.8751 11.3633 16.09C12.3327 15.0444 13.6039 14.3269 15 14.0375V1.035C14.9987 0.967986 14.9807 0.902359 14.9475 0.844126C14.9143 0.785893 14.867 0.736913 14.81 0.701669C14.7493 0.663538 14.6812 0.638893 14.6101 0.629404C14.5391 0.619914 14.4669 0.625802 14.3983 0.646669C13.229 0.982669 12.1775 1.6401 11.3633 2.54417C10.6104 3.32881 10.132 4.33639 10 5.41584" stroke="#B9BEC4" stroke-width="1.5" stroke-linecap="round" stroke-linejoin="round"/>
</g>
<defs>
<clipPath id="clip0">
<rect width="20" height="20" fill="white"/>
</clipPath>
</defs>
</svg>
