<svg width="300" height="170" viewBox="0 0 300 170" fill="none" xmlns="http://www.w3.org/2000/svg">
<path d="M299.229 12.1856L270.002 19.9176C269.869 19.9536 269.752 20.0329 269.67 20.1429C269.588 20.2529 269.544 20.3872 269.547 20.5245C269.55 20.6622 269.599 20.7949 269.687 20.9011C269.774 21.0073 269.895 21.0808 270.03 21.1095L274.208 22.0137L45.3076 155.603C45.2089 155.661 45.1281 155.745 45.074 155.846C45.0199 155.947 44.9946 156.061 45.0009 156.175C45.0079 156.29 45.047 156.4 45.1138 156.493C45.1805 156.587 45.2722 156.66 45.3783 156.703L74.9159 169.074L288.433 27.8775L293.054 30.4768C293.132 30.5207 293.219 30.5471 293.308 30.5542C293.398 30.5612 293.488 30.5488 293.572 30.5177C293.655 30.4858 293.731 30.4361 293.793 30.372C293.856 30.3079 293.904 30.231 293.933 30.1466L299.965 12.9813C300.002 12.8762 300.009 12.7633 299.987 12.6542C299.964 12.5457 299.911 12.4455 299.836 12.364C299.76 12.2824 299.664 12.2225 299.558 12.1904C299.451 12.159 299.337 12.1574 299.229 12.1856Z" fill="#2F4147"/>
<path d="M97.9609 143.405C103.653 141.881 107.606 138.172 106.789 135.119C105.971 132.066 100.695 130.827 95.0014 132.349C89.309 133.872 85.3558 137.584 86.1735 140.636C86.9912 143.688 92.2669 144.929 97.9609 143.405Z" fill="#B1E400"/>
<path d="M107.088 134.195C104.514 129.221 92.9528 130.569 87.729 135.472C84.5384 138.459 85.5275 140.504 86.037 142.465C89.4871 150.226 112.04 143.763 107.088 134.195ZM88.5687 136.365C91.7003 133.748 95.6524 132.316 99.7334 132.319C105.611 132.319 108.434 135.596 104.397 139.387C102.475 140.996 100.225 142.165 97.8036 142.813C95.3824 143.461 92.8488 143.571 90.3802 143.138C86.243 142.166 85.4866 139.258 88.5687 136.365Z" fill="#2F4147"/>
<path d="M65.5589 16.9534C61.0742 26.3883 52.589 33.2145 44.6826 39.8409C28.0142 53.8062 11.9104 69.5609 3.70202 89.791C1.74573 94.4466 0.697976 99.4334 0.615234 104.483C8.33173 95.8249 18.5434 89.7733 29.843 87.1618C46.4249 83.3406 64.2993 88.9764 81.0306 78.0413L65.5589 16.9534Z" fill="#E2FD86"/>
<path d="M96.7802 136.461L66.7788 16.1483C66.7551 16.0486 66.7117 15.9546 66.6512 15.8718C66.5906 15.7891 66.5141 15.7193 66.4262 15.6666C66.3383 15.6138 66.2408 15.5792 66.1393 15.5647C66.0378 15.5502 65.9344 15.5562 65.8353 15.5822C65.4359 15.6844 65.3903 15.881 65.005 16.683C60.8348 25.4574 53.1123 31.9361 45.6477 38.226C28.5013 52.6614 11.7795 68.2668 3.14497 89.5488C1.15081 94.2813 0.0831828 99.3526 3.3175e-06 104.487C-0.000302765 104.58 0.020575 104.672 0.0610514 104.756C0.101528 104.839 0.160538 104.913 0.233601 104.97C0.306663 105.028 0.391857 105.068 0.482712 105.087C0.573566 105.107 0.667692 105.106 0.757941 105.083C0.879 105.055 0.988265 104.989 1.07087 104.896C8.70041 96.329 18.8015 90.3417 29.9794 87.7609C46.3726 84.0215 64.2738 89.4214 80.8321 78.8968L95.2785 136.837C95.3111 136.99 95.3892 137.13 95.5025 137.238C95.6159 137.346 95.7592 137.418 95.9138 137.444C96.0167 137.459 96.1217 137.454 96.2227 137.429C96.3236 137.403 96.4185 137.358 96.5019 137.296C96.6265 137.201 96.7196 137.07 96.769 136.922C96.8184 136.773 96.8217 136.613 96.7786 136.462H96.7802V136.461ZM29.7058 86.5642C18.8258 89.074 8.93129 94.7459 1.26743 102.866C1.543 98.4412 2.56208 94.0943 4.28188 90.008C12.789 69.0404 29.3913 53.5059 46.4434 39.1648C53.7554 33.0164 61.3097 26.6698 65.6764 18.1155L80.5191 77.6388C64.203 88.1996 46.3144 82.7745 29.7058 86.5642Z" fill="#2F4147"/>
<path d="M40.9353 62.9015C39.0892 59.3382 35.5889 59.3319 35.4316 62.491C35.2744 65.5306 38.3171 69.0483 40.495 67.9224C41.8348 67.2242 42.0314 65.018 40.9353 62.9015Z" fill="#2F4147"/>
<path d="M66.3981 46.4768C65.5286 44.7974 63.6463 43.1086 62.0392 43.9451C60.4321 44.7817 60.7293 47.2977 61.5926 48.9661C62.4559 50.6345 64.3445 52.3328 65.95 51.4978C67.5555 50.6628 67.2614 48.1437 66.3981 46.4768Z" fill="#2F4147"/>
<path d="M61.2361 66.5936C61.7 69.5326 58.9356 72.1445 56.7514 69.3769C55.5248 67.8233 54.5499 64.4079 55.5138 62.5728C57.0674 59.6323 60.3697 63.3873 61.2361 66.5936Z" fill="white"/>
<path d="M56.267 69.7544C55.009 68.1819 53.8706 64.4865 54.965 62.2992C56.9055 58.8004 60.7455 62.4659 61.8273 66.4333C62.4375 70.2513 58.7515 72.9465 56.267 69.7544ZM56.9746 62.1388C56.7692 62.1674 56.5751 62.2505 56.4126 62.3793C56.25 62.5082 56.1248 62.6781 56.05 62.8716C54.9493 65.0841 57.0265 70.8048 59.2799 69.8345C59.8057 69.5175 60.2187 69.0435 60.4608 68.4793C60.7028 67.915 60.7617 67.289 60.6291 66.6896C60.1857 65.0731 58.4543 62.1388 56.9746 62.1388Z" fill="#2F4147"/>
<path d="M156.805 104.173C161.502 104.173 165.311 102.096 165.311 99.5341C165.311 96.9725 161.502 94.8953 156.805 94.8953C152.108 94.8953 148.3 96.9725 148.3 99.5341C148.3 102.096 152.108 104.173 156.805 104.173Z" fill="#B1E400"/>
<path d="M156.805 94.2804C153.116 94.2804 147.885 95.8529 147.685 99.3124C147.675 99.4696 147.685 99.4696 147.685 101.009C148.048 103.736 152.05 105.871 156.805 105.871C160.707 105.871 165.926 103.81 165.926 100.773V99.3815C165.924 95.9378 160.557 94.2804 156.805 94.2804ZM156.805 95.5069C161.084 95.5069 164.698 97.3515 164.698 99.5341C164.698 101.717 161.081 103.56 156.805 103.56C152.53 103.56 148.913 101.715 148.913 99.5341C148.913 97.353 152.528 95.5069 156.805 95.5069Z" fill="#2F4147"/>
<path d="M156.651 25.9292V50.6659C168.887 44.7893 182.211 41.5227 195.776 41.0738C184.76 31.8517 171.006 26.5276 156.651 25.9292Z" fill="#E2FD86"/>
<path d="M196.168 40.6068C185.057 31.2832 171.17 25.9038 156.678 25.3096C156.335 25.2939 156.038 25.5093 156.038 26.077V98.4507C156.039 98.6132 156.103 98.7689 156.218 98.8838C156.333 98.9987 156.489 99.0635 156.651 99.0639C156.814 99.0635 156.97 98.9987 157.085 98.8838C157.199 98.7689 157.264 98.6132 157.265 98.4507V51.0528C169.323 45.3061 182.44 42.1184 195.791 41.6902C195.915 41.6869 196.036 41.6458 196.136 41.5723C196.237 41.4989 196.313 41.3965 196.354 41.2789C196.395 41.1612 196.399 41.0339 196.366 40.9139C196.332 40.7938 196.263 40.6867 196.168 40.6068ZM157.265 49.6957V26.566C170.713 27.2483 183.609 32.1334 194.135 40.5328C181.364 41.1496 168.838 44.2625 157.265 49.6957Z" fill="#2F4147"/>
<path d="M162.372 31.3385C160.727 31.3385 160.727 35.3484 162.372 35.3484C164.017 35.3484 164.019 31.3385 162.372 31.3385Z" fill="#2F4147"/>
<path d="M173.353 35.5056C171.708 35.5056 171.708 31.4958 173.353 31.4958C174.998 31.4958 175.004 35.5056 173.353 35.5056Z" fill="#2F4147"/>
<path d="M164.608 37.4869C164.548 37.3427 164.545 37.1811 164.599 37.0347C164.654 36.8884 164.762 36.7682 164.902 36.6985C165.042 36.6288 165.203 36.6148 165.353 36.6592C165.502 36.7037 165.63 36.8034 165.709 36.9381C165.919 37.3034 166.223 37.6068 166.588 37.818C166.953 38.0291 167.367 38.1405 167.789 38.1411C168.211 38.1413 168.626 38.0302 168.991 37.819C169.357 37.6078 169.66 37.304 169.871 36.9381C169.926 36.8304 170.012 36.7412 170.117 36.6817C170.222 36.6222 170.343 36.5949 170.464 36.6033C170.585 36.6117 170.7 36.6553 170.796 36.7288C170.892 36.8023 170.965 36.9025 171.005 37.0168C171.031 37.0934 171.041 37.1745 171.035 37.2552C171.03 37.3359 171.008 37.4146 170.972 37.4869C170.659 38.0577 170.199 38.5339 169.639 38.8656C169.079 39.1973 168.44 39.3723 167.79 39.3723C167.139 39.3723 166.5 39.1973 165.94 38.8656C165.381 38.5339 164.92 38.0577 164.608 37.4869Z" fill="#2F4147"/>
<path d="M248.973 46.6215C252.016 46.6215 254.482 45.3116 254.482 43.6951C254.482 42.0786 252.016 40.7687 248.973 40.7687C245.931 40.7687 243.465 42.0786 243.465 43.6951C243.465 45.3116 245.931 46.6215 248.973 46.6215Z" fill="#B1E400"/>
<path d="M255.095 43.6983C255.095 41.7138 252.406 40.1602 248.973 40.1602C245.541 40.1602 242.852 41.7138 242.852 43.6983C242.852 46.8747 245.997 48.1012 249.142 48.1012C252.018 48.1012 255.095 46.7772 255.095 43.6983ZM248.973 41.3867C251.857 41.3867 253.867 42.6038 253.867 43.6983C253.867 44.7927 251.857 46.0098 248.973 46.0098C246.089 46.0098 244.078 44.7927 244.078 43.6983C244.078 42.6038 246.089 41.382 248.973 41.382V41.3851V41.3867Z" fill="#2F4147"/>
<path d="M248.817 0.686047L248.975 18.0054C255.92 13.0708 263.822 9.64676 272.172 7.95408C265.056 3.62345 257.015 0.0680602 248.817 0.686047Z" fill="#E2FD86"/>
<path d="M272.488 7.43044C263.367 1.87799 255.83 -0.460296 248.771 0.0743494C248.651 0.083507 248.535 0.12828 248.44 0.203006C248.344 0.277733 248.273 0.379066 248.235 0.494206C248.21 0.570704 248.201 0.651412 248.207 0.731653V43.0582C248.207 43.2209 248.272 43.3769 248.387 43.4919C248.502 43.6069 248.658 43.6715 248.82 43.6715C248.983 43.6715 249.139 43.6069 249.254 43.4919C249.369 43.3769 249.434 43.2209 249.434 43.0582V18.4331C256.28 13.58 264.067 10.2149 272.293 8.55477C272.414 8.5306 272.524 8.47028 272.61 8.38181C272.695 8.29334 272.752 8.18091 272.772 8.05944C272.794 7.9381 272.779 7.81299 272.728 7.70067C272.677 7.58835 272.593 7.49411 272.488 7.43044ZM249.432 16.9393V1.26158C255.722 0.931356 262.468 2.99131 270.519 7.68361C262.967 9.40605 255.812 12.5469 249.432 16.9393Z" fill="#2F4147"/>
<path d="M252.37 4.09363C251.183 4.09363 251.098 6.86592 252.37 6.86592C253.596 6.86592 253.628 4.09363 252.37 4.09363Z" fill="#2F4147"/>
<path d="M259.798 4.09363C258.562 4.09363 258.562 6.86592 259.798 6.86592C260.985 6.86592 261.07 4.09363 259.798 4.09363Z" fill="#2F4147"/>
<path d="M258.176 8.08617C258.024 8.03134 257.857 8.03816 257.71 8.10516C257.563 8.17217 257.448 8.29405 257.39 8.4447C257.018 9.42907 254.963 9.44322 254.817 8.50917C254.796 8.39014 254.742 8.27955 254.66 8.1906C254.579 8.10164 254.473 8.0381 254.356 8.00754C254.278 7.9887 254.197 7.98549 254.117 7.99811C253.026 8.16794 253.685 10.4245 255.985 10.4245C258.136 10.4245 259.181 8.47457 258.176 8.08617Z" fill="#2F4147"/>
<path d="M205.981 73.0896C209.654 73.0896 212.631 71.4967 212.631 69.5326C212.631 67.567 209.654 65.9757 205.981 65.9757C202.308 65.9757 199.331 67.5686 199.331 69.5326C199.331 71.4982 202.308 73.0896 205.981 73.0896Z" fill="#B1E400"/>
<path d="M213.226 69.2276C212.961 67.0355 209.875 65.3624 205.981 65.3624C202.317 65.3624 199.377 66.8453 198.814 68.8455C198.695 69.4618 198.666 70.092 198.727 70.7167C199.098 72.9496 202.218 74.6322 205.981 74.6322C209.063 74.6322 213.245 72.9339 213.245 70.6145C213.262 70.1522 213.256 69.6893 213.226 69.2276ZM212.018 69.5326C212.018 70.9479 209.593 72.4763 205.981 72.4763C202.369 72.4763 199.944 70.9542 199.944 69.5326C199.944 68.1111 202.371 66.5889 205.981 66.5889C209.592 66.5889 212.018 68.1111 212.018 69.5326Z" fill="#2F4147"/>
<path d="M222.682 14.0144C217.441 12.1166 211.839 11.4295 206.295 12.0048V33.8105C215.897 27.5608 226.605 23.2039 237.842 20.9743C232.952 18.3135 227.887 15.9882 222.682 14.0144Z" fill="#E2FD86"/>
<path d="M238.134 20.4365C233.214 17.7606 228.118 15.4227 222.881 13.4389C217.552 11.5018 211.852 10.8028 206.212 11.3947C206.003 11.4615 205.815 11.5811 205.665 11.742C205.515 11.9028 205.41 12.0995 205.358 12.313V68.608C205.366 68.7651 205.433 68.9134 205.547 69.0218C205.661 69.1302 205.813 69.1904 205.97 69.1898C206.128 69.1908 206.28 69.1308 206.394 69.0223C206.508 68.9139 206.576 68.7654 206.583 68.608C206.583 34.3011 206.497 34.419 206.654 34.2995C216.182 28.1096 226.802 23.7926 237.947 21.5797C238.071 21.5563 238.186 21.4952 238.275 21.4047C238.364 21.3141 238.422 21.1985 238.444 21.0733C238.463 20.9482 238.444 20.82 238.389 20.7061C238.333 20.5922 238.244 20.4981 238.134 20.4365ZM220.762 25.5062C215.826 27.5009 211.083 29.947 206.596 32.8135V12.5913C211.969 12.0642 217.391 12.7466 222.465 14.5884C227.111 16.3548 231.647 18.398 236.049 20.7069C230.807 21.7988 225.687 23.4063 220.762 25.5062Z" fill="#2F4147"/>
<path d="M210.776 18.9583C209.34 18.9583 209.34 15.8763 210.776 15.8763C212.212 15.8763 212.213 18.9583 210.776 18.9583Z" fill="#2F4147"/>
<path d="M219.591 19.7336C218.153 19.7336 218.153 16.6515 219.591 16.6515C221.028 16.6515 221.026 19.7336 219.591 19.7336Z" fill="#2F4147"/>
<path d="M211.799 20.5167C211.722 20.3776 211.703 20.2138 211.746 20.0607C211.787 19.9072 211.886 19.7758 212.022 19.6944C212.158 19.613 212.321 19.5882 212.476 19.6251C212.63 19.6609 212.765 19.755 212.851 19.8877C213.068 20.2257 213.355 20.5132 213.693 20.7305C214.031 20.9478 214.412 21.09 214.809 21.1472C215.207 21.2048 215.612 21.1766 215.997 21.0646C216.383 20.9526 216.74 20.7593 217.045 20.4978C217.173 20.402 217.332 20.3595 217.49 20.3793C217.648 20.3991 217.793 20.4797 217.892 20.6039C217.992 20.7282 218.039 20.8864 218.025 21.045C218.01 21.2037 217.934 21.3503 217.813 21.4539C217.372 21.8263 216.856 22.0996 216.3 22.2551C215.745 22.4105 215.162 22.4446 214.592 22.3549C214.022 22.2655 213.478 22.0552 212.997 21.7381C212.515 21.4211 212.107 21.0046 211.799 20.5167Z" fill="#2F4147"/>
</svg>
