<svg width="250" height="200" viewBox="0 0 250 200" fill="none" xmlns="http://www.w3.org/2000/svg">
<path d="M37.1919 163.813L39.7738 181.59L54.969 198.936L227.001 171.697L223.703 150.624L51.4277 176.896L37.1919 163.813Z" fill="#DDE1E6"/>
<path d="M223.703 150.624L51.5286 176.858L37.1919 163.813L209.366 137.865L223.703 150.624Z" fill="white"/>
<path d="M227.496 171.62C224.145 150.235 224.247 150.438 224.038 150.249C209.465 137.173 209.65 137.309 209.293 137.368L37.1673 163.309C37.0938 163.313 37.0221 163.333 36.9569 163.368C36.8918 163.402 36.8348 163.45 36.7899 163.508C36.7453 163.567 36.7144 163.635 36.6992 163.707C36.684 163.779 36.685 163.854 36.7021 163.925C39.3141 181.926 39.242 181.749 39.3954 181.921C54.8383 199.537 54.6207 199.437 54.9693 199.437L227.078 172.193C227.209 172.171 227.326 172.099 227.404 171.992C227.483 171.885 227.516 171.751 227.496 171.62ZM222.571 150.288L51.6889 176.327L38.3102 164.152L209.213 138.396L222.571 150.288ZM55.1646 198.397L40.2486 181.371L37.8895 165.126C51.4359 177.453 51.2262 177.36 51.529 177.36L223.284 151.195L226.43 171.28L55.1646 198.397Z" fill="#343A3F"/>
<path d="M52.8184 136.861L57.6926 143.743C57.8668 144.002 58.1006 144.215 58.3742 144.365C58.6479 144.514 58.9535 144.596 59.2653 144.603H67.7266C68.2179 144.613 68.6865 144.812 69.034 145.159C69.3815 145.507 69.5809 145.975 69.5903 146.467C69.5903 147.084 69.8891 146.518 63.9992 154.209C63.8121 154.449 63.6879 154.732 63.6377 155.032C63.5876 155.332 63.6132 155.64 63.7122 155.928L66.2928 163.957C66.3995 164.276 66.4151 164.619 66.3379 164.947C66.2606 165.275 66.0935 165.575 65.8553 165.813C65.6171 166.051 65.3173 166.218 64.9895 166.296C64.6616 166.373 64.3187 166.357 63.9992 166.25L55.9718 163.527C55.6831 163.433 55.3759 163.409 55.0763 163.459C54.7767 163.509 54.4936 163.63 54.2509 163.813L47.3702 168.831C47.1004 169.016 46.786 169.125 46.4597 169.147C46.1333 169.17 45.807 169.104 45.5145 168.958C45.2219 168.812 44.9738 168.59 44.7959 168.315C44.618 168.041 44.5167 167.724 44.5026 167.397L44.6455 158.939C44.6202 158.341 44.363 157.777 43.9286 157.366L37.0479 152.349C36.7658 152.144 36.5467 151.864 36.4156 151.541C36.2845 151.218 36.2466 150.865 36.3063 150.522C36.366 150.178 36.5207 149.858 36.7531 149.598C36.9854 149.338 37.286 149.149 37.6206 149.051L45.6494 146.614C45.9275 146.546 46.1816 146.404 46.3839 146.201C46.5862 145.999 46.7289 145.745 46.7962 145.467L49.3768 137.439C49.943 135.459 52.4829 136.19 52.8184 136.861Z" fill="#F2F4F8"/>
<path d="M44.0048 167.398L44.1476 158.931C44.12 158.469 43.9165 158.034 43.5788 157.717L36.7558 152.75C36.3973 152.492 36.1183 152.139 35.9506 151.731C35.7829 151.322 35.7333 150.875 35.8073 150.44C35.8813 150.004 36.076 149.598 36.3693 149.268C36.6625 148.938 37.0426 148.697 37.4661 148.572L45.508 146.13C45.7022 146.087 45.8804 145.991 46.0228 145.852C46.1651 145.713 46.266 145.537 46.3141 145.344L48.9025 137.284C49.0152 136.842 49.2654 136.447 49.6168 136.157C49.9682 135.867 50.4028 135.695 50.8579 135.668C51.3024 135.613 51.7535 135.669 52.1708 135.832C52.588 135.995 52.9583 136.258 53.2485 136.6L58.1056 143.455C58.2324 143.651 58.4048 143.813 58.608 143.927C58.8112 144.041 59.0391 144.104 59.272 144.111H67.7268C68.0529 144.102 68.377 144.165 68.6768 144.293C68.9767 144.422 69.2452 144.614 69.4639 144.856C69.6826 145.098 69.8464 145.385 69.944 145.696C70.0416 146.007 70.0708 146.336 70.0295 146.66C69.9747 147.093 69.7964 147.5 69.5157 147.834L64.4044 154.518C64.2687 154.702 64.1798 154.915 64.1453 155.141C64.1108 155.366 64.1318 155.596 64.2065 155.812L66.7779 163.807C66.928 164.247 66.94 164.724 66.8124 165.172C66.6848 165.62 66.4235 166.018 66.0636 166.314C65.7583 166.586 65.3825 166.768 64.9791 166.837C64.5756 166.907 64.1608 166.862 63.7818 166.707L55.8173 164.01C55.606 163.941 55.3812 163.924 55.162 163.961C54.9428 163.998 54.7359 164.087 54.5591 164.222L47.6718 169.244C47.3267 169.485 46.9229 169.628 46.5031 169.658C46.0834 169.688 45.6633 169.604 45.2874 169.415C44.9116 169.226 44.5939 168.938 44.3681 168.583C44.1423 168.228 44.0167 167.818 44.0048 167.398ZM51.1214 136.656C50.8359 136.629 50.5505 136.708 50.3189 136.877C50.0872 137.046 49.9252 137.293 49.8632 137.573L47.2813 145.617C47.1862 145.975 46.9966 146.302 46.7321 146.563C46.4677 146.823 46.1382 147.008 45.778 147.098C36.6562 149.621 37.6667 149.433 36.9799 150.119C36.7983 150.409 36.7337 150.757 36.7991 151.092C36.8646 151.428 37.0552 151.727 37.3325 151.927L44.2315 156.957C44.5084 157.21 44.7321 157.516 44.8897 157.856C45.0472 158.196 45.1353 158.564 45.1489 158.939L45.0061 167.405C45.0219 167.64 45.0996 167.867 45.2314 168.062C45.3631 168.257 45.5442 168.414 45.7562 168.516C45.9682 168.619 46.2035 168.663 46.4382 168.645C46.673 168.627 46.8987 168.547 47.0925 168.413L53.9562 163.408C54.2584 163.183 54.6095 163.032 54.9809 162.968C55.3524 162.904 55.7337 162.929 56.0938 163.04L64.1619 165.782C64.395 165.859 64.6452 165.87 64.884 165.812C65.1228 165.755 65.3408 165.632 65.5131 165.457C65.6851 165.281 65.8044 165.061 65.8572 164.821C65.91 164.58 65.8944 164.33 65.812 164.099L63.2366 156.083C63.1048 155.708 63.0731 155.306 63.1449 154.915C63.2166 154.524 63.3892 154.159 63.6455 153.855C69.5144 146.185 69.0898 146.854 69.0898 146.469C69.0821 146.11 68.9362 145.768 68.6824 145.514C68.4287 145.26 68.0868 145.114 67.7281 145.107H59.2694C58.8741 145.102 58.486 145 58.1387 144.811C57.7914 144.622 57.4953 144.352 57.276 144.023L52.4097 137.153C52.2398 136.986 52.0376 136.856 51.8156 136.771C51.5936 136.685 51.3564 136.646 51.1187 136.656H51.1214Z" fill="#343A3F"/>
<path d="M89.8049 131.27L94.6791 138.152C94.8533 138.41 95.0871 138.623 95.3607 138.773C95.6344 138.923 95.94 139.004 96.2518 139.011H104.709C105.201 139.021 105.669 139.22 106.017 139.568C106.364 139.915 106.563 140.384 106.573 140.875C106.573 141.492 106.872 140.926 100.982 148.617C100.669 149.132 100.566 149.748 100.695 150.336L103.275 158.365C103.382 158.685 103.398 159.027 103.32 159.355C103.243 159.683 103.076 159.983 102.838 160.221C102.6 160.459 102.3 160.626 101.972 160.704C101.644 160.781 101.301 160.765 100.982 160.659L93.1024 157.786C92.8135 157.693 92.5065 157.67 92.2072 157.72C91.9078 157.77 91.6247 157.891 91.3816 158.073L84.5009 163.234C84.2311 163.419 83.9167 163.529 83.5902 163.551C83.2637 163.574 82.9372 163.509 82.6445 163.362C82.3518 163.216 82.1037 162.994 81.9258 162.719C81.748 162.444 81.647 162.127 81.6333 161.8L81.7775 153.342C81.7516 152.744 81.4946 152.18 81.0606 151.769L74.1786 146.895C73.8974 146.689 73.6792 146.409 73.5489 146.086C73.4185 145.763 73.381 145.411 73.4407 145.067C73.5005 144.724 73.655 144.405 73.8868 144.145C74.1186 143.885 74.4185 143.695 74.7526 143.597L82.7801 141.161C83.0582 141.094 83.3124 140.951 83.5147 140.749C83.7171 140.546 83.8597 140.292 83.9269 140.014L86.5074 131.985C86.6089 131.657 86.7958 131.362 87.0489 131.131C87.302 130.899 87.6123 130.739 87.9478 130.667C88.283 130.594 88.6314 130.612 88.9576 130.718C89.2837 130.824 89.5761 131.014 89.8049 131.27Z" fill="#F2F4F8"/>
<path d="M81.133 161.806L81.2758 153.339C81.2476 152.877 81.0437 152.443 80.7057 152.126L73.8866 147.301C73.6179 147.109 73.3926 146.862 73.2253 146.577C73.0579 146.292 72.9523 145.975 72.9153 145.646C72.8782 145.318 72.9105 144.985 73.0101 144.67C73.1097 144.355 73.2744 144.064 73.4934 143.816C73.7869 143.486 74.1675 143.244 74.5917 143.119L82.6323 140.679C82.8264 140.635 83.0047 140.539 83.147 140.4C83.2894 140.261 83.3903 140.085 83.4383 139.892L86.0281 131.832C86.1592 131.414 86.4007 131.038 86.7273 130.745C87.0539 130.453 87.4534 130.254 87.8838 130.169C88.3141 130.084 88.7593 130.117 89.1724 130.264C89.5855 130.412 89.9513 130.667 90.2312 131.005L95.0804 137.86C95.2077 138.055 95.3802 138.216 95.5833 138.33C95.7864 138.444 96.014 138.508 96.2469 138.515H104.706C105.142 138.504 105.572 138.62 105.944 138.848C106.316 139.075 106.615 139.406 106.804 139.799C106.993 140.193 107.064 140.632 107.009 141.065C106.954 141.498 106.776 141.906 106.495 142.24L101.377 148.924C101.156 149.317 101.086 149.777 101.179 150.219L103.75 158.213C103.888 158.627 103.906 159.071 103.802 159.494C103.699 159.917 103.478 160.302 103.164 160.605C102.851 160.908 102.458 161.116 102.032 161.205C101.605 161.294 101.162 161.26 100.754 161.108L92.9219 158.264C92.7119 158.197 92.4887 158.182 92.2715 158.22C92.0543 158.257 91.8493 158.347 91.6742 158.481L84.7935 163.642C84.4494 163.881 84.0469 164.024 83.6287 164.053C83.2104 164.083 82.7919 163.999 82.4174 163.811C82.0427 163.623 81.7256 163.338 81.4995 162.985C81.2734 162.632 81.1468 162.225 81.133 161.806ZM86.9927 132.124L84.4069 140.169C84.3131 140.528 84.124 140.855 83.8596 141.116C83.5953 141.376 83.2654 141.56 82.9049 141.649C73.7844 144.175 74.7922 143.984 74.1055 144.671C73.9243 144.961 73.8601 145.309 73.9258 145.645C73.9915 145.981 74.1822 146.279 74.4593 146.479L81.3518 151.361C81.6308 151.614 81.8566 151.92 82.0161 152.261C82.1757 152.602 82.2657 152.971 82.2811 153.347L82.1369 161.814C82.1492 161.989 82.1961 162.161 82.2749 162.318C82.3537 162.476 82.4628 162.616 82.5961 162.732C82.7293 162.847 82.884 162.935 83.0513 162.99C83.2185 163.045 83.395 163.067 83.5707 163.053C83.8053 163.035 84.0309 162.955 84.2247 162.821L91.0831 157.677C91.3845 157.451 91.7384 157.299 92.1093 157.233C92.4828 157.169 92.8642 157.194 93.2259 157.305L101.16 160.188C101.334 160.244 101.518 160.263 101.7 160.244C101.881 160.225 102.057 160.168 102.215 160.077C102.374 159.986 102.512 159.863 102.62 159.716C102.728 159.569 102.805 159.401 102.844 159.223C102.897 158.984 102.881 158.735 102.8 158.504L100.23 150.491C100.057 149.756 100.182 148.982 100.577 148.338C106.501 140.605 106.082 141.261 106.082 140.875C106.074 140.517 105.928 140.175 105.674 139.921C105.421 139.667 105.079 139.521 104.72 139.514H96.2561C95.8608 139.508 95.4728 139.407 95.1255 139.218C94.7782 139.029 94.482 138.759 94.2626 138.43L89.3518 131.494C89.1706 131.334 88.9526 131.221 88.7172 131.166C88.4819 131.111 88.2366 131.115 88.0032 131.178C87.7701 131.241 87.5559 131.36 87.3797 131.525C87.2035 131.69 87.0706 131.896 86.9927 132.124Z" fill="#343A3F"/>
<path d="M126.649 126.683L131.523 133.564C131.697 133.824 131.93 134.037 132.204 134.187C132.478 134.337 132.784 134.419 133.096 134.425H141.555C142.046 134.435 142.514 134.634 142.862 134.981C143.209 135.329 143.409 135.798 143.418 136.289C143.418 136.906 143.717 136.34 137.827 144.029C137.641 144.27 137.517 144.553 137.467 144.854C137.417 145.154 137.442 145.462 137.54 145.75L140.121 153.778C140.208 154.095 140.209 154.431 140.125 154.749C140.04 155.068 139.873 155.358 139.64 155.591C139.408 155.824 139.117 155.991 138.799 156.076C138.48 156.161 138.145 156.159 137.827 156.072L129.798 153.348C129.51 153.255 129.203 153.233 128.904 153.282C128.605 153.332 128.322 153.453 128.079 153.635L121.199 158.653C120.929 158.836 120.615 158.944 120.289 158.966C119.963 158.988 119.637 158.923 119.345 158.778C119.052 158.632 118.804 158.411 118.626 158.137C118.448 157.862 118.347 157.546 118.333 157.219L118.476 148.761C118.45 148.163 118.193 147.599 117.759 147.188L110.878 142.314C110.596 142.109 110.377 141.829 110.246 141.506C110.115 141.183 110.077 140.83 110.137 140.486C110.197 140.143 110.351 139.823 110.584 139.563C110.816 139.303 111.117 139.114 111.451 139.016L119.623 136.579C119.901 136.511 120.155 136.369 120.357 136.166C120.56 135.964 120.702 135.71 120.77 135.432L123.35 127.404C123.478 127.098 123.677 126.827 123.931 126.615C124.186 126.402 124.488 126.254 124.812 126.183C125.135 126.111 125.472 126.12 125.792 126.207C126.112 126.294 126.406 126.458 126.649 126.683Z" fill="#F2F4F8"/>
<path d="M117.831 157.219L117.975 148.752C117.948 148.29 117.744 147.855 117.405 147.539L110.583 142.714C110.226 142.456 109.948 142.102 109.781 141.694C109.614 141.286 109.564 140.839 109.637 140.404C109.711 139.969 109.904 139.563 110.196 139.232C110.488 138.901 110.866 138.658 111.288 138.531L119.476 136.091C119.669 136.046 119.847 135.949 119.988 135.811C120.13 135.672 120.231 135.497 120.279 135.304L122.874 127.249C122.988 126.874 123.2 126.536 123.488 126.27C123.776 126.004 124.129 125.82 124.512 125.737C124.957 125.608 125.427 125.601 125.875 125.716C126.322 125.832 126.731 126.065 127.058 126.392L131.932 133.273C132.059 133.468 132.232 133.63 132.435 133.744C132.638 133.858 132.866 133.921 133.1 133.928H141.558C141.994 133.917 142.423 134.032 142.795 134.259C143.167 134.487 143.464 134.817 143.653 135.21C143.841 135.602 143.913 136.041 143.859 136.473C143.805 136.905 143.628 137.312 143.349 137.646L138.237 144.33C138.101 144.514 138.012 144.727 137.978 144.953C137.943 145.178 137.964 145.408 138.038 145.624L140.611 153.619C140.729 154.03 140.733 154.466 140.623 154.88C140.512 155.294 140.291 155.67 139.983 155.968C139.675 156.265 139.292 156.473 138.875 156.57C138.458 156.666 138.022 156.647 137.615 156.515L129.649 153.818C129.438 153.748 129.213 153.73 128.994 153.767C128.775 153.804 128.568 153.894 128.392 154.03L121.505 159.052C121.16 159.293 120.757 159.437 120.338 159.468C119.918 159.499 119.498 159.417 119.122 159.229C118.746 159.042 118.427 158.756 118.2 158.402C117.973 158.048 117.846 157.639 117.832 157.219H117.831ZM123.834 127.538L121.249 135.582C121.154 135.941 120.964 136.267 120.7 136.528C120.435 136.788 120.106 136.972 119.746 137.062C110.467 139.604 111.489 139.392 110.804 140.083C110.623 140.373 110.559 140.721 110.625 141.057C110.69 141.393 110.881 141.691 111.157 141.893L118.054 146.777C118.333 147.03 118.559 147.336 118.718 147.677C118.878 148.018 118.968 148.388 118.983 148.764L118.839 157.231C118.851 157.406 118.897 157.578 118.976 157.736C119.054 157.894 119.164 158.034 119.297 158.149C119.43 158.265 119.585 158.352 119.753 158.407C119.92 158.462 120.097 158.483 120.273 158.469C120.507 158.451 120.731 158.372 120.927 158.239L127.79 153.232C128.092 153.007 128.444 152.856 128.815 152.792C129.187 152.728 129.568 152.753 129.928 152.865L137.996 155.6C138.227 155.657 138.469 155.654 138.698 155.589C138.927 155.524 139.136 155.401 139.303 155.232C139.469 155.062 139.588 154.851 139.649 154.621C139.709 154.391 139.708 154.149 139.646 153.919L137.071 145.907C136.939 145.532 136.908 145.129 136.979 144.739C137.051 144.348 137.224 143.983 137.48 143.679C143.349 136.009 142.924 136.679 142.924 136.294C142.914 135.936 142.768 135.595 142.514 135.341C142.261 135.088 141.92 134.942 141.562 134.932H133.1C132.704 134.927 132.316 134.825 131.968 134.636C131.621 134.448 131.324 134.177 131.105 133.848L126.266 127.017C125.991 126.78 125.642 126.646 125.278 126.639C124.915 126.632 124.56 126.752 124.277 126.979C124.088 127.129 123.936 127.32 123.834 127.538Z" fill="#343A3F"/>
<path d="M163.926 121.379L168.8 128.26C169.195 128.738 169.757 129.046 170.373 129.119H178.831C180.12 129.119 181.059 130.384 180.265 131.987L175.104 138.725C174.918 138.965 174.794 139.249 174.744 139.549C174.694 139.849 174.719 140.157 174.817 140.446L177.54 148.473C177.642 148.792 177.654 149.133 177.575 149.458C177.496 149.784 177.329 150.081 177.092 150.318C176.855 150.555 176.558 150.722 176.232 150.801C175.907 150.88 175.566 150.868 175.247 150.767L167.219 148.043C166.93 147.95 166.624 147.928 166.324 147.978C166.025 148.028 165.742 148.149 165.499 148.33L158.761 153.347C158.491 153.532 158.176 153.641 157.85 153.664C157.524 153.686 157.198 153.621 156.905 153.474C156.612 153.328 156.364 153.106 156.186 152.832C156.009 152.557 155.907 152.24 155.893 151.913L156.037 143.456C156.011 142.859 155.754 142.295 155.32 141.883L148.438 137.009C148.156 136.805 147.937 136.525 147.806 136.202C147.676 135.879 147.639 135.525 147.699 135.182C147.758 134.838 147.912 134.518 148.144 134.258C148.377 133.998 148.678 133.809 149.012 133.712L157.184 131.274C157.462 131.207 157.717 131.065 157.919 130.862C158.121 130.66 158.264 130.405 158.331 130.127L160.911 122.1C161.011 121.807 161.184 121.544 161.413 121.336C161.642 121.128 161.92 120.981 162.221 120.91C162.522 120.839 162.835 120.844 163.133 120.926C163.431 121.008 163.704 121.164 163.926 121.379Z" fill="#F2F4F8"/>
<path d="M155.392 151.914L155.536 143.449C155.508 142.986 155.304 142.551 154.966 142.234L148.151 137.415C147.791 137.157 147.511 136.804 147.342 136.396C147.173 135.987 147.123 135.539 147.196 135.103C147.27 134.667 147.464 134.261 147.758 133.93C148.051 133.599 148.432 133.357 148.856 133.232L157.042 130.789C157.236 130.746 157.414 130.65 157.556 130.511C157.698 130.372 157.798 130.196 157.845 130.003L160.435 121.943C160.629 121.367 161.041 120.89 161.582 120.613C162.123 120.337 162.751 120.283 163.332 120.463C163.716 120.584 164.062 120.801 164.337 121.095L169.207 127.972C169.531 128.341 169.983 128.576 170.473 128.627H178.833C179.251 128.627 179.66 128.741 180.017 128.957C180.374 129.174 180.664 129.484 180.857 129.854C181.051 130.223 181.141 130.638 181.116 131.054C181.091 131.471 180.952 131.872 180.716 132.215L175.505 139.031C175.369 139.214 175.28 139.427 175.245 139.653C175.21 139.878 175.231 140.109 175.305 140.324L178.018 148.312C178.15 148.72 178.167 149.156 178.066 149.573C177.966 149.989 177.753 150.37 177.449 150.673C177.147 150.976 176.766 151.189 176.35 151.29C175.934 151.391 175.498 151.375 175.09 151.244L167.06 148.518C166.849 148.448 166.624 148.431 166.405 148.468C166.185 148.506 165.978 148.596 165.802 148.732L159.063 153.75C158.718 153.99 158.315 154.134 157.896 154.165C157.476 154.195 157.057 154.113 156.68 153.926C156.304 153.738 155.986 153.451 155.759 153.097C155.532 152.743 155.405 152.334 155.392 151.914ZM161.395 122.234L158.814 130.277C158.719 130.636 158.53 130.963 158.265 131.224C158.001 131.484 157.671 131.669 157.311 131.758C148.033 134.301 149.054 134.09 148.37 134.779C148.183 135.068 148.116 135.417 148.182 135.755C148.248 136.092 148.442 136.391 148.724 136.588L155.616 141.47C155.895 141.722 156.121 142.028 156.28 142.37C156.44 142.711 156.529 143.08 156.544 143.457L156.401 151.923C156.417 152.158 156.494 152.385 156.626 152.58C156.757 152.776 156.939 152.933 157.151 153.035C157.363 153.137 157.598 153.182 157.833 153.164C158.068 153.145 158.294 153.065 158.488 152.931L165.204 147.928C165.507 147.701 165.858 147.549 166.23 147.485C166.603 147.42 166.985 147.444 167.346 147.556L175.414 150.293C175.647 150.364 175.894 150.369 176.129 150.31C176.365 150.25 176.579 150.126 176.75 149.953C176.92 149.779 177.039 149.563 177.095 149.326C177.15 149.089 177.14 148.842 177.064 148.611L174.347 140.607C174.214 140.231 174.182 139.827 174.253 139.435C174.325 139.043 174.498 138.676 174.755 138.371L179.873 131.687C180.425 130.442 179.704 129.627 178.837 129.627H170.374C169.986 129.589 169.61 129.473 169.267 129.286C168.924 129.101 168.622 128.849 168.379 128.544L163.505 121.662C163.339 121.528 163.143 121.436 162.935 121.392C162.726 121.348 162.51 121.354 162.304 121.41C162.098 121.466 161.908 121.569 161.75 121.713C161.592 121.856 161.47 122.034 161.395 122.234Z" fill="#343A3F"/>
<path d="M200.622 116.074L205.496 122.956C205.891 123.434 206.453 123.742 207.069 123.816H215.528C216.816 123.816 217.762 125.08 216.962 126.683L211.8 133.421C211.613 133.661 211.489 133.944 211.439 134.244C211.388 134.545 211.414 134.853 211.513 135.141L214.238 143.169C214.352 143.489 214.373 143.835 214.298 144.167C214.223 144.498 214.056 144.802 213.816 145.042C213.576 145.282 213.272 145.449 212.941 145.524C212.609 145.598 212.263 145.577 211.943 145.463L203.916 142.739C203.627 142.645 203.32 142.622 203.02 142.672C202.72 142.722 202.437 142.844 202.195 143.026L195.314 148.043C195.044 148.228 194.73 148.337 194.404 148.36C194.077 148.382 193.751 148.317 193.458 148.171C193.166 148.024 192.918 147.802 192.74 147.528C192.562 147.253 192.461 146.936 192.447 146.61L192.591 138.152C192.565 137.555 192.308 136.991 191.874 136.58L184.992 131.705C184.711 131.5 184.493 131.22 184.362 130.897C184.232 130.574 184.194 130.222 184.253 129.878C184.311 129.535 184.466 129.214 184.698 128.954C184.93 128.694 185.231 128.505 185.566 128.408L193.593 125.972C193.89 125.909 194.165 125.77 194.391 125.569C194.617 125.368 194.787 125.112 194.884 124.825L197.465 116.796C197.593 116.509 197.786 116.256 198.029 116.057C198.272 115.858 198.557 115.718 198.864 115.648C199.17 115.578 199.488 115.58 199.793 115.654C200.098 115.728 200.382 115.871 200.622 116.074Z" fill="#F2F4F8"/>
<path d="M191.948 146.61L192.093 138.143C192.064 137.681 191.86 137.247 191.522 136.93L184.707 132.11C184.347 131.853 184.067 131.5 183.898 131.091C183.729 130.683 183.678 130.234 183.752 129.798C183.825 129.362 184.02 128.955 184.313 128.624C184.607 128.293 184.988 128.052 185.412 127.927L193.453 125.487C193.664 125.445 193.862 125.352 194.028 125.214C194.193 125.077 194.322 124.9 194.402 124.7L196.992 116.64C197.836 114.66 200.482 114.814 201.055 115.812L205.904 122.669C206.229 123.038 206.681 123.272 207.17 123.324H215.53C215.947 123.324 216.357 123.438 216.714 123.654C217.07 123.871 217.361 124.181 217.554 124.551C217.748 124.92 217.838 125.335 217.813 125.751C217.788 126.168 217.649 126.569 217.412 126.913L212.201 133.728C212.065 133.911 211.975 134.124 211.94 134.35C211.906 134.575 211.928 134.806 212.003 135.021L214.715 143.009C214.859 143.418 214.885 143.859 214.789 144.281C214.694 144.704 214.48 145.091 214.174 145.397C213.868 145.704 213.481 145.917 213.059 146.013C212.637 146.109 212.196 146.084 211.787 145.94L203.757 143.217C203.546 143.146 203.321 143.129 203.101 143.166C202.882 143.203 202.675 143.293 202.499 143.429L195.612 148.45C195.354 148.629 195.063 148.754 194.755 148.818C194.448 148.882 194.131 148.883 193.823 148.822C193.515 148.761 193.223 148.638 192.964 148.461C192.704 148.284 192.483 148.056 192.314 147.792C192.088 147.438 191.961 147.03 191.948 146.61ZM199.369 116.096C199.066 116.078 198.765 116.154 198.507 116.313C198.248 116.473 198.046 116.709 197.927 116.989L195.364 124.973C195.237 125.339 195.02 125.667 194.732 125.926C194.444 126.185 194.095 126.366 193.718 126.454C184.58 128.982 185.606 128.789 184.92 129.468C184.739 129.758 184.674 130.106 184.74 130.442C184.805 130.778 184.995 131.076 185.272 131.277L192.166 136.159C192.445 136.411 192.671 136.717 192.831 137.059C192.99 137.4 193.08 137.769 193.094 138.146L192.951 146.611C192.966 146.846 193.044 147.072 193.176 147.268C193.307 147.463 193.489 147.619 193.701 147.721C193.913 147.824 194.148 147.868 194.383 147.851C194.618 147.833 194.843 147.753 195.038 147.62L201.903 142.614C202.204 142.388 202.556 142.237 202.927 142.173C203.299 142.109 203.68 142.134 204.04 142.245L212.107 144.981C212.281 145.045 212.467 145.07 212.653 145.056C212.838 145.041 213.018 144.987 213.18 144.896C213.342 144.806 213.483 144.681 213.593 144.531C213.702 144.382 213.779 144.21 213.816 144.028C213.867 143.785 213.846 143.532 213.757 143.3L211.041 135.297C210.908 134.921 210.875 134.516 210.947 134.124C211.018 133.731 211.191 133.364 211.448 133.059L216.566 126.375C217.081 125.215 216.479 124.315 215.53 124.315H207.072C206.684 124.276 206.308 124.16 205.966 123.974C205.624 123.787 205.322 123.535 205.078 123.231L200.179 116.31C199.939 116.154 199.655 116.079 199.369 116.096Z" fill="#343A3F"/>
<path d="M212.664 102.312L182.415 95.7166C182.415 95.7166 177.111 105.035 167.792 108.475C172.953 99.1569 171.95 93.423 171.95 93.423L105.718 79.0863C102.047 78.2584 98.8473 76.0215 96.8094 72.8574C94.7715 69.6933 94.0581 65.8553 94.8229 62.1702L105.718 11.7119C106.546 8.03869 108.783 4.83775 111.949 2.799C115.114 0.760247 118.954 0.0469449 122.641 0.812842L229.873 24.0368C233.544 24.8656 236.743 27.1026 238.781 30.2664C240.819 33.4302 241.533 37.2677 240.77 40.9528L229.873 91.4112C228.943 95.0844 226.64 98.2615 223.439 100.289C220.238 102.317 216.382 103.04 212.664 102.312Z" fill="white"/>
<path d="M167.354 108.232C171.669 100.442 171.597 95.1666 171.491 93.8376L105.612 79.5782C101.804 78.736 98.4825 76.4241 96.37 73.1456C94.2575 69.867 93.525 65.8869 94.3318 62.0711L105.23 11.6022C106.071 7.79347 108.382 4.47112 111.661 2.35825C114.94 0.245387 118.921 -0.486985 122.737 0.320526L229.98 23.5471C233.786 24.392 237.105 26.7048 239.215 29.983C241.326 33.2611 242.057 37.2397 241.251 41.0542L230.358 91.5218C229.39 95.3175 227.008 98.5997 223.7 100.697C220.391 102.794 216.406 103.547 212.56 102.802L182.667 96.2845C181.626 97.9883 176.489 105.802 167.972 108.946C167.876 108.982 167.771 108.987 167.672 108.962C167.572 108.936 167.483 108.881 167.415 108.804C167.348 108.726 167.306 108.63 167.295 108.527C167.284 108.425 167.305 108.322 167.354 108.232ZM119.678 1.01384C116.537 1.00858 113.489 2.07718 111.038 4.0424C108.588 6.00761 106.884 8.75134 106.207 11.8185L95.3135 62.2769C94.5615 65.8342 95.2443 69.5445 97.2134 72.601C99.1824 75.6576 102.279 77.8132 105.828 78.5992L172.051 92.9333C172.149 92.9535 172.239 93.0028 172.309 93.0748C172.38 93.1467 172.426 93.2381 172.444 93.337C172.485 93.5663 173.338 98.8494 168.89 107.492C177.147 103.822 181.93 95.5584 181.98 95.4719C182.033 95.3789 182.114 95.3051 182.211 95.2615C182.309 95.2179 182.418 95.2066 182.523 95.2295L212.768 101.823C216.358 102.517 220.077 101.813 223.166 99.8557C226.254 97.898 228.478 94.8342 229.382 91.2911L240.272 40.8511C241.031 37.2932 240.351 33.5794 238.381 30.5211C236.411 27.4628 233.31 25.3085 229.757 24.5288C119.859 0.184222 122.034 1.01384 119.678 1.01384Z" fill="#343A3F"/>
<path d="M211.804 45.4673L129.553 27.6811C129.428 27.6484 129.32 27.5686 129.252 27.4583C129.184 27.348 129.162 27.2157 129.189 27.0891C129.217 26.9625 129.292 26.8514 129.399 26.779C129.507 26.7067 129.638 26.6786 129.766 26.7008L211.91 44.4778C212.027 44.5085 212.129 44.5798 212.197 44.679C212.265 44.7781 212.296 44.8985 212.283 45.0182C212.27 45.138 212.215 45.2491 212.127 45.3315C212.039 45.4139 211.925 45.4621 211.804 45.4673Z" fill="#343A3F"/>
<path d="M188.293 54.641L143.46 45.0251C143.33 44.9971 143.216 44.9186 143.144 44.8067C143.072 44.6949 143.047 44.5589 143.075 44.4288C143.103 44.2986 143.181 44.1849 143.293 44.1126C143.405 44.0403 143.541 44.0155 143.671 44.0434L188.398 53.6489C188.519 53.6753 188.625 53.7453 188.697 53.8454C188.769 53.9456 188.802 54.0688 188.789 54.1915C188.775 54.314 188.717 54.4273 188.626 54.5101C188.535 54.593 188.417 54.6395 188.293 54.641Z" fill="#343A3F"/>
<path d="M205.496 73.7123L124.823 56.3533C124.699 56.3202 124.591 56.2404 124.524 56.1304C124.457 56.0204 124.434 55.8887 124.461 55.7626C124.489 55.6365 124.563 55.5256 124.67 55.4531C124.777 55.3806 124.907 55.3519 125.034 55.373L205.603 72.7202C205.723 72.7466 205.83 72.8168 205.902 72.9172C205.974 73.0177 206.007 73.1412 205.993 73.2641C205.98 73.3868 205.922 73.5003 205.83 73.583C205.739 73.6657 205.62 73.7117 205.496 73.7123Z" fill="#343A3F"/>
<path d="M127.939 94.1397C127.555 93.0525 126.997 92.0346 126.289 91.1253C127.181 89.0275 127.406 86.7055 126.932 84.4755C126.458 82.2455 125.308 80.2158 123.638 78.6628C118.379 73.9773 110.066 76.191 105.114 77.2421C106.02 72.2305 105.329 67.0611 103.138 62.4636C98.5587 53.3051 89.1027 54.2632 87.9415 60.4558C87.5168 63.0285 89.0896 65.1805 89.6623 67.6156C90.0171 69.3624 89.9554 71.1681 89.4822 72.8866C89.0091 74.605 88.1377 76.1879 86.9388 77.5068C83.689 81.087 79.5257 83.7149 74.8957 85.1083C74.8275 87.1018 68.6886 101.965 79.914 116.935C83.7842 121.522 91.0961 121.092 96.543 120.518C101.625 119.873 106.62 118.666 111.435 116.919C117.025 121.222 127.214 113.673 124.248 106.49C126.17 105.153 127.582 103.203 128.253 100.96C128.923 98.7166 128.812 96.312 127.939 94.1397Z" fill="white"/>
<path d="M126.856 91.039C127.71 88.8672 127.891 86.4886 127.375 84.2124C126.86 81.9363 125.671 79.868 123.965 78.2763C121.271 75.8766 117.068 74.9198 112.259 75.4336C110.068 75.7088 107.893 76.0954 105.741 76.5895C106.437 71.6959 105.689 66.7053 103.586 62.2318C98.7878 52.6277 88.6961 53.6854 87.4458 60.3668C86.9883 63.1191 88.6135 65.3472 89.1692 67.7167C89.506 69.3878 89.4455 71.1147 88.9925 72.7581C88.5394 74.4015 87.7066 75.9155 86.5611 77.178C83.3668 80.6818 79.2843 83.2563 74.746 84.6288C74.6189 84.6686 74.5129 84.7572 74.4512 84.8752C74.3895 84.9932 74.3772 85.1309 74.417 85.2579C74.4568 85.385 74.5454 85.491 74.6634 85.5527C74.7814 85.6144 74.919 85.6267 75.0461 85.5869C79.7666 84.1748 84.0092 81.4948 87.3121 77.8386C88.563 76.4583 89.4716 74.8031 89.9645 73.0067C90.4575 71.2104 90.5208 69.3233 90.1495 67.4979C89.5729 65.0405 88.0342 62.9396 88.4353 60.5372C89.4955 54.878 98.3172 53.9344 102.687 62.6709C105.177 67.9002 105.688 73.853 104.128 79.4309C103.901 80.2922 103.887 81.1961 104.088 82.064C105.181 86.7448 104.885 91.6426 103.238 96.1582C101.591 100.674 98.6637 104.612 94.814 107.49C94.7185 107.573 94.658 107.69 94.6447 107.816C94.6315 107.942 94.6663 108.069 94.7424 108.17C94.8184 108.272 94.9301 108.341 95.0549 108.364C95.1797 108.387 95.3085 108.361 95.4156 108.293C99.4095 105.315 102.45 101.239 104.166 96.5612C105.882 91.884 106.199 86.8083 105.079 81.9539C104.921 81.2432 104.915 80.5072 105.06 79.794C105.257 79.0836 105.421 78.3707 105.554 77.6564C107.803 77.1298 110.078 76.7212 112.37 76.4323C116.9 75.9487 120.83 76.8255 123.299 79.0247C129.328 84.3981 127.362 95.1176 117.502 97.8096C112.886 98.9236 107.921 98.3994 107.803 93.7087C107.798 92.5724 108.076 91.4526 108.611 90.4503C109.147 89.448 109.923 88.5946 110.87 87.9669C112.84 86.6663 115.021 85.7182 117.316 85.1649C117.443 85.1311 117.552 85.0484 117.62 84.9348C117.687 84.8212 117.706 84.6857 117.674 84.5577C117.642 84.4298 117.561 84.3195 117.448 84.2509C117.336 84.1823 117.2 84.1608 117.072 84.1911C114.66 84.7743 112.369 85.7735 110.3 87.1439C106.474 89.7389 105.389 95.516 108.95 98.0704C105.813 100.903 106.218 105.68 110.03 108.293C109.026 109.702 108.542 111.416 108.661 113.142C108.857 114.486 109.477 115.731 110.43 116.698C102.405 119.538 93.3186 121.376 84.1653 119.608C84.0358 119.585 83.9027 119.615 83.7946 119.689C83.6865 119.764 83.612 119.878 83.5871 120.007C83.5622 120.136 83.5889 120.27 83.6615 120.379C83.7341 120.489 83.8467 120.566 83.9753 120.593C93.1495 122.366 102.438 120.657 111.303 117.448C117.127 121.659 127.554 114.302 124.849 106.671C126.014 105.781 126.991 104.669 127.723 103.399C128.457 102.13 128.931 100.728 129.118 99.274C129.304 97.8201 129.2 96.3435 128.811 94.9302C128.423 93.5165 127.759 92.1939 126.856 91.039ZM113.204 117.322C112.286 116.987 111.473 116.412 110.851 115.657C110.229 114.903 109.82 113.996 109.666 113.03C109.565 111.518 110.002 110.019 110.899 108.798C112.027 109.383 113.279 109.689 114.55 109.692C117.887 110.035 121.237 109.18 124.001 107.279C125.746 113.015 118.818 119.14 113.204 117.322ZM125.172 105.093C123.771 106.412 122.104 107.415 120.282 108.036C118.461 108.656 116.528 108.88 114.613 108.69C108.902 108.69 105.425 102.216 109.886 98.5986C112.427 99.4749 115.177 99.539 117.756 98.7821C119.583 98.3388 121.296 97.5166 122.785 96.3687C124.273 95.2208 125.504 93.773 126.397 92.1189C127.752 94.0815 128.372 96.4592 128.146 98.8335C127.921 101.208 126.865 103.427 125.165 105.099L125.172 105.093Z" fill="#343A3F"/>
<path d="M84.9976 121.736C84.9793 121.605 84.8299 121.772 79.3869 97.8826C77.8758 91.2548 76.5717 85.5301 76.2415 84.2654C76.2095 84.1401 76.1301 84.0321 76.0201 83.9642C75.9101 83.8962 75.778 83.8736 75.6517 83.901C72.9165 84.4764 70.1406 85.2116 67.4853 85.9063C67.3438 85.9351 53.1761 88.8394 53.1787 90.4593C54.3293 102.65 56.9328 114.659 60.9336 126.231C61.0058 126.567 61.1512 126.882 61.3594 127.155C61.5676 127.428 61.8335 127.651 62.1381 127.81C62.4427 127.968 62.7785 128.057 63.1215 128.07C63.4645 128.084 63.8062 128.021 64.1223 127.888C71.2782 126.097 78.1851 124.218 84.6438 122.29C84.7593 122.255 84.8585 122.18 84.9234 122.078C84.9884 121.977 85.0147 121.855 84.9976 121.736Z" fill="#343A3F"/>
<path d="M226.71 110.935C230.765 108.052 235.024 104.826 239.732 101.059C239.783 101.016 239.843 100.984 239.907 100.964C239.971 100.944 240.039 100.937 240.106 100.944C240.172 100.951 240.237 100.97 240.296 101.003C240.355 101.035 240.407 101.078 240.449 101.131C240.491 101.183 240.522 101.244 240.54 101.308C240.559 101.373 240.564 101.44 240.555 101.507C240.547 101.574 240.525 101.638 240.492 101.696C240.458 101.754 240.413 101.805 240.36 101.846C235.642 105.624 231.361 108.865 227.29 111.755C227.237 111.793 227.176 111.821 227.111 111.835C227.047 111.85 226.98 111.852 226.915 111.84C226.85 111.829 226.788 111.806 226.732 111.77C226.676 111.735 226.628 111.689 226.59 111.635C226.552 111.582 226.525 111.521 226.51 111.456C226.495 111.392 226.494 111.325 226.505 111.26C226.516 111.195 226.54 111.133 226.575 111.077C226.61 111.021 226.656 110.973 226.71 110.935Z" fill="#343A3F"/>
<path d="M229.724 124.748C229.592 124.751 229.463 124.701 229.367 124.609C229.271 124.517 229.215 124.391 229.212 124.258C229.209 124.125 229.259 123.996 229.351 123.9C229.443 123.804 229.569 123.748 229.702 123.745C236.31 123.435 242.896 122.766 249.432 121.742C249.562 121.726 249.694 121.76 249.799 121.839C249.904 121.918 249.974 122.035 249.994 122.165C250.014 122.294 249.982 122.427 249.905 122.533C249.868 122.586 249.82 122.631 249.765 122.666C249.71 122.7 249.648 122.724 249.584 122.735C243.01 123.798 236.378 124.47 229.724 124.748Z" fill="#343A3F"/>
<path d="M241.051 142.668C236.967 141.969 232.843 141.538 228.703 141.377C228.606 141.37 228.514 141.336 228.436 141.277C228.358 141.219 228.299 141.139 228.266 141.048C228.233 140.957 228.227 140.858 228.249 140.763C228.271 140.669 228.32 140.583 228.39 140.516C228.483 140.425 228.608 140.374 228.737 140.374C232.895 140.521 237.036 140.955 241.134 141.672C241.258 141.693 241.368 141.76 241.444 141.86C241.52 141.959 241.557 142.083 241.546 142.208C241.535 142.332 241.479 142.448 241.387 142.533C241.295 142.618 241.176 142.666 241.051 142.668Z" fill="#343A3F"/>
<path d="M22.5659 140.998C18.1308 137.853 13.7849 134.516 9.63417 131.083C9.53218 130.998 9.46804 130.876 9.45577 130.744C9.44349 130.611 9.48407 130.479 9.56864 130.377C9.61049 130.326 9.6619 130.285 9.71993 130.254C9.77796 130.224 9.84146 130.205 9.90678 130.199C9.97237 130.192 10.0386 130.199 10.1016 130.218C10.1646 130.238 10.2231 130.269 10.2737 130.311C22.2396 140.216 23.9041 139.98 23.2658 140.88C23.188 140.988 23.071 141.06 22.94 141.082C22.8091 141.105 22.6747 141.074 22.5659 140.998Z" fill="#343A3F"/>
<path d="M20.2827 153.993C13.6266 153.716 6.99291 153.044 0.416496 151.981C0.286665 151.959 0.170641 151.887 0.0937755 151.78C0.0169097 151.674 -0.0145479 151.541 0.00627611 151.411C0.0263817 151.281 0.0966337 151.164 0.201977 151.085C0.307321 151.006 0.439374 150.971 0.569837 150.989C18.6248 153.741 20.8318 152.28 20.7768 153.513C20.7714 153.641 20.7172 153.762 20.6253 153.851C20.5334 153.94 20.4108 153.991 20.2827 153.993Z" fill="#343A3F"/>
<path d="M9.66668 174.207C9.58573 174.206 9.5063 174.185 9.43506 174.147C9.36382 174.108 9.30284 174.053 9.25726 173.986C9.21167 173.919 9.18281 173.843 9.17309 173.762C9.16337 173.682 9.17309 173.6 9.20141 173.524C9.24057 173.423 9.31192 173.337 9.40455 173.279C12.9066 171.119 16.5732 169.237 20.3704 167.652C20.4618 167.612 20.563 167.601 20.6609 167.619C20.7588 167.637 20.8491 167.684 20.9201 167.754C20.9912 167.824 21.0398 167.913 21.0598 168.011C21.0798 168.108 21.0702 168.21 21.0323 168.302C20.9824 168.425 20.8858 168.523 20.7636 168.576C16.9562 170.231 13.2507 172.112 9.66668 174.207Z" fill="#343A3F"/>
</svg>
