<svg width="300" height="193" viewBox="0 0 300 193" fill="none" xmlns="http://www.w3.org/2000/svg">
<path d="M82.8454 58.8616L0.84729 86.834L35.5723 188.932L117.611 160.961L82.8454 58.8616Z" fill="white"/>
<path d="M118.33 161.599C118.372 161.584 118.411 161.56 118.444 161.53C118.509 161.467 118.547 161.382 118.551 161.291C118.553 161.247 118.546 161.202 118.531 161.16L83.4851 58.3419C83.4502 58.248 83.3841 58.1689 83.2978 58.1179C83.2115 58.067 83.1103 58.0474 83.0112 58.0623L0.288105 86.2354C0.190929 86.2654 0.108449 86.3307 0.0567565 86.4183C0.00506403 86.5059 -0.0121321 86.6096 0.00852277 86.7092L34.9736 189.527C35.0046 189.624 35.07 189.706 35.1574 189.757C35.2447 189.809 35.348 189.827 35.4475 189.807L118.33 161.599ZM35.6134 188.926C35.6134 188.926 1.00522 87.2731 0.847268 86.8735C0.847268 86.8735 82.5263 59.0227 82.8453 58.9027C82.8453 58.9027 117.169 159.721 117.651 160.961L35.6134 188.926Z" fill="#2F473F"/>
<path d="M26.3414 115.525C26.493 115.8 26.5988 116.097 26.6573 116.405L28.5749 122.039C30.1473 121.369 31.4072 120.127 32.1008 118.564C32.7944 117.002 32.8701 115.235 32.3128 113.619C31.7555 112.003 30.6065 110.658 29.0972 109.855C27.5879 109.052 25.8305 108.851 24.179 109.292L26.3414 115.525Z" fill="#B1E400"/>
<path d="M23.465 109.498C22.0849 110.069 20.9326 111.081 20.1874 112.375L25.3431 114.972C25.3431 114.808 25.411 115.121 23.465 109.498Z" fill="#B1E400"/>
<path d="M19.7894 113.088C19.2824 114.257 19.1165 115.545 19.3108 116.804C19.5052 118.063 20.0519 119.241 20.8877 120.202C21.7235 121.164 22.8143 121.869 24.034 122.237C25.2537 122.604 26.5526 122.619 27.7804 122.279L25.6622 116.045L19.7894 113.088Z" fill="white"/>
<path d="M33.056 113.328C31.3343 108.444 25.5721 107.799 23.2786 108.7C21.9179 109.235 20.7409 110.152 19.8894 111.34C19.0379 112.529 18.5482 113.938 18.4793 115.398C18.4103 116.859 18.7651 118.308 19.5009 119.572C20.2366 120.835 21.322 121.859 22.6262 122.519C23.6243 123.025 24.723 123.3 25.8416 123.325C26.9601 123.35 28.07 123.123 29.0894 122.662C30.1088 122.201 31.0118 121.517 31.7319 120.661C32.452 119.805 32.9709 118.798 33.2503 117.714C33.6256 116.266 33.5579 114.738 33.056 113.328ZM23.4649 109.498C25.3699 115.132 25.3035 114.814 25.3035 114.972L20.1479 112.375C20.9205 111.089 22.0821 110.081 23.4649 109.498ZM19.832 113.094L25.7063 116.051L27.8229 122.286C26.5943 122.626 25.2943 122.612 24.0735 122.244C22.8526 121.877 21.7608 121.171 20.9245 120.208C20.0881 119.246 19.5413 118.067 19.3474 116.807C19.1535 115.546 19.3204 114.257 19.8288 113.088L19.832 113.094ZM28.6222 122.046C24.5154 109.899 28.3963 121.382 24.2279 109.259C25.8906 108.813 27.6612 109.019 29.1766 109.836C30.6921 110.653 31.8376 112.019 32.3784 113.653C32.9088 115.268 32.8174 117.023 32.1221 118.574C31.4267 120.125 30.1776 121.361 28.619 122.039L28.6222 122.046Z" fill="#2F473F"/>
<path d="M52.7152 101.819C51.1993 101.179 49.5018 101.115 47.9419 101.639C46.382 102.162 45.067 103.238 44.244 104.662L49.9178 107.506C50.8371 105.615 51.7564 103.697 52.7152 101.819Z" fill="#B1E400"/>
<path d="M56.1524 111.011C56.914 109.47 57.0569 107.697 56.5516 106.054C56.0464 104.412 54.9313 103.025 53.4355 102.179C47.4601 114.231 47.509 114.089 47.4332 114.247C49.0248 114.925 50.8155 114.967 52.4372 114.365C54.0588 113.763 55.3883 112.563 56.1524 111.011Z" fill="#B1E400"/>
<path d="M46.7225 113.887L49.5657 108.253L43.8903 105.41C43.2523 106.926 43.1879 108.622 43.709 110.182C44.2302 111.742 45.3014 113.059 46.7225 113.887Z" fill="white"/>
<path d="M46.6813 114.767C48.0167 115.427 49.5174 115.678 50.9948 115.488C52.4722 115.298 53.8606 114.675 54.9856 113.699C56.1106 112.722 56.922 111.436 57.3181 110C57.7142 108.564 57.6772 107.043 57.2117 105.628C56.7463 104.212 55.8732 102.966 54.7021 102.046C53.5309 101.125 52.1139 100.571 50.629 100.454C49.1441 100.336 47.6574 100.659 46.3556 101.383C45.0539 102.107 43.995 103.2 43.3121 104.523C42.4034 106.329 42.2478 108.421 42.8794 110.342C43.5109 112.262 44.8782 113.853 46.6813 114.767ZM53.4355 102.138C54.9389 102.989 56.0588 104.384 56.5645 106.036C57.0703 107.688 56.9234 109.471 56.1542 111.018C55.3849 112.564 54.0519 113.757 52.4295 114.351C50.8071 114.944 49.0189 114.893 47.4331 114.208C47.52 114.021 53.3517 102.304 53.4355 102.138ZM52.7152 101.822C51.7959 103.701 50.8355 105.613 49.9178 107.496L44.244 104.653C45.064 103.225 46.3795 102.148 47.9409 101.626C49.5023 101.103 51.2011 101.172 52.7152 101.819V101.822ZM43.8444 105.38L49.5181 108.223L46.6749 113.857C45.2626 113.02 44.1991 111.702 43.6792 110.144C43.1594 108.587 43.218 106.894 43.8444 105.376V105.38Z" fill="#2F473F"/>
<path d="M73.6555 100.142C73.5813 99.9207 73.5876 100.098 76.6567 93.8236C75.6672 93.4079 74.5927 93.2347 73.5227 93.3183C72.4527 93.4019 71.4182 93.74 70.5053 94.3043C69.5924 94.8686 68.8275 95.6429 68.2744 96.5626C67.7213 97.4824 67.3959 98.521 67.3254 99.5919C67.2548 100.663 67.4412 101.735 67.8689 102.719C68.2966 103.704 68.9533 104.572 69.7843 105.251C70.6153 105.93 71.5966 106.401 72.6463 106.624C73.6961 106.847 74.784 106.817 75.8195 106.534C74.5243 102.75 73.6555 100.254 73.6555 100.142Z" fill="#B1E400"/>
<path d="M77.3705 94.1869L74.8116 99.3425L80.288 97.5039C79.7043 96.109 78.6795 94.9438 77.3705 94.1869Z" fill="#B1E400"/>
<path d="M74.4436 100.243L76.6076 106.375C78.1314 105.708 79.3669 104.519 80.0911 103.022C80.8152 101.525 80.9803 99.8182 80.5565 98.21C79.9942 98.3506 75.6883 99.8196 74.4436 100.243Z" fill="white"/>
<path d="M72.0285 92.7779C70.5705 93.1789 69.2659 94.0074 68.2829 95.1565C67.3 96.3057 66.6837 97.7229 66.5134 99.2255C66.3432 100.728 66.6269 102.247 67.3279 103.587C68.0289 104.927 69.1151 106.026 70.4466 106.743C71.778 107.46 73.2936 107.762 74.7982 107.61C76.3027 107.458 77.7272 106.859 78.8881 105.889C80.0489 104.92 80.8929 103.626 81.3114 102.173C81.7298 100.719 81.7035 99.1742 81.2358 97.7361C80.6206 95.8926 79.3253 94.3531 77.6141 93.4318C75.9029 92.5104 73.9047 92.2765 72.027 92.7779H72.0285ZM77.3769 94.1869C78.6946 94.9332 79.7223 96.1018 80.2944 97.5039L74.8196 99.3425L77.3769 94.1869ZM75.8195 106.575C74.7817 106.863 73.6902 106.898 72.6362 106.677C71.5823 106.456 70.5965 105.986 69.7613 105.306C68.9262 104.627 68.2659 103.757 67.8358 102.77C67.4056 101.782 67.2181 100.707 67.2889 99.632C67.3597 98.5575 67.6867 97.5155 68.2427 96.5933C68.7986 95.6711 69.5673 94.8954 70.4844 94.331C71.4015 93.7667 72.4404 93.4302 73.5142 93.3496C74.5881 93.269 75.6656 93.4467 76.6566 93.8678C74.7422 97.7867 74.0093 99.1909 73.7661 99.769C73.526 100.347 73.8213 100.462 73.8213 100.62L75.8195 106.575ZM76.5777 106.335L74.54 100.301L80.5424 98.2621C80.9769 99.861 80.8132 101.563 80.0822 103.05C79.3511 104.537 78.1028 105.706 76.5714 106.338L76.5777 106.335Z" fill="#2F473F"/>
<path d="M37.9307 134.507L33.4953 130.67L32.3738 136.424L37.9307 134.507Z" fill="#B1E400"/>
<path d="M32.1762 137.344L30.8573 144.136L43.8444 139.7L38.6098 135.145C33.2867 136.92 34.6925 136.438 32.1762 137.344Z" fill="#B1E400"/>
<path d="M48.7995 144.057L44.5631 140.342L30.6582 145.096L29.5383 150.61L48.7995 144.057Z" fill="white"/>
<path d="M49.7188 144.576C50.0031 144.519 50.1168 144.057 49.8767 143.937L33.6073 129.672C33.2566 129.496 32.9865 129.541 32.9044 129.943L28.6522 151.13C28.6111 151.41 28.8512 151.73 29.126 151.604L49.7188 144.576ZM32.3815 136.424L33.5014 130.67L37.9368 134.507L32.3815 136.424ZM32.1825 137.344L38.616 135.146L43.8507 139.741L30.8241 144.218L32.1825 137.344ZM29.5446 150.612L30.6235 145.098L44.5236 140.343L48.76 144.058L29.5446 150.612Z" fill="#2F473F"/>
<path d="M46.8818 160.201L43.6848 161.28L47.5216 172.549L50.717 171.47C50.1405 169.852 50.6902 171.451 46.8818 160.201Z" fill="#B1E400"/>
<path d="M51.837 153.008L48.64 154.087L54.1937 170.271L57.3513 169.192L51.837 153.008Z" fill="#B1E400"/>
<path d="M42.0469 167.714L38.8499 168.793L40.8875 174.827C41.9745 174.534 43.0423 174.173 44.0845 173.748C44.0845 173.588 44.1509 173.902 42.0469 167.714Z" fill="white"/>
<path d="M59.2688 168.552L58.111 168.952L52.4767 152.409C52.4466 152.312 52.3814 152.23 52.2938 152.178C52.2062 152.126 52.1024 152.109 52.0028 152.13L48.0871 153.447C47.9901 153.478 47.9079 153.543 47.8562 153.63C47.8046 153.718 47.7872 153.821 47.8075 153.921L53.4813 170.506L51.5226 171.186L47.5737 159.596C47.5429 159.5 47.4777 159.418 47.3905 159.366C47.3032 159.314 47.1995 159.296 47.0999 159.317L43.1841 160.675C43.088 160.707 43.0066 160.772 42.9551 160.86C42.9037 160.947 42.8857 161.05 42.9046 161.149L46.9008 172.778L44.9422 173.457L42.7845 167.102C42.7537 167.006 42.6885 166.924 42.6013 166.872C42.514 166.82 42.4102 166.802 42.3106 166.823L38.3949 168.183C38.2979 168.213 38.2157 168.279 38.164 168.366C38.1124 168.454 38.0951 168.557 38.1153 168.657L40.273 175.051L38.0364 175.811L32.361 159.225C32.203 158.751 31.4417 158.946 31.6028 159.424L37.3966 176.408C37.4264 176.505 37.4916 176.588 37.5793 176.639C37.667 176.691 37.7709 176.708 37.8705 176.687C59.3888 169.355 54.1731 171.187 59.5294 169.295C59.9496 169.156 59.749 168.393 59.2688 168.552ZM40.927 174.827L38.8893 168.832L42.0863 167.753L44.124 173.748L40.927 174.827ZM47.5611 172.549L43.6849 161.32L46.8819 160.241L50.7581 171.47L47.5611 172.549ZM54.1953 170.271L48.6399 154.041L51.7991 152.962L57.3544 169.146L54.1953 170.271Z" fill="#2F473F"/>
<path d="M78.331 79.5617L76.0532 72.8518C76.0002 72.7017 75.8925 72.5772 75.7517 72.5031C75.6108 72.429 75.4472 72.4108 75.2935 72.4521L15.0728 92.9864C14.9227 93.0394 14.7982 93.1471 14.7241 93.288C14.65 93.4288 14.6318 93.5925 14.6732 93.7462L16.9509 100.459C17.0039 100.609 17.1114 100.733 17.2519 100.807C17.3924 100.881 17.5556 100.9 17.7091 100.859L77.9313 80.3247C78.0096 80.3038 78.0827 80.267 78.1459 80.2164C78.2092 80.1659 78.2613 80.1028 78.2989 80.031C78.3364 79.9593 78.3587 79.8805 78.3642 79.7997C78.3697 79.719 78.3584 79.6379 78.331 79.5617Z" fill="#B1E400"/>
<path d="M90.7984 116.165L90.0781 114.047C90.0251 113.897 89.9176 113.773 89.7771 113.699C89.6366 113.625 89.4734 113.606 89.3199 113.647L50.4375 126.915C50.2879 126.969 50.1638 127.077 50.0898 127.217C50.0159 127.358 49.9973 127.521 50.0379 127.675L50.7581 129.793C50.8109 129.943 50.9183 130.068 51.0589 130.142C51.1995 130.216 51.3629 130.234 51.5163 130.193L90.3988 116.921C90.4773 116.902 90.5509 116.867 90.6147 116.817C90.6785 116.767 90.731 116.705 90.7687 116.633C90.8065 116.562 90.8287 116.483 90.8338 116.402C90.8389 116.321 90.8268 116.241 90.7984 116.165Z" fill="#B1E400"/>
<path d="M101.067 147.693L100.348 145.576C100.295 145.426 100.187 145.302 100.047 145.228C99.9059 145.154 99.7424 145.136 99.5887 145.177L60.5483 158.323C60.3987 158.377 60.2747 158.485 60.2007 158.625C60.1267 158.766 60.1081 158.929 60.1487 159.083L60.8674 161.2C60.9207 161.349 61.0282 161.473 61.1687 161.547C61.3091 161.621 61.4721 161.64 61.6256 161.599L100.668 148.453C100.748 148.435 100.823 148.4 100.888 148.351C100.954 148.302 101.008 148.239 101.047 148.167C101.085 148.094 101.106 148.014 101.11 147.932C101.113 147.85 101.099 147.769 101.067 147.693Z" fill="#B1E400"/>
<path d="M74.4942 160.241C74.4408 160.091 74.3331 159.967 74.1923 159.893C74.0516 159.819 73.8881 159.8 73.7344 159.841L62.946 163.518C62.7968 163.572 62.673 163.68 62.599 163.82C62.5251 163.96 62.5063 164.123 62.5464 164.277L63.2651 166.395C63.3181 166.545 63.4258 166.669 63.5667 166.743C63.7076 166.818 63.8712 166.836 64.0249 166.794L74.8133 163.119C74.9629 163.065 75.0869 162.957 75.1609 162.817C75.2349 162.676 75.2535 162.513 75.2129 162.359L74.4942 160.241Z" fill="#B1E400"/>
<path d="M89.0387 155.286C88.986 155.136 88.8786 155.011 88.738 154.937C88.5974 154.863 88.434 154.845 88.2806 154.886L77.4906 158.563C77.3413 158.617 77.2175 158.725 77.1436 158.865C77.0696 159.005 77.0508 159.168 77.091 159.322L77.8112 161.44C77.8639 161.59 77.9714 161.714 78.1119 161.788C78.2525 161.862 78.4159 161.881 78.5694 161.839L89.3594 158.164C89.509 158.11 89.6331 158.002 89.707 157.862C89.781 157.721 89.7996 157.558 89.759 157.404L89.0387 155.286Z" fill="#B1E400"/>
<path d="M80.0085 126.634L79.2898 124.516C79.2367 124.366 79.129 124.241 78.9882 124.167C78.8473 124.093 78.6837 124.075 78.53 124.116L52.5147 133.033C52.3653 133.087 52.2417 133.195 52.168 133.335C52.0943 133.476 52.076 133.639 52.1166 133.793L52.8353 135.909C52.8887 136.059 52.9962 136.183 53.1366 136.257C53.277 136.331 53.44 136.349 53.5935 136.309L79.6088 127.433C79.6893 127.41 79.7641 127.37 79.8285 127.316C79.8928 127.262 79.9454 127.196 79.9829 127.121C80.0204 127.046 80.0421 126.964 80.0465 126.88C80.0509 126.796 80.0379 126.713 80.0085 126.634Z" fill="#B1E400"/>
<path d="M86.2825 144.976L85.5638 142.858C85.5105 142.708 85.4027 142.584 85.262 142.51C85.1212 142.436 84.9577 142.417 84.804 142.458L58.7887 151.331C58.6397 151.384 58.5163 151.492 58.4426 151.632C58.369 151.773 58.3505 151.935 58.3907 152.089L59.1094 154.207C59.1624 154.357 59.2698 154.481 59.4103 154.555C59.5508 154.629 59.7141 154.647 59.8675 154.607L85.8829 145.736C86.0352 145.686 86.1622 145.579 86.2368 145.437C86.3114 145.295 86.3278 145.13 86.2825 144.976Z" fill="#B1E400"/>
<path d="M88.2805 141.94L88.9992 144.057C89.0526 144.206 89.1601 144.33 89.3005 144.404C89.4409 144.478 89.604 144.497 89.7574 144.456L98.7499 141.379C98.8991 141.326 99.0229 141.218 99.0969 141.078C99.1708 140.938 99.1896 140.775 99.1495 140.621L98.4308 138.503C98.3775 138.353 98.2697 138.229 98.1289 138.155C97.9882 138.081 97.8247 138.062 97.671 138.103L88.6802 141.18C88.5996 141.197 88.5238 141.231 88.4582 141.28C88.3926 141.33 88.3389 141.393 88.3011 141.466C88.2631 141.539 88.2416 141.619 88.2381 141.701C88.2345 141.783 88.249 141.864 88.2805 141.94Z" fill="#B1E400"/>
<path d="M82.0872 132.749L81.3669 130.63C81.3142 130.48 81.2068 130.356 81.0662 130.282C80.9256 130.208 80.7622 130.19 80.6087 130.231L54.5934 139.102C54.4438 139.155 54.3197 139.263 54.2457 139.404C54.1717 139.544 54.1532 139.708 54.1938 139.861L54.914 141.98C54.9671 142.129 55.0745 142.254 55.215 142.328C55.3555 142.402 55.5188 142.42 55.6722 142.379L81.6876 133.507C81.7672 133.489 81.842 133.454 81.9069 133.405C81.9718 133.356 82.0252 133.293 82.0635 133.221C82.1015 133.149 82.1233 133.069 82.1274 132.987C82.1315 132.906 82.1178 132.824 82.0872 132.749Z" fill="#B1E400"/>
<path d="M83.1249 130.032L83.8452 132.148C83.8982 132.298 84.0057 132.422 84.1462 132.496C84.2867 132.57 84.4499 132.589 84.6034 132.548L94.5546 129.152C94.7042 129.098 94.8283 128.991 94.9022 128.85C94.9762 128.709 94.9948 128.546 94.9542 128.392L94.2339 126.276C94.1809 126.126 94.0735 126.002 93.933 125.928C93.7925 125.854 93.6292 125.835 93.4758 125.876L83.5245 129.272C83.3749 129.326 83.2509 129.433 83.1769 129.574C83.1029 129.715 83.0843 129.878 83.1249 130.032Z" fill="#B1E400"/>
<path d="M141.068 86.278V68.1731H98.7499V86.278H141.066H141.068Z" fill="#D8F378"/>
<path d="M193.416 108.613V0.800174H106.822V67.3739H141.507C141.56 67.3709 141.614 67.3792 141.663 67.3982C141.713 67.4172 141.759 67.4466 141.796 67.4843C141.834 67.522 141.863 67.5673 141.882 67.6171C141.901 67.6669 141.91 67.7202 141.907 67.7735V86.6745C141.91 86.7277 141.901 86.781 141.882 86.8309C141.863 86.8807 141.834 86.926 141.796 86.9637C141.759 87.0014 141.713 87.0307 141.663 87.0497C141.614 87.0688 141.56 87.0771 141.507 87.0741H106.863V108.613H193.416Z" fill="white"/>
<path d="M120.529 81.0797C123.124 80.3088 123.402 74.9068 120.968 73.5673C118.708 72.3242 116.523 76.0946 117.852 79.2821C117.98 79.8694 118.33 80.3844 118.829 80.7195C119.328 81.0545 119.937 81.1836 120.529 81.0797ZM118.45 75.646C119.398 72.9402 121.807 74.0364 121.807 77.2445C121.807 80.004 119.858 81.4888 118.61 79.2411C118.089 78.1096 118.032 76.8192 118.45 75.646Z" fill="#2F473F"/>
<path d="M113.696 77.2445C113.77 76.3113 113.484 75.3851 112.897 74.6564C112.309 73.9276 111.464 73.452 110.537 73.3272C110.483 73.3242 110.43 73.3325 110.38 73.3516C110.33 73.3706 110.285 73.3999 110.247 73.4377C110.21 73.4754 110.18 73.5206 110.161 73.5705C110.142 73.6203 110.134 73.6736 110.137 73.7268V80.7606C110.139 81.8742 113.696 80.8001 113.696 77.2445ZM110.938 74.1675C111.549 74.4049 112.069 74.8315 112.422 75.3849C112.774 75.9384 112.94 76.5899 112.896 77.2445C112.935 77.8981 112.766 78.5471 112.414 79.0995C112.063 79.6518 111.546 80.0794 110.938 80.3215V74.1675Z" fill="#2F473F"/>
<path d="M126.722 80.9596C126.977 81.079 127.253 81.1469 127.534 81.1593C127.815 81.1717 128.096 81.1285 128.36 81.032C128.624 80.9356 128.867 80.7878 129.073 80.5973C129.28 80.4068 129.448 80.1772 129.566 79.9219C129.593 79.882 129.612 79.8371 129.622 79.7897C129.632 79.7423 129.632 79.6934 129.623 79.6458C129.614 79.5983 129.595 79.5531 129.568 79.5129C129.541 79.4727 129.507 79.4382 129.466 79.4117C129.265 79.2679 129.033 79.2537 128.798 79.6423C127.807 81.3024 125.724 79.9993 125.849 77.0439C125.958 74.4819 127.864 72.9892 129.085 75.3254C129.318 75.7692 130.005 75.3664 129.765 74.9257C129.591 74.4392 129.263 74.0231 128.83 73.7417C128.397 73.4602 127.883 73.329 127.368 73.3683C124.587 73.8074 124.193 79.5933 126.722 80.9596Z" fill="#2F473F"/>
<path d="M194.255 0.400545C194.253 0.345001 194.241 0.290291 194.218 0.239428C194.195 0.189294 194.161 0.144361 194.12 0.107219C194.079 0.0700774 194.031 0.041464 193.978 0.0230302C193.926 0.00474022 193.871 -0.00278244 193.816 0.000916492H106.422C106.369 -0.00205576 106.315 0.00624596 106.265 0.0252777C106.216 0.0443095 106.17 0.0736429 106.133 0.111362C106.095 0.14908 106.066 0.194336 106.047 0.244168C106.028 0.293999 106.019 0.347286 106.022 0.400545V67.3344H98.3503C98.297 67.3314 98.2437 67.3397 98.1939 67.3587C98.1441 67.3778 98.0988 67.4071 98.0611 67.4448C98.0234 67.4825 97.994 67.5278 97.975 67.5776C97.956 67.6274 97.9477 67.6807 97.9507 67.734V86.635C97.9477 86.6882 97.956 86.7415 97.975 86.7914C97.994 86.8412 98.0234 86.8865 98.0611 86.9242C98.0988 86.9619 98.1441 86.9912 98.1939 87.0103C98.2437 87.0293 98.297 87.0376 98.3503 87.0346H106.022V109.013C106.019 109.066 106.028 109.119 106.047 109.169C106.066 109.219 106.095 109.264 106.133 109.302C106.17 109.34 106.216 109.369 106.265 109.388C106.315 109.407 106.369 109.415 106.422 109.412H193.895C194.135 109.412 194.255 109.254 194.255 109.013V0.400545ZM98.7499 86.278V68.1731H141.066V86.278H98.7499ZM193.375 108.575H106.779V87.0346H141.428C141.481 87.0376 141.535 87.0293 141.584 87.0103C141.634 86.9912 141.679 86.9619 141.717 86.9242C141.755 86.8865 141.784 86.8412 141.803 86.7914C141.822 86.7415 141.831 86.6882 141.828 86.635V67.734C141.831 67.6806 141.823 67.6271 141.804 67.577C141.785 67.527 141.756 67.4815 141.718 67.4437C141.681 67.4058 141.635 67.3765 141.585 67.3577C141.535 67.3388 141.481 67.3309 141.428 67.3344H106.741V0.800174H193.375V108.575Z" fill="#2F473F"/>
<path d="M185.224 13.1871H115.013C114.855 13.1915 114.705 13.2562 114.594 13.3678C114.483 13.4795 114.418 13.6296 114.414 13.7873V16.0255C114.418 16.1833 114.483 16.3335 114.595 16.445C114.707 16.5564 114.857 16.6206 115.015 16.6242H185.224C185.382 16.621 185.533 16.5569 185.644 16.4453C185.756 16.3337 185.82 16.1833 185.823 16.0255V13.7873C185.819 13.6296 185.755 13.4795 185.643 13.3678C185.532 13.2562 185.382 13.1915 185.224 13.1871Z" fill="#D8F378"/>
<path d="M185.224 45.4748H115.013C114.855 45.4792 114.705 45.5439 114.594 45.6556C114.483 45.7673 114.418 45.9174 114.414 46.0751V48.3133C114.418 48.4711 114.483 48.6213 114.595 48.7327C114.707 48.8442 114.857 48.9084 115.015 48.912H185.224C185.382 48.9087 185.533 48.8446 185.644 48.733C185.756 48.6215 185.82 48.4711 185.823 48.3133V46.0751C185.82 45.9172 185.756 45.7666 185.644 45.6548C185.533 45.5429 185.382 45.4785 185.224 45.4748Z" fill="#D8F378"/>
<path d="M115.013 55.3455H135.113C135.271 55.3419 135.421 55.2777 135.533 55.1663C135.645 55.0548 135.709 54.9046 135.713 54.7469V52.5086C135.709 52.3507 135.645 52.2003 135.533 52.0886C135.421 51.9769 135.271 51.9124 135.113 51.9084H115.013C114.855 51.9128 114.706 51.9775 114.594 52.0891C114.483 52.2008 114.418 52.351 114.414 52.5086V54.7469C114.409 54.8268 114.421 54.9069 114.45 54.9818C114.478 55.0568 114.522 55.1248 114.579 55.1815C114.635 55.2381 114.703 55.282 114.778 55.3103C114.853 55.3386 114.933 55.3506 115.013 55.3455Z" fill="#D8F378"/>
<path d="M161.048 55.3455C161.205 55.3411 161.355 55.2767 161.467 55.1654C161.578 55.0541 161.643 54.9044 161.648 54.7469V52.5086C161.643 52.3509 161.579 52.201 161.467 52.0895C161.355 51.9779 161.206 51.9131 161.048 51.9084H140.908C140.751 51.9124 140.6 51.9769 140.488 52.0886C140.377 52.2003 140.312 52.3507 140.308 52.5086V54.7469C140.313 54.9045 140.377 55.0545 140.489 55.1658C140.601 55.2772 140.751 55.3415 140.908 55.3455H161.048Z" fill="#D8F378"/>
<path d="M115.013 23.0956H162.242C162.4 23.0924 162.55 23.0283 162.662 22.9167C162.773 22.8052 162.837 22.6548 162.841 22.497V20.2603C162.836 20.103 162.772 19.9532 162.66 19.8419C162.549 19.7305 162.399 19.6661 162.242 19.6617H115.013C114.856 19.6661 114.706 19.7305 114.595 19.8419C114.483 19.9532 114.419 20.103 114.414 20.2603V22.4986C114.407 22.5791 114.417 22.6603 114.444 22.7365C114.471 22.8126 114.515 22.8817 114.572 22.9388C114.63 22.996 114.699 23.0396 114.775 23.0668C114.851 23.0939 114.933 23.1037 115.013 23.0956Z" fill="#D8F378"/>
<path d="M115.013 42.4784H162.242C162.4 42.4752 162.55 42.4111 162.662 42.2995C162.773 42.1879 162.837 42.0375 162.841 41.8798V39.6415C162.837 39.4839 162.772 39.3337 162.661 39.2221C162.55 39.1104 162.4 39.0457 162.242 39.0413H115.013C114.855 39.0449 114.705 39.1094 114.593 39.2212C114.482 39.333 114.418 39.4836 114.414 39.6415V41.8798C114.409 41.9597 114.421 42.0398 114.45 42.1148C114.478 42.1897 114.522 42.2578 114.579 42.3144C114.635 42.371 114.703 42.415 114.778 42.4432C114.853 42.4715 114.933 42.4835 115.013 42.4784Z" fill="#D8F378"/>
<path d="M185.225 39.0492H168.323C168.166 39.053 168.016 39.1175 167.905 39.2293C167.792 39.3407 167.728 39.4913 167.725 39.6494V41.8877C167.729 42.0451 167.793 42.1948 167.905 42.3061C168.016 42.4175 168.166 42.4819 168.323 42.4863H185.225C185.382 42.4831 185.533 42.419 185.644 42.3074C185.756 42.1958 185.82 42.0454 185.823 41.8877V39.6415C185.818 39.485 185.753 39.3364 185.642 39.2262C185.53 39.1161 185.381 39.0527 185.225 39.0492Z" fill="#D8F378"/>
<path d="M115.013 29.5718H162.242C162.4 29.5674 162.55 29.5027 162.661 29.3911C162.772 29.2794 162.837 29.1293 162.841 28.9716V26.7286C162.837 26.571 162.772 26.4208 162.661 26.3092C162.55 26.1975 162.4 26.1328 162.242 26.1284H115.013C114.855 26.1328 114.706 26.1975 114.594 26.3092C114.483 26.4208 114.418 26.571 114.414 26.7286V28.9716C114.409 29.0518 114.421 29.1321 114.45 29.2072C114.478 29.2823 114.522 29.3506 114.579 29.4074C114.636 29.4641 114.704 29.5082 114.779 29.5365C114.854 29.5649 114.935 29.5769 115.015 29.5718H115.013Z" fill="#D8F378"/>
<path d="M185.224 26.0968H166.603C166.445 26.1008 166.295 26.1651 166.184 26.2765C166.072 26.3878 166.007 26.5378 166.003 26.6955V28.94C166.007 29.0977 166.072 29.2476 166.184 29.359C166.295 29.4704 166.445 29.5347 166.603 29.5387H185.224C185.382 29.5354 185.533 29.4713 185.644 29.3598C185.756 29.2482 185.82 29.0978 185.823 28.94V26.6939C185.818 26.5368 185.754 26.3874 185.642 26.2764C185.531 26.1654 185.382 26.1012 185.224 26.0968Z" fill="#D8F378"/>
<path d="M185.224 58.7416H115.013C114.855 58.746 114.705 58.8107 114.594 58.9223C114.483 59.034 114.418 59.1841 114.414 59.3418V61.58C114.418 61.7381 114.482 61.8887 114.594 62.0004C114.706 62.1122 114.857 62.1766 115.015 62.1803H185.224C185.383 62.177 185.533 62.1127 185.645 62.0008C185.756 61.8889 185.82 61.7381 185.823 61.58V59.3418C185.82 59.1839 185.756 59.0333 185.644 58.9215C185.533 58.8096 185.382 58.7452 185.224 58.7416Z" fill="#D8F378"/>
<path d="M162.247 65.2162H146.822C146.664 65.2198 146.514 65.2842 146.402 65.396C146.29 65.5078 146.226 65.6584 146.222 65.8164V68.0531C146.226 68.211 146.291 68.3613 146.402 68.4731C146.514 68.5848 146.664 68.6493 146.822 68.6533H162.247C162.405 68.6501 162.555 68.5857 162.667 68.4738C162.779 68.3619 162.843 68.2111 162.845 68.0531V65.8148C162.842 65.6571 162.778 65.5067 162.666 65.3951C162.555 65.2835 162.404 65.2194 162.247 65.2162Z" fill="#D8F378"/>
<path d="M166.603 68.6928H174.194C174.352 68.6888 174.503 68.6243 174.614 68.5125C174.726 68.4008 174.791 68.2505 174.795 68.0925V65.8559C174.792 65.6976 174.728 65.5466 174.616 65.4346C174.504 65.3227 174.353 65.2585 174.194 65.2557H166.603C166.445 65.2597 166.295 65.3242 166.183 65.4359C166.071 65.5476 166.007 65.698 166.003 65.8559V68.0925C166.006 68.2508 166.07 68.4019 166.182 68.5138C166.294 68.6258 166.445 68.6899 166.603 68.6928Z" fill="#D8F378"/>
<path d="M184.943 68.6928C185.101 68.6888 185.252 68.6243 185.363 68.5125C185.475 68.4008 185.54 68.2505 185.544 68.0925V65.8559C185.541 65.6976 185.477 65.5466 185.365 65.4346C185.253 65.3227 185.102 65.2585 184.943 65.2557H177.352C177.194 65.2597 177.044 65.3242 176.932 65.4359C176.82 65.5476 176.756 65.698 176.752 65.8559V68.0925C176.755 68.2508 176.819 68.4019 176.931 68.5138C177.043 68.6258 177.194 68.6899 177.352 68.6928H184.943Z" fill="#D8F378"/>
<path d="M185.225 93.6277H168.323C168.165 93.6309 168.015 93.6953 167.903 93.8072C167.791 93.9191 167.727 94.0699 167.725 94.2279V96.4646C167.729 96.6223 167.793 96.7724 167.904 96.8841C168.016 96.9957 168.166 97.0604 168.323 97.0648H185.225C185.382 97.0612 185.533 96.9967 185.644 96.8849C185.756 96.7731 185.82 96.6225 185.823 96.4646V94.2264C185.82 94.0686 185.756 93.9182 185.644 93.8066C185.533 93.695 185.382 93.6309 185.225 93.6277Z" fill="#D8F378"/>
<path d="M162.247 71.6892H146.822C146.664 71.6928 146.514 71.7572 146.402 71.869C146.29 71.9808 146.226 72.1314 146.222 72.2894V74.5261C146.226 74.684 146.291 74.8344 146.402 74.9461C146.514 75.0578 146.664 75.1223 146.822 75.1263H162.247C162.404 75.1219 162.554 75.0572 162.666 74.9456C162.777 74.8339 162.841 74.6838 162.845 74.5261V72.2894C162.841 72.1318 162.777 71.9816 162.666 71.87C162.554 71.7583 162.404 71.6936 162.247 71.6892Z" fill="#D8F378"/>
<path d="M185.224 71.6892H166.603C166.445 71.6932 166.295 71.7577 166.183 71.8694C166.071 71.9811 166.007 72.1315 166.003 72.2894V74.5261C166.006 74.6844 166.07 74.8354 166.182 74.9474C166.294 75.0593 166.445 75.1235 166.603 75.1263H185.224C185.382 75.1219 185.532 75.0572 185.643 74.9456C185.755 74.8339 185.819 74.6838 185.823 74.5261V72.2894C185.819 72.1318 185.755 71.9816 185.643 71.87C185.532 71.7583 185.382 71.6936 185.224 71.6892Z" fill="#D8F378"/>
<path d="M215.073 66.6915L189.819 171.467L273.975 191.767L299.231 86.9904L215.073 66.6915Z" fill="white"/>
<path d="M232.257 84.8769L230.818 84.5168C230.719 84.4965 230.615 84.5139 230.528 84.5655C230.44 84.6172 230.375 84.6994 230.345 84.7964L226.87 93.2676L225.991 87.7533C225.975 87.6978 225.946 87.6465 225.908 87.6032C225.869 87.5598 225.822 87.5255 225.769 87.5026C225.716 87.4797 225.658 87.4687 225.6 87.4706C225.542 87.4724 225.485 87.487 225.434 87.5132C225.365 87.549 225.308 87.6046 225.271 87.6728L222.076 92.1097L222.755 82.8788C222.76 82.7905 222.735 82.7031 222.684 82.6307C222.633 82.5582 222.56 82.5049 222.475 82.4792L221.316 82.1996C220.842 82.0795 220.597 82.8314 221.115 82.9578V82.9989L221.956 83.1979L221.196 93.465C221.156 93.9041 221.715 93.9389 221.956 93.664L225.431 88.829L226.389 94.7839C226.468 95.2231 227.029 95.0998 227.148 94.7839L231.065 85.3066L232.144 85.5862C232.576 85.7552 232.775 84.9954 232.257 84.8769Z" fill="#2F473F"/>
<path d="M299.829 86.278C299.602 86.2275 221.032 67.1653 214.874 65.8575C214.775 65.8527 214.676 65.872 214.585 65.9138C214.495 65.9556 214.416 66.0187 214.355 66.0976C213.868 67.4449 189.064 171.214 189.001 171.585C188.892 172.217 189.633 172.31 189.758 172.34C258.434 188.885 271.947 192.012 274.236 192.529C274.514 192.592 274.643 192.439 274.654 192.371C295.663 105.217 299.514 89.8573 299.945 87.1499C300.071 86.3507 299.959 86.3033 299.829 86.278ZM274.015 191.774C274.015 191.774 190.099 171.555 189.78 171.473L215.034 66.6915C215.034 66.6915 298.909 86.9098 299.224 86.9904L274.015 191.774Z" fill="#2F473F"/>
<path d="M275.414 136.666L213.595 121.761C213.519 121.743 213.44 121.74 213.363 121.752C213.285 121.764 213.211 121.791 213.145 121.832C213.078 121.873 213.02 121.926 212.974 121.989C212.928 122.053 212.895 122.124 212.876 122.2L212.357 124.358C212.338 124.434 212.334 124.513 212.347 124.59C212.364 124.707 212.415 124.817 212.495 124.904C212.576 124.991 212.68 125.052 212.796 125.078L274.615 139.983C274.691 140.002 274.77 140.005 274.847 139.993C274.925 139.981 274.999 139.954 275.066 139.913C275.132 139.872 275.19 139.818 275.236 139.755C275.282 139.692 275.315 139.62 275.334 139.544L275.853 137.386C275.889 137.232 275.864 137.07 275.784 136.934C275.7 136.8 275.568 136.704 275.414 136.666Z" fill="#E2FD86"/>
<path d="M267.861 168.033L234.058 159.881C233.943 159.855 233.824 159.863 233.713 159.904C233.603 159.945 233.507 160.016 233.436 160.11C233.39 160.173 233.357 160.245 233.339 160.321L232.82 162.479C232.801 162.555 232.798 162.634 232.81 162.711C232.827 162.828 232.879 162.937 232.959 163.024C233.039 163.111 233.144 163.172 233.259 163.198L267.061 171.35C267.137 171.369 267.216 171.372 267.294 171.359C267.411 171.343 267.52 171.291 267.607 171.211C267.694 171.131 267.755 171.026 267.782 170.911L268.301 168.753C268.327 168.638 268.319 168.519 268.278 168.408C268.237 168.298 268.166 168.202 268.072 168.131C268.009 168.085 267.937 168.052 267.861 168.033Z" fill="#E2FD86"/>
<path d="M241.807 168.393L232.537 166.155C232.422 166.129 232.303 166.137 232.192 166.178C232.082 166.219 231.986 166.29 231.915 166.384C231.869 166.447 231.836 166.519 231.817 166.595L231.297 168.753C231.261 168.907 231.287 169.068 231.37 169.203C231.452 169.337 231.585 169.434 231.738 169.472L241.008 171.71C241.084 171.729 241.163 171.733 241.241 171.721C241.318 171.709 241.392 171.681 241.458 171.639C241.593 171.557 241.689 171.424 241.727 171.271L242.246 169.112C242.266 169.036 242.27 168.957 242.257 168.879C242.245 168.802 242.217 168.728 242.175 168.661C242.093 168.527 241.96 168.431 241.807 168.393Z" fill="#E2FD86"/>
<path d="M254.515 171.43L245.245 169.192C245.13 169.165 245.01 169.172 244.899 169.212C244.788 169.253 244.692 169.325 244.622 169.42C244.575 169.483 244.542 169.555 244.524 169.631L244.005 171.789C243.979 171.904 243.987 172.023 244.028 172.134C244.069 172.244 244.14 172.34 244.234 172.411C244.297 172.457 244.369 172.49 244.445 172.509L253.716 174.746C253.792 174.765 253.871 174.768 253.948 174.756C254.025 174.744 254.1 174.717 254.166 174.676C254.233 174.635 254.291 174.581 254.337 174.518C254.383 174.455 254.416 174.383 254.434 174.307L254.954 172.149C254.974 172.073 254.977 171.994 254.965 171.917C254.953 171.839 254.925 171.765 254.883 171.699C254.8 171.565 254.668 171.468 254.515 171.43Z" fill="#E2FD86"/>
<path d="M211.238 131.43L252.796 141.46C252.872 141.478 252.951 141.482 253.029 141.47C253.106 141.458 253.18 141.431 253.247 141.39C253.314 141.349 253.372 141.295 253.418 141.232C253.464 141.169 253.497 141.097 253.515 141.021L254.035 138.863C254.071 138.709 254.046 138.547 253.965 138.411C253.882 138.277 253.749 138.18 253.596 138.143L212.037 128.113C211.961 128.093 211.882 128.09 211.804 128.102C211.727 128.114 211.652 128.142 211.586 128.184C211.451 128.267 211.355 128.4 211.317 128.553L210.797 130.711C210.766 130.864 210.794 131.024 210.876 131.157C210.958 131.291 211.087 131.388 211.238 131.43Z" fill="#E2FD86"/>
<path d="M234.815 154.087L234.295 156.245C234.276 156.321 234.273 156.4 234.286 156.477C234.302 156.594 234.354 156.703 234.434 156.791C234.514 156.878 234.619 156.939 234.734 156.965L257.271 162.399C257.347 162.417 257.426 162.421 257.503 162.408C257.621 162.391 257.73 162.34 257.817 162.26C257.904 162.18 257.965 162.075 257.992 161.959L258.511 159.802C258.53 159.726 258.533 159.647 258.521 159.569C258.508 159.492 258.481 159.418 258.44 159.351C258.399 159.284 258.345 159.226 258.282 159.18C258.219 159.134 258.147 159.101 258.071 159.083L235.533 153.648C235.38 153.616 235.221 153.644 235.087 153.725C234.954 153.807 234.856 153.936 234.815 154.087Z" fill="#E2FD86"/>
<path d="M269.339 161.8L261.667 159.961C261.591 159.943 261.512 159.939 261.435 159.951C261.358 159.963 261.283 159.991 261.217 160.031C261.15 160.072 261.092 160.126 261.046 160.189C261 160.252 260.967 160.324 260.949 160.4L260.429 162.558C260.392 162.712 260.417 162.874 260.498 163.01C260.582 163.144 260.714 163.241 260.868 163.278L268.54 165.117C268.655 165.142 268.774 165.134 268.885 165.094C268.995 165.053 269.091 164.982 269.162 164.888C269.208 164.824 269.241 164.752 269.26 164.676L269.78 162.519C269.806 162.442 269.815 162.361 269.807 162.281C269.798 162.201 269.772 162.123 269.731 162.054C269.689 161.985 269.632 161.927 269.564 161.883C269.496 161.839 269.419 161.81 269.339 161.8Z" fill="#E2FD86"/>
<path d="M283.246 104.217L234.249 92.3893C234.173 92.3707 234.094 92.3673 234.017 92.3793C233.939 92.3914 233.865 92.4186 233.798 92.4594C233.731 92.5001 233.673 92.5537 233.627 92.6171C233.581 92.6804 233.547 92.7522 233.529 92.8284L233.009 94.9861C232.99 95.062 232.986 95.1411 232.999 95.2185C233.011 95.2959 233.039 95.37 233.08 95.4363C233.163 95.571 233.296 95.6675 233.45 95.7048L282.44 107.534C282.555 107.562 282.675 107.556 282.786 107.515C282.897 107.474 282.993 107.401 283.062 107.305C283.108 107.241 283.142 107.17 283.16 107.093L283.68 104.936C283.716 104.783 283.69 104.622 283.609 104.488C283.528 104.354 283.397 104.257 283.246 104.217Z" fill="#E2FD86"/>
<path d="M219.07 98.9018L245.723 105.335C245.799 105.354 245.878 105.358 245.956 105.346C246.034 105.334 246.108 105.307 246.175 105.266C246.242 105.226 246.3 105.172 246.346 105.108C246.392 105.045 246.425 104.973 246.443 104.896L246.961 102.739C246.981 102.663 246.984 102.584 246.972 102.506C246.96 102.429 246.932 102.355 246.89 102.288C246.85 102.222 246.796 102.163 246.733 102.117C246.67 102.071 246.598 102.038 246.522 102.02L219.875 95.5863C219.799 95.5675 219.72 95.564 219.643 95.5759C219.565 95.5879 219.491 95.6151 219.424 95.6559C219.357 95.6967 219.299 95.7504 219.253 95.8139C219.207 95.8773 219.174 95.9492 219.156 96.0255L218.637 98.1831C218.618 98.2588 218.614 98.3374 218.625 98.4146C218.637 98.4917 218.663 98.5658 218.703 98.6327C218.744 98.6995 218.797 98.7577 218.86 98.8039C218.922 98.8501 218.994 98.8834 219.07 98.9018Z" fill="#E2FD86"/>
<path d="M281.728 110.445L250.926 103.013C250.85 102.995 250.771 102.992 250.694 103.004C250.617 103.016 250.543 103.043 250.476 103.084C250.409 103.125 250.351 103.178 250.305 103.242C250.259 103.305 250.226 103.377 250.208 103.453L249.688 105.61C249.652 105.764 249.678 105.925 249.76 106.06C249.842 106.195 249.974 106.292 250.127 106.331L280.928 113.754C281.004 113.773 281.083 113.777 281.161 113.765C281.238 113.753 281.312 113.726 281.379 113.685C281.446 113.644 281.504 113.59 281.55 113.527C281.596 113.463 281.629 113.392 281.647 113.315L282.167 111.158C282.201 111.005 282.174 110.845 282.092 110.712C282.01 110.579 281.879 110.483 281.728 110.445Z" fill="#E2FD86"/>
<path d="M217.432 105.776L233.216 109.567C233.292 109.586 233.371 109.589 233.449 109.577C233.526 109.565 233.6 109.538 233.667 109.497C233.734 109.457 233.792 109.403 233.838 109.339C233.884 109.276 233.917 109.204 233.935 109.128L234.455 106.97C234.474 106.894 234.478 106.815 234.466 106.737C234.453 106.659 234.425 106.585 234.384 106.518C234.344 106.451 234.291 106.392 234.227 106.346C234.164 106.3 234.092 106.267 234.015 106.25L218.231 102.459C218.155 102.44 218.076 102.437 217.998 102.449C217.921 102.461 217.847 102.488 217.78 102.529C217.713 102.569 217.655 102.623 217.609 102.687C217.563 102.75 217.53 102.822 217.512 102.898L216.993 105.056C216.957 105.209 216.983 105.371 217.065 105.505C217.147 105.64 217.279 105.737 217.432 105.776Z" fill="#E2FD86"/>
<path d="M280.09 117.324L239.653 107.574C239.577 107.555 239.498 107.551 239.42 107.563C239.342 107.575 239.268 107.602 239.201 107.643C239.134 107.683 239.076 107.737 239.03 107.801C238.983 107.864 238.951 107.936 238.933 108.013L238.414 110.17C238.379 110.324 238.405 110.485 238.487 110.62C238.569 110.755 238.701 110.852 238.854 110.891L279.252 120.684C279.329 120.703 279.408 120.706 279.485 120.694C279.562 120.682 279.637 120.655 279.704 120.614C279.771 120.573 279.829 120.52 279.875 120.456C279.921 120.393 279.954 120.321 279.973 120.245L280.492 118.086C280.523 118.009 280.536 117.928 280.531 117.846C280.527 117.764 280.504 117.684 280.465 117.612C280.427 117.539 280.374 117.476 280.309 117.427C280.244 117.377 280.169 117.342 280.09 117.324Z" fill="#E2FD86"/>
<path d="M234.935 89.5114L267.782 97.4234C267.858 97.4422 267.937 97.4457 268.014 97.4338C268.092 97.4218 268.166 97.3947 268.233 97.3538C268.3 97.313 268.358 97.2593 268.404 97.1959C268.45 97.1324 268.482 97.0605 268.5 96.9843L269.02 94.8266C269.04 94.7504 269.043 94.6711 269.031 94.5934C269.019 94.5157 268.991 94.4413 268.949 94.3748C268.909 94.3073 268.856 94.2486 268.793 94.2024C268.729 94.1563 268.657 94.1235 268.581 94.1063L235.734 86.1943C235.58 86.1578 235.418 86.1833 235.282 86.2654C235.147 86.3482 235.051 86.4811 235.014 86.635L234.494 88.7927C234.475 88.8686 234.471 88.9477 234.483 89.0251C234.495 89.1025 234.523 89.1766 234.565 89.2428C234.648 89.3776 234.781 89.4741 234.935 89.5114Z" fill="#E2FD86"/>
<path d="M284.724 97.9431L273.176 95.1457C273.1 95.1273 273.021 95.1242 272.943 95.1364C272.866 95.1486 272.792 95.176 272.725 95.2169C272.658 95.2579 272.6 95.3116 272.554 95.375C272.508 95.4384 272.475 95.5102 272.457 95.5863L271.937 97.744C271.918 97.82 271.914 97.899 271.926 97.9765C271.939 98.0539 271.967 98.128 272.009 98.1942C272.091 98.329 272.223 98.4255 272.377 98.4627L283.925 101.26C284.001 101.279 284.08 101.282 284.157 101.27C284.235 101.258 284.309 101.231 284.376 101.19C284.443 101.149 284.501 101.096 284.547 101.032C284.593 100.969 284.627 100.897 284.645 100.821L285.165 98.6618C285.19 98.5857 285.197 98.505 285.188 98.4256C285.178 98.3461 285.151 98.2698 285.108 98.2021C285.066 98.1337 285.011 98.0751 284.944 98.0303C284.878 97.9856 284.803 97.9558 284.724 97.9431Z" fill="#E2FD86"/>
<path d="M252.037 147.249L252.556 145.091C252.576 145.015 252.579 144.936 252.567 144.859C252.555 144.781 252.527 144.707 252.485 144.641C252.445 144.574 252.391 144.516 252.328 144.47C252.265 144.424 252.193 144.391 252.117 144.373L210.559 134.342C210.444 134.315 210.324 134.322 210.214 134.362C210.103 134.403 210.007 134.475 209.937 134.57C209.89 134.633 209.856 134.705 209.839 134.782L209.319 136.939C209.294 137.054 209.302 137.174 209.342 137.284C209.383 137.394 209.454 137.491 209.548 137.562C209.612 137.607 209.684 137.641 209.76 137.659L251.318 147.688C251.394 147.707 251.473 147.71 251.55 147.698C251.628 147.686 251.702 147.659 251.769 147.618C251.835 147.577 251.893 147.524 251.939 147.46C251.985 147.397 252.018 147.325 252.037 147.249Z" fill="#E2FD86"/>
<path d="M277.013 130.111L215.193 115.206C215.117 115.187 215.038 115.184 214.961 115.196C214.884 115.208 214.809 115.235 214.743 115.276C214.676 115.316 214.618 115.37 214.572 115.434C214.526 115.497 214.493 115.569 214.475 115.645L213.955 117.803C213.936 117.879 213.933 117.958 213.946 118.035C213.956 118.113 213.983 118.188 214.023 118.255C214.064 118.322 214.118 118.38 214.183 118.425C214.246 118.473 214.318 118.504 214.394 118.523L276.213 133.467C276.289 133.486 276.368 133.489 276.446 133.477C276.523 133.465 276.597 133.438 276.664 133.397C276.731 133.356 276.789 133.303 276.835 133.239C276.881 133.176 276.914 133.104 276.932 133.028L277.452 130.871C277.493 130.712 277.471 130.543 277.388 130.4C277.306 130.258 277.171 130.154 277.013 130.111Z" fill="#E2FD86"/>
<path d="M278.531 123.837L216.716 108.932C216.562 108.896 216.401 108.922 216.266 109.004C216.131 109.086 216.034 109.218 215.996 109.371L215.476 111.53C215.44 111.684 215.467 111.846 215.549 111.98C215.632 112.115 215.764 112.211 215.917 112.249L277.735 127.154C277.811 127.172 277.889 127.176 277.967 127.164C278.044 127.152 278.118 127.125 278.185 127.084C278.252 127.043 278.31 126.989 278.356 126.926C278.402 126.863 278.435 126.791 278.453 126.715L278.973 124.557C278.992 124.481 278.996 124.402 278.984 124.324C278.971 124.246 278.944 124.172 278.902 124.105C278.861 124.038 278.807 123.98 278.743 123.934C278.679 123.888 278.607 123.855 278.531 123.837Z" fill="#E2FD86"/>
<path d="M272.377 149.212L262.147 146.734C262.071 146.715 261.992 146.711 261.914 146.724C261.837 146.736 261.762 146.764 261.696 146.805C261.561 146.888 261.465 147.021 261.427 147.175L260.909 149.332C260.891 149.408 260.887 149.487 260.9 149.565C260.912 149.642 260.939 149.716 260.98 149.783C261.02 149.849 261.074 149.908 261.137 149.954C261.2 150 261.272 150.033 261.348 150.051L271.577 152.529C271.692 152.555 271.812 152.547 271.922 152.506C272.032 152.465 272.129 152.394 272.2 152.3C272.245 152.237 272.279 152.165 272.298 152.089L272.816 149.931C272.847 149.778 272.82 149.618 272.738 149.485C272.657 149.351 272.527 149.254 272.377 149.212Z" fill="#E2FD86"/>
<path d="M208.28 142.539L202.766 165.434L225.663 170.949L231.177 148.053L208.28 142.539Z" fill="white"/>
<path d="M222.188 157.42L217.402 161.351L213.987 153.668L208.101 158.431L206.91 162.79L223.199 166.834L224.21 162.452L222.188 157.42Z" fill="#E2FD86"/>
<path d="M213.835 153.168C213.882 153.14 213.934 153.122 213.988 153.116C214.041 153.109 214.096 153.113 214.148 153.127C214.201 153.142 214.249 153.167 214.291 153.201C214.334 153.235 214.369 153.278 214.394 153.326L217.553 160.749L221.845 157.246C221.926 157.161 222.037 157.11 222.154 157.104C222.271 157.099 222.386 157.138 222.475 157.214C222.535 157.265 222.58 157.331 222.606 157.404L224.069 161.353L226.625 150.868L211.061 147.077L208.477 157.57C208.52 157.562 213.835 153.168 213.835 153.168Z" fill="#E2FD86"/>
<path d="M221.761 151.853C221.481 151.893 221.219 152.014 221.008 152.203C220.797 152.392 220.647 152.639 220.577 152.913C220.525 153.118 220.52 153.333 220.562 153.54C220.603 153.747 220.691 153.943 220.818 154.112C220.944 154.282 221.108 154.42 221.295 154.519C221.482 154.617 221.689 154.672 221.901 154.68C222.112 154.689 222.323 154.65 222.517 154.566C222.711 154.482 222.884 154.356 223.024 154.197C223.164 154.038 223.266 153.85 223.323 153.647C223.381 153.443 223.392 153.229 223.357 153.021C223.288 152.66 223.085 152.339 222.789 152.123C222.493 151.906 222.126 151.81 221.761 151.853Z" fill="white"/>
<path d="M231.777 147.374L208.12 141.659C208.02 141.638 207.916 141.655 207.828 141.707C207.74 141.759 207.675 141.842 207.646 141.94L201.932 165.596C201.91 165.695 201.928 165.799 201.979 165.887C202.031 165.974 202.114 166.04 202.211 166.069L225.947 171.783C225.994 171.793 226.043 171.794 226.09 171.785C226.138 171.777 226.183 171.758 226.224 171.732C226.265 171.707 226.3 171.673 226.328 171.634C226.357 171.595 226.377 171.55 226.388 171.503L232.101 147.848C232.099 147.746 232.068 147.646 232.01 147.562C231.952 147.478 231.872 147.413 231.777 147.374ZM225.663 170.95L202.759 165.436L208.275 142.532L231.179 148.047L225.663 170.95Z" fill="#2F473F"/>
<path d="M227.141 150.211L210.918 146.301C210.818 146.282 210.715 146.3 210.628 146.351C210.541 146.403 210.475 146.484 210.444 146.581C207.052 161.999 207.169 160.108 206.568 162.804C206.546 162.904 206.563 163.008 206.615 163.096C206.667 163.184 206.75 163.249 206.847 163.278L223.117 167.194C223.216 167.213 223.319 167.196 223.407 167.145C223.494 167.093 223.559 167.011 223.59 166.914C224.478 162.966 223.556 166.875 227.467 150.691C227.472 150.586 227.443 150.483 227.384 150.397C227.325 150.31 227.24 150.245 227.141 150.211ZM222.786 166.362L207.362 162.645C207.678 161.321 208.199 159.093 208.281 158.928L213.835 154.253C217.098 161.937 216.912 161.647 217.072 161.806C217.231 161.966 217.436 161.964 217.77 161.683L222.035 158.129L223.692 162.561C223.625 162.841 223.426 163.798 222.786 166.362ZM224.105 161.046C224.049 161.331 224.3 161.858 222.589 157.401C222.571 157.321 222.531 157.247 222.474 157.188C222.418 157.127 222.346 157.083 222.267 157.061C222.188 157.038 222.105 157.036 222.025 157.056C221.945 157.075 221.872 157.116 221.813 157.175L217.512 160.767L214.353 153.333C214.317 153.279 214.269 153.234 214.214 153.2C214.158 153.166 214.096 153.145 214.031 153.138C213.967 153.129 213.901 153.136 213.839 153.156C213.778 153.176 213.721 153.21 213.674 153.254C213.674 153.254 208.919 157.251 208.559 157.53L211.076 147.179L226.541 150.896L224.105 161.046Z" fill="#2F473F"/>
<path d="M219.752 153.815C219.817 154.136 219.956 154.437 220.159 154.693C220.362 154.95 220.622 155.155 220.919 155.292C221.216 155.429 221.542 155.494 221.869 155.482C222.195 155.469 222.515 155.38 222.801 155.221C223.282 155.001 223.669 154.615 223.888 154.133C224.107 153.651 224.145 153.107 223.995 152.599C223.87 152.225 223.642 151.894 223.337 151.645C223.032 151.395 222.663 151.237 222.271 151.188C221.918 151.129 221.555 151.157 221.214 151.269C220.873 151.382 220.565 151.576 220.316 151.834C220.067 152.093 219.886 152.409 219.788 152.755C219.689 153.1 219.677 153.464 219.752 153.815ZM221.016 154.289C220.834 154.114 220.703 153.894 220.635 153.652C220.567 153.409 220.565 153.153 220.63 152.909C220.694 152.666 220.822 152.444 221.001 152.266C221.18 152.089 221.403 151.963 221.648 151.901C221.924 151.845 222.212 151.874 222.472 151.984C222.732 152.093 222.953 152.279 223.105 152.517C223.233 152.717 223.308 152.946 223.323 153.183C223.338 153.419 223.292 153.656 223.191 153.87C223.067 154.131 222.865 154.345 222.613 154.484C222.36 154.623 222.071 154.678 221.785 154.643C221.5 154.609 221.233 154.486 221.02 154.292L221.016 154.289Z" fill="#2F473F"/>
</svg>
