<svg width="250" height="200" viewBox="0 0 250 200" fill="none" xmlns="http://www.w3.org/2000/svg">
<path d="M37.1919 163.812L39.7738 181.589L54.969 198.935L227.001 171.697L223.703 150.624L51.4277 176.896L37.1919 163.812Z" fill="#B1E400"/>
<path d="M223.703 150.624L51.5286 176.858L37.1919 163.812L209.366 137.865L223.703 150.624Z" fill="white"/>
<path d="M227.496 171.62C224.145 150.234 224.247 150.438 224.038 150.249C209.465 137.173 209.65 137.309 209.293 137.368L37.1673 163.309C37.0938 163.313 37.0221 163.333 36.9569 163.368C36.8918 163.402 36.8348 163.45 36.7899 163.508C36.7453 163.567 36.7144 163.635 36.6992 163.707C36.684 163.779 36.685 163.853 36.7021 163.925C39.3141 181.926 39.242 181.749 39.3954 181.921C54.8383 199.537 54.6207 199.437 54.9693 199.437L227.078 172.192C227.209 172.171 227.326 172.099 227.404 171.991C227.483 171.884 227.516 171.751 227.496 171.62ZM222.571 150.288L51.6889 176.327L38.3102 164.152L209.213 138.396L222.571 150.288ZM55.1646 198.397L40.2486 181.37L37.8895 165.125C51.4359 177.453 51.2262 177.36 51.529 177.36L223.284 151.195L226.43 171.28L55.1646 198.397Z" fill="#2F4147"/>
<path d="M52.8184 136.861L57.6926 143.743C57.8668 144.002 58.1006 144.215 58.3742 144.364C58.6479 144.514 58.9535 144.596 59.2653 144.603H67.7266C68.2179 144.612 68.6865 144.811 69.034 145.159C69.3815 145.506 69.5809 145.975 69.5903 146.466C69.5903 147.084 69.8891 146.517 63.9992 154.208C63.8121 154.448 63.6879 154.731 63.6377 155.032C63.5876 155.332 63.6132 155.64 63.7122 155.928L66.2928 163.956C66.3995 164.276 66.4151 164.619 66.3379 164.947C66.2606 165.275 66.0935 165.574 65.8553 165.813C65.6171 166.051 65.3173 166.218 64.9895 166.295C64.6616 166.372 64.3187 166.357 63.9992 166.25L55.9718 163.527C55.6831 163.432 55.3759 163.409 55.0763 163.458C54.7767 163.508 54.4936 163.63 54.2509 163.812L47.3702 168.831C47.1004 169.015 46.786 169.125 46.4597 169.147C46.1333 169.169 45.807 169.104 45.5145 168.958C45.2219 168.811 44.9738 168.589 44.7959 168.315C44.618 168.041 44.5167 167.724 44.5026 167.397L44.6455 158.938C44.6202 158.341 44.363 157.776 43.9286 157.365L37.0479 152.348C36.7658 152.144 36.5467 151.864 36.4156 151.541C36.2845 151.218 36.2466 150.865 36.3063 150.521C36.366 150.178 36.5207 149.858 36.7531 149.598C36.9854 149.338 37.286 149.148 37.6206 149.051L45.6494 146.613C45.9275 146.546 46.1816 146.403 46.3839 146.201C46.5862 145.999 46.7289 145.744 46.7962 145.466L49.3768 137.439C49.943 135.459 52.4829 136.19 52.8184 136.861Z" fill="#E2FD86"/>
<path d="M44.0048 167.397L44.1476 158.93C44.12 158.468 43.9165 158.034 43.5788 157.717L36.7558 152.749C36.3973 152.492 36.1183 152.138 35.9506 151.73C35.7829 151.321 35.7333 150.874 35.8073 150.439C35.8813 150.003 36.076 149.598 36.3693 149.267C36.6625 148.937 37.0426 148.696 37.4661 148.571L45.508 146.13C45.7022 146.086 45.8804 145.99 46.0228 145.851C46.1651 145.712 46.266 145.536 46.3141 145.343L48.9025 137.283C49.0152 136.841 49.2654 136.447 49.6168 136.156C49.9682 135.866 50.4028 135.694 50.8579 135.667C51.3024 135.612 51.7535 135.669 52.1708 135.831C52.588 135.994 52.9583 136.258 53.2485 136.599L58.1056 143.455C58.2324 143.65 58.4048 143.812 58.608 143.926C58.8112 144.04 59.0391 144.103 59.272 144.11H67.7268C68.0529 144.102 68.377 144.164 68.6768 144.293C68.9767 144.421 69.2452 144.613 69.4639 144.855C69.6826 145.097 69.8464 145.384 69.944 145.695C70.0416 146.007 70.0708 146.335 70.0295 146.659C69.9747 147.092 69.7964 147.499 69.5157 147.833L64.4044 154.517C64.2687 154.701 64.1798 154.914 64.1453 155.14C64.1108 155.365 64.1318 155.596 64.2065 155.811L66.7779 163.806C66.928 164.247 66.94 164.723 66.8124 165.171C66.6848 165.619 66.4235 166.017 66.0636 166.313C65.7583 166.586 65.3825 166.767 64.9791 166.837C64.5756 166.906 64.1608 166.861 63.7818 166.706L55.8173 164.009C55.606 163.94 55.3812 163.923 55.162 163.96C54.9428 163.997 54.7359 164.087 54.5591 164.221L47.6718 169.243C47.3267 169.484 46.9229 169.627 46.5031 169.657C46.0834 169.687 45.6633 169.603 45.2874 169.414C44.9116 169.225 44.5939 168.937 44.3681 168.582C44.1423 168.227 44.0167 167.817 44.0048 167.397ZM51.1214 136.655C50.8359 136.629 50.5505 136.707 50.3189 136.876C50.0872 137.045 49.9252 137.293 49.8632 137.573L47.2813 145.616C47.1862 145.975 46.9966 146.301 46.7321 146.562C46.4677 146.822 46.1382 147.007 45.778 147.097C36.6562 149.62 37.6667 149.432 36.9799 150.118C36.7983 150.408 36.7337 150.756 36.7991 151.092C36.8646 151.427 37.0552 151.726 37.3325 151.926L44.2315 156.956C44.5084 157.209 44.7321 157.515 44.8897 157.855C45.0472 158.195 45.1353 158.563 45.1489 158.938L45.0061 167.405C45.0219 167.64 45.0996 167.866 45.2314 168.061C45.3631 168.256 45.5442 168.413 45.7562 168.515C45.9682 168.618 46.2035 168.662 46.4382 168.644C46.673 168.626 46.8987 168.546 47.0925 168.413L53.9562 163.407C54.2584 163.182 54.6095 163.031 54.9809 162.967C55.3524 162.903 55.7337 162.928 56.0938 163.039L64.1619 165.781C64.395 165.858 64.6452 165.869 64.884 165.811C65.1228 165.754 65.3408 165.631 65.5131 165.456C65.6851 165.28 65.8044 165.06 65.8572 164.82C65.91 164.58 65.8944 164.33 65.812 164.098L63.2366 156.082C63.1048 155.707 63.0731 155.305 63.1449 154.914C63.2166 154.523 63.3892 154.158 63.6455 153.854C69.5144 146.185 69.0898 146.853 69.0898 146.468C69.0821 146.109 68.9362 145.767 68.6824 145.513C68.4287 145.26 68.0868 145.114 67.7281 145.106H59.2694C58.8741 145.101 58.486 144.999 58.1387 144.81C57.7914 144.622 57.4953 144.351 57.276 144.022L52.4097 137.152C52.2398 136.985 52.0376 136.855 51.8156 136.77C51.5936 136.685 51.3564 136.645 51.1187 136.655H51.1214Z" fill="#2F4147"/>
<path d="M89.8049 131.27L94.6791 138.152C94.8533 138.411 95.0871 138.624 95.3607 138.773C95.6344 138.923 95.94 139.005 96.2518 139.012H104.709C105.201 139.021 105.669 139.22 106.017 139.568C106.364 139.915 106.563 140.384 106.573 140.875C106.573 141.493 106.872 140.926 100.982 148.617C100.669 149.132 100.566 149.748 100.695 150.337L103.275 158.365C103.382 158.685 103.398 159.028 103.32 159.356C103.243 159.683 103.076 159.983 102.838 160.221C102.6 160.46 102.3 160.627 101.972 160.704C101.644 160.781 101.301 160.766 100.982 160.659L93.1024 157.786C92.8135 157.693 92.5065 157.671 92.2072 157.721C91.9078 157.771 91.6247 157.891 91.3816 158.073L84.5009 163.234C84.2311 163.419 83.9167 163.529 83.5902 163.552C83.2637 163.574 82.9372 163.509 82.6445 163.363C82.3518 163.216 82.1037 162.994 81.9258 162.719C81.748 162.445 81.647 162.127 81.6333 161.8L81.7775 153.342C81.7516 152.744 81.4946 152.18 81.0606 151.769L74.1786 146.895C73.8974 146.69 73.6792 146.41 73.5489 146.087C73.4185 145.764 73.381 145.411 73.4407 145.068C73.5005 144.725 73.655 144.405 73.8868 144.145C74.1186 143.886 74.4185 143.696 74.7526 143.597L82.7801 141.161C83.0582 141.094 83.3124 140.951 83.5147 140.749C83.7171 140.547 83.8597 140.292 83.9269 140.014L86.5074 131.985C86.6089 131.658 86.7958 131.363 87.0489 131.131C87.302 130.899 87.6123 130.739 87.9478 130.667C88.283 130.595 88.6314 130.612 88.9576 130.718C89.2837 130.824 89.5761 131.014 89.8049 131.27Z" fill="#E2FD86"/>
<path d="M81.133 161.806L81.2758 153.339C81.2476 152.877 81.0437 152.443 80.7057 152.126L73.8866 147.301C73.6179 147.109 73.3926 146.862 73.2253 146.577C73.0579 146.292 72.9523 145.975 72.9153 145.646C72.8782 145.318 72.9105 144.985 73.0101 144.67C73.1097 144.355 73.2744 144.064 73.4934 143.816C73.7869 143.486 74.1675 143.244 74.5917 143.119L82.6323 140.679C82.8264 140.635 83.0047 140.539 83.147 140.4C83.2894 140.261 83.3903 140.085 83.4383 139.892L86.0281 131.832C86.1592 131.414 86.4007 131.038 86.7273 130.745C87.0539 130.453 87.4534 130.254 87.8838 130.169C88.3141 130.084 88.7593 130.117 89.1724 130.264C89.5855 130.412 89.9513 130.667 90.2312 131.005L95.0804 137.86C95.2077 138.055 95.3802 138.216 95.5833 138.33C95.7864 138.444 96.014 138.508 96.2469 138.515H104.706C105.142 138.504 105.572 138.62 105.944 138.848C106.316 139.075 106.615 139.406 106.804 139.799C106.993 140.193 107.064 140.632 107.009 141.065C106.954 141.498 106.776 141.906 106.495 142.24L101.377 148.924C101.156 149.317 101.086 149.777 101.179 150.219L103.75 158.213C103.888 158.627 103.906 159.071 103.802 159.494C103.699 159.917 103.478 160.302 103.164 160.605C102.851 160.908 102.458 161.116 102.032 161.205C101.605 161.294 101.162 161.26 100.754 161.108L92.9219 158.264C92.7119 158.197 92.4887 158.182 92.2715 158.22C92.0543 158.257 91.8493 158.347 91.6742 158.481L84.7935 163.642C84.4494 163.881 84.0469 164.024 83.6287 164.053C83.2104 164.083 82.7919 163.999 82.4174 163.811C82.0427 163.623 81.7256 163.338 81.4995 162.985C81.2734 162.632 81.1468 162.225 81.133 161.806ZM86.9927 132.124L84.4069 140.169C84.3131 140.528 84.124 140.855 83.8596 141.116C83.5953 141.376 83.2654 141.56 82.9049 141.649C73.7844 144.175 74.7922 143.984 74.1055 144.671C73.9243 144.961 73.8601 145.309 73.9258 145.645C73.9915 145.981 74.1822 146.279 74.4593 146.479L81.3518 151.361C81.6308 151.614 81.8566 151.92 82.0161 152.261C82.1757 152.602 82.2657 152.971 82.2811 153.347L82.1369 161.814C82.1492 161.989 82.1961 162.161 82.2749 162.318C82.3537 162.476 82.4628 162.616 82.5961 162.732C82.7293 162.847 82.884 162.935 83.0513 162.99C83.2185 163.045 83.395 163.067 83.5707 163.053C83.8053 163.035 84.0309 162.955 84.2247 162.821L91.0831 157.677C91.3845 157.451 91.7384 157.299 92.1093 157.233C92.4828 157.169 92.8642 157.194 93.2259 157.305L101.16 160.188C101.334 160.244 101.518 160.263 101.7 160.244C101.881 160.225 102.057 160.168 102.215 160.077C102.374 159.986 102.512 159.863 102.62 159.716C102.728 159.569 102.805 159.401 102.844 159.223C102.897 158.984 102.881 158.735 102.8 158.504L100.23 150.491C100.057 149.756 100.182 148.982 100.577 148.338C106.501 140.605 106.082 141.261 106.082 140.875C106.074 140.517 105.928 140.175 105.674 139.921C105.421 139.667 105.079 139.521 104.72 139.514H96.2561C95.8608 139.508 95.4728 139.407 95.1255 139.218C94.7782 139.029 94.482 138.759 94.2626 138.43L89.3518 131.494C89.1706 131.334 88.9526 131.221 88.7172 131.166C88.4819 131.111 88.2366 131.115 88.0032 131.178C87.7701 131.241 87.5559 131.36 87.3797 131.525C87.2035 131.69 87.0706 131.896 86.9927 132.124Z" fill="#2F4147"/>
<path d="M126.649 126.683L131.523 133.563C131.697 133.823 131.93 134.037 132.204 134.187C132.478 134.337 132.784 134.418 133.096 134.425H141.555C142.046 134.434 142.514 134.633 142.862 134.981C143.209 135.328 143.409 135.797 143.418 136.288C143.418 136.905 143.717 136.339 137.827 144.029C137.641 144.269 137.517 144.553 137.467 144.853C137.417 145.153 137.442 145.461 137.54 145.749L140.121 153.777C140.208 154.095 140.209 154.43 140.125 154.748C140.04 155.067 139.873 155.357 139.64 155.59C139.408 155.824 139.117 155.991 138.799 156.075C138.48 156.16 138.145 156.159 137.827 156.072L129.798 153.347C129.51 153.254 129.203 153.232 128.904 153.282C128.605 153.332 128.322 153.453 128.079 153.634L121.199 158.652C120.929 158.836 120.615 158.944 120.289 158.966C119.963 158.987 119.637 158.922 119.345 158.777C119.052 158.631 118.804 158.41 118.626 158.136C118.448 157.862 118.347 157.545 118.333 157.219L118.476 148.76C118.45 148.162 118.193 147.598 117.759 147.187L110.878 142.313C110.596 142.108 110.377 141.829 110.246 141.506C110.115 141.183 110.077 140.829 110.137 140.486C110.197 140.142 110.351 139.822 110.584 139.563C110.816 139.303 111.117 139.113 111.451 139.016L119.623 136.578C119.901 136.51 120.155 136.368 120.357 136.166C120.56 135.963 120.702 135.709 120.77 135.431L123.35 127.404C123.478 127.098 123.677 126.827 123.931 126.614C124.186 126.401 124.488 126.253 124.812 126.182C125.135 126.111 125.472 126.119 125.792 126.206C126.112 126.293 126.406 126.457 126.649 126.683Z" fill="#E2FD86"/>
<path d="M117.831 157.219L117.975 148.752C117.948 148.289 117.744 147.855 117.405 147.538L110.583 142.714C110.226 142.455 109.948 142.102 109.781 141.694C109.614 141.285 109.564 140.839 109.637 140.404C109.711 139.969 109.904 139.563 110.196 139.232C110.488 138.901 110.866 138.658 111.288 138.531L119.476 136.09C119.669 136.046 119.847 135.949 119.988 135.81C120.13 135.672 120.231 135.496 120.279 135.304L122.874 127.249C122.988 126.874 123.2 126.536 123.488 126.27C123.776 126.004 124.129 125.82 124.512 125.736C124.957 125.608 125.427 125.601 125.875 125.716C126.322 125.831 126.731 126.065 127.058 126.392L131.932 133.272C132.059 133.468 132.232 133.63 132.435 133.744C132.638 133.858 132.866 133.921 133.1 133.928H141.558C141.994 133.916 142.423 134.031 142.795 134.259C143.167 134.486 143.464 134.817 143.653 135.21C143.841 135.602 143.913 136.04 143.859 136.473C143.805 136.905 143.628 137.312 143.349 137.646L138.237 144.33C138.101 144.513 138.012 144.727 137.978 144.952C137.943 145.178 137.964 145.408 138.038 145.624L140.611 153.618C140.729 154.03 140.733 154.466 140.623 154.88C140.512 155.294 140.291 155.67 139.983 155.967C139.675 156.265 139.292 156.473 138.875 156.57C138.458 156.666 138.022 156.647 137.615 156.515L129.649 153.818C129.438 153.747 129.213 153.73 128.994 153.767C128.775 153.804 128.568 153.894 128.392 154.03L121.505 159.052C121.16 159.293 120.757 159.437 120.338 159.468C119.918 159.499 119.498 159.416 119.122 159.229C118.746 159.041 118.427 158.755 118.2 158.401C117.973 158.047 117.846 157.639 117.832 157.219H117.831ZM123.834 127.537L121.249 135.582C121.154 135.94 120.964 136.267 120.7 136.527C120.435 136.788 120.106 136.972 119.746 137.061C110.467 139.604 111.489 139.392 110.804 140.082C110.623 140.373 110.559 140.721 110.625 141.057C110.69 141.393 110.881 141.691 111.157 141.892L118.054 146.777C118.333 147.03 118.559 147.336 118.718 147.677C118.878 148.018 118.968 148.388 118.983 148.764L118.839 157.23C118.851 157.406 118.897 157.578 118.976 157.736C119.054 157.893 119.164 158.034 119.297 158.149C119.43 158.264 119.585 158.352 119.753 158.407C119.92 158.462 120.097 158.483 120.273 158.469C120.507 158.451 120.731 158.372 120.927 158.238L127.79 153.232C128.092 153.006 128.444 152.856 128.815 152.792C129.187 152.728 129.568 152.753 129.928 152.865L137.996 155.6C138.227 155.657 138.469 155.653 138.698 155.589C138.927 155.524 139.136 155.401 139.303 155.232C139.469 155.062 139.588 154.851 139.649 154.621C139.709 154.39 139.708 154.148 139.646 153.918L137.071 145.907C136.939 145.532 136.908 145.129 136.979 144.738C137.051 144.348 137.224 143.982 137.48 143.679C143.349 136.009 142.924 136.679 142.924 136.293C142.914 135.935 142.768 135.595 142.514 135.341C142.261 135.088 141.92 134.941 141.562 134.932H133.1C132.704 134.926 132.316 134.825 131.968 134.636C131.621 134.447 131.324 134.177 131.105 133.848L126.266 127.017C125.991 126.779 125.642 126.646 125.278 126.639C124.915 126.632 124.56 126.752 124.277 126.979C124.088 127.128 123.936 127.32 123.834 127.537Z" fill="#2F4147"/>
<path d="M163.925 121.379L168.8 128.259C169.194 128.738 169.756 129.046 170.372 129.119H178.831C180.119 129.119 181.059 130.384 180.265 131.987L175.104 138.725C174.917 138.965 174.793 139.249 174.743 139.549C174.693 139.849 174.718 140.157 174.817 140.445L177.54 148.473C177.642 148.792 177.653 149.133 177.574 149.458C177.495 149.784 177.328 150.081 177.091 150.318C176.855 150.555 176.557 150.722 176.232 150.801C175.906 150.88 175.565 150.868 175.246 150.766L167.219 148.043C166.93 147.95 166.623 147.928 166.324 147.978C166.024 148.028 165.741 148.148 165.498 148.33L158.76 153.347C158.49 153.532 158.176 153.641 157.85 153.663C157.523 153.686 157.197 153.62 156.904 153.474C156.612 153.328 156.364 153.106 156.186 152.832C156.008 152.557 155.907 152.24 155.893 151.913L156.037 143.456C156.011 142.859 155.754 142.295 155.32 141.883L148.438 137.009C148.156 136.805 147.937 136.525 147.806 136.202C147.675 135.879 147.638 135.525 147.699 135.182C147.757 134.838 147.912 134.518 148.144 134.258C148.376 133.998 148.677 133.809 149.012 133.712L157.184 131.274C157.462 131.207 157.716 131.064 157.919 130.862C158.121 130.66 158.263 130.405 158.33 130.127L160.911 122.1C161.011 121.807 161.183 121.544 161.412 121.336C161.641 121.127 161.919 120.981 162.22 120.91C162.521 120.838 162.835 120.844 163.133 120.926C163.431 121.008 163.703 121.164 163.925 121.379Z" fill="#E2FD86"/>
<path d="M155.392 151.913L155.536 143.448C155.508 142.985 155.304 142.551 154.966 142.233L148.151 137.414C147.791 137.157 147.511 136.804 147.342 136.395C147.173 135.986 147.123 135.539 147.196 135.103C147.27 134.667 147.464 134.26 147.758 133.929C148.051 133.598 148.432 133.357 148.856 133.232L157.042 130.789C157.236 130.746 157.414 130.649 157.556 130.51C157.698 130.371 157.798 130.195 157.845 130.003L160.435 121.942C160.629 121.366 161.041 120.889 161.582 120.613C162.123 120.336 162.751 120.282 163.332 120.463C163.716 120.583 164.062 120.801 164.337 121.094L169.207 127.971C169.531 128.341 169.983 128.575 170.473 128.626H178.833C179.251 128.626 179.66 128.74 180.017 128.957C180.374 129.173 180.664 129.483 180.857 129.853C181.051 130.222 181.141 130.637 181.116 131.054C181.091 131.47 180.952 131.872 180.716 132.215L175.505 139.03C175.369 139.213 175.28 139.427 175.245 139.652C175.21 139.878 175.231 140.108 175.305 140.324L178.018 148.312C178.15 148.719 178.167 149.156 178.066 149.572C177.966 149.989 177.753 150.369 177.449 150.672C177.147 150.975 176.766 151.188 176.35 151.289C175.934 151.39 175.498 151.374 175.09 151.244L167.06 148.517C166.849 148.448 166.624 148.431 166.405 148.468C166.185 148.505 165.978 148.595 165.802 148.731L159.063 153.749C158.718 153.99 158.315 154.133 157.896 154.164C157.476 154.195 157.057 154.112 156.68 153.925C156.304 153.737 155.986 153.451 155.759 153.097C155.532 152.742 155.405 152.334 155.392 151.913ZM161.395 122.233L158.814 130.276C158.719 130.636 158.53 130.963 158.265 131.223C158.001 131.484 157.671 131.668 157.311 131.757C148.033 134.3 149.054 134.089 148.37 134.778C148.183 135.067 148.116 135.417 148.182 135.754C148.248 136.091 148.442 136.39 148.724 136.587L155.616 141.469C155.895 141.722 156.121 142.028 156.28 142.369C156.44 142.71 156.529 143.08 156.544 143.456L156.401 151.922C156.417 152.158 156.494 152.384 156.626 152.58C156.757 152.775 156.939 152.932 157.151 153.034C157.363 153.137 157.598 153.181 157.833 153.163C158.068 153.145 158.294 153.064 158.488 152.93L165.204 147.928C165.507 147.701 165.858 147.549 166.23 147.484C166.603 147.419 166.985 147.444 167.346 147.555L175.414 150.292C175.647 150.363 175.894 150.369 176.129 150.309C176.365 150.249 176.579 150.126 176.75 149.952C176.92 149.779 177.039 149.562 177.095 149.325C177.15 149.089 177.14 148.842 177.064 148.611L174.347 140.607C174.214 140.231 174.182 139.827 174.253 139.434C174.325 139.042 174.498 138.675 174.755 138.371L179.873 131.687C180.425 130.442 179.704 129.626 178.837 129.626H170.374C169.986 129.588 169.61 129.472 169.267 129.286C168.924 129.101 168.622 128.848 168.379 128.544L163.505 121.662C163.339 121.528 163.143 121.435 162.935 121.391C162.726 121.347 162.51 121.353 162.304 121.409C162.098 121.465 161.908 121.569 161.75 121.712C161.592 121.855 161.47 122.034 161.395 122.233Z" fill="#2F4147"/>
<path d="M200.622 116.073L205.496 122.955C205.891 123.434 206.453 123.742 207.069 123.815H215.528C216.816 123.815 217.762 125.08 216.962 126.683L211.8 133.421C211.613 133.661 211.489 133.944 211.439 134.244C211.388 134.544 211.414 134.852 211.513 135.14L214.238 143.169C214.352 143.489 214.373 143.835 214.298 144.166C214.223 144.498 214.056 144.801 213.816 145.041C213.576 145.282 213.272 145.449 212.941 145.523C212.609 145.598 212.263 145.577 211.943 145.462L203.916 142.739C203.627 142.645 203.32 142.621 203.02 142.671C202.72 142.721 202.437 142.843 202.195 143.026L195.314 148.043C195.044 148.228 194.73 148.337 194.404 148.359C194.077 148.382 193.751 148.316 193.458 148.17C193.166 148.024 192.918 147.802 192.74 147.527C192.562 147.253 192.461 146.936 192.447 146.609L192.591 138.152C192.565 137.555 192.308 136.991 191.874 136.579L184.992 131.705C184.711 131.499 184.493 131.22 184.362 130.897C184.232 130.574 184.194 130.221 184.253 129.878C184.311 129.534 184.466 129.214 184.698 128.954C184.93 128.694 185.231 128.505 185.566 128.408L193.593 125.971C193.89 125.909 194.165 125.77 194.391 125.569C194.617 125.368 194.787 125.111 194.884 124.824L197.465 116.796C197.593 116.509 197.786 116.256 198.029 116.057C198.272 115.857 198.557 115.717 198.864 115.647C199.17 115.577 199.488 115.579 199.793 115.653C200.098 115.727 200.382 115.871 200.622 116.073Z" fill="#E2FD86"/>
<path d="M191.948 146.609L192.093 138.143C192.064 137.68 191.86 137.246 191.522 136.929L184.707 132.11C184.347 131.853 184.067 131.5 183.898 131.091C183.729 130.682 183.678 130.234 183.752 129.798C183.825 129.361 184.02 128.955 184.313 128.624C184.607 128.293 184.988 128.051 185.412 127.927L193.453 125.486C193.664 125.445 193.862 125.351 194.028 125.214C194.193 125.076 194.322 124.9 194.402 124.7L196.992 116.64C197.836 114.659 200.482 114.814 201.055 115.811L205.904 122.668C206.229 123.038 206.681 123.271 207.17 123.324H215.53C215.947 123.323 216.357 123.438 216.714 123.654C217.07 123.87 217.361 124.18 217.554 124.55C217.748 124.919 217.838 125.335 217.813 125.751C217.788 126.167 217.649 126.569 217.412 126.912L212.201 133.727C212.065 133.91 211.975 134.124 211.94 134.349C211.906 134.575 211.928 134.806 212.003 135.021L214.715 143.009C214.859 143.417 214.885 143.858 214.789 144.281C214.694 144.703 214.48 145.09 214.174 145.397C213.868 145.703 213.481 145.917 213.059 146.013C212.637 146.109 212.196 146.083 211.787 145.94L203.757 143.216C203.546 143.146 203.321 143.128 203.101 143.165C202.882 143.202 202.675 143.293 202.499 143.428L195.612 148.449C195.354 148.628 195.063 148.754 194.755 148.818C194.448 148.882 194.131 148.883 193.823 148.822C193.515 148.76 193.223 148.637 192.964 148.46C192.704 148.283 192.483 148.056 192.314 147.791C192.088 147.438 191.961 147.029 191.948 146.609ZM199.369 116.096C199.066 116.077 198.765 116.153 198.507 116.313C198.248 116.473 198.046 116.709 197.927 116.988L195.364 124.972C195.237 125.338 195.02 125.666 194.732 125.925C194.444 126.184 194.095 126.366 193.718 126.453C184.58 128.982 185.606 128.789 184.92 129.468C184.739 129.758 184.674 130.106 184.74 130.442C184.805 130.777 184.995 131.076 185.272 131.276L192.166 136.158C192.445 136.411 192.671 136.717 192.831 137.058C192.99 137.399 193.08 137.769 193.094 138.145L192.951 146.611C192.966 146.845 193.044 147.072 193.176 147.267C193.307 147.462 193.489 147.619 193.701 147.721C193.913 147.823 194.148 147.868 194.383 147.85C194.618 147.833 194.843 147.753 195.038 147.62L201.903 142.613C202.204 142.388 202.556 142.236 202.927 142.172C203.299 142.108 203.68 142.133 204.04 142.245L212.107 144.98C212.281 145.044 212.467 145.07 212.653 145.055C212.838 145.04 213.018 144.986 213.18 144.896C213.342 144.805 213.483 144.681 213.593 144.531C213.702 144.381 213.779 144.209 213.816 144.027C213.867 143.784 213.846 143.532 213.757 143.3L211.041 135.296C210.908 134.92 210.875 134.516 210.947 134.123C211.018 133.731 211.191 133.364 211.448 133.059L216.566 126.375C217.081 125.215 216.479 124.314 215.53 124.314H207.072C206.684 124.275 206.308 124.159 205.966 123.973C205.624 123.787 205.322 123.535 205.078 123.231L200.179 116.309C199.939 116.154 199.655 116.079 199.369 116.096Z" fill="#2F4147"/>
<path d="M212.664 102.312L182.415 95.717C182.415 95.717 177.111 105.035 167.793 108.476C172.954 99.1574 171.95 93.4235 171.95 93.4235L105.719 79.0867C102.047 78.2589 98.8478 76.022 96.8099 72.8579C94.772 69.6938 94.0586 65.8558 94.8234 62.1707L105.719 11.7123C106.546 8.03916 108.784 4.83822 111.949 2.79947C115.115 0.760718 118.955 0.047416 122.641 0.813313L229.874 24.0373C233.545 24.866 236.743 27.1031 238.781 30.2669C240.819 33.4307 241.533 37.2682 240.77 40.9533L229.874 91.4117C228.943 95.0849 226.641 98.2619 223.44 100.289C220.239 102.317 216.382 103.041 212.664 102.312Z" fill="white"/>
<path d="M167.354 108.232C171.669 100.442 171.597 95.1666 171.491 93.8376L105.612 79.5782C101.804 78.736 98.4825 76.4241 96.37 73.1456C94.2575 69.867 93.525 65.8869 94.3318 62.0711L105.23 11.6022C106.071 7.79347 108.382 4.47112 111.661 2.35825C114.94 0.245387 118.921 -0.486985 122.737 0.320526L229.98 23.5471C233.786 24.392 237.105 26.7048 239.215 29.983C241.326 33.2611 242.057 37.2397 241.251 41.0542L230.358 91.5218C229.39 95.3175 227.008 98.5997 223.7 100.697C220.391 102.794 216.406 103.547 212.56 102.802L182.667 96.2845C181.626 97.9883 176.489 105.802 167.972 108.946C167.876 108.982 167.771 108.987 167.672 108.962C167.572 108.936 167.483 108.881 167.415 108.804C167.348 108.726 167.306 108.63 167.295 108.527C167.284 108.425 167.305 108.322 167.354 108.232ZM119.678 1.01384C116.537 1.00858 113.489 2.07718 111.038 4.0424C108.588 6.00761 106.884 8.75134 106.207 11.8185L95.3135 62.2769C94.5615 65.8342 95.2443 69.5445 97.2134 72.601C99.1824 75.6576 102.279 77.8132 105.828 78.5992L172.051 92.9333C172.149 92.9535 172.239 93.0028 172.309 93.0748C172.38 93.1467 172.426 93.2381 172.444 93.337C172.485 93.5663 173.338 98.8494 168.89 107.492C177.147 103.822 181.93 95.5584 181.98 95.4719C182.033 95.3789 182.114 95.3051 182.211 95.2615C182.309 95.2179 182.418 95.2066 182.523 95.2295L212.768 101.823C216.358 102.517 220.077 101.813 223.166 99.8557C226.254 97.898 228.478 94.8342 229.382 91.2911L240.272 40.8511C241.031 37.2932 240.351 33.5794 238.381 30.5211C236.411 27.4628 233.31 25.3085 229.757 24.5288C119.859 0.184222 122.034 1.01384 119.678 1.01384Z" fill="#2F4147"/>
<path d="M211.804 45.467L129.553 27.6808C129.428 27.6481 129.32 27.5683 129.252 27.458C129.184 27.3476 129.162 27.2153 129.189 27.0888C129.217 26.9622 129.292 26.8511 129.399 26.7787C129.507 26.7063 129.638 26.6783 129.766 26.7004L211.91 44.4775C212.027 44.5082 212.129 44.5795 212.197 44.6787C212.265 44.7778 212.296 44.8982 212.283 45.0179C212.27 45.1376 212.215 45.2488 212.127 45.3312C212.039 45.4136 211.925 45.4618 211.804 45.467Z" fill="#2F4147"/>
<path d="M188.293 54.6413L143.46 45.0254C143.33 44.9974 143.216 44.9188 143.144 44.807C143.072 44.6952 143.047 44.5592 143.075 44.429C143.103 44.2988 143.181 44.1851 143.293 44.1129C143.405 44.0406 143.541 44.0157 143.671 44.0437L188.398 53.6492C188.519 53.6756 188.625 53.7456 188.697 53.8457C188.769 53.9458 188.802 54.0691 188.789 54.1917C188.775 54.3142 188.717 54.4276 188.626 54.5104C188.535 54.5932 188.417 54.6398 188.293 54.6413Z" fill="#2F4147"/>
<path d="M205.496 73.7119L124.823 56.3529C124.699 56.3198 124.591 56.24 124.524 56.13C124.457 56.02 124.434 55.8883 124.461 55.7622C124.489 55.6361 124.563 55.5252 124.67 55.4527C124.777 55.3802 124.907 55.3515 125.034 55.3726L205.603 72.7198C205.723 72.7462 205.83 72.8164 205.902 72.9168C205.974 73.0173 206.007 73.1408 205.993 73.2637C205.98 73.3864 205.922 73.5 205.83 73.5826C205.739 73.6653 205.62 73.7113 205.496 73.7119Z" fill="#2F4147"/>
<path d="M127.939 94.1404C127.555 93.0532 126.997 92.0353 126.289 91.126C127.181 89.0282 127.406 86.7062 126.932 84.4762C126.458 82.2461 125.308 80.2164 123.638 78.6634C118.379 73.978 110.066 76.1916 105.114 77.2427C106.02 72.2312 105.329 67.0617 103.138 62.4643C98.5587 53.3058 89.1027 54.2638 87.9415 60.4564C87.5168 63.0292 89.0896 65.1812 89.6623 67.6163C90.0171 69.363 89.9554 71.1688 89.4822 72.8872C89.0091 74.6057 88.1377 76.1885 86.9388 77.5074C83.689 81.0877 79.5257 83.7155 74.8957 85.109C74.8275 87.1024 68.6886 101.966 79.914 116.936C83.7842 121.523 91.0961 121.093 96.543 120.519C101.625 119.873 106.62 118.666 111.435 116.92C117.025 121.223 127.214 113.674 124.248 106.49C126.17 105.154 127.582 103.204 128.253 100.961C128.923 98.7172 128.812 96.3127 127.939 94.1404Z" fill="white"/>
<path d="M126.856 91.0395C127.71 88.8676 127.891 86.489 127.375 84.2129C126.86 81.9368 125.671 79.8685 123.965 78.2768C121.271 75.8771 117.068 74.9203 112.259 75.4341C110.068 75.7093 107.893 76.0959 105.741 76.59C106.437 71.6964 105.689 66.7058 103.586 62.2323C98.7878 52.6282 88.6961 53.6858 87.4458 60.3673C86.9883 63.1196 88.6135 65.3476 89.1692 67.7172C89.506 69.3883 89.4455 71.1152 88.9925 72.7586C88.5394 74.402 87.7066 75.916 86.5611 77.1785C83.3668 80.6823 79.2843 83.2568 74.746 84.6293C74.6189 84.6691 74.5129 84.7577 74.4512 84.8757C74.3895 84.9937 74.3772 85.1313 74.417 85.2584C74.4568 85.3854 74.5454 85.4915 74.6634 85.5532C74.7814 85.6149 74.919 85.6271 75.0461 85.5873C79.7666 84.1753 84.0092 81.4953 87.3121 77.839C88.563 76.4588 89.4716 74.8036 89.9645 73.0072C90.4575 71.2109 90.5208 69.3237 90.1495 67.4983C89.5729 65.041 88.0342 62.94 88.4353 60.5377C89.4955 54.8785 98.3172 53.9349 102.687 62.6714C105.177 67.9007 105.688 73.8535 104.128 79.4314C103.901 80.2927 103.887 81.1966 104.088 82.0644C105.181 86.7453 104.885 91.6431 103.238 96.1587C101.591 100.674 98.6637 104.612 94.814 107.49C94.7185 107.574 94.658 107.69 94.6447 107.816C94.6315 107.943 94.6663 108.069 94.7424 108.171C94.8184 108.272 94.9301 108.341 95.0549 108.364C95.1797 108.387 95.3085 108.362 95.4156 108.294C99.4095 105.315 102.45 101.239 104.166 96.5617C105.882 91.8845 106.199 86.8088 105.079 81.9543C104.921 81.2437 104.915 80.5077 105.06 79.7945C105.257 79.0841 105.421 78.3711 105.554 77.6569C107.803 77.1303 110.078 76.7217 112.37 76.4327C116.9 75.9491 120.83 76.8259 123.299 79.0251C129.328 84.3986 127.362 95.1181 117.502 97.8101C112.886 98.9241 107.921 98.3998 107.803 93.7092C107.798 92.5728 108.076 91.4531 108.611 90.4508C109.147 89.4484 109.923 88.595 110.87 87.9674C112.84 86.6668 115.021 85.7186 117.316 85.1653C117.443 85.1315 117.552 85.0489 117.62 84.9353C117.687 84.8217 117.706 84.6862 117.674 84.5582C117.642 84.4302 117.561 84.32 117.448 84.2514C117.336 84.1828 117.2 84.1613 117.072 84.1916C114.66 84.7748 112.369 85.774 110.3 87.1444C106.474 89.7394 105.389 95.5165 108.95 98.0709C105.813 100.903 106.218 105.68 110.03 108.294C109.026 109.703 108.542 111.417 108.661 113.143C108.857 114.486 109.477 115.732 110.43 116.699C102.405 119.539 93.3186 121.376 84.1653 119.608C84.0358 119.586 83.9027 119.615 83.7946 119.69C83.6865 119.765 83.612 119.879 83.5871 120.008C83.5622 120.137 83.5889 120.27 83.6615 120.38C83.7341 120.49 83.8467 120.566 83.9753 120.594C93.1495 122.367 102.438 120.658 111.303 117.448C117.127 121.659 127.554 114.303 124.849 106.671C126.014 105.782 126.991 104.67 127.723 103.4C128.457 102.131 128.931 100.728 129.118 99.2745C129.304 97.8205 129.2 96.344 128.811 94.9307C128.423 93.517 127.759 92.1943 126.856 91.0395ZM113.204 117.322C112.286 116.987 111.473 116.413 110.851 115.658C110.229 114.903 109.82 113.996 109.666 113.03C109.565 111.518 110.002 110.019 110.899 108.798C112.027 109.383 113.279 109.69 114.55 109.692C117.887 110.035 121.237 109.181 124.001 107.279C125.746 113.016 118.818 119.14 113.204 117.322ZM125.172 105.093C123.771 106.412 122.104 107.416 120.282 108.036C118.461 108.657 116.528 108.88 114.613 108.691C108.902 108.691 105.425 102.216 109.886 98.5991C112.427 99.4754 115.177 99.5395 117.756 98.7825C119.583 98.3393 121.296 97.517 122.785 96.3692C124.273 95.2213 125.504 93.7734 126.397 92.1194C127.752 94.082 128.372 96.4597 128.146 98.834C127.921 101.208 126.865 103.427 125.165 105.1L125.172 105.093Z" fill="#2F4147"/>
<path d="M84.9976 121.737C84.9793 121.605 84.8299 121.773 79.3869 97.8835C77.8758 91.2557 76.5717 85.531 76.2415 84.2662C76.2095 84.141 76.1301 84.033 76.0201 83.965C75.9101 83.8971 75.778 83.8745 75.6517 83.9019C72.9165 84.4773 70.1406 85.2125 67.4853 85.9071C67.3438 85.936 53.1761 88.8403 53.1787 90.4602C54.3293 102.65 56.9328 114.66 60.9336 126.232C61.0058 126.567 61.1512 126.883 61.3594 127.156C61.5676 127.429 61.8335 127.652 62.1381 127.811C62.4427 127.969 62.7785 128.058 63.1215 128.071C63.4645 128.085 63.8062 128.022 64.1223 127.889C71.2782 126.098 78.1851 124.219 84.6438 122.291C84.7593 122.256 84.8585 122.181 84.9234 122.079C84.9884 121.978 85.0147 121.856 84.9976 121.737Z" fill="#2F4147"/>
<path d="M226.71 110.934C230.765 108.051 235.024 104.826 239.732 101.059C239.783 101.016 239.843 100.983 239.907 100.963C239.971 100.944 240.039 100.937 240.106 100.943C240.172 100.95 240.237 100.97 240.296 101.002C240.355 101.034 240.407 101.078 240.449 101.13C240.491 101.183 240.522 101.243 240.54 101.308C240.559 101.372 240.564 101.44 240.555 101.507C240.547 101.573 240.525 101.638 240.492 101.696C240.458 101.754 240.413 101.805 240.36 101.845C235.642 105.624 231.361 108.865 227.29 111.755C227.237 111.793 227.176 111.82 227.111 111.835C227.047 111.849 226.98 111.851 226.915 111.84C226.85 111.829 226.788 111.805 226.732 111.77C226.676 111.735 226.628 111.689 226.59 111.635C226.552 111.581 226.525 111.52 226.51 111.456C226.495 111.392 226.494 111.325 226.505 111.26C226.516 111.195 226.54 111.133 226.575 111.077C226.61 111.021 226.656 110.973 226.71 110.934Z" fill="#2F4147"/>
<path d="M229.724 124.747C229.592 124.75 229.463 124.7 229.367 124.608C229.271 124.516 229.215 124.39 229.212 124.257C229.209 124.124 229.259 123.995 229.351 123.899C229.443 123.803 229.569 123.747 229.702 123.744C236.31 123.434 242.896 122.765 249.432 121.742C249.562 121.725 249.694 121.759 249.799 121.838C249.904 121.917 249.974 122.034 249.994 122.164C250.014 122.293 249.982 122.426 249.905 122.532C249.868 122.585 249.82 122.63 249.765 122.665C249.71 122.7 249.648 122.723 249.584 122.734C243.01 123.797 236.378 124.469 229.724 124.747Z" fill="#2F4147"/>
<path d="M241.051 142.667C236.967 141.968 232.843 141.537 228.703 141.376C228.606 141.37 228.514 141.335 228.436 141.277C228.358 141.218 228.299 141.139 228.266 141.048C228.233 140.956 228.227 140.857 228.249 140.763C228.271 140.668 228.32 140.582 228.39 140.515C228.483 140.424 228.608 140.373 228.737 140.373C232.895 140.52 237.036 140.954 241.134 141.671C241.258 141.693 241.368 141.76 241.444 141.859C241.52 141.958 241.557 142.082 241.546 142.207C241.535 142.331 241.479 142.447 241.387 142.532C241.295 142.618 241.176 142.665 241.051 142.667Z" fill="#2F4147"/>
<path d="M22.5659 140.997C18.1308 137.852 13.7849 134.515 9.63417 131.082C9.53218 130.997 9.46804 130.875 9.45577 130.743C9.44349 130.61 9.48407 130.479 9.56864 130.376C9.61049 130.326 9.6619 130.284 9.71993 130.253C9.77796 130.223 9.84146 130.204 9.90678 130.198C9.97237 130.191 10.0386 130.198 10.1016 130.217C10.1646 130.237 10.2231 130.268 10.2737 130.311C22.2396 140.215 23.9041 139.979 23.2658 140.879C23.188 140.987 23.071 141.059 22.94 141.082C22.8091 141.104 22.6747 141.073 22.5659 140.997Z" fill="#2F4147"/>
<path d="M20.2827 153.992C13.6266 153.715 6.99291 153.043 0.416496 151.98C0.286665 151.959 0.170641 151.886 0.0937755 151.78C0.0169097 151.673 -0.0145479 151.54 0.00627611 151.41C0.0263817 151.28 0.0966337 151.163 0.201977 151.084C0.307321 151.005 0.439374 150.971 0.569837 150.988C18.6248 153.74 20.8318 152.279 20.7768 153.512C20.7714 153.64 20.7172 153.761 20.6253 153.85C20.5334 153.94 20.4108 153.99 20.2827 153.992Z" fill="#2F4147"/>
<path d="M9.66668 174.207C9.58573 174.205 9.5063 174.185 9.43506 174.146C9.36382 174.108 9.30284 174.053 9.25726 173.986C9.21167 173.919 9.18281 173.842 9.17309 173.762C9.16337 173.681 9.17309 173.6 9.20141 173.524C9.24057 173.422 9.31192 173.336 9.40455 173.279C12.9066 171.118 16.5732 169.236 20.3704 167.651C20.4618 167.611 20.563 167.6 20.6609 167.618C20.7588 167.636 20.8491 167.684 20.9201 167.753C20.9912 167.823 21.0398 167.913 21.0598 168.01C21.0798 168.108 21.0702 168.209 21.0323 168.301C20.9824 168.424 20.8858 168.523 20.7636 168.575C16.9562 170.23 13.2507 172.111 9.66668 174.207Z" fill="#2F4147"/>
</svg>
