<svg width="250" height="222" viewBox="0 0 250 222" fill="none" xmlns="http://www.w3.org/2000/svg">
<path d="M157.525 158.005H2.95639C2.32535 157.989 1.72448 157.731 1.27825 157.285C0.832014 156.838 0.574603 156.237 0.559326 155.606V53.3067C0.574616 52.6757 0.832072 52.0749 1.27834 51.6286C1.7246 51.1823 2.32546 50.9249 2.95639 50.9096H157.521C158.152 50.9249 158.753 51.1823 159.199 51.6286C159.646 52.0749 159.903 52.6757 159.918 53.3067V155.608C159.924 155.923 159.866 156.238 159.747 156.53C159.629 156.823 159.454 157.09 159.23 157.314C159.007 157.538 158.741 157.714 158.447 157.832C158.155 157.951 157.841 158.01 157.525 158.005Z" fill="#E2FD86"/>
<path d="M157.525 158.564H2.95638C2.17835 158.544 1.4377 158.226 0.88749 157.676C0.33728 157.125 0.0195636 156.384 0 155.606V53.3067C0.0198941 52.5288 0.337756 51.7884 0.887931 51.2382C1.43811 50.688 2.17857 50.3702 2.95638 50.3503H157.521C158.299 50.3695 159.04 50.6872 159.591 51.2375C160.141 51.7878 160.459 52.5286 160.478 53.3067V155.608C160.481 155.997 160.408 156.383 160.261 156.743C160.114 157.103 159.897 157.431 159.622 157.706C159.347 157.981 159.02 158.198 158.66 158.345C158.3 158.493 157.914 158.567 157.525 158.564ZM2.96031 51.4689C2.48015 51.4883 2.02487 51.6877 1.68507 52.0275C1.34527 52.3673 1.14585 52.8226 1.12649 53.3027V155.604C1.14585 156.084 1.34527 156.539 1.68507 156.879C2.02487 157.219 2.48015 157.418 2.96031 157.438H157.525C157.767 157.443 158.008 157.399 158.233 157.308C158.457 157.218 158.661 157.083 158.833 156.911C159.003 156.739 159.137 156.535 159.228 156.31C159.318 156.086 159.363 155.846 159.359 155.604V53.3067C159.339 52.8268 159.139 52.372 158.8 52.0324C158.46 51.6928 158.005 51.4931 157.525 51.4728L2.96031 51.4689Z" fill="#2F473F"/>
<path d="M12.5472 56.7438H148.094C148.878 56.7445 149.63 57.0563 150.185 57.6108C150.739 58.1653 151.051 58.9172 151.052 59.7015V149.213C151.052 149.997 150.74 150.749 150.186 151.303C149.632 151.858 148.88 152.169 148.095 152.169H12.5472C11.7632 152.169 11.0115 151.857 10.4571 151.303C9.90275 150.749 9.59117 149.997 9.59082 149.213V59.7015C9.59117 58.9174 9.90271 58.1655 10.457 57.6109C11.0113 57.0563 11.7631 56.7445 12.5472 56.7438Z" fill="#2F473F"/>
<path d="M47.7134 214.908L213.15 211.393L159.922 158.165H0.878906L47.7134 214.908Z" fill="#E2FD86"/>
<path d="M213.544 210.997C160.812 156.737 160.29 157.605 159.92 157.605H0.874796C0.797988 157.606 0.722111 157.622 0.652118 157.654C0.5816 157.684 0.518316 157.729 0.466402 157.786C0.414488 157.843 0.375112 157.91 0.350847 157.983C0.325828 158.055 0.316019 158.132 0.32203 158.209C0.694033 163.212 0.606272 162.955 0.760837 163.149C47.5233 221.675 47.2836 221.541 47.7132 221.541L213.165 217.706C213.311 217.702 213.449 217.642 213.551 217.537C213.653 217.433 213.711 217.293 213.711 217.147C213.711 210.836 213.785 211.238 213.544 210.997ZM47.9765 214.344L2.06547 158.724H159.69L211.823 210.857L47.9765 214.344Z" fill="#2F473F"/>
<path d="M114.368 209.873C114.283 209.873 114.2 209.853 114.123 209.817C114.047 209.78 113.98 209.726 113.928 209.66L98.5824 190.16C98.5181 190.077 98.4781 189.978 98.4672 189.874C98.4562 189.769 98.4747 189.664 98.5206 189.57C98.5664 189.476 98.6377 189.396 98.7264 189.34C98.8152 189.285 98.9178 189.255 99.0226 189.254H139.464C139.843 189.254 139.595 189.123 156.657 207.494C156.731 207.573 156.78 207.671 156.798 207.777C156.817 207.883 156.804 207.992 156.762 208.09C156.72 208.189 156.651 208.274 156.563 208.335C156.475 208.396 156.371 208.431 156.264 208.435L114.368 209.873ZM100.175 190.373L114.632 208.749L155.003 207.362L139.219 190.377L100.175 190.373Z" fill="#2F473F"/>
<path d="M181.265 185.748C157.802 161.494 158.057 161.602 157.688 161.602H13.5061C13.3978 161.601 13.2917 161.632 13.2007 161.691C13.1097 161.749 13.0377 161.833 12.9936 161.932C12.9494 162.031 12.935 162.141 12.952 162.248C12.9691 162.354 13.0168 162.454 13.0895 162.534L35.6272 187.63C35.8983 187.931 35.7385 187.672 180.867 186.696C180.976 186.695 181.083 186.662 181.173 186.601C181.264 186.54 181.335 186.454 181.377 186.353C181.42 186.252 181.432 186.141 181.412 186.034C181.393 185.926 181.341 185.827 181.265 185.748ZM170.276 175.991L27.2506 176.627L20.358 168.951L163.01 168.473L170.276 175.991ZM157.448 162.72L161.936 167.357L19.3599 167.834L14.7649 162.719L157.448 162.72ZM36.2926 186.691L28.25 177.737L171.354 177.1L179.553 185.584L36.2926 186.691Z" fill="#2F473F"/>
<path d="M212.831 32.8477C196.164 25.8098 179.903 38.4619 179.903 55.5452C179.903 62.4181 182.302 66.0949 183.58 72.6482C184.858 79.2015 182.139 85.9146 179.424 91.9898L194.609 98.065C196.848 91.83 199.564 85.1169 205.159 81.4414C210.753 77.7659 214.91 76.646 219.699 71.6907C231.648 59.7434 228.393 39.4181 212.831 32.8477Z" fill="white"/>
<path d="M190.773 109.572C190.773 109.572 189.638 111.051 181.501 107.813C173.173 104.499 173.829 102.705 173.829 102.705L180.063 87.1931C181.776 89.9765 194.037 94.9148 197.006 94.066L190.773 109.572Z" fill="#E2FD86"/>
<path d="M213.039 32.3277C196.359 25.2911 179.344 37.8004 179.344 55.5452C179.409 59.2403 180.082 62.8995 181.334 66.3766C183.608 73.7341 184.58 77.631 180.832 87.2337C180.469 86.8656 180.408 86.6049 180.016 86.6364C179.913 86.6456 179.814 86.6829 179.731 86.7444C179.648 86.8059 179.583 86.889 179.544 86.9848L173.304 102.507C172.102 105.809 190.211 112.519 191.291 109.781L197.526 94.2756C197.579 94.1415 197.578 93.9922 197.524 93.8589C197.469 93.7256 197.365 93.6186 197.233 93.5604C197.146 93.5211 197.051 93.5045 196.957 93.5119C198.921 88.8605 201.428 84.5602 205.471 81.9064C211.069 78.227 215.236 77.1162 220.105 72.0824C232.18 60.004 229.172 39.1338 213.039 32.3277ZM190.317 109.205C189.966 109.351 188.116 109.807 181.711 107.296C174.733 104.477 174.391 102.904 174.351 102.904L180.245 88.2331C183.323 91.1083 192.152 94.6515 196.144 94.7013L190.317 109.205ZM195.687 62.7757C197.995 63.7673 200.403 64.6737 202.988 65.516C201.295 68.5775 199.772 71.7304 198.426 74.9602C195.567 80.8153 193.187 86.3901 190.507 92.312C188.755 91.7037 187.041 90.9925 185.373 90.1822C189.339 81.2545 192.781 72.1035 195.683 62.7757H195.687ZM195.024 61.2641C193.769 60.8312 192.627 60.1196 191.686 59.1827C190.707 58.0039 190.993 55.8858 192.709 55.8858C193.205 55.8975 193.687 56.051 194.099 56.3281C194.511 56.6053 194.835 56.9945 195.032 57.4498C195.364 58.7007 195.36 60.0158 195.021 61.2641H195.024ZM219.308 71.3004C216.631 73.9794 213.529 76.1977 210.129 77.8655C203.337 81.6078 199.821 83.6289 195.734 93.5499C194.32 93.4123 192.925 93.1153 191.577 92.6644C192.363 90.9367 193.124 89.2221 193.885 87.514C198.534 77.0743 199.033 76.4429 200.294 73.5259C201.375 70.8863 202.644 68.328 204.093 65.871C205.876 66.6439 207.882 66.7311 209.725 66.1159C210.18 65.8677 210.568 65.5141 210.857 65.0846C211.146 64.6552 211.328 64.1625 211.387 63.6481C211.424 63.1934 211.345 62.7368 211.159 62.3205C210.973 61.9041 210.684 61.5413 210.321 61.2654C209.957 60.9904 209.53 60.8113 209.079 60.7447C208.628 60.6781 208.167 60.7261 207.739 60.8843C205.984 61.5938 204.526 62.8855 203.609 64.5427C201.049 63.7205 198.53 62.7785 196.058 61.72C196.491 60.2161 196.503 58.6222 196.093 57.1118C195.859 56.5303 195.483 56.0166 194.999 55.6174C194.515 55.2182 193.94 54.9462 193.324 54.8261C190.319 54.2458 189.027 57.7458 190.856 59.9346C191.928 61.0058 193.226 61.8232 194.655 62.3264C191.72 71.619 188.286 80.7463 184.367 89.6687C183.444 89.1858 182.56 88.6304 181.724 88.0078C183.733 82.9478 185.13 77.7096 184.124 72.5395C182.837 65.943 180.456 62.3094 180.456 55.5439C180.456 38.826 196.226 27.0109 211.817 33.0455C227.732 39.2032 231.081 59.5207 219.308 71.3004ZM204.735 64.899C206.09 62.9683 208.009 60.9629 209.91 62.3631C210.696 63.039 210.146 64.6488 209.297 65.0837C207.803 65.5726 206.184 65.507 204.735 64.899Z" fill="#2F473F"/>
<path d="M178.012 92.6369C177.929 92.5165 177.897 92.3687 177.922 92.2249C177.947 92.0811 178.027 91.9528 178.146 91.8674C178.264 91.7819 178.411 91.746 178.555 91.7675C178.7 91.7889 178.83 91.8658 178.918 91.982C180.752 94.5152 188.039 99.0998 194.876 98.4658C195.022 98.4556 195.166 98.5028 195.277 98.5972C195.389 98.6917 195.459 98.826 195.472 98.9714C195.486 99.1168 195.442 99.2617 195.351 99.3753C195.259 99.4889 195.126 99.5621 194.981 99.5792C188.509 100.182 180.563 96.1696 178.012 92.6369Z" fill="#2F473F"/>
<path d="M192.691 105.336C186.446 105.18 180.445 102.873 175.702 98.8064C175.59 98.7096 175.521 98.5722 175.51 98.4243C175.499 98.2764 175.547 98.1302 175.643 98.0179C175.74 97.9055 175.878 97.8361 176.026 97.8251C176.173 97.814 176.32 97.8622 176.432 97.9589C180.975 101.856 186.722 104.068 192.706 104.221C192.846 104.234 192.975 104.299 193.069 104.404C193.163 104.508 193.214 104.644 193.211 104.785C193.21 104.925 193.155 105.06 193.059 105.162C192.963 105.264 192.832 105.326 192.691 105.336Z" fill="#2F473F"/>
<path d="M173.669 30.2136C173.317 30.2136 173.815 30.621 164.951 21.2475C164.874 21.1676 164.823 21.0663 164.805 20.957C164.786 20.8476 164.801 20.7352 164.847 20.6345C164.893 20.5338 164.968 20.4488 165.061 20.3899C165.155 20.331 165.263 20.3008 165.374 20.3031C165.447 20.3051 165.52 20.3217 165.587 20.3518C165.654 20.382 165.714 20.4251 165.764 20.4786L174.076 29.2692C174.148 29.3494 174.197 29.4489 174.215 29.5558C174.233 29.6627 174.219 29.7725 174.177 29.8721C174.134 29.9717 174.063 30.0569 173.973 30.1175C173.883 30.178 173.778 30.2114 173.669 30.2136Z" fill="#2F473F"/>
<path d="M204.362 13.9057C204.215 13.9053 204.074 13.8473 203.969 13.744C203.864 13.6406 203.803 13.5002 203.8 13.3529L203.641 0.565921C203.64 0.417783 203.697 0.27522 203.801 0.169248C203.904 0.063276 204.045 0.00246937 204.193 5.58862e-05C204.267 -0.000982837 204.34 0.0124673 204.408 0.0396353C204.476 0.0668033 204.538 0.107155 204.591 0.158381C204.643 0.209607 204.685 0.270699 204.714 0.338159C204.743 0.405618 204.758 0.47812 204.759 0.551512L204.919 13.3398C204.92 13.4136 204.906 13.4868 204.879 13.5553C204.851 13.6237 204.81 13.686 204.759 13.7386C204.707 13.7912 204.645 13.833 204.577 13.8617C204.509 13.8904 204.436 13.9053 204.362 13.9057Z" fill="#2F473F"/>
<path d="M235.849 29.5704C235.727 29.5706 235.608 29.5307 235.511 29.457C235.414 29.3832 235.343 29.2797 235.31 29.1621C235.277 29.0445 235.284 28.9194 235.328 28.8058C235.373 28.6922 235.454 28.5964 235.558 28.533L246.907 21.6588C247.034 21.5819 247.186 21.5585 247.331 21.5939C247.475 21.6292 247.599 21.7205 247.676 21.8474C247.753 21.9744 247.776 22.1267 247.741 22.2709C247.706 22.4151 247.614 22.5394 247.487 22.6163C235.887 29.6346 236.09 29.5704 235.849 29.5704Z" fill="#2F473F"/>
<path d="M249.435 59.9477L237.4 58.9863C237.289 58.9782 237.183 58.9372 237.096 58.8685C237.008 58.7998 236.943 58.7065 236.909 58.6007C236.875 58.4948 236.874 58.3812 236.905 58.2744C236.936 58.1676 236.998 58.0725 237.083 58.0012C237.139 57.9537 237.204 57.9176 237.274 57.8951C237.344 57.8727 237.417 57.8642 237.49 57.8702L249.478 58.8304C249.623 58.8411 249.758 58.9073 249.855 59.0152C249.952 59.1231 250.004 59.2643 250 59.4093C249.994 59.5547 249.932 59.6921 249.826 59.7924C249.721 59.8926 249.581 59.9479 249.435 59.9464V59.9477Z" fill="#2F473F"/>
<path d="M129.873 22.9372H27.4131V141.861H129.873V22.9372Z" fill="white"/>
<path d="M130.432 141.861C130.432 141.934 130.417 142.007 130.389 142.074C130.361 142.142 130.32 142.204 130.268 142.256C130.216 142.308 130.154 142.349 130.086 142.377C130.019 142.405 129.946 142.42 129.872 142.42H27.4116C27.3383 142.42 27.2657 142.405 27.1981 142.377C27.1295 142.35 27.0671 142.309 27.0148 142.257C26.9625 142.205 26.9215 142.143 26.8942 142.074C26.8662 142.006 26.852 141.934 26.8523 141.861V22.9372C26.8523 22.7889 26.9112 22.6466 27.0161 22.5418C27.121 22.4369 27.2633 22.3779 27.4116 22.3779H129.871C129.982 22.3774 130.09 22.4101 130.182 22.4717C130.274 22.5333 130.346 22.6211 130.387 22.7237C130.416 22.7913 130.431 22.8639 130.431 22.9372L130.432 141.861ZM27.9722 141.301H129.32V23.4966H27.9722V141.301Z" fill="#2F473F"/>
<path d="M119.483 74.5659H37.9629V133.548H119.483V74.5659Z" fill="#E2FD86"/>
<path d="M118.684 34.8453H37.803C37.6546 34.8453 37.5124 34.7864 37.4075 34.6815C37.3026 34.5766 37.2437 34.4343 37.2437 34.286C37.2437 34.1376 37.3026 33.9954 37.4075 33.8905C37.5124 33.7856 37.6546 33.7267 37.803 33.7267H118.684C118.832 33.7267 118.974 33.7856 119.079 33.8905C119.184 33.9954 119.243 34.1376 119.243 34.286C119.243 34.4343 119.184 34.5766 119.079 34.6815C118.974 34.7864 118.832 34.8453 118.684 34.8453Z" fill="#2F473F"/>
<path d="M96.3111 44.2764H37.803C37.6546 44.2764 37.5124 44.2175 37.4075 44.1126C37.3026 44.0077 37.2437 43.8654 37.2437 43.7171C37.2437 43.5687 37.3026 43.4265 37.4075 43.3216C37.5124 43.2167 37.6546 43.1578 37.803 43.1578H96.3111C96.4594 43.1578 96.6017 43.2167 96.7066 43.3216C96.8114 43.4265 96.8704 43.5687 96.8704 43.7171C96.8704 43.8654 96.8114 44.0077 96.7066 44.1126C96.6017 44.2175 96.4594 44.2764 96.3111 44.2764Z" fill="#2F473F"/>
<path d="M117.245 54.1843H37.803C37.6546 54.1843 37.5124 54.1253 37.4075 54.0204C37.3026 53.9156 37.2437 53.7733 37.2437 53.625C37.2437 53.4766 37.3026 53.3343 37.4075 53.2295C37.5124 53.1246 37.6546 53.0656 37.803 53.0656H117.245C117.394 53.0656 117.536 53.1246 117.641 53.2295C117.746 53.3343 117.805 53.4766 117.805 53.625C117.805 53.7733 117.746 53.9156 117.641 54.0204C117.536 54.1253 117.394 54.1843 117.245 54.1843Z" fill="#2F473F"/>
<path d="M107.175 63.7765H37.803C37.6546 63.7765 37.5124 63.7175 37.4075 63.6126C37.3026 63.5078 37.2437 63.3655 37.2437 63.2171C37.2437 63.0688 37.3026 62.9265 37.4075 62.8217C37.5124 62.7168 37.6546 62.6578 37.803 62.6578H107.175C107.323 62.6578 107.466 62.7168 107.571 62.8217C107.676 62.9265 107.734 63.0688 107.734 63.2171C107.734 63.3655 107.676 63.5078 107.571 63.6126C107.466 63.7175 107.323 63.7765 107.175 63.7765Z" fill="#2F473F"/>
<path d="M119.483 74.0066H37.9629C37.8145 74.0066 37.6723 74.0655 37.5674 74.1704C37.4625 74.2753 37.4036 74.4176 37.4036 74.5659V133.548C37.4036 133.696 37.4625 133.839 37.5674 133.944C37.6723 134.049 37.8145 134.107 37.9629 134.107H119.483C119.631 134.107 119.773 134.049 119.878 133.944C119.983 133.839 120.042 133.696 120.042 133.548V74.5659C120.042 74.4924 120.028 74.4197 120 74.3518C119.971 74.284 119.93 74.2223 119.878 74.1704C119.826 74.1185 119.765 74.0773 119.697 74.0491C119.629 74.021 119.556 74.0066 119.483 74.0066ZM118.924 75.1252V122.908C102.263 119.158 87.4866 109.951 74.6996 101.902C71.7236 100.029 68.6401 98.1436 65.1375 98.1436C58.0642 98.1436 54.2656 104.955 38.5235 114.064V75.1252H118.924ZM38.5235 132.989V115.355C54.5564 106.199 58.5384 99.2622 65.1362 99.2622C68.3585 99.2622 71.3502 101.118 74.1036 102.849C87.032 110.97 101.984 120.297 118.924 124.053V132.989H38.5235Z" fill="#2F473F"/>
<path d="M101.74 96.3844C100.348 96.3684 99.0041 95.867 97.9413 94.9668C96.8785 94.0666 96.163 92.8239 95.918 91.4528C94.8544 85.9592 102.398 81.4453 106.622 85.8465C110.327 89.7355 106.692 96.4565 101.74 96.3844ZM99.9786 85.836C94.9605 88.4361 96.5808 94.9475 101.755 95.2671C105.78 95.2514 108.79 89.7447 105.815 86.622C105.069 85.8589 104.09 85.367 103.032 85.2246C101.975 85.0822 100.9 85.2974 99.9786 85.836Z" fill="#2F473F"/>
</svg>
