<svg width="250" height="222" viewBox="0 0 250 222" fill="none" xmlns="http://www.w3.org/2000/svg">
<path d="M157.525 158.005H2.95639C2.32535 157.99 1.72448 157.732 1.27825 157.286C0.832014 156.839 0.574603 156.238 0.559326 155.607V53.3072C0.574616 52.6763 0.832072 52.0754 1.27834 51.6292C1.7246 51.1829 2.32546 50.9254 2.95639 50.9102H157.521C158.152 50.9254 158.753 51.1829 159.199 51.6292C159.646 52.0754 159.903 52.6763 159.918 53.3072V155.608C159.924 155.924 159.866 156.238 159.747 156.53C159.629 156.824 159.454 157.091 159.23 157.314C159.007 157.538 158.741 157.714 158.447 157.832C158.155 157.952 157.841 158.011 157.525 158.005Z" fill="#F2F4F8"/>
<path d="M157.525 158.564H2.95638C2.17835 158.545 1.4377 158.226 0.88749 157.676C0.33728 157.126 0.0195636 156.385 0 155.607V53.307C0.0198941 52.5292 0.337756 51.7887 0.887931 51.2385C1.43811 50.6883 2.17857 50.3705 2.95638 50.3506H157.521C158.299 50.3698 159.04 50.6875 159.591 51.2378C160.141 51.7881 160.459 52.529 160.478 53.307V155.608C160.481 155.997 160.408 156.383 160.261 156.743C160.114 157.103 159.897 157.431 159.622 157.706C159.347 157.981 159.02 158.198 158.66 158.346C158.3 158.493 157.914 158.567 157.525 158.564ZM2.96031 51.4692C2.48015 51.4886 2.02487 51.688 1.68507 52.0278C1.34527 52.3676 1.14585 52.8229 1.12649 53.303V155.604C1.14585 156.084 1.34527 156.54 1.68507 156.879C2.02487 157.219 2.48015 157.419 2.96031 157.438H157.525C157.767 157.443 158.008 157.399 158.233 157.308C158.457 157.218 158.661 157.083 158.833 156.911C159.003 156.739 159.137 156.535 159.228 156.311C159.318 156.086 159.363 155.846 159.359 155.604V53.307C159.339 52.8271 159.139 52.3723 158.8 52.0327C158.46 51.6931 158.005 51.4934 157.525 51.4731L2.96031 51.4692Z" fill="#343A3F"/>
<path d="M12.5472 56.7441H148.094C148.878 56.7448 149.63 57.0567 150.185 57.6112C150.739 58.1657 151.051 58.9176 151.052 59.7018V149.213C151.052 149.997 150.74 150.749 150.186 151.304C149.632 151.858 148.88 152.17 148.095 152.17H12.5472C11.7632 152.169 11.0115 151.858 10.4571 151.303C9.90275 150.749 9.59117 149.997 9.59082 149.213V59.7018C9.59117 58.9177 9.90271 58.1658 10.457 57.6113C11.0113 57.0567 11.7631 56.7448 12.5472 56.7441Z" fill="#343A3F"/>
<path d="M47.7134 214.909L213.15 211.393L159.922 158.165H0.878906L47.7134 214.909Z" fill="#F2F4F8"/>
<path d="M213.544 210.997C160.812 156.737 160.29 157.605 159.92 157.605H0.874796C0.797988 157.606 0.722111 157.622 0.652118 157.654C0.5816 157.684 0.518316 157.729 0.466402 157.786C0.414488 157.843 0.375112 157.91 0.350847 157.983C0.325828 158.055 0.316019 158.132 0.32203 158.209C0.694033 163.212 0.606272 162.955 0.760837 163.149C47.5233 221.675 47.2836 221.542 47.7132 221.542L213.165 217.706C213.311 217.702 213.449 217.642 213.551 217.537C213.653 217.433 213.711 217.293 213.711 217.147C213.711 210.836 213.785 211.238 213.544 210.997ZM47.9765 214.344L2.06547 158.724H159.69L211.823 210.857L47.9765 214.344Z" fill="#343A3F"/>
<path d="M114.368 209.874C114.283 209.873 114.2 209.854 114.123 209.817C114.047 209.78 113.98 209.726 113.928 209.66L98.5824 190.16C98.5181 190.077 98.4781 189.978 98.4672 189.874C98.4562 189.77 98.4747 189.665 98.5206 189.57C98.5664 189.476 98.6377 189.397 98.7264 189.341C98.8152 189.285 98.9178 189.255 99.0226 189.255H139.464C139.843 189.255 139.595 189.124 156.657 207.495C156.731 207.573 156.78 207.671 156.798 207.777C156.817 207.883 156.804 207.992 156.762 208.091C156.72 208.19 156.651 208.275 156.563 208.336C156.475 208.397 156.371 208.431 156.264 208.435L114.368 209.874ZM100.175 190.374L114.632 208.75L155.003 207.363L139.219 190.377L100.175 190.374Z" fill="#343A3F"/>
<path d="M181.265 185.748C157.802 161.494 158.057 161.602 157.688 161.602H13.5061C13.3978 161.601 13.2917 161.632 13.2007 161.691C13.1097 161.749 13.0377 161.833 12.9936 161.932C12.9494 162.031 12.935 162.14 12.952 162.247C12.9691 162.354 13.0168 162.454 13.0895 162.534L35.6272 187.63C35.8983 187.931 35.7385 187.672 180.867 186.696C180.976 186.695 181.083 186.662 181.173 186.601C181.264 186.54 181.335 186.454 181.377 186.353C181.42 186.252 181.432 186.141 181.412 186.034C181.393 185.926 181.341 185.827 181.265 185.748ZM170.276 175.991L27.2506 176.627L20.358 168.951L163.01 168.473L170.276 175.991ZM157.448 162.72L161.936 167.357L19.3599 167.834L14.7649 162.719L157.448 162.72ZM36.2926 186.691L28.25 177.737L171.354 177.1L179.553 185.584L36.2926 186.691Z" fill="#343A3F"/>
<path d="M212.831 32.8477C196.164 25.8097 179.903 38.4618 179.903 55.5451C179.903 62.418 182.302 66.0949 183.58 72.6481C184.858 79.2014 182.139 85.9145 179.424 91.9897L194.609 98.0649C196.848 91.8299 199.564 85.1168 205.159 81.4413C210.753 77.7658 214.91 76.6459 219.699 71.6906C231.648 59.7433 228.393 39.418 212.831 32.8477Z" fill="white"/>
<path d="M190.773 109.573C190.773 109.573 189.638 111.051 181.501 107.813C173.173 104.499 173.829 102.705 173.829 102.705L180.063 87.1934C181.776 89.9768 194.037 94.9151 197.006 94.0663L190.773 109.573Z" fill="#F2F4F8"/>
<path d="M213.039 32.3279C196.359 25.2912 179.344 37.8005 179.344 55.5454C179.409 59.2405 180.082 62.8997 181.334 66.3767C183.608 73.7343 184.58 77.6312 180.832 87.2338C180.469 86.8658 180.408 86.6051 180.016 86.6365C179.913 86.6457 179.814 86.6831 179.731 86.7445C179.648 86.806 179.583 86.8892 179.544 86.985L173.304 102.507C172.102 105.809 190.211 112.52 191.291 109.781L197.526 94.2757C197.579 94.1417 197.578 93.9924 197.524 93.8591C197.469 93.7258 197.365 93.6188 197.233 93.5605C197.146 93.5213 197.051 93.5046 196.957 93.5121C198.921 88.8607 201.428 84.5604 205.471 81.9066C211.069 78.2271 215.236 77.1164 220.105 72.0825C232.18 60.0042 229.172 39.134 213.039 32.3279ZM190.317 109.206C189.966 109.351 188.116 109.807 181.711 107.296C174.733 104.477 174.391 102.904 174.351 102.904L180.245 88.2333C183.323 91.1084 192.152 94.6516 196.144 94.7014L190.317 109.206ZM195.687 62.7759C197.995 63.7675 200.403 64.6739 202.988 65.5161C201.295 68.5777 199.772 71.7306 198.426 74.9603C195.567 80.8155 193.187 86.3903 190.507 92.3122C188.755 91.7039 187.041 90.9927 185.373 90.1824C189.339 81.2547 192.781 72.1037 195.683 62.7759H195.687ZM195.024 61.2643C193.769 60.8313 192.627 60.1198 191.686 59.1829C190.707 58.004 190.993 55.886 192.709 55.886C193.205 55.8977 193.687 56.0512 194.099 56.3283C194.511 56.6054 194.835 56.9946 195.032 57.4499C195.364 58.7009 195.36 60.016 195.021 61.2643H195.024ZM219.308 71.3005C216.631 73.9796 213.529 76.1978 210.129 77.8656C203.337 81.6079 199.821 83.6291 195.734 93.55C194.32 93.4125 192.925 93.1155 191.577 92.6646C192.363 90.9368 193.124 89.2222 193.885 87.5142C198.534 77.0745 199.033 76.4431 200.294 73.526C201.375 70.8864 202.644 68.3282 204.093 65.8711C205.876 66.6441 207.882 66.7313 209.725 66.1161C210.18 65.8679 210.568 65.5142 210.857 65.0848C211.146 64.6553 211.328 64.1627 211.387 63.6483C211.424 63.1936 211.345 62.737 211.159 62.3206C210.973 61.9043 210.684 61.5414 210.321 61.2656C209.957 60.9906 209.53 60.8115 209.079 60.7449C208.628 60.6783 208.167 60.7263 207.739 60.8844C205.984 61.594 204.526 62.8857 203.609 64.5429C201.049 63.7206 198.53 62.7787 196.058 61.7201C196.491 60.2163 196.503 58.6223 196.093 57.112C195.859 56.5305 195.483 56.0168 194.999 55.6176C194.515 55.2184 193.94 54.9464 193.324 54.8263C190.319 54.246 189.027 57.746 190.856 59.9348C191.928 61.006 193.226 61.8233 194.655 62.3266C191.72 71.6191 188.286 80.7465 184.367 89.6689C183.444 89.1859 182.56 88.6306 181.724 88.008C183.733 82.9479 185.13 77.7098 184.124 72.5397C182.837 65.9432 180.456 62.3096 180.456 55.5441C180.456 38.8262 196.226 27.0111 211.817 33.0457C227.732 39.2034 231.081 59.5208 219.308 71.3005ZM204.735 64.8992C206.09 62.9684 208.009 60.963 209.91 62.3633C210.696 63.0392 210.146 64.649 209.297 65.0839C207.803 65.5728 206.184 65.5072 204.735 64.8992Z" fill="#343A3F"/>
<path d="M178.012 92.6372C177.929 92.5168 177.897 92.369 177.922 92.2252C177.947 92.0814 178.027 91.9531 178.145 91.8677C178.264 91.7822 178.411 91.7464 178.555 91.7678C178.699 91.7892 178.83 91.8662 178.918 91.9823C180.752 94.5156 188.039 99.1001 194.876 98.4662C195.022 98.4559 195.166 98.5031 195.277 98.5976C195.388 98.692 195.458 98.8263 195.472 98.9717C195.486 99.1171 195.442 99.262 195.35 99.3756C195.258 99.4892 195.126 99.5624 194.981 99.5795C188.509 100.182 180.563 96.1699 178.012 92.6372Z" fill="#343A3F"/>
<path d="M192.691 105.336C186.446 105.179 180.445 102.873 175.702 98.8061C175.59 98.7094 175.521 98.5719 175.51 98.4241C175.499 98.2762 175.547 98.13 175.643 98.0176C175.74 97.9052 175.878 97.8359 176.026 97.8248C176.173 97.8137 176.32 97.8619 176.432 97.9586C180.975 101.856 186.722 104.067 192.706 104.221C192.846 104.234 192.975 104.299 193.069 104.404C193.163 104.508 193.214 104.644 193.211 104.784C193.21 104.925 193.155 105.059 193.059 105.162C192.963 105.264 192.832 105.326 192.691 105.336Z" fill="#343A3F"/>
<path d="M173.669 30.2134C173.317 30.2134 173.815 30.6207 164.951 21.2473C164.874 21.1673 164.823 21.0661 164.805 20.9567C164.786 20.8474 164.801 20.735 164.847 20.6342C164.893 20.5336 164.968 20.4486 165.061 20.3897C165.155 20.3308 165.263 20.3006 165.374 20.3029C165.447 20.3049 165.52 20.3215 165.587 20.3516C165.654 20.3817 165.714 20.4248 165.764 20.4784L174.076 29.2689C174.148 29.3491 174.197 29.4486 174.215 29.5556C174.233 29.6625 174.219 29.7723 174.177 29.8719C174.134 29.9715 174.063 30.0567 173.973 30.1172C173.883 30.1778 173.778 30.2111 173.669 30.2134Z" fill="#343A3F"/>
<path d="M204.362 13.9057C204.215 13.9053 204.074 13.8473 203.969 13.744C203.864 13.6406 203.803 13.5002 203.8 13.3529L203.641 0.565921C203.64 0.417783 203.697 0.27522 203.801 0.169248C203.904 0.063276 204.045 0.00246937 204.193 5.58862e-05C204.267 -0.000982837 204.34 0.0124673 204.408 0.0396353C204.476 0.0668033 204.538 0.107155 204.591 0.158381C204.643 0.209607 204.685 0.270699 204.714 0.338159C204.743 0.405618 204.758 0.47812 204.759 0.551512L204.919 13.3398C204.92 13.4136 204.906 13.4868 204.879 13.5553C204.851 13.6237 204.81 13.686 204.759 13.7386C204.707 13.7912 204.645 13.833 204.577 13.8617C204.509 13.8904 204.436 13.9053 204.362 13.9057Z" fill="#343A3F"/>
<path d="M235.849 29.5708C235.727 29.5709 235.608 29.5311 235.511 29.4573C235.414 29.3836 235.343 29.28 235.31 29.1625C235.277 29.0449 235.284 28.9197 235.328 28.8061C235.373 28.6926 235.454 28.5968 235.558 28.5334L246.907 21.6592C247.034 21.5822 247.186 21.5589 247.331 21.5942C247.475 21.6296 247.599 21.7208 247.676 21.8478C247.753 21.9748 247.776 22.1271 247.741 22.2713C247.706 22.4155 247.614 22.5397 247.487 22.6167C235.887 29.635 236.09 29.5708 235.849 29.5708Z" fill="#343A3F"/>
<path d="M249.435 59.9475L237.4 58.9861C237.289 58.978 237.183 58.937 237.096 58.8683C237.008 58.7996 236.943 58.7063 236.909 58.6005C236.875 58.4946 236.874 58.381 236.905 58.2742C236.936 58.1674 236.998 58.0723 237.083 58.001C237.139 57.9535 237.204 57.9174 237.274 57.895C237.344 57.8725 237.417 57.864 237.49 57.8701L249.478 58.8302C249.623 58.8409 249.758 58.9071 249.855 59.015C249.952 59.1229 250.004 59.2641 250 59.4092C249.994 59.5545 249.932 59.6919 249.826 59.7922C249.721 59.8924 249.581 59.9477 249.435 59.9462V59.9475Z" fill="#343A3F"/>
<path d="M129.873 22.9375H27.4131V141.861H129.873V22.9375Z" fill="white"/>
<path d="M130.432 141.861C130.432 141.934 130.417 142.007 130.389 142.074C130.361 142.142 130.32 142.204 130.268 142.256C130.216 142.308 130.154 142.349 130.086 142.377C130.019 142.405 129.946 142.42 129.872 142.42H27.4116C27.3383 142.42 27.2657 142.405 27.1981 142.377C27.1295 142.35 27.0671 142.309 27.0148 142.257C26.9625 142.205 26.9215 142.143 26.8942 142.074C26.8662 142.006 26.852 141.934 26.8523 141.861V22.9372C26.8523 22.7889 26.9112 22.6466 27.0161 22.5418C27.121 22.4369 27.2633 22.3779 27.4116 22.3779H129.871C129.982 22.3774 130.09 22.4101 130.182 22.4717C130.274 22.5333 130.346 22.6211 130.387 22.7237C130.416 22.7913 130.431 22.8639 130.431 22.9372L130.432 141.861ZM27.9722 141.301H129.32V23.4966H27.9722V141.301Z" fill="#343A3F"/>
<path d="M119.483 74.5654H37.9629V133.548H119.483V74.5654Z" fill="#F2F4F8"/>
<path d="M118.684 34.8452H37.803C37.6546 34.8452 37.5124 34.7863 37.4075 34.6814C37.3026 34.5765 37.2437 34.4342 37.2437 34.2859C37.2437 34.1375 37.3026 33.9953 37.4075 33.8904C37.5124 33.7855 37.6546 33.7266 37.803 33.7266H118.684C118.832 33.7266 118.974 33.7855 119.079 33.8904C119.184 33.9953 119.243 34.1375 119.243 34.2859C119.243 34.4342 119.184 34.5765 119.079 34.6814C118.974 34.7863 118.832 34.8452 118.684 34.8452Z" fill="#343A3F"/>
<path d="M96.3111 44.2768H37.803C37.6546 44.2768 37.5124 44.2179 37.4075 44.113C37.3026 44.0081 37.2437 43.8659 37.2437 43.7175C37.2437 43.5692 37.3026 43.4269 37.4075 43.322C37.5124 43.2171 37.6546 43.1582 37.803 43.1582H96.3111C96.4594 43.1582 96.6017 43.2171 96.7066 43.322C96.8114 43.4269 96.8704 43.5692 96.8704 43.7175C96.8704 43.8659 96.8114 44.0081 96.7066 44.113C96.6017 44.2179 96.4594 44.2768 96.3111 44.2768Z" fill="#343A3F"/>
<path d="M117.245 54.1841H37.803C37.6546 54.1841 37.5124 54.1251 37.4075 54.0202C37.3026 53.9154 37.2437 53.7731 37.2437 53.6247C37.2437 53.4764 37.3026 53.3341 37.4075 53.2292C37.5124 53.1244 37.6546 53.0654 37.803 53.0654H117.245C117.394 53.0654 117.536 53.1244 117.641 53.2292C117.746 53.3341 117.805 53.4764 117.805 53.6247C117.805 53.7731 117.746 53.9154 117.641 54.0202C117.536 54.1251 117.394 54.1841 117.245 54.1841Z" fill="#343A3F"/>
<path d="M107.175 63.7768H37.803C37.6546 63.7768 37.5124 63.7179 37.4075 63.613C37.3026 63.5081 37.2437 63.3659 37.2437 63.2175C37.2437 63.0692 37.3026 62.9269 37.4075 62.822C37.5124 62.7171 37.6546 62.6582 37.803 62.6582H107.175C107.323 62.6582 107.466 62.7171 107.571 62.822C107.676 62.9269 107.734 63.0692 107.734 63.2175C107.734 63.3659 107.676 63.5081 107.571 63.613C107.466 63.7179 107.323 63.7768 107.175 63.7768Z" fill="#343A3F"/>
<path d="M119.483 74.0068H37.9629C37.8145 74.0068 37.6723 74.0658 37.5674 74.1707C37.4625 74.2756 37.4036 74.4178 37.4036 74.5662V133.548C37.4036 133.697 37.4625 133.839 37.5674 133.944C37.6723 134.049 37.8145 134.108 37.9629 134.108H119.483C119.631 134.108 119.773 134.049 119.878 133.944C119.983 133.839 120.042 133.697 120.042 133.548V74.5662C120.042 74.4927 120.028 74.42 120 74.3521C119.971 74.2843 119.93 74.2226 119.878 74.1707C119.826 74.1187 119.765 74.0775 119.697 74.0494C119.629 74.0213 119.556 74.0068 119.483 74.0068ZM118.924 75.1255V122.908C102.263 119.158 87.4866 109.951 74.6996 101.902C71.7236 100.029 68.6401 98.1439 65.1375 98.1439C58.0642 98.1439 54.2656 104.955 38.5235 114.064V75.1255H118.924ZM38.5235 132.989V115.356C54.5564 106.2 58.5384 99.2625 65.1362 99.2625C68.3585 99.2625 71.3502 101.119 74.1036 102.849C87.032 110.97 101.984 120.298 118.924 124.053V132.989H38.5235Z" fill="#343A3F"/>
<path d="M101.74 96.3847C100.348 96.3686 99.0041 95.8673 97.9413 94.967C96.8785 94.0668 96.163 92.8241 95.918 91.453C94.8544 85.9594 102.398 81.4456 106.622 85.8467C110.327 89.7358 106.692 96.4567 101.74 96.3847ZM99.9786 85.8363C94.9605 88.4364 96.5808 94.9477 101.755 95.2674C105.78 95.2516 108.79 89.7449 105.815 86.6222C105.069 85.8591 104.09 85.3673 103.032 85.2249C101.975 85.0825 100.9 85.2977 99.9786 85.8363Z" fill="#343A3F"/>
</svg>
