<svg width="300" height="193" viewBox="0 0 300 193" fill="none" xmlns="http://www.w3.org/2000/svg">
<path d="M82.8454 58.8613L0.84729 86.8337L35.5723 188.932L117.611 160.961L82.8454 58.8613Z" fill="white"/>
<path d="M118.33 161.599C118.372 161.584 118.411 161.56 118.444 161.53C118.509 161.467 118.547 161.382 118.551 161.291C118.553 161.247 118.546 161.202 118.531 161.16L83.4851 58.3421C83.4502 58.2481 83.3841 58.169 83.2978 58.1181C83.2115 58.0672 83.1103 58.0475 83.0112 58.0625L0.288105 86.2355C0.190929 86.2656 0.108449 86.3308 0.0567565 86.4184C0.00506403 86.5061 -0.0121321 86.6098 0.00852277 86.7094L34.9736 189.528C35.0046 189.624 35.07 189.706 35.1574 189.758C35.2447 189.809 35.348 189.827 35.4475 189.807L118.33 161.599ZM35.6134 188.926C35.6134 188.926 1.00522 87.2733 0.847268 86.8737C0.847268 86.8737 82.5263 59.0229 82.8453 58.9028C82.8453 58.9028 117.169 159.721 117.651 160.961L35.6134 188.926Z" fill="#343A3F"/>
<path d="M26.3414 115.525C26.493 115.8 26.5988 116.097 26.6573 116.405L28.5749 122.039C30.1473 121.369 31.4072 120.127 32.1008 118.565C32.7944 117.002 32.8701 115.235 32.3128 113.619C31.7555 112.003 30.6065 110.658 29.0972 109.855C27.5879 109.052 25.8305 108.851 24.179 109.292L26.3414 115.525Z" fill="#DDE1E6"/>
<path d="M23.4651 109.498C22.085 110.07 20.9327 111.081 20.1875 112.376L25.3432 114.973C25.3432 114.809 25.4111 115.121 23.4651 109.498Z" fill="#DDE1E6"/>
<path d="M19.7894 113.088C19.2824 114.257 19.1165 115.545 19.3108 116.804C19.5052 118.063 20.0519 119.241 20.8877 120.202C21.7235 121.164 22.8143 121.869 24.034 122.237C25.2537 122.604 26.5526 122.619 27.7804 122.279L25.6622 116.045L19.7894 113.088Z" fill="white"/>
<path d="M33.0561 113.328C31.3344 108.444 25.5722 107.799 23.2787 108.7C21.918 109.234 20.741 110.151 19.8895 111.34C19.038 112.528 18.5483 113.938 18.4794 115.398C18.4104 116.859 18.7652 118.308 19.501 119.571C20.2367 120.835 21.3221 121.858 22.6263 122.519C23.6244 123.025 24.7232 123.3 25.8417 123.325C26.9602 123.349 28.0701 123.123 29.0895 122.662C30.1089 122.201 31.0119 121.517 31.732 120.661C32.4521 119.804 32.971 118.797 33.2504 117.714C33.6257 116.265 33.558 114.737 33.0561 113.328ZM23.4651 109.497C25.37 115.132 25.3037 114.814 25.3037 114.972L20.148 112.375C20.9207 111.088 22.0823 110.081 23.4651 109.497ZM19.8321 113.094L25.7065 116.051L27.8231 122.285C26.5944 122.626 25.2944 122.611 24.0736 122.244C22.8528 121.876 21.761 121.17 20.9246 120.208C20.0882 119.246 19.5414 118.066 19.3475 116.806C19.1536 115.546 19.3205 114.257 19.8289 113.088L19.8321 113.094ZM28.6223 122.045C24.5155 109.898 28.3964 121.382 24.228 109.259C25.8908 108.812 27.6613 109.019 29.1768 109.836C30.6922 110.653 31.8377 112.019 32.3785 113.653C32.9089 115.268 32.8175 117.023 32.1222 118.574C31.4269 120.125 30.1777 121.36 28.6192 122.039L28.6223 122.045Z" fill="#343A3F"/>
<path d="M52.7152 101.819C51.1993 101.18 49.5018 101.115 47.9419 101.639C46.382 102.163 45.067 103.238 44.244 104.663L49.9178 107.506C50.8371 105.615 51.7564 103.698 52.7152 101.819Z" fill="#DDE1E6"/>
<path d="M56.1524 111.011C56.914 109.471 57.0569 107.697 56.5516 106.055C56.0464 104.412 54.9313 103.026 53.4355 102.18C47.4601 114.232 47.509 114.09 47.4332 114.248C49.0248 114.925 50.8155 114.967 52.4372 114.365C54.0588 113.763 55.3883 112.563 56.1524 111.011Z" fill="#DDE1E6"/>
<path d="M46.7225 113.888L49.5657 108.253L43.8903 105.41C43.2523 106.926 43.1879 108.623 43.709 110.183C44.2302 111.743 45.3014 113.06 46.7225 113.888Z" fill="white"/>
<path d="M46.6813 114.767C48.0167 115.427 49.5174 115.677 50.9948 115.487C52.4722 115.297 53.8606 114.675 54.9856 113.699C56.1106 112.722 56.922 111.435 57.3181 109.999C57.7142 108.563 57.6772 107.042 57.2117 105.627C56.7463 104.212 55.8732 102.966 54.7021 102.046C53.5309 101.125 52.1139 100.571 50.629 100.453C49.1441 100.335 47.6574 100.659 46.3556 101.383C45.0539 102.107 43.995 103.2 43.3121 104.523C42.4034 106.329 42.2478 108.421 42.8794 110.342C43.5109 112.262 44.8782 113.853 46.6813 114.767ZM53.4355 102.138C54.9389 102.989 56.0588 104.384 56.5645 106.036C57.0703 107.688 56.9234 109.471 56.1542 111.018C55.3849 112.564 54.0519 113.757 52.4295 114.351C50.8071 114.944 49.0189 114.893 47.4331 114.208C47.52 114.021 53.3517 102.304 53.4355 102.138ZM52.7152 101.822C51.7959 103.7 50.8355 105.613 49.9178 107.496L44.244 104.653C45.064 103.225 46.3795 102.148 47.9409 101.626C49.5023 101.103 51.2011 101.172 52.7152 101.819V101.822ZM43.8444 105.38L49.5181 108.223L46.6749 113.857C45.2626 113.02 44.1991 111.702 43.6792 110.144C43.1594 108.587 43.218 106.894 43.8444 105.376V105.38Z" fill="#343A3F"/>
<path d="M73.6555 100.142C73.5813 99.9207 73.5876 100.098 76.6567 93.8236C75.6672 93.4079 74.5927 93.2347 73.5227 93.3183C72.4527 93.402 71.4182 93.74 70.5053 94.3043C69.5924 94.8687 68.8275 95.6429 68.2744 96.5627C67.7213 97.4824 67.3959 98.521 67.3254 99.5919C67.2548 100.663 67.4412 101.735 67.8689 102.719C68.2966 103.704 68.9533 104.572 69.7843 105.251C70.6153 105.93 71.5966 106.401 72.6463 106.624C73.6961 106.847 74.784 106.817 75.8195 106.534C74.5243 102.75 73.6555 100.254 73.6555 100.142Z" fill="#DDE1E6"/>
<path d="M77.3707 94.1875L74.8118 99.3432L80.2881 97.5046C79.7044 96.1097 78.6796 94.9445 77.3707 94.1875Z" fill="#DDE1E6"/>
<path d="M74.4436 100.243L76.6076 106.375C78.1314 105.708 79.3669 104.519 80.0911 103.022C80.8152 101.525 80.9803 99.8182 80.5565 98.21C79.9942 98.3505 75.6883 99.8195 74.4436 100.243Z" fill="white"/>
<path d="M72.0285 92.7779C70.5705 93.1789 69.2659 94.0073 68.2829 95.1565C67.3 96.3057 66.6837 97.7229 66.5134 99.2255C66.3432 100.728 66.6269 102.247 67.3279 103.587C68.0289 104.927 69.1151 106.026 70.4466 106.743C71.778 107.46 73.2936 107.762 74.7982 107.61C76.3027 107.458 77.7272 106.859 78.8881 105.889C80.0489 104.92 80.8929 103.626 81.3114 102.173C81.7298 100.719 81.7035 99.1742 81.2358 97.7361C80.6206 95.8925 79.3253 94.3531 77.6141 93.4317C75.9029 92.5104 73.9047 92.2765 72.027 92.7779H72.0285ZM77.3769 94.1868C78.6946 94.9332 79.7223 96.1017 80.2944 97.5039L74.8196 99.3425L77.3769 94.1868ZM75.8195 106.575C74.7817 106.863 73.6902 106.898 72.6362 106.677C71.5823 106.456 70.5965 105.986 69.7613 105.306C68.9262 104.627 68.2659 103.757 67.8358 102.77C67.4056 101.782 67.2181 100.706 67.2889 99.632C67.3597 98.5575 67.6867 97.5155 68.2427 96.5933C68.7986 95.671 69.5673 94.8953 70.4844 94.331C71.4015 93.7667 72.4404 93.4301 73.5142 93.3495C74.5881 93.269 75.6656 93.4466 76.6566 93.8678C74.7422 97.7866 74.0093 99.1909 73.7661 99.769C73.526 100.347 73.8213 100.462 73.8213 100.62L75.8195 106.575ZM76.5777 106.335L74.54 100.301L80.5424 98.2621C80.9769 99.8609 80.8132 101.563 80.0822 103.05C79.3511 104.537 78.1028 105.706 76.5714 106.338L76.5777 106.335Z" fill="#343A3F"/>
<path d="M37.9307 134.507L33.4953 130.67L32.3738 136.424L37.9307 134.507Z" fill="#DDE1E6"/>
<path d="M32.1764 137.343L30.8574 144.135L43.8446 139.7L38.6099 135.145C33.2868 136.92 34.6926 136.438 32.1764 137.343Z" fill="#DDE1E6"/>
<path d="M48.7995 144.057L44.5631 140.342L30.6582 145.096L29.5383 150.611L48.7995 144.057Z" fill="white"/>
<path d="M49.7188 144.576C50.0031 144.52 50.1168 144.057 49.8767 143.937L33.6073 129.672C33.2566 129.496 32.9865 129.541 32.9044 129.943L28.6522 151.13C28.6111 151.41 28.8512 151.73 29.126 151.604L49.7188 144.576ZM32.3815 136.424L33.5014 130.67L37.9368 134.507L32.3815 136.424ZM32.1825 137.344L38.616 135.146L43.8507 139.741L30.8241 144.218L32.1825 137.344ZM29.5446 150.612L30.6235 145.098L44.5236 140.343L48.76 144.058L29.5446 150.612Z" fill="#343A3F"/>
<path d="M46.882 160.201L43.6849 161.28L47.5217 172.549L50.7171 171.47C50.1406 169.852 50.6903 171.451 46.882 160.201Z" fill="#DDE1E6"/>
<path d="M51.837 153.008L48.64 154.087L54.1937 170.271L57.3513 169.192L51.837 153.008Z" fill="#DDE1E6"/>
<path d="M42.0469 167.714L38.8499 168.793L40.8875 174.827C41.9745 174.534 43.0423 174.173 44.0845 173.748C44.0845 173.588 44.1509 173.903 42.0469 167.714Z" fill="white"/>
<path d="M59.2688 168.552L58.111 168.952L52.4767 152.409C52.4466 152.312 52.3814 152.23 52.2938 152.178C52.2062 152.126 52.1024 152.109 52.0028 152.13L48.0871 153.447C47.9901 153.477 47.9079 153.543 47.8562 153.63C47.8046 153.718 47.7872 153.821 47.8075 153.921L53.4813 170.506L51.5226 171.185L47.5737 159.596C47.5429 159.5 47.4777 159.417 47.3905 159.366C47.3032 159.313 47.1995 159.296 47.0999 159.317L43.1841 160.675C43.088 160.707 43.0066 160.772 42.9551 160.859C42.9037 160.947 42.8857 161.049 42.9046 161.149L46.9008 172.778L44.9422 173.457L42.7845 167.102C42.7537 167.006 42.6885 166.924 42.6013 166.872C42.514 166.819 42.4102 166.802 42.3106 166.823L38.3949 168.183C38.2979 168.213 38.2157 168.278 38.164 168.366C38.1124 168.453 38.0951 168.557 38.1153 168.657L40.273 175.051L38.0364 175.81L32.361 159.225C32.203 158.751 31.4417 158.945 31.6028 159.424L37.3966 176.407C37.4264 176.505 37.4916 176.588 37.5793 176.639C37.667 176.691 37.7709 176.708 37.8705 176.687C59.3888 169.355 54.1731 171.187 59.5294 169.295C59.9496 169.156 59.749 168.393 59.2688 168.552ZM40.927 174.826L38.8893 168.832L42.0863 167.753L44.124 173.747L40.927 174.826ZM47.5611 172.549L43.6849 161.319L46.8819 160.241L50.7581 171.47L47.5611 172.549ZM54.1953 170.271L48.6399 154.041L51.7991 152.962L57.3544 169.146L54.1953 170.271Z" fill="#343A3F"/>
<path d="M78.331 79.5619L76.0532 72.852C76.0002 72.7019 75.8925 72.5774 75.7517 72.5033C75.6108 72.4292 75.4472 72.411 75.2935 72.4523L15.0728 92.9866C14.9227 93.0396 14.7982 93.1473 14.7241 93.2882C14.65 93.429 14.6318 93.5927 14.6732 93.7464L16.9509 100.459C17.0039 100.609 17.1114 100.733 17.2519 100.808C17.3924 100.882 17.5556 100.9 17.7091 100.859L77.9313 80.3249C78.0096 80.304 78.0827 80.2672 78.1459 80.2167C78.2092 80.1661 78.2613 80.103 78.2989 80.0312C78.3364 79.9595 78.3587 79.8807 78.3642 79.7999C78.3697 79.7192 78.3584 79.6381 78.331 79.5619Z" fill="#DDE1E6"/>
<path d="M90.7984 116.165L90.0781 114.047C90.0251 113.897 89.9176 113.773 89.7771 113.699C89.6366 113.625 89.4734 113.606 89.3199 113.647L50.4375 126.916C50.2879 126.969 50.1638 127.077 50.0898 127.218C50.0159 127.358 49.9973 127.522 50.0379 127.675L50.7581 129.794C50.8109 129.943 50.9183 130.068 51.0589 130.142C51.1995 130.216 51.3629 130.234 51.5163 130.193L90.3988 116.922C90.4773 116.903 90.5509 116.867 90.6147 116.817C90.6785 116.767 90.731 116.705 90.7687 116.633C90.8065 116.562 90.8287 116.483 90.8338 116.402C90.8389 116.322 90.8268 116.241 90.7984 116.165Z" fill="#DDE1E6"/>
<path d="M101.067 147.693L100.348 145.576C100.295 145.426 100.187 145.302 100.047 145.228C99.9059 145.154 99.7424 145.136 99.5887 145.177L60.5483 158.323C60.3987 158.377 60.2747 158.485 60.2007 158.625C60.1267 158.766 60.1081 158.929 60.1487 159.083L60.8674 161.2C60.9207 161.349 61.0282 161.473 61.1687 161.547C61.3091 161.621 61.4721 161.64 61.6256 161.599L100.668 148.453C100.748 148.435 100.823 148.4 100.888 148.351C100.954 148.302 101.008 148.239 101.047 148.167C101.085 148.094 101.106 148.014 101.11 147.932C101.113 147.85 101.099 147.769 101.067 147.693Z" fill="#DDE1E6"/>
<path d="M74.4943 160.241C74.441 160.091 74.3332 159.967 74.1925 159.893C74.0517 159.819 73.8882 159.801 73.7345 159.842L62.9462 163.519C62.7969 163.573 62.6731 163.68 62.5991 163.82C62.5252 163.961 62.5064 164.124 62.5465 164.277L63.2652 166.395C63.3183 166.545 63.426 166.67 63.5668 166.744C63.7077 166.818 63.8713 166.836 64.025 166.795L74.8134 163.119C74.963 163.066 75.087 162.958 75.161 162.817C75.235 162.676 75.2536 162.513 75.213 162.359L74.4943 160.241Z" fill="#DDE1E6"/>
<path d="M89.0387 155.285C88.986 155.136 88.8786 155.011 88.738 154.937C88.5974 154.863 88.434 154.845 88.2806 154.886L77.4906 158.563C77.3413 158.617 77.2175 158.724 77.1436 158.865C77.0696 159.005 77.0508 159.168 77.091 159.321L77.8112 161.439C77.8639 161.589 77.9714 161.714 78.1119 161.788C78.2525 161.862 78.4159 161.88 78.5694 161.839L89.3594 158.163C89.509 158.11 89.6331 158.002 89.707 157.861C89.781 157.721 89.7996 157.557 89.759 157.404L89.0387 155.285Z" fill="#DDE1E6"/>
<path d="M80.0085 126.634L79.2898 124.516C79.2367 124.366 79.129 124.241 78.9882 124.167C78.8473 124.093 78.6837 124.075 78.53 124.116L52.5147 133.033C52.3653 133.087 52.2417 133.195 52.168 133.336C52.0943 133.476 52.076 133.639 52.1166 133.793L52.8353 135.909C52.8887 136.059 52.9962 136.183 53.1366 136.257C53.277 136.331 53.44 136.35 53.5935 136.309L79.6088 127.433C79.6893 127.41 79.7641 127.37 79.8285 127.316C79.8928 127.262 79.9454 127.196 79.9829 127.121C80.0204 127.046 80.0421 126.964 80.0465 126.88C80.0509 126.797 80.0379 126.713 80.0085 126.634Z" fill="#DDE1E6"/>
<path d="M86.2825 144.976L85.5638 142.857C85.5105 142.708 85.4027 142.583 85.262 142.509C85.1212 142.435 84.9577 142.417 84.804 142.458L58.7887 151.33C58.6397 151.384 58.5163 151.492 58.4426 151.632C58.369 151.772 58.3505 151.935 58.3907 152.088L59.1094 154.207C59.1624 154.356 59.2698 154.481 59.4103 154.555C59.5508 154.629 59.7141 154.647 59.8675 154.606L85.8829 145.735C86.0352 145.686 86.1622 145.579 86.2368 145.437C86.3114 145.295 86.3278 145.129 86.2825 144.976Z" fill="#DDE1E6"/>
<path d="M88.2805 141.94L88.9992 144.057C89.0526 144.206 89.1601 144.33 89.3005 144.404C89.4409 144.478 89.604 144.497 89.7574 144.456L98.7499 141.379C98.8991 141.326 99.0229 141.218 99.0969 141.078C99.1708 140.938 99.1896 140.775 99.1495 140.621L98.4308 138.503C98.3775 138.353 98.2697 138.229 98.1289 138.155C97.9882 138.081 97.8247 138.062 97.671 138.103L88.6802 141.18C88.5996 141.197 88.5238 141.231 88.4582 141.28C88.3926 141.33 88.3389 141.393 88.3011 141.466C88.2631 141.539 88.2416 141.619 88.2381 141.701C88.2345 141.783 88.249 141.864 88.2805 141.94Z" fill="#DDE1E6"/>
<path d="M82.0872 132.748L81.3669 130.63C81.3142 130.48 81.2068 130.356 81.0662 130.282C80.9256 130.208 80.7622 130.189 80.6087 130.231L54.5934 139.101C54.4438 139.155 54.3197 139.263 54.2457 139.404C54.1717 139.544 54.1532 139.707 54.1938 139.861L54.914 141.979C54.9671 142.129 55.0745 142.253 55.215 142.327C55.3555 142.401 55.5188 142.42 55.6722 142.379L81.6876 133.507C81.7672 133.489 81.842 133.454 81.9069 133.405C81.9718 133.356 82.0252 133.293 82.0635 133.221C82.1015 133.148 82.1233 133.069 82.1274 132.987C82.1315 132.906 82.1178 132.824 82.0872 132.748Z" fill="#DDE1E6"/>
<path d="M83.1249 130.032L83.8452 132.148C83.8982 132.298 84.0057 132.422 84.1462 132.496C84.2867 132.57 84.4499 132.589 84.6034 132.548L94.5546 129.152C94.7042 129.098 94.8283 128.99 94.9022 128.85C94.9762 128.709 94.9948 128.546 94.9542 128.392L94.2339 126.275C94.1809 126.126 94.0735 126.001 93.933 125.927C93.7925 125.853 93.6292 125.835 93.4758 125.876L83.5245 129.272C83.3749 129.325 83.2509 129.433 83.1769 129.574C83.1029 129.715 83.0843 129.878 83.1249 130.032Z" fill="#DDE1E6"/>
<path d="M141.068 86.2778V68.1729H98.75V86.2778H141.066H141.068Z" fill="#C1C7CD"/>
<path d="M193.416 108.613V0.799805H106.822V67.3735H141.507C141.56 67.3705 141.614 67.3788 141.664 67.3978C141.713 67.4169 141.759 67.4462 141.796 67.4839C141.834 67.5216 141.863 67.5669 141.882 67.6167C141.901 67.6666 141.91 67.7199 141.907 67.7731V86.6741C141.91 86.7274 141.901 86.7807 141.882 86.8305C141.863 86.8803 141.834 86.9256 141.796 86.9633C141.759 87.001 141.713 87.0303 141.664 87.0494C141.614 87.0684 141.56 87.0767 141.507 87.0737H106.863V108.613H193.416Z" fill="white"/>
<path d="M120.529 81.0797C123.124 80.3089 123.402 74.9068 120.968 73.5673C118.708 72.3242 116.523 76.0946 117.852 79.2822C117.98 79.8695 118.33 80.3845 118.829 80.7195C119.328 81.0545 119.937 81.1836 120.529 81.0797ZM118.45 75.6461C119.398 72.9403 121.807 74.0365 121.807 77.2446C121.807 80.004 119.858 81.4888 118.61 79.2411C118.089 78.1097 118.032 76.8192 118.45 75.6461Z" fill="#343A3F"/>
<path d="M113.696 77.2441C113.77 76.3109 113.485 75.3846 112.897 74.6559C112.309 73.9272 111.464 73.4515 110.537 73.3268C110.483 73.3238 110.43 73.3321 110.38 73.3511C110.33 73.3701 110.285 73.3995 110.248 73.4372C110.21 73.4749 110.18 73.5202 110.161 73.57C110.142 73.6198 110.134 73.6731 110.137 73.7264V80.7602C110.139 81.8738 113.696 80.7996 113.696 77.2441ZM110.938 74.1671C111.55 74.4045 112.069 74.831 112.422 75.3845C112.774 75.9379 112.94 76.5894 112.897 77.2441C112.935 77.8977 112.766 78.5467 112.414 79.099C112.063 79.6513 111.546 80.0789 110.938 80.3211V74.1671Z" fill="#343A3F"/>
<path d="M126.722 80.9595C126.977 81.0789 127.253 81.1467 127.534 81.1592C127.815 81.1716 128.096 81.1283 128.36 81.0319C128.624 80.9354 128.867 80.7877 129.073 80.5972C129.28 80.4067 129.448 80.1771 129.566 79.9217C129.593 79.8819 129.612 79.8369 129.622 79.7895C129.632 79.7421 129.632 79.6932 129.623 79.6457C129.614 79.5981 129.595 79.5529 129.568 79.5127C129.541 79.4725 129.507 79.4381 129.466 79.4115C129.265 79.2678 129.033 79.2536 128.798 79.6422C127.807 81.3023 125.724 79.9991 125.849 77.0438C125.958 74.4817 127.864 72.989 129.085 75.3252C129.318 75.7691 130.005 75.3663 129.765 74.9256C129.591 74.439 129.263 74.023 128.83 73.7415C128.397 73.4601 127.883 73.3289 127.368 73.3681C124.587 73.8073 124.193 79.5932 126.722 80.9595Z" fill="#343A3F"/>
<path d="M194.255 0.400545C194.253 0.345001 194.241 0.290291 194.218 0.239428C194.195 0.189294 194.161 0.144361 194.12 0.107219C194.079 0.0700774 194.031 0.041464 193.978 0.0230302C193.926 0.00474022 193.871 -0.00278244 193.816 0.000916492H106.422C106.369 -0.00205576 106.315 0.00624596 106.265 0.0252777C106.216 0.0443095 106.17 0.0736429 106.133 0.111362C106.095 0.14908 106.066 0.194336 106.047 0.244168C106.028 0.293999 106.019 0.347286 106.022 0.400545V67.3344H98.3503C98.297 67.3314 98.2437 67.3397 98.1939 67.3587C98.1441 67.3778 98.0988 67.4071 98.0611 67.4448C98.0234 67.4825 97.994 67.5278 97.975 67.5776C97.956 67.6274 97.9477 67.6807 97.9507 67.734V86.635C97.9477 86.6882 97.956 86.7415 97.975 86.7914C97.994 86.8412 98.0234 86.8865 98.0611 86.9242C98.0988 86.9619 98.1441 86.9912 98.1939 87.0103C98.2437 87.0293 98.297 87.0376 98.3503 87.0346H106.022V109.013C106.019 109.066 106.028 109.119 106.047 109.169C106.066 109.219 106.095 109.264 106.133 109.302C106.17 109.34 106.216 109.369 106.265 109.388C106.315 109.407 106.369 109.415 106.422 109.412H193.895C194.135 109.412 194.255 109.254 194.255 109.013V0.400545ZM98.7499 86.278V68.1731H141.066V86.278H98.7499ZM193.375 108.575H106.779V87.0346H141.428C141.481 87.0376 141.535 87.0293 141.584 87.0103C141.634 86.9912 141.679 86.9619 141.717 86.9242C141.755 86.8865 141.784 86.8412 141.803 86.7914C141.822 86.7415 141.831 86.6882 141.828 86.635V67.734C141.831 67.6806 141.823 67.6271 141.804 67.577C141.785 67.527 141.756 67.4815 141.718 67.4437C141.681 67.4058 141.635 67.3765 141.585 67.3577C141.535 67.3388 141.481 67.3309 141.428 67.3344H106.741V0.800174H193.375V108.575Z" fill="#343A3F"/>
<path d="M185.225 13.1875H115.013C114.856 13.1919 114.706 13.2566 114.594 13.3683C114.483 13.4799 114.419 13.6301 114.415 13.7877V16.026C114.419 16.1837 114.483 16.3339 114.595 16.4454C114.707 16.5568 114.857 16.621 115.015 16.6246H185.225C185.382 16.6214 185.533 16.5573 185.644 16.4457C185.756 16.3341 185.82 16.1837 185.823 16.026V13.7877C185.819 13.6301 185.755 13.4799 185.644 13.3683C185.532 13.2566 185.382 13.1919 185.225 13.1875Z" fill="#C1C7CD"/>
<path d="M185.225 45.4756H115.013C114.856 45.48 114.706 45.5447 114.594 45.6563C114.483 45.768 114.419 45.9181 114.415 46.0758V48.314C114.419 48.4718 114.483 48.622 114.595 48.7335C114.707 48.8449 114.857 48.9091 115.015 48.9127H185.225C185.382 48.9095 185.533 48.8454 185.644 48.7338C185.756 48.6222 185.82 48.4718 185.823 48.314V46.0758C185.82 45.9179 185.756 45.7673 185.644 45.6555C185.533 45.5437 185.382 45.4792 185.225 45.4756Z" fill="#C1C7CD"/>
<path d="M115.013 55.3463H135.113C135.271 55.3427 135.421 55.2785 135.533 55.1671C135.645 55.0556 135.709 54.9054 135.713 54.7476V52.5094C135.709 52.3515 135.645 52.2011 135.533 52.0894C135.421 51.9777 135.271 51.9132 135.113 51.9092H115.013C114.856 51.9136 114.706 51.9783 114.594 52.0899C114.483 52.2016 114.419 52.3517 114.415 52.5094V54.7476C114.409 54.8276 114.421 54.9077 114.45 54.9826C114.478 55.0576 114.522 55.1256 114.579 55.1823C114.635 55.2389 114.703 55.2828 114.778 55.3111C114.853 55.3394 114.933 55.3514 115.013 55.3463Z" fill="#C1C7CD"/>
<path d="M161.048 55.3463C161.205 55.3419 161.355 55.2775 161.467 55.1662C161.579 55.0549 161.643 54.9052 161.648 54.7476V52.5094C161.643 52.3517 161.579 52.2018 161.467 52.0903C161.356 51.9787 161.206 51.9139 161.048 51.9092H140.909C140.751 51.9132 140.6 51.9777 140.489 52.0894C140.377 52.2011 140.312 52.3515 140.308 52.5094V54.7476C140.313 54.9053 140.377 55.0553 140.489 55.1666C140.601 55.278 140.751 55.3423 140.909 55.3463H161.048Z" fill="#C1C7CD"/>
<path d="M115.013 23.0961H162.242C162.4 23.0928 162.55 23.0287 162.662 22.9172C162.773 22.8056 162.837 22.6552 162.841 22.4974V20.2608C162.836 20.1034 162.772 19.9536 162.661 19.8423C162.549 19.731 162.399 19.6665 162.242 19.6621H115.013C114.856 19.6665 114.706 19.731 114.595 19.8423C114.483 19.9536 114.419 20.1034 114.415 20.2608V22.499C114.407 22.5795 114.417 22.6607 114.444 22.7369C114.471 22.813 114.515 22.8821 114.573 22.9393C114.63 22.9964 114.699 23.0401 114.775 23.0672C114.851 23.0943 114.933 23.1042 115.013 23.0961Z" fill="#C1C7CD"/>
<path d="M115.013 42.4791H162.242C162.4 42.4759 162.55 42.4118 162.662 42.3002C162.773 42.1886 162.837 42.0382 162.841 41.8805V39.6422C162.837 39.4846 162.772 39.3344 162.661 39.2228C162.55 39.1111 162.4 39.0464 162.242 39.042H115.013C114.855 39.0456 114.705 39.1101 114.593 39.2219C114.482 39.3337 114.418 39.4843 114.415 39.6422V41.8805C114.409 41.9604 114.421 42.0405 114.45 42.1155C114.478 42.1904 114.522 42.2585 114.579 42.3151C114.635 42.3717 114.703 42.4157 114.778 42.4439C114.853 42.4722 114.933 42.4842 115.013 42.4791Z" fill="#C1C7CD"/>
<path d="M185.225 39.0498H168.323C168.166 39.0536 168.016 39.1181 167.905 39.2299C167.793 39.3413 167.728 39.4919 167.725 39.65V41.8883C167.729 42.0457 167.794 42.1954 167.905 42.3067C168.016 42.4181 168.166 42.4825 168.323 42.4869H185.225C185.382 42.4837 185.533 42.4196 185.644 42.308C185.756 42.1964 185.82 42.046 185.823 41.8883V39.6421C185.818 39.4856 185.753 39.337 185.642 39.2269C185.531 39.1167 185.381 39.0534 185.225 39.0498Z" fill="#C1C7CD"/>
<path d="M115.013 29.5723H162.242C162.4 29.5679 162.55 29.5032 162.661 29.3916C162.772 29.2799 162.837 29.1298 162.841 28.9721V26.7291C162.837 26.5715 162.772 26.4213 162.661 26.3097C162.55 26.198 162.4 26.1333 162.242 26.1289H115.013C114.856 26.1333 114.706 26.198 114.594 26.3097C114.483 26.4213 114.419 26.5715 114.415 26.7291V28.9721C114.409 29.0523 114.422 29.1326 114.45 29.2077C114.478 29.2828 114.522 29.3511 114.579 29.4079C114.636 29.4646 114.704 29.5087 114.779 29.537C114.854 29.5654 114.935 29.5774 115.015 29.5723H115.013Z" fill="#C1C7CD"/>
<path d="M185.225 26.0977H166.603C166.445 26.1016 166.295 26.1659 166.184 26.2773C166.072 26.3887 166.007 26.5387 166.003 26.6963V28.9409C166.007 29.0985 166.072 29.2485 166.184 29.3599C166.295 29.4712 166.445 29.5355 166.603 29.5395H185.225C185.382 29.5363 185.533 29.4722 185.644 29.3606C185.756 29.249 185.82 29.0986 185.823 28.9409V26.6947C185.818 26.5376 185.754 26.3883 185.643 26.2773C185.531 26.1663 185.382 26.102 185.225 26.0977Z" fill="#C1C7CD"/>
<path d="M185.225 58.7422H115.013C114.856 58.7466 114.706 58.8113 114.594 58.923C114.483 59.0346 114.419 59.1848 114.415 59.3424V61.5807C114.418 61.7387 114.483 61.8893 114.594 62.0011C114.706 62.1129 114.857 62.1773 115.015 62.1809H185.225C185.383 62.1776 185.533 62.1133 185.645 62.0014C185.757 61.8895 185.82 61.7387 185.823 61.5807V59.3424C185.82 59.1845 185.756 59.0339 185.644 58.9221C185.533 58.8103 185.382 58.7458 185.225 58.7422Z" fill="#C1C7CD"/>
<path d="M162.247 65.2168H146.822C146.664 65.2204 146.514 65.2848 146.402 65.3966C146.29 65.5084 146.226 65.659 146.222 65.817V68.0537C146.226 68.2116 146.291 68.362 146.402 68.4737C146.514 68.5854 146.664 68.6499 146.822 68.6539H162.247C162.405 68.6507 162.555 68.5863 162.667 68.4744C162.779 68.3625 162.843 68.2117 162.845 68.0537V65.8154C162.842 65.6577 162.778 65.5073 162.667 65.3957C162.555 65.2841 162.405 65.22 162.247 65.2168Z" fill="#C1C7CD"/>
<path d="M166.603 68.693H174.195C174.352 68.689 174.503 68.6245 174.615 68.5127C174.726 68.401 174.791 68.2507 174.795 68.0927V65.8561C174.792 65.6978 174.728 65.5468 174.616 65.4348C174.504 65.3228 174.353 65.2587 174.195 65.2559H166.603C166.445 65.2599 166.295 65.3244 166.183 65.4361C166.071 65.5478 166.007 65.6982 166.003 65.8561V68.0927C166.006 68.251 166.07 68.4021 166.182 68.514C166.294 68.626 166.445 68.6901 166.603 68.693Z" fill="#C1C7CD"/>
<path d="M184.944 68.693C185.101 68.689 185.252 68.6245 185.364 68.5127C185.475 68.401 185.54 68.2507 185.544 68.0927V65.8561C185.541 65.6978 185.477 65.5468 185.365 65.4348C185.253 65.3228 185.102 65.2587 184.944 65.2559H177.352C177.194 65.2599 177.044 65.3244 176.932 65.4361C176.82 65.5478 176.756 65.6982 176.752 65.8561V68.0927C176.755 68.251 176.819 68.4021 176.931 68.514C177.043 68.626 177.194 68.6901 177.352 68.693H184.944Z" fill="#C1C7CD"/>
<path d="M185.225 93.6279H168.323C168.165 93.6312 168.015 93.6955 167.903 93.8074C167.791 93.9193 167.728 94.0701 167.725 94.2282V96.4648C167.729 96.6225 167.793 96.7726 167.904 96.8843C168.016 96.996 168.166 97.0607 168.323 97.0651H185.225C185.383 97.0614 185.533 96.997 185.645 96.8851C185.756 96.7733 185.82 96.6227 185.823 96.4648V94.2266C185.82 94.0688 185.756 93.9184 185.644 93.8069C185.533 93.6953 185.382 93.6312 185.225 93.6279Z" fill="#C1C7CD"/>
<path d="M162.247 71.6895H146.822C146.664 71.6931 146.514 71.7575 146.402 71.8693C146.29 71.9811 146.226 72.1316 146.222 72.2897V74.5263C146.226 74.6843 146.291 74.8346 146.402 74.9463C146.514 75.0581 146.664 75.1226 146.822 75.1266H162.247C162.404 75.1222 162.554 75.0575 162.666 74.9458C162.777 74.8341 162.841 74.684 162.845 74.5263V72.2897C162.841 72.132 162.777 71.9819 162.666 71.8702C162.554 71.7586 162.404 71.6939 162.247 71.6895Z" fill="#C1C7CD"/>
<path d="M185.225 71.6895H166.603C166.445 71.6935 166.295 71.758 166.183 71.8697C166.071 71.9814 166.007 72.1318 166.003 72.2897V74.5263C166.006 74.6847 166.07 74.8357 166.182 74.9476C166.294 75.0596 166.445 75.1237 166.603 75.1266H185.225C185.382 75.1222 185.532 75.0575 185.644 74.9458C185.755 74.8341 185.819 74.684 185.823 74.5263V72.2897C185.819 72.132 185.755 71.9819 185.644 71.8702C185.532 71.7586 185.382 71.6939 185.225 71.6895Z" fill="#C1C7CD"/>
<path d="M215.073 66.6914L189.819 171.467L273.975 191.767L299.231 86.9903L215.073 66.6914Z" fill="white"/>
<path d="M232.257 84.8768L230.818 84.5167C230.719 84.4964 230.615 84.5137 230.528 84.5654C230.44 84.617 230.375 84.6993 230.345 84.7963L226.87 93.2674L225.991 87.7532C225.975 87.6976 225.946 87.6464 225.908 87.603C225.869 87.5597 225.822 87.5254 225.769 87.5024C225.716 87.4795 225.658 87.4686 225.6 87.4705C225.542 87.4723 225.485 87.4869 225.434 87.5131C225.365 87.5489 225.308 87.6045 225.271 87.6726L222.076 92.1096L222.755 82.8787C222.76 82.7904 222.735 82.703 222.684 82.6305C222.633 82.5581 222.56 82.5047 222.475 82.479L221.316 82.1995C220.842 82.0794 220.597 82.8313 221.115 82.9577V82.9987L221.956 83.1977L221.196 93.4649C221.156 93.904 221.715 93.9387 221.956 93.6639L225.431 88.8289L226.389 94.7838C226.468 95.2229 227.029 95.0997 227.148 94.7838L231.065 85.3065L232.144 85.586C232.576 85.7551 232.775 84.9953 232.257 84.8768Z" fill="#343A3F"/>
<path d="M299.829 86.2777C299.602 86.2271 221.032 67.165 214.874 65.8572C214.775 65.8524 214.676 65.8717 214.585 65.9135C214.495 65.9553 214.416 66.0184 214.355 66.0972C213.868 67.4446 189.064 171.214 189.001 171.585C188.892 172.217 189.633 172.31 189.758 172.34C258.434 188.884 271.947 192.012 274.236 192.528C274.514 192.591 274.643 192.438 274.654 192.37C295.663 105.217 299.514 89.857 299.945 87.1496C300.071 86.3504 299.959 86.303 299.829 86.2777ZM274.015 191.773C274.015 191.773 190.099 171.555 189.78 171.473L215.034 66.6912C215.034 66.6912 298.909 86.9095 299.224 86.9901L274.015 191.773Z" fill="#343A3F"/>
<path d="M275.414 136.666L213.595 121.761C213.519 121.742 213.44 121.739 213.363 121.751C213.285 121.763 213.211 121.791 213.145 121.831C213.078 121.872 213.02 121.926 212.974 121.989C212.928 122.052 212.895 122.124 212.876 122.2L212.357 124.358C212.338 124.434 212.334 124.513 212.347 124.59C212.364 124.707 212.415 124.816 212.495 124.904C212.576 124.991 212.68 125.052 212.796 125.078L274.615 139.983C274.691 140.001 274.77 140.005 274.847 139.992C274.925 139.98 274.999 139.953 275.066 139.912C275.132 139.872 275.19 139.818 275.236 139.755C275.282 139.691 275.315 139.62 275.334 139.543L275.853 137.386C275.889 137.232 275.864 137.07 275.784 136.934C275.7 136.8 275.568 136.703 275.414 136.666Z" fill="#C1C7CD"/>
<path d="M267.861 168.033L234.058 159.881C233.943 159.855 233.824 159.863 233.713 159.904C233.603 159.945 233.507 160.016 233.436 160.11C233.39 160.173 233.357 160.245 233.339 160.321L232.82 162.479C232.801 162.555 232.798 162.634 232.81 162.711C232.827 162.828 232.879 162.937 232.959 163.024C233.039 163.111 233.144 163.172 233.259 163.198L267.061 171.35C267.137 171.369 267.216 171.372 267.294 171.359C267.411 171.343 267.52 171.291 267.607 171.211C267.694 171.131 267.755 171.026 267.782 170.911L268.301 168.753C268.327 168.638 268.319 168.519 268.278 168.408C268.237 168.298 268.166 168.202 268.072 168.131C268.009 168.085 267.937 168.052 267.861 168.033Z" fill="#C1C7CD"/>
<path d="M241.807 168.392L232.537 166.154C232.422 166.129 232.303 166.137 232.192 166.177C232.082 166.218 231.986 166.289 231.915 166.383C231.869 166.447 231.836 166.519 231.817 166.595L231.297 168.752C231.261 168.906 231.287 169.068 231.37 169.202C231.452 169.337 231.585 169.433 231.738 169.471L241.008 171.709C241.084 171.729 241.163 171.733 241.241 171.72C241.318 171.708 241.392 171.68 241.458 171.638C241.593 171.556 241.689 171.424 241.727 171.27L242.246 169.111C242.266 169.035 242.27 168.956 242.257 168.879C242.245 168.801 242.217 168.727 242.175 168.661C242.093 168.527 241.96 168.43 241.807 168.392Z" fill="#C1C7CD"/>
<path d="M254.515 171.43L245.245 169.192C245.13 169.165 245.01 169.172 244.899 169.212C244.788 169.253 244.692 169.325 244.622 169.42C244.575 169.483 244.542 169.555 244.524 169.631L244.005 171.789C243.979 171.904 243.987 172.023 244.028 172.134C244.069 172.244 244.14 172.34 244.234 172.411C244.297 172.457 244.369 172.49 244.445 172.509L253.716 174.746C253.792 174.765 253.871 174.768 253.948 174.756C254.025 174.744 254.1 174.717 254.166 174.676C254.233 174.635 254.291 174.581 254.337 174.518C254.383 174.455 254.416 174.383 254.434 174.307L254.954 172.149C254.974 172.073 254.977 171.994 254.965 171.917C254.953 171.839 254.925 171.765 254.883 171.699C254.8 171.565 254.668 171.468 254.515 171.43Z" fill="#C1C7CD"/>
<path d="M211.238 131.43L252.796 141.46C252.872 141.478 252.951 141.482 253.029 141.47C253.106 141.458 253.18 141.43 253.247 141.39C253.314 141.349 253.372 141.295 253.418 141.232C253.464 141.169 253.497 141.097 253.515 141.021L254.035 138.863C254.071 138.709 254.046 138.547 253.965 138.411C253.882 138.277 253.749 138.18 253.596 138.143L212.037 128.113C211.961 128.093 211.882 128.09 211.804 128.102C211.727 128.114 211.652 128.142 211.586 128.184C211.451 128.267 211.355 128.4 211.317 128.553L210.797 130.711C210.766 130.864 210.794 131.024 210.876 131.157C210.958 131.291 211.087 131.388 211.238 131.43Z" fill="#C1C7CD"/>
<path d="M234.815 154.087L234.295 156.244C234.276 156.32 234.273 156.399 234.286 156.477C234.302 156.594 234.354 156.703 234.434 156.79C234.514 156.878 234.619 156.938 234.734 156.965L257.271 162.398C257.347 162.417 257.426 162.42 257.503 162.408C257.621 162.391 257.73 162.34 257.817 162.259C257.904 162.179 257.965 162.075 257.992 161.959L258.511 159.802C258.53 159.725 258.533 159.646 258.521 159.569C258.508 159.492 258.481 159.418 258.44 159.351C258.399 159.284 258.345 159.226 258.282 159.18C258.219 159.134 258.147 159.101 258.071 159.083L235.533 153.648C235.38 153.616 235.221 153.644 235.087 153.725C234.954 153.807 234.856 153.936 234.815 154.087Z" fill="#C1C7CD"/>
<path d="M269.339 161.8L261.667 159.961C261.591 159.943 261.512 159.939 261.435 159.951C261.358 159.963 261.283 159.991 261.217 160.031C261.15 160.072 261.092 160.126 261.046 160.189C261 160.253 260.967 160.324 260.949 160.4L260.429 162.558C260.392 162.712 260.417 162.874 260.498 163.01C260.582 163.144 260.714 163.241 260.868 163.278L268.54 165.117C268.655 165.142 268.774 165.134 268.885 165.094C268.995 165.053 269.091 164.982 269.162 164.888C269.208 164.824 269.241 164.752 269.26 164.676L269.78 162.519C269.806 162.442 269.815 162.361 269.807 162.281C269.798 162.201 269.772 162.123 269.731 162.054C269.689 161.985 269.632 161.927 269.564 161.883C269.496 161.839 269.419 161.81 269.339 161.8Z" fill="#C1C7CD"/>
<path d="M283.246 104.217L234.249 92.3891C234.173 92.3705 234.094 92.3671 234.017 92.3791C233.939 92.3911 233.865 92.4183 233.798 92.4591C233.731 92.4999 233.673 92.5535 233.627 92.6168C233.581 92.6802 233.547 92.752 233.529 92.8282L233.009 94.9859C232.99 95.0618 232.986 95.1409 232.999 95.2183C233.011 95.2957 233.039 95.3698 233.08 95.4361C233.163 95.5708 233.296 95.6673 233.45 95.7046L282.44 107.534C282.555 107.562 282.675 107.555 282.786 107.515C282.897 107.474 282.993 107.401 283.062 107.305C283.108 107.241 283.142 107.169 283.16 107.093L283.68 104.936C283.716 104.783 283.69 104.622 283.609 104.488C283.528 104.354 283.397 104.256 283.246 104.217Z" fill="#C1C7CD"/>
<path d="M219.07 98.9012L245.723 105.335C245.799 105.354 245.878 105.357 245.956 105.346C246.034 105.334 246.108 105.307 246.175 105.266C246.242 105.225 246.3 105.171 246.346 105.108C246.392 105.044 246.425 104.972 246.443 104.896L246.961 102.738C246.981 102.662 246.984 102.583 246.972 102.506C246.96 102.428 246.932 102.354 246.89 102.288C246.85 102.221 246.796 102.163 246.733 102.117C246.67 102.07 246.598 102.037 246.522 102.019L219.875 95.5857C219.799 95.5669 219.72 95.5633 219.643 95.5753C219.565 95.5872 219.491 95.6144 219.424 95.6552C219.357 95.6961 219.299 95.7498 219.253 95.8132C219.207 95.8766 219.174 95.9486 219.156 96.0248L218.637 98.1825C218.618 98.2581 218.614 98.3368 218.625 98.4139C218.637 98.4911 218.663 98.5652 218.703 98.632C218.744 98.6988 218.797 98.757 218.86 98.8032C218.922 98.8494 218.994 98.8827 219.07 98.9012Z" fill="#C1C7CD"/>
<path d="M281.728 110.445L250.926 103.013C250.85 102.994 250.771 102.991 250.694 103.003C250.617 103.015 250.543 103.043 250.476 103.083C250.409 103.124 250.351 103.178 250.305 103.241C250.259 103.304 250.226 103.376 250.208 103.452L249.688 105.61C249.652 105.763 249.678 105.925 249.76 106.059C249.842 106.194 249.974 106.291 250.127 106.33L280.928 113.754C281.004 113.773 281.083 113.776 281.161 113.764C281.238 113.752 281.312 113.725 281.379 113.684C281.446 113.643 281.504 113.59 281.55 113.526C281.596 113.463 281.629 113.391 281.647 113.315L282.167 111.157C282.201 111.004 282.174 110.844 282.092 110.711C282.01 110.578 281.879 110.482 281.728 110.445Z" fill="#C1C7CD"/>
<path d="M217.432 105.776L233.216 109.567C233.292 109.586 233.371 109.589 233.449 109.577C233.526 109.565 233.6 109.538 233.667 109.497C233.734 109.456 233.792 109.403 233.838 109.339C233.884 109.276 233.917 109.204 233.935 109.128L234.455 106.97C234.474 106.894 234.478 106.814 234.466 106.737C234.453 106.659 234.425 106.585 234.384 106.518C234.344 106.451 234.291 106.392 234.227 106.346C234.164 106.3 234.092 106.267 234.015 106.25L218.231 102.459C218.155 102.44 218.076 102.436 217.998 102.448C217.921 102.46 217.847 102.487 217.78 102.528C217.713 102.569 217.655 102.623 217.609 102.686C217.563 102.75 217.53 102.822 217.512 102.898L216.993 105.056C216.957 105.209 216.983 105.371 217.065 105.505C217.147 105.64 217.279 105.737 217.432 105.776Z" fill="#C1C7CD"/>
<path d="M280.09 117.324L239.653 107.573C239.577 107.554 239.498 107.551 239.42 107.562C239.342 107.574 239.268 107.601 239.201 107.642C239.134 107.683 239.076 107.737 239.03 107.8C238.983 107.864 238.951 107.936 238.933 108.012L238.414 110.17C238.379 110.324 238.405 110.485 238.487 110.62C238.569 110.754 238.701 110.852 238.854 110.89L279.252 120.684C279.329 120.702 279.408 120.706 279.485 120.694C279.562 120.682 279.637 120.654 279.704 120.614C279.771 120.573 279.829 120.519 279.875 120.456C279.921 120.393 279.954 120.321 279.973 120.245L280.492 118.085C280.523 118.009 280.536 117.927 280.531 117.845C280.527 117.764 280.504 117.684 280.465 117.611C280.427 117.539 280.374 117.476 280.309 117.426C280.244 117.377 280.169 117.342 280.09 117.324Z" fill="#C1C7CD"/>
<path d="M234.935 89.5111L267.782 97.4231C267.858 97.4419 267.937 97.4454 268.014 97.4335C268.092 97.4215 268.166 97.3943 268.233 97.3535C268.3 97.3127 268.358 97.259 268.404 97.1955C268.45 97.1321 268.482 97.0602 268.5 96.984L269.02 94.8263C269.04 94.7501 269.043 94.6708 269.031 94.5931C269.019 94.5154 268.991 94.441 268.949 94.3745C268.909 94.307 268.856 94.2483 268.793 94.2021C268.729 94.156 268.657 94.1232 268.581 94.106L235.734 86.194C235.58 86.1575 235.418 86.183 235.282 86.2651C235.147 86.3479 235.051 86.4808 235.014 86.6347L234.494 88.7924C234.475 88.8683 234.471 88.9474 234.483 89.0248C234.495 89.1022 234.523 89.1763 234.565 89.2425C234.648 89.3773 234.781 89.4738 234.935 89.5111Z" fill="#C1C7CD"/>
<path d="M284.724 97.9429L273.176 95.1455C273.1 95.1271 273.021 95.124 272.943 95.1362C272.866 95.1484 272.792 95.1758 272.725 95.2168C272.658 95.2577 272.6 95.3114 272.554 95.3748C272.508 95.4382 272.475 95.51 272.457 95.5862L271.937 97.7439C271.918 97.8198 271.914 97.8989 271.926 97.9763C271.939 98.0537 271.967 98.1278 272.009 98.194C272.091 98.3288 272.223 98.4254 272.377 98.4626L283.925 101.26C284.001 101.279 284.08 101.282 284.157 101.27C284.235 101.258 284.309 101.231 284.376 101.19C284.443 101.149 284.501 101.096 284.547 101.032C284.593 100.969 284.627 100.897 284.645 100.821L285.165 98.6616C285.19 98.5855 285.197 98.5048 285.188 98.4254C285.178 98.3459 285.151 98.2696 285.108 98.2019C285.066 98.1335 285.011 98.0749 284.944 98.0301C284.878 97.9854 284.803 97.9556 284.724 97.9429Z" fill="#C1C7CD"/>
<path d="M252.037 147.249L252.556 145.091C252.576 145.016 252.579 144.936 252.567 144.859C252.555 144.782 252.527 144.708 252.485 144.641C252.445 144.574 252.391 144.516 252.328 144.47C252.265 144.424 252.193 144.391 252.117 144.373L210.559 134.343C210.444 134.315 210.324 134.322 210.214 134.363C210.103 134.403 210.007 134.475 209.937 134.57C209.89 134.633 209.856 134.705 209.839 134.782L209.319 136.939C209.294 137.054 209.302 137.174 209.342 137.284C209.383 137.394 209.454 137.491 209.548 137.562C209.612 137.608 209.684 137.641 209.76 137.66L251.318 147.688C251.394 147.707 251.473 147.71 251.55 147.698C251.628 147.686 251.702 147.659 251.769 147.618C251.835 147.577 251.893 147.524 251.939 147.46C251.985 147.397 252.018 147.325 252.037 147.249Z" fill="#C1C7CD"/>
<path d="M277.013 130.111L215.193 115.206C215.117 115.187 215.038 115.183 214.961 115.195C214.884 115.207 214.809 115.235 214.743 115.275C214.676 115.316 214.618 115.37 214.572 115.433C214.526 115.497 214.493 115.569 214.475 115.645L213.955 117.803C213.936 117.879 213.933 117.958 213.946 118.035C213.956 118.113 213.983 118.187 214.023 118.255C214.064 118.322 214.118 118.38 214.183 118.425C214.246 118.472 214.318 118.504 214.394 118.523L276.213 133.467C276.289 133.486 276.368 133.489 276.446 133.477C276.523 133.465 276.597 133.438 276.664 133.397C276.731 133.356 276.789 133.303 276.835 133.239C276.881 133.176 276.914 133.104 276.932 133.028L277.452 130.87C277.493 130.711 277.471 130.542 277.388 130.4C277.306 130.258 277.171 130.154 277.013 130.111Z" fill="#C1C7CD"/>
<path d="M278.531 123.837L216.716 108.932C216.562 108.896 216.401 108.922 216.266 109.004C216.131 109.086 216.034 109.218 215.996 109.371L215.476 111.53C215.44 111.684 215.467 111.846 215.549 111.98C215.632 112.115 215.764 112.211 215.917 112.249L277.735 127.154C277.811 127.172 277.889 127.176 277.967 127.164C278.044 127.152 278.118 127.125 278.185 127.084C278.252 127.043 278.31 126.989 278.356 126.926C278.402 126.863 278.435 126.791 278.453 126.715L278.973 124.557C278.992 124.481 278.996 124.402 278.984 124.324C278.971 124.246 278.944 124.172 278.902 124.105C278.861 124.038 278.807 123.98 278.743 123.934C278.679 123.888 278.607 123.855 278.531 123.837Z" fill="#C1C7CD"/>
<path d="M272.377 149.212L262.147 146.733C262.071 146.714 261.992 146.711 261.914 146.723C261.837 146.735 261.762 146.763 261.696 146.804C261.561 146.888 261.465 147.02 261.427 147.174L260.909 149.332C260.891 149.408 260.887 149.487 260.9 149.564C260.912 149.641 260.939 149.715 260.98 149.782C261.02 149.849 261.074 149.907 261.137 149.953C261.2 149.999 261.272 150.032 261.348 150.05L271.577 152.529C271.692 152.554 271.812 152.546 271.922 152.505C272.032 152.465 272.129 152.393 272.2 152.3C272.245 152.236 272.279 152.164 272.298 152.088L272.816 149.93C272.847 149.777 272.82 149.618 272.738 149.484C272.657 149.351 272.527 149.253 272.377 149.212Z" fill="#C1C7CD"/>
<path d="M208.28 142.538L202.766 165.434L225.663 170.948L231.177 148.052L208.28 142.538Z" fill="white"/>
<path d="M222.188 157.419L217.402 161.351L213.987 153.668L208.101 158.43L206.91 162.79L223.199 166.834L224.21 162.452L222.188 157.419Z" fill="#C1C7CD"/>
<path d="M213.835 153.167C213.882 153.139 213.934 153.122 213.988 153.115C214.041 153.108 214.096 153.112 214.148 153.127C214.201 153.142 214.249 153.167 214.291 153.201C214.334 153.235 214.369 153.277 214.394 153.325L217.553 160.749L221.845 157.245C221.926 157.16 222.037 157.11 222.154 157.104C222.271 157.098 222.386 157.137 222.475 157.214C222.535 157.265 222.58 157.33 222.606 157.403L224.069 161.352L226.625 150.867L211.061 147.076L208.477 157.569C208.52 157.561 213.835 153.167 213.835 153.167Z" fill="#C1C7CD"/>
<path d="M221.761 151.853C221.481 151.892 221.219 152.014 221.008 152.203C220.797 152.391 220.647 152.639 220.577 152.913C220.525 153.118 220.52 153.332 220.562 153.54C220.603 153.747 220.691 153.943 220.818 154.112C220.944 154.281 221.108 154.42 221.295 154.518C221.482 154.617 221.689 154.672 221.901 154.68C222.112 154.688 222.323 154.649 222.517 154.566C222.711 154.482 222.884 154.356 223.024 154.197C223.164 154.038 223.266 153.85 223.323 153.646C223.381 153.443 223.392 153.229 223.357 153.02C223.288 152.66 223.085 152.339 222.789 152.122C222.493 151.906 222.126 151.809 221.761 151.853Z" fill="white"/>
<path d="M231.777 147.373L208.12 141.658C208.02 141.637 207.916 141.654 207.828 141.706C207.74 141.758 207.675 141.842 207.646 141.94L201.932 165.595C201.91 165.695 201.928 165.799 201.979 165.886C202.031 165.974 202.114 166.039 202.211 166.069L225.947 171.782C225.994 171.792 226.043 171.793 226.09 171.785C226.138 171.776 226.183 171.758 226.224 171.732C226.265 171.706 226.3 171.673 226.328 171.633C226.357 171.594 226.377 171.55 226.388 171.503L232.101 147.847C232.099 147.745 232.068 147.646 232.01 147.562C231.952 147.478 231.872 147.412 231.777 147.373ZM225.663 170.95L202.759 165.435L208.275 142.532L231.179 148.046L225.663 170.95Z" fill="#343A3F"/>
<path d="M227.141 150.21L210.918 146.301C210.818 146.281 210.715 146.299 210.628 146.351C210.541 146.402 210.475 146.484 210.444 146.58C207.052 161.998 207.169 160.107 206.568 162.804C206.546 162.903 206.563 163.007 206.615 163.095C206.667 163.183 206.75 163.248 206.847 163.278L223.117 167.193C223.216 167.212 223.319 167.195 223.407 167.144C223.494 167.092 223.559 167.01 223.59 166.914C224.478 162.965 223.556 166.874 227.467 150.69C227.472 150.586 227.443 150.482 227.384 150.396C227.325 150.309 227.24 150.244 227.141 150.21ZM222.786 166.361L207.362 162.644C207.678 161.321 208.199 159.092 208.281 158.928L213.835 154.252C217.098 161.937 216.912 161.646 217.072 161.805C217.231 161.965 217.436 161.963 217.77 161.682L222.035 158.128L223.692 162.56C223.625 162.84 223.426 163.797 222.786 166.361ZM224.105 161.046C224.049 161.33 224.3 161.858 222.589 157.4C222.571 157.32 222.531 157.246 222.474 157.187C222.418 157.126 222.346 157.083 222.267 157.06C222.188 157.037 222.105 157.035 222.025 157.056C221.945 157.075 221.872 157.116 221.813 157.174L217.512 160.766L214.353 153.333C214.317 153.278 214.269 153.233 214.214 153.199C214.158 153.165 214.096 153.144 214.031 153.137C213.967 153.129 213.901 153.135 213.839 153.155C213.778 153.175 213.721 153.209 213.674 153.254C213.674 153.254 208.919 157.25 208.559 157.53L211.076 147.179L226.541 150.895L224.105 161.046Z" fill="#343A3F"/>
<path d="M219.752 153.814C219.817 154.135 219.956 154.436 220.159 154.693C220.362 154.949 220.622 155.154 220.919 155.291C221.216 155.428 221.542 155.493 221.869 155.481C222.195 155.469 222.515 155.379 222.801 155.22C223.282 155.001 223.669 154.614 223.888 154.132C224.107 153.651 224.145 153.106 223.995 152.598C223.87 152.224 223.642 151.894 223.337 151.644C223.032 151.394 222.663 151.236 222.271 151.188C221.918 151.128 221.555 151.156 221.214 151.269C220.873 151.381 220.565 151.575 220.316 151.834C220.067 152.093 219.886 152.409 219.788 152.754C219.689 153.099 219.677 153.463 219.752 153.814ZM221.016 154.288C220.834 154.114 220.703 153.893 220.635 153.651C220.567 153.408 220.565 153.152 220.63 152.908C220.694 152.665 220.822 152.443 221.001 152.266C221.18 152.088 221.403 151.962 221.648 151.9C221.924 151.844 222.212 151.873 222.472 151.983C222.732 152.093 222.953 152.278 223.105 152.516C223.233 152.716 223.308 152.945 223.323 153.182C223.338 153.419 223.292 153.655 223.191 153.87C223.067 154.13 222.865 154.345 222.613 154.483C222.36 154.622 222.071 154.677 221.785 154.642C221.5 154.608 221.233 154.485 221.02 154.291L221.016 154.288Z" fill="#343A3F"/>
</svg>
