<svg width="300" height="170" viewBox="0 0 300 170" fill="none" xmlns="http://www.w3.org/2000/svg">
<path d="M299.229 12.1861L270.002 19.918C269.869 19.9541 269.752 20.0334 269.67 20.1434C269.588 20.2533 269.544 20.3876 269.547 20.525C269.55 20.6627 269.599 20.7954 269.687 20.9016C269.774 21.0078 269.895 21.0812 270.03 21.1099L274.208 22.0141L45.3076 155.603C45.2089 155.661 45.1281 155.745 45.074 155.846C45.0199 155.947 44.9946 156.061 45.0009 156.175C45.0079 156.29 45.047 156.4 45.1138 156.494C45.1805 156.587 45.2722 156.66 45.3783 156.704L74.9159 169.075L288.433 27.8779L293.054 30.4772C293.132 30.5212 293.219 30.5476 293.308 30.5546C293.398 30.5617 293.488 30.5492 293.572 30.5181C293.655 30.4862 293.731 30.4365 293.793 30.3724C293.856 30.3083 293.904 30.2314 293.933 30.147L299.965 12.9818C300.002 12.8766 300.009 12.7637 299.987 12.6547C299.964 12.5462 299.911 12.446 299.836 12.3644C299.76 12.2829 299.664 12.2229 299.558 12.1908C299.451 12.1594 299.337 12.1578 299.229 12.1861Z" fill="#343A3F"/>
<path d="M97.9609 143.404C103.653 141.88 107.606 138.171 106.789 135.119C105.971 132.065 100.695 130.826 95.0014 132.348C89.309 133.872 85.3558 137.583 86.1735 140.635C86.9912 143.687 92.2669 144.928 97.9609 143.404Z" fill="#DDE1E6"/>
<path d="M107.088 134.194C104.514 129.221 92.9528 130.568 87.729 135.471C84.5384 138.459 85.5275 140.503 86.037 142.464C89.4871 150.226 112.04 143.763 107.088 134.194ZM88.5687 136.364C91.7003 133.748 95.6524 132.315 99.7334 132.318C105.611 132.318 108.434 135.595 104.397 139.387C102.475 140.995 100.225 142.164 97.8036 142.812C95.3824 143.46 92.8488 143.571 90.3802 143.137C86.243 142.165 85.4866 139.258 88.5687 136.364Z" fill="#343A3F"/>
<path d="M65.5589 16.9531C61.0742 26.388 52.589 33.2142 44.6826 39.8407C28.0142 53.8059 11.9104 69.5606 3.70202 89.7907C1.74573 94.4463 0.697976 99.4331 0.615234 104.482C8.33173 95.8246 18.5434 89.773 29.843 87.1615C46.4249 83.3403 64.2993 88.9761 81.0306 78.0411L65.5589 16.9531Z" fill="#F2F4F8"/>
<path d="M96.7802 136.46L66.7788 16.148C66.7551 16.0482 66.7117 15.9542 66.6512 15.8715C66.5906 15.7888 66.5141 15.719 66.4262 15.6662C66.3383 15.6135 66.2408 15.5788 66.1393 15.5644C66.0378 15.5499 65.9344 15.5558 65.8353 15.5819C65.4359 15.6841 65.3903 15.8806 65.005 16.6826C60.8348 25.4571 53.1123 31.9357 45.6477 38.2257C28.5013 52.6611 11.7795 68.2664 3.14497 89.5485C1.15081 94.281 0.0831828 99.3522 3.3175e-06 104.487C-0.000302765 104.58 0.020575 104.672 0.0610514 104.755C0.101528 104.839 0.160538 104.912 0.233601 104.97C0.306663 105.027 0.391857 105.067 0.482712 105.087C0.573566 105.107 0.667692 105.105 0.757941 105.083C0.879 105.054 0.988265 104.989 1.07087 104.896C8.70041 96.3287 18.8015 90.3413 29.9794 87.7605C46.3726 84.0212 64.2738 89.4211 80.8321 78.8964L95.2785 136.836C95.3111 136.99 95.3892 137.129 95.5025 137.238C95.6159 137.346 95.7592 137.418 95.9138 137.443C96.0167 137.459 96.1217 137.454 96.2227 137.428C96.3236 137.403 96.4185 137.358 96.5019 137.295C96.6265 137.201 96.7196 137.07 96.769 136.921C96.8184 136.773 96.8217 136.613 96.7786 136.462H96.7802V136.46ZM29.7058 86.5639C18.8258 89.0737 8.93129 94.7456 1.26743 102.866C1.543 98.4409 2.56208 94.094 4.28188 90.0076C12.789 69.0401 29.3913 53.5055 46.4434 39.1644C53.7554 33.016 61.3097 26.6695 65.6764 18.1151L80.5191 77.6385C64.203 88.1993 46.3144 82.7742 29.7058 86.5639Z" fill="#343A3F"/>
<path d="M40.9353 62.9014C39.0892 59.3381 35.5889 59.3318 35.4316 62.491C35.2744 65.5306 38.3171 69.0482 40.495 67.9223C41.8348 67.2241 42.0314 65.0179 40.9353 62.9014Z" fill="#343A3F"/>
<path d="M66.3981 46.4764C65.5286 44.797 63.6463 43.1082 62.0392 43.9447C60.4321 44.7813 60.7293 47.2973 61.5926 48.9657C62.4559 50.6341 64.3445 52.3324 65.95 51.4974C67.5555 50.6624 67.2614 48.1433 66.3981 46.4764Z" fill="#343A3F"/>
<path d="M61.2361 66.5931C61.7 69.5321 58.9356 72.144 56.7514 69.3764C55.5248 67.8228 54.5499 64.4074 55.5138 62.5723C57.0674 59.6317 60.3697 63.3868 61.2361 66.5931Z" fill="white"/>
<path d="M56.267 69.7544C55.009 68.1819 53.8706 64.4865 54.965 62.2992C56.9055 58.8004 60.7455 62.4659 61.8273 66.4333C62.4375 70.2513 58.7515 72.9465 56.267 69.7544ZM56.9746 62.1388C56.7692 62.1675 56.5751 62.2505 56.4126 62.3793C56.25 62.5082 56.1248 62.6781 56.05 62.8716C54.9493 65.0841 57.0265 70.8048 59.2799 69.8346C59.8057 69.5175 60.2187 69.0435 60.4608 68.4793C60.7028 67.915 60.7617 67.2891 60.6291 66.6896C60.1857 65.0731 58.4543 62.1388 56.9746 62.1388Z" fill="#343A3F"/>
<path d="M156.805 104.173C161.502 104.173 165.311 102.096 165.311 99.5343C165.311 96.9728 161.502 94.8955 156.805 94.8955C152.108 94.8955 148.3 96.9728 148.3 99.5343C148.3 102.096 152.108 104.173 156.805 104.173Z" fill="#DDE1E6"/>
<path d="M156.805 94.2803C153.116 94.2803 147.885 95.8528 147.685 99.3122C147.675 99.4695 147.685 99.4695 147.685 101.009C148.048 103.736 152.05 105.871 156.805 105.871C160.707 105.871 165.926 103.81 165.926 100.773V99.3814C165.924 95.9377 160.557 94.2803 156.805 94.2803ZM156.805 95.5068C161.084 95.5068 164.698 97.3513 164.698 99.5339C164.698 101.717 161.081 103.56 156.805 103.56C152.53 103.56 148.913 101.715 148.913 99.5339C148.913 97.3529 152.528 95.5068 156.805 95.5068Z" fill="#343A3F"/>
<path d="M156.651 25.9287V50.6655C168.887 44.7889 182.211 41.5222 195.776 41.0733C184.76 31.8512 171.006 26.5271 156.651 25.9287Z" fill="#F2F4F8"/>
<path d="M196.167 40.6065C185.057 31.283 171.17 25.9036 156.678 25.3094C156.335 25.2937 156.038 25.5091 156.038 26.0768V98.4504C156.038 98.613 156.103 98.7687 156.218 98.8836C156.333 98.9985 156.488 99.0633 156.651 99.0637C156.813 99.0633 156.969 98.9985 157.084 98.8836C157.199 98.7687 157.264 98.613 157.264 98.4504V51.0526C169.322 45.3059 182.439 42.1181 195.79 41.69C195.915 41.6867 196.035 41.6456 196.136 41.5721C196.236 41.4986 196.312 41.3963 196.353 41.2787C196.394 41.161 196.398 41.0337 196.365 40.9136C196.332 40.7936 196.263 40.6865 196.167 40.6065ZM157.264 49.6955V26.5658C170.713 27.2481 183.609 32.1332 194.134 40.5326C181.364 41.1493 168.838 44.2623 157.264 49.6955Z" fill="#343A3F"/>
<path d="M162.372 31.3379C160.727 31.3379 160.727 35.3477 162.372 35.3477C164.017 35.3477 164.019 31.3379 162.372 31.3379Z" fill="#343A3F"/>
<path d="M173.353 35.5049C171.708 35.5049 171.708 31.4951 173.353 31.4951C174.998 31.4951 175.004 35.5049 173.353 35.5049Z" fill="#343A3F"/>
<path d="M164.608 37.4867C164.548 37.3425 164.545 37.1809 164.599 37.0345C164.654 36.8881 164.762 36.768 164.902 36.6983C165.042 36.6286 165.203 36.6145 165.353 36.659C165.502 36.7035 165.63 36.8032 165.709 36.9379C165.919 37.3032 166.223 37.6066 166.588 37.8177C166.953 38.0289 167.367 38.1403 167.789 38.1409C168.211 38.1411 168.626 38.03 168.991 37.8188C169.357 37.6076 169.66 37.3037 169.871 36.9379C169.926 36.8302 170.012 36.741 170.117 36.6815C170.222 36.6219 170.343 36.5947 170.464 36.603C170.585 36.6114 170.7 36.6551 170.796 36.7286C170.892 36.8021 170.965 36.9022 171.005 37.0165C171.031 37.0932 171.041 37.1742 171.035 37.2549C171.03 37.3356 171.008 37.4144 170.972 37.4867C170.659 38.0575 170.199 38.5336 169.639 38.8654C169.079 39.1971 168.44 39.3721 167.79 39.3721C167.139 39.3721 166.5 39.1971 165.94 38.8654C165.381 38.5336 164.92 38.0575 164.608 37.4867Z" fill="#343A3F"/>
<path d="M248.973 46.6213C252.016 46.6213 254.482 45.3115 254.482 43.695C254.482 42.0784 252.016 40.7686 248.973 40.7686C245.931 40.7686 243.465 42.0784 243.465 43.695C243.465 45.3115 245.931 46.6213 248.973 46.6213Z" fill="#DDE1E6"/>
<path d="M255.095 43.6982C255.095 41.7138 252.406 40.1602 248.973 40.1602C245.541 40.1602 242.852 41.7138 242.852 43.6982C242.852 46.8747 245.997 48.1012 249.142 48.1012C252.018 48.1012 255.095 46.7772 255.095 43.6982ZM248.973 41.3867C251.857 41.3867 253.867 42.6038 253.867 43.6982C253.867 44.7927 251.857 46.0098 248.973 46.0098C246.089 46.0098 244.078 44.7927 244.078 43.6982C244.078 42.6038 246.089 41.382 248.973 41.382V41.3851V41.3867Z" fill="#343A3F"/>
<path d="M248.817 0.686289L248.975 18.0056C255.92 13.0711 263.822 9.647 272.172 7.95432C265.056 3.6237 257.015 0.0683025 248.817 0.686289Z" fill="#F2F4F8"/>
<path d="M272.488 7.43044C263.368 1.87799 255.831 -0.460296 248.772 0.0743494C248.651 0.083507 248.536 0.12828 248.44 0.203006C248.345 0.277733 248.274 0.379066 248.236 0.494206C248.211 0.570704 248.201 0.651412 248.207 0.731653V43.0582C248.207 43.2209 248.272 43.3769 248.387 43.4919C248.502 43.6069 248.658 43.6715 248.821 43.6715C248.983 43.6715 249.139 43.6069 249.254 43.4919C249.369 43.3769 249.434 43.2209 249.434 43.0582V18.4331C256.28 13.58 264.067 10.2149 272.293 8.55477C272.414 8.5306 272.525 8.47028 272.61 8.38181C272.696 8.29334 272.753 8.18091 272.773 8.05944C272.795 7.9381 272.779 7.81299 272.728 7.70067C272.678 7.58835 272.594 7.49411 272.488 7.43044ZM249.432 16.9393V1.26158C255.722 0.931356 262.468 2.99131 270.519 7.68361C262.968 9.40605 255.812 12.5469 249.432 16.9393Z" fill="#343A3F"/>
<path d="M252.37 4.09375C251.183 4.09375 251.098 6.86604 252.37 6.86604C253.596 6.86604 253.628 4.09375 252.37 4.09375Z" fill="#343A3F"/>
<path d="M259.798 4.09375C258.562 4.09375 258.562 6.86604 259.798 6.86604C260.985 6.86604 261.07 4.09375 259.798 4.09375Z" fill="#343A3F"/>
<path d="M258.176 8.08585C258.024 8.03102 257.857 8.03784 257.71 8.10485C257.563 8.17185 257.448 8.29373 257.39 8.44438C257.018 9.42875 254.963 9.44291 254.817 8.50885C254.796 8.38983 254.742 8.27923 254.66 8.19028C254.579 8.10132 254.473 8.03778 254.356 8.00723C254.278 7.98838 254.197 7.98517 254.117 7.99779C253.026 8.16762 253.685 10.4241 255.985 10.4241C258.136 10.4241 259.181 8.47425 258.176 8.08585Z" fill="#343A3F"/>
<path d="M205.981 73.0895C209.654 73.0895 212.631 71.4966 212.631 69.5325C212.631 67.5669 209.654 65.9756 205.981 65.9756C202.308 65.9756 199.331 67.5685 199.331 69.5325C199.331 71.4981 202.308 73.0895 205.981 73.0895Z" fill="#DDE1E6"/>
<path d="M213.226 69.2275C212.961 67.0354 209.875 65.3623 205.981 65.3623C202.317 65.3623 199.377 66.8452 198.814 68.8454C198.695 69.4617 198.666 70.0919 198.727 70.7166C199.098 72.9495 202.218 74.6321 205.981 74.6321C209.063 74.6321 213.245 72.9338 213.245 70.6144C213.262 70.1521 213.256 69.6892 213.226 69.2275ZM212.018 69.5325C212.018 70.9478 209.593 72.4762 205.981 72.4762C202.369 72.4762 199.944 70.9541 199.944 69.5325C199.944 68.111 202.371 66.5888 205.981 66.5888C209.592 66.5888 212.018 68.111 212.018 69.5325Z" fill="#343A3F"/>
<path d="M222.682 14.0145C217.442 12.1166 211.839 11.4296 206.295 12.0049V33.8105C215.897 27.5609 226.605 23.204 237.843 20.9743C232.953 18.3136 227.888 15.9883 222.682 14.0145Z" fill="#F2F4F8"/>
<path d="M238.134 20.4364C233.214 17.7606 228.118 15.4226 222.881 13.4389C217.552 11.5018 211.852 10.8027 206.212 11.3946C206.003 11.4615 205.815 11.5811 205.665 11.7419C205.515 11.9028 205.41 12.0994 205.358 12.313V68.6079C205.366 68.7651 205.433 68.9133 205.547 69.0217C205.661 69.1301 205.813 69.1903 205.97 69.1898C206.128 69.1908 206.28 69.1307 206.394 69.0223C206.508 68.9138 206.576 68.7654 206.583 68.6079C206.583 34.301 206.497 34.419 206.654 34.2994C216.182 28.1095 226.802 23.7926 237.947 21.5796C238.071 21.5562 238.186 21.4952 238.275 21.4046C238.364 21.3141 238.422 21.1984 238.444 21.0733C238.463 20.9482 238.444 20.82 238.389 20.7061C238.333 20.5922 238.244 20.498 238.134 20.4364ZM220.762 25.5061C215.826 27.5008 211.083 29.947 206.596 32.8134V12.5913C211.969 12.0642 217.391 12.7465 222.465 14.5883C227.111 16.3548 231.647 18.398 236.049 20.7069C230.807 21.7987 225.687 23.4063 220.762 25.5061Z" fill="#343A3F"/>
<path d="M210.776 18.9581C209.34 18.9581 209.34 15.876 210.776 15.876C212.212 15.876 212.213 18.9581 210.776 18.9581Z" fill="#343A3F"/>
<path d="M219.591 19.7334C218.153 19.7334 218.153 16.6514 219.591 16.6514C221.028 16.6514 221.026 19.7334 219.591 19.7334Z" fill="#343A3F"/>
<path d="M211.799 20.5167C211.722 20.3776 211.703 20.2138 211.746 20.0607C211.787 19.9072 211.886 19.7758 212.022 19.6944C212.158 19.6131 212.321 19.5882 212.476 19.6251C212.63 19.6609 212.765 19.755 212.851 19.8877C213.068 20.2257 213.355 20.5132 213.693 20.7305C214.031 20.9478 214.412 21.09 214.809 21.1472C215.207 21.2048 215.612 21.1766 215.997 21.0646C216.383 20.9526 216.74 20.7593 217.045 20.4978C217.173 20.402 217.332 20.3595 217.49 20.3793C217.648 20.3991 217.793 20.4797 217.892 20.6039C217.992 20.7282 218.039 20.8864 218.025 21.045C218.01 21.2037 217.934 21.3503 217.813 21.4539C217.372 21.8264 216.856 22.0996 216.3 22.2551C215.745 22.4106 215.162 22.4446 214.592 22.3549C214.022 22.2655 213.478 22.0552 212.997 21.7381C212.515 21.4211 212.107 21.0046 211.799 20.5167Z" fill="#343A3F"/>
</svg>
