<svg width="248" height="187" viewBox="0 0 248 187" fill="none" xmlns="http://www.w3.org/2000/svg">
<path d="M235.632 61.9418L241.282 50.832L221.315 58.8894C232.589 61.3165 229.431 60.6444 235.632 61.9418Z" fill="#AAF3FD"/>
<path d="M241.702 50.9473L235.936 62.2482C235.839 62.4432 235.912 62.3678 221.087 59.2322L226.547 71.6771C227.826 71.252 235.517 68.483 246.819 64.0071L241.702 50.9473Z" fill="#AAF3FD"/>
<path d="M247.38 63.9728L242.067 50.3228C242.031 50.238 241.968 50.1671 241.889 50.1203C241.809 50.0736 241.717 50.0534 241.625 50.0628L220.49 58.5466C220.438 58.564 220.391 58.5919 220.351 58.6286C220.311 58.6654 220.279 58.7101 220.257 58.7599C220.235 58.8098 220.224 58.8636 220.224 58.918C220.225 58.9724 220.236 59.0261 220.258 59.0757C220.499 59.6282 220.535 60.559 225.951 72.0666C225.984 72.1281 226.033 72.1794 226.093 72.2149C226.152 72.2505 226.221 72.2688 226.29 72.2681C226.722 72.2681 247.002 64.4889 247.132 64.4564C247.322 64.4174 247.512 64.1366 247.38 63.9715V63.9728ZM222.055 58.83L240.947 51.2094L235.565 61.7199L222.055 58.83ZM236.073 62.34L241.641 51.42L246.528 63.8909C237.186 67.6167 238.085 67.2319 226.613 71.4309L221.379 59.4995C235.978 62.6026 235.914 62.6663 236.073 62.3361V62.34Z" fill="#343A3F"/>
<path d="M22.2997 138.219L21.3455 135.852L10.6244 140.165L11.5786 142.532L22.2997 138.219Z" fill="white"/>
<path d="M12.8707 142.456L13.8249 144.824C14.7921 144.413 21.3935 141.753 22.2996 141.388L21.3896 139.021L12.8707 142.456Z" fill="white"/>
<path d="M20.659 142.456L15.6943 144.441C16.0334 144.993 16.5545 145.41 17.1677 145.619C17.7809 145.828 18.4478 145.816 19.0535 145.586C19.6549 145.348 20.149 144.899 20.4443 144.323C20.7396 143.747 20.8159 143.084 20.659 142.456Z" fill="white"/>
<path d="M19.7803 131.194C20.803 129.599 21.3781 127.758 21.4454 125.864C21.5126 123.97 21.0695 122.093 20.1625 120.429C19.3299 118.936 18.1434 117.67 16.7072 116.743C15.271 115.815 13.6291 115.255 11.9257 115.111C10.2222 114.966 8.50941 115.242 6.93765 115.915C5.36589 116.587 3.98329 117.635 2.9113 118.967C1.83932 120.299 1.11074 121.873 0.789585 123.552C0.468426 125.231 0.564508 126.964 1.06939 128.597C1.57427 130.23 2.4725 131.715 3.68519 132.919C4.89787 134.124 6.38789 135.013 8.02437 135.508C8.82647 135.768 8.92397 135.701 9.01757 135.89C9.08387 136.02 9.83267 137.91 10.5776 139.79L21.2285 135.514C20.065 132.667 19.6685 131.726 19.6256 131.544C19.5944 131.385 19.7049 131.309 19.7803 131.194Z" fill="#FFE55D"/>
<path d="M23.0121 141.23L21.9916 138.977L22.6936 138.717C22.8006 138.684 22.8902 138.609 22.9432 138.51C22.9962 138.411 23.0083 138.296 22.977 138.188L20.2665 131.487C21.5562 129.523 22.186 127.2 22.0644 124.854C21.9428 122.508 21.076 120.262 19.5901 118.442C18.1042 116.623 16.0767 115.325 13.8024 114.737C11.5281 114.149 9.12555 114.302 6.94411 115.174C4.76267 116.045 2.91608 117.59 1.67285 119.583C0.429613 121.576 -0.145441 123.914 0.0312999 126.256C0.208041 128.598 1.12736 130.823 2.65559 132.607C4.18381 134.391 6.24126 135.641 8.52877 136.176C11.2783 142.984 11.1808 143.02 11.4603 143.105C11.4983 143.116 11.5386 143.118 11.5776 143.111C11.6167 143.103 11.6532 143.086 11.6839 143.06L12.4639 142.751C13.3219 144.857 13.4077 145.26 13.6755 145.343C13.8055 145.384 13.7275 145.384 15.3915 144.726C15.8012 145.358 16.4177 145.828 17.1356 146.055C17.8535 146.283 18.6282 146.254 19.3273 145.974C20.0264 145.694 20.6065 145.18 20.9684 144.519C21.3304 143.859 21.4517 143.093 21.3117 142.353L21.5717 142.253C22.7833 141.784 23.1512 141.645 23.0121 141.23ZM8.04387 135.361C5.97917 134.745 4.16091 133.494 2.8473 131.787C1.5337 130.079 0.791519 128.001 0.726167 125.847C0.676033 124.238 1.00546 122.64 1.68779 121.181C2.37012 119.723 3.38618 118.446 4.65374 117.453C5.92131 116.461 7.40476 115.78 8.98406 115.468C10.5633 115.155 12.1941 115.218 13.7444 115.653C15.2945 116.087 16.7208 116.879 17.9078 117.967C19.0949 119.054 20.0095 120.405 20.5776 121.911C21.1457 123.417 21.3514 125.036 21.1781 126.637C21.0049 128.237 20.4574 129.774 19.5801 131.124C19.2681 131.58 19.2122 131.237 20.9022 135.437L17.0646 136.973L13.8731 128.978C14.3311 129.192 14.8402 129.273 15.3423 129.212C15.8444 129.151 16.3191 128.95 16.7123 128.632C17.0202 128.388 17.2732 128.083 17.4546 127.735C17.6361 127.387 17.7418 127.004 17.7649 126.612C17.7879 126.221 17.7279 125.828 17.5886 125.461C17.4493 125.095 17.2339 124.761 16.9567 124.483C16.6788 124.206 16.3455 123.991 15.9787 123.852C15.6118 123.713 15.2197 123.653 14.8281 123.677C14.4365 123.7 14.0542 123.806 13.7063 123.987C13.3584 124.168 13.0529 124.421 12.8097 124.729C12.4843 125.141 12.2825 125.637 12.2275 126.159C12.1725 126.681 12.2666 127.208 12.499 127.679L16.3587 137.234L15.1172 137.736C11.2497 128.009 11.3121 128.116 11.2562 127.986C11.0191 127.386 10.5799 126.889 10.0147 126.579C9.44941 126.269 8.79366 126.167 8.16093 126.29C7.5282 126.413 6.95833 126.753 6.54997 127.251C6.14162 127.75 5.92049 128.376 5.92487 129.02C5.92601 129.665 6.15256 130.289 6.56528 130.784C6.97801 131.279 7.55093 131.615 8.18481 131.732C8.8187 131.849 9.47364 131.741 10.0362 131.426C10.5988 131.112 11.0336 130.61 11.2653 130.008L14.488 137.994L10.6504 139.567C8.98897 135.407 9.19697 135.657 8.70037 135.553C8.46897 135.476 8.28437 135.436 8.04387 135.361ZM10.0394 130.499C9.80964 130.71 9.5339 130.865 9.23396 130.951C8.93402 131.038 8.6181 131.053 8.31117 130.996C8.00424 130.939 7.71472 130.812 7.46549 130.624C7.21626 130.436 7.01416 130.193 6.87517 129.914C6.6888 129.54 6.62294 129.118 6.68667 128.706C6.75298 128.225 6.99416 127.785 7.36415 127.47C7.73415 127.156 8.20705 126.988 8.69257 127C9.09828 127.001 9.49428 127.124 9.82875 127.354C10.1632 127.584 10.4206 127.909 10.5672 128.287C10.7131 128.666 10.7407 129.08 10.6465 129.475C10.5523 129.87 10.3406 130.227 10.0394 130.499ZM15.0522 124.446C15.4592 124.443 15.8576 124.563 16.1948 124.791C16.5321 125.019 16.7923 125.343 16.9411 125.722C17.089 126.102 17.118 126.517 17.0242 126.914C16.9304 127.31 16.7182 127.669 16.4159 127.941C16.1126 128.227 15.7271 128.409 15.3143 128.463C14.9015 128.516 14.4823 128.439 14.1162 128.24C13.7178 128.031 13.401 127.694 13.2162 127.284C13.0315 126.873 12.9895 126.413 13.097 125.976C13.2046 125.539 13.4558 125.15 13.8103 124.873C14.1647 124.596 14.602 124.445 15.0522 124.446ZM21.2766 136.109L22.0852 138.114L11.7541 142.283L10.913 140.276L21.2766 136.109ZM21.2766 139.279L22.0852 141.285C20.9451 141.755 14.5062 144.35 13.9706 144.571L13.162 142.568L21.2766 139.279ZM16.0337 144.536L20.5434 142.732C20.6026 143.146 20.5568 143.568 20.4103 143.96C20.2637 144.353 20.0211 144.702 19.7046 144.975C19.3881 145.249 19.0079 145.439 18.5989 145.528C18.1899 145.617 17.7651 145.602 17.3636 145.484C16.826 145.325 16.3575 144.99 16.0337 144.532V144.536Z" fill="#343A3F"/>
<path d="M168.403 69.1191C168.403 69.4337 166.255 93.628 166.379 93.628L178.599 96.1487L181.576 70.4932L168.403 69.1191Z" fill="white"/>
<path d="M183.089 72.0484C182.844 71.4019 182.513 70.7918 182.103 70.2349C182.08 70.1577 182.033 70.0896 181.97 70.0398C181.906 69.99 181.829 69.961 181.749 69.9567C168.099 68.4812 167.839 68.3382 167.788 68.7971C167.701 69.8033 165.649 93.462 165.649 93.7818C165.72 94.0912 165.865 94.3785 166.072 94.6203C166.406 95.1221 166.604 95.5303 166.845 95.8124C166.892 96.0165 166.986 95.9983 179.787 98.6035C179.885 98.6004 179.978 98.5605 180.048 98.4919C180.118 98.4233 180.159 98.3308 180.164 98.233C183.156 72.4709 183.22 72.2798 183.089 72.0484ZM178.427 95.8761L166.55 93.4347L168.617 69.295L181.357 70.6288L178.427 95.8761Z" fill="#343A3F"/>
<path d="M173.96 71.0426C173.838 71.1989 173.765 71.3885 173.751 71.5867C173.738 71.7849 173.785 71.9826 173.885 72.1541C174.145 72.9666 175.592 72.7404 175.592 71.6757C175.601 71.4825 175.549 71.2914 175.443 71.1293C175.338 70.9673 175.184 70.8424 175.004 70.7725C174.823 70.7025 174.626 70.6909 174.438 70.7394C174.251 70.7879 174.084 70.8939 173.96 71.0426Z" fill="#343A3F"/>
<path d="M172.487 12.9606C168.112 13.1303 163.892 14.6222 160.382 17.2393C156.872 19.8565 154.237 23.476 152.826 27.6207C151.646 31.2602 151.489 35.1539 152.371 38.8769C153.253 42.5999 155.14 46.0091 157.827 48.7327C158.025 48.9316 157.875 48.8341 156.11 51.4809C155.292 52.6718 154.564 53.9224 153.934 55.2223C153.818 55.4322 153.765 55.6708 153.78 55.91C155.299 55.91 162.428 52.4741 162.676 52.4741C162.828 52.4741 162.982 52.6262 163.096 52.7029C179.31 60.811 196.409 48.5975 194.973 32.2409C194.439 26.7461 191.8 21.6709 187.609 18.0774C183.418 14.4839 177.999 12.6504 172.487 12.9606Z" fill="#F2F4F8"/>
<path d="M192.934 23.6283C184.475 8.62755 162.384 8.52355 153.945 23.7466C151.664 27.724 150.754 32.3412 151.355 36.8869C151.956 41.4327 154.034 45.6547 157.271 48.9029C155.935 50.7202 154.723 52.6251 153.643 54.6046C153.293 55.3456 153.111 55.9046 153.355 56.2348C153.456 56.339 153.584 56.4137 153.724 56.4508C153.865 56.4879 154.013 56.486 154.152 56.4454C157.097 55.6115 159.95 54.4822 162.668 53.0746C165.291 54.5092 168.172 55.4089 171.145 55.7213C174.117 56.0337 177.122 55.7527 179.986 54.8946C183.121 54.011 186.015 52.4278 188.45 50.2642C190.886 48.1006 192.798 45.4128 194.045 42.4032C195.291 39.3936 195.839 36.1405 195.646 32.8888C195.454 29.637 194.526 26.4712 192.934 23.6296V23.6283ZM168.638 54.4604C166.592 54.0582 164.633 53.2973 162.852 52.2126C162.532 52.1021 156.154 55.3196 154.118 55.6199C154.411 54.2861 156.92 50.7059 157.715 49.5905C157.987 49.2096 158.44 48.7248 158.06 48.4986C154.374 44.7355 152.259 39.7098 152.146 34.4433C152.033 29.1768 153.929 24.0649 157.45 20.1469C159.783 17.5531 162.732 15.5901 166.025 14.4399C170.167 12.9202 174.673 12.6961 178.945 13.7973C183.218 14.8986 187.054 17.2731 189.945 20.6058C192.809 23.8768 194.558 27.9742 194.938 32.305C195.319 36.6359 194.312 40.9755 192.063 44.696C189.69 48.5893 186.146 51.6311 181.937 53.3852C177.729 55.1394 173.073 55.5158 168.638 54.4604Z" fill="#343A3F"/>
<path d="M180.237 30.0298C179.035 28.3242 176.458 28.9612 174.93 29.801C174.901 29.8174 174.868 29.8264 174.834 29.8273C174.801 29.8281 174.768 29.8206 174.738 29.8056C174.708 29.7906 174.682 29.7685 174.662 29.7412C174.643 29.7138 174.63 29.6822 174.626 29.6489C174.496 27.8939 174.051 24.328 172.755 23.158C172.599 23.0001 172.4 22.8914 172.183 22.8452C171.966 22.799 171.74 22.8174 171.533 22.898C169.786 23.6585 170.09 28.7805 170.349 30.6863C170.349 30.9138 170.513 30.7877 167.029 31.9083L169.166 43.1702C172.749 42.6124 176.284 41.7828 179.741 40.6885C181.004 40.2127 181.734 40.006 181.993 38.8178C182.341 35.7769 181.727 32.7034 180.237 30.0298Z" fill="#BEA2DC"/>
<path d="M180.939 30.1161C180.643 29.5672 180.207 29.1069 179.675 28.7823C178.948 28.4792 178.162 28.3451 177.376 28.3902C176.59 28.4352 175.824 28.6582 175.137 29.0423C174.896 26.6763 174.206 22.0353 171.845 22.1913C169.236 22.3616 169.419 27.7891 169.681 30.3813C166.576 31.4213 166.528 31.3771 166.438 31.5071C166.294 31.7177 166.279 31.4317 168.589 43.458C168.589 43.6816 168.802 43.8038 169.038 43.8038C173.079 43.0901 180.109 41.6939 181.736 40.364C183.697 38.765 182.142 32.1194 180.939 30.1161ZM179.818 40.4875C176.371 41.6247 172.834 42.4688 169.245 43.0108L167.176 32.109C170.223 31.134 170.358 31.1444 170.461 30.939C170.477 30.906 170.486 30.8694 170.485 30.8324C170.486 30.7955 170.477 30.7589 170.461 30.7258C170.156 28.5964 170.002 23.7318 171.532 23.1429C173.302 22.3447 174.309 27.6513 174.349 29.7261C174.351 29.7941 174.371 29.8603 174.406 29.9185C174.442 29.9761 174.492 30.0234 174.552 30.056C174.612 30.0886 174.679 30.1052 174.747 30.1044C174.815 30.1029 174.881 30.0836 174.939 30.0485C175.544 29.7365 178.627 28.2727 179.996 30.2175C181.439 32.8446 182.042 35.851 181.724 38.8313C181.503 39.8505 180.937 40.0702 179.818 40.4875Z" fill="#343A3F"/>
<path d="M181.206 38.7626C181.16 38.7077 181.097 38.6685 181.027 38.6503C180.958 38.6322 180.884 38.636 180.816 38.6612C179.42 39.2202 177.188 39.8052 176.775 39.1253C176.211 38.1932 179.345 37.0596 180.376 36.6995C180.477 36.6757 180.564 36.6128 180.618 36.5247C180.673 36.4365 180.69 36.3304 180.666 36.2295C180.642 36.1287 180.58 36.0414 180.491 35.9869C180.403 35.9324 180.297 35.9152 180.196 35.939C179.984 35.939 175.281 37.4106 175.021 35.809C174.808 34.5233 177.815 33.8733 179.076 33.599C179.127 33.5928 179.176 33.5765 179.221 33.551C179.266 33.5256 179.305 33.4915 179.337 33.4508C179.401 33.3683 179.429 33.2643 179.418 33.1609C179.404 33.0574 179.351 32.9634 179.268 32.8994C179.186 32.8354 179.082 32.8065 178.978 32.819C177.838 33.17 176.643 33.313 175.453 33.2389C175.129 33.1895 174.57 33.0374 174.47 32.5512C174.422 32.3839 174.427 32.2056 174.485 32.0416C174.886 31.3578 176.927 30.9392 179.081 30.6116C179.165 30.5968 179.242 30.5557 179.301 30.494C179.36 30.4324 179.398 30.3535 179.409 30.2689C179.42 30.1843 179.404 30.0984 179.362 30.0237C179.321 29.949 179.257 29.8894 179.18 29.8537C179.159 29.8347 179.134 29.8206 179.107 29.8123C179.08 29.8039 179.052 29.8017 179.024 29.8056C178.083 29.9356 174.632 30.2866 173.882 31.5411C173.751 31.7958 173.688 32.08 173.698 32.3663C173.708 32.6526 173.792 32.9314 173.942 33.1759C174.091 33.4203 174.301 33.6223 174.551 33.7622C174.801 33.9021 175.083 33.9752 175.369 33.9747C174.045 34.7547 173.925 35.8883 174.628 36.6943C174.954 36.9654 175.337 37.1574 175.749 37.255C176.161 37.3527 176.59 37.3534 177.002 37.2572C174.599 38.9615 175.973 41.2963 180.953 39.3216C181.02 39.327 181.086 39.3117 181.144 39.2777C181.202 39.2437 181.248 39.1928 181.275 39.1318C181.303 39.0707 181.312 39.0023 181.3 38.9362C181.287 38.8701 181.255 38.8094 181.206 38.7626Z" fill="#343A3F"/>
<path d="M241.473 69.8833C240.977 69.1579 239.794 69.4595 239.029 69.388C237.82 69.2219 236.717 68.6087 235.938 67.6693C233.123 64.795 230.666 61.9649 226.202 61.3318C223.71 61.0226 221.18 61.3121 218.822 62.1762C216.464 63.0403 214.346 64.4542 212.644 66.3005C207.85 71.6786 207.352 81.2297 207.91 88.4421C208.516 96.259 209.99 104.289 206.61 111.462C203.708 117.634 197.102 121.931 190.69 124.252C185.197 126.181 179.409 127.137 173.587 127.078C172.617 127.078 170.303 126.854 168.18 126.652C175.59 125.233 184.226 121.712 190.002 116.197C199.167 107.448 200.569 92.4721 196.543 83.1108C193.533 76.1103 187.609 72.5249 182.633 72.6757C180.838 72.748 179.107 73.3581 177.664 74.4268C176.221 75.4955 175.132 76.9734 174.54 78.6687C173.638 81.2687 173.926 83.9922 171.83 85.0829C170.827 85.351 169.874 85.7761 169.005 86.3426C167.876 87.3384 168.435 88.901 170.565 89.3586C173.003 89.5106 175.451 89.279 177.817 88.6722C180.558 87.9868 183.132 86.7563 185.386 85.0543C187.496 91.8637 186.539 101.081 183.24 106.424C180.361 110.722 176.128 113.934 171.213 115.548C166.684 117.385 161.98 118.757 157.173 119.642C160.582 114.621 162.965 108.976 164.185 103.031C165.405 97.0862 165.439 90.9588 164.284 85.0009C158.954 57.0704 131.205 43.9301 110.259 58.468C92.7635 70.6126 87.8144 96.2083 98.3106 115.539C98.3483 115.654 98.425 115.73 98.464 115.846C88.3955 110.933 82.2894 103.395 82.1997 91.8312C82.1347 83.5632 84.0574 76.9565 87.544 69.4581C90.9435 62.1508 96.8325 52.1032 93.3849 44.2629C90.5717 37.863 82.5715 37.1129 82.4285 37.0479C81.5796 37.8968 76.4095 43.4569 75.5944 44.3396C75.5308 44.5541 75.5446 44.7842 75.6334 44.9896C77.2472 45.8231 78.5271 47.1837 79.2604 48.8454C79.4814 49.5344 79.5464 50.2649 79.4515 50.9838C79.0446 56.5427 71.9934 61.4489 68.2338 78.7597C66.5828 73.8028 64.1661 68.6106 59.7903 65.7597C58.3869 64.7861 56.8001 64.108 55.1264 63.7668C53.4528 63.4255 51.7272 63.4282 50.0546 63.7746C43.9186 65.3164 37.7046 71.2106 32.1887 67.9346C31.5848 67.5354 31.0237 67.0749 30.5143 66.5605C30.3588 66.4241 30.1751 66.3238 29.9763 66.2666C29.7776 66.2094 29.5686 66.1968 29.3644 66.2295C29.1602 66.2623 28.9657 66.3397 28.7949 66.4562C28.624 66.5728 28.4809 66.7255 28.3758 66.9037C27.9643 68.0286 27.8977 69.2507 28.1847 70.4137C28.3 71.7389 28.6848 73.0267 29.3157 74.1979C29.9465 75.369 30.8101 76.3989 31.8533 77.2244C35.9717 80.1091 43.2452 80.2715 47.7705 79.2784C49.2544 78.7829 50.8536 78.7494 52.3569 79.1822C52.974 79.4768 53.4967 79.9376 53.8664 80.5129C54.2361 81.0881 54.4382 81.755 54.4499 82.4386C55.1714 86.5466 53.4359 112.892 64.3845 127.719C63.6851 127.676 62.7998 127.624 62.467 127.602C50.4459 126.773 40.2123 131.853 35.557 143.177C34.2206 146.427 33.477 150.764 30.8991 153.408C28.3537 156.026 24.1105 157.031 19.5228 155.012C16.9228 153.87 12.4105 150.52 10.8947 147.873C10.1095 146.482 9.77567 144.881 9.93922 143.292C10.0328 142.252 10.545 140.835 9.52062 141.04C7.36652 141.755 6.40062 151.756 7.49652 156.921C8.74972 162.807 12.1934 168.148 17.7288 170.512C24.5863 173.443 33.7734 171.095 39.0696 166.504C42.244 163.663 44.8472 160.242 46.7396 156.426C48.3529 153.031 49.5255 149.208 52.275 146.575C57.4438 141.629 66.848 143.446 72.9671 147.316C72.5603 150.037 72.9038 152.816 73.9603 155.356C76.1612 160.597 80.1145 162.71 84.4903 165.358C91.2165 169.426 91.9718 170.615 97.1653 176.468C99.6175 178.974 101.368 182.081 102.242 185.477H115.605C115.675 184.867 115.662 184.251 115.566 183.645C115.371 181.636 114.076 174.925 113.314 171.963C112.826 170.355 112.187 168.797 111.404 167.31C106.594 158.145 100.762 156.731 94.3014 154.292C92.3917 153.571 87.1956 151.539 89.4147 148.718C93.5071 143.518 106.306 150.018 112.245 152.917C114.797 153.237 151.032 152.485 151.273 152.366C153.329 151.116 155.498 150.061 157.751 149.214C161.22 147.844 167.377 145.655 170.845 147.153C172.433 147.839 173.949 149.697 172.87 151.053C171.267 153.937 163.807 154.764 158.286 158.382C154.052 161.427 150.865 165.708 149.161 170.637C148.322 172.847 145.989 184.911 146.451 185.373H159.812C160.424 182.863 161.555 180.509 163.134 178.464C164.024 177.294 168.632 172.085 170.544 170.333C175.47 165.813 180.749 163.977 184.212 160.788C186.187 159.015 187.668 156.76 188.509 154.243C189.351 151.726 189.524 149.034 189.013 146.43C189.374 146.587 189.646 146.702 189.671 146.702C198.532 150.665 196.497 158.975 198.758 166.095C201.347 174.258 204.972 178.397 210.706 181.519C215.954 184.379 221.486 185.084 226.703 182.588C232.876 179.633 236.793 173.129 238.117 166.325C238.247 165.628 238.728 162.194 238.728 161.515C238.596 161.689 238.494 161.883 238.422 162.088C235.31 166.52 230.745 169.721 225.518 171.136C223.958 171.535 220.1 172.244 218.532 171.862C215.909 171.221 215.393 168.794 217.846 167.661C208.655 163.067 215.92 153.125 208.34 141.702C207.026 139.584 205.522 137.591 203.847 135.745C210.363 132.173 215.663 126.737 219.068 120.132C222.541 112.792 222.301 104.224 221.587 96.1186C221.207 91.8091 220.477 86.6091 221.473 81.3441C221.999 78.5556 223.069 75.4941 225.373 73.6325C226.125 72.9915 227.026 72.5505 227.994 72.3503C228.961 72.1501 229.964 72.1972 230.908 72.4872C232.546 73.0176 233.572 74.1603 235.604 74.3956C236.675 74.5527 237.769 74.4237 238.775 74.0217C239.781 73.6196 240.662 72.9588 241.33 72.1063C241.586 71.7984 241.738 71.4174 241.763 71.018C241.789 70.6186 241.687 70.2213 241.473 69.8833Z" fill="#FCFCFD"/>
<path d="M220.399 171.548C221.01 171.471 221.582 171.431 222.193 171.357C227.875 170.77 233.1 167.973 236.739 163.569C236.739 163.569 238.096 161.915 238.113 161.889C239.14 159.665 238.569 156.689 234.907 155.284C233.71 154.767 232.423 154.49 231.12 154.471C229.816 154.451 228.521 154.689 227.31 155.169C226.212 155.66 225.225 156.365 224.405 157.244C223.585 158.123 222.95 159.157 222.537 160.286C221.636 162.811 222.017 165.457 220.438 166.852C219.952 167.229 219.393 167.502 218.796 167.653C218.713 167.696 218.622 167.722 218.528 167.73L217.917 167.998C215.056 169.512 217.235 171.943 220.399 171.548Z" fill="#F2F4F8"/>
<path d="M113.504 103.593C115.59 103.593 117.283 101.747 117.283 99.4693C117.283 97.1917 115.59 95.3457 113.504 95.3457C111.416 95.3457 109.725 97.1917 109.725 99.4693C109.725 101.747 111.417 103.593 113.504 103.593Z" fill="#FF5470"/>
<path d="M144.618 103.059C146.704 103.059 148.397 101.213 148.397 98.9351C148.397 96.6575 146.704 94.8115 144.618 94.8115C142.53 94.8115 140.839 96.6575 140.839 98.9351C140.839 101.213 142.53 103.059 144.618 103.059Z" fill="#FF5470"/>
<path d="M123.354 100.157C123.514 101.206 123.918 102.201 124.535 103.064C125.152 103.926 125.964 104.631 126.904 105.121C127.761 105.431 128.681 105.531 129.584 105.411C130.488 105.292 131.35 104.956 132.096 104.433C132.887 103.801 133.534 103.007 133.995 102.106C134.456 101.204 134.72 100.215 134.769 99.2031C130.124 101.388 126.278 101.327 123.354 100.157Z" fill="white"/>
<path d="M242.024 69.6802C241.348 68.3932 239.667 69.0432 238.354 68.6662C235.834 67.9486 233.296 62.2052 227.002 60.9143C224.562 60.4833 222.057 60.6178 219.678 61.3075C217.298 61.9971 215.109 63.2235 213.279 64.8923C206.996 70.6552 206.95 81.9522 207.222 86.5425C207.685 94.3529 209.501 102.765 206.662 109.976C201.94 121.971 184.767 127.167 171.898 126.408C175.429 125.503 178.852 124.222 182.109 122.588C194.301 116.218 200.066 105.81 199.468 93.0776C199.007 83.3081 193.727 73.3566 184.232 72.0631C182.966 71.8699 181.675 71.9437 180.44 72.2795C179.205 72.6153 178.054 73.2058 177.061 74.0131C172.425 77.6037 174.11 82.0926 172.121 84.0231C171.455 84.6731 170.431 84.7095 169.539 85.132C166.281 86.6829 168.153 90.059 171.879 89.8939C176.56 89.8939 181.134 88.4899 185.009 85.8639C186.481 91.5144 186.176 97.4811 184.137 102.952C182.904 106.144 180.746 108.894 177.94 110.85C175.666 112.501 173.202 113.874 170.602 114.94C170.45 114.979 160.686 118.06 158.436 118.628C171.247 99.237 167.008 70.5044 147.738 57.5109C126.164 42.9639 98.1676 57.0156 93.1119 85.0878C91.309 95.1125 92.798 105.451 97.3564 114.56C91.4701 111.652 86.8589 106.681 84.4006 100.593C82.7227 95.5577 82.3326 90.1825 83.2657 84.9578C84.0005 79.9909 85.4617 75.1591 87.6025 70.6175C91.041 62.9475 96.8169 53.7175 94.5991 45.482C93.3186 40.724 89.2925 37.4766 83.2618 36.33C82.825 36.2468 82.3895 36.0908 82.0099 36.4704C82.0099 36.4704 78.0436 40.802 75.4449 43.6841C75.4128 43.7198 75.3948 43.766 75.3942 43.8141V44.3861C75.3955 44.4147 75.403 44.4427 75.4162 44.4681C75.4293 44.4935 75.4479 44.5158 75.4705 44.5334C75.4931 44.5509 75.5193 44.5634 75.5472 44.5698C75.5751 44.5762 75.6041 44.5765 75.6321 44.5707C75.6697 44.5626 75.7041 44.5436 75.7309 44.5161C82.9784 36.9462 82.5663 37.2881 82.6963 37.3102C85.1195 37.6872 91.0098 39.1302 93.3563 44.3874C96.7766 52.0301 90.7719 61.862 87.3061 69.3149C83.821 76.3194 82.0545 84.0533 82.1529 91.8764C82.0514 98.4254 84.5256 104.752 89.0429 109.495C91.6486 112.201 94.7105 114.427 98.0883 116.071C100.603 120.662 103.997 124.713 108.078 127.993C108.136 128.04 108.207 128.069 108.282 128.078C108.357 128.087 108.432 128.075 108.501 128.043C108.569 128.012 108.627 127.962 108.669 127.899C108.71 127.837 108.734 127.764 108.737 127.689C108.738 127.635 108.725 127.581 108.699 127.534C108.673 127.486 108.634 127.447 108.587 127.42C105.958 125.279 103.603 122.822 101.578 120.103C100.493 118.633 99.5095 117.092 98.633 115.49C94.485 107.785 92.6377 99.0501 93.3108 90.3255C95.3843 61.8256 121.577 44.9217 143.803 56.3162C160.404 64.826 167.723 84.7628 164.013 102.961C160.543 119.981 149.919 126.889 149.919 127.531C149.925 127.605 149.95 127.676 149.992 127.737C150.034 127.798 150.092 127.847 150.159 127.878C150.226 127.909 150.301 127.921 150.374 127.914C150.448 127.907 150.518 127.88 150.578 127.837C153.391 125.579 155.848 122.909 157.865 119.919C162.532 119.044 167.087 117.651 171.445 115.765C175.433 114.494 178.989 112.139 181.715 108.962C185.937 104.741 188.605 94.3607 185.89 85.574C187.709 84.1846 189.342 82.5681 190.75 80.764C190.795 80.6852 190.812 80.5929 190.796 80.5033C190.78 80.4137 190.733 80.3325 190.664 80.2739C190.595 80.2151 190.508 80.1821 190.417 80.1807C190.326 80.1793 190.238 80.2095 190.167 80.2661C187.16 84.3367 182.846 87.2509 177.947 88.5211C175.607 89.1048 173.193 89.3362 170.784 89.2088C169.137 88.8188 168.105 87.5812 169.302 86.5282C170.195 85.7482 171.135 85.7794 172.087 85.2958C174.267 84.1908 174.047 81.1605 174.894 78.7737C175.265 77.6834 175.848 76.6775 176.61 75.8141C177.372 74.9507 178.298 74.247 179.334 73.7436C180.369 73.2402 181.495 72.9471 182.644 72.8814C183.794 72.8156 184.946 72.9785 186.032 73.3605C194.414 75.8149 198.261 84.248 198.565 92.9775C199.094 108.178 192.13 117.159 179.515 122.931C173.56 125.661 169.063 126.464 162.884 127.382C162.403 127.452 162.453 128.223 162.941 128.149C164.087 127.977 167.174 127.577 167.299 127.46C168.62 127.282 169.953 127.195 171.286 127.2C184.009 128.334 201.524 123.04 206.954 111.583C210.377 104.363 208.842 96.182 208.27 88.4652C207.75 81.4452 208.14 71.9292 212.95 66.4653C214.624 64.6373 216.713 63.2382 219.041 62.3858C221.369 61.5333 223.868 61.2525 226.327 61.5669C230.448 62.1779 232.827 64.6349 235.355 67.2349C236.271 68.4899 237.633 69.345 239.162 69.623C239.881 69.701 241.055 69.4501 241.467 70.0377C242.557 71.5899 240.047 74.9257 235.771 74.3888C233.728 74.1288 232.811 73.0433 231.112 72.4882C230.136 72.1893 229.101 72.1408 228.101 72.3471C227.102 72.5534 226.17 73.0078 225.392 73.6686C223.442 75.2455 222.112 77.878 221.428 81.4946C220.455 86.6426 221.083 91.1666 221.542 96.3224C222.208 103.901 222.622 112.626 219.039 120.235C215.681 127.368 208.453 132.975 203.283 135.607C197.922 138.206 191.954 139.295 186.02 138.758L185.987 138.719C179.129 130.406 166.041 128.891 156.737 134.005C156.161 134.316 155.606 134.663 155.074 135.045C155.025 135.079 154.985 135.124 154.956 135.176C154.928 135.227 154.911 135.285 154.909 135.344C154.906 135.404 154.918 135.463 154.942 135.517C154.966 135.571 155.002 135.619 155.048 135.656C155.11 135.707 155.185 135.737 155.265 135.742C155.806 135.742 159.639 132.305 166.809 131.81C186.091 130.48 195.942 149.88 184.229 160.83C181.07 163.782 174.908 166.273 170.561 170.376C168.44 172.375 164.075 177.29 163.133 178.53C161.57 180.558 160.44 182.884 159.814 185.366C148.402 185.375 147.18 185.391 146.762 185.342C147.251 180.455 148.164 175.62 149.492 170.892C153.782 159.644 160.721 157.165 166.301 155.172C168.576 154.36 173.014 152.898 173.521 150.558C173.834 149.106 172.33 147.728 171.074 147.165C167.77 145.686 160.925 147.388 151.8 151.957C151.768 151.973 151.213 152.238 151.184 152.26C151.118 152.299 151.065 152.357 151.031 152.426C150.997 152.495 150.984 152.573 150.994 152.649C151.004 152.725 151.036 152.797 151.087 152.855C151.137 152.914 151.204 152.956 151.278 152.976C151.378 153.002 151.485 152.989 151.574 152.937C156.821 150.215 170.008 144.247 172.651 149.53C173.122 150.471 172.556 151.425 170.97 152.368C165.324 155.721 155.877 155.263 149.743 168.488C149.142 169.71 148.664 170.988 148.313 172.303C147.882 174.06 145.857 183.399 146.054 185.367C146.054 185.857 146.251 186.147 146.737 186.147L160.146 186.134C160.233 186.125 160.314 186.091 160.382 186.036C160.449 185.982 160.5 185.909 160.527 185.827C161.169 183.193 162.381 180.731 164.078 178.616C164.55 178.02 168.431 173.629 169.64 172.368C177.269 164.411 185.438 164.394 189.036 155.163C189.979 152.677 190.277 149.994 189.901 147.363C196.868 150.701 196.51 157.086 197.441 162.643C198.361 168.111 201.471 175.357 206.33 179.217C218.602 188.955 232.01 184.947 237.4 170.889C238.389 168.173 238.998 165.333 239.209 162.449C239.522 159.914 239.259 157.333 237.259 155.739C235.063 154.327 232.461 153.682 229.86 153.903C227.966 154.149 226.189 154.956 224.757 156.22C223.326 157.485 222.306 159.149 221.829 160.999C221.336 163.002 221.328 164.67 220.741 165.722C220.131 166.815 219.272 166.892 218.392 167.248C217.197 166.7 216.148 165.88 215.325 164.855C214.503 163.83 213.932 162.628 213.656 161.343C212.551 156.748 214.002 152.101 210.897 144.971C209.375 141.457 207.008 138.374 204.007 135.994C208.767 133.364 212.996 129.873 216.481 125.698C229.36 109.146 217.261 88.98 223.752 76.8432C224.198 75.8339 224.889 74.9517 225.762 74.2763C226.635 73.6009 227.662 73.1534 228.751 72.9744C231.091 72.7664 232.326 74.0456 233.464 74.5604C237.017 76.1724 240.983 74.6319 242.174 72.1476C242.451 71.3375 242.397 70.4508 242.024 69.6802ZM186.406 139.508C192.139 139.904 197.88 138.83 203.083 136.388C205.097 137.877 206.832 139.711 208.207 141.804C215.628 153.066 208.634 162.929 217.453 167.657C215.199 168.957 215.877 171.417 218.519 172.046C220.165 172.436 224.07 171.713 225.599 171.321C230.182 170.156 234.271 167.552 237.265 163.891C237.863 163.209 238.283 162.591 238.406 162.461C237.858 167.544 236.889 171.673 233.941 175.949C229.622 182.215 223.265 184.995 216.504 183.581C212.225 182.54 208.304 180.37 205.15 177.297C202.208 174.103 200.066 170.256 198.898 166.074C196.999 160.177 198.158 153.775 193.735 149.351C192.523 148.17 191.115 147.21 189.575 146.511C189.029 143.978 187.95 141.589 186.409 139.506L186.406 139.508ZM234.834 155.47C238.908 157.005 238.904 160.897 237.649 162.156C234.952 165.872 231.172 168.662 226.826 170.143C224.73 170.796 222.565 171.203 220.375 171.357C217.408 171.678 215.394 169.537 218.042 168.173C219.404 167.473 220.91 167.627 221.652 165.194C222.143 163.58 222.073 162.158 222.718 160.354C223.125 159.251 223.747 158.241 224.549 157.382C225.351 156.523 226.316 155.832 227.388 155.35C229.788 154.403 232.467 154.445 234.837 155.467L234.834 155.47Z" fill="#343A3F"/>
<path d="M116.216 182.587C115.673 179.486 115.046 176.629 114.459 173.799C113.202 168.139 110.151 163.036 105.76 159.25C102.814 157.155 99.5566 155.536 96.1071 154.455C93.9946 153.675 89.0572 152.068 89.6539 149.905C89.8192 149.499 90.063 149.13 90.3713 148.819C90.6797 148.508 91.0464 148.261 91.4505 148.093C94.4717 146.556 101.35 148.317 110.808 153.048C111.256 153.316 111.608 152.578 111.248 152.432C109.976 151.922 104.041 148.421 97.3915 147.154C94.889 146.677 91.3335 146.335 89.3757 148.867C87.2957 151.551 91.1736 153.547 94.3469 154.743C101.351 157.39 106.735 158.884 111.347 167.669C112.125 169.167 112.763 170.734 113.253 172.349C115.672 183.215 115.655 185.193 115.56 185.546C115.17 185.583 113.731 185.569 102.511 185.559C101.627 182.183 99.8733 179.099 97.424 176.615C95.0827 173.724 92.4651 171.068 89.6084 168.685C86.1556 166.073 83.098 164.703 79.8688 162.42C77.4973 160.839 75.6177 158.624 74.4443 156.026C73.2709 153.429 72.851 150.554 73.2323 147.73C73.2323 147.662 73.2323 147.661 73.2505 147.626C73.2921 147.541 73.2505 147.514 73.2882 147.436C73.3061 147.37 73.3179 147.302 73.3233 147.233C76.2015 132.992 94.3586 127.563 106.399 135.455C106.904 135.785 107.131 135.934 107.309 135.795C107.364 135.762 107.41 135.718 107.445 135.664C107.479 135.611 107.5 135.55 107.507 135.487C107.514 135.424 107.506 135.36 107.484 135.301C107.462 135.241 107.426 135.188 107.379 135.145L107.36 135.165C104.141 132.959 100.41 131.616 96.5231 131.265C93.1058 130.845 89.6378 131.193 86.372 132.284C83.1063 133.374 80.1251 135.18 77.6458 137.569C77.4833 137.504 76.7644 137.231 76.5811 137.158C65.2555 132.654 60.283 121.976 58.1068 113.81C55.9761 105.819 54.9972 94.0425 54.9712 86.5389C54.9634 83.7764 54.9504 79.9934 52.2672 78.8689C49.7972 77.8289 48.2515 79.9232 41.4369 79.541C38.4469 79.3707 31.2488 78.4256 29.1987 73.3257C28.5058 71.6019 27.4996 67.0064 29.5094 66.6866C30.7977 66.4838 30.721 68.1166 34.049 69.1566C39.3049 70.4358 44.9248 65.5361 50.2145 64.2322C51.8611 63.8909 53.5599 63.8886 55.2073 64.2255C56.8548 64.5623 58.4164 65.2311 59.7968 66.1913C65.9068 70.1706 68.2754 78.6011 70.02 86.1905C72.2781 96.0094 72.1455 103.235 75.9207 109.836C82.3479 121.077 94.8695 124.988 95.4207 125.34C95.4573 125.377 95.5068 125.397 95.5585 125.397H95.5962C96.0655 125.561 96.2631 124.73 95.7925 124.667C84.3642 120.314 76.6604 112.665 74.1007 103.123C72.3327 96.532 72.3379 89.213 68.8838 78.4997C72.5511 60.7222 79.2396 56.8963 79.757 51.2712C79.8662 50.5218 79.7958 49.7572 79.5516 49.0404C79.0615 47.8704 77.3416 45.4823 75.8323 45.0858C75.7079 45.0341 75.5764 45.0013 75.4423 44.9883C75.1966 44.9883 75.2473 45.2665 75.2473 45.5265C75.2472 45.5722 75.2631 45.6165 75.2924 45.6517C75.3216 45.6869 75.3622 45.7107 75.4072 45.7189C76.1807 46.0179 76.8619 46.5171 77.3806 47.1645C77.9232 47.6016 78.3526 48.1629 78.6325 48.801C78.9124 49.4391 79.0346 50.1352 78.9887 50.8305C78.8938 56.3763 72.1975 59.6705 68.3352 77.0723C67.2767 73.7633 65.5616 70.7018 63.2925 68.0711C61.6314 66.1148 59.4564 64.6618 57.0131 63.8764C54.5699 63.091 51.9556 63.0044 49.4657 63.6264C43.7847 65.2709 36.4202 71.7397 31.41 66.7295C31.2184 66.4645 30.9634 66.2517 30.6684 66.1105C30.3734 65.9693 30.0478 65.9042 29.7212 65.9211C29.3945 65.938 29.0774 66.0364 28.7986 66.2074C28.5197 66.3783 28.2882 66.6164 28.1249 66.8998C27.1837 68.5339 27.8753 71.8125 28.5695 73.6182C31.0278 80.0051 40.8857 81.0282 46.9138 80.1546C48.5713 79.9154 50.9672 78.8442 52.5532 79.9219C54.3199 81.1218 54.29 84.3419 54.3264 86.3556C54.3576 88.108 54.4057 90.7561 54.7086 95.1696C55.4886 106.463 57.0746 118.164 63.3666 127.345C49.7868 126.42 40.1122 131.703 35.3685 142.647C33.7578 146.365 33.2157 150.46 30.7093 153.127C27.5295 156.507 22.4569 156.124 18.8403 154.234C17.8991 153.714 17.0021 153.12 16.1571 152.457C12.7329 149.888 10.0718 147.406 10.6594 142.82C10.782 142.39 10.8321 141.944 10.8076 141.498C10.745 141.229 10.5822 140.994 10.3525 140.841C10.1228 140.688 9.84342 140.629 9.57133 140.675C9.39094 140.706 9.22143 140.783 9.07863 140.897C8.5399 141.603 8.08652 142.37 7.72793 143.182C6.85611 146.119 6.41343 149.167 6.41363 152.23C6.38647 155.254 6.97007 158.251 8.12944 161.044C9.2888 163.836 11.0001 166.366 13.1606 168.48C19.2147 173.901 26.7365 173.01 31.9807 171.307C36.2433 170.002 39.996 167.406 42.7213 163.878C45.0912 161.164 46.9721 158.058 48.2801 154.7C50.1859 150.44 51.7472 146.812 56.1204 145.08C60.8147 143.218 66.9949 144.186 72.6746 147.671C72.3432 150.107 72.5842 152.586 73.3786 154.912C74.173 157.238 75.4987 159.347 77.2506 161.07C79.5594 163.417 83.1513 165.247 86.2544 167.244C91.171 170.408 92.4736 172.033 95.9732 175.962C98.8085 179.142 101.043 181.653 102.009 186.059C102.009 186.556 102.04 186.42 115.607 186.42C115.755 186.438 115.904 186.428 116.048 186.392C116.886 186.114 116.357 183.397 116.216 182.587ZM9.85993 141.541C10.0133 141.693 9.77153 142.414 9.68833 143.491C9.39843 147.236 11.1651 149.5 14.1083 151.941C17.0034 154.339 20.9216 157.018 25.5587 156.413C30.8055 155.733 32.723 152.26 34.3285 147.532C36.1914 142.061 39.6585 131.878 53.1954 128.791C56.6747 128.018 60.253 127.791 63.8021 128.118C63.9698 128.331 64.1167 128.57 64.2844 128.777C67.5696 133.037 71.9735 136.3 77.0049 138.203C74.7931 140.633 73.2887 143.622 72.6551 146.846C66.6101 142.946 57.4451 141.559 52.0852 146.648C50.0751 148.836 48.531 151.411 47.5469 154.214C46.5074 156.886 45.0974 159.398 43.3583 161.676C38.9487 167.6 34.1803 170.568 27.4138 171.603C24.8387 172.105 22.1803 171.972 19.6677 171.218C17.155 170.464 14.8634 169.11 12.9903 167.273C8.44033 162.746 6.27843 155.332 7.36393 147.925C7.95023 143.922 8.25053 143.435 9.12023 141.972C9.33863 141.603 9.51673 141.196 9.85993 141.541Z" fill="#343A3F"/>
<path d="M140.73 91.611C140.992 91.39 141.229 91.1404 141.436 90.8661C141.47 90.8211 141.495 90.7691 141.507 90.7136C141.52 90.6581 141.52 90.6006 141.508 90.545C141.497 90.489 141.472 90.4364 141.437 90.3913C141.402 90.3462 141.357 90.3098 141.306 90.285C140.836 90.051 140.753 90.7426 139.876 91.325C138.234 91.156 136.791 93.6442 137.762 96.1974C137.918 96.5986 138.18 96.9498 138.52 97.2136C138.861 97.4774 139.266 97.6438 139.694 97.695C142.054 97.695 142.73 93.067 140.73 91.611Z" fill="#343A3F"/>
<path d="M114.293 78.0002C114.976 77.1996 115.813 76.5443 116.754 76.0732C117.696 75.602 118.722 75.3245 119.772 75.2572C119.827 75.2709 119.885 75.2712 119.94 75.2581C119.996 75.2451 120.047 75.219 120.09 75.1822C120.133 75.1453 120.167 75.0987 120.189 75.0462C120.21 74.9937 120.219 74.9368 120.214 74.8802C120.219 74.8048 120.2 74.7296 120.161 74.6652C120.121 74.6007 120.063 74.55 119.993 74.5201C119.947 74.5002 119.897 74.49 119.846 74.4902C119.421 74.4988 118.998 74.5511 118.584 74.6462C116.711 75.075 115.01 76.0569 113.701 77.4646C113.633 77.5435 113.599 77.6459 113.605 77.7498C113.612 77.8538 113.659 77.9511 113.736 78.021C113.813 78.0909 113.914 78.1279 114.019 78.124C114.123 78.1201 114.221 78.0757 114.293 78.0002Z" fill="#343A3F"/>
<path d="M137.894 75.3037C138.656 75.1516 141.111 75.6274 143.443 78.0337C143.8 78.4042 144.314 77.9037 143.991 77.4968C142.475 75.8261 140.398 74.77 138.154 74.5289C137.801 74.4938 137.495 74.577 137.495 74.9189C137.492 74.9714 137.501 75.0239 137.52 75.0728C137.54 75.1217 137.569 75.1658 137.607 75.2023C137.645 75.2387 137.69 75.2666 137.74 75.2841C137.789 75.3016 137.842 75.3083 137.894 75.3037Z" fill="#343A3F"/>
<path d="M116.899 97.6948C119.269 97.6948 119.936 93.0668 117.939 91.6108C118.202 91.3898 118.437 91.1402 118.644 90.8659C118.68 90.8213 118.705 90.7694 118.717 90.7138C118.73 90.6582 118.731 90.6005 118.718 90.5448C118.706 90.4892 118.681 90.437 118.645 90.3922C118.61 90.3475 118.565 90.3112 118.514 90.2861C118.036 90.0456 117.925 90.8061 117.09 91.2871C114.948 91.0375 113.868 94.9531 115.467 96.9343C115.632 97.1613 115.847 97.3477 116.096 97.4794C116.344 97.6112 116.619 97.6848 116.899 97.6948Z" fill="#343A3F"/>
<path d="M106.139 94.7503C106.362 95.5335 106.765 96.2536 107.316 96.853C107.867 97.4523 108.551 97.9143 109.313 98.2018C110.407 98.6139 110.848 98.5788 120.828 98.9012C121.647 98.9311 122.462 98.7672 123.206 98.4227C123.951 98.0782 124.603 97.5629 125.11 96.9187C126.484 95.1884 126.227 93.319 126.222 90.8672C128.053 90.2685 130.028 90.2635 131.862 90.8529C131.775 92.1871 131.815 93.5265 131.982 94.853C132.245 96.0433 132.918 97.1037 133.881 97.8501C134.845 98.5965 136.04 98.9817 137.259 98.9389C137.259 98.9389 145.35 98.6191 147.068 98.558C148.444 98.5112 149.745 97.9228 150.688 96.921C151.631 95.9193 152.14 94.5853 152.105 93.2098C152.105 87.5704 152.372 85.9506 151.232 84.2398C150.78 83.5595 150.175 82.9938 149.466 82.5876C148.757 82.1815 147.964 81.946 147.148 81.8998C145.81 81.8348 138.421 81.6255 137.255 81.5956C136.55 81.5653 135.847 81.6785 135.187 81.9283C134.528 82.178 133.926 82.5592 133.418 83.0486C132.91 83.5381 132.507 84.1256 132.233 84.7755C131.959 85.4254 131.82 86.1242 131.825 86.8294V90.017C129.982 89.4559 128.011 89.4805 126.183 90.0872C126.345 88.3582 126.224 86.6149 125.825 84.9249C125.529 84.1712 125.064 83.4961 124.464 82.9523C123.864 82.4086 123.146 82.011 122.367 81.7906C121.468 81.5488 121.468 81.5488 113.74 81.8166C111.411 81.8972 109.917 81.7646 108.477 82.6551C107.786 83.082 107.202 83.6611 106.77 84.348C106.337 85.035 106.067 85.8117 105.981 86.6188C105.919 87.4211 105.905 88.2264 105.939 89.0303C105.944 93.3905 105.892 93.8702 106.139 94.7503ZM151.379 90.5682C151.506 91.9408 151.43 93.3244 151.154 94.6749C150.919 95.3865 150.509 96.0278 149.962 96.5401C149.415 97.0524 148.748 97.4195 148.023 97.6077C147.322 97.7819 147.176 97.8196 137.285 98.1277C136.662 98.154 136.041 98.0487 135.462 97.8187C134.882 97.5887 134.358 97.2392 133.923 96.7929C133.488 96.3466 133.152 95.8136 132.937 95.2287C132.722 94.6438 132.633 94.0201 132.675 93.3983C132.675 87.1037 132.554 86.1378 133.041 85.0393C133.352 84.3646 133.822 83.7755 134.411 83.3226C135 82.8697 135.69 82.5666 136.421 82.4393C136.941 82.3457 137.001 82.334 146.758 82.6811C147.663 82.6811 148.552 82.9203 149.333 83.3766C149.957 83.7799 150.471 84.3321 150.828 84.9834C151.185 85.6348 151.375 86.3648 151.379 87.1076C151.386 88.2477 151.381 89.4112 151.377 90.5682H151.379ZM125.414 86.7982C125.414 93.787 125.433 93.735 125.378 94.1796C125.29 94.9171 125.02 95.6211 124.592 96.228C124.164 96.8349 123.591 97.3256 122.926 97.6558C121.626 98.2993 121.618 98.1069 111.07 97.7507C110.482 97.7471 109.9 97.6262 109.359 97.3952C108.817 97.1642 108.327 96.8276 107.918 96.4052C107.509 95.9818 107.188 95.4812 106.975 94.9325C106.761 94.3839 106.659 93.7983 106.675 93.2098C106.675 87.2142 106.531 86.2548 107.299 84.908C107.675 84.2616 108.206 83.7192 108.845 83.3301C109.483 82.941 110.209 82.7175 110.956 82.6798L120.689 82.3366C121.297 82.2989 121.906 82.3864 122.479 82.5936C123.051 82.8009 123.575 83.1235 124.018 83.5415C124.461 83.9595 124.814 84.464 125.054 85.0237C125.294 85.5835 125.417 86.1866 125.414 86.7956V86.7982Z" fill="#343A3F"/>
<path d="M134.796 98.5702C132.528 99.7038 128.095 101.364 123.876 99.7467C123.184 99.4789 123.152 99.4009 122.951 99.4867C122.872 99.5201 122.804 99.5767 122.758 99.6491C122.711 99.7215 122.688 99.8063 122.691 99.8923C122.816 100.668 123.039 101.424 123.354 102.144C126.231 109.076 135.254 106.219 135.297 98.9758C135.312 98.9104 135.309 98.842 135.288 98.7782C135.266 98.7143 135.227 98.6578 135.174 98.6155C135.122 98.5731 135.058 98.5466 134.991 98.539C134.925 98.5304 134.857 98.5412 134.796 98.5702ZM134.276 100.945C132.741 106.494 125.271 107.249 123.658 100.519C125.966 101.281 128.436 101.407 130.808 100.883C132.103 100.596 133.364 100.168 134.566 99.6089C134.492 100.059 134.396 100.506 134.275 100.945H134.276Z" fill="#343A3F"/>
<path d="M225.094 185.647H37.5707C37.4789 185.662 37.3952 185.709 37.3348 185.78C37.2743 185.851 37.2409 185.94 37.2405 186.033C37.2409 186.126 37.2744 186.216 37.3349 186.287C37.3954 186.357 37.479 186.404 37.5707 186.418H225.094C225.15 186.428 225.207 186.424 225.261 186.409C225.315 186.393 225.365 186.366 225.408 186.329C225.451 186.292 225.485 186.247 225.509 186.196C225.532 186.145 225.544 186.09 225.544 186.033C225.543 185.949 225.515 185.867 225.464 185.799C225.413 185.731 225.342 185.682 225.261 185.658C225.207 185.642 225.15 185.638 225.094 185.647Z" fill="#343A3F"/>
<path d="M188.178 173.702C187.986 174.571 187.985 175.47 188.175 176.339C188.365 177.208 188.742 178.025 189.279 178.733C189.818 179.441 190.503 180.023 191.288 180.44C192.074 180.857 192.94 181.098 193.828 181.147V179.314C193.016 179.232 192.243 178.926 191.595 178.431C190.946 177.936 190.448 177.271 190.154 176.509C189.861 175.748 189.784 174.92 189.933 174.118C190.082 173.315 190.45 172.57 190.997 171.964C191.731 171.153 192.74 170.644 193.828 170.534V168.701C192.451 168.745 191.132 169.269 190.1 170.182C189.069 171.095 188.389 172.341 188.178 173.702Z" fill="#F2F4F8"/>
<path d="M194.21 165.647V185.843H209.099V165.647H194.21Z" fill="#F2F4F8"/>
<path d="M209.6 166.326C209.663 166.053 209.688 165.774 209.675 165.494C209.68 165.44 209.674 165.386 209.657 165.334C209.64 165.283 209.613 165.235 209.576 165.195C209.539 165.155 209.494 165.124 209.444 165.102C209.394 165.081 209.34 165.071 209.285 165.072H194.019C193.967 165.07 193.916 165.078 193.867 165.097C193.819 165.116 193.775 165.144 193.738 165.181C193.702 165.217 193.673 165.261 193.654 165.31C193.635 165.358 193.627 165.41 193.629 165.462V168.09C192.339 168.177 191.103 168.646 190.078 169.436C189.054 170.226 188.287 171.302 187.875 172.528C187.502 173.505 187.361 174.555 187.462 175.596C187.563 176.636 187.904 177.639 188.459 178.526C189.013 179.412 189.765 180.158 190.657 180.704C191.548 181.251 192.554 181.583 193.595 181.675V185.992C193.593 186.044 193.602 186.096 193.621 186.144C193.64 186.193 193.668 186.237 193.705 186.273C193.741 186.31 193.785 186.338 193.834 186.357C193.882 186.376 193.934 186.385 193.985 186.383C209.47 186.383 209.336 186.441 209.474 186.303C209.652 186.124 209.652 186.013 209.631 180.217C209.615 177.272 209.6 172.881 209.6 166.326ZM188.369 173.736C188.577 172.456 189.209 171.283 190.163 170.405C191.118 169.527 192.34 168.996 193.633 168.896V170.35C192.531 170.504 191.522 171.052 190.792 171.892C190.062 172.732 189.66 173.807 189.66 174.92C189.66 176.033 190.062 177.108 190.792 177.948C191.522 178.787 192.531 179.335 193.633 179.49V180.945C192.791 180.871 191.975 180.618 191.24 180.202C190.504 179.787 189.866 179.218 189.368 178.536C188.869 177.854 188.522 177.073 188.35 176.246C188.178 175.419 188.185 174.564 188.369 173.74V173.736ZM193.595 178.718C190.486 178.38 189.25 174.168 191.707 171.934C192.232 171.46 192.892 171.163 193.595 171.084V178.718ZM208.865 165.801V185.606H194.368V165.805L208.865 165.801Z" fill="#343A3F"/>
<path d="M93.5383 140.299L96.8598 185.881H164.47L166.646 140.337L93.5383 140.299Z" fill="#DDE1E6"/>
<path d="M167.317 140.058C167.283 139.966 167.223 139.885 167.145 139.825C167.067 139.766 166.973 139.73 166.875 139.721H93.3473C93.2945 139.718 93.2417 139.727 93.1926 139.747C93.1434 139.766 93.0991 139.796 93.0626 139.834C93.0259 139.872 92.9976 139.917 92.9794 139.967C92.9613 140.016 92.9538 140.069 92.9573 140.122L96.3542 186.071C96.3517 186.123 96.3602 186.175 96.3789 186.223C96.3977 186.272 96.4263 186.316 96.463 186.353C96.4997 186.389 96.5437 186.418 96.5921 186.437C96.6405 186.455 96.6923 186.464 96.7442 186.461L164.994 186.366C165.183 186.17 167.385 140.197 167.317 140.058ZM166.48 140.454L164.513 181.945H96.7728L93.7477 140.454H166.48ZM164.495 182.716C164.375 185.248 164.413 183.824 164.288 185.648H97.0744L96.8716 182.716H164.495Z" fill="#343A3F"/>
<path d="M130.904 158.401C131.968 158.394 132.987 157.969 133.739 157.217C134.492 156.464 134.918 155.446 134.925 154.382C134.923 153.763 134.777 153.153 134.501 152.599C134.225 152.045 133.825 151.562 133.332 151.187C132.839 150.812 132.266 150.556 131.658 150.438C131.051 150.32 130.424 150.344 129.827 150.507C129.027 150.724 128.314 151.182 127.784 151.819C127.301 152.409 126.995 153.124 126.902 153.882C126.809 154.639 126.934 155.408 127.262 156.097C127.589 156.786 128.104 157.369 128.749 157.777C129.394 158.184 130.141 158.401 130.904 158.401ZM134.115 154.385C134.119 155.027 133.932 155.656 133.577 156.192C133.224 156.729 132.719 157.148 132.127 157.398C131.535 157.647 130.882 157.715 130.252 157.593C129.621 157.472 129.04 157.167 128.583 156.715C128.125 156.264 127.812 155.687 127.683 155.058C127.586 154.588 127.595 154.102 127.708 153.635C127.821 153.169 128.037 152.733 128.338 152.36C128.64 151.986 129.021 151.684 129.453 151.475C129.886 151.266 130.359 151.156 130.839 151.152C131.702 151.148 132.531 151.486 133.144 152.092C133.758 152.698 134.107 153.522 134.115 154.385Z" fill="#343A3F"/>
<path d="M44.137 172.64C40.497 173.044 39.756 183.3 43.4116 185.391C43.6261 185.536 43.8783 185.615 44.137 185.62V172.64Z" fill="#F2F4F8"/>
<path d="M87.8118 183.399C87.2076 182.062 86.8951 180.611 86.8951 179.143C86.8951 177.675 87.2076 176.224 87.8118 174.886H44.5543V183.399H87.8118Z" fill="white"/>
<path d="M44.5192 172.64V174.51H87.9639V172.64H44.5192Z" fill="#F2F4F8"/>
<path d="M44.5192 183.781V185.652H87.9262V183.781H44.5192Z" fill="#F2F4F8"/>
<path d="M88.4099 174.967C88.5464 174.837 88.5022 174.413 88.5022 172.442C88.5048 172.39 88.4965 172.338 88.4778 172.29C88.4591 172.241 88.4305 172.197 88.3937 172.161C88.357 172.124 88.3129 172.095 88.2644 172.077C88.2159 172.058 88.1641 172.05 88.1122 172.052H44.2515C42.8215 172.052 41.8699 173.352 41.2485 174.652C39.175 179.388 41.0756 186.521 44.4816 186.222L88.2318 186.183C88.38 186.183 88.4645 186.025 88.4645 185.874C88.4645 183.525 88.5087 183.509 88.3787 183.404C87.7403 182.088 87.4112 180.644 87.4166 179.182C87.422 177.719 87.7618 176.278 88.4099 174.967ZM43.9421 185.38C43.4639 185.183 43.0346 184.883 42.6843 184.502C42.3339 184.122 42.0711 183.669 41.9141 183.176C41.0506 180.829 40.9595 178.268 41.6541 175.865C42.0792 174.548 42.8943 173.116 43.946 172.865L43.9421 185.38ZM87.7313 185.459H44.7143V183.976H87.7313V185.459ZM86.8213 177.601H46.7644C46.7046 177.601 46.6454 177.612 46.5902 177.635C46.535 177.658 46.4849 177.692 46.4426 177.734C46.4004 177.776 46.3669 177.826 46.344 177.882C46.3211 177.937 46.3094 177.996 46.3094 178.056C46.31 178.176 46.3582 178.291 46.4434 178.377C46.5286 178.462 46.6439 178.51 46.7644 178.511H86.7199C86.6827 179.071 86.687 179.634 86.7329 180.194H55.4029C55.2822 180.194 55.1665 180.242 55.0811 180.327C54.9958 180.413 54.9479 180.528 54.9479 180.649C54.9485 180.77 54.9967 180.885 55.0819 180.97C55.1671 181.055 55.2824 181.103 55.4029 181.104H86.846C86.9019 181.453 87.4778 183.115 87.5259 183.245H44.6766V175.122H87.483C87.1675 175.919 86.9446 176.75 86.8187 177.598L86.8213 177.601ZM87.7313 174.312H44.6766V172.831H87.7313V174.312Z" fill="#343A3F"/>
<path d="M42.152 54.8413C40.9365 56.803 41.762 58.9558 41.0457 58.2382C38.772 54.8296 34.2948 54.4318 32.3032 57.8573C31.6199 59.1228 31.3624 60.5747 31.5687 61.9981C31.775 63.4214 32.4341 64.7404 33.4485 65.76C36.1239 68.7747 41.645 70.9067 44.9015 71.3721C44.9844 71.3943 45.072 71.3916 45.1534 71.3643C45.2348 71.337 45.3063 71.2864 45.3591 71.2187C45.5476 71.0302 46.3406 69.9187 46.5044 69.6912C48.9549 66.2098 51.4743 60.8304 50.5513 56.673C49.3137 52.6092 44.024 51.8201 42.152 54.8413Z" fill="#FF5470"/>
<path d="M50.3329 54.9243C47.7329 50.9892 41.2628 51.6457 40.8689 57.0771C37.1925 52.9899 31.2489 54.9841 30.8862 60.5546C30.4767 66.9181 38.0973 70.7284 44.7481 72.0583C45.3214 72.1753 45.6477 71.8243 45.9844 71.3927C47.815 69.1103 49.2638 66.5464 50.2744 63.8007C51.239 61.1292 51.8344 57.1993 50.3329 54.9243ZM45.1654 71.1743C45.0237 71.3615 44.8716 71.2159 44.1813 71.1028C24.8113 66.597 31.9613 52.6142 38.5822 56.3439C39.4613 56.8539 40.2217 57.5453 40.813 58.3719C40.8624 58.875 41.7308 58.5591 41.5059 58.134C41.4422 55.7199 42.5121 53.6529 44.9327 53.3162C45.6433 53.225 46.3653 53.2891 47.0487 53.5041C47.7322 53.7191 48.3608 54.0799 48.8912 54.5616C52.7366 58.1301 48.8821 65.9938 46.3068 69.6533C46.0299 70.0485 45.4644 70.7895 45.1654 71.1769V71.1743Z" fill="#343A3F"/>
<path d="M24.9348 155.399C21.7953 153.17 24.7697 149.666 23.3306 145.397C20.2431 136.234 4.829 137.681 9.0917 146.697C10.753 150.616 13.544 153.952 17.1088 156.279C18.8364 157.358 20.665 158.266 22.5688 158.99C23.4606 159.407 24.4588 159.54 25.4288 159.372C26.1568 159.191 26.9173 158.684 26.9173 157.882C26.9199 156.696 25.7382 155.968 24.9348 155.399Z" fill="#F2F4F8"/>
<path d="M25.4548 155.079C22.6195 153.378 24.9998 150.294 24.1717 146.311C23.8898 144.99 23.3349 143.742 22.5426 142.648C21.7503 141.554 20.7382 140.638 19.571 139.958C17.4409 138.866 15.0219 138.47 12.655 138.827C11.472 138.897 10.3461 139.359 9.45439 140.14C8.7209 140.775 8.18843 141.611 7.92202 142.544C7.6556 143.478 7.66678 144.468 7.95419 145.396C9.03142 148.454 10.7571 151.244 13.013 153.574C15.269 155.904 18.0018 157.718 21.0244 158.893C22.1489 159.485 23.3774 159.857 24.641 159.987C27.5517 159.987 28.8153 157.094 25.4548 155.079ZM25.3885 159.101C23.9151 159.225 22.4401 158.883 21.1713 158.124C14.0902 154.97 11.8659 151.642 8.84599 145.614C8.60147 145.049 8.48034 144.439 8.4907 143.824C8.50105 143.209 8.64266 142.603 8.90605 142.047C9.16943 141.491 9.54852 140.998 10.0179 140.601C10.4874 140.203 11.0363 139.91 11.628 139.742C13.7627 139.246 15.9931 139.35 18.0721 140.043C19.7471 140.698 21.1759 141.859 22.159 143.365C23.1421 144.871 23.6303 146.646 23.5555 148.443C23.4788 150.429 22.9887 152.048 23.3709 153.537C23.926 155.698 26.7249 156.02 26.7249 157.727C26.7249 158.73 25.7044 159.033 25.3885 159.101Z" fill="#343A3F"/>
<path d="M58.1094 0.707031L53.8727 4.44843L64.5236 13.2286L58.1094 0.707031Z" fill="#F2F4F8"/>
<path d="M59.1027 18.955L45.7023 14.6416L45.3591 20.3291L59.1027 18.955Z" fill="#F2F4F8"/>
<path d="M51.8876 31.4013C52.2438 31.7562 52.0449 31.5417 54.6358 34.7605L61.6987 26.8955L51.8876 31.4013Z" fill="#F2F4F8"/>
<path d="M76.5109 25.1386C74.8729 26.7779 73.4572 25.8146 73.4572 23.498C73.468 21.8235 74.0315 20.1993 75.0601 18.8778C76.3692 17.2606 77.9201 17.4933 78.2672 19.5668C78.6026 17.4439 78.6442 14.0158 77.2753 12.3882C75.2499 9.98324 72.2963 12.3596 70.5556 15.022C67.0157 20.4378 66.3709 29.0178 69.7925 30.4842C72.217 31.6971 75.2421 27.5592 76.5109 25.1386Z" fill="#F2F4F8"/>
<path d="M86.2467 30.2561C90.9267 30.1716 92.5842 24.3398 90.2169 21.9712C89.6553 21.2224 89.5916 21.2848 78.0762 12.9609C80.2862 17.5499 77.3053 27.7809 72.5408 30.4082C76.134 30.3848 79.41 30.377 86.2467 30.2561Z" fill="#F2F4F8"/>
<path d="M58.502 0.177825C58.4705 0.130183 58.4291 0.0899073 58.3806 0.0597559C58.3321 0.0296044 58.2777 0.0102878 58.221 0.00312782C58.1643 -0.00403215 58.1068 0.00113507 58.0523 0.0182729C57.9978 0.0354108 57.9477 0.0641152 57.9053 0.102424C53.0316 4.37162 53.1616 4.17533 53.1616 4.42883C53.1616 4.70573 53.0745 4.53413 64.8526 14.2516C64.9299 14.3163 65.0296 14.3476 65.13 14.3389C65.2304 14.3301 65.3232 14.2819 65.3881 14.2048C65.6468 13.9474 65.6286 14.0839 58.502 0.177825ZM58.0509 1.01892L63.9243 12.4797L54.1743 4.44442L58.0509 1.01892Z" fill="#343A3F"/>
<path d="M60.3649 19.1654C60.6002 18.7832 60.0542 18.7026 57.8858 18.0123C45.2836 14.0044 45.5358 13.8874 45.255 14.0889C45.0366 14.2475 45.1185 13.8575 44.7441 20.559C44.7479 20.6629 44.7921 20.7613 44.8675 20.8329C44.9428 20.9046 45.0432 20.944 45.1471 20.9425C59.9554 19.4865 60.335 19.5099 60.3649 19.1654ZM58.1224 18.8924L45.567 20.1508L45.8816 14.904L58.1224 18.8911V18.8924Z" fill="#343A3F"/>
<path d="M62.1746 26.0411C61.4102 26.3427 59.0624 27.4555 51.3599 30.9707C51.3126 31.0018 51.2725 31.0425 51.2422 31.0904C51.212 31.1382 51.1924 31.1919 51.1846 31.2479C51.1768 31.3039 51.1812 31.361 51.1973 31.4152C51.2134 31.4694 51.2409 31.5195 51.278 31.5622C54.6021 35.6325 54.3629 35.431 54.6138 35.431C54.8647 35.431 54.4149 35.8431 60.4209 29.1442C62.6309 26.6742 62.7973 26.4961 62.7752 26.3583C62.8025 26.1113 62.6413 25.8578 62.1746 26.0411ZM60.9617 27.4295L54.645 34.4599L52.2335 31.4374L60.9617 27.4295Z" fill="#343A3F"/>
<path d="M94.4158 23.5172C93.9924 23.0573 93.4665 22.7038 92.8808 22.4853C92.2951 22.2669 91.6661 22.1897 91.0449 22.2601C90.6508 21.6247 90.1379 21.0712 89.5343 20.6299C87.2359 18.9568 78.0293 12.3658 77.6978 12.0369C77.3874 11.6708 76.9943 11.3837 76.551 11.1995C76.1078 11.0153 75.627 10.9392 75.1485 10.9774C69.8601 11.2686 64.6965 24.6027 68.2091 29.9353C68.6123 30.4429 69.1534 30.8233 69.7675 31.0308C70.3816 31.2383 71.0426 31.2642 71.671 31.1053L83.2826 30.9571C81.031 35.0105 79.432 37.8601 78.3088 39.8647C75.7816 44.3692 75.6828 44.5447 75.7868 44.8047C75.8557 44.9763 75.8804 44.9347 77.7901 45.5652C81.9501 46.9276 81.9696 46.9341 82.1139 46.6052C82.4155 45.9682 89.2067 31.6877 90.053 29.8638C90.8835 30.183 91.7973 30.2133 92.647 29.9497C93.4968 29.6861 94.2331 29.1441 94.7371 28.4109C95.2411 27.6777 95.4835 26.7961 95.4252 25.9083C95.3669 25.0205 95.0114 24.1782 94.4158 23.5172ZM75.9558 11.6066C78.2295 12.1175 78.5337 16.0435 78.275 18.5551C76.8957 15.6158 73.3441 19.3442 73.3441 23.4223C73.3441 25.8676 74.7312 26.5254 75.9844 25.7922C72.0428 32.7563 68.3534 30.9649 67.9244 26.0288C67.1041 20.2971 71.7243 10.6849 75.9493 11.6066H75.9558ZM86.2908 30.0666L73.3519 30.2473C77.495 27.3093 80.3524 18.3172 78.652 13.5774C88.9753 21.0979 89.4212 21.2305 90.1076 22.0976C90.6571 22.8257 90.9957 23.691 91.0863 24.5986C91.1769 25.5063 91.016 26.4215 90.6212 27.2438C90.2264 28.0661 89.6129 28.764 88.848 29.261C88.0831 29.7579 87.1961 30.0348 86.2843 30.0614L86.2908 30.0666Z" fill="#343A3F"/>
<path d="M73.4144 43.5406C75.276 46.6424 80.5943 50.7322 86.3572 52.0166C88.5594 52.521 90.824 52.6874 93.0756 52.5119C95.1686 51.975 95.5638 50.5801 94.7552 49.6519C93.9809 49.0202 93.0637 48.5877 92.0837 48.3922C89.1327 47.2222 90.1857 43.3612 88.3423 40.184C86.0868 36.2983 81.2989 34.6616 76.3927 36.7858C75.8337 36.9977 75.2955 37.2668 74.7898 37.5879C73.8851 38.2508 73.2486 39.2166 72.9962 40.3094C72.7438 41.4022 72.8922 42.5493 73.4144 43.5419V43.5406Z" fill="#F2F4F8"/>
<path d="M94.0844 48.5199C93.7351 48.3583 93.3723 48.2278 93.0002 48.1299C91.0866 47.5735 90.7304 47.0041 90.1519 44.1116C89.9622 42.9728 89.6474 41.8585 89.2133 40.7888C88.6736 39.6273 87.9053 38.5866 86.9542 37.7288C86.0031 36.8711 84.8888 36.214 83.6779 35.7968C80.9982 35.0048 78.117 35.2671 75.6244 36.53C74.5032 36.982 73.5601 37.7876 72.9386 38.8245C72.4913 39.5828 72.2541 40.4466 72.2516 41.327C72.2491 42.2074 72.4813 43.0726 72.9243 43.8334C74.6509 46.0589 76.7281 47.9886 79.0746 49.5469C82.3515 51.6485 86.1156 52.8683 90.0024 53.0881C91.708 53.2441 93.398 53.4183 94.7617 52.3211C96.1254 51.2239 96.0578 49.5079 94.0844 48.5199ZM74.9419 37.7845C75.991 37.1787 77.1129 36.7133 78.2829 36.3987C80.1393 35.8733 82.117 35.9722 83.9117 36.6804C85.7064 37.3885 87.2187 38.6667 88.2162 40.3182C89.5929 42.6699 89.3706 45.5598 90.3937 47.2316C91.6079 49.2141 93.4487 48.4835 94.6525 49.8186C95.3519 50.5921 95.0152 51.9142 93.0743 52.3601C92.3243 52.4937 91.5589 52.5183 90.8019 52.4329C83.9015 51.9948 78.175 49.3935 73.9773 43.8997C73.6345 43.4365 73.3873 42.9098 73.2501 42.3501C73.113 41.7905 73.0886 41.2091 73.1783 40.64C73.2681 40.0708 73.4703 39.5252 73.7731 39.0349C74.0758 38.5447 74.4732 38.1196 74.9419 37.7845Z" fill="#343A3F"/>
</svg>
