<svg width="248" height="187" viewBox="0 0 248 187" fill="none" xmlns="http://www.w3.org/2000/svg">
<path d="M235.92 61.9421L241.57 50.8323L221.603 58.8897C232.877 61.3168 229.719 60.6447 235.92 61.9421Z" fill="#AAF3FD"/>
<path d="M241.99 50.9467L236.225 62.2476C236.127 62.4426 236.2 62.3672 221.375 59.2316L226.835 71.6765C228.114 71.2514 235.805 68.4824 247.107 64.0065L241.99 50.9467Z" fill="#AAF3FD"/>
<path d="M247.668 63.9727L242.355 50.3227C242.319 50.2379 242.256 50.167 242.177 50.1202C242.097 50.0735 242.005 50.0533 241.913 50.0627L220.778 58.5465C220.726 58.5639 220.679 58.5918 220.639 58.6286C220.599 58.6653 220.567 58.71 220.545 58.7598C220.523 58.8097 220.512 58.8635 220.512 58.9179C220.513 58.9723 220.524 59.026 220.547 59.0756C220.787 59.6281 220.823 60.5589 226.239 72.0665C226.272 72.128 226.321 72.1793 226.381 72.2148C226.44 72.2504 226.509 72.2688 226.579 72.268C227.01 72.268 247.29 64.4888 247.42 64.4563C247.61 64.4173 247.8 64.1365 247.668 63.9714V63.9727ZM222.343 58.8299L241.235 51.2093L235.853 61.7198L222.343 58.8299ZM236.361 62.3399L241.929 51.4199L246.816 63.8908C237.474 67.6166 238.373 67.2318 226.901 71.4308L221.667 59.4994C236.266 62.6025 236.202 62.6662 236.361 62.336V62.3399Z" fill="#2F473F"/>
<path d="M22.5877 138.22L21.6335 135.852L10.9124 140.166L11.8666 142.533L22.5877 138.22Z" fill="white"/>
<path d="M13.1588 142.456L14.113 144.824C15.0802 144.413 21.6816 141.753 22.5877 141.388L21.6777 139.02L13.1588 142.456Z" fill="white"/>
<path d="M20.9471 142.456L15.9824 144.441C16.3215 144.993 16.8426 145.41 17.4558 145.619C18.069 145.828 18.7359 145.817 19.3416 145.587C19.9429 145.348 20.4371 144.899 20.7324 144.323C21.0277 143.747 21.104 143.084 20.9471 142.456Z" fill="white"/>
<path d="M20.0683 131.194C21.0911 129.599 21.6662 127.758 21.7334 125.864C21.8007 123.97 21.3576 122.093 20.4505 120.429C19.6179 118.936 18.4314 117.67 16.9953 116.743C15.5591 115.816 13.9172 115.255 12.2137 115.111C10.5103 114.966 8.79746 115.243 7.2257 115.915C5.65394 116.587 4.27134 117.635 3.19935 118.967C2.12737 120.299 1.39879 121.873 1.07763 123.552C0.756476 125.232 0.852557 126.964 1.35744 128.597C1.86232 130.23 2.76055 131.715 3.97324 132.92C5.18592 134.125 6.67594 135.013 8.31242 135.508C9.11452 135.768 9.21202 135.702 9.30562 135.89C9.37192 136.02 10.1207 137.91 10.8656 139.79L21.5165 135.514C20.353 132.667 19.9565 131.726 19.9136 131.544C19.8824 131.386 19.9929 131.309 20.0683 131.194Z" fill="#FFE55D"/>
<path d="M23.3001 141.23L22.2796 138.978L22.9816 138.718C23.0887 138.684 23.1783 138.61 23.2313 138.511C23.2842 138.412 23.2964 138.296 23.265 138.188L20.5545 131.487C21.8443 129.524 22.4741 127.2 22.3525 124.854C22.2308 122.508 21.364 120.262 19.8782 118.443C18.3923 116.623 16.3648 115.325 14.0905 114.737C11.8162 114.15 9.4136 114.302 7.23216 115.174C5.05072 116.045 3.20413 117.59 1.9609 119.583C0.717668 121.576 0.142614 123.914 0.319355 126.256C0.496096 128.599 1.41542 130.824 2.94364 132.608C4.47187 134.392 6.52931 135.642 8.81682 136.176C11.5663 142.984 11.4688 143.021 11.7483 143.105C11.7863 143.117 11.8267 143.119 11.8657 143.111C11.9047 143.103 11.9412 143.086 11.9719 143.061L12.7519 142.751C13.6099 144.857 13.6957 145.26 13.9635 145.344C14.0935 145.384 14.0155 145.384 15.6795 144.726C16.0893 145.358 16.7058 145.828 17.4237 146.056C18.1416 146.283 18.9163 146.255 19.6153 145.975C20.3144 145.694 20.8945 145.18 21.2565 144.52C21.6184 143.859 21.7397 143.094 21.5997 142.354L21.8597 142.254C23.0713 141.784 23.4392 141.645 23.3001 141.23ZM8.33192 135.361C6.26722 134.745 4.44896 133.495 3.13536 131.787C1.82175 130.079 1.07957 128.001 1.01422 125.848C0.964089 124.238 1.29352 122.64 1.97584 121.182C2.65817 119.723 3.67423 118.446 4.9418 117.454C6.20936 116.461 7.69282 115.781 9.27211 115.468C10.8514 115.155 12.4822 115.218 14.0324 115.653C15.5826 116.087 17.0088 116.88 18.1959 117.967C19.3829 119.054 20.2975 120.406 20.8656 121.912C21.4337 123.418 21.6395 125.037 21.4662 126.637C21.2929 128.237 20.7455 129.775 19.8681 131.124C19.5561 131.581 19.5002 131.237 21.1902 135.438L17.3526 136.973L14.1611 128.978C14.6192 129.192 15.1283 129.274 15.6304 129.213C16.1324 129.151 16.6071 128.95 17.0003 128.632C17.3083 128.389 17.5613 128.083 17.7427 127.735C17.9241 127.387 18.0298 127.005 18.0529 126.613C18.076 126.221 18.0159 125.829 17.8766 125.462C17.7373 125.095 17.522 124.762 17.2447 124.484C16.9669 124.207 16.6336 123.992 16.2667 123.853C15.8999 123.714 15.5078 123.654 15.1161 123.677C14.7245 123.7 14.3422 123.806 13.9943 123.987C13.6465 124.169 13.3409 124.422 13.0977 124.73C12.7724 125.142 12.5705 125.637 12.5155 126.159C12.4606 126.681 12.5547 127.208 12.787 127.679L16.6467 137.234L15.4052 137.736C11.5377 128.009 11.6001 128.116 11.5442 127.986C11.3072 127.387 10.868 126.889 10.3027 126.579C9.73747 126.27 9.08171 126.167 8.44898 126.29C7.81625 126.413 7.24638 126.753 6.83803 127.252C6.42968 127.751 6.20855 128.376 6.21292 129.021C6.21406 129.665 6.44061 130.289 6.85334 130.785C7.26607 131.28 7.83898 131.615 8.47287 131.732C9.10676 131.85 9.7617 131.741 10.3243 131.427C10.8868 131.112 11.3216 130.61 11.5533 130.009L14.776 137.995L10.9384 139.568C9.27702 135.408 9.48502 135.657 8.98842 135.553C8.75702 135.477 8.57242 135.436 8.33192 135.361ZM10.3274 130.499C10.0977 130.71 9.82196 130.865 9.52202 130.952C9.22208 131.038 8.90615 131.053 8.59922 130.997C8.29229 130.94 8.00277 130.813 7.75354 130.625C7.50432 130.437 7.30222 130.193 7.16322 129.914C6.97686 129.541 6.91099 129.119 6.97472 128.706C7.04104 128.225 7.28221 127.785 7.65221 127.471C8.0222 127.156 8.4951 126.989 8.98062 127.001C9.38633 127.001 9.78233 127.125 10.1168 127.354C10.4513 127.584 10.7086 127.909 10.8552 128.288C11.0011 128.666 11.0288 129.08 10.9346 129.475C10.8403 129.87 10.6287 130.227 10.3274 130.499ZM15.3402 124.446C15.7472 124.443 16.1457 124.563 16.4829 124.791C16.8201 125.019 17.0803 125.344 17.2291 125.723C17.3771 126.102 17.4061 126.518 17.3123 126.914C17.2185 127.31 17.0063 127.669 16.7039 127.942C16.4006 128.227 16.0152 128.409 15.6024 128.463C15.1896 128.517 14.7704 128.439 14.4042 128.241C14.0058 128.031 13.689 127.695 13.5043 127.284C13.3196 126.874 13.2776 126.413 13.385 125.976C13.4927 125.539 13.7438 125.151 14.0983 124.873C14.4528 124.596 14.8901 124.446 15.3402 124.446ZM21.5646 136.11L22.3732 138.114L12.0421 142.283L11.201 140.276L21.5646 136.11ZM21.5646 139.279L22.3732 141.285C21.2331 141.756 14.7942 144.35 14.2586 144.571L13.45 142.568L21.5646 139.279ZM16.3217 144.536L20.8314 142.732C20.8906 143.146 20.8449 143.569 20.6983 143.961C20.5518 144.353 20.3091 144.702 19.9927 144.976C19.6762 145.25 19.296 145.44 18.887 145.529C18.478 145.617 18.0532 145.602 17.6516 145.484C17.114 145.325 16.6456 144.99 16.3217 144.532V144.536Z" fill="#2F473F"/>
<path d="M168.691 69.1194C168.691 69.434 166.543 93.6283 166.667 93.6283L178.887 96.149L181.864 70.4935L168.691 69.1194Z" fill="white"/>
<path d="M183.377 72.0483C183.132 71.4018 182.801 70.7917 182.392 70.2348C182.368 70.1576 182.322 70.0895 182.258 70.0397C182.194 69.9899 182.117 69.9609 182.037 69.9566C168.387 68.4811 168.127 68.3381 168.076 68.797C167.989 69.8032 165.937 93.4619 165.937 93.7817C166.008 94.0911 166.153 94.3784 166.36 94.6202C166.694 95.122 166.892 95.5302 167.133 95.8123C167.18 96.0164 167.274 95.9982 180.075 98.6034C180.173 98.6003 180.266 98.5604 180.336 98.4918C180.406 98.4231 180.447 98.3307 180.452 98.2329C183.445 72.4708 183.508 72.2797 183.377 72.0483ZM178.715 95.876L166.838 93.4346L168.905 69.2949L181.645 70.6287L178.715 95.876Z" fill="#2F473F"/>
<path d="M174.248 71.0421C174.126 71.1985 174.053 71.3881 174.04 71.5863C174.026 71.7845 174.073 71.9822 174.173 72.1536C174.433 72.9661 175.88 72.7399 175.88 71.6752C175.889 71.482 175.837 71.2909 175.731 71.1289C175.626 70.9668 175.472 70.842 175.292 70.772C175.111 70.7021 174.914 70.6905 174.726 70.739C174.539 70.7874 174.372 70.8935 174.248 71.0421Z" fill="#2F473F"/>
<path d="M172.775 12.9607C168.4 13.1305 164.18 14.6223 160.67 17.2395C157.16 19.8566 154.525 23.4762 153.114 27.6208C151.934 31.2604 151.777 35.1541 152.659 38.8771C153.541 42.6 155.428 46.0093 158.115 48.7328C158.313 48.9317 158.163 48.8342 156.398 51.481C155.58 52.672 154.853 53.9226 154.222 55.2224C154.106 55.4323 154.053 55.6709 154.068 55.9101C155.587 55.9101 162.716 52.4742 162.964 52.4742C163.116 52.4742 163.27 52.6263 163.384 52.703C179.598 60.8111 196.697 48.5976 195.262 32.241C194.727 26.7462 192.088 21.6711 187.897 18.0776C183.706 14.484 178.287 12.6505 172.775 12.9607Z" fill="#E2FD86"/>
<path d="M193.222 23.6285C184.763 8.62783 162.672 8.52382 154.234 23.7468C151.952 27.7243 151.042 32.3415 151.643 36.8872C152.244 41.4329 154.323 45.655 157.559 48.9031C156.223 50.7205 155.011 52.6254 153.931 54.6049C153.581 55.3459 153.399 55.9049 153.643 56.2351C153.745 56.3393 153.872 56.4139 154.013 56.451C154.153 56.4881 154.301 56.4863 154.44 56.4457C157.385 55.6118 160.239 54.4824 162.957 53.0748C165.579 54.5095 168.46 55.4092 171.433 55.7216C174.405 56.034 177.411 55.753 180.274 54.8948C183.409 54.0112 186.303 52.4281 188.738 50.2644C191.174 48.1008 193.086 45.4131 194.333 42.4035C195.579 39.3939 196.127 36.1408 195.934 32.889C195.742 29.6372 194.814 26.4714 193.222 23.6298V23.6285ZM168.926 54.4606C166.88 54.0585 164.921 53.2975 163.14 52.2129C162.82 52.1024 156.442 55.3199 154.406 55.6202C154.699 54.2864 157.208 50.7062 158.004 49.5908C158.275 49.2099 158.728 48.725 158.348 48.4988C154.662 44.7358 152.547 39.7101 152.434 34.4436C152.321 29.1771 154.217 24.0652 157.738 20.1471C160.071 17.5534 163.02 15.5904 166.313 14.4401C170.455 12.9204 174.961 12.6963 179.233 13.7976C183.506 14.8989 187.342 17.2734 190.233 20.606C193.097 23.8771 194.846 27.9745 195.226 32.3053C195.607 36.6361 194.6 40.9758 192.351 44.6963C189.978 48.5895 186.434 51.6314 182.225 53.3855C178.017 55.1397 173.361 55.516 168.926 54.4606Z" fill="#2F473F"/>
<path d="M180.525 30.0297C179.324 28.3241 176.746 28.9611 175.218 29.8009C175.189 29.8174 175.156 29.8264 175.122 29.8272C175.089 29.828 175.056 29.8206 175.026 29.8055C174.996 29.7905 174.97 29.7684 174.95 29.7411C174.931 29.7138 174.918 29.6821 174.914 29.6488C174.784 27.8938 174.339 24.3279 173.043 23.1579C172.887 23.0001 172.688 22.8913 172.471 22.8451C172.254 22.7989 172.028 22.8173 171.821 22.8979C170.074 23.6584 170.378 28.7804 170.637 30.6862C170.637 30.9137 170.801 30.7876 167.317 31.9082L169.454 43.1701C173.037 42.6123 176.572 41.7827 180.029 40.6884C181.292 40.2126 182.022 40.0059 182.281 38.8177C182.629 35.7768 182.015 32.7033 180.525 30.0297Z" fill="#BEA2DC"/>
<path d="M181.227 30.1168C180.931 29.5679 180.495 29.1075 179.963 28.783C179.236 28.4799 178.45 28.3458 177.664 28.3908C176.878 28.4359 176.112 28.6589 175.425 29.043C175.184 26.677 174.494 22.036 172.133 22.192C169.524 22.3623 169.707 27.7898 169.969 30.382C166.864 31.422 166.816 31.3778 166.727 31.5078C166.582 31.7184 166.567 31.4324 168.877 43.4587C168.877 43.6823 169.09 43.8045 169.327 43.8045C173.367 43.0908 180.397 41.6946 182.024 40.3647C183.985 38.7657 182.431 32.1201 181.227 30.1168ZM180.106 40.4882C176.659 41.6254 173.122 42.4695 169.533 43.0115L167.464 32.1097C170.511 31.1347 170.646 31.1451 170.749 30.9397C170.765 30.9066 170.774 30.8701 170.773 30.8331C170.774 30.7961 170.765 30.7596 170.749 30.7265C170.445 28.5971 170.29 23.7325 171.82 23.1436C173.591 22.3454 174.597 27.652 174.637 29.7268C174.639 29.7948 174.659 29.861 174.694 29.9192C174.73 29.9768 174.781 30.0241 174.84 30.0567C174.9 30.0892 174.967 30.1059 175.035 30.1051C175.103 30.1036 175.169 30.0843 175.227 30.0492C175.832 29.7372 178.915 28.2734 180.284 30.2182C181.727 32.8453 182.33 35.8516 182.012 38.832C181.791 39.8512 181.225 40.0709 180.106 40.4882Z" fill="#2F473F"/>
<path d="M181.495 38.7631C181.448 38.7082 181.385 38.669 181.316 38.6509C181.246 38.6327 181.172 38.6365 181.105 38.6617C179.708 39.2207 177.476 39.8057 177.063 39.1258C176.499 38.1937 179.633 37.0601 180.664 36.7C180.765 36.6762 180.852 36.6134 180.906 36.5252C180.961 36.4371 180.978 36.3309 180.954 36.2301C180.931 36.1292 180.868 36.042 180.78 35.9875C180.691 35.933 180.585 35.9157 180.484 35.9395C180.273 35.9395 175.569 37.4111 175.309 35.8095C175.096 34.5238 178.103 33.8738 179.364 33.5995C179.415 33.5933 179.464 33.577 179.509 33.5516C179.554 33.5262 179.594 33.4921 179.625 33.4513C179.689 33.3688 179.718 33.2649 179.706 33.1614C179.692 33.058 179.639 32.964 179.556 32.9C179.474 32.8359 179.37 32.807 179.266 32.8195C178.126 33.1705 176.932 33.3135 175.741 33.2394C175.417 33.19 174.858 33.0379 174.758 32.5517C174.71 32.3844 174.715 32.2062 174.774 32.0421C175.174 31.3583 177.215 30.9397 179.369 30.6121C179.453 30.5974 179.53 30.5562 179.589 30.4946C179.648 30.433 179.686 30.3541 179.697 30.2695C179.708 30.1849 179.692 30.099 179.65 30.0243C179.609 29.9496 179.545 29.89 179.468 29.8542C179.447 29.8353 179.422 29.8211 179.395 29.8128C179.368 29.8045 179.34 29.8022 179.312 29.8061C178.371 29.9361 174.92 30.2871 174.17 31.5416C174.039 31.7963 173.976 32.0805 173.986 32.3668C173.997 32.6531 174.08 32.932 174.23 33.1764C174.379 33.4209 174.589 33.6228 174.839 33.7627C175.089 33.9026 175.371 33.9758 175.658 33.9752C174.333 34.7552 174.213 35.8888 174.917 36.6948C175.242 36.966 175.625 37.1579 176.037 37.2556C176.449 37.3533 176.878 37.354 177.29 37.2577C174.887 38.962 176.261 41.2968 181.241 39.3221C181.308 39.3276 181.375 39.3122 181.432 39.2783C181.49 39.2443 181.536 39.1933 181.563 39.1323C181.592 39.0712 181.6 39.0029 181.588 38.9368C181.575 38.8706 181.543 38.81 181.495 38.7631Z" fill="#2F473F"/>
<path d="M241.761 69.8825C241.265 69.1571 240.082 69.4587 239.317 69.3872C238.108 69.2212 237.005 68.608 236.226 67.6686C233.411 64.7943 230.954 61.9642 226.49 61.3311C223.998 61.0219 221.468 61.3114 219.11 62.1755C216.752 63.0396 214.635 64.4534 212.932 66.2997C208.138 71.6778 207.64 81.2289 208.198 88.4413C208.804 96.2582 210.278 104.288 206.898 111.462C203.996 117.633 197.39 121.931 190.978 124.251C185.485 126.18 179.697 127.136 173.875 127.077C172.905 127.077 170.591 126.854 168.469 126.651C175.879 125.233 184.514 121.711 190.29 116.196C199.455 107.447 200.857 92.4713 196.831 83.11C193.821 76.1095 187.897 72.5241 182.921 72.6749C181.126 72.7472 179.395 73.3574 177.952 74.4261C176.509 75.4948 175.421 76.9727 174.828 78.6679C173.926 81.2679 174.215 83.9914 172.118 85.0821C171.115 85.3502 170.162 85.7754 169.293 86.3418C168.164 87.3376 168.723 88.9002 170.853 89.3578C173.291 89.5099 175.739 89.2783 178.105 88.6714C180.846 87.9861 183.42 86.7556 185.674 85.0535C187.784 91.8629 186.827 101.08 183.528 106.423C180.649 110.721 176.416 113.933 171.501 115.548C166.972 117.384 162.268 118.756 157.461 119.641C160.87 114.62 163.253 108.975 164.473 103.03C165.693 97.0854 165.727 90.9581 164.572 85.0002C159.242 57.0697 131.493 43.9293 110.547 58.4672C93.0516 70.6118 88.1025 96.2075 98.5987 115.539C98.6364 115.653 98.7131 115.73 98.7521 115.845C88.6836 110.933 82.5775 103.394 82.4878 91.8304C82.4228 83.5624 84.3455 76.9558 87.8321 69.4574C91.2316 62.1501 97.1206 52.1024 93.673 44.2621C90.8598 37.8622 82.8596 37.1121 82.7166 37.0471C81.8677 37.896 76.6976 43.4561 75.8825 44.3388C75.8189 44.5534 75.8327 44.7834 75.9215 44.9888C77.5353 45.8223 78.8152 47.183 79.5485 48.8446C79.7695 49.5336 79.8345 50.2642 79.7396 50.9831C79.3327 56.5419 72.2815 61.4481 68.5219 78.7589C66.8709 73.802 64.4542 68.6098 60.0784 65.7589C58.675 64.7853 57.0882 64.1073 55.4145 63.766C53.7409 63.4248 52.0153 63.4274 50.3427 63.7738C44.2067 65.3156 37.9927 71.2098 32.4768 67.9338C31.8729 67.5346 31.3118 67.0742 30.8024 66.5597C30.6469 66.4234 30.4632 66.3231 30.2644 66.2659C30.0657 66.2087 29.8567 66.196 29.6525 66.2288C29.4483 66.2616 29.2538 66.339 29.083 66.4555C28.9121 66.572 28.769 66.7248 28.6639 66.9029C28.2524 68.0278 28.1858 69.25 28.4728 70.4129C28.5881 71.7382 28.9729 73.026 29.6038 74.1971C30.2346 75.3683 31.0982 76.3982 32.1414 77.2236C36.2598 80.1083 43.5333 80.2708 48.0586 79.2776C49.5425 78.7822 51.1417 78.7486 52.645 79.1814C53.2621 79.4761 53.7848 79.9369 54.1545 80.5121C54.5242 81.0874 54.7263 81.7542 54.738 82.4379C55.4595 86.5459 53.724 112.892 64.6726 127.718C63.9732 127.675 63.0879 127.623 62.7551 127.601C50.734 126.772 40.5004 131.852 35.8451 143.177C34.5087 146.427 33.7651 150.763 31.1872 153.408C28.6418 156.026 24.3986 157.031 19.8109 155.012C17.2109 153.869 12.6986 150.519 11.1828 147.872C10.3976 146.481 10.0638 144.88 10.2273 143.291C10.3209 142.251 10.8331 140.834 9.80872 141.039C7.65462 141.754 6.68872 151.755 7.78462 156.92C9.03782 162.807 12.4815 168.147 18.0169 170.512C24.8744 173.442 34.0615 171.094 39.3577 166.504C42.5321 163.662 45.1353 160.242 47.0277 156.425C48.641 153.031 49.8136 149.207 52.5631 146.575C57.7319 141.628 67.1361 143.446 73.2552 147.316C72.8484 150.036 73.1919 152.816 74.2484 155.355C76.4493 160.597 80.4026 162.709 84.7784 165.357C91.5046 169.425 92.2599 170.614 97.4534 176.467C99.9056 178.973 101.656 182.08 102.53 185.476H115.893C115.963 184.866 115.95 184.25 115.854 183.644C115.659 181.636 114.364 174.924 113.602 171.962C113.114 170.355 112.475 168.797 111.692 167.31C106.882 158.145 101.051 156.73 94.5895 154.292C92.6798 153.57 87.4837 151.538 89.7028 148.717C93.7952 143.517 106.594 150.017 112.533 152.916C115.085 153.236 151.32 152.485 151.561 152.365C153.617 151.115 155.786 150.06 158.039 149.214C161.508 147.844 167.665 145.654 171.134 147.152C172.721 147.838 174.237 149.696 173.158 151.052C171.555 153.937 164.095 154.763 158.574 158.381C154.34 161.426 151.153 165.707 149.45 170.636C148.61 172.846 146.278 184.91 146.739 185.372H160.1C160.712 182.862 161.843 180.508 163.422 178.464C164.312 177.294 168.92 172.085 170.832 170.332C175.758 165.812 181.037 163.977 184.5 160.788C186.475 159.015 187.956 156.759 188.797 154.243C189.639 151.726 189.812 149.033 189.301 146.429C189.662 146.586 189.934 146.701 189.959 146.701C198.82 150.665 196.785 158.974 199.046 166.094C201.635 174.257 205.26 178.396 210.994 181.519C216.242 184.379 221.774 185.083 226.991 182.587C233.164 179.632 237.081 173.129 238.405 166.324C238.535 165.628 239.016 162.193 239.016 161.514C238.884 161.689 238.782 161.882 238.71 162.088C235.598 166.519 231.033 169.72 225.806 171.136C224.246 171.535 220.388 172.243 218.82 171.861C216.197 171.22 215.681 168.793 218.134 167.661C208.943 163.067 216.208 153.124 208.628 141.701C207.314 139.584 205.81 137.59 204.135 135.744C210.651 132.173 215.951 126.736 219.356 120.131C222.829 112.792 222.589 104.223 221.875 96.1178C221.496 91.8083 220.765 86.6083 221.761 81.3433C222.287 78.5548 223.357 75.4933 225.661 73.6317C226.413 72.9907 227.314 72.5497 228.282 72.3495C229.249 72.1494 230.252 72.1964 231.196 72.4864C232.834 73.0168 233.86 74.1595 235.892 74.3948C236.963 74.552 238.057 74.423 239.063 74.0209C240.069 73.6189 240.95 72.9581 241.618 72.1055C241.874 71.7977 242.026 71.4167 242.051 71.0173C242.077 70.6179 241.975 70.2206 241.761 69.8825Z" fill="#E2FD86"/>
<path d="M220.687 171.548C221.298 171.471 221.87 171.431 222.481 171.357C228.164 170.77 233.388 167.972 237.027 163.568C237.027 163.568 238.384 161.915 238.401 161.889C239.428 159.664 238.857 156.689 235.195 155.283C233.998 154.766 232.711 154.49 231.408 154.471C230.104 154.451 228.81 154.688 227.598 155.169C226.501 155.659 225.513 156.365 224.693 157.244C223.873 158.123 223.238 159.157 222.825 160.286C221.925 162.81 222.305 165.457 220.726 166.852C220.24 167.229 219.681 167.502 219.084 167.653C219.001 167.696 218.91 167.722 218.816 167.73L218.205 167.997C215.344 169.512 217.523 171.943 220.687 171.548Z" fill="#E2FD86"/>
<path d="M113.792 103.593C115.878 103.593 117.571 101.747 117.571 99.4692C117.571 97.1916 115.878 95.3456 113.792 95.3456C111.704 95.3456 110.013 97.1916 110.013 99.4692C110.013 101.747 111.705 103.593 113.792 103.593Z" fill="#FF5470"/>
<path d="M144.906 103.059C146.993 103.059 148.685 101.213 148.685 98.9349C148.685 96.6573 146.993 94.8113 144.906 94.8113C142.818 94.8113 141.127 96.6573 141.127 98.9349C141.127 101.213 142.818 103.059 144.906 103.059Z" fill="#FF5470"/>
<path d="M123.642 100.157C123.802 101.205 124.206 102.201 124.823 103.063C125.44 103.926 126.252 104.63 127.192 105.12C128.049 105.431 128.969 105.531 129.872 105.411C130.776 105.291 131.638 104.956 132.384 104.433C133.175 103.8 133.823 103.007 134.283 102.105C134.744 101.204 135.008 100.214 135.057 99.2027C130.412 101.388 126.566 101.327 123.642 100.157Z" fill="white"/>
<path d="M242.312 69.6797C241.636 68.3927 239.956 69.0427 238.643 68.6657C236.122 67.9481 233.584 62.2047 227.29 60.9138C224.85 60.4828 222.345 60.6174 219.966 61.307C217.587 61.9967 215.397 63.2231 213.567 64.8918C207.284 70.6547 207.238 81.9517 207.51 86.542C207.973 94.3524 209.789 102.765 206.95 109.976C202.228 121.971 185.055 127.167 172.187 126.408C175.717 125.503 179.14 124.222 182.397 122.587C194.589 116.217 200.354 105.809 199.756 93.0771C199.295 83.3076 194.015 73.3561 184.52 72.0626C183.254 71.8695 181.963 71.9432 180.728 72.2791C179.493 72.6149 178.342 73.2054 177.349 74.0126C172.713 77.6032 174.398 82.0921 172.409 84.0226C171.743 84.6726 170.719 84.709 169.827 85.1315C166.569 86.6824 168.441 90.0585 172.167 89.8934C176.848 89.8934 181.422 88.4894 185.297 85.8634C186.769 91.5139 186.464 97.4806 184.425 102.952C183.192 106.143 181.034 108.893 178.228 110.849C175.954 112.5 173.49 113.873 170.89 114.939C170.738 114.978 160.974 118.059 158.724 118.627C171.535 99.2365 167.296 70.5039 148.026 57.5104C126.453 42.9634 98.4557 57.0151 93.4 85.0873C91.5971 95.112 93.0861 105.451 97.6445 114.56C91.7582 111.652 87.1469 106.68 84.6887 100.592C83.0108 95.5572 82.6207 90.182 83.5538 84.9573C84.2886 79.9905 85.7498 75.1587 87.8906 70.617C91.3291 62.947 97.105 53.717 94.8872 45.4815C93.6067 40.7235 89.5806 37.4761 83.5499 36.3295C83.1131 36.2463 82.6776 36.0903 82.298 36.4699C82.298 36.4699 78.3317 40.8015 75.733 43.6836C75.7009 43.7193 75.6828 43.7656 75.6823 43.8136V44.3856C75.6836 44.4142 75.6911 44.4422 75.7042 44.4677C75.7174 44.4931 75.736 44.5154 75.7586 44.5329C75.7812 44.5505 75.8074 44.5629 75.8353 44.5694C75.8632 44.5758 75.8922 44.5761 75.9202 44.5702C75.9578 44.5622 75.9922 44.5432 76.019 44.5156C83.2665 36.9457 82.8544 37.2876 82.9844 37.3097C85.4076 37.6867 91.2979 39.1297 93.6444 44.3869C97.0647 52.0296 91.06 61.8615 87.5942 69.3144C84.1091 76.319 82.3426 84.0529 82.441 91.8759C82.3395 98.425 84.8137 104.752 89.331 109.495C91.9367 112.201 94.9986 114.427 98.3764 116.07C100.891 120.661 104.286 124.713 108.366 127.993C108.425 128.039 108.495 128.069 108.57 128.077C108.645 128.086 108.72 128.074 108.789 128.043C108.857 128.011 108.915 127.962 108.957 127.899C108.998 127.836 109.022 127.763 109.025 127.688C109.027 127.634 109.014 127.58 108.987 127.533C108.961 127.486 108.922 127.446 108.875 127.419C106.246 125.279 103.891 122.821 101.866 120.103C100.781 118.633 99.7976 117.092 98.9211 115.489C94.7731 107.784 92.9258 99.0497 93.5989 90.325C95.6724 61.8251 121.865 44.9212 144.091 56.3157C160.692 64.8255 168.011 84.7623 164.301 102.961C160.831 119.981 150.207 126.889 150.207 127.531C150.213 127.605 150.238 127.676 150.28 127.737C150.322 127.798 150.38 127.846 150.447 127.877C150.514 127.908 150.589 127.921 150.662 127.914C150.736 127.907 150.807 127.88 150.867 127.837C153.679 125.578 156.136 122.909 158.153 119.918C162.82 119.044 167.375 117.651 171.733 115.765C175.721 114.494 179.277 112.138 182.003 108.962C186.225 104.741 188.893 94.3602 186.178 85.5735C187.997 84.1842 189.63 82.5677 191.038 80.7635C191.083 80.6848 191.1 80.5925 191.084 80.5029C191.068 80.4133 191.022 80.332 190.952 80.2734C190.883 80.2146 190.796 80.1817 190.705 80.1803C190.614 80.1788 190.526 80.209 190.455 80.2656C187.448 84.3362 183.134 87.2505 178.235 88.5206C175.895 89.1043 173.481 89.3357 171.072 89.2083C169.425 88.8183 168.393 87.5807 169.59 86.5277C170.484 85.7477 171.423 85.7789 172.375 85.2953C174.555 84.1903 174.335 81.16 175.182 78.7732C175.553 77.6829 176.136 76.677 176.898 75.8136C177.66 74.9503 178.586 74.2465 179.622 73.7431C180.658 73.2397 181.783 72.9467 182.933 72.8809C184.082 72.8152 185.234 72.978 186.32 73.36C194.703 75.8144 198.549 84.2475 198.853 92.977C199.383 108.178 192.418 117.158 179.803 122.93C173.848 125.66 169.351 126.464 163.172 127.382C162.691 127.452 162.741 128.223 163.23 128.149C164.375 127.977 167.462 127.577 167.587 127.46C168.909 127.281 170.241 127.194 171.574 127.2C184.297 128.333 201.812 123.04 207.242 111.583C210.665 104.362 209.13 96.1815 208.558 88.4647C208.038 81.4447 208.428 71.9287 213.238 66.4648C214.912 64.6368 217.002 63.2377 219.329 62.3853C221.657 61.5329 224.156 61.252 226.615 61.5664C230.736 62.1774 233.115 64.6344 235.643 67.2344C236.559 68.4895 237.922 69.3445 239.45 69.6225C240.169 69.7005 241.343 69.4496 241.755 70.0372C242.845 71.5894 240.335 74.9252 236.059 74.3883C234.016 74.1283 233.099 73.0428 231.4 72.4877C230.424 72.1889 229.389 72.1404 228.389 72.3467C227.39 72.5529 226.458 73.0074 225.68 73.6681C223.73 75.245 222.4 77.8775 221.717 81.4941C220.743 86.6421 221.371 91.1661 221.83 96.3219C222.497 103.901 222.91 112.625 219.327 120.234C215.969 127.367 208.741 132.974 203.571 135.607C198.21 138.205 192.242 139.295 186.308 138.758L186.275 138.719C179.417 130.405 166.329 128.891 157.025 134.005C156.449 134.316 155.894 134.663 155.362 135.045C155.313 135.079 155.273 135.123 155.244 135.175C155.216 135.227 155.2 135.285 155.197 135.344C155.194 135.403 155.206 135.462 155.23 135.516C155.254 135.57 155.29 135.618 155.336 135.656C155.398 135.706 155.473 135.736 155.553 135.742C156.094 135.742 159.928 132.305 167.097 131.809C186.379 130.479 196.23 149.879 184.517 160.829C181.358 163.782 175.196 166.272 170.849 170.375C168.729 172.375 164.363 177.29 163.421 178.53C161.858 180.557 160.728 182.884 160.102 185.365C148.69 185.375 147.468 185.39 147.05 185.342C147.539 180.455 148.452 175.62 149.78 170.891C154.07 159.644 161.009 157.165 166.589 155.172C168.864 154.359 173.302 152.898 173.809 150.558C174.122 149.106 172.618 147.728 171.362 147.165C168.058 145.686 161.213 147.387 152.089 151.957C152.056 151.972 151.501 152.238 151.472 152.26C151.406 152.299 151.353 152.356 151.319 152.426C151.285 152.495 151.272 152.572 151.282 152.649C151.292 152.725 151.325 152.797 151.375 152.855C151.425 152.913 151.492 152.955 151.566 152.976C151.666 153.002 151.773 152.989 151.862 152.937C157.109 150.215 170.296 144.246 172.939 149.53C173.41 150.471 172.844 151.425 171.258 152.368C165.612 155.72 156.165 155.263 150.031 168.488C149.43 169.71 148.952 170.987 148.601 172.303C148.17 174.059 146.145 183.399 146.343 185.367C146.343 185.857 146.539 186.147 147.025 186.147L160.435 186.134C160.521 186.124 160.602 186.09 160.67 186.036C160.737 185.981 160.788 185.909 160.815 185.827C161.457 183.193 162.669 180.731 164.366 178.616C164.838 178.019 168.719 173.629 169.928 172.368C177.557 164.411 185.726 164.394 189.324 155.163C190.267 152.677 190.565 149.994 190.189 147.363C197.156 150.701 196.798 157.085 197.729 162.643C198.649 168.111 201.759 175.357 206.618 179.216C218.89 188.955 232.299 184.947 237.688 170.889C238.677 168.172 239.286 165.332 239.497 162.449C239.81 159.914 239.547 157.332 237.547 155.738C235.351 154.327 232.749 153.681 230.148 153.903C228.254 154.148 226.477 154.955 225.045 156.22C223.614 157.484 222.594 159.149 222.117 160.998C221.624 163.002 221.616 164.669 221.029 165.721C220.419 166.814 219.56 166.891 218.68 167.247C217.486 166.699 216.436 165.88 215.614 164.855C214.791 163.83 214.22 162.627 213.944 161.343C212.839 156.747 214.29 152.101 211.185 144.971C209.663 141.457 207.296 138.373 204.295 135.994C209.055 133.364 213.284 129.873 216.769 125.698C229.648 109.145 217.549 88.9795 224.04 76.8427C224.486 75.8335 225.177 74.9513 226.05 74.2759C226.923 73.6004 227.95 73.153 229.039 72.9739C231.379 72.7659 232.614 74.0451 233.752 74.5599C237.305 76.1719 241.271 74.6314 242.462 72.1471C242.739 71.3371 242.685 70.4504 242.312 69.6797ZM186.695 139.508C192.428 139.903 198.168 138.829 203.371 136.388C205.385 137.877 207.12 139.71 208.496 141.804C215.916 153.066 208.922 162.929 217.741 167.657C215.487 168.957 216.166 171.416 218.807 172.046C220.453 172.436 224.358 171.713 225.887 171.32C230.47 170.156 234.559 167.551 237.553 163.891C238.151 163.208 238.571 162.591 238.695 162.461C238.146 167.544 237.177 171.673 234.229 175.948C229.91 182.214 223.553 184.995 216.792 183.581C212.513 182.54 208.592 180.37 205.438 177.296C202.496 174.102 200.354 170.256 199.186 166.073C197.287 160.177 198.447 153.774 194.023 149.35C192.811 148.17 191.403 147.209 189.863 146.511C189.317 143.977 188.238 141.589 186.697 139.505L186.695 139.508ZM235.122 155.469C239.196 157.005 239.192 160.897 237.937 162.155C235.24 165.871 231.46 168.661 227.114 170.142C225.018 170.795 222.853 171.203 220.664 171.357C217.696 171.678 215.682 169.537 218.33 168.173C219.692 167.472 221.198 167.627 221.94 165.193C222.432 163.58 222.361 162.158 223.006 160.353C223.413 159.251 224.035 158.241 224.837 157.381C225.639 156.522 226.604 155.832 227.676 155.35C230.077 154.402 232.755 154.445 235.125 155.467L235.122 155.469Z" fill="#2F473F"/>
<path d="M116.504 182.586C115.962 179.486 115.334 176.628 114.747 173.798C113.49 168.138 110.439 163.035 106.048 159.25C103.102 157.154 99.8447 155.536 96.3952 154.454C94.2827 153.674 89.3453 152.067 89.942 149.904C90.1073 149.498 90.3511 149.13 90.6594 148.819C90.9678 148.508 91.3345 148.261 91.7386 148.092C94.7598 146.555 101.638 148.317 111.096 153.047C111.544 153.315 111.896 152.577 111.536 152.431C110.264 151.922 104.329 148.421 97.6796 147.153C95.1771 146.676 91.6216 146.334 89.6638 148.867C87.5838 151.55 91.4617 153.547 94.635 154.743C101.639 157.389 107.023 158.883 111.635 167.669C112.413 169.167 113.051 170.733 113.541 172.349C115.96 183.214 115.943 185.193 115.848 185.545C115.458 185.583 114.019 185.568 102.799 185.558C101.916 182.183 100.161 179.098 97.7121 176.614C95.3708 173.723 92.7532 171.067 89.8965 168.684C86.4437 166.072 83.3861 164.702 80.1569 162.419C77.7854 160.838 75.9058 158.623 74.7324 156.026C73.559 153.428 73.1391 150.554 73.5204 147.729C73.5204 147.662 73.5204 147.66 73.5386 147.625C73.5802 147.541 73.5386 147.513 73.5763 147.435C73.5942 147.369 73.606 147.301 73.6114 147.233C76.4896 132.991 94.6467 127.562 106.687 135.455C107.192 135.785 107.419 135.933 107.597 135.794C107.652 135.761 107.698 135.717 107.733 135.664C107.767 135.61 107.788 135.549 107.795 135.486C107.802 135.423 107.794 135.359 107.772 135.3C107.75 135.241 107.714 135.187 107.668 135.144L107.648 135.165C104.429 132.959 100.698 131.616 96.8112 131.265C93.3939 130.845 89.9259 131.192 86.6601 132.283C83.3944 133.373 80.4131 135.179 77.9339 137.568C77.7714 137.503 77.0525 137.23 76.8692 137.158C65.5436 132.653 60.5711 121.975 58.3949 113.81C56.2642 105.818 55.2853 94.0417 55.2593 86.5381C55.2515 83.7756 55.2385 79.9926 52.5553 78.8681C50.0853 77.8281 48.5396 79.9224 41.725 79.5402C38.735 79.3699 31.5369 78.4248 29.4868 73.3249C28.7939 71.6011 27.7877 67.0056 29.7975 66.6858C31.0858 66.483 31.0091 68.1158 34.3371 69.1558C39.593 70.435 45.2129 65.5353 50.5026 64.2314C52.1492 63.8902 53.848 63.8879 55.4954 64.2247C57.1429 64.5615 58.7045 65.2304 60.0849 66.1905C66.1949 70.1698 68.5635 78.6003 70.3081 86.1897C72.5662 96.0086 72.4336 103.234 76.2088 109.835C82.636 121.077 95.1576 124.987 95.7088 125.339C95.7454 125.376 95.7949 125.396 95.8466 125.396H95.8843C96.3536 125.56 96.5512 124.73 96.0806 124.666C84.6523 120.313 76.9485 112.664 74.3888 103.122C72.6208 96.5312 72.626 89.2122 69.1719 78.4989C72.8392 60.7214 79.5277 56.8955 80.0451 51.2704C80.1543 50.521 80.0839 49.7565 79.8397 49.0396C79.3496 47.8696 77.6297 45.4815 76.1204 45.085C75.996 45.0334 75.8645 45.0005 75.7304 44.9875C75.4847 44.9875 75.5354 45.2657 75.5354 45.5257C75.5353 45.5714 75.5512 45.6158 75.5805 45.6509C75.6097 45.6861 75.6503 45.7099 75.6953 45.7181C76.4688 46.0171 77.15 46.5163 77.6687 47.1637C78.2113 47.6009 78.6407 48.1622 78.9206 48.8003C79.2005 49.4384 79.3227 50.1345 79.2768 50.8297C79.1819 56.3755 72.4856 59.6697 68.6233 77.0715C67.5648 73.7625 65.8497 70.7011 63.5806 68.0703C61.9195 66.114 59.7445 64.6611 57.3012 63.8757C54.8579 63.0903 52.2437 63.0037 49.7538 63.6256C44.0728 65.2701 36.7083 71.7389 31.6981 66.7287C31.5065 66.4637 31.2515 66.2509 30.9565 66.1097C30.6615 65.9685 30.3359 65.9034 30.0093 65.9203C29.6826 65.9373 29.3655 66.0357 29.0866 66.2066C28.8078 66.3776 28.5763 66.6156 28.413 66.899C27.4718 68.5331 28.1634 71.8117 28.8576 73.6174C31.3159 80.0043 41.1738 81.0274 47.2019 80.1538C48.8594 79.9146 51.2553 78.8434 52.8413 79.9211C54.608 81.121 54.5781 84.3411 54.6145 86.3548C54.6457 88.1072 54.6938 90.7553 54.9967 95.1688C55.7767 106.462 57.3627 118.163 63.6547 127.344C50.0749 126.42 40.4003 131.703 35.6566 142.646C34.0459 146.364 33.5038 150.459 30.9974 153.127C27.8176 156.507 22.745 156.123 19.1284 154.233C18.1872 153.713 17.2902 153.119 16.4452 152.456C13.021 149.887 10.3599 147.405 10.9475 142.819C11.0701 142.39 11.1201 141.943 11.0957 141.497C11.0331 141.228 10.8703 140.993 10.6406 140.841C10.4109 140.688 10.1315 140.628 9.85942 140.674C9.67904 140.705 9.50952 140.782 9.36672 140.896C8.82799 141.602 8.37461 142.369 8.01602 143.182C7.1442 146.119 6.70153 149.166 6.70172 152.23C6.67457 155.253 7.25817 158.251 8.41753 161.043C9.5769 163.835 11.2882 166.365 13.4487 168.48C19.5028 173.901 27.0246 173.009 32.2688 171.306C36.5314 170.001 40.2841 167.406 43.0094 163.878C45.3793 161.163 47.2602 158.058 48.5682 154.7C50.474 150.44 52.0353 146.811 56.4085 145.08C61.1028 143.217 67.283 144.185 72.9627 147.671C72.6313 150.106 72.8723 152.585 73.6667 154.911C74.461 157.237 75.7868 159.346 77.5387 161.07C79.8475 163.416 83.4394 165.247 86.5425 167.243C91.4591 170.408 92.7617 172.033 96.2613 175.961C99.0966 179.141 101.331 181.653 102.297 186.058C102.297 186.555 102.328 186.42 115.895 186.42C116.043 186.437 116.192 186.427 116.336 186.391C117.174 186.113 116.645 183.396 116.504 182.586ZM10.148 141.54C10.3014 141.692 10.0596 142.413 9.97642 143.49C9.68652 147.235 11.4532 149.5 14.3964 151.94C17.2915 154.338 21.2097 157.018 25.8468 156.412C31.0936 155.732 33.0111 152.26 34.6166 147.532C36.4795 142.06 39.9466 131.877 53.4835 128.791C56.9628 128.018 60.5411 127.791 64.0902 128.117C64.2579 128.331 64.4048 128.57 64.5725 128.776C67.8577 133.036 72.2616 136.3 77.293 138.203C75.0812 140.632 73.5768 143.621 72.9432 146.845C66.8982 142.945 57.7332 141.558 52.3733 146.648C50.3632 148.836 48.8191 151.41 47.835 154.214C46.7955 156.885 45.3855 159.397 43.6464 161.676C39.2368 167.6 34.4684 170.568 27.7019 171.602C25.1268 172.104 22.4684 171.972 19.9558 171.217C17.4431 170.463 15.1515 169.109 13.2784 167.272C8.72842 162.745 6.56652 155.332 7.65202 147.924C8.23832 143.921 8.53862 143.434 9.40832 141.971C9.62672 141.602 9.80482 141.195 10.148 141.54Z" fill="#2F473F"/>
<path d="M141.018 91.6107C141.28 91.3897 141.517 91.1401 141.724 90.8658C141.758 90.8208 141.783 90.7688 141.796 90.7133C141.808 90.6579 141.808 90.6003 141.796 90.5447C141.785 90.4887 141.761 90.4361 141.725 90.391C141.69 90.3459 141.645 90.3095 141.594 90.2847C141.124 90.0507 141.041 90.7423 140.164 91.3247C138.522 91.1557 137.079 93.6439 138.05 96.1971C138.206 96.5983 138.468 96.9496 138.808 97.2133C139.149 97.4771 139.554 97.6435 139.982 97.6947C142.342 97.6947 143.018 93.0667 141.018 91.6107Z" fill="#2F473F"/>
<path d="M114.581 77.9997C115.264 77.1991 116.101 76.5438 117.043 76.0726C117.984 75.6015 119.01 75.324 120.06 75.2567C120.116 75.2703 120.173 75.2706 120.228 75.2576C120.284 75.2445 120.335 75.2185 120.378 75.1817C120.421 75.1448 120.455 75.0982 120.477 75.0457C120.498 74.9932 120.507 74.9363 120.502 74.8797C120.507 74.8042 120.489 74.7291 120.449 74.6646C120.409 74.6002 120.351 74.5495 120.281 74.5196C120.235 74.4997 120.185 74.4895 120.135 74.4897C119.71 74.4983 119.287 74.5506 118.872 74.6457C116.999 75.0744 115.298 76.0564 113.989 77.4641C113.921 77.543 113.887 77.6454 113.893 77.7493C113.9 77.8533 113.947 77.9506 114.024 78.0205C114.101 78.0904 114.203 78.1274 114.307 78.1235C114.411 78.1196 114.509 78.0752 114.581 77.9997Z" fill="#2F473F"/>
<path d="M138.182 75.3035C138.944 75.1514 141.399 75.6272 143.731 78.0335C144.088 78.404 144.602 77.9035 144.279 77.4966C142.763 75.8259 140.686 74.7699 138.442 74.5287C138.089 74.4936 137.783 74.5768 137.783 74.9187C137.781 74.9712 137.789 75.0237 137.808 75.0726C137.828 75.1215 137.857 75.1657 137.895 75.2021C137.933 75.2386 137.978 75.2665 138.028 75.284C138.077 75.3015 138.13 75.3081 138.182 75.3035Z" fill="#2F473F"/>
<path d="M117.187 97.6947C119.557 97.6947 120.224 93.0667 118.227 91.6107C118.49 91.3897 118.725 91.1401 118.932 90.8658C118.968 90.8213 118.993 90.7693 119.006 90.7137C119.018 90.6581 119.019 90.6004 119.006 90.5447C118.994 90.4891 118.969 90.4369 118.933 90.3922C118.898 90.3474 118.853 90.3111 118.802 90.286C118.324 90.0455 118.213 90.806 117.379 91.287C115.236 91.0374 114.156 94.953 115.755 96.9342C115.92 97.1612 116.135 97.3476 116.384 97.4793C116.632 97.6111 116.907 97.6847 117.187 97.6947Z" fill="#2F473F"/>
<path d="M106.427 94.7502C106.65 95.5334 107.053 96.2535 107.604 96.8529C108.155 97.4522 108.839 97.9142 109.601 98.2017C110.695 98.6138 111.136 98.5787 121.116 98.9011C121.935 98.931 122.75 98.7671 123.494 98.4226C124.239 98.0781 124.891 97.5628 125.398 96.9186C126.772 95.1883 126.515 93.3189 126.51 90.8671C128.342 90.2684 130.316 90.2634 132.15 90.8528C132.063 92.187 132.104 93.5264 132.27 94.8529C132.534 96.0432 133.206 97.1036 134.17 97.85C135.133 98.5964 136.328 98.9816 137.547 98.9388C137.547 98.9388 145.638 98.619 147.357 98.5579C148.732 98.5111 150.033 97.9227 150.976 96.9209C151.919 95.9192 152.429 94.5852 152.393 93.2097C152.393 87.5703 152.661 85.9505 151.52 84.2397C151.068 83.5594 150.463 82.9937 149.754 82.5875C149.045 82.1814 148.252 81.9459 147.436 81.8997C146.098 81.8347 138.709 81.6254 137.543 81.5955C136.838 81.5652 136.135 81.6784 135.475 81.9282C134.816 82.1779 134.214 82.5591 133.706 83.0485C133.198 83.538 132.795 84.1255 132.521 84.7754C132.247 85.4253 132.108 86.1241 132.113 86.8293V90.0169C130.27 89.4558 128.299 89.4804 126.471 90.0871C126.633 88.3581 126.512 86.6148 126.113 84.9248C125.818 84.1711 125.352 83.496 124.752 82.9522C124.152 82.4085 123.434 82.0109 122.655 81.7905C121.756 81.5487 121.756 81.5487 114.028 81.8165C111.699 81.8971 110.205 81.7645 108.765 82.655C108.074 83.0819 107.49 83.661 107.058 84.3479C106.625 85.0349 106.355 85.8116 106.269 86.6187C106.207 87.421 106.193 88.2263 106.227 89.0302C106.232 93.3904 106.18 93.8701 106.427 94.7502ZM151.667 90.5681C151.794 91.9407 151.718 93.3243 151.442 94.6748C151.207 95.3864 150.797 96.0277 150.25 96.54C149.703 97.0523 149.036 97.4194 148.311 97.6076C147.61 97.7818 147.464 97.8195 137.573 98.1276C136.95 98.1539 136.329 98.0486 135.75 97.8186C135.17 97.5886 134.646 97.2391 134.211 96.7928C133.776 96.3465 133.44 95.8135 133.225 95.2286C133.01 94.6437 132.921 94.02 132.963 93.3982C132.963 87.1036 132.842 86.1377 133.33 85.0392C133.64 84.3645 134.11 83.7754 134.699 83.3225C135.288 82.8696 135.978 82.5665 136.71 82.4392C137.23 82.3456 137.289 82.3339 147.046 82.681C147.951 82.681 148.84 82.9202 149.621 83.3765C150.245 83.7798 150.759 84.332 151.116 84.9833C151.473 85.6347 151.663 86.3647 151.667 87.1075C151.674 88.2476 151.669 89.4111 151.665 90.5681H151.667ZM125.702 86.7981C125.702 93.7869 125.721 93.7349 125.666 94.1795C125.578 94.917 125.308 95.621 124.88 96.2279C124.452 96.8348 123.879 97.3255 123.214 97.6557C121.914 98.2992 121.906 98.1068 111.358 97.7506C110.77 97.747 110.188 97.6261 109.647 97.3951C109.105 97.1641 108.616 96.8275 108.206 96.4051C107.797 95.9817 107.476 95.4811 107.263 94.9324C107.05 94.3838 106.948 93.7982 106.963 93.2097C106.963 87.2141 106.819 86.2547 107.587 84.9079C107.963 84.2614 108.494 83.7191 109.133 83.3299C109.771 82.9408 110.497 82.7173 111.244 82.6797L120.977 82.3365C121.585 82.2988 122.194 82.3863 122.767 82.5935C123.339 82.8008 123.864 83.1234 124.307 83.5414C124.75 83.9594 125.102 84.4639 125.342 85.0236C125.582 85.5834 125.705 86.1865 125.702 86.7955V86.7981Z" fill="#2F473F"/>
<path d="M135.085 98.5696C132.816 99.7032 128.383 101.363 124.165 99.7461C123.472 99.4783 123.44 99.4003 123.239 99.4861C123.16 99.5195 123.092 99.5761 123.046 99.6485C122.999 99.721 122.976 99.8057 122.979 99.8917C123.105 100.667 123.327 101.424 123.642 102.143C126.519 109.075 135.542 106.219 135.585 98.9752C135.6 98.9098 135.597 98.8414 135.576 98.7776C135.554 98.7137 135.515 98.6573 135.463 98.6149C135.41 98.5725 135.347 98.546 135.28 98.5384C135.213 98.5298 135.145 98.5406 135.085 98.5696ZM134.565 100.945C133.029 106.493 125.559 107.248 123.946 100.518C126.254 101.28 128.724 101.406 131.096 100.882C132.391 100.595 133.652 100.167 134.854 99.6083C134.78 100.058 134.684 100.505 134.563 100.945H134.565Z" fill="#2F473F"/>
<path d="M225.383 185.648H37.8588C37.767 185.662 37.6833 185.709 37.6229 185.78C37.5624 185.851 37.529 185.941 37.5286 186.034C37.529 186.127 37.5625 186.216 37.623 186.287C37.6835 186.357 37.7671 186.404 37.8588 186.418H225.383C225.438 186.428 225.495 186.424 225.549 186.409C225.603 186.393 225.654 186.366 225.696 186.329C225.739 186.292 225.773 186.247 225.797 186.196C225.82 186.145 225.832 186.09 225.832 186.034C225.831 185.949 225.803 185.867 225.752 185.799C225.701 185.732 225.63 185.682 225.549 185.658C225.495 185.642 225.438 185.639 225.383 185.648Z" fill="#2F473F"/>
<path d="M188.466 173.702C188.274 174.57 188.273 175.47 188.463 176.338C188.653 177.207 189.03 178.024 189.568 178.733C190.106 179.441 190.791 180.023 191.577 180.44C192.362 180.857 193.228 181.098 194.116 181.147V179.314C193.304 179.231 192.531 178.926 191.883 178.431C191.234 177.935 190.736 177.27 190.442 176.509C190.149 175.747 190.073 174.919 190.221 174.117C190.37 173.315 190.738 172.569 191.285 171.964C192.019 171.153 193.028 170.643 194.116 170.534V168.701C192.739 168.744 191.42 169.268 190.389 170.181C189.357 171.095 188.677 172.34 188.466 173.702Z" fill="#E2FD86"/>
<path d="M194.498 165.647V185.843H209.387V165.647H194.498Z" fill="#E2FD86"/>
<path d="M209.888 166.326C209.952 166.053 209.976 165.773 209.963 165.494C209.968 165.44 209.962 165.385 209.945 165.334C209.928 165.282 209.901 165.235 209.864 165.195C209.827 165.155 209.782 165.123 209.732 165.102C209.682 165.081 209.628 165.07 209.573 165.071H194.307C194.256 165.069 194.204 165.078 194.156 165.096C194.107 165.115 194.063 165.144 194.027 165.18C193.99 165.217 193.961 165.261 193.942 165.309C193.923 165.357 193.915 165.409 193.917 165.461V168.09C192.627 168.177 191.391 168.645 190.367 169.435C189.342 170.225 188.575 171.302 188.164 172.528C187.79 173.505 187.649 174.554 187.75 175.595C187.851 176.636 188.192 177.639 188.747 178.525C189.301 179.412 190.053 180.157 190.945 180.704C191.836 181.25 192.842 181.583 193.884 181.675V185.992C193.881 186.044 193.89 186.095 193.909 186.144C193.928 186.192 193.956 186.236 193.993 186.273C194.029 186.309 194.073 186.338 194.122 186.357C194.17 186.375 194.222 186.384 194.274 186.382C209.758 186.382 209.624 186.441 209.762 186.303C209.94 186.123 209.94 186.013 209.919 180.216C209.903 177.272 209.888 172.88 209.888 166.326ZM188.658 173.736C188.865 172.455 189.497 171.282 190.452 170.405C191.406 169.527 192.628 168.995 193.921 168.896V170.349C192.819 170.504 191.81 171.052 191.08 171.891C190.35 172.731 189.948 173.806 189.948 174.919C189.948 176.032 190.35 177.107 191.08 177.947C191.81 178.787 192.819 179.335 193.921 179.489V180.944C193.08 180.87 192.263 180.617 191.528 180.202C190.792 179.786 190.154 179.218 189.656 178.535C189.157 177.853 188.81 177.072 188.638 176.245C188.466 175.418 188.473 174.564 188.658 173.74V173.736ZM193.884 178.717C190.774 178.379 189.538 174.167 191.995 171.934C192.52 171.46 193.18 171.162 193.884 171.084V178.717ZM209.153 165.8V185.606H194.656V165.804L209.153 165.8Z" fill="#2F473F"/>
<path d="M93.8264 140.298L97.1479 185.88H164.758L166.935 140.336L93.8264 140.298Z" fill="#B1E400"/>
<path d="M167.605 140.058C167.571 139.966 167.511 139.885 167.433 139.825C167.355 139.766 167.261 139.73 167.163 139.721H93.6353C93.5825 139.718 93.5298 139.727 93.4806 139.747C93.4315 139.766 93.3872 139.796 93.3506 139.834C93.314 139.872 93.2857 139.917 93.2675 139.967C93.2494 140.016 93.2418 140.069 93.2453 140.122L96.6422 186.071C96.6398 186.123 96.6483 186.175 96.667 186.223C96.6858 186.272 96.7144 186.316 96.7511 186.352C96.7878 186.389 96.8318 186.418 96.8802 186.437C96.9286 186.455 96.9804 186.464 97.0322 186.461L165.282 186.366C165.471 186.17 167.673 140.197 167.605 140.058ZM166.768 140.454L164.801 181.945H97.0608L94.0357 140.454H166.768ZM164.783 182.716C164.663 185.248 164.701 183.824 164.576 185.648H97.3624L97.1596 182.716H164.783Z" fill="#2F473F"/>
<path d="M131.192 158.401C132.256 158.394 133.275 157.969 134.027 157.217C134.78 156.465 135.206 155.446 135.213 154.383C135.211 153.763 135.065 153.153 134.789 152.599C134.513 152.045 134.113 151.562 133.62 151.187C133.127 150.813 132.554 150.556 131.947 150.438C131.339 150.321 130.712 150.344 130.115 150.507C129.315 150.724 128.602 151.182 128.072 151.819C127.589 152.409 127.283 153.125 127.19 153.882C127.098 154.64 127.222 155.408 127.55 156.097C127.877 156.787 128.392 157.369 129.037 157.777C129.682 158.185 130.429 158.401 131.192 158.401ZM134.403 154.385C134.407 155.028 134.22 155.657 133.865 156.192C133.512 156.729 133.007 157.149 132.415 157.398C131.823 157.648 131.17 157.716 130.54 157.594C129.909 157.472 129.328 157.167 128.871 156.716C128.413 156.264 128.1 155.688 127.971 155.059C127.874 154.588 127.883 154.102 127.996 153.636C128.109 153.169 128.325 152.733 128.627 152.36C128.928 151.986 129.309 151.684 129.741 151.475C130.174 151.267 130.647 151.156 131.127 151.152C131.99 151.149 132.819 151.487 133.432 152.093C134.046 152.698 134.395 153.523 134.403 154.385Z" fill="#2F473F"/>
<path d="M44.4251 172.64C40.7851 173.044 40.0441 183.3 43.6997 185.391C43.9142 185.536 44.1664 185.615 44.4251 185.62V172.64Z" fill="#E2FD86"/>
<path d="M88.0999 183.4C87.4957 182.062 87.1832 180.611 87.1832 179.143C87.1832 177.675 87.4957 176.224 88.0999 174.886H44.8424V183.4H88.0999Z" fill="white"/>
<path d="M44.8073 172.64V174.51H88.252V172.64H44.8073Z" fill="#E2FD86"/>
<path d="M44.8073 183.781V185.651H88.2143V183.781H44.8073Z" fill="#E2FD86"/>
<path d="M88.6979 174.967C88.8344 174.837 88.7902 174.413 88.7902 172.442C88.7928 172.39 88.7845 172.338 88.7658 172.29C88.7472 172.241 88.7185 172.197 88.6818 172.161C88.645 172.124 88.601 172.095 88.5525 172.076C88.504 172.058 88.4521 172.049 88.4002 172.052H44.5395C43.1095 172.052 42.1579 173.352 41.5365 174.652C39.463 179.388 41.3636 186.521 44.7696 186.222L88.5198 186.183C88.668 186.183 88.7525 186.025 88.7525 185.874C88.7525 183.525 88.7967 183.509 88.6667 183.404C88.0283 182.088 87.6992 180.644 87.7047 179.182C87.7101 177.719 88.0498 176.278 88.6979 174.967ZM44.2301 185.38C43.7519 185.182 43.3226 184.883 42.9723 184.502C42.622 184.122 42.3591 183.669 42.2021 183.176C41.3386 180.829 41.2475 178.268 41.9421 175.865C42.3672 174.548 43.1823 173.116 44.234 172.865L44.2301 185.38ZM88.0193 185.459H45.0023V183.976H88.0193V185.459ZM87.1093 177.601H47.0524C46.9927 177.601 46.9335 177.612 46.8783 177.635C46.8231 177.658 46.7729 177.692 46.7307 177.734C46.6884 177.776 46.6549 177.826 46.6321 177.881C46.6092 177.937 46.5974 177.996 46.5974 178.056C46.5981 178.176 46.6463 178.291 46.7314 178.376C46.8166 178.462 46.932 178.51 47.0524 178.511H87.0079C86.9707 179.071 86.9751 179.634 87.0209 180.194H55.6909C55.5702 180.194 55.4545 180.242 55.3692 180.327C55.2839 180.413 55.2359 180.528 55.2359 180.649C55.2366 180.769 55.2848 180.885 55.3699 180.97C55.4551 181.055 55.5705 181.103 55.6909 181.104H87.134C87.1899 181.452 87.7658 183.115 87.8139 183.245H44.9646V175.121H87.771C87.4556 175.919 87.2327 176.75 87.1067 177.598L87.1093 177.601ZM88.0193 174.312H44.9646V172.831H88.0193V174.312Z" fill="#2F473F"/>
<path d="M42.44 54.8415C41.2245 56.8032 42.05 58.956 41.3337 58.2384C39.06 54.8298 34.5828 54.432 32.5912 57.8575C31.908 59.1231 31.6504 60.575 31.8567 61.9983C32.063 63.4216 32.7221 64.7407 33.7365 65.7602C36.4119 68.7749 41.933 70.9069 45.1895 71.3723C45.2724 71.3945 45.36 71.3918 45.4414 71.3646C45.5228 71.3373 45.5944 71.2866 45.6471 71.2189C45.8356 71.0304 46.6286 69.9189 46.7924 69.6914C49.2429 66.21 51.7623 60.8306 50.8393 56.6732C49.6017 52.6094 44.312 51.8203 42.44 54.8415Z" fill="#FF5470"/>
<path d="M50.6209 54.9247C48.0209 50.9896 41.5508 51.6461 41.1569 57.0775C37.4805 52.9903 31.5369 54.9845 31.1742 60.555C30.7647 66.9185 38.3853 70.7288 45.0361 72.0587C45.6094 72.1757 45.9357 71.8247 46.2724 71.3931C48.1031 69.1108 49.5519 66.5469 50.5624 63.8011C51.527 61.1296 52.1224 57.1997 50.6209 54.9247ZM45.4534 71.1747C45.3117 71.3619 45.1596 71.2163 44.4693 71.1032C25.0993 66.5974 32.2493 52.6146 38.8702 56.3443C39.7493 56.8544 40.5097 57.5457 41.101 58.3723C41.1504 58.8754 42.0188 58.5595 41.7939 58.1344C41.7302 55.7203 42.8001 53.6533 45.2207 53.3166C45.9314 53.2254 46.6533 53.2895 47.3368 53.5045C48.0202 53.7195 48.6488 54.0803 49.1792 54.562C53.0246 58.1305 49.1701 65.9942 46.5948 69.6537C46.3179 70.0489 45.7524 70.7899 45.4534 71.1773V71.1747Z" fill="#2F473F"/>
<path d="M25.2228 155.399C22.0833 153.17 25.0577 149.666 23.6186 145.397C20.5311 136.235 5.11702 137.681 9.37972 146.697C11.041 150.616 13.832 153.952 17.3968 156.279C19.1244 157.358 20.9531 158.266 22.8568 158.99C23.7486 159.407 24.7468 159.54 25.7168 159.372C26.4448 159.191 27.2053 158.684 27.2053 157.882C27.2079 156.697 26.0262 155.969 25.2228 155.399Z" fill="#E2FD86"/>
<path d="M25.7428 155.079C22.9075 153.378 25.2878 150.294 24.4597 146.311C24.1778 144.99 23.6229 143.742 22.8306 142.648C22.0384 141.554 21.0262 140.638 19.859 139.958C17.729 138.866 15.3099 138.47 12.943 138.827C11.7601 138.897 10.6342 139.359 9.74242 140.14C9.00894 140.775 8.47646 141.611 8.21005 142.544C7.94364 143.478 7.95482 144.468 8.24222 145.396C9.31946 148.454 11.0451 151.244 13.3011 153.574C15.557 155.904 18.2898 157.718 21.3124 158.894C22.4369 159.485 23.6654 159.857 24.929 159.987C27.8397 159.987 29.1033 157.094 25.7428 155.079ZM25.6765 159.102C24.2031 159.225 22.7281 158.883 21.4593 158.124C14.3782 154.97 12.1539 151.642 9.13402 145.614C8.88951 145.05 8.76837 144.439 8.77873 143.824C8.78909 143.209 8.9307 142.603 9.19409 142.047C9.45747 141.491 9.83656 140.998 10.306 140.601C10.7754 140.203 11.3243 139.91 11.916 139.742C14.0507 139.246 16.2811 139.35 18.3601 140.044C20.0352 140.698 21.464 141.859 22.447 143.365C23.4301 144.871 23.9183 146.646 23.8435 148.443C23.7668 150.429 23.2767 152.048 23.6589 153.538C24.214 155.698 27.0129 156.021 27.0129 157.727C27.0129 158.73 25.9924 159.033 25.6765 159.102Z" fill="#2F473F"/>
<path d="M58.3975 0.70692L54.1608 4.44832L64.8117 13.2285L58.3975 0.70692Z" fill="#E2FD86"/>
<path d="M59.3907 18.955L45.9903 14.6416L45.6471 20.3291L59.3907 18.955Z" fill="#E2FD86"/>
<path d="M52.1757 31.4012C52.5319 31.7561 52.333 31.5416 54.9239 34.7604L61.9868 26.8954L52.1757 31.4012Z" fill="#E2FD86"/>
<path d="M76.799 25.1391C75.161 26.7784 73.7453 25.8151 73.7453 23.4985C73.7561 21.8239 74.3196 20.1998 75.3482 18.8783C76.6573 17.2611 78.2082 17.4938 78.5553 19.5673C78.8907 17.4444 78.9323 14.0163 77.5634 12.3887C75.538 9.98372 72.5844 12.3601 70.8437 15.0225C67.3038 20.4383 66.659 29.0183 70.0806 30.4847C72.5051 31.6976 75.5302 27.5597 76.799 25.1391Z" fill="#E2FD86"/>
<path d="M86.5347 30.2559C91.2147 30.1714 92.8722 24.3396 90.5049 21.971C89.9433 21.2222 89.8796 21.2846 78.3642 12.9607C80.5742 17.5497 77.5933 27.7807 72.8288 30.408C76.422 30.3846 79.698 30.3768 86.5347 30.2559Z" fill="#E2FD86"/>
<path d="M58.7901 0.177822C58.7586 0.13018 58.7172 0.0899044 58.6687 0.059753C58.6202 0.0296015 58.5657 0.0102849 58.5091 0.00312496C58.4524 -0.00403501 58.3949 0.00113221 58.3404 0.0182701C58.2859 0.0354079 58.2358 0.0641123 58.1934 0.102421C53.3197 4.37162 53.4497 4.17532 53.4497 4.42882C53.4497 4.70572 53.3626 4.53412 65.1406 14.2516C65.2179 14.3163 65.3177 14.3476 65.4181 14.3388C65.5185 14.3301 65.6113 14.2819 65.6762 14.2048C65.9349 13.9474 65.9167 14.0839 58.7901 0.177822ZM58.339 1.01892L64.2124 12.4797L54.4624 4.44442L58.339 1.01892Z" fill="#2F473F"/>
<path d="M60.653 19.1656C60.8883 18.7834 60.3423 18.7028 58.1739 18.0125C45.5717 14.0046 45.8239 13.8876 45.5431 14.0891C45.3247 14.2477 45.4066 13.8577 45.0322 20.5592C45.0359 20.6631 45.0802 20.7614 45.1555 20.8331C45.2309 20.9048 45.3313 20.9441 45.4352 20.9427C60.2435 19.4867 60.6231 19.5101 60.653 19.1656ZM58.4105 18.8926L45.8551 20.151L46.1697 14.9042L58.4105 18.8913V18.8926Z" fill="#2F473F"/>
<path d="M62.4626 26.0413C61.6982 26.3429 59.3504 27.4557 51.6479 30.9709C51.6006 31.0019 51.5605 31.0427 51.5303 31.0905C51.5001 31.1383 51.4804 31.192 51.4726 31.2481C51.4649 31.3041 51.4692 31.3611 51.4853 31.4153C51.5014 31.4696 51.5289 31.5197 51.566 31.5624C54.8901 35.6327 54.6509 35.4312 54.9018 35.4312C55.1527 35.4312 54.7029 35.8433 60.7089 29.1444C62.9189 26.6744 63.0853 26.4963 63.0632 26.3585C63.0905 26.1115 62.9293 25.858 62.4626 26.0413ZM61.2497 27.4297L54.933 34.4601L52.5215 31.4376L61.2497 27.4297Z" fill="#2F473F"/>
<path d="M94.7039 23.5167C94.2805 23.0568 93.7546 22.7033 93.1689 22.4849C92.5832 22.2664 91.9542 22.1893 91.333 22.2596C90.9389 21.6242 90.426 21.0707 89.8224 20.6294C87.524 18.9563 78.3174 12.3653 77.9859 12.0364C77.6755 11.6703 77.2824 11.3833 76.8391 11.1991C76.3959 11.0148 75.9151 10.9387 75.4366 10.9769C70.1482 11.2681 64.9846 24.6022 68.4972 29.9348C68.9004 30.4424 69.4415 30.8228 70.0556 31.0303C70.6697 31.2379 71.3307 31.2637 71.9591 31.1048L83.5707 30.9566C81.3191 35.01 79.7201 37.8596 78.5969 39.8642C76.0697 44.3687 75.9709 44.5442 76.0749 44.8042C76.1438 44.9758 76.1685 44.9342 78.0782 45.5647C82.2382 46.9271 82.2577 46.9336 82.402 46.6047C82.7036 45.9677 89.4948 31.6872 90.3411 29.8633C91.1716 30.1826 92.0854 30.2128 92.9351 29.9493C93.7849 29.6857 94.5212 29.1436 95.0252 28.4104C95.5292 27.6772 95.7716 26.7956 95.7133 25.9078C95.655 25.02 95.2995 24.1777 94.7039 23.5167ZM76.2439 11.6061C78.5176 12.117 78.8218 16.043 78.5631 18.5546C77.1838 15.6153 73.6322 19.3437 73.6322 23.4218C73.6322 25.8671 75.0193 26.5249 76.2725 25.7917C72.3309 32.7558 68.6415 30.9644 68.2125 26.0283C67.3922 20.2966 72.0124 10.6844 76.2374 11.6061H76.2439ZM86.5789 30.0661L73.64 30.2468C77.7831 27.3088 80.6405 18.3167 78.9401 13.5769C89.2634 21.0974 89.7093 21.23 90.3957 22.0971C90.9452 22.8252 91.2838 23.6905 91.3744 24.5982C91.465 25.5059 91.3041 26.421 90.9093 27.2433C90.5145 28.0657 89.901 28.7635 89.1361 29.2605C88.3712 29.7575 87.4842 30.0344 86.5724 30.0609L86.5789 30.0661Z" fill="#2F473F"/>
<path d="M73.7024 43.5406C75.564 46.6424 80.8823 50.7322 86.6452 52.0166C88.8474 52.521 91.112 52.6874 93.3636 52.5119C95.4566 51.975 95.8518 50.5801 95.0432 49.6519C94.2689 49.0202 93.3517 48.5877 92.3717 48.3922C89.4207 47.2222 90.4737 43.3612 88.6303 40.184C86.3748 36.2983 81.5869 34.6616 76.6807 36.7858C76.1217 36.9977 75.5835 37.2668 75.0778 37.5879C74.1732 38.2509 73.5367 39.2167 73.2842 40.3095C73.0318 41.4022 73.1802 42.5493 73.7024 43.5419V43.5406Z" fill="#E2FD86"/>
<path d="M94.3724 48.5196C94.0231 48.3581 93.6604 48.2276 93.2882 48.1296C91.3746 47.5732 91.0184 47.0038 90.4399 44.1113C90.2502 42.9726 89.9355 41.8582 89.5013 40.7885C88.9617 39.627 88.1933 38.5863 87.2422 37.7286C86.2911 36.8708 85.1768 36.2137 83.9659 35.7965C81.2862 35.0045 78.4051 35.2668 75.9124 36.5297C74.7912 36.9817 73.8482 37.7873 73.2266 38.8242C72.7793 39.5825 72.5421 40.4463 72.5396 41.3267C72.5371 42.2071 72.7693 43.0723 73.2123 43.8331C74.9389 46.0587 77.0161 47.9884 79.3626 49.5466C82.6396 51.6482 86.4037 52.868 90.2904 53.0878C91.996 53.2438 93.686 53.418 95.0497 52.3208C96.4134 51.2236 96.3458 49.5076 94.3724 48.5196ZM75.2299 37.7842C76.279 37.1784 77.4009 36.713 78.5709 36.3984C80.4274 35.873 82.405 35.972 84.1997 36.6801C85.9944 37.3883 87.5068 38.6664 88.5042 40.3179C89.8809 42.6696 89.6586 45.5595 90.6817 47.2313C91.8959 49.2138 93.7367 48.4832 94.9405 49.8183C95.6399 50.5918 95.3032 51.9139 93.3623 52.3598C92.6123 52.4935 91.8469 52.518 91.0899 52.4326C84.1895 51.9945 78.463 49.3932 74.2653 43.8994C73.9225 43.4363 73.6753 42.9095 73.5382 42.3499C73.401 41.7902 73.3766 41.2089 73.4664 40.6397C73.5561 40.0705 73.7583 39.5249 74.0611 39.0347C74.3639 38.5444 74.7612 38.1194 75.2299 37.7842Z" fill="#2F473F"/>
</svg>
