<svg width="250" height="242" viewBox="0 0 250 242" fill="none" xmlns="http://www.w3.org/2000/svg">
<path d="M28.2151 31.6598C33.2401 23.075 39.7486 20.5007 46.7749 20.5007L20.1494 12.2892C19.2749 12.0221 18.3503 11.9629 17.4489 12.1162C16.5476 12.2695 15.6945 12.6311 14.9575 13.1722C4.9969 19.1775 0.0415692 31.6387 0.741965 43.2971C0.803202 44.1588 1.06073 44.995 1.49484 45.7418C1.92895 46.4886 2.52814 47.1263 3.24657 47.6059C5.71044 49.3037 29.541 65.0974 31.0876 66.0554C23.3925 58.9003 21.0784 43.849 28.2151 31.6598Z" fill="#E2FD86"/>
<path d="M63.0523 41.3812C62.5674 32.8267 58.5844 24.531 49.4727 21.3417C55.4333 24.4272 62.3584 36.5455 58.1232 50.8911C54.4438 63.3445 44.6843 69.9358 36.8604 69.2091C51.658 74.1408 63.9629 57.4023 63.0523 41.3812Z" fill="#E2FD86"/>
<path d="M55.6361 23.7439C53.9297 22.309 51.929 21.2665 49.7754 20.69L20.3837 11.6032C19.4666 11.3234 18.4988 11.2509 17.5502 11.3909C16.6016 11.5308 15.696 11.8799 14.8988 12.4127C4.7963 18.4705 -0.557192 30.711 0.0459634 42.7583C0.207593 46.6204 2.23125 47.8385 5.47304 49.945C28.5585 64.9371 33.6295 68.3931 34.9738 69.1303C37.2359 70.2193 39.7171 70.7771 42.2277 70.7609C44.7383 70.7447 47.212 70.1551 49.46 69.037C65.506 61.3024 68.8096 34.393 55.6361 23.7439ZM3.43493 47.2616C2.76212 46.8054 2.20031 46.204 1.79093 45.5016C1.38155 44.7993 1.13506 44.0141 1.06962 43.2038C0.399447 31.6085 5.14321 19.5099 15.1301 13.3812C18.0789 11.6111 19.4665 12.2734 23.004 13.4495C23.004 13.4495 39.1157 18.4101 39.4008 18.4955C22.8804 21.5467 14.6965 42.7728 22.2681 59.9345C16.1498 55.9134 4.32981 47.8766 3.43493 47.2616ZM29.3062 64.4851C28.6295 64.0646 24.8384 61.6191 23.8962 61.0041C17.0171 47.9949 20.5007 30.2012 32.0053 22.5796C34.9007 20.6876 38.2108 19.524 41.6531 19.188C42.6032 19.4823 44.506 20.0816 44.506 20.0816C41.7596 20.2484 39.0894 21.0513 36.7057 22.4258C23.3075 30.1394 19.1078 52.2774 29.3062 64.4851ZM55.6427 63.0948C50.9593 67.6651 45.6387 70.6349 39.2169 69.4023C49.5835 68.6349 57.7136 57.7071 59.3142 48.4877C60.6926 40.5455 58.983 28.556 51.2984 22.4508C64.6177 28.1144 66.7071 50.7938 55.6427 63.0948Z" fill="#2F4147"/>
<path d="M63.0988 4.28258C62.8492 3.73338 62.4831 3.24508 62.0259 2.85161C61.5686 2.45813 61.0312 2.16889 60.4509 2.00399C54.3721 -0.455935 37.3326 -0.383662 30.6835 0.789796C29.0475 1.07758 28.4312 1.21687 27.0041 4.34828C23.4929 12.1932 19.4863 29.1972 17.4351 37.4627C16.9207 37.5183 16.4448 37.7617 16.0986 38.1462C15.7524 38.5307 15.5601 39.0294 15.5586 39.5468C15.5661 40.1015 15.7902 40.6312 16.1831 41.0228C16.576 41.4145 17.1064 41.6369 17.6611 41.6427C18.1438 41.6361 18.6095 41.4635 18.98 41.154C19.3505 40.8446 19.6033 40.417 19.6958 39.9432C19.7882 39.4694 19.7148 38.9782 19.4879 38.5521C19.261 38.126 18.8943 37.791 18.4495 37.6033C19.2209 34.3957 26.5179 3.7241 29.4877 2.27863C32.6112 0.755631 56.9411 0.285197 61.3918 3.74907C64.4707 6.25761 60.8333 20.5297 59.8451 24.4048C59.3314 26.4587 58.995 27.4955 58.8228 28.0619C58.6441 28.6493 59.5784 29.1591 59.7072 28.7347C61.0607 24.2064 65.1658 9.02897 63.0988 4.28258Z" fill="#2F4147"/>
<path d="M249.983 213.397C249.209 198.336 221.829 193.694 222.548 181.396C222.978 174.029 234.44 174.169 239.009 170.79C241.2 169.122 242.775 166.775 243.488 164.116C244.202 161.457 244.013 158.637 242.952 156.096C239.929 149.544 230.095 145.609 224.17 142.324C197.141 127.343 151.815 113.245 116.121 92.9017C92.5032 79.4417 84.7765 67.8832 74.101 60.9003C59.7686 51.5245 42.641 46.2892 24.9012 44.7334C24.9012 44.7334 23.0615 58.6533 32.7448 66.5337C32.7448 66.5337 43.6292 72.5784 50.3112 105.387C55.3494 130.124 45.9945 166.667 53.9906 196.752C61.1299 223.605 87.2009 230.169 105.548 227.319C117.549 225.454 130.332 218.514 142.595 220.726C152.171 222.454 161.263 228.761 170.216 232.51C188.612 240.215 212.015 246.177 229.8 237.15C231.271 236.405 250.645 226.287 249.983 213.397Z" fill="#B1E400"/>
<path d="M42.5397 114.958C42.5097 114.87 42.4528 114.793 42.3769 114.739C42.301 114.684 42.21 114.655 42.1166 114.655C42.0232 114.655 41.9322 114.684 41.8563 114.739C41.7804 114.793 41.7234 114.87 41.6934 114.958C39.5725 120.74 30.5318 146.194 37.5318 149.354C45.2992 152.864 50.0916 140.162 42.5397 114.958Z" fill="#B1E400"/>
<path d="M152.615 104.061C155.995 105.732 170.881 112.789 173.238 108.737C175.852 104.243 168.376 100.12 152.652 103.544C152.601 103.563 152.556 103.596 152.523 103.64C152.49 103.684 152.47 103.736 152.467 103.791C152.463 103.845 152.475 103.9 152.501 103.948C152.527 103.996 152.567 104.035 152.615 104.061Z" fill="#B1E400"/>
<path d="M139.651 226.324C139.594 226.319 139.536 226.332 139.487 226.361C139.437 226.389 139.397 226.432 139.372 226.485C139.348 226.537 139.341 226.596 139.352 226.652C139.362 226.709 139.39 226.761 139.43 226.802C142.128 229.446 154.252 240.631 157.696 237.483C161.582 233.931 155.671 227.76 139.651 226.324Z" fill="#B1E400"/>
<path d="M187.341 183.827C187.159 183.613 182.5 177.47 181.744 176.535C180.494 177.535 172.228 183.799 172.096 183.901C172.253 184.085 176.78 190.064 177.694 191.191C179.02 190.131 187.094 184.014 187.341 183.827Z" fill="white"/>
<path d="M197.617 192.664C197.554 192.613 188.395 184.873 187.526 184.123L177.877 191.525L183.328 203.272L199.421 209.711C199.169 206.501 197.637 192.802 197.617 192.664Z" fill="white"/>
<path d="M214.409 207.064C214.476 207.195 214.718 207.508 216.288 209.568C217.131 208.941 217.966 208.303 218.792 207.654C218.165 206.81 217.527 205.975 216.877 205.149C216.084 205.825 215.261 206.464 214.409 207.064Z" fill="white"/>
<path d="M192.867 223.562C192.793 223.598 192.757 223.672 192.683 223.709L190.362 225.478C190.989 226.324 191.615 227.135 192.277 227.981C193.121 227.355 193.956 226.716 194.781 226.066C193.913 224.981 193.002 223.698 192.867 223.562Z" fill="white"/>
<path d="M201.042 209.163C199.785 210.106 199.193 210.573 198.575 211.041L200.453 213.546L202.958 211.63C202.537 211.086 201.424 209.64 201.042 209.163Z" fill="#B1E400"/>
<path d="M219.563 207.409C218.168 205.681 217.504 204.722 217.367 204.585C217.093 204.311 216.806 204.35 216.673 204.485C215.817 205.163 214.936 205.799 214.093 206.464C209.855 205.992 205.578 206.902 201.901 209.06C201.694 208.785 201.558 208.585 201.446 208.455C201.274 208.255 201.162 208.228 200.948 208.358C200.773 208.464 200.53 208.676 200.131 208.985C198.329 192.157 198.463 192.446 198.173 192.165C197.882 191.884 198.173 192.165 188.006 183.587C187.675 183.162 182.199 176.007 182.199 176.007C181.924 175.731 181.638 175.772 181.508 175.904L171.562 183.526C171.48 183.581 171.418 183.661 171.385 183.754C171.352 183.846 171.35 183.947 171.378 184.041C171.396 184.103 171.428 184.161 171.47 184.211C172.823 185.94 172.068 185.056 177.211 191.731C177.614 192.612 182.697 203.558 182.697 203.558C182.726 203.649 182.774 203.732 182.838 203.802C182.903 203.872 182.982 203.927 183.07 203.964L198.639 210.178L197.86 210.774C197.791 210.827 197.746 210.905 197.734 210.991C197.723 211.077 197.745 211.164 197.797 211.233L198.283 211.882C195.171 214.876 193.134 218.813 192.488 223.082C189.671 225.224 189.672 225.195 189.631 225.447C189.62 225.516 189.624 225.587 189.644 225.654C189.664 225.721 189.699 225.782 189.747 225.834C190.442 226.753 191.14 227.667 191.897 228.61C191.938 228.665 191.99 228.711 192.05 228.746C192.109 228.78 192.175 228.801 192.244 228.809C192.312 228.815 192.381 228.807 192.447 228.786C192.512 228.765 192.573 228.731 192.625 228.685C193.535 227.993 194.445 227.301 195.384 226.549C195.659 226.274 195.62 225.987 195.487 225.859C195.487 225.859 193.944 223.849 193.516 223.249C194.12 219.231 196.029 215.524 198.949 212.698C200.277 214.424 200.229 214.426 200.42 214.453C200.61 214.479 200.411 214.584 203.719 212.029C203.788 211.977 203.833 211.899 203.844 211.813C203.856 211.728 203.833 211.641 203.781 211.572L202.563 209.965C206.007 207.977 209.99 207.124 213.945 207.529C214.618 208.413 215.291 209.299 215.989 210.175C216.263 210.451 216.549 210.41 216.677 210.278C217.597 209.576 218.517 208.876 219.474 208.112C219.527 208.073 219.572 208.024 219.606 207.966C219.639 207.909 219.66 207.846 219.668 207.78C219.677 207.714 219.672 207.647 219.654 207.583C219.636 207.52 219.605 207.46 219.563 207.409ZM194.333 225.948C193.688 226.488 193.012 226.999 192.35 227.485C191.852 226.817 191.351 226.171 190.831 225.5L192.821 223.977C193.303 224.588 193.796 225.267 194.328 225.948H194.333ZM177.796 190.731L172.604 183.96C172.604 183.96 181.629 177.075 181.727 176.995L186.918 183.767L177.796 190.731ZM191.835 198.878C192.32 198.343 192.587 197.646 192.584 196.924C192.581 196.203 192.308 195.508 191.818 194.977C191.329 194.446 190.659 194.118 189.939 194.056C189.22 193.995 188.504 194.205 187.931 194.645C187.359 195.084 186.972 195.723 186.846 196.434C186.72 197.144 186.865 197.877 187.252 198.486C187.639 199.096 188.24 199.538 188.937 199.727C189.634 199.916 190.376 199.837 191.018 199.506C191.42 200.032 197.386 207.831 198.132 208.79C198.132 208.79 183.677 203.049 183.614 203.022C183.32 202.399 178.358 191.769 178.296 191.627L187.521 184.551C188.01 184.97 197.142 192.698 197.313 192.84L198.987 208.233L191.835 198.878ZM191.549 196.979C191.54 197.465 191.345 197.928 191.002 198.272C190.658 198.615 190.195 198.811 189.709 198.819C189.222 198.816 188.755 198.622 188.411 198.277C188.067 197.933 187.872 197.466 187.869 196.979C187.869 196.49 188.063 196.021 188.409 195.675C188.755 195.329 189.224 195.135 189.713 195.135C190.203 195.135 190.672 195.329 191.018 195.675C191.363 196.021 191.558 196.49 191.558 196.979H191.549ZM200.517 213.089L199.01 211.141C199.449 210.809 200.957 209.627 200.957 209.627L202.466 211.577L200.517 213.089ZM216.417 209.115C215.892 208.458 215.394 207.801 214.896 207.152C215.566 206.648 216.231 206.139 216.892 205.622C217.387 206.279 217.884 206.936 218.401 207.593C217.733 208.089 217.082 208.588 216.415 209.11L216.417 209.115Z" fill="#2F4147"/>
<path d="M220.565 116.471L183.922 107.228L164.51 153.96L203.361 164.455L220.565 116.471Z" fill="#E2FD86"/>
<path d="M221.006 115.783L183.941 106.496C183.82 106.468 183.693 106.483 183.581 106.538C183.469 106.593 183.38 106.685 183.328 106.798L163.722 153.931C163.699 153.999 163.691 154.07 163.697 154.141C163.704 154.213 163.725 154.282 163.759 154.345C163.793 154.408 163.839 154.464 163.894 154.509C163.95 154.553 164.014 154.586 164.083 154.606C164.215 154.646 203.095 165.25 203.392 165.262C203.523 165.285 203.658 165.259 203.771 165.189C203.884 165.119 203.968 165.011 204.007 164.883L221.346 116.552C221.384 116.481 221.406 116.402 221.408 116.321C221.411 116.24 221.395 116.159 221.362 116.086C221.329 116.012 221.28 115.946 221.219 115.894C221.157 115.841 221.084 115.804 221.006 115.783ZM203.066 164.173L164.887 153.862C164.936 153.749 183.998 107.95 184.094 107.693C222.847 117.439 220.121 116.673 220.04 116.9L203.066 164.173Z" fill="#2F4147"/>
<path d="M214.021 121.171C213.913 120.739 214.093 120.891 186.28 113.896C186.19 113.881 186.099 113.888 186.013 113.917C185.927 113.947 185.85 113.997 185.789 114.065C185.728 114.132 185.685 114.213 185.663 114.301C185.642 114.39 185.644 114.482 185.667 114.569C185.777 115.003 185.47 115.489 213.41 121.843C213.499 121.858 213.591 121.851 213.677 121.822C213.763 121.793 213.84 121.743 213.901 121.676C213.962 121.608 214.005 121.527 214.025 121.439C214.046 121.35 214.045 121.259 214.021 121.171Z" fill="#2F4147"/>
<path d="M210.447 128.087L183.073 121.188C182.973 121.174 182.871 121.189 182.779 121.23C182.686 121.272 182.608 121.339 182.552 121.423C182.496 121.507 182.465 121.606 182.462 121.707C182.46 121.808 182.486 121.908 182.537 121.995C182.605 122.112 182.714 122.199 182.843 122.239L210.307 129.144C210.434 129.138 210.555 129.088 210.649 129.002C210.742 128.916 210.803 128.799 210.819 128.673C210.835 128.547 210.806 128.42 210.739 128.313C210.671 128.206 210.567 128.126 210.447 128.087Z" fill="#2F4147"/>
<path d="M182.852 129.532L199.815 133.454C199.947 133.453 200.073 133.404 200.171 133.316C200.268 133.228 200.331 133.108 200.346 132.978C200.361 132.848 200.329 132.716 200.254 132.608C200.179 132.5 200.068 132.423 199.94 132.392L183.124 128.493C183.024 128.474 182.921 128.483 182.826 128.521C182.731 128.558 182.649 128.621 182.589 128.704C182.529 128.786 182.494 128.884 182.487 128.985C182.481 129.087 182.504 129.188 182.553 129.278C182.617 129.397 182.723 129.488 182.852 129.532Z" fill="#2F4147"/>
<path d="M201.977 156L174.665 149.108C174.525 149.071 174.377 149.09 174.251 149.161C174.126 149.232 174.033 149.35 173.994 149.489C173.957 149.629 173.976 149.777 174.047 149.903C174.119 150.028 174.237 150.12 174.376 150.159L201.839 157.063C201.971 157.064 202.099 157.017 202.198 156.93C202.297 156.844 202.361 156.724 202.378 156.593C202.395 156.462 202.364 156.33 202.29 156.221C202.216 156.112 202.105 156.033 201.977 156Z" fill="#2F4147"/>
<path d="M141.677 102.257C141.666 101.887 141.677 102.207 141.677 72.1645C141.208 72.1894 141.677 72.1645 132.507 72.1645V94.924H94.941V72.2052H85.7754V102.33C86.5415 102.201 85.7793 102.257 141.677 102.257Z" fill="white"/>
<path d="M109.86 74.7466L118.441 84.3209L127.206 76.5876L132.14 81.1908V57.6585H95.3135V86.4943L109.86 74.7466Z" fill="#E2FD86"/>
<path d="M145.508 109.768C145.452 109.648 145.363 109.547 145.253 109.475C145.142 109.403 145.013 109.364 144.881 109.363H82.9831C82.8562 109.367 82.7323 109.403 82.6228 109.467C82.5133 109.531 82.4217 109.622 82.3563 109.731C75.4798 122.988 75.4772 122.67 75.7282 123.174C75.7848 123.279 75.8702 123.366 75.9745 123.425C76.0787 123.483 76.1974 123.511 76.3169 123.505H151.038C151.555 123.505 151.852 123.125 151.531 122.454C151.071 121.494 149.606 118.769 145.508 109.769V109.768Z" fill="white"/>
<path d="M142.084 68.0068H132.545V71.6861H141.935C141.993 71.6895 142.047 71.7139 142.088 71.7545C142.129 71.7952 142.153 71.8494 142.157 71.9069C142.157 95.3156 142.113 100.864 142.093 102.176C142.093 102.571 142.082 102.586 141.724 102.59C140.147 102.609 131.605 102.657 85.4817 102.657C85.4499 102.655 85.4189 102.646 85.3906 102.631C85.3622 102.616 85.3371 102.596 85.3165 102.572C85.296 102.547 85.2805 102.519 85.271 102.489C85.2614 102.458 85.258 102.426 85.2609 102.394C85.2543 101.971 85.2609 102.394 85.2609 71.9016C85.2646 71.8443 85.2891 71.7903 85.3297 71.7497C85.3703 71.709 85.4243 71.6846 85.4817 71.6809H94.9101V68.0015H85.37C84.5895 68.0043 83.8417 68.3156 83.2898 68.8675C82.7379 69.4194 82.4266 70.1671 82.4238 70.9476V103.394C82.4259 104.175 82.737 104.923 83.289 105.475C83.8411 106.027 84.5892 106.339 85.37 106.341H142.084C142.864 106.339 143.612 106.027 144.165 105.475C144.717 104.923 145.028 104.175 145.03 103.394V70.9529C145.027 70.1724 144.716 69.4246 144.164 68.8727C143.612 68.3208 142.864 68.0095 142.084 68.0068Z" fill="#B1E400"/>
<path d="M132.14 81.6704L127.206 77.0672L118.367 84.7637L109.823 75.2617L95.3135 86.9358V94.4851H132.14V81.6704Z" fill="#B1E400"/>
<path d="M119.655 67.6388C119.722 68.2421 119.915 68.8245 120.222 69.3483C120.528 69.8722 120.941 70.3259 121.434 70.68C121.927 71.0341 122.489 71.2808 123.084 71.4041C123.678 71.5274 124.292 71.5245 124.885 71.3957C125.683 71.2084 126.411 70.7951 126.982 70.2052C127.552 69.6153 127.94 68.8737 128.1 68.0691C128.26 67.2644 128.185 66.4307 127.884 65.6674C127.583 64.9042 127.069 64.2437 126.403 63.765C125.737 63.2862 124.947 63.0094 124.127 62.9675C123.308 62.9256 122.494 63.1205 121.782 63.5289C121.07 63.9372 120.491 64.5418 120.114 65.2704C119.737 65.9989 119.577 66.8207 119.655 67.6375V67.6388Z" fill="#B1E400"/>
<path d="M152.392 124.511C152.439 122.631 152.496 122.605 152.321 122.257L146.133 109.475C146.017 109.242 145.839 109.047 145.618 108.911C145.397 108.774 145.142 108.702 144.882 108.703H82.9832C82.7244 108.703 82.4705 108.774 82.2498 108.909C82.0291 109.045 81.8504 109.238 81.7335 109.469C74.9004 122.889 74.9556 122.347 74.9582 122.937L75.0633 124.483C74.985 124.696 74.9595 124.925 74.9889 125.15C75.0183 125.375 75.1018 125.589 75.2322 125.775C75.3627 125.961 75.5362 126.113 75.7379 126.217C75.9396 126.321 76.1635 126.375 76.3905 126.373H151.104C151.327 126.375 151.548 126.323 151.746 126.219C151.944 126.116 152.113 125.966 152.24 125.782C152.367 125.599 152.448 125.387 152.475 125.166C152.501 124.944 152.473 124.72 152.392 124.511ZM82.6442 109.878C82.7926 109.581 82.652 109.691 144.882 109.691C144.953 109.692 145.021 109.713 145.08 109.753C145.139 109.792 145.185 109.847 145.212 109.912L151.388 122.651C151.508 123.013 151.322 123.213 151.074 123.213H76.384C76.3257 123.215 76.2679 123.202 76.2161 123.176C76.1644 123.149 76.1203 123.109 76.0883 123.061C76.0564 123.012 76.0378 122.956 76.0344 122.898C76.0309 122.84 76.0427 122.782 76.0686 122.73L82.6442 109.878Z" fill="#2F4147"/>
<path d="M142.083 67.3471H132.873V57.2906C132.873 57.2034 132.839 57.1199 132.777 57.0583C132.715 56.9967 132.632 56.9621 132.545 56.9621H94.9415C94.8982 56.9617 94.8553 56.97 94.8153 56.9864C94.7753 57.0027 94.739 57.0269 94.7084 57.0575C94.6778 57.0881 94.6536 57.1244 94.6372 57.1644C94.6209 57.2045 94.6126 57.2473 94.6129 57.2906V67.3471H85.4066C84.441 67.3485 83.5153 67.7327 82.8325 68.4155C82.1496 69.0983 81.7654 70.024 81.764 70.9897V103.427C81.7572 103.905 81.8455 104.379 82.0238 104.821C82.2021 105.264 82.4668 105.667 82.8025 106.007C83.1381 106.346 83.538 106.615 83.9788 106.798C84.4196 106.982 84.8925 107.075 85.3698 107.074H142.083C143.049 107.074 143.976 106.69 144.659 106.007C145.342 105.324 145.726 104.397 145.726 103.431V70.9897C145.725 70.0238 145.341 69.0977 144.658 68.4148C143.975 67.7318 143.049 67.3478 142.083 67.3471ZM85.3698 68.3721H94.5801V71.3944H85.4802C85.3356 71.3981 85.1978 71.4571 85.0954 71.5593C84.9929 71.6615 84.9336 71.7991 84.9296 71.9437C84.9296 71.9437 84.906 101.607 84.9296 102.472C84.9333 102.617 84.9925 102.755 85.0949 102.857C85.1974 102.96 85.3353 103.019 85.4802 103.023C142.313 103.023 142.041 103.122 142.313 102.852C142.367 102.803 142.409 102.745 142.439 102.679C142.468 102.613 142.484 102.543 142.484 102.471C142.484 102.471 142.508 72.8083 142.484 71.9437C142.48 71.7991 142.421 71.6615 142.319 71.5593C142.216 71.4571 142.078 71.3981 141.934 71.3944H132.835V68.3721H142.044C142.738 68.3745 143.402 68.651 143.893 69.1413C144.383 69.6317 144.66 70.2961 144.663 70.9897V103.434C144.662 104.128 144.385 104.793 143.894 105.284C143.403 105.774 142.738 106.05 142.044 106.052H85.333C84.6398 106.05 83.9756 105.773 83.4859 105.283C82.9962 104.792 82.721 104.127 82.7207 103.434L82.7562 70.9897C82.7589 70.297 83.035 69.6334 83.5245 69.1432C84.0139 68.653 84.6771 68.3759 85.3698 68.3721ZM132.836 94.8531V72.422C132.836 72.422 141.01 72.4444 141.349 72.4352C141.349 75.5994 141.333 99.7782 141.378 101.927C141.378 101.927 86.1872 101.912 86.0663 101.914V72.4614H94.5801V94.8531C94.5801 94.9402 94.6147 95.0238 94.6763 95.0854C94.7379 95.147 94.8215 95.1816 94.9086 95.1816H132.508C132.595 95.1812 132.678 95.1465 132.74 95.085C132.801 95.0235 132.836 94.9401 132.836 94.8531ZM118.208 85.0686C118.271 85.1288 118.354 85.1624 118.441 85.1624C118.528 85.1624 118.611 85.1288 118.673 85.0686L127.233 77.4759L131.811 81.8478V94.196H95.6419V87.1303L109.79 75.7137L118.208 85.0686ZM126.988 76.3419L118.463 83.8583L110.099 74.5285C110.044 74.4677 109.969 74.4296 109.887 74.4216C109.806 74.4136 109.725 74.4362 109.659 74.4851L95.6419 85.7716V57.9502H131.848V80.3984L127.609 76.4562C127.399 76.3248 127.204 76.1487 126.988 76.3419Z" fill="#2F4147"/>
<path d="M124.377 62.3326C123.63 62.2485 122.875 62.3378 122.169 62.5938C121.463 62.8498 120.825 63.2654 120.306 63.8083C119.787 64.3512 119.401 65.0066 119.177 65.7235C118.953 66.4404 118.898 67.1993 119.015 67.9411C119.084 68.6163 119.298 69.2688 119.641 69.8545C119.984 70.4402 120.449 70.9454 121.004 71.336C121.559 71.7265 122.191 71.9933 122.859 72.1184C123.526 72.2434 124.212 72.2237 124.871 72.0606C125.748 71.9028 126.566 71.509 127.237 70.9216C127.908 70.3341 128.406 69.5752 128.678 68.7261C128.951 67.8771 128.987 66.9699 128.783 66.1019C128.579 65.2339 128.142 64.4379 127.52 63.7991C126.686 62.9439 125.568 62.4225 124.377 62.3326ZM124.813 71.0764C124.085 71.2503 123.322 71.2137 122.614 70.971C121.906 70.7282 121.281 70.2893 120.813 69.7053C120.344 69.1213 120.051 68.4162 119.968 67.6722C119.885 66.9282 120.015 66.1758 120.343 65.5028C120.671 64.8297 121.183 64.2637 121.82 63.8705C122.457 63.4773 123.193 63.2732 123.941 63.282C124.69 63.2907 125.421 63.5119 126.048 63.9199C126.676 64.3278 127.175 64.9057 127.487 65.5862C127.73 66.1175 127.852 66.696 127.845 67.2802C127.838 67.8643 127.701 68.4396 127.445 68.9646C127.189 69.4897 126.819 69.9514 126.363 70.3165C125.907 70.6817 125.376 70.9412 124.808 71.0764H124.813Z" fill="#2F4147"/>
<path d="M124.664 110.946H106.399C106.248 110.946 106.104 111.006 105.997 111.113C105.891 111.219 105.831 111.364 105.831 111.514C105.831 111.665 105.891 111.809 105.997 111.915C106.104 112.022 106.248 112.082 106.399 112.082H124.664C124.815 112.082 124.959 112.022 125.066 111.915C125.172 111.809 125.232 111.665 125.232 111.514C125.232 111.364 125.172 111.219 125.066 111.113C124.959 111.006 124.815 110.946 124.664 110.946Z" fill="#2F4147"/>
<path d="M125.262 120.288C123.913 116.958 124.103 116.214 123.412 116.214H104.741C104.643 116.213 104.547 116.239 104.463 116.29C104.379 116.34 104.311 116.413 104.266 116.5C103.935 117.125 102.609 119.593 102.257 120.268C102.222 120.354 102.208 120.447 102.218 120.54C102.228 120.632 102.261 120.72 102.314 120.796C102.367 120.872 102.438 120.934 102.521 120.975C102.604 121.017 102.697 121.037 102.789 121.033H124.734C124.823 121.033 124.911 121.011 124.99 120.97C125.069 120.928 125.138 120.869 125.189 120.796C125.241 120.723 125.274 120.639 125.287 120.551C125.3 120.463 125.291 120.372 125.262 120.288ZM123.028 117.389L123.913 120.009C109.404 120.009 104.174 120.029 103.676 119.974C103.881 119.596 104.789 117.865 105.051 117.389H123.028Z" fill="#2F4147"/>
<path d="M102.752 110.984H84.4863C84.3454 110.991 84.2126 111.052 84.1154 111.154C84.0181 111.256 83.9639 111.392 83.9639 111.533C83.9639 111.674 84.0181 111.81 84.1154 111.912C84.2126 112.014 84.3454 112.075 84.4863 112.082H102.752C102.826 112.085 102.9 112.074 102.97 112.048C103.04 112.022 103.104 111.982 103.157 111.931C103.211 111.88 103.254 111.818 103.283 111.75C103.313 111.681 103.328 111.608 103.328 111.533C103.328 111.459 103.313 111.385 103.283 111.317C103.254 111.248 103.211 111.187 103.157 111.135C103.104 111.084 103.04 111.044 102.97 111.018C102.9 110.992 102.826 110.981 102.752 110.984Z" fill="#2F4147"/>
<path d="M101.426 113.488H83.1606C83.0885 113.488 83.0171 113.502 82.9504 113.53C82.8838 113.557 82.8232 113.598 82.7722 113.649C82.7212 113.7 82.6807 113.76 82.6531 113.827C82.6255 113.894 82.6113 113.965 82.6113 114.037C82.6113 114.109 82.6255 114.181 82.6531 114.247C82.6807 114.314 82.7212 114.374 82.7722 114.425C82.8232 114.476 82.8838 114.517 82.9504 114.545C83.0171 114.572 83.0885 114.586 83.1606 114.586H101.458C101.597 114.574 101.726 114.508 101.819 114.403C101.912 114.298 101.962 114.162 101.958 114.022C101.954 113.882 101.896 113.749 101.798 113.65C101.699 113.551 101.566 113.493 101.426 113.488Z" fill="#2F4147"/>
<path d="M123.338 113.525H105.112C104.369 113.431 104.311 114.622 105.073 114.622H123.338C123.474 114.607 123.599 114.543 123.689 114.442C123.78 114.34 123.83 114.209 123.83 114.073C123.83 113.937 123.78 113.806 123.689 113.705C123.599 113.604 123.474 113.539 123.338 113.525Z" fill="#2F4147"/>
<path d="M143.666 113.488H125.401C125.329 113.488 125.257 113.502 125.191 113.53C125.124 113.557 125.063 113.598 125.012 113.649C124.961 113.7 124.921 113.76 124.893 113.827C124.866 113.894 124.852 113.965 124.852 114.037C124.852 114.109 124.866 114.181 124.893 114.247C124.921 114.314 124.961 114.374 125.012 114.425C125.063 114.476 125.124 114.517 125.191 114.545C125.257 114.572 125.329 114.586 125.401 114.586H143.698C143.838 114.574 143.967 114.509 144.06 114.403C144.153 114.298 144.202 114.162 144.197 114.021C144.193 113.882 144.136 113.749 144.037 113.65C143.939 113.551 143.806 113.493 143.666 113.488Z" fill="#2F4147"/>
<path d="M93.913 166.338C89.637 163.314 84.3939 161.979 79.1926 162.589C73.9913 163.199 69.1992 165.711 65.7386 169.641C62.278 173.572 60.3934 178.644 60.4474 183.88C60.5014 189.117 62.4902 194.149 66.0312 198.007C66.0679 198.081 66.1047 198.117 66.0679 198.191C66.0679 198.191 64.5962 205.777 64.4477 206.588L70.93 202.058C72.0233 202.725 73.1994 203.245 74.428 203.605C79.2585 205.366 84.5643 205.313 89.3584 203.455C94.1525 201.597 98.1086 198.061 100.491 193.505C102.873 188.948 103.519 183.682 102.309 178.685C101.099 173.688 98.1156 169.3 93.913 166.338Z" fill="#E2FD86"/>
<path d="M102.883 177.77C101.994 174.582 100.396 171.635 98.2079 169.151C96.0203 166.666 93.2998 164.707 90.2494 163.421C87.199 162.135 83.8975 161.554 80.5914 161.723C77.2852 161.891 74.0597 162.803 71.1555 164.392C68.2514 165.981 65.7436 168.206 63.8192 170.899C61.8949 173.593 60.6038 176.687 60.0423 179.949C59.4807 183.212 59.6632 186.559 60.576 189.741C61.4889 192.923 63.1087 195.858 65.3144 198.326L63.6561 206.943C63.6395 207.02 63.6401 207.1 63.6579 207.178C63.6756 207.255 63.7101 207.328 63.7587 207.39C63.8074 207.453 63.8692 207.504 63.9398 207.54C64.0104 207.576 64.088 207.597 64.1672 207.6C64.4169 207.6 63.8965 207.891 71.0661 202.878C73.8979 204.449 77.0419 205.374 80.2732 205.588C83.5044 205.801 86.7428 205.298 89.7567 204.113C92.7705 202.929 95.4852 201.092 97.7064 198.736C99.9276 196.38 101.6 193.561 102.605 190.483C103.949 186.365 104.046 181.943 102.883 177.77ZM102.318 187.162C101.541 191.717 99.2796 195.886 95.8855 199.021C92.4913 202.156 88.1554 204.08 83.5536 204.493C80.5008 204.768 77.4248 204.37 74.5431 203.325C72.116 202.464 71.1265 201.413 70.7454 201.819C68.8103 203.185 66.8694 204.543 64.9228 205.893L66.4011 198.22C66.411 198.074 66.3676 197.93 66.2789 197.814C63.1742 194.438 61.2666 190.135 60.8505 185.567C60.4345 181 61.533 176.423 63.9767 172.542C65.5977 169.968 67.7612 167.779 70.3159 166.128C72.8707 164.476 75.7551 163.403 78.7677 162.982C81.7804 162.561 84.8486 162.803 87.7581 163.69C90.6676 164.578 93.3482 166.09 95.6128 168.121C97.8771 170.153 99.6705 172.654 100.868 175.451C102.444 179.14 102.946 183.199 102.318 187.161V187.162Z" fill="#2F4147"/>
<path d="M71.1569 174.88H92.2213C92.3621 174.88 92.4971 174.824 92.5967 174.724C92.6962 174.624 92.7522 174.489 92.7522 174.349C92.7522 174.208 92.6962 174.073 92.5967 173.973C92.4971 173.874 92.3621 173.818 92.2213 173.818C71.1674 173.818 71.2883 173.801 71.1569 173.818C71.0163 173.818 70.8816 173.875 70.7822 173.974C70.6828 174.073 70.6267 174.208 70.626 174.349C70.6256 174.454 70.6567 174.557 70.7152 174.644C70.7737 174.731 70.8571 174.799 70.9545 174.839C71.0187 174.865 71.0874 174.879 71.1569 174.88Z" fill="#2F4147"/>
<path d="M71.1563 181.134H80.5164C80.6572 181.134 80.7922 181.079 80.8918 180.979C80.9913 180.879 81.0473 180.744 81.0473 180.604C81.0473 180.463 80.9913 180.328 80.8918 180.228C80.7922 180.129 80.6572 180.073 80.5164 180.073H71.1563C71.0512 180.072 70.9483 180.103 70.8607 180.161C70.7731 180.219 70.7048 180.302 70.6645 180.399C70.6242 180.496 70.6137 180.603 70.6344 180.706C70.655 180.809 70.7059 180.904 70.7805 180.978C70.8298 181.028 70.8883 181.067 70.9528 181.094C71.0173 181.121 71.0865 181.134 71.1563 181.134Z" fill="#2F4147"/>
<path d="M92.2198 180.073H82.6456C82.5404 180.072 82.4375 180.103 82.3499 180.161C82.2623 180.219 82.1941 180.302 82.1537 180.399C82.1134 180.496 82.1029 180.603 82.1236 180.706C82.1443 180.809 82.1951 180.904 82.2698 180.978C82.319 181.028 82.3776 181.067 82.4421 181.094C82.5066 181.121 82.5757 181.134 82.6456 181.134H92.2198C92.3606 181.134 92.4957 181.079 92.5952 180.979C92.6948 180.879 92.7507 180.744 92.7507 180.604C92.7507 180.463 92.6948 180.328 92.5952 180.228C92.4957 180.129 92.3606 180.073 92.2198 180.073Z" fill="#2F4147"/>
<path d="M92.2197 186.37H71.1565C71.0156 186.37 70.8804 186.426 70.7807 186.525C70.681 186.625 70.625 186.76 70.625 186.901C70.625 187.042 70.681 187.177 70.7807 187.277C70.8804 187.377 71.0156 187.433 71.1565 187.433H92.221C92.2908 187.433 92.3599 187.419 92.4243 187.392C92.4888 187.365 92.5473 187.326 92.5966 187.277C92.6459 187.227 92.685 187.169 92.7116 187.104C92.7383 187.039 92.7519 186.97 92.7519 186.901C92.7518 186.831 92.7379 186.762 92.7111 186.697C92.6843 186.633 92.6451 186.574 92.5957 186.525C92.5463 186.476 92.4876 186.437 92.4231 186.41C92.3586 186.383 92.2895 186.37 92.2197 186.37Z" fill="#2F4147"/>
<path d="M76.4208 192.63H71.1567C71.0513 192.629 70.948 192.66 70.8601 192.718C70.7723 192.776 70.7038 192.859 70.6634 192.957C70.623 193.054 70.6127 193.161 70.6336 193.265C70.6545 193.368 70.7058 193.463 70.7809 193.537C70.8301 193.586 70.8887 193.625 70.9532 193.652C71.0177 193.679 71.0868 193.693 71.1567 193.693H76.4221C76.4919 193.693 76.561 193.679 76.6255 193.652C76.69 193.625 76.7485 193.586 76.7978 193.537C76.8471 193.487 76.8862 193.429 76.9128 193.364C76.9394 193.3 76.9531 193.231 76.953 193.161C76.9529 193.091 76.9391 193.022 76.9123 192.957C76.8855 192.893 76.8463 192.834 76.7969 192.785C76.7475 192.736 76.6888 192.697 76.6243 192.67C76.5598 192.643 76.4906 192.63 76.4208 192.63Z" fill="#2F4147"/>
<path d="M83.1288 192.63H78.5164C78.4109 192.629 78.3075 192.659 78.2194 192.717C78.1313 192.776 78.0626 192.859 78.022 192.956C77.9815 193.053 77.971 193.161 77.9919 193.264C78.0128 193.368 78.0641 193.463 78.1393 193.537C78.1885 193.586 78.2471 193.625 78.3116 193.652C78.3761 193.679 78.4452 193.693 78.5151 193.693H83.1235C83.2645 193.693 83.3999 193.638 83.5006 193.539C83.6003 193.439 83.6569 193.304 83.6583 193.163C83.6576 193.023 83.6019 192.888 83.5033 192.788C83.4038 192.688 83.2694 192.632 83.1288 192.63Z" fill="#2F4147"/>
<path d="M92.2202 192.63H85.1098C85.0044 192.629 84.9012 192.66 84.8133 192.718C84.7254 192.776 84.6569 192.859 84.6165 192.957C84.5762 193.054 84.5658 193.161 84.5867 193.265C84.6076 193.368 84.6589 193.463 84.734 193.537C84.7833 193.586 84.8418 193.625 84.9063 193.652C84.9708 193.679 85.04 193.693 85.1098 193.693H92.2202C92.3612 193.693 92.4964 193.637 92.5961 193.537C92.6957 193.438 92.7518 193.302 92.7518 193.161C92.7518 193.02 92.6957 192.885 92.5961 192.786C92.4964 192.686 92.3612 192.63 92.2202 192.63Z" fill="#2F4147"/>
<path d="M133.392 195.685C141.386 187.694 143.51 172.584 135.196 161.362C132.099 157.183 127.859 153.989 122.988 152.166C118.116 150.342 112.822 149.967 107.742 151.084C102.661 152.2 98.0117 154.762 94.3539 158.46C90.6962 162.158 88.1862 166.836 87.1265 171.928C86.0656 177.02 86.4999 182.311 88.377 187.162C90.2542 192.013 93.4942 196.218 97.7065 199.269C101.919 202.321 106.924 204.09 112.118 204.362C117.313 204.634 122.475 203.398 126.983 200.803C127.149 200.721 127.037 200.73 135.454 206.585C135.403 206.38 133.392 196.267 133.392 195.685Z" fill="white"/>
<path d="M120.064 150.51C115.68 149.448 111.104 149.472 106.731 150.58C102.359 151.688 98.3236 153.848 94.9756 156.87C91.6276 159.893 89.0684 163.688 87.5204 167.924C85.9723 172.161 85.4823 176.711 86.0928 181.18C86.7036 185.649 88.3957 189.901 91.0223 193.567C93.6489 197.233 97.1305 200.203 101.165 202.219C105.2 204.234 109.666 205.233 114.175 205.13C118.684 205.027 123.1 203.825 127.039 201.627C135.521 207.521 135.404 207.605 135.735 207.605C135.814 207.602 135.891 207.582 135.962 207.547C136.032 207.511 136.094 207.461 136.143 207.4C136.192 207.338 136.228 207.267 136.247 207.19C136.266 207.114 136.269 207.035 136.255 206.957C136.113 206.336 134.142 196.125 134.111 195.965C137.316 192.4 139.54 188.065 140.568 183.383C141.597 178.702 141.393 173.833 139.977 169.254C138.562 164.675 135.984 160.54 132.493 157.255C129.003 153.97 124.721 151.646 120.064 150.51ZM135.809 192.081C133.904 195.035 132.918 195.254 133.08 195.935C133.223 196.554 135.005 205.861 135.01 205.882C135.01 205.882 127.651 200.718 127.356 200.546C127.276 200.501 127.186 200.48 127.094 200.484C127.003 200.488 126.915 200.517 126.839 200.568C121.171 203.848 114.495 204.933 108.08 203.617C101.664 202.299 95.9561 198.671 92.0384 193.423C88.1208 188.174 86.2665 181.67 86.8274 175.145C87.1764 171.094 88.445 167.177 90.5366 163.69C92.6282 160.204 95.4877 157.241 98.8974 155.027C102.307 152.812 106.177 151.405 110.213 150.912C114.248 150.419 118.343 150.853 122.186 152.182C126.028 153.511 129.517 155.698 132.386 158.579C135.255 161.459 137.43 164.956 138.743 168.804C140.057 172.651 140.476 176.748 139.967 180.781C139.459 184.815 138.037 188.679 135.809 192.081Z" fill="#2F4147"/>
<path d="M100.91 169.793H127.536C127.672 169.786 127.801 169.727 127.895 169.628C127.989 169.529 128.042 169.398 128.042 169.261C128.042 169.125 127.989 168.993 127.895 168.894C127.801 168.795 127.672 168.736 127.536 168.73H100.91C100.769 168.73 100.634 168.786 100.535 168.885C100.435 168.985 100.379 169.12 100.379 169.261C100.379 169.402 100.435 169.537 100.535 169.637C100.634 169.737 100.769 169.793 100.91 169.793Z" fill="#2F4147"/>
<path d="M100.911 176.053H113.543C113.677 176.044 113.803 175.983 113.895 175.885C113.987 175.786 114.038 175.657 114.038 175.522C114.038 175.387 113.987 175.258 113.895 175.159C113.803 175.061 113.677 175.001 113.543 174.991H100.911C100.77 174.992 100.636 175.048 100.537 175.148C100.437 175.247 100.381 175.382 100.38 175.522C100.38 175.663 100.436 175.798 100.536 175.897C100.635 175.997 100.77 176.053 100.911 176.053Z" fill="#2F4147"/>
<path d="M127.536 174.991H116.078C115.937 174.992 115.803 175.048 115.704 175.148C115.604 175.247 115.548 175.382 115.547 175.522C115.547 175.663 115.603 175.798 115.703 175.897C115.802 175.997 115.937 176.053 116.078 176.053H127.536C127.677 176.053 127.812 175.996 127.912 175.898C128.011 175.798 128.066 175.663 128.066 175.522C128.066 175.381 128.011 175.247 127.912 175.146C127.812 175.047 127.677 174.992 127.536 174.991Z" fill="#2F4147"/>
<path d="M127.536 181.288H100.911C100.77 181.289 100.636 181.345 100.537 181.445C100.437 181.544 100.381 181.679 100.38 181.819C100.38 181.96 100.436 182.095 100.536 182.194C100.635 182.294 100.77 182.35 100.911 182.35H127.536C127.677 182.35 127.812 182.293 127.912 182.195C128.011 182.095 128.066 181.96 128.066 181.819C128.066 181.678 128.011 181.544 127.912 181.443C127.812 181.344 127.677 181.289 127.536 181.288Z" fill="#2F4147"/>
<path d="M107.539 187.585H100.874C100.738 187.592 100.609 187.651 100.515 187.75C100.421 187.849 100.368 187.98 100.368 188.117C100.368 188.253 100.421 188.385 100.515 188.484C100.609 188.583 100.738 188.641 100.874 188.648H107.539C107.68 188.648 107.815 188.592 107.915 188.493C108.014 188.393 108.07 188.258 108.07 188.117C108.07 187.976 108.014 187.841 107.915 187.741C107.815 187.641 107.68 187.585 107.539 187.585Z" fill="#2F4147"/>
<path d="M116.527 187.585H110.19C110.054 187.592 109.925 187.651 109.831 187.75C109.737 187.849 109.685 187.98 109.685 188.117C109.685 188.253 109.737 188.385 109.831 188.484C109.925 188.583 110.054 188.641 110.19 188.648H116.527C116.663 188.641 116.792 188.583 116.886 188.484C116.98 188.385 117.033 188.253 117.033 188.117C117.033 187.98 116.98 187.849 116.886 187.75C116.792 187.651 116.663 187.592 116.527 187.585Z" fill="#2F4147"/>
<path d="M127.536 187.585H118.802C118.665 187.592 118.537 187.651 118.443 187.75C118.348 187.849 118.296 187.98 118.296 188.117C118.296 188.253 118.348 188.385 118.443 188.484C118.537 188.583 118.665 188.641 118.802 188.648H127.536C127.673 188.641 127.801 188.583 127.895 188.484C127.989 188.385 128.042 188.253 128.042 188.117C128.042 187.98 127.989 187.849 127.895 187.75C127.801 187.651 127.673 187.592 127.536 187.585Z" fill="#2F4147"/>
<path d="M237.639 122.996L236.259 125.087L242.468 129.184L243.847 127.094L237.639 122.996Z" fill="#E2FD86"/>
<path d="M236.048 125.404L212.662 160.845L218.871 164.943L242.257 129.501L236.048 125.404Z" fill="white"/>
<path d="M212.494 161.251L211.389 166.629C212.209 167.12 212.515 167.195 214.148 168.286L218.567 165.229L212.494 161.251Z" fill="#E2FD86"/>
<path d="M245.711 124.241C245.98 123.835 246.166 123.38 246.258 122.902C246.35 122.424 246.348 121.932 246.25 121.455C246.052 120.492 245.481 119.646 244.661 119.104C244.255 118.835 243.8 118.649 243.321 118.557C242.843 118.464 242.352 118.466 241.874 118.564C241.397 118.662 240.944 118.853 240.541 119.126C240.138 119.399 239.792 119.749 239.524 120.155L237.867 122.657L244.087 126.785L245.711 124.241Z" fill="#E2FD86"/>
<path d="M246.917 121.266C246.743 120.406 246.318 119.618 245.695 119C245.072 118.383 244.28 117.965 243.419 117.799C242.558 117.632 241.667 117.726 240.859 118.067C240.051 118.408 239.363 118.982 238.882 119.715L211.892 160.727C211.858 160.767 211.833 160.814 211.821 160.865C211.809 160.916 211.809 160.969 211.823 161.02C210.36 168.257 209.851 170.594 209.742 171.381C209.669 171.914 210.02 171.966 210.212 171.836C217.134 167.115 218.561 166.096 218.895 165.876C219.08 165.776 219.248 165.646 219.393 165.493L246.283 124.603C246.926 123.619 247.154 122.419 246.917 121.267V121.266ZM238.322 122.53L239.8 120.296C240.041 119.926 240.353 119.609 240.719 119.362C241.085 119.115 241.496 118.945 241.929 118.86C242.585 118.732 243.264 118.801 243.88 119.058C244.497 119.315 245.024 119.749 245.395 120.304C245.766 120.86 245.965 121.513 245.966 122.181C245.967 122.849 245.77 123.503 245.401 124.059L243.926 126.293L238.322 122.53ZM236.703 124.96L237.739 123.408L243.414 127.169L242.378 128.722L236.703 124.96ZM211.761 166.452L212.719 161.794L217.975 165.271L214.143 167.889C213.658 167.564 212.989 167.127 211.761 166.452ZM213.096 160.755L236.12 125.875L241.795 129.636L218.773 164.516L213.096 160.755Z" fill="#2F4147"/>
</svg>
