<svg width="270" height="220" viewBox="0 0 270 220" fill="none" xmlns="http://www.w3.org/2000/svg">
<path d="M75.7198 2.72617C73.6375 1.93734 68.6769 -0.270819 66.7289 1.97692C66.244 2.46181 66.7034 2.79685 67.2265 3.10786C66.0588 3.46552 65.0098 4.1667 64.9307 5.11951C64.9307 6.0907 65.7054 5.14496 68.6769 5.56906C69.7141 5.76405 70.6598 6.29098 71.3714 7.07038C73.0197 9.16968 68.6741 9.01983 68.3744 10.2172C67.6251 12.6205 74.3683 12.3165 75.8668 13.0643C77.3653 13.8122 78.5641 15.1636 80.064 15.9129C82.086 13.2434 83.7494 10.3205 85.0119 7.21881C85.1617 7.07038 76.4747 3.01031 75.7198 2.72334V2.72617Z" fill="#B1E400"/>
<path d="M83.6763 11.6648C84.4458 10.3195 85.1121 8.91786 85.6696 7.47186C85.7194 7.34464 85.7317 7.20578 85.705 7.07179C85.5198 6.16704 76.3224 2.20452 75.1731 1.7677C72.5917 0.788023 68.273 -0.849009 66.2104 1.49344C66.0458 1.67922 65.9331 1.90506 65.8834 2.14825C65.8338 2.39145 65.8491 2.64342 65.9277 2.87884C63.6658 4.0946 63.892 6.29003 65.2209 6.27165C66.3334 6.15149 67.4545 6.15149 68.567 6.27165C69.4273 6.43401 70.213 6.86748 70.8091 7.50862C71.0296 7.79135 71.0311 7.9101 71.0311 7.9101C70.9462 8.11508 70.1221 8.41195 69.7248 8.55615C68.8229 8.87988 67.887 9.21492 67.6934 10.008C66.6218 13.4319 74.1199 12.988 75.5449 13.6977C76.9232 14.389 78.1998 15.7758 79.7407 16.5462C79.8906 16.6213 80.0624 16.6406 80.2253 16.6008C80.3882 16.5609 80.5316 16.4644 80.6299 16.3285C81.1212 15.649 81.5991 14.96 82.0633 14.2617C92.2022 23.6315 97.9771 33.3548 99.2508 43.2279C100.125 49.9979 98.8204 56.8704 95.5272 62.8496C95.3467 63.1972 95.3095 63.6017 95.4235 63.9764C95.5375 64.3512 95.7938 64.6663 96.1373 64.8545C96.4809 65.0426 96.8844 65.0887 97.2616 64.983C97.6387 64.8772 97.9595 64.628 98.1552 64.2887C106.005 49.9598 104.524 30.6957 83.6763 11.6648ZM79.8594 14.9869C78.6239 14.2207 77.5877 13.1336 76.1839 12.4324C74.8338 11.7581 68.6914 11.6874 69.0448 10.425C69.4124 9.90055 71.9839 9.73798 72.3952 8.30451C72.4583 7.99556 72.4434 7.67578 72.3521 7.37398C72.2608 7.07217 72.0959 6.79781 71.8722 6.57559C70.5999 5.30329 69.0533 4.42681 65.7538 4.83678C66.2681 4.31876 66.9063 3.94095 67.6078 3.73928C68.3093 3.53761 69.0507 3.5188 69.7616 3.68463C69.9328 3.74983 70.1226 3.74601 70.2911 3.67398C70.4595 3.60194 70.5934 3.46732 70.6645 3.29849C70.7356 3.12966 70.7384 2.93982 70.6723 2.76897C70.6062 2.59811 70.4763 2.45961 70.3101 2.38264C69.4587 2.00307 68.5052 1.91801 67.6001 2.14091C69.4195 0.888393 73.5516 2.66679 75.4558 3.38494C76.133 3.6394 82.3998 6.57701 84.1386 7.50579C83.0084 10.1581 81.5723 12.6693 79.8594 14.9884V14.9869Z" fill="#2F4147"/>
<path d="M57.5043 2.84916C57.787 2.63711 58.3907 1.63057 57.0095 1.01139C54.7858 0.00767928 50.7116 1.80304 48.8922 2.58198C48.143 2.88167 39.6016 6.9276 39.6016 7.07745C40.8644 10.1785 42.5278 13.1009 44.5494 15.7701C46.0479 14.8696 47.2467 13.5224 48.7452 12.7731C50.2437 11.8726 56.9883 12.3236 56.2376 9.92458C55.938 8.72579 51.4411 8.87564 53.2407 6.77775C53.9539 5.99951 54.9004 5.47369 55.938 5.27926C57.0827 5.14214 58.2397 5.14214 59.3845 5.27926C59.9641 5.2736 59.9174 3.64364 57.5043 2.84916Z" fill="#B1E400"/>
<path d="M60.3876 4.7661C60.3118 4.28878 60.1165 3.83838 59.8199 3.45677C59.5233 3.07516 59.135 2.77472 58.6912 2.58339C58.7639 2.35579 58.7793 2.11379 58.7362 1.8788C58.693 1.64381 58.5926 1.42308 58.4438 1.23616C56.3459 -1.38762 51.2157 0.812057 48.6386 1.92038C48.541 1.95996 38.9026 6.06385 38.9026 7.07179C39.4313 8.62043 40.1148 10.1119 40.9426 11.5234C33.3752 16.4543 25.9011 22.5981 21.0734 30.8907C15.307 40.7963 14.0927 55.7078 22.9281 65.0436C23.2013 65.3323 23.5779 65.5007 23.9752 65.5117C24.3725 65.5227 24.7578 65.3754 25.0465 65.1023C25.3352 64.8292 25.5036 64.4525 25.5146 64.0553C25.5256 63.658 25.3783 63.2726 25.1052 62.9839C17.2819 54.7182 18.4609 41.3406 23.6633 32.3991C28.187 24.6324 35.2865 18.794 42.5174 14.0737C42.9655 14.748 43.449 15.445 43.9749 16.173C44.0404 16.264 44.1266 16.3382 44.2264 16.3893C44.3262 16.4404 44.4367 16.4671 44.5488 16.4671C44.9998 16.4671 46.2905 15.3997 46.8927 14.912C47.5188 14.2522 48.2734 13.7276 49.11 13.3707C49.9467 13.0138 50.8476 12.8321 51.7571 12.8367C53.8494 12.5653 56.0123 12.284 56.746 11.1403C56.8776 10.9354 56.9617 10.7036 56.9923 10.462C57.0229 10.2203 56.9991 9.97491 56.9227 9.74363C56.7135 8.90957 55.7621 8.57594 54.8418 8.25221C54.3699 8.1278 53.9235 7.92157 53.5228 7.64292C53.8005 7.20285 54.1679 6.82631 54.601 6.53789C55.0341 6.24947 55.5232 6.05567 56.0363 5.96913C57.0472 5.82563 58.0733 5.82563 59.0842 5.96913C60.4329 5.98044 60.3876 5.03894 60.3876 4.7661ZM55.837 4.57384C54.2523 4.80144 51.7374 6.44978 52.1615 8.00058C52.6096 9.67437 56.0392 9.6263 55.5613 10.3826C55.1825 10.9735 53.0167 11.2548 51.5804 11.4415C50.5411 11.4521 49.514 11.6677 48.5581 12.0757C47.6021 12.4837 46.7359 13.0762 46.0092 13.8192C45.5964 14.1529 45.1723 14.4964 44.7369 14.8088C43.041 12.5061 41.6179 10.0146 40.4958 7.38422C42.13 6.53601 48.5933 3.46834 49.3143 3.17854C51.0362 2.48726 55.386 0.568904 57.0754 1.85959C56.1566 1.61759 55.1826 1.69793 54.3159 2.08719C54.1497 2.16415 54.0198 2.30266 53.9537 2.47351C53.8875 2.64436 53.8903 2.83421 53.9615 3.00304C54.0326 3.17187 54.1665 3.30649 54.3349 3.37852C54.5034 3.45056 54.6932 3.45438 54.8644 3.38918C55.5739 3.22262 56.3142 3.24083 57.0146 3.44205C57.7151 3.64327 58.3522 4.02078 58.8651 4.53849C57.8584 4.42031 56.8407 4.43219 55.837 4.57384Z" fill="#2F4147"/>
<path d="M11.7305 91.2927C6.63142 89.6571 2.28721 86.4975 0.939982 81.397C-1.53677 69.0132 14.531 60.2527 23.276 67.1613C18.6307 61.3172 20.7314 50.6765 27.3219 47.0801C33.9125 43.4837 42.9006 46.7847 46.3485 53.2268C44.4005 47.6823 48.1863 41.465 53.3914 38.5415C59.8943 34.89 68.2053 35.5856 74.8213 39.1409C82.4396 43.2406 84.2632 48.5814 83.9635 56.3736C85.5744 54.0184 87.7863 52.1372 90.3696 50.9253C92.9529 49.7135 95.8134 49.2151 98.6544 49.4819C101.483 49.7557 104.152 50.9183 106.279 52.803C108.406 54.6877 109.882 57.1977 110.494 59.9728C110.954 62.778 110.369 65.6545 108.85 68.0572C107.331 70.46 104.984 72.2221 102.252 73.0097C106.494 71.2006 111.27 71.0933 115.589 72.71C117.713 73.4948 119.448 75.0756 120.427 77.1177C121.406 79.1598 121.552 81.5028 120.833 83.6504C120.657 84.3038 120.351 84.9153 119.934 85.4486C117.087 90.3964 111.093 92.0419 105.699 90.993C109.295 94.5894 108.396 101.03 104.65 104.18C96.9947 110.611 80.9001 106.699 76.9248 97.4365C76.3254 104.629 69.2825 110.475 61.9399 110.475C54.2976 110.475 48.6019 105.079 45.3052 98.6353C42.7606 102.831 37.2007 105.176 32.5681 106.278C29.5272 106.999 26.338 106.789 23.4188 105.674C21.9722 105.068 20.7039 104.103 19.7337 102.871C18.7636 101.639 18.1237 100.179 17.8744 98.6311C17.6493 97.0753 17.956 95.4891 18.7446 94.1294C19.5333 92.7696 20.7578 91.7158 22.22 91.1386C18.7734 91.4425 15.0244 92.3501 11.7305 91.2927Z" fill="white"/>
<path d="M61.9327 111.187C55.2545 111.187 49.2167 107.127 45.2245 100.002C41.8133 104.495 35.4334 106.364 32.7163 106.973C29.5444 107.716 26.2234 107.498 23.1754 106.348C17.8035 104.086 14.774 96.8088 19.4038 92.1805C16.7903 92.678 14.1003 92.6066 11.5169 91.9712C-6.40563 86.2657 -1.43375 67.2221 12.9376 64.334C15.711 63.7207 18.6067 63.9906 21.2189 65.1058C20.03 62.2596 19.7414 59.1174 20.3919 56.1022C23.0878 42.8052 37.8508 41.9965 45.1156 50.2326C45.0082 39.7092 59.7033 30.0892 75.159 38.5246C82.6642 42.497 84.6108 47.7346 84.6984 54.2969C92.8157 45.1985 108.236 47.4081 111.174 59.8102C111.511 61.8379 111.339 63.9177 110.672 65.8622C110.006 67.8068 108.867 69.5552 107.357 70.9499C110.231 70.6446 113.139 71.022 115.839 72.0512C118.134 72.9012 120.009 74.6118 121.064 76.8204C122.12 79.0291 122.274 81.562 121.493 83.8822C121.295 84.606 120.954 85.283 120.491 85.8741C118.029 90.1603 112.979 92.4618 107.344 91.9444C108.312 93.5354 108.773 95.3835 108.666 97.2428C108.28 106.081 98.763 109.409 90.11 107.571C84.2842 106.312 79.7265 103.457 77.2668 99.6008C76.2908 102.921 74.2735 105.839 71.5125 107.926C68.7515 110.012 65.3931 111.155 61.9327 111.187ZM45.9242 98.313C49.6493 105.593 55.4835 109.764 61.9298 109.764C69.1113 109.764 75.6509 104.089 76.2079 97.3743C76.2214 97.2175 76.2867 97.0696 76.3937 96.9542C76.5007 96.8388 76.6431 96.7623 76.7984 96.737C76.9538 96.7117 77.1131 96.7389 77.2512 96.8144C77.3893 96.8899 77.4983 97.0093 77.5608 97.1538C81.4088 106.132 97.0256 109.644 104.18 103.634C107.635 100.732 108.466 94.7703 105.184 91.4878C105.077 91.3807 105.007 91.2422 104.985 91.0925C104.963 90.9429 104.989 90.7901 105.06 90.6566C105.131 90.5231 105.243 90.4159 105.38 90.3507C105.516 90.2855 105.67 90.2659 105.819 90.2946C110.174 91.1428 116.317 90.2861 119.308 85.0909C119.945 84.0893 120.349 82.9577 120.491 81.7792C120.633 80.6008 120.509 79.4055 120.127 78.2814C119.746 77.1573 119.118 76.1329 118.289 75.2837C117.459 74.4345 116.45 73.7821 115.336 73.3744C111.756 72.0106 107.821 71.8955 104.168 73.0478C103.606 73.3023 103.027 73.5172 102.434 73.6882C102.262 73.7359 102.079 73.7167 101.92 73.6345C101.762 73.5523 101.64 73.4132 101.58 73.2452C101.52 73.0771 101.526 72.8925 101.596 72.7285C101.666 72.5644 101.796 72.4331 101.959 72.3608C102.516 72.1205 103.082 71.9084 103.656 71.7275C105.809 70.7211 107.573 69.038 108.68 66.9349C109.786 64.8318 110.174 62.4244 109.784 60.0802C106.916 47.9919 91.2649 46.9868 84.5401 56.7765C84.453 56.9016 84.3279 56.9953 84.1833 57.0436C84.0387 57.0919 83.8823 57.0923 83.7375 57.0446C83.5927 56.997 83.4671 56.9039 83.3794 56.7792C83.2917 56.6545 83.2466 56.5048 83.2508 56.3524C83.5336 49.1271 82.1595 43.8329 74.4861 39.7714C67.5463 35.9856 59.6001 35.7524 53.7433 39.1579C48.9467 41.7619 45.1298 47.6399 47.0114 52.9991C47.0694 53.1671 47.062 53.3507 46.9908 53.5134C46.9195 53.6761 46.7896 53.8061 46.6269 53.8774C46.4642 53.9487 46.2806 53.9561 46.1127 53.8981C45.9447 53.8402 45.8048 53.7211 45.7207 53.5646C42.4692 47.4745 33.908 44.2966 27.6511 47.7078C21.4536 51.0879 19.4419 61.2211 23.8201 66.7287C23.9222 66.8648 23.9717 67.0332 23.9597 67.2029C23.9476 67.3727 23.8747 67.5323 23.7544 67.6526C23.6341 67.7729 23.4744 67.8458 23.3047 67.8579C23.135 67.8699 22.9666 67.8204 22.8305 67.7183C14.5407 61.1673 -0.701469 69.5971 1.63392 81.2627C3.07303 86.6982 8.03785 89.3545 11.9537 90.6198C15.0709 91.6093 18.7549 90.7357 22.1661 90.4388C22.3347 90.4245 22.5029 90.4713 22.64 90.5705C22.7771 90.6697 22.8741 90.8148 22.9133 90.9795C22.9525 91.1441 22.9313 91.3173 22.8536 91.4677C22.7759 91.6181 22.6468 91.7355 22.4898 91.7988C21.184 92.3298 20.0916 93.2795 19.3841 94.4988C18.6766 95.718 18.3941 97.1377 18.581 98.5349C18.8428 99.9514 19.4457 101.283 20.3376 102.414C21.2295 103.545 22.3836 104.442 23.6999 105.026C26.482 106.06 29.5044 106.256 32.3968 105.592C35.145 104.971 41.8147 103.023 44.6958 98.2691C44.7613 98.1628 44.8538 98.0757 44.964 98.0167C45.0741 97.9578 45.1979 97.9291 45.3228 97.9335C45.4476 97.938 45.569 97.9754 45.6747 98.0421C45.7804 98.1087 45.8665 98.2022 45.9242 98.313Z" fill="#2F4147"/>
<path d="M41.5776 71.6257C41.5156 71.5511 41.4696 71.4645 41.4424 71.3714C41.4152 71.2783 41.4075 71.1806 41.4196 71.0843C41.4318 70.9881 41.4636 70.8954 41.513 70.8119C41.5625 70.7285 41.6286 70.6561 41.7072 70.5992C41.7858 70.5423 41.8752 70.5022 41.9699 70.4814C42.0647 70.4605 42.1627 70.4593 42.2579 70.4779C42.3531 70.4965 42.4435 70.5344 42.5234 70.5893C42.6034 70.6443 42.6712 70.7151 42.7227 70.7973C44.1655 72.7965 46.253 74.2377 48.6339 74.8783C51.0148 75.5189 53.5436 75.3198 55.7949 74.3145C57.7415 73.5356 58.642 72.71 58.8371 71.5437C58.8466 71.4471 58.8759 71.3535 58.9231 71.2687C58.9703 71.184 59.0344 71.1098 59.1114 71.0508C59.1885 70.9918 59.2768 70.9492 59.371 70.9258C59.4651 70.9024 59.5631 70.8986 59.6588 70.9146C59.7545 70.9306 59.8459 70.9661 59.9274 71.0189C60.0088 71.0717 60.0785 71.1407 60.1321 71.2216C60.1858 71.3024 60.2222 71.3935 60.2392 71.489C60.2562 71.5845 60.2534 71.6826 60.231 71.777C59.8705 73.9469 57.9691 74.9676 56.349 75.6137C53.8031 76.7463 50.9449 76.9682 48.2547 76.2419C45.5645 75.5157 43.2062 73.8857 41.5762 71.6257H41.5776Z" fill="#2F4147"/>
<path d="M73.4381 71.3783C73.3541 71.2105 73.3402 71.0162 73.3995 70.8382C73.4587 70.6602 73.5863 70.513 73.7541 70.429C73.9218 70.345 74.1161 70.3311 74.2941 70.3904C74.4722 70.4496 74.6194 70.5772 74.7033 70.745C75.4941 72.2998 76.7151 73.5947 78.2209 74.4752C79.7268 75.3558 81.4539 75.785 83.1968 75.7117C84.9397 75.6384 86.6247 75.0657 88.0513 74.0619C89.4779 73.058 90.5859 71.6652 91.2433 70.0494C91.313 69.8753 91.4491 69.736 91.6216 69.6621C91.794 69.5883 91.9887 69.586 92.1629 69.6557C92.3371 69.7255 92.4764 69.8615 92.5502 70.034C92.624 70.2064 92.6263 70.4012 92.5566 70.5753C91.7977 72.4441 90.5174 74.0552 88.8682 75.2164C87.2191 76.3777 85.2708 77.0402 83.2556 77.1248C81.2404 77.2094 79.2433 76.7127 77.5026 75.6938C75.7619 74.6749 74.351 73.1768 73.4381 71.3783Z" fill="#2F4147"/>
<path d="M67.4769 79.9451C64.9323 79.9451 62.874 82.4799 62.874 85.5998C62.874 88.7198 64.9394 91.2545 67.4769 91.2545C70.0145 91.2545 72.077 88.7099 72.077 85.5998C72.077 82.4898 70.0145 79.9451 67.4769 79.9451Z" fill="#2F4147"/>
<path d="M181.22 139.654C181.101 139.655 180.985 139.625 180.881 139.569C180.777 139.512 180.69 139.43 180.626 139.331C162.919 111.888 135.592 92.0577 104.012 83.7338C103.84 83.6775 103.697 83.5577 103.61 83.3988C103.524 83.24 103.502 83.0543 103.548 82.8795C103.594 82.7048 103.706 82.5544 103.859 82.4591C104.013 82.3638 104.197 82.3307 104.374 82.3668C136.294 90.7807 163.916 110.825 181.813 138.563C181.883 138.67 181.923 138.793 181.928 138.92C181.933 139.048 181.903 139.174 181.842 139.285C181.78 139.397 181.69 139.49 181.581 139.555C181.472 139.62 181.347 139.654 181.22 139.654Z" fill="#B1E400"/>
<path d="M190.062 142.801C189.936 142.802 189.812 142.768 189.704 142.705C189.595 142.641 189.505 142.549 189.444 142.439C174.64 116.1 151.883 95.1188 124.43 82.4997C124.342 82.4635 124.262 82.41 124.195 82.3423C124.128 82.2746 124.076 82.1941 124.041 82.1056C124.006 82.0172 123.989 81.9226 123.991 81.8275C123.994 81.7324 124.016 81.6388 124.055 81.5522C124.095 81.4657 124.151 81.388 124.221 81.3239C124.292 81.2597 124.374 81.2104 124.464 81.1789C124.554 81.1474 124.649 81.1343 124.744 81.1404C124.839 81.1466 124.931 81.1718 125.016 81.2146C152.744 93.9592 175.73 115.149 190.684 141.751C190.745 141.859 190.777 141.981 190.776 142.105C190.775 142.229 190.741 142.35 190.678 142.457C190.615 142.564 190.525 142.652 190.417 142.713C190.308 142.773 190.186 142.804 190.062 142.803V142.801Z" fill="#B1E400"/>
<path d="M124.14 187.101C75.9879 166.131 53.6858 129.749 52.6849 95.9606C52.6821 95.8678 52.6976 95.7753 52.7305 95.6885C52.7634 95.6016 52.8132 95.5221 52.8768 95.4545C52.9405 95.3869 53.0169 95.3325 53.1016 95.2944C53.1863 95.2563 53.2777 95.2353 53.3705 95.2326C53.5565 95.2323 53.7355 95.3031 53.8709 95.4306C54.0063 95.5581 54.0877 95.7326 54.0986 95.9182C55.0768 128.983 76.7541 164.922 124.706 185.805C124.878 185.88 125.013 186.02 125.081 186.195C125.15 186.369 125.146 186.564 125.071 186.736C124.996 186.908 124.856 187.043 124.681 187.112C124.507 187.18 124.312 187.176 124.14 187.101Z" fill="#B1E400"/>
<path d="M116.066 171.222C101.987 165.477 89.4207 156.565 79.3427 145.178C69.2648 133.791 61.9459 120.235 57.9542 105.562C57.9257 105.471 57.9159 105.376 57.9254 105.281C57.9349 105.186 57.9634 105.094 58.0093 105.011C58.0552 104.927 58.1175 104.854 58.1924 104.795C58.2674 104.736 58.3535 104.693 58.4455 104.668C58.5375 104.644 58.6336 104.638 58.7279 104.651C58.8222 104.665 58.9129 104.697 58.9944 104.746C59.0759 104.796 59.1467 104.861 59.2023 104.938C59.258 105.015 59.2975 105.103 59.3183 105.196C63.2545 119.658 70.4691 133.018 80.4025 144.242C90.3359 155.465 102.721 164.249 116.597 169.913C116.721 169.969 116.827 170.06 116.9 170.175C116.974 170.289 117.013 170.423 117.013 170.559C117.013 170.695 116.973 170.829 116.899 170.943C116.825 171.058 116.72 171.148 116.596 171.205C116.428 171.279 116.238 171.285 116.066 171.222Z" fill="#B1E400"/>
<path d="M141.358 103.43C138.814 107.476 137.912 113.921 137.762 115.12C137.761 119.036 138.368 122.928 139.56 126.659C132.329 126.931 125.169 128.191 118.28 130.405C111.365 132.626 105.331 136.981 101.046 142.845C99.9969 135.353 102.468 126.476 105.543 119.617C111.108 107.192 127.661 102.114 141.358 103.43Z" fill="#E2FD86"/>
<path d="M100.352 142.941C99.14 134.288 102.681 124.436 104.899 119.333C107.469 113.764 111.76 109.683 118.434 106.536C125.618 103.223 133.562 101.904 141.431 102.719C141.552 102.73 141.668 102.772 141.767 102.841C141.867 102.909 141.948 103.002 142.001 103.111C142.054 103.219 142.079 103.34 142.072 103.461C142.066 103.582 142.028 103.699 141.963 103.801C139.51 107.696 138.621 113.979 138.468 115.201C138.478 119.015 139.075 122.804 140.238 126.437C140.272 126.54 140.281 126.65 140.265 126.758C140.249 126.865 140.208 126.968 140.145 127.057C140.083 127.146 140.001 127.22 139.906 127.272C139.81 127.325 139.704 127.354 139.595 127.358C132.428 127.627 125.332 128.876 118.504 131.071C111.732 133.248 105.823 137.513 101.624 143.255C101.542 143.37 101.427 143.457 101.295 143.505C101.162 143.554 101.018 143.561 100.882 143.526C100.745 143.493 100.621 143.419 100.527 143.315C100.432 143.211 100.371 143.081 100.352 142.941ZM106.19 119.911C104.187 124.518 101.063 133.123 101.574 140.992C105.875 135.731 111.601 131.822 118.066 129.733C124.724 127.59 131.636 126.333 138.622 125.996C137.585 122.464 137.059 118.801 137.06 115.12C137.51 111.284 138.569 107.545 140.197 104.043C127.218 103.11 111.634 108.103 106.184 119.911H106.19Z" fill="#2F4147"/>
<path d="M132.605 104.974C125.688 105.576 115.434 109.003 112.065 112.694C108.773 116.254 106.674 121.534 105.827 128.386C105.637 129.88 106.453 129.926 106.863 129.622C112.908 125.123 120.17 123.613 129.038 122.108C129.202 122.079 129.351 121.994 129.459 121.866C129.566 121.739 129.626 121.578 129.626 121.411C129.626 117.296 132.562 107.02 133.21 106.128C133.298 106.02 133.353 105.889 133.367 105.751C133.381 105.613 133.355 105.473 133.29 105.35C133.225 105.227 133.126 105.126 133.004 105.059C132.882 104.992 132.743 104.963 132.605 104.974ZM113.107 113.649C113.807 112.941 114.593 112.324 115.446 111.811C118.369 113.42 118.414 113.366 118.817 113.913C118.862 114.158 118.812 114.411 118.676 114.62C117.262 116.033 111.73 118.295 108.41 126.897C108.056 127.107 107.707 127.324 107.361 127.551C108.046 122.874 109.843 117.064 113.107 113.649ZM115.294 121.77L113.519 124.435C112.45 124.85 111.398 125.313 110.366 125.83C111.442 123.478 112.939 121.342 114.781 119.527C114.961 119.788 115.163 120.035 115.382 120.264C115.546 120.516 115.631 120.812 115.625 121.113C115.619 121.349 115.569 121.477 115.294 121.77ZM128.231 120.814C124.001 121.445 119.825 122.39 115.735 123.642L116.383 122.662C116.596 122.465 116.765 122.226 116.878 121.959C116.991 121.692 117.046 121.404 117.039 121.114C117.053 120.439 116.82 119.782 116.383 119.266C116.179 119.046 115.994 118.81 115.829 118.56C116.561 117.923 117.336 117.337 118.147 116.805C118.765 116.483 119.315 116.046 119.767 115.516C119.982 115.223 120.129 114.887 120.198 114.53C120.266 114.174 120.255 113.806 120.164 113.455C119.847 112.787 119.3 112.256 118.623 111.959L116.892 110.989C121.494 108.734 126.426 107.226 131.502 106.522C129.883 111.15 128.785 115.943 128.231 120.814Z" fill="#2F4147"/>
<path d="M123.722 119.466C120.727 119.466 122.235 115.122 124.599 116.073C124.869 116.154 125.114 116.301 125.313 116.5C125.512 116.7 125.659 116.946 125.739 117.216C125.819 117.486 125.83 117.772 125.772 118.048C125.714 118.324 125.588 118.581 125.406 118.796C124.955 119.232 124.35 119.473 123.722 119.466Z" fill="#2F4147"/>
<path d="M133.113 118.114C143.931 116.136 154.142 111.672 162.942 105.076C165.04 114.818 166.978 124.856 164.89 134.599C162.932 143.737 157.697 151.832 151.703 158.876C140.935 159.801 130.114 159.901 119.33 159.176C129.667 148.084 135.961 133.553 133.113 118.114Z" fill="#E2FD86"/>
<path d="M119.278 159.883C119.145 159.874 119.016 159.828 118.909 159.749C118.801 159.67 118.718 159.562 118.67 159.437C118.621 159.313 118.608 159.178 118.632 159.047C118.657 158.916 118.718 158.794 118.809 158.697C130.152 146.531 134.985 132.165 132.418 118.246C132.384 118.061 132.424 117.871 132.53 117.717C132.636 117.562 132.799 117.456 132.983 117.422C143.687 115.448 153.791 111.03 162.508 104.512C162.603 104.441 162.715 104.395 162.832 104.378C162.95 104.362 163.07 104.376 163.181 104.419C163.292 104.46 163.391 104.529 163.469 104.62C163.546 104.711 163.599 104.819 163.622 104.936C165.912 115.567 167.638 125.152 165.57 134.756C163.865 142.756 159.501 150.798 152.231 159.343C152.109 159.485 151.936 159.573 151.75 159.589C140.95 160.509 130.093 160.606 119.278 159.883ZM120.833 158.569C130.997 159.174 141.193 159.05 151.34 158.198C158.343 149.92 162.545 142.151 164.186 134.448C166.128 125.434 164.61 116.333 162.467 106.29C153.967 112.446 144.227 116.674 133.925 118.678C136.228 132.421 131.6 146.506 120.839 158.569H120.833Z" fill="#2F4147"/>
<path d="M158.385 116.938C158.365 116.826 158.318 116.72 158.247 116.63C158.177 116.54 158.086 116.468 157.981 116.421C157.877 116.374 157.763 116.353 157.649 116.36C157.535 116.368 157.424 116.402 157.326 116.462C152.379 119.43 142.71 122.316 139.13 122.965C138.96 122.996 138.808 123.088 138.702 123.223C138.596 123.358 138.542 123.528 138.551 123.7C138.813 128.983 138.262 134.275 136.919 139.391C136.433 141.971 135.537 144.455 134.265 146.751C133.745 147.989 133.103 149.173 132.35 150.285C131.01 152.632 129.843 152.799 130.229 153.627C130.289 153.758 130.387 153.868 130.511 153.942C130.635 154.015 130.778 154.049 130.922 154.039C137.196 153.59 143.559 152.985 149.753 152.242C150.363 152.289 150.972 152.149 151.5 151.841C152.028 151.533 152.449 151.071 152.708 150.517C158.026 138.983 160.805 129.91 158.385 116.938ZM151.512 149.72C151.389 150.096 151.134 150.416 150.795 150.621C150.455 150.825 150.054 150.901 149.663 150.834C143.987 151.509 138.239 152.069 132.557 152.5C132.924 152.042 133.254 151.556 133.547 151.047C134.328 149.903 134.992 148.681 135.526 147.403C136.277 146.123 136.883 144.763 137.333 143.348C139.305 141.591 141.054 139.596 142.538 137.411C144.102 135.104 145.467 134.37 147.442 136.734C149.625 139.062 151.846 141.577 154.031 144.054C153.248 145.967 152.408 147.857 151.512 149.72ZM154.598 142.568C152.581 140.282 150.511 137.95 148.492 135.796C146.009 132.818 143.535 133.406 141.36 136.616C140.39 138.068 139.29 139.428 138.072 140.679C139.559 135.331 140.207 129.784 139.992 124.237C145.937 122.905 151.704 120.872 157.169 118.179C158.619 126.39 157.728 134.843 154.598 142.571V142.568Z" fill="#2F4147"/>
<path d="M151.637 131.902C148.656 131.902 148.971 128.055 150.631 127.225C151.007 126.996 151.453 126.908 151.888 126.977C152.323 127.045 152.72 127.265 153.008 127.599C154.333 129.148 153.37 131.902 151.637 131.902ZM150.868 130.032C150.904 130.147 150.973 130.249 151.066 130.326C151.158 130.403 151.271 130.452 151.391 130.467C151.511 130.481 151.633 130.46 151.741 130.406C151.849 130.352 151.939 130.268 151.999 130.163C152.139 129.908 152.206 129.62 152.194 129.33C152.181 129.04 152.089 128.759 151.927 128.517C151.492 127.999 150.516 128.978 150.868 130.032Z" fill="#2F4147"/>
<path d="M82.3136 80.652C82.28 82.757 82.6896 84.8456 83.5157 86.782C84.3418 88.7185 85.566 90.4595 87.1088 91.8921C87.201 91.9627 87.2758 92.0534 87.3278 92.1572C87.3797 92.2611 87.4073 92.3754 87.4085 92.4915C87.4085 92.6413 87.2586 92.6413 87.1088 92.6413C82.5289 94.6718 77.5816 95.7428 72.572 95.7882C71.8909 95.8562 71.2064 95.6982 70.6239 95.3386C68.6759 93.8401 68.8258 88.2957 68.2207 86.048C73.2967 85.4602 78.1431 83.6046 82.3136 80.652Z" fill="#E2FD86"/>
<path d="M72.2333 96.5346C67.694 96.5346 68.3259 89.1708 67.5428 86.2289C66.9957 84.2017 71.822 86.7944 81.9198 80.0639C82.0281 79.9917 82.1541 79.9509 82.2841 79.9458C82.4141 79.9406 82.543 79.9715 82.6565 80.0349C82.7701 80.0984 82.864 80.1919 82.9278 80.3053C82.9916 80.4186 83.0229 80.5474 83.0182 80.6774C82.9649 82.6827 83.345 84.6759 84.1326 86.5208C84.9201 88.3657 86.0966 90.019 87.5816 91.3676C88.376 92.1564 88.2884 93.2435 87.2706 93.3467C82.5274 95.4219 77.4105 96.5067 72.2333 96.5346ZM69.0752 86.6474C69.4738 88.9601 69.594 93.6549 71.0543 94.7788C71.4996 95.0757 72.0453 95.1845 72.5712 95.0813C77.3219 95.0457 82.0175 94.0599 86.3814 92.1819C83.5556 89.4948 81.8537 85.8364 81.6187 81.9441C77.8347 84.4161 73.5516 86.0221 69.0752 86.6474Z" fill="#2F4147"/>
<path d="M79.2943 87.9168C78.293 88.7883 77.0498 89.3337 75.7305 89.4804C75.8125 88.0087 74.6575 87.3598 73.7513 87.8122C73.4492 88.0823 73.2383 88.4395 73.1479 88.8346C73.0575 89.2296 73.092 89.643 73.2467 90.0176C73.4417 90.6042 73.839 90.9506 74.8158 90.9506C75.1707 90.9506 75.5255 90.9294 75.8775 90.887C75.784 90.9607 75.7106 91.0568 75.6641 91.1664C75.6177 91.2761 75.5997 91.3957 75.6118 91.5141C75.624 91.6326 75.6658 91.7461 75.7335 91.844C75.8012 91.942 75.8926 92.0212 75.9991 92.0744C76.5939 92.385 77.2769 92.483 77.935 92.3524C78.5931 92.2218 79.1869 91.8704 79.6181 91.3563C80.1751 90.4289 79.9899 89.568 80.3942 88.7608C80.4664 88.6142 80.4855 88.447 80.4484 88.2879C80.4112 88.1287 80.32 87.9873 80.1903 87.8878C80.0607 87.7883 79.9005 87.7368 79.7372 87.7421C79.5738 87.7474 79.4173 87.8092 79.2943 87.9168ZM78.4631 90.5477C77.998 91.1301 77.2601 91.0283 76.5589 90.7753C77.273 90.6325 77.9648 90.3948 78.6158 90.0684C78.5875 90.2353 78.5366 90.3964 78.4631 90.5477Z" fill="#2F4147"/>
<path d="M79.6159 110.48C83.2168 104.39 84.3937 97.1678 82.9126 90.2494C87.9508 89.0233 92.7238 86.8907 96.9984 83.9557C98.9531 87.5733 99.6888 91.7249 99.0963 95.7938C98.5503 99.8544 97.2275 103.772 95.2002 107.332C94.8986 107.818 94.5471 108.27 94.1513 108.682C93.7008 109.02 93.1932 109.274 92.6528 109.432C87.6943 111.126 82.6401 112.528 77.5166 113.627C79.1504 111.163 80.5554 108.554 81.7138 105.834L79.6159 110.48Z" fill="#E2FD86"/>
<path d="M77.5172 114.328C77.3886 114.328 77.2624 114.293 77.1524 114.226C77.0423 114.16 76.9524 114.064 76.8924 113.951C76.8323 113.837 76.8044 113.709 76.8117 113.58C76.8189 113.452 76.861 113.328 76.9334 113.222C78.5357 110.671 79.9776 108.023 81.2508 105.294C82.9575 100.515 83.2934 95.3535 82.2205 90.3936C82.1811 90.2125 82.2144 90.0231 82.3133 89.8663C82.4122 89.7095 82.5688 89.5978 82.7492 89.5553C87.703 88.3448 92.3967 86.2475 96.6032 83.3648C96.6849 83.3097 96.7773 83.2721 96.8743 83.2547C96.9714 83.2373 97.071 83.2403 97.1668 83.2636C97.2626 83.2869 97.3525 83.3299 97.4307 83.39C97.509 83.45 97.5738 83.5257 97.6211 83.6122C99.6467 87.3652 100.41 91.6709 99.7967 95.8914C99.2431 100.043 97.8893 104.047 95.8102 107.683C95.4787 108.221 95.09 108.721 94.6509 109.176C94.1074 109.601 93.4874 109.919 92.8245 110.111C87.814 111.832 82.7018 113.24 77.5172 114.328ZM79.8866 111.127C79.6038 111.63 79.3211 112.116 79.0384 112.57C83.0504 111.667 87.4497 110.413 92.4244 108.753C92.9051 108.613 93.3546 108.388 93.7533 108.087C94.0671 107.725 94.3512 107.339 94.6015 106.934C96.5775 103.463 97.8636 99.6427 98.3887 95.6836C98.9195 92.0278 98.3393 88.2969 96.7234 84.975C92.7379 87.6026 88.3494 89.5605 83.7317 90.771C85.0366 97.6641 83.7883 104.795 80.2159 110.834C80.1406 110.964 80.0251 111.067 79.8866 111.127Z" fill="#2F4147"/>
<path d="M88.6066 96.7947C88.439 96.7943 88.2771 96.7344 88.1495 96.6257C88.022 96.5169 87.9373 96.3665 87.9105 96.201C87.8837 96.0356 87.9165 95.8661 88.0031 95.7226C88.0896 95.5792 88.2244 95.4711 88.3832 95.4178C89.6994 94.9781 91.0551 94.3759 92.3656 93.7935C92.5369 93.7174 92.7315 93.7124 92.9064 93.7798C93.0814 93.8471 93.2225 93.9812 93.2986 94.1525C93.3747 94.3239 93.3796 94.5184 93.3123 94.6934C93.2449 94.8684 93.1109 95.0095 92.9395 95.0856C91.5343 95.75 90.0867 96.3211 88.6066 96.7947Z" fill="#2F4147"/>
<path d="M87.0091 98.5731C89.3422 97.7392 91.6171 96.7507 93.8187 95.6143C93.9009 95.5668 93.9917 95.5364 94.0859 95.5248C94.18 95.5132 94.2756 95.5207 94.3668 95.5467C94.458 95.5728 94.543 95.617 94.6167 95.6767C94.6905 95.7363 94.7515 95.8102 94.7961 95.8939C94.8407 95.9776 94.868 96.0695 94.8764 96.164C94.8848 96.2585 94.874 96.3537 94.8448 96.4439C94.8156 96.5342 94.7686 96.6176 94.7064 96.6893C94.6443 96.761 94.5684 96.8194 94.4832 96.8611C92.2279 98.0286 89.8967 99.0431 87.5053 99.8977C87.3296 99.9625 87.1354 99.9553 86.9649 99.8777C86.7945 99.8002 86.6615 99.6585 86.5949 99.4835C86.5622 99.3965 86.5471 99.304 86.5502 99.2111C86.5534 99.1183 86.5748 99.027 86.6133 98.9424C86.6517 98.8579 86.7065 98.7818 86.7744 98.7184C86.8423 98.655 86.9221 98.6056 87.0091 98.5731Z" fill="#2F4147"/>
<path d="M87.5221 101.4C89.1341 100.918 90.6963 100.282 92.1872 99.5019C92.2702 99.4603 92.3607 99.4355 92.4534 99.4289C92.546 99.4222 92.6391 99.4339 92.7272 99.4632C92.8154 99.4926 92.8969 99.539 92.9671 99.5998C93.0373 99.6607 93.0949 99.7348 93.1364 99.8178C93.178 99.9009 93.2028 99.9914 93.2095 100.084C93.2161 100.177 93.2044 100.27 93.1751 100.358C93.1457 100.446 93.0993 100.528 93.0385 100.598C92.9776 100.668 92.9036 100.726 92.8205 100.767C91.2461 101.589 89.5963 102.258 87.8939 102.765C87.8043 102.789 87.7108 102.796 87.6187 102.784C87.5266 102.772 87.4377 102.742 87.3571 102.696C87.2765 102.65 87.2057 102.589 87.1489 102.515C87.0921 102.442 87.0503 102.358 87.0258 102.268C87.0014 102.179 86.9949 102.085 87.0066 101.993C87.0184 101.901 87.0481 101.812 87.0942 101.732C87.1403 101.651 87.2018 101.58 87.2752 101.523C87.3486 101.467 87.4325 101.425 87.5221 101.4Z" fill="#2F4147"/>
<path d="M107.939 152.134C108.78 151.984 109.642 151.984 110.483 152.134C109.434 151.385 107.204 150.482 106.887 149.137C106.835 148.87 106.849 148.594 106.928 148.333C107.006 148.072 107.146 147.834 107.337 147.639C108.236 146.74 109.135 147.339 110.184 147.938C110.956 148.328 111.663 148.833 112.282 149.437C111.308 148.22 110.444 146.033 111.532 144.942C111.785 144.779 112.084 144.706 112.382 144.733C112.681 144.76 112.962 144.886 113.181 145.091C113.622 145.503 114.023 145.954 114.38 146.44C114.941 147.493 115.592 148.497 116.328 149.437C116.442 148.6 116.781 147.809 117.308 147.15C117.836 146.49 118.533 145.986 119.325 145.691C119.774 145.841 120.074 145.99 120.224 146.44C120.374 146.826 120.374 147.253 120.224 147.639C119.744 150.516 119.325 149.978 119.325 150.636C119.325 150.786 119.474 150.935 119.474 151.085C120.784 153.126 122.289 155.033 123.97 156.781C124.111 156.934 118.126 161.576 117.676 162.176L113.48 157.228C111.817 155.147 110.184 155.479 108.236 154.824C107.673 154.73 107.151 154.469 106.737 154.075C106.382 153.012 106.939 152.134 107.939 152.134Z" fill="#B1E400"/>
<path d="M147.014 167.574C138.262 166.921 129.845 163.933 122.641 158.92C124.659 157.257 124.664 157.183 124.682 156.823C124.689 156.632 124.622 156.446 124.494 156.303C122.825 154.555 121.338 152.64 120.057 150.591C120.517 149.747 120.803 148.819 120.898 147.862C121.094 147.331 121.094 146.748 120.898 146.217C120.219 144.181 117.462 144.847 116.091 147.913C115.49 146.674 114.676 145.549 113.688 144.59C113.367 144.275 112.95 144.077 112.504 144.025C112.057 143.974 111.606 144.073 111.222 144.307C110.807 144.662 110.509 145.135 110.37 145.664C110.231 146.193 110.256 146.752 110.444 147.266L110.373 147.225C109.403 146.668 108.077 145.903 106.839 147.137C106.563 147.415 106.361 147.757 106.25 148.133C106.138 148.508 106.121 148.905 106.2 149.289C106.502 150.197 107.135 150.957 107.974 151.419C107.531 151.436 107.1 151.567 106.723 151.799C106.32 152.126 106.049 152.588 105.96 153.099C105.872 153.61 105.971 154.136 106.239 154.58C106.728 155.055 107.345 155.375 108.015 155.5C110.094 156.193 111.415 155.83 112.944 157.684C117.359 163.044 117.205 162.87 117.687 162.87C118.213 162.779 117.829 162.87 120.232 160.891C128.022 166.503 137.214 169.85 146.789 170.561C147.186 170.593 147.58 170.465 147.883 170.207C148.034 170.079 148.157 169.922 148.247 169.746C148.336 169.57 148.39 169.377 148.405 169.18C148.42 168.983 148.395 168.785 148.333 168.598C148.271 168.41 148.172 168.237 148.043 168.088C147.914 167.938 147.756 167.816 147.58 167.728C147.403 167.639 147.211 167.587 147.014 167.573V167.574ZM117.738 161.145C113.373 156.002 113.163 155.478 111.464 154.911C110.058 154.655 108.683 154.247 107.365 153.695C107.318 153.478 107.342 153.251 107.431 153.048C108.363 152.698 109.376 152.622 110.35 152.828C110.51 152.864 110.678 152.842 110.824 152.767C110.97 152.693 111.085 152.569 111.15 152.419C111.215 152.268 111.225 152.1 111.18 151.942C111.134 151.785 111.034 151.648 110.899 151.556C109.768 150.75 106.559 149.419 107.841 148.136C108.238 147.739 108.511 147.786 109.666 148.45C110.444 148.836 111.157 149.337 111.787 149.935C111.914 150.063 112.086 150.137 112.267 150.142C112.448 150.147 112.624 150.083 112.758 149.962C112.893 149.841 112.977 149.674 112.991 149.494C113.006 149.313 112.951 149.134 112.838 148.993C112.146 148.128 111.327 146.369 111.967 145.518C112.428 145.327 112.614 145.518 112.688 145.592C113.083 145.959 113.445 146.359 113.771 146.788C114.353 147.878 115.028 148.914 115.79 149.887C115.875 149.988 115.986 150.063 116.112 150.104C116.237 150.146 116.371 150.152 116.5 150.121C116.628 150.091 116.745 150.024 116.838 149.93C116.93 149.836 116.994 149.717 117.023 149.588C117.656 146.735 120.177 145.452 119.532 147.52C119.453 148.298 119.242 149.057 118.907 149.764C118.729 150.01 118.632 150.305 118.628 150.608C118.624 150.912 118.714 151.21 118.886 151.46C120.111 153.337 121.49 155.109 123.008 156.758C121.838 157.786 118.88 160.136 117.738 161.145Z" fill="#2F4147"/>
<path d="M267.987 142.094C267.145 141.945 266.283 141.945 265.442 142.094C266.491 141.345 268.703 140.589 269.038 139.097C269.113 138.831 269.11 138.548 269.031 138.283C268.951 138.018 268.798 137.781 268.589 137.599C267.69 136.7 266.641 137.299 265.742 137.899C264.843 138.498 264.243 138.798 263.644 139.247C264.243 138.508 264.654 137.636 264.843 136.703C265.19 134.805 263.5 133.998 262.595 134.904C261.632 136.451 260.528 137.906 259.298 139.25C259.03 137.851 258.223 136.613 257.05 135.804C255.409 134.982 255.116 136.595 255.402 137.452C255.491 138.339 255.745 139.202 256.151 139.997C256.493 140.339 256.151 140.753 256.151 140.896C254.842 142.936 253.336 144.843 251.656 146.59C251.514 146.743 257.5 151.385 257.949 151.984C262.769 146.501 263.092 145.875 264.543 145.391C265.884 144.944 268.145 144.787 269.038 143.893C269.619 143.309 269.133 142.094 267.987 142.094Z" fill="#B1E400"/>
<path d="M268.033 141.385C268.851 140.926 269.457 140.164 269.721 139.264C269.824 138.879 269.82 138.473 269.708 138.09C269.596 137.708 269.381 137.363 269.087 137.094C268.571 136.661 267.913 136.436 267.24 136.462C266.567 136.488 265.928 136.764 265.448 137.236C266.203 134.267 263.522 132.965 262.092 134.394C260.209 136.28 260.942 135.966 259.58 137.821C258.427 135.135 255.549 133.567 254.728 136.018C254.536 136.514 254.527 137.062 254.702 137.564C254.797 138.545 255.1 139.493 255.592 140.347C254.331 142.419 252.842 144.344 251.153 146.084C251.083 146.156 251.029 146.241 250.993 146.334C250.957 146.427 250.94 146.527 250.943 146.627C250.962 146.986 250.966 147.061 252.998 148.733C246.327 154.569 238.143 158.401 229.389 159.789C229.193 159.819 229.004 159.886 228.834 159.989C228.664 160.091 228.516 160.226 228.398 160.386C228.22 160.627 228.119 160.915 228.108 161.214C228.096 161.513 228.175 161.809 228.333 162.063C228.438 162.231 228.575 162.376 228.736 162.492C229.063 162.723 229.469 162.815 229.864 162.748C239.344 161.247 248.191 157.049 255.348 150.656C256.304 151.442 257.231 152.211 257.384 152.401C257.449 152.483 257.531 152.55 257.623 152.599C257.716 152.648 257.817 152.677 257.921 152.684C258.385 152.708 258.326 152.868 262.848 147.473C263.259 146.97 263.767 146.554 264.341 146.25C264.915 145.946 265.544 145.759 266.191 145.701C267.411 145.594 268.573 145.137 269.539 144.385C270.396 143.534 270.145 141.723 268.033 141.385ZM267.314 143.972C265.523 144.57 263.566 144.312 261.762 146.573L257.903 150.964C256.758 149.953 253.789 147.598 252.621 146.581C254.138 144.931 255.517 143.159 256.742 141.283C256.815 141.203 256.855 141.099 256.855 140.992C256.976 140.769 257.027 140.516 257.003 140.264C256.979 140.013 256.881 139.774 256.721 139.578C256.377 138.835 256.157 138.041 256.069 137.227C256.019 137.108 255.992 136.98 255.992 136.851C255.992 136.722 256.019 136.594 256.069 136.475C256.192 136.106 256.317 136.202 256.479 136.296C257.033 136.634 257.509 137.086 257.874 137.622C258.24 138.159 258.487 138.766 258.6 139.406C258.628 139.529 258.689 139.642 258.775 139.734C258.862 139.826 258.971 139.894 259.092 139.93C259.213 139.965 259.342 139.967 259.464 139.936C259.587 139.904 259.699 139.841 259.789 139.752C260.658 138.822 261.393 137.775 261.974 136.642C262.308 136.195 262.68 135.781 263.087 135.401C263.551 134.941 264.376 135.385 264.137 136.584C263.978 137.401 263.616 138.164 263.084 138.805C262.977 138.939 262.923 139.108 262.93 139.28C262.938 139.452 263.008 139.615 263.126 139.739C263.247 139.862 263.408 139.937 263.579 139.951C263.751 139.964 263.921 139.915 264.059 139.813C264.379 139.574 264.697 139.38 265.066 139.155C266.556 138.248 267.416 137.432 268.081 138.098C268.209 138.196 268.303 138.332 268.349 138.487C268.395 138.642 268.391 138.807 268.337 138.959C268.096 140.042 266.036 140.797 265.024 141.519C264.89 141.612 264.792 141.749 264.747 141.905C264.702 142.062 264.713 142.23 264.778 142.379C264.842 142.529 264.957 142.652 265.101 142.727C265.246 142.802 265.412 142.825 265.572 142.791C266.368 142.657 267.181 142.662 267.975 142.805C268.436 142.801 269.303 143.467 267.314 143.972Z" fill="#2F4147"/>
<path d="M251.508 197.092C263.807 192.992 266.555 183.492 262.143 175.662C257.598 167.597 245.658 163.674 238.465 169.518C243.71 162.775 241.312 150.636 233.97 146.74C226.627 142.844 216.136 146.29 212.24 153.783C214.488 147.489 210.148 140.286 204.298 137C196.806 132.791 187.505 133.687 179.871 137.749C171.17 142.377 169.081 148.538 169.53 157.53C167.719 154.842 165.221 152.688 162.296 151.291C159.372 149.895 156.126 149.306 152.897 149.587C149.671 149.905 146.628 151.236 144.205 153.39C141.782 155.544 140.103 158.409 139.409 161.576C138.83 164.783 139.48 168.09 141.23 170.839C142.979 173.588 145.7 175.578 148.85 176.411C143.988 174.337 138.511 174.23 133.572 176.112C127.404 178.414 125.254 185.952 128.777 190.648C132.074 196.343 138.967 198.141 144.961 196.942C140.765 200.988 141.964 208.332 146.159 211.927C154.451 219.033 173.405 215.222 177.781 204.283C178.38 212.526 186.472 219.127 194.863 219.127C203.556 219.127 210.149 212.983 213.896 205.64C216.893 210.436 223.036 213.283 228.432 214.332C231.919 215.212 235.596 214.95 238.922 213.582C240.572 212.9 242.026 211.816 243.151 210.429C244.277 209.042 245.038 207.396 245.365 205.64C245.651 203.864 245.315 202.044 244.413 200.487C243.512 198.931 242.1 197.733 240.417 197.098C243.556 197.242 247.911 198.291 251.508 197.092Z" fill="white"/>
<path d="M194.856 219.828C186.647 219.828 179.165 213.967 177.417 206.593C171.621 216.295 153.873 219.476 145.693 212.464C141.593 208.953 140.287 202.328 143.233 197.903C137.748 198.421 131.378 196.56 128.158 190.998C124.406 186.075 126.625 177.807 133.329 175.447C136.438 174.233 139.796 173.792 143.113 174.164C141.375 172.579 140.062 170.585 139.293 168.362C138.525 166.14 138.326 163.76 138.714 161.44C139.483 158.148 141.251 155.174 143.775 152.925C146.3 150.677 149.458 149.263 152.817 148.879C155.8 148.629 158.801 149.09 161.572 150.222C164.344 151.355 166.809 153.127 168.764 155.394C168.735 147.813 170.862 141.757 179.538 137.12C188.048 132.616 197.431 132.337 204.643 136.376C209.609 139.178 213.715 144.867 213.549 150.598C218.583 144.704 227.734 142.623 234.303 146.109C241.242 149.785 243.867 160.154 240.594 167.338C248.203 163.704 258.604 167.826 262.763 175.313C267.395 183.416 264.536 193.488 251.737 197.758C248.991 198.459 246.126 198.565 243.335 198.069C248.891 203.09 245.519 211.64 239.192 214.224C235.726 215.653 231.891 215.927 228.257 215.005C222.133 213.814 216.883 210.853 213.979 206.988C209.447 215.169 202.535 219.828 194.856 219.828ZM178.478 204.234C179.043 211.921 186.535 218.414 194.856 218.414C205.433 218.414 211.255 209.252 213.26 205.312C213.316 205.201 213.402 205.107 213.507 205.04C213.612 204.972 213.734 204.934 213.859 204.928C213.983 204.923 214.107 204.951 214.218 205.009C214.329 205.068 214.422 205.154 214.488 205.26C216.999 209.276 222.263 212.406 228.56 213.632C231.911 214.489 235.449 214.241 238.648 212.925C240.184 212.275 241.536 211.257 242.586 209.96C243.636 208.664 244.35 207.13 244.667 205.492C244.908 203.881 244.593 202.236 243.773 200.829C242.952 199.422 241.677 198.337 240.156 197.753C240 197.693 239.87 197.578 239.79 197.431C239.711 197.283 239.686 197.112 239.722 196.948C239.758 196.784 239.851 196.639 239.983 196.537C240.116 196.435 240.28 196.382 240.447 196.389C243.707 196.545 247.865 197.563 251.28 196.425C257.722 194.277 261.703 190.657 263.111 185.664C265.989 172.413 248.314 162.43 238.912 170.07C238.778 170.187 238.604 170.249 238.426 170.244C238.248 170.238 238.079 170.165 237.952 170.04C237.826 169.914 237.752 169.746 237.744 169.568C237.735 169.391 237.794 169.216 237.908 169.08C242.921 162.634 240.538 151.02 233.639 147.36C226.684 143.671 216.606 146.916 212.867 154.105C212.783 154.263 212.643 154.384 212.474 154.444C212.305 154.503 212.12 154.497 211.956 154.426C211.792 154.354 211.661 154.222 211.59 154.058C211.52 153.893 211.514 153.708 211.574 153.539C213.739 147.48 209.397 140.682 203.95 137.609C197.165 133.806 188.283 134.09 180.201 138.368C171.372 143.085 169.832 149.424 170.236 157.489C170.242 157.642 170.199 157.793 170.113 157.92C170.027 158.047 169.903 158.143 169.758 158.193C169.613 158.243 169.455 158.243 169.309 158.195C169.163 158.147 169.037 158.053 168.949 157.928C167.195 155.357 164.791 153.296 161.983 151.955C159.175 150.612 156.062 150.036 152.959 150.285C149.897 150.637 147.018 151.926 144.716 153.975C142.413 156.025 140.8 158.735 140.095 161.736C139.665 164.308 140.049 166.951 141.193 169.295C142.336 171.64 144.182 173.57 146.473 174.815C147.38 175.07 148.267 175.386 149.131 175.764C149.289 175.836 149.415 175.962 149.485 176.12C149.556 176.278 149.567 176.457 149.516 176.622C149.463 176.787 149.351 176.927 149.202 177.015C149.053 177.104 148.877 177.135 148.707 177.103C147.764 176.899 146.851 176.578 145.989 176.146C141.975 175.039 137.711 175.257 133.831 176.769C132.125 177.368 130.638 178.466 129.564 179.921C128.491 181.377 127.881 183.122 127.813 184.929C127.768 186.128 127.964 187.325 128.388 188.447C130.948 194.85 138.059 197.601 144.822 196.249C144.972 196.22 145.127 196.24 145.265 196.305C145.403 196.371 145.516 196.479 145.587 196.614C145.657 196.75 145.682 196.904 145.657 197.055C145.633 197.206 145.561 197.344 145.451 197.451C141.6 201.165 142.693 208.027 146.619 211.391C154.499 218.144 172.895 214.595 177.123 204.023C177.186 203.879 177.294 203.76 177.431 203.683C177.569 203.607 177.727 203.579 177.882 203.602C178.038 203.625 178.181 203.7 178.289 203.815C178.397 203.929 178.463 204.077 178.478 204.234Z" fill="#2F4147"/>
</svg>
