<svg width="250" height="232" viewBox="0 0 250 232" fill="none" xmlns="http://www.w3.org/2000/svg">
<path d="M182.263 220.204C181.702 218.985 181.401 217.663 181.381 216.321L174.853 215.798C162.972 221.48 162.262 221.688 161.267 222.679C161.071 222.89 160.949 223.158 160.917 223.444C160.886 223.73 160.947 224.018 161.091 224.267C161.475 224.619 161.981 224.806 162.502 224.79C167.666 225.231 172.848 225.408 178.029 225.32C178.727 225.43 179.442 225.376 180.116 225.161C180.79 224.947 181.404 224.578 181.911 224.085C182.271 223.511 182.49 222.861 182.551 222.186C182.612 221.512 182.514 220.833 182.263 220.204Z" fill="#E2FD86"/>
<path d="M248.957 196.737C248.536 196.199 248.001 195.762 247.389 195.457C246.778 195.152 246.106 194.986 245.423 194.973C244.237 194.971 243.053 194.852 241.889 194.62L238.714 200.442C239.892 215.363 239.699 214.164 240.125 215.439C240.234 215.708 240.438 215.928 240.697 216.058C240.957 216.188 241.255 216.219 241.536 216.145C241.786 216.069 242.013 215.933 242.198 215.748C242.382 215.564 242.519 215.337 242.595 215.087C244.906 210.497 246.968 205.785 248.77 200.972C249.104 200.321 249.293 199.606 249.325 198.875C249.357 198.144 249.232 197.415 248.957 196.737Z" fill="#E2FD86"/>
<path d="M207.142 90.1681C205.907 78.6994 200.581 68.215 195.673 57.8798C194.163 54.4211 192.141 51.2094 189.675 48.3522C179.727 37.4882 164.244 40.072 164.091 40.0602C163.048 41.6499 161.491 42.8332 159.68 43.4123C161.621 44.6466 157.738 46.9464 157.033 47.47C146.149 58.3549 145.233 74.8499 133.567 87.5228C127.264 94.3262 120.289 100.474 112.747 105.871C114.335 107.989 116.453 109.929 118.217 111.87C118.591 112.413 119.159 112.793 119.805 112.929C120.037 112.935 120.267 112.891 120.48 112.8C120.694 112.708 120.884 112.571 121.039 112.399C136.092 102.077 148.185 91.2323 156.817 72.4689C159.059 77.3486 160.959 82.3783 162.503 87.5215C164.259 93.3462 165.678 99.6944 163.385 105.342C176.798 108.555 190.931 106.536 202.908 99.6957C204.146 99.1342 205.234 98.2879 206.083 97.2258C207.312 95.0903 207.69 92.5701 207.142 90.1681Z" fill="#B1E400"/>
<path d="M136.577 31.1609C136.577 31.1609 138.863 43.2749 146.558 45.4084C154.253 47.5419 159.123 43.7317 159.123 43.7317L160.554 44.8076C161.798 44.5233 162.905 43.8148 163.683 42.8037C164.299 41.8665 164.668 40.7906 164.759 39.6741L162.608 37.5719C162.843 35.4083 162.81 33.2237 162.509 31.0692C163.426 30.4587 164.112 29.5588 164.457 28.5131C164.803 27.4674 164.789 26.3361 164.416 25.2995C163.097 21.5835 161.337 21.3872 161.337 21.3872C153.358 25.3011 145.078 28.5695 136.577 31.1609Z" fill="white"/>
<path d="M146.27 41.2434C146.172 41.2436 146.075 41.2215 145.986 41.1788C145.897 41.1362 145.819 41.074 145.758 40.997C145.696 40.92 145.653 40.8301 145.631 40.7341C145.61 40.6381 145.61 40.5384 145.632 40.4424C146.297 37.5628 146.587 33.8978 145.984 33.2878C145.47 32.9473 144.938 32.6349 144.39 32.352C144.269 32.2972 144.169 32.2071 144.101 32.0936C144.034 31.9802 144.002 31.8489 144.011 31.7171C144.016 31.6293 144.039 31.5434 144.078 31.4647C144.117 31.3859 144.172 31.3159 144.239 31.259C144.34 31.1735 144.464 31.1203 144.595 31.1065C144.726 31.0927 144.859 31.119 144.975 31.1818C145.647 31.526 146.295 31.92 146.909 32.3598C148.434 33.8847 147.069 40.0366 146.909 40.7369C146.875 40.8806 146.793 41.0085 146.677 41.1004C146.561 41.1922 146.418 41.2426 146.27 41.2434Z" fill="#2F4147"/>
<path d="M166.97 15.9473C166.114 14.1541 161.127 13.5638 159.351 12.9708C154.757 11.4931 154.817 5.71421 150.898 2.66051C149.446 1.50584 147.694 0.790125 145.849 0.597655C141.862 -0.0659659 136.589 0.67619 133.743 4.73907C129.807 10.1527 132.679 17.8832 132.042 21.2196C131.604 23.5168 124.966 28.5653 126.806 32.0666C127.133 32.6517 127.644 33.1111 128.259 33.3755C130.539 34.8965 133.857 33.8271 136.453 32.9449C140.264 46.5406 151.876 50.4674 159.092 44.3338C159.631 44.9074 160.228 45.4237 160.873 45.8744C160.984 45.9594 161.12 46.0062 161.259 46.0076C161.399 46.009 161.535 45.965 161.648 45.8822C161.76 45.8022 161.844 45.6885 161.886 45.5576C161.93 45.4274 161.932 45.2867 161.891 45.1555C161.85 45.0243 161.769 44.9095 161.659 44.8273C161.072 44.4207 160.53 43.9535 160.042 43.4333C161.328 42.0906 162.296 40.4768 162.876 38.7107C164.288 40.123 164.283 40.1845 164.619 40.1845C164.749 40.1841 164.875 40.1456 164.982 40.074C165.09 40.0023 165.174 39.9005 165.224 39.7814C165.274 39.6619 165.288 39.5302 165.262 39.4031C165.237 39.276 165.175 39.1593 165.083 39.068L163.266 37.2473C163.679 35.3298 163.659 33.3454 163.203 31.437C166.419 29.6949 165.72 23.3623 163.254 21.7511C164.74 20.6935 168.084 18.2824 166.97 15.9473ZM162.894 30.0836C162.777 29.6407 162.646 29.2016 162.501 28.7668C162.325 28.0613 161.09 28.4147 161.266 29.1203C164.179 36.0379 160.806 43.3874 154.738 45.5288C147.016 47.8011 140.107 40.9974 137.677 32.5261C145.298 30.3191 152.678 27.3508 159.706 23.666C159.668 23.95 159.683 24.238 159.75 24.5155C159.772 24.6241 159.821 24.7253 159.893 24.8096C159.965 24.894 160.057 24.9587 160.16 24.9977C160.264 25.0367 160.376 25.0487 160.485 25.0326C160.595 25.0165 160.699 24.9728 160.787 24.9055C160.857 24.8519 160.916 24.7847 160.959 24.7081C161.003 24.6315 161.031 24.5468 161.042 24.4592C161.051 24.3712 161.043 24.2823 161.018 24.1974C160.976 23.9644 160.998 23.7244 161.08 23.5024C161.163 23.2805 161.303 23.0847 161.487 22.9356C163.461 21.4304 165.348 28.1634 162.894 30.0836Z" fill="#2F4147"/>
<path d="M155.046 38.1805C154.662 40.3208 153.508 42.2464 151.801 43.5939C151.735 43.6494 151.659 43.6915 151.577 43.7178C151.496 43.744 151.409 43.7538 151.324 43.7467C151.238 43.7395 151.154 43.7156 151.078 43.6762C151.001 43.6368 150.933 43.5827 150.878 43.517C150.822 43.4514 150.78 43.3754 150.754 43.2935C150.728 43.2115 150.718 43.1252 150.725 43.0395C150.732 42.9538 150.756 42.8703 150.796 42.7938C150.835 42.7173 150.889 42.6494 150.955 42.5938C152.413 41.4554 153.406 39.8231 153.745 38.0035C153.762 37.8743 153.817 37.753 153.903 37.6552C153.989 37.5573 154.102 37.4873 154.228 37.4542C154.354 37.4211 154.487 37.4263 154.61 37.4692C154.733 37.5121 154.841 37.5907 154.919 37.695C155.024 37.8336 155.069 38.0082 155.046 38.1805Z" fill="#2F4147"/>
<path d="M149.973 29.4213C149.877 29.4215 149.781 29.4002 149.694 29.3589C149.606 29.3176 149.529 29.2573 149.468 29.1825C149.407 29.1077 149.363 29.0202 149.339 28.9264C149.316 28.8325 149.314 28.7346 149.333 28.6399C149.358 28.513 149.42 28.3963 149.511 28.3048C151.124 26.6922 153.684 27.1647 153.229 28.3048C153.197 28.3849 153.15 28.458 153.09 28.5196C153.03 28.5812 152.958 28.6301 152.879 28.6634C152.72 28.7319 152.539 28.7343 152.378 28.67C152.034 28.5714 151.67 28.5717 151.327 28.6708C150.983 28.7699 150.675 28.9638 150.437 29.2302C150.313 29.3514 150.147 29.4199 149.973 29.4213Z" fill="#2F4147"/>
<path d="M140.8 35.5968C140.703 35.5968 140.607 35.5752 140.519 35.5336C140.432 35.492 140.354 35.4315 140.293 35.3563C140.232 35.2811 140.188 35.1932 140.165 35.099C140.141 35.0047 140.139 34.9065 140.159 34.8114C140.249 34.3037 140.455 33.8236 140.76 33.4079C141.066 32.9922 141.462 32.652 141.919 32.4135C142.075 32.3359 142.254 32.3232 142.419 32.3782C142.584 32.4332 142.72 32.5513 142.798 32.7067C142.875 32.862 142.888 33.0418 142.833 33.2065C142.778 33.3713 142.66 33.5074 142.504 33.585C142.226 33.7345 141.985 33.9459 141.801 34.203C141.616 34.4601 141.494 34.756 141.441 35.068C141.413 35.2172 141.334 35.3519 141.217 35.4485C141.099 35.5451 140.952 35.5976 140.8 35.5968Z" fill="#2F4147"/>
<path d="M132.048 21.649L132.263 20.3584C135.297 20.8492 138.405 20.556 141.294 19.505C147.052 17.9704 152.448 15.3057 157.166 11.6659L157.968 12.6986C153.127 16.4383 147.589 19.177 141.679 20.755C138.597 21.8695 135.282 22.1773 132.048 21.649Z" fill="white"/>
<path d="M249.57 196.507C249.544 196.438 249.507 196.374 249.46 196.317C248.978 195.706 248.367 195.209 247.67 194.864C246.972 194.518 246.207 194.332 245.429 194.319C244.401 194.311 243.376 194.221 242.363 194.05C242.377 193.984 242.381 193.916 242.375 193.849C242.163 191.735 239.202 190.108 237.925 189.018C229.062 181.033 217.068 171.178 214.136 155.34C211.518 140.038 217.918 114.701 207.365 96.341C207.61 95.7101 207.696 95.0287 207.617 94.3567C206.856 84.1584 204.646 74.1206 201.052 64.5461C198.293 56.6088 194.403 47.8247 186.492 42.8586C179.32 38.3494 170.898 38.3756 165.036 39.212C164.942 39.1442 164.831 39.1029 164.715 39.0922C164.599 39.0815 164.483 39.1019 164.377 39.1512C164.272 39.2006 164.182 39.2771 164.116 39.3729C164.05 39.4687 164.011 39.5803 164.002 39.6963C163.965 40.6894 163.611 41.6446 162.992 42.4219C162.373 43.1992 161.521 43.7578 160.561 44.0157C160.463 43.9887 160.361 43.9845 160.261 44.0033C160.161 44.0222 160.068 44.0636 159.986 44.1244C145.381 55.2502 145.417 73.2713 132.913 87.2466C126.598 93.979 119.659 100.096 112.187 105.516C112.117 105.567 112.057 105.632 112.011 105.706C111.966 105.78 111.936 105.863 111.923 105.949C111.909 106.035 111.914 106.123 111.935 106.207C111.956 106.292 111.994 106.371 112.046 106.441C113.761 108.52 115.58 110.511 117.495 112.409C117.958 113.09 118.665 113.565 119.469 113.739C119.791 113.779 120.118 113.743 120.425 113.635C120.731 113.527 121.008 113.349 121.233 113.115C134.656 103.907 145.525 94.426 153.817 79.6392C154.261 85.2086 154.096 90.8098 153.327 96.3436C156.612 97.2088 160.096 96.9025 163.18 95.4745C163.443 98.8515 163.295 102.246 162.739 105.586C162.712 105.745 162.745 105.909 162.831 106.046C162.918 106.182 163.052 106.282 163.208 106.325C163.492 106.405 163.776 106.481 164.06 106.556C162.608 125.124 160.099 142.514 161.143 160.956C162.211 179.906 165.63 198.65 171.323 216.756C162.357 221.052 161.862 221.129 160.721 222.311C160.44 222.646 160.278 223.065 160.261 223.502C160.244 223.939 160.372 224.369 160.626 224.725C160.867 224.963 161.154 225.149 161.469 225.273C161.784 225.397 162.121 225.455 162.459 225.445C167.611 225.886 172.781 226.06 177.95 225.968C178.768 226.09 179.603 226.015 180.387 225.751C181.171 225.487 181.881 225.04 182.458 224.447C182.88 223.784 183.137 223.029 183.208 222.246C183.28 221.462 183.163 220.674 182.868 219.945C182.493 219.112 182.236 218.231 182.104 217.327C182.2 217.324 182.294 217.301 182.38 217.258C182.465 217.216 182.541 217.155 182.6 217.08C182.66 217.005 182.702 216.918 182.725 216.825C182.747 216.732 182.749 216.635 182.73 216.541C179.926 202.837 178.687 188.859 179.038 174.875C179.378 161.822 180.038 146.762 183.619 133.158C183.936 131.409 184.625 129.749 185.637 128.288C186.016 127.704 186.528 127.217 187.13 126.867C187.732 126.516 188.408 126.313 189.103 126.272C188.878 130.917 191.471 148.844 191.506 149.039C193.291 158.625 197.127 167.71 202.753 175.674C208.379 183.637 215.66 190.289 224.098 195.173C228.441 197.867 233.123 199.968 238.021 201.422C238.231 201.481 238.08 200.435 239.14 213.857C239.173 214.472 239.305 215.078 239.533 215.651C239.697 216.085 240.019 216.441 240.434 216.649C240.849 216.857 241.327 216.9 241.773 216.772C242.107 216.672 242.41 216.494 242.66 216.252C242.911 216.011 243.1 215.714 243.213 215.384C245.525 210.795 247.587 206.083 249.388 201.27C249.757 200.536 249.964 199.73 249.996 198.908C250.027 198.087 249.882 197.268 249.57 196.507ZM120.406 112.117C120.32 112.218 120.214 112.3 120.094 112.358C119.975 112.416 119.845 112.448 119.712 112.452C119.228 112.329 118.808 112.029 118.534 111.611C116.92 109.836 115.013 108.058 113.512 106.184C120.846 100.81 127.667 94.7686 133.888 88.138C143.539 77.3525 145.586 65.0932 152.189 54.7449C151.603 57.135 152.13 59.8497 152.279 61.944C152.66 66.9309 153.272 72.1823 153.659 77.2229C145.354 92.8226 134.281 102.577 120.406 112.117ZM180.801 217.428C180.942 218.477 181.234 219.5 181.669 220.466C181.87 220.975 181.955 221.524 181.918 222.07C181.881 222.617 181.722 223.149 181.454 223.627C181.002 224.057 180.455 224.376 179.857 224.558C179.26 224.74 178.628 224.779 178.013 224.674C172.839 224.761 167.664 224.586 162.509 224.15C162.199 224.157 161.895 224.069 161.637 223.899C161.557 223.78 161.438 223.6 161.731 223.137C162.604 222.263 163.065 222.157 171.874 217.943C172.123 218.091 171.438 218.091 180.794 217.424L180.801 217.428ZM204.819 97.4077C199.063 101.692 192.413 104.62 185.366 105.973C178.319 107.326 171.057 107.068 164.124 105.219C164.82 100.552 164.773 95.803 163.985 91.1498C162.761 76.9258 151.586 64.1312 157.295 48.2435C158.318 47.19 159.422 46.2184 160.598 45.3377C160.647 45.3386 160.696 45.3328 160.744 45.3207C161.885 45.0563 162.92 44.4568 163.717 43.5994C164.515 42.742 165.037 41.6658 165.218 40.5091C170.862 39.7028 178.962 39.6675 185.797 43.966C193.366 48.7187 197.132 57.2541 199.822 64.9885C203.377 74.4616 205.564 84.3933 206.315 94.4836C206.379 95.0641 206.271 95.6506 206.004 96.1698C205.736 96.6891 205.322 97.1183 204.813 97.4038L204.819 97.4077ZM248.173 200.748C246.367 205.567 244.303 210.286 241.991 214.884C241.947 215.037 241.865 215.177 241.752 215.29C241.64 215.402 241.5 215.485 241.347 215.53C241.232 215.548 241.113 215.53 241.008 215.477C240.903 215.425 240.817 215.341 240.762 215.238C240.37 214.044 240.534 215.238 239.383 200.396C239.377 200.323 239.359 200.251 239.329 200.184C240.274 198.541 241.07 196.895 241.816 195.278C244.926 196.006 246.51 194.925 248.383 197.077C248.61 197.668 248.708 198.301 248.671 198.934C248.634 199.566 248.462 200.183 248.167 200.744L248.173 200.748Z" fill="#2F4147"/>
<path d="M154.569 119.456C154.364 117.299 153.367 115.293 151.771 113.827C150.174 112.361 148.091 111.538 145.924 111.517H55.8283L46.4041 95.6381C45.8231 94.6089 44.9762 93.7547 43.952 93.165C42.9278 92.5753 41.7639 92.2717 40.5821 92.2859H6.53062C5.64898 92.4001 4.79859 92.6873 4.02828 93.1311C3.25797 93.5749 2.58293 94.1665 2.04194 94.8719C1.50094 95.5773 1.10465 96.3827 0.875828 97.2418C0.647005 98.1008 0.59016 98.9966 0.708558 99.8777L13.7637 230.795H165.502L154.569 119.456Z" fill="#E2FD86"/>
<path d="M166.218 231.445L155.208 119.382C154.973 117.069 153.897 114.923 152.183 113.353C150.47 111.782 148.239 110.896 145.914 110.863H56.2011L46.9759 95.3082C46.3383 94.1795 45.4089 93.243 44.2852 92.5966C43.1615 91.9502 41.8847 91.6178 40.5884 91.6341H6.43744C4.49418 91.9032 2.73509 92.9269 1.54106 94.4835C0.347033 96.0401 -0.185852 98.0043 0.0577848 99.951C2.2476 116.538 0.345746 100.082 13.1705 231.445H166.218ZM6.53038 92.9404H40.5831C41.6511 92.9277 42.7027 93.2024 43.628 93.7358C44.5533 94.2691 45.3181 95.0414 45.8424 95.9719L54.6789 110.863H2.69918L1.35492 99.7795C1.14554 98.1881 1.5712 96.5783 2.53978 95.2983C3.50836 94.0184 4.94197 93.1713 6.53038 92.9404ZM145.917 112.172C147.919 112.204 149.839 112.97 151.313 114.325C152.787 115.68 153.712 117.529 153.912 119.521L164.776 230.136H14.3577L2.83923 112.172H145.917Z" fill="#2F4147"/>
<path d="M165.502 230.79H13.7637L46.7588 144.512C48.6987 138.336 51.34 135.336 56.4631 135.336H188.795C194.44 135.336 201.146 138.16 198.499 145.746L165.502 230.79Z" fill="white"/>
<path d="M165.95 231.445H12.8135L46.1477 144.277C48.2851 137.471 51.2773 134.682 56.4619 134.682H188.793C196.24 134.682 201.621 138.789 199.115 145.962L165.95 231.445ZM14.7153 230.136H165.054L197.886 145.51C198.328 144.535 198.52 143.465 198.447 142.397C198.374 141.329 198.038 140.295 197.468 139.389C195.689 136.883 191.82 135.985 188.792 135.985H56.4619C51.9003 135.985 49.3545 138.431 47.3833 144.703L14.7153 230.136Z" fill="#2F4147"/>
<path d="M81.3861 123.644C86.4555 120.95 89.1794 113.989 87.5877 107.798C86.216 102.463 82.1754 97.3344 76.2132 93.3593C70.9776 89.8736 64.7642 87.5555 59.0141 84.9416C42.9877 77.596 33.0151 68.0239 29.3724 56.4884C27.8619 51.7868 27.7048 45.0341 32.2402 41.4856C34.3605 39.9471 36.9578 39.2106 39.5701 39.407C47.9262 39.7696 54.1829 46.3953 60.4238 51.9203C63.3126 54.4792 73.3821 62.4571 81.7185 57.6651C91.4242 51.7763 91.3168 28.2158 72.7341 18.0494C72.5994 17.9777 72.494 17.8612 72.4359 17.72C72.3779 17.5789 72.3709 17.4219 72.4162 17.2761C72.4614 17.1303 72.5561 17.0049 72.684 16.9215C72.8118 16.8381 72.9647 16.8018 73.1163 16.8191C73.2031 16.8298 73.2867 16.8579 73.3624 16.9015C78.1305 19.4266 82.134 23.1845 84.9556 27.7833C87.7772 32.3822 89.3135 37.6537 89.4045 43.0484C89.6192 50.1048 86.9948 55.9936 82.3861 58.7921C73.2839 64.0278 62.6123 55.6049 59.5573 52.902C53.5533 47.5812 47.3752 41.0576 39.4955 40.7146C37.1929 40.5379 34.9019 41.1814 33.0282 42.5314C29.0425 45.6506 29.2323 51.7894 30.6198 56.0931C34.1538 67.2634 43.883 76.5672 59.5573 83.7518C65.3165 86.3696 71.5915 88.7061 76.9397 92.2716C83.1714 96.4261 87.4032 101.827 88.8508 107.473C90.6166 114.337 87.6728 121.786 81.996 124.801C81.8434 124.875 81.6679 124.886 81.5068 124.833C81.3458 124.78 81.2118 124.666 81.1335 124.515C81.0547 124.366 81.037 124.191 81.0841 124.029C81.1312 123.866 81.2394 123.728 81.3861 123.644Z" fill="#2F4147"/>
<path d="M72.6963 5.19981C69.5837 6.06893 66.0405 6.76004 63.4671 9.04148C63.1631 8.51588 62.6703 8.12585 62.0889 7.95078C61.5075 7.7757 60.8812 7.82872 60.3375 8.09906C59.4867 7.58204 59.8139 6.65925 60.5208 6.65925C60.6943 6.65925 60.8608 6.5903 60.9835 6.46756C61.1063 6.34483 61.1752 6.17837 61.1752 6.00479C61.1752 5.83122 61.1063 5.66475 60.9835 5.54202C60.8608 5.41928 60.6943 5.35033 60.5208 5.35033C60.0988 5.3557 59.6891 5.4925 59.3485 5.74167C59.008 5.99085 58.7536 6.34001 58.6208 6.74054C58.488 7.14107 58.4834 7.57304 58.6077 7.9763C58.7319 8.37957 58.9788 8.73406 59.3139 8.99043L59.2878 9.03493C58.9067 8.9417 58.507 8.95871 58.1352 9.08398C57.7634 9.20924 57.4349 9.43761 57.188 9.74244C56.941 10.0473 56.7858 10.416 56.7405 10.8057C56.6951 11.1954 56.7614 11.5899 56.9317 11.9433C57.0124 12.093 57.1483 12.2054 57.3104 12.2567C57.4726 12.308 57.6483 12.2941 57.8004 12.2181C57.9525 12.142 58.0691 12.0097 58.1253 11.8492C58.1816 11.6887 58.1732 11.5127 58.1019 11.3583C57.9134 10.98 58.0181 10.781 58.132 10.6514C58.2706 10.5108 58.4442 10.4096 58.635 10.3586C58.8258 10.3075 59.0267 10.3083 59.2171 10.3609C59.3894 10.8034 59.6694 11.196 60.0316 11.5032C60.3939 11.8103 60.8269 12.0223 61.2917 12.12C61.6268 12.1397 61.9632 12.1057 62.2865 12.018C62.0152 13.1614 61.912 14.3383 61.9802 15.5115L61.8061 21.3571C61.8061 21.5021 61.8542 21.6429 61.9429 21.7576C62.0317 21.8723 62.1559 21.9542 62.2963 21.9906C62.4366 22.027 62.5851 22.0158 62.7183 21.9587C62.8516 21.9016 62.9621 21.8019 63.0326 21.6751C64.8389 20.0482 66.3755 19.1764 66.9122 16.323C67.6418 16.4448 68.3912 16.3398 69.0593 16.0222C69.7273 15.7046 70.2818 15.1896 70.6478 14.5468C70.8714 13.951 70.945 13.3094 70.8621 12.6785C70.7793 12.0476 70.5425 11.4468 70.1727 10.9289C70.7645 10.5128 71.2673 9.98284 71.6518 9.37002C72.3507 8.33204 72.9607 7.23648 73.4738 6.09511C73.5244 5.98137 73.5415 5.85557 73.5231 5.73245C73.5047 5.60934 73.4516 5.49403 73.3699 5.40005C73.2883 5.30606 73.1816 5.2373 73.0623 5.20184C72.943 5.16637 72.816 5.16567 72.6963 5.19981ZM69.479 13.9695C69.2377 14.3836 68.8695 14.709 68.4289 14.8976C67.9884 15.0862 67.4988 15.128 67.0326 15.0167C67.0313 14.719 67.0112 14.4217 66.9724 14.1266C66.6528 13.2738 66.1229 12.5156 65.4318 11.9224C66.6382 12.1459 67.8833 12.0187 69.0195 11.5559C69.2897 11.8878 69.4731 12.2817 69.5533 12.7021C69.6335 13.1225 69.608 13.5562 69.479 13.9643V13.9695Z" fill="#2F4147"/>
<path d="M177.146 132.513C177.124 133.922 176.779 135.307 176.136 136.562C175.494 137.816 174.571 138.906 173.44 139.747C172.951 140.108 172.418 140.405 171.853 140.629C171.604 140.656 171.354 140.593 171.147 140.453C171.046 140.284 171.009 140.085 171.041 139.891C171.073 139.698 171.174 139.522 171.324 139.395L172.029 138.16C171.684 138.961 171.151 139.668 170.475 140.22C169.799 140.773 169.001 141.155 168.147 141.335H167.624C167.27 141.16 167.27 140.453 167.624 140.101C168.147 139.395 168.683 138.513 169.211 137.806C168.558 138.831 167.555 139.584 166.388 139.924C165.855 140.089 165.154 140.101 164.977 139.571C164.486 138.098 168.152 136.714 168.152 133.572C166.559 134.369 167.307 134.525 166.388 134.984C165.603 135.769 164.61 134.644 164.977 134.277C165.145 133.175 165.71 132.171 166.565 131.455C167.763 130.253 169.304 129.452 170.976 129.161L171.152 128.984L177.146 132.513Z" fill="white"/>
<path d="M167.62 141.989C167.378 141.943 167.157 141.821 166.989 141.641C166.821 141.461 166.714 141.233 166.684 140.988C166.663 140.826 166.677 140.661 166.725 140.505C165.723 140.83 164.671 140.732 164.353 139.777C164.281 139.478 164.279 139.165 164.347 138.865C164.415 138.564 164.552 138.283 164.745 138.043C164.978 137.721 165.242 137.423 165.531 137.15C166.065 136.622 166.542 136.039 166.956 135.412C166.896 135.452 166.833 135.49 166.769 135.523C165.472 136.652 163.795 135.064 164.358 134.023C164.579 132.818 165.216 131.728 166.156 130.943C167.414 129.732 168.983 128.894 170.689 128.522C170.814 128.412 170.977 128.354 171.143 128.36C171.309 128.365 171.468 128.434 171.585 128.551C171.703 128.669 171.772 128.827 171.777 128.994C171.782 129.16 171.724 129.322 171.615 129.447C171.388 129.674 171.323 129.759 171.104 129.802C169.56 130.071 168.137 130.809 167.028 131.917C166.266 132.576 165.76 133.482 165.6 134.476C165.731 134.618 165.838 134.607 165.926 134.521C166.133 134.313 166.294 134.415 166.509 133.985C166.874 133.55 167.337 133.208 167.861 132.987C167.96 132.937 168.071 132.913 168.183 132.918C168.294 132.923 168.402 132.956 168.497 133.015C168.592 133.073 168.671 133.155 168.725 133.253C168.779 133.35 168.807 133.46 168.807 133.572C168.807 136.784 165.334 138.574 165.598 139.364C166.151 139.327 166.689 139.169 167.174 138.9C167.659 138.632 168.078 138.26 168.403 137.81L168.688 137.417C168.788 137.276 168.94 137.18 169.111 137.15C169.282 137.121 169.458 137.161 169.6 137.261C169.741 137.361 169.837 137.513 169.867 137.684C169.896 137.855 169.856 138.031 169.756 138.173C167.903 140.953 167.907 140.683 168.153 140.683C169.266 140.422 170.245 139.76 170.901 138.823L171.464 137.838C171.548 137.692 171.684 137.584 171.844 137.536C172.005 137.488 172.178 137.504 172.327 137.579C172.477 137.655 172.592 137.785 172.648 137.943C172.705 138.101 172.698 138.275 172.63 138.428C172.396 138.931 172.114 139.411 171.789 139.86C171.175 140.478 176.494 137.999 176.494 132.517C176.494 132.343 176.564 132.176 176.685 132.053C176.809 131.932 176.975 131.863 177.149 131.863C177.322 131.863 177.489 131.932 177.612 132.053C177.734 132.177 177.803 132.343 177.803 132.517C177.787 134.027 177.42 135.513 176.733 136.858C176.046 138.202 175.056 139.37 173.842 140.268C173.249 140.728 172.575 141.073 171.856 141.287C171.642 141.312 171.426 141.29 171.221 141.224C171.017 141.157 170.829 141.048 170.671 140.902C169.964 141.435 169.146 141.804 168.278 141.98L167.62 141.989Z" fill="#2F4147"/>
<path d="M178.383 132.69C189.541 110.667 192.807 90.5909 192.145 68.8145C191.999 64.05 193.154 48.5393 187.171 46.572C185.581 46.0485 181.841 46.5197 180.607 47.7501C176.724 51.6323 180.154 66.8707 180.154 71.6339C180.088 78.3028 179.617 84.9599 178.741 91.5713C178.357 94.7441 171.15 129.683 169.037 128.976C172.222 130.031 175.342 131.271 178.383 132.69Z" fill="#B1E400"/>
<path d="M205.2 78.3473C203.954 70.1992 201.328 62.3229 197.437 55.0564C195.49 51.5992 193.119 48.3986 190.379 45.5288C187.513 42.8316 183.981 40.9444 180.146 40.0602C178.028 39.5301 174.853 38.2944 172.912 39.3534C170.442 40.7657 169.912 44.4699 169.736 46.9451C168.807 59.0224 172.019 71.4807 176.441 91.0556C177.083 91.0673 177.725 91.0438 178.365 90.9875C176.694 103.932 173.413 116.617 168.597 128.748C168.565 128.831 168.549 128.92 168.552 129.009C168.555 129.097 168.576 129.185 168.613 129.266C168.651 129.346 168.704 129.418 168.771 129.477C168.837 129.537 168.915 129.582 168.999 129.61C172.122 130.575 175.158 131.801 178.075 133.275C178.153 133.315 178.237 133.339 178.324 133.347C178.41 133.354 178.498 133.345 178.581 133.318C178.663 133.291 178.74 133.249 178.807 133.192C178.873 133.136 178.927 133.067 178.967 132.989C185.862 119.629 190.296 105.137 192.056 90.2061C195.36 88.1642 207.171 84.2584 205.2 78.3473ZM178.091 131.803C175.499 130.534 172.818 129.458 170.067 128.584C179.469 104.646 182.85 78.7658 179.913 53.2161C179.91 53.1851 179.903 53.1544 179.895 53.1245C180.238 51.9318 180.934 50.8711 181.892 50.0822C182.85 49.2933 184.025 48.8133 185.261 48.7056C186.195 48.7736 187.099 49.0655 187.897 49.5567C188.694 50.0479 189.362 50.724 189.843 51.5276C190.031 51.7972 190.206 52.0747 190.366 52.3627C193.182 80.4245 192.015 103.664 178.091 131.803Z" fill="#2F4147"/>
<path d="M143.387 38.2683C141.905 38.0327 141.498 35.3441 142.588 34.8651C143.679 34.386 145.409 35.9004 145.117 37.2211C144.825 38.5431 143.997 38.3664 143.387 38.2683Z" fill="#2F4147"/>
<path d="M152.31 33.0588C150.829 32.8219 150.421 30.1347 151.513 29.6556C152.605 29.1765 154.333 30.6923 154.041 32.0117C153.749 33.331 152.92 33.1517 152.31 33.0588Z" fill="#2F4147"/>
<path d="M117.507 111.517C115.131 109.064 112.746 106.048 112.746 106.048C108.588 106.804 105.301 108.028 103.258 111.517H107.673C107.611 111.866 107.597 112.223 107.63 112.575C107.806 113.458 108.331 114.496 109.394 114.34C110.563 114.17 110.763 112.336 111.606 111.517H117.507Z" fill="white"/>
<path d="M117.976 111.062C113.322 106.255 113.446 105.252 112.629 105.404C108.345 106.183 104.868 107.473 102.693 111.187C102.635 111.286 102.604 111.399 102.604 111.514C102.603 111.63 102.633 111.743 102.69 111.843C102.747 111.943 102.83 112.026 102.93 112.084C103.029 112.142 103.142 112.172 103.258 112.172H106.967C106.946 113.65 107.953 115.214 109.475 114.989C110.953 114.772 111.29 113.007 111.906 112.172H117.506C117.635 112.172 117.761 112.134 117.868 112.063C117.975 111.992 118.059 111.891 118.109 111.773C118.159 111.655 118.173 111.524 118.15 111.398C118.126 111.271 118.066 111.155 117.976 111.062ZM109.286 113.695C108.606 113.795 108.335 112.769 108.281 112.517C108.231 111.696 108.457 110.883 108.923 110.206C109.388 109.529 110.067 109.027 110.851 108.78C110.934 108.753 111.012 108.709 111.078 108.651C111.145 108.594 111.199 108.523 111.237 108.444C111.276 108.365 111.298 108.279 111.303 108.191C111.307 108.103 111.294 108.016 111.264 107.933C111.234 107.85 111.188 107.775 111.128 107.71C111.067 107.646 110.995 107.595 110.915 107.559C110.834 107.523 110.748 107.504 110.66 107.503C110.572 107.501 110.484 107.517 110.403 107.551C109.641 107.81 108.951 108.245 108.388 108.82C107.826 109.396 107.407 110.096 107.165 110.863H104.481C105.253 109.832 106.248 108.989 107.391 108.397C109.005 107.625 110.716 107.075 112.479 106.764C113.511 108.04 114.575 109.289 115.671 110.51C112.094 110.51 112.187 110.497 112.056 110.53C110.36 110.954 110.171 113.565 109.286 113.695Z" fill="#2F4147"/>
<path d="M143.639 45.8364C144.101 45.8364 144.558 45.7455 144.985 45.5688C145.412 45.392 145.799 45.133 146.126 44.8065C146.452 44.48 146.711 44.0923 146.888 43.6657C147.065 43.2391 147.156 42.7818 147.156 42.32C147.156 41.8582 147.065 41.401 146.888 40.9744C146.711 40.5477 146.452 40.1601 146.126 39.8336C145.799 39.507 145.412 39.248 144.985 39.0713C144.558 38.8946 144.101 38.8036 143.639 38.8036C142.707 38.8036 141.812 39.1741 141.153 39.8336C140.494 40.493 140.123 41.3874 140.123 42.32C140.123 43.2526 140.494 44.147 141.153 44.8065C141.812 45.466 142.707 45.8364 143.639 45.8364Z" fill="#FF5470"/>
<path d="M159.945 35.1072C161.054 35.1072 162.118 34.6666 162.902 33.8824C163.686 33.0981 164.127 32.0344 164.127 30.9252C164.127 29.8161 163.686 28.7524 162.902 27.9681C162.118 27.1839 161.054 26.7433 159.945 26.7433C158.836 26.7433 157.772 27.1839 156.988 27.9681C156.203 28.7524 155.763 29.8161 155.763 30.9252C155.763 32.0344 156.203 33.0981 156.988 33.8824C157.772 34.6666 158.836 35.1072 159.945 35.1072Z" fill="#FF5470"/>
</svg>
