<svg width="250" height="242" viewBox="0 0 250 242" fill="none" xmlns="http://www.w3.org/2000/svg">
<path d="M28.2151 31.6599C33.2401 23.0751 39.7486 20.5009 46.7749 20.5009L20.1494 12.2893C19.2749 12.0223 18.3503 11.9631 17.4489 12.1164C16.5476 12.2697 15.6945 12.6313 14.9575 13.1724C4.9969 19.1776 0.0415692 31.6389 0.741965 43.2973C0.803202 44.1589 1.06073 44.9951 1.49484 45.742C1.92895 46.4888 2.52814 47.1264 3.24657 47.6061C5.71044 49.3038 29.541 65.0976 31.0876 66.0555C23.3925 58.9004 21.0784 43.8492 28.2151 31.6599Z" fill="#F2F4F8"/>
<path d="M63.0523 41.3813C62.5674 32.8267 58.5844 24.531 49.4727 21.3418C55.4333 24.4272 62.3584 36.5455 58.1232 50.8911C54.4438 63.3445 44.6843 69.9359 36.8604 69.2092C51.658 74.1409 63.9629 57.4023 63.0523 41.3813Z" fill="#F2F4F8"/>
<path d="M55.6361 23.7436C53.9297 22.3088 51.929 21.2662 49.7754 20.6898L20.3837 11.603C19.4666 11.3232 18.4988 11.2506 17.5502 11.3906C16.6016 11.5306 15.696 11.8797 14.8988 12.4125C4.7963 18.4703 -0.557192 30.7108 0.0459634 42.7581C0.207593 46.6202 2.23125 47.8383 5.47304 49.9447C28.5585 64.9369 33.6295 68.3929 34.9738 69.1301C37.2359 70.2191 39.7171 70.7768 42.2277 70.7607C44.7383 70.7445 47.212 70.1549 49.46 69.0368C65.506 61.3022 68.8096 34.3928 55.6361 23.7436ZM3.43493 47.2614C2.76212 46.8052 2.20031 46.2037 1.79093 45.5014C1.38155 44.7991 1.13506 44.0139 1.06962 43.2036C0.399447 31.6083 5.14321 19.5097 15.1301 13.3809C18.0789 11.6109 19.4665 12.2732 23.004 13.4493C23.004 13.4493 39.1157 18.4099 39.4008 18.4953C22.8804 21.5465 14.6965 42.7726 22.2681 59.9342C16.1498 55.9132 4.32981 47.8764 3.43493 47.2614ZM29.3062 64.4849C28.6295 64.0644 24.8384 61.6189 23.8962 61.0039C17.0171 47.9947 20.5007 30.2009 32.0053 22.5794C34.9007 20.6874 38.2108 19.5238 41.6531 19.1878C42.6032 19.4821 44.506 20.0813 44.506 20.0813C41.7596 20.2482 39.0894 21.0511 36.7057 22.4256C23.3075 30.1392 19.1078 52.2772 29.3062 64.4849ZM55.6427 63.0946C50.9593 67.6649 45.6387 70.6347 39.2169 69.4021C49.5835 68.6347 57.7136 57.7069 59.3142 48.4874C60.6926 40.5452 58.983 28.5557 51.2984 22.4506C64.6177 28.1142 66.7071 50.7936 55.6427 63.0946Z" fill="#343A3F"/>
<path d="M63.0983 4.28258C62.8487 3.73338 62.4826 3.24508 62.0254 2.85161C61.5681 2.45813 61.0307 2.16889 60.4504 2.00399C54.3716 -0.455935 37.3321 -0.383662 30.683 0.789796C29.047 1.07758 28.4307 1.21687 27.0036 4.34828C23.4924 12.1932 19.4858 29.1972 17.4346 37.4627C16.9202 37.5183 16.4443 37.7617 16.0981 38.1462C15.7519 38.5307 15.5596 39.0294 15.5581 39.5468C15.5656 40.1015 15.7898 40.6312 16.1826 41.0228C16.5755 41.4145 17.1059 41.6369 17.6606 41.6427C18.1433 41.6361 18.609 41.4635 18.9796 41.154C19.3501 40.8446 19.6028 40.417 19.6953 39.9432C19.7877 39.4694 19.7144 38.9782 19.4874 38.5521C19.2605 38.126 18.8938 37.791 18.449 37.6033C19.2204 34.3957 26.5174 3.7241 29.4872 2.27863C32.6107 0.755631 56.9406 0.285197 61.3913 3.74907C64.4702 6.25761 60.8328 20.5297 59.8447 24.4048C59.3309 26.4587 58.9945 27.4955 58.8223 28.0619C58.6436 28.6493 59.5779 29.1591 59.7067 28.7347C61.0602 24.2064 65.1653 9.02897 63.0983 4.28258Z" fill="#343A3F"/>
<path d="M249.984 213.397C249.21 198.336 221.83 193.694 222.549 181.396C222.978 174.029 234.441 174.169 239.01 170.79C241.2 169.122 242.776 166.775 243.489 164.116C244.202 161.457 244.013 158.637 242.952 156.096C239.93 149.544 230.095 145.609 224.17 142.324C197.141 127.343 151.815 113.245 116.121 92.9017C92.5037 79.4417 84.777 67.8833 74.1015 60.9003C59.769 51.5245 42.6415 46.2892 24.9017 44.7334C24.9017 44.7334 23.062 58.6533 32.7453 66.5337C32.7453 66.5337 43.6297 72.5784 50.3117 105.387C55.3498 130.124 45.995 166.667 53.9911 196.752C61.1304 223.605 87.2014 230.169 105.548 227.319C117.55 225.454 130.333 218.514 142.596 220.726C152.171 222.454 161.263 228.761 170.216 232.51C188.613 240.215 212.015 246.177 229.801 237.15C231.271 236.405 250.646 226.287 249.984 213.397Z" fill="#DDE1E6"/>
<path d="M42.5407 114.959C42.5107 114.87 42.4538 114.793 42.3779 114.739C42.302 114.685 42.2109 114.655 42.1176 114.655C42.0242 114.655 41.9331 114.685 41.8572 114.739C41.7813 114.793 41.7244 114.87 41.6944 114.959C39.5735 120.74 30.5328 146.194 37.5328 149.354C45.3002 152.864 50.0926 140.162 42.5407 114.959Z" fill="#DDE1E6"/>
<path d="M152.616 104.06C155.996 105.732 170.882 112.788 173.239 108.737C175.853 104.243 168.377 100.119 152.653 103.544C152.602 103.563 152.557 103.596 152.524 103.64C152.491 103.683 152.471 103.736 152.468 103.79C152.464 103.845 152.476 103.899 152.502 103.947C152.528 103.995 152.568 104.034 152.616 104.06Z" fill="#DDE1E6"/>
<path d="M139.652 226.323C139.595 226.318 139.537 226.331 139.488 226.36C139.438 226.389 139.398 226.432 139.373 226.484C139.349 226.537 139.342 226.595 139.352 226.652C139.363 226.709 139.391 226.761 139.431 226.802C142.129 229.446 154.253 240.631 157.697 237.482C161.583 233.93 155.672 227.76 139.652 226.323Z" fill="#DDE1E6"/>
<path d="M187.341 183.827C187.159 183.613 182.5 177.469 181.744 176.535C180.494 177.535 172.228 183.799 172.096 183.9C172.253 184.084 176.78 190.063 177.694 191.191C179.02 190.13 187.094 184.014 187.341 183.827Z" fill="white"/>
<path d="M197.616 192.664C197.553 192.613 188.394 184.873 187.525 184.123L177.876 191.525L183.327 203.273L199.42 209.712C199.168 206.502 197.636 192.802 197.616 192.664Z" fill="white"/>
<path d="M214.409 207.064C214.476 207.195 214.718 207.508 216.288 209.569C217.131 208.942 217.965 208.303 218.791 207.654C218.165 206.81 217.527 205.975 216.877 205.149C216.084 205.825 215.26 206.464 214.409 207.064Z" fill="white"/>
<path d="M192.866 223.562C192.792 223.598 192.756 223.672 192.682 223.709L190.361 225.477C190.988 226.324 191.614 227.134 192.276 227.981C193.12 227.354 193.955 226.716 194.781 226.066C193.912 224.981 193.001 223.698 192.866 223.562Z" fill="white"/>
<path d="M201.041 209.164C199.784 210.106 199.192 210.574 198.574 211.042L200.452 213.546L202.957 211.631C202.536 211.087 201.423 209.641 201.041 209.164Z" fill="#DDE1E6"/>
<path d="M219.563 207.409C218.167 205.681 217.503 204.722 217.367 204.585C217.092 204.311 216.806 204.35 216.673 204.486C215.816 205.164 214.936 205.8 214.092 206.464C209.855 205.992 205.578 206.903 201.9 209.06C201.694 208.785 201.557 208.585 201.446 208.455C201.273 208.256 201.162 208.228 200.948 208.358C200.773 208.465 200.53 208.676 200.13 208.985C198.329 192.157 198.463 192.446 198.172 192.165C197.882 191.884 198.172 192.165 188.005 183.587C187.674 183.162 182.198 176.007 182.198 176.007C181.924 175.731 181.637 175.772 181.507 175.905L171.561 183.526C171.48 183.581 171.418 183.661 171.385 183.754C171.352 183.846 171.349 183.947 171.377 184.041C171.396 184.104 171.427 184.161 171.469 184.211C172.823 185.94 172.067 185.056 177.21 191.731C177.614 192.612 182.697 203.558 182.697 203.558C182.725 203.649 182.773 203.732 182.838 203.802C182.902 203.872 182.982 203.928 183.07 203.964L198.639 210.178L197.859 210.775C197.791 210.827 197.746 210.905 197.734 210.991C197.722 211.077 197.745 211.164 197.796 211.233L198.283 211.882C195.171 214.876 193.134 218.813 192.488 223.082C189.67 225.224 189.672 225.195 189.631 225.447C189.619 225.516 189.624 225.587 189.644 225.654C189.664 225.721 189.699 225.783 189.746 225.834C190.442 226.754 191.139 227.667 191.896 228.61C191.937 228.666 191.989 228.712 192.049 228.746C192.109 228.78 192.175 228.801 192.243 228.809C192.312 228.815 192.381 228.808 192.446 228.786C192.512 228.765 192.572 228.731 192.624 228.685C193.535 227.993 194.444 227.302 195.384 226.549C195.658 226.274 195.619 225.988 195.486 225.859C195.486 225.859 193.944 223.85 193.515 223.249C194.12 219.231 196.029 215.524 198.949 212.698C200.276 214.424 200.229 214.426 200.419 214.453C200.61 214.479 200.41 214.584 203.719 212.03C203.787 211.977 203.832 211.899 203.844 211.814C203.855 211.728 203.833 211.641 203.781 211.572L202.563 209.965C206.006 207.977 209.989 207.124 213.945 207.529C214.618 208.413 215.291 209.299 215.988 210.175C216.263 210.451 216.548 210.411 216.677 210.278C217.597 209.576 218.517 208.876 219.473 208.112C219.527 208.073 219.572 208.024 219.605 207.966C219.639 207.909 219.66 207.846 219.668 207.78C219.677 207.714 219.672 207.647 219.654 207.584C219.636 207.52 219.605 207.461 219.563 207.409ZM194.333 225.948C193.687 226.488 193.012 226.999 192.35 227.486C191.852 226.817 191.351 226.172 190.831 225.5L192.82 223.977C193.302 224.588 193.795 225.267 194.327 225.948H194.333ZM177.795 190.731L172.603 183.96C172.603 183.96 181.628 177.075 181.727 176.995L186.917 183.767L177.795 190.731ZM191.835 198.878C192.319 198.344 192.586 197.647 192.583 196.925C192.58 196.203 192.307 195.508 191.818 194.977C191.329 194.447 190.658 194.118 189.939 194.057C189.22 193.995 188.503 194.205 187.931 194.645C187.359 195.085 186.971 195.723 186.846 196.434C186.72 197.145 186.865 197.877 187.252 198.486C187.639 199.096 188.24 199.538 188.936 199.727C189.633 199.916 190.375 199.837 191.017 199.507C191.419 200.032 197.385 207.831 198.132 208.79C198.132 208.79 183.677 203.049 183.614 203.022C183.319 202.399 178.357 191.769 178.296 191.627L187.52 184.551C188.009 184.97 197.142 192.698 197.313 192.84L198.987 208.233L191.835 198.878ZM191.548 196.98C191.54 197.465 191.344 197.929 191.001 198.273C190.657 198.616 190.195 198.811 189.708 198.819C189.221 198.817 188.755 198.622 188.411 198.277C188.066 197.933 187.871 197.467 187.869 196.98C187.869 196.49 188.063 196.021 188.409 195.675C188.755 195.33 189.224 195.135 189.713 195.135C190.202 195.135 190.671 195.33 191.017 195.675C191.363 196.021 191.557 196.49 191.557 196.98H191.548ZM200.517 213.089L199.009 211.141C199.448 210.809 200.957 209.627 200.957 209.627L202.465 211.578L200.517 213.089ZM216.417 209.115C215.891 208.458 215.393 207.801 214.895 207.152C215.565 206.649 216.231 206.139 216.891 205.622C217.386 206.279 217.883 206.936 218.401 207.593C217.732 208.089 217.082 208.588 216.414 209.11L216.417 209.115Z" fill="#343A3F"/>
<path d="M220.565 116.471L183.922 107.228L164.51 153.96L203.361 164.455L220.565 116.471Z" fill="#F2F4F8"/>
<path d="M221.006 115.784L183.941 106.496C183.82 106.468 183.693 106.483 183.581 106.538C183.469 106.593 183.38 106.685 183.328 106.798L163.722 153.931C163.699 153.999 163.691 154.071 163.697 154.142C163.704 154.213 163.725 154.282 163.759 154.345C163.793 154.408 163.839 154.464 163.894 154.509C163.95 154.554 164.014 154.587 164.083 154.606C164.215 154.646 203.095 165.25 203.392 165.262C203.523 165.285 203.658 165.259 203.771 165.189C203.884 165.12 203.968 165.011 204.007 164.884L221.346 116.553C221.384 116.481 221.406 116.402 221.408 116.321C221.411 116.24 221.395 116.16 221.362 116.086C221.329 116.012 221.28 115.946 221.219 115.894C221.157 115.842 221.084 115.804 221.006 115.784ZM203.066 164.173L164.887 153.863C164.936 153.75 183.998 107.951 184.094 107.693C222.847 117.44 220.121 116.673 220.04 116.901L203.066 164.173Z" fill="#343A3F"/>
<path d="M214.021 121.171C213.913 120.739 214.093 120.891 186.28 113.897C186.19 113.881 186.099 113.888 186.013 113.918C185.927 113.947 185.85 113.998 185.789 114.065C185.728 114.132 185.685 114.213 185.663 114.302C185.642 114.39 185.644 114.482 185.667 114.569C185.777 115.003 185.47 115.489 213.41 121.843C213.499 121.859 213.591 121.851 213.677 121.822C213.763 121.793 213.84 121.743 213.901 121.676C213.962 121.609 214.005 121.527 214.025 121.439C214.046 121.351 214.045 121.259 214.021 121.171Z" fill="#343A3F"/>
<path d="M210.447 128.088L183.074 121.189C182.974 121.175 182.872 121.189 182.779 121.231C182.687 121.273 182.608 121.339 182.552 121.424C182.496 121.508 182.465 121.606 182.463 121.708C182.46 121.809 182.486 121.909 182.538 121.996C182.606 122.113 182.715 122.2 182.844 122.24L210.308 129.144C210.435 129.139 210.556 129.088 210.649 129.002C210.743 128.916 210.803 128.8 210.819 128.674C210.835 128.548 210.807 128.42 210.739 128.313C210.671 128.206 210.568 128.126 210.447 128.088Z" fill="#343A3F"/>
<path d="M182.852 129.533L199.815 133.454C199.947 133.453 200.073 133.404 200.171 133.316C200.268 133.228 200.331 133.108 200.346 132.978C200.361 132.848 200.329 132.716 200.254 132.608C200.179 132.5 200.068 132.423 199.94 132.392L183.124 128.493C183.024 128.474 182.921 128.483 182.826 128.521C182.731 128.558 182.649 128.622 182.589 128.704C182.529 128.786 182.494 128.884 182.487 128.985C182.481 129.087 182.504 129.188 182.553 129.278C182.617 129.397 182.723 129.488 182.852 129.533Z" fill="#343A3F"/>
<path d="M201.978 156.001L174.665 149.109C174.526 149.071 174.377 149.09 174.252 149.161C174.126 149.233 174.034 149.351 173.995 149.49C173.957 149.629 173.976 149.778 174.048 149.903C174.119 150.029 174.237 150.121 174.376 150.16L201.84 157.064C201.972 157.065 202.099 157.017 202.198 156.931C202.298 156.844 202.362 156.724 202.379 156.594C202.396 156.463 202.364 156.33 202.291 156.221C202.217 156.112 202.106 156.034 201.978 156.001Z" fill="#343A3F"/>
<path d="M141.677 102.256C141.666 101.887 141.677 102.206 141.677 72.1641C141.208 72.189 141.677 72.1641 132.507 72.1641V94.9236H94.941V72.2048H85.7754V102.33C86.5415 102.201 85.7793 102.256 141.677 102.256Z" fill="white"/>
<path d="M109.86 74.7463L118.441 84.3205L127.205 76.5873L132.14 81.1905V57.6582H95.313V86.494L109.86 74.7463Z" fill="#F2F4F8"/>
<path d="M145.508 109.768C145.452 109.648 145.363 109.547 145.253 109.475C145.142 109.404 145.013 109.365 144.881 109.363H82.9831C82.8562 109.367 82.7323 109.403 82.6228 109.467C82.5133 109.532 82.4217 109.622 82.3563 109.731C75.4798 122.989 75.4772 122.671 75.7282 123.174C75.7848 123.279 75.8702 123.366 75.9745 123.425C76.0787 123.484 76.1974 123.512 76.3169 123.505H151.038C151.555 123.505 151.852 123.125 151.531 122.454C151.071 121.495 149.606 118.769 145.508 109.769V109.768Z" fill="white"/>
<path d="M142.083 68.0062H132.544V71.6856H141.935C141.992 71.689 142.047 71.7133 142.087 71.754C142.128 71.7946 142.153 71.8488 142.157 71.9064C142.157 95.3151 142.112 100.863 142.092 102.176C142.092 102.57 142.082 102.586 141.723 102.59C140.146 102.608 131.605 102.657 85.4812 102.657C85.4494 102.654 85.4184 102.645 85.3901 102.631C85.3617 102.616 85.3366 102.596 85.3161 102.571C85.2955 102.547 85.2801 102.519 85.2705 102.488C85.261 102.458 85.2575 102.426 85.2604 102.394C85.2538 101.971 85.2604 102.394 85.2604 71.9011C85.2641 71.8438 85.2886 71.7898 85.3292 71.7491C85.3698 71.7085 85.4238 71.6841 85.4812 71.6804H94.9096V68.001H85.3695C84.589 68.0037 83.8412 68.315 83.2893 68.8669C82.7374 69.4188 82.4261 70.1666 82.4233 70.9471V103.394C82.4254 104.175 82.7365 104.923 83.2885 105.475C83.8406 106.027 84.5888 106.338 85.3695 106.34H142.083C142.864 106.338 143.612 106.027 144.164 105.475C144.716 104.923 145.027 104.175 145.029 103.394V70.9524C145.026 70.1719 144.715 69.4241 144.163 68.8722C143.611 68.3203 142.864 68.009 142.083 68.0062Z" fill="#DDE1E6"/>
<path d="M132.14 81.6704L127.205 77.0672L118.367 84.7637L109.823 75.2617L95.313 86.9358V94.4851H132.14V81.6704Z" fill="#DDE1E6"/>
<path d="M119.655 67.6388C119.722 68.2421 119.915 68.8245 120.222 69.3483C120.528 69.8722 120.941 70.3259 121.434 70.68C121.927 71.0341 122.489 71.2808 123.084 71.4041C123.678 71.5274 124.292 71.5245 124.885 71.3957C125.683 71.2084 126.411 70.7951 126.982 70.2052C127.552 69.6153 127.94 68.8737 128.1 68.0691C128.26 67.2644 128.185 66.4307 127.884 65.6674C127.583 64.9042 127.069 64.2437 126.403 63.765C125.737 63.2862 124.947 63.0094 124.127 62.9675C123.308 62.9256 122.494 63.1205 121.782 63.5289C121.07 63.9372 120.491 64.5418 120.114 65.2704C119.737 65.9989 119.577 66.8207 119.655 67.6375V67.6388Z" fill="#DDE1E6"/>
<path d="M152.392 124.511C152.439 122.631 152.496 122.605 152.321 122.256L146.133 109.474C146.017 109.242 145.839 109.047 145.618 108.91C145.397 108.774 145.142 108.702 144.882 108.703H82.9832C82.7244 108.703 82.4705 108.774 82.2498 108.909C82.0291 109.044 81.8504 109.238 81.7335 109.469C74.9004 122.888 74.9556 122.347 74.9582 122.937L75.0633 124.482C74.985 124.696 74.9595 124.924 74.9889 125.15C75.0183 125.375 75.1018 125.589 75.2322 125.775C75.3627 125.961 75.5362 126.112 75.7379 126.217C75.9396 126.321 76.1635 126.375 76.3905 126.373H151.104C151.327 126.375 151.548 126.322 151.746 126.219C151.944 126.116 152.113 125.966 152.24 125.782C152.367 125.599 152.448 125.387 152.475 125.166C152.501 124.944 152.473 124.719 152.392 124.511ZM82.6442 109.878C82.7926 109.581 82.652 109.691 144.882 109.691C144.953 109.692 145.021 109.713 145.08 109.752C145.139 109.792 145.185 109.847 145.212 109.912L151.388 122.651C151.508 123.013 151.322 123.213 151.074 123.213H76.384C76.3257 123.215 76.2679 123.202 76.2161 123.176C76.1644 123.149 76.1203 123.109 76.0883 123.061C76.0564 123.012 76.0378 122.956 76.0344 122.898C76.0309 122.84 76.0427 122.782 76.0686 122.729L82.6442 109.878Z" fill="#343A3F"/>
<path d="M142.083 67.347H132.873V57.2904C132.873 57.2033 132.838 57.1198 132.777 57.0581C132.715 56.9965 132.631 56.9619 132.544 56.9619H94.941C94.8977 56.9616 94.8549 56.9698 94.8148 56.9862C94.7748 57.0026 94.7385 57.0268 94.7079 57.0574C94.6773 57.0879 94.6531 57.1243 94.6368 57.1643C94.6204 57.2043 94.6121 57.2472 94.6125 57.2904V67.347H85.4061C84.4405 67.3484 83.5148 67.7326 82.832 68.4154C82.1492 69.0982 81.7649 70.0239 81.7635 70.9895V103.427C81.7567 103.905 81.8451 104.378 82.0234 104.821C82.2016 105.264 82.4663 105.667 82.802 106.006C83.1376 106.346 83.5375 106.615 83.9783 106.798C84.4191 106.982 84.892 107.075 85.3693 107.074H142.083C143.049 107.073 143.975 106.689 144.658 106.006C145.341 105.323 145.725 104.397 145.726 103.431V70.9895C145.725 70.0237 145.341 69.0976 144.658 68.4146C143.975 67.7317 143.049 67.3477 142.083 67.347ZM85.3693 68.3719H94.5796V71.3943H85.4797C85.3351 71.3979 85.1973 71.4569 85.0949 71.5591C84.9924 71.6613 84.9331 71.7989 84.9291 71.9436C84.9291 71.9436 84.9055 101.607 84.9291 102.472C84.9328 102.617 84.992 102.755 85.0944 102.857C85.1969 102.96 85.3349 103.019 85.4797 103.022C142.313 103.022 142.041 103.122 142.313 102.852C142.366 102.803 142.409 102.744 142.438 102.679C142.467 102.613 142.483 102.542 142.484 102.471C142.484 102.471 142.507 72.8082 142.484 71.9436C142.48 71.7989 142.42 71.6613 142.318 71.5591C142.216 71.4569 142.078 71.3979 141.933 71.3943H132.835V68.3719H142.044C142.737 68.3744 143.402 68.6509 143.892 69.1412C144.383 69.6316 144.66 70.2959 144.662 70.9895V103.434C144.661 104.128 144.385 104.793 143.894 105.284C143.403 105.774 142.738 106.05 142.044 106.051H85.3325C84.6393 106.05 83.9751 105.773 83.4854 105.282C82.9957 104.792 82.7205 104.127 82.7202 103.434L82.7557 70.9895C82.7584 70.2968 83.0346 69.6332 83.524 69.1431C84.0135 68.6529 84.6766 68.3757 85.3693 68.3719ZM132.836 94.8529V72.4219C132.836 72.4219 141.009 72.4442 141.348 72.435C141.348 75.5993 141.333 99.778 141.377 101.927C141.377 101.927 86.1867 101.912 86.0658 101.913V72.4613H94.5796V94.8529C94.5796 94.9401 94.6142 95.0236 94.6758 95.0852C94.7374 95.1468 94.821 95.1814 94.9081 95.1814H132.507C132.594 95.1811 132.678 95.1464 132.739 95.0849C132.801 95.0233 132.836 94.94 132.836 94.8529ZM118.208 85.0684C118.27 85.1286 118.354 85.1623 118.44 85.1623C118.527 85.1623 118.611 85.1286 118.673 85.0684L127.233 77.4758L131.811 81.8477V94.1959H95.6414V87.1302L109.79 75.7136L118.208 85.0684ZM126.987 76.3417L118.463 83.8582L110.099 74.5283C110.044 74.4676 109.968 74.4295 109.887 74.4214C109.806 74.4134 109.724 74.4361 109.658 74.485L95.6414 85.7715V57.9501H131.848V80.3982L127.609 76.4561C127.398 76.3246 127.204 76.1486 126.987 76.3417Z" fill="#343A3F"/>
<path d="M124.376 62.3325C123.63 62.2483 122.874 62.3377 122.168 62.5937C121.462 62.8496 120.825 63.2653 120.306 63.8081C119.787 64.351 119.4 65.0065 119.176 65.7234C118.952 66.4402 118.897 67.1991 119.015 67.9409C119.084 68.6161 119.297 69.2687 119.64 69.8543C119.983 70.44 120.448 70.9452 121.003 71.3358C121.558 71.7264 122.191 71.9932 122.858 72.1182C123.525 72.2432 124.211 72.2235 124.87 72.0605C125.748 71.9026 126.566 71.5089 127.237 70.9214C127.907 70.334 128.406 69.575 128.678 68.726C128.95 67.8769 128.986 66.9697 128.782 66.1018C128.578 65.2338 128.142 64.4377 127.519 63.799C126.685 62.9438 125.568 62.4223 124.376 62.3325ZM124.812 71.0763C124.084 71.2501 123.322 71.2136 122.614 70.9708C121.905 70.7281 121.281 70.2891 120.812 69.7051C120.344 69.1211 120.051 68.416 119.968 67.672C119.885 66.928 120.015 66.1757 120.342 65.5026C120.67 64.8296 121.182 64.2635 121.82 63.8703C122.457 63.4772 123.192 63.2731 123.941 63.2818C124.689 63.2905 125.42 63.5118 126.048 63.9197C126.676 64.3277 127.175 64.9056 127.487 65.5861C127.73 66.1173 127.852 66.6958 127.845 67.28C127.837 67.8642 127.701 68.4395 127.445 68.9645C127.188 69.4895 126.819 69.9512 126.363 70.3164C125.907 70.6815 125.376 70.941 124.807 71.0763H124.812Z" fill="#343A3F"/>
<path d="M124.664 110.946H106.399C106.248 110.946 106.104 111.006 105.997 111.113C105.891 111.219 105.831 111.363 105.831 111.514C105.831 111.665 105.891 111.809 105.997 111.915C106.104 112.022 106.248 112.082 106.399 112.082H124.664C124.815 112.082 124.959 112.022 125.066 111.915C125.172 111.809 125.232 111.665 125.232 111.514C125.232 111.363 125.172 111.219 125.066 111.113C124.959 111.006 124.815 110.946 124.664 110.946Z" fill="#343A3F"/>
<path d="M125.262 120.288C123.913 116.958 124.103 116.214 123.412 116.214H104.741C104.643 116.213 104.547 116.239 104.463 116.289C104.379 116.339 104.311 116.412 104.266 116.499C103.935 117.125 102.609 119.592 102.257 120.268C102.222 120.354 102.208 120.447 102.218 120.539C102.228 120.631 102.261 120.72 102.314 120.796C102.367 120.872 102.438 120.934 102.521 120.975C102.604 121.016 102.697 121.036 102.789 121.033H124.734C124.823 121.032 124.911 121.01 124.99 120.969C125.069 120.928 125.138 120.868 125.189 120.795C125.241 120.723 125.274 120.639 125.287 120.55C125.3 120.462 125.291 120.372 125.262 120.288ZM123.028 117.389L123.913 120.009C109.404 120.009 104.174 120.029 103.676 119.973C103.881 119.595 104.789 117.864 105.051 117.389H123.028Z" fill="#343A3F"/>
<path d="M102.752 110.984H84.4863C84.3454 110.991 84.2126 111.052 84.1154 111.154C84.0181 111.256 83.9639 111.392 83.9639 111.533C83.9639 111.674 84.0181 111.809 84.1154 111.911C84.2126 112.014 84.3454 112.074 84.4863 112.081H102.752C102.826 112.085 102.9 112.073 102.97 112.048C103.04 112.022 103.104 111.982 103.157 111.93C103.211 111.879 103.254 111.817 103.283 111.749C103.313 111.681 103.328 111.607 103.328 111.533C103.328 111.458 103.313 111.385 103.283 111.316C103.254 111.248 103.211 111.186 103.157 111.135C103.104 111.084 103.04 111.044 102.97 111.018C102.9 110.992 102.826 110.98 102.752 110.984Z" fill="#343A3F"/>
<path d="M101.426 113.487H83.1606C83.0885 113.487 83.0171 113.502 82.9504 113.529C82.8838 113.557 82.8232 113.597 82.7722 113.648C82.7212 113.699 82.6807 113.76 82.6531 113.826C82.6255 113.893 82.6113 113.964 82.6113 114.037C82.6113 114.109 82.6255 114.18 82.6531 114.247C82.6807 114.313 82.7212 114.374 82.7722 114.425C82.8232 114.476 82.8838 114.516 82.9504 114.544C83.0171 114.572 83.0885 114.586 83.1606 114.586H101.458C101.597 114.573 101.726 114.508 101.819 114.403C101.912 114.298 101.962 114.162 101.958 114.022C101.954 113.882 101.896 113.749 101.798 113.649C101.699 113.55 101.566 113.492 101.426 113.487Z" fill="#343A3F"/>
<path d="M123.338 113.525H105.112C104.369 113.431 104.311 114.622 105.073 114.622H123.338C123.474 114.607 123.599 114.543 123.689 114.442C123.78 114.341 123.83 114.209 123.83 114.073C123.83 113.937 123.78 113.806 123.689 113.705C123.599 113.604 123.474 113.54 123.338 113.525Z" fill="#343A3F"/>
<path d="M143.667 113.487H125.401C125.329 113.487 125.258 113.502 125.191 113.529C125.124 113.557 125.064 113.597 125.013 113.648C124.962 113.699 124.921 113.76 124.894 113.826C124.866 113.893 124.852 113.964 124.852 114.037C124.852 114.109 124.866 114.18 124.894 114.247C124.921 114.313 124.962 114.374 125.013 114.425C125.064 114.476 125.124 114.516 125.191 114.544C125.258 114.572 125.329 114.586 125.401 114.586H143.698C143.838 114.573 143.968 114.508 144.061 114.403C144.154 114.298 144.203 114.161 144.198 114.021C144.193 113.881 144.136 113.748 144.038 113.649C143.939 113.55 143.806 113.492 143.667 113.487Z" fill="#343A3F"/>
<path d="M93.9134 166.338C89.6375 163.314 84.3944 161.979 79.1931 162.589C73.9918 163.199 69.1997 165.71 65.7391 169.641C62.2785 173.572 60.3939 178.643 60.4479 183.88C60.5019 189.117 62.4907 194.148 66.0316 198.007C66.0684 198.08 66.1052 198.117 66.0684 198.191C66.0684 198.191 64.5967 205.777 64.4482 206.588L70.9305 202.058C72.0238 202.724 73.1999 203.245 74.4285 203.605C79.259 205.366 84.5648 205.312 89.3589 203.455C94.153 201.597 98.1091 198.061 100.491 193.504C102.874 188.948 103.52 183.682 102.31 178.684C101.1 173.687 98.1161 169.3 93.9134 166.338Z" fill="#F2F4F8"/>
<path d="M102.883 177.771C101.994 174.582 100.396 171.635 98.2079 169.151C96.0203 166.666 93.2998 164.708 90.2494 163.421C87.199 162.135 83.8975 161.555 80.5914 161.723C77.2852 161.891 74.0597 162.803 71.1555 164.392C68.2514 165.981 65.7436 168.206 63.8192 170.9C61.8949 173.593 60.6038 176.687 60.0423 179.949C59.4807 183.212 59.6632 186.559 60.576 189.741C61.4889 192.923 63.1087 195.858 65.3144 198.327L63.6561 206.943C63.6395 207.02 63.6401 207.101 63.6579 207.178C63.6756 207.255 63.7101 207.328 63.7587 207.39C63.8074 207.453 63.8692 207.504 63.9398 207.54C64.0104 207.576 64.088 207.597 64.1672 207.6C64.4169 207.6 63.8965 207.892 71.0661 202.878C73.8979 204.449 77.0419 205.374 80.2732 205.588C83.5044 205.801 86.7428 205.298 89.7567 204.113C92.7705 202.929 95.4852 201.093 97.7064 198.736C99.9276 196.38 101.6 193.561 102.605 190.483C103.949 186.366 104.046 181.943 102.883 177.771ZM102.318 187.162C101.541 191.717 99.2796 195.886 95.8855 199.021C92.4913 202.156 88.1554 204.08 83.5536 204.493C80.5008 204.769 77.4248 204.37 74.5431 203.325C72.116 202.465 71.1265 201.413 70.7454 201.819C68.8103 203.185 66.8694 204.543 64.9228 205.893L66.4011 198.22C66.411 198.074 66.3676 197.93 66.2789 197.814C63.1742 194.438 61.2666 190.135 60.8505 185.568C60.4345 181 61.533 176.423 63.9767 172.542C65.5977 169.968 67.7612 167.779 70.3159 166.128C72.8707 164.476 75.7551 163.403 78.7677 162.982C81.7804 162.561 84.8486 162.803 87.7581 163.691C90.6676 164.578 93.3482 166.09 95.6128 168.121C97.8771 170.153 99.6705 172.655 100.868 175.451C102.444 179.14 102.946 183.199 102.318 187.161V187.162Z" fill="#343A3F"/>
<path d="M71.1564 174.879H92.2208C92.3616 174.879 92.4966 174.823 92.5962 174.723C92.6958 174.624 92.7517 174.489 92.7517 174.348C92.7517 174.207 92.6958 174.072 92.5962 173.973C92.4966 173.873 92.3616 173.817 92.2208 173.817C71.1669 173.817 71.2878 173.8 71.1564 173.817C71.0158 173.818 70.8812 173.874 70.7817 173.973C70.6823 174.073 70.6262 174.207 70.6255 174.348C70.6251 174.453 70.6562 174.556 70.7147 174.643C70.7733 174.731 70.8566 174.799 70.954 174.838C71.0182 174.865 71.0869 174.879 71.1564 174.879Z" fill="#343A3F"/>
<path d="M71.1563 181.134H80.5164C80.6572 181.134 80.7922 181.078 80.8918 180.979C80.9913 180.879 81.0473 180.744 81.0473 180.603C81.0473 180.462 80.9913 180.327 80.8918 180.228C80.7922 180.128 80.6572 180.072 80.5164 180.072H71.1563C71.0512 180.072 70.9483 180.103 70.8607 180.161C70.7731 180.219 70.7048 180.302 70.6645 180.399C70.6242 180.496 70.6137 180.603 70.6344 180.706C70.655 180.809 70.7059 180.904 70.7805 180.978C70.8298 181.027 70.8883 181.066 70.9528 181.093C71.0173 181.12 71.0865 181.134 71.1563 181.134Z" fill="#343A3F"/>
<path d="M92.2198 180.072H82.6456C82.5404 180.072 82.4375 180.103 82.3499 180.161C82.2623 180.219 82.1941 180.302 82.1537 180.399C82.1134 180.496 82.1029 180.603 82.1236 180.706C82.1443 180.809 82.1951 180.904 82.2698 180.978C82.319 181.027 82.3776 181.066 82.4421 181.093C82.5066 181.12 82.5757 181.134 82.6456 181.134H92.2198C92.3606 181.134 92.4957 181.078 92.5952 180.979C92.6948 180.879 92.7507 180.744 92.7507 180.603C92.7507 180.462 92.6948 180.327 92.5952 180.228C92.4957 180.128 92.3606 180.072 92.2198 180.072Z" fill="#343A3F"/>
<path d="M92.2197 186.369H71.1565C71.0156 186.369 70.8804 186.425 70.7807 186.525C70.681 186.624 70.625 186.76 70.625 186.901C70.625 187.042 70.681 187.177 70.7807 187.277C70.8804 187.376 71.0156 187.432 71.1565 187.432H92.221C92.2908 187.432 92.3599 187.418 92.4243 187.392C92.4888 187.365 92.5473 187.325 92.5966 187.276C92.6459 187.227 92.685 187.168 92.7116 187.103C92.7383 187.039 92.7519 186.97 92.7519 186.9C92.7518 186.83 92.7379 186.761 92.7111 186.697C92.6843 186.632 92.6451 186.574 92.5957 186.524C92.5463 186.475 92.4876 186.436 92.4231 186.409C92.3586 186.383 92.2895 186.369 92.2197 186.369Z" fill="#343A3F"/>
<path d="M76.4208 192.63H71.1567C71.0513 192.629 70.948 192.66 70.8601 192.718C70.7723 192.776 70.7038 192.859 70.6634 192.957C70.623 193.054 70.6127 193.161 70.6336 193.265C70.6545 193.368 70.7058 193.463 70.7809 193.537C70.8301 193.586 70.8887 193.625 70.9532 193.652C71.0177 193.679 71.0868 193.693 71.1567 193.693H76.4221C76.4919 193.693 76.561 193.679 76.6255 193.652C76.69 193.625 76.7485 193.586 76.7978 193.537C76.8471 193.487 76.8862 193.429 76.9128 193.364C76.9394 193.3 76.9531 193.231 76.953 193.161C76.9529 193.091 76.9391 193.022 76.9123 192.957C76.8855 192.893 76.8463 192.834 76.7969 192.785C76.7475 192.736 76.6888 192.697 76.6243 192.67C76.5598 192.643 76.4906 192.63 76.4208 192.63Z" fill="#343A3F"/>
<path d="M83.1293 192.63H78.5169C78.4114 192.629 78.3079 192.659 78.2199 192.717C78.1318 192.776 78.0631 192.859 78.0225 192.956C77.982 193.054 77.9715 193.161 77.9924 193.264C78.0133 193.368 78.0646 193.463 78.1398 193.537C78.189 193.586 78.2476 193.625 78.3121 193.652C78.3766 193.679 78.4457 193.693 78.5156 193.693H83.124C83.265 193.693 83.4004 193.638 83.5011 193.539C83.6008 193.439 83.6574 193.304 83.6588 193.163C83.6581 193.023 83.6024 192.888 83.5038 192.788C83.4043 192.688 83.2699 192.632 83.1293 192.63Z" fill="#343A3F"/>
<path d="M92.2202 192.63H85.1098C85.0044 192.629 84.9012 192.66 84.8133 192.718C84.7254 192.776 84.6569 192.859 84.6165 192.957C84.5762 193.054 84.5658 193.161 84.5867 193.265C84.6076 193.368 84.6589 193.463 84.734 193.537C84.7833 193.586 84.8418 193.625 84.9063 193.652C84.9708 193.679 85.04 193.693 85.1098 193.693H92.2202C92.3612 193.693 92.4964 193.637 92.5961 193.537C92.6957 193.438 92.7518 193.302 92.7518 193.161C92.7518 193.02 92.6957 192.885 92.5961 192.786C92.4964 192.686 92.3612 192.63 92.2202 192.63Z" fill="#343A3F"/>
<path d="M133.393 195.685C141.386 187.694 143.511 172.584 135.197 161.361C132.1 157.183 127.86 153.989 122.988 152.165C118.117 150.342 112.822 149.966 107.742 151.084C102.662 152.2 98.0122 154.761 94.3544 158.46C90.6967 162.158 88.1867 166.835 87.127 171.928C86.0661 177.02 86.5004 182.311 88.3775 187.162C90.2547 192.013 93.4947 196.217 97.707 199.269C101.919 202.321 106.924 204.089 112.119 204.362C117.313 204.634 122.476 203.398 126.984 200.803C127.149 200.72 127.038 200.729 135.454 206.585C135.403 206.38 133.393 196.267 133.393 195.685Z" fill="white"/>
<path d="M120.063 150.51C115.68 149.447 111.103 149.471 106.731 150.58C102.359 151.688 98.3231 153.848 94.9751 156.87C91.6271 159.893 89.0679 163.687 87.5199 167.924C85.9718 172.161 85.4818 176.711 86.0923 181.18C86.7031 185.649 88.3952 189.901 91.0218 193.567C93.6484 197.233 97.1301 200.203 101.165 202.218C105.2 204.234 109.666 205.233 114.175 205.13C118.684 205.027 123.1 203.824 127.039 201.627C135.521 207.521 135.404 207.605 135.735 207.605C135.814 207.602 135.891 207.582 135.961 207.546C136.031 207.511 136.093 207.461 136.142 207.399C136.192 207.338 136.227 207.267 136.246 207.19C136.266 207.114 136.268 207.034 136.254 206.957C136.112 206.335 134.141 196.125 134.111 195.965C137.315 192.4 139.54 188.065 140.568 183.383C141.596 178.702 141.392 173.833 139.977 169.254C138.562 164.674 135.983 160.54 132.493 157.255C129.003 153.97 124.72 151.646 120.063 150.51ZM135.809 192.08C133.903 195.034 132.918 195.254 133.079 195.935C133.223 196.554 135.004 205.861 135.01 205.882C135.01 205.882 127.651 200.718 127.355 200.546C127.276 200.501 127.185 200.48 127.094 200.484C127.003 200.488 126.914 200.517 126.839 200.568C121.17 203.848 114.495 204.933 108.079 203.617C101.664 202.299 95.9556 198.671 92.038 193.423C88.1203 188.174 86.266 181.67 86.8269 175.145C87.1759 171.094 88.4445 167.177 90.5361 163.69C92.6277 160.204 95.4872 157.241 98.8969 155.026C102.307 152.812 106.177 151.405 110.212 150.912C114.248 150.419 118.343 150.853 122.185 152.182C126.028 153.51 129.516 155.698 132.385 158.578C135.255 161.459 137.429 164.956 138.743 168.803C140.057 172.651 140.475 176.747 139.967 180.781C139.458 184.815 138.036 188.679 135.809 192.08Z" fill="#343A3F"/>
<path d="M100.911 169.793H127.536C127.673 169.786 127.801 169.727 127.896 169.628C127.99 169.529 128.042 169.398 128.042 169.261C128.042 169.124 127.99 168.993 127.896 168.894C127.801 168.795 127.673 168.736 127.536 168.729H100.911C100.77 168.729 100.635 168.785 100.535 168.885C100.435 168.985 100.379 169.12 100.379 169.261C100.379 169.402 100.435 169.537 100.535 169.637C100.635 169.737 100.77 169.793 100.911 169.793Z" fill="#343A3F"/>
<path d="M100.911 176.053H113.543C113.677 176.044 113.803 175.983 113.895 175.885C113.987 175.786 114.038 175.657 114.038 175.522C114.038 175.387 113.987 175.258 113.895 175.159C113.803 175.061 113.677 175.001 113.543 174.991H100.911C100.77 174.992 100.636 175.048 100.537 175.148C100.437 175.247 100.381 175.382 100.38 175.522C100.38 175.663 100.436 175.798 100.536 175.897C100.635 175.997 100.77 176.053 100.911 176.053Z" fill="#343A3F"/>
<path d="M127.536 174.991H116.078C115.937 174.992 115.803 175.048 115.704 175.148C115.604 175.247 115.548 175.382 115.547 175.522C115.547 175.663 115.603 175.798 115.703 175.897C115.802 175.997 115.937 176.053 116.078 176.053H127.536C127.677 176.053 127.812 175.996 127.912 175.898C128.011 175.798 128.066 175.663 128.066 175.522C128.066 175.381 128.011 175.247 127.912 175.146C127.812 175.047 127.677 174.992 127.536 174.991Z" fill="#343A3F"/>
<path d="M127.536 181.288H100.911C100.77 181.289 100.636 181.345 100.537 181.445C100.437 181.544 100.381 181.678 100.38 181.819C100.38 181.96 100.436 182.094 100.536 182.194C100.635 182.293 100.77 182.35 100.911 182.35H127.536C127.677 182.35 127.812 182.293 127.912 182.195C128.011 182.095 128.066 181.96 128.066 181.819C128.066 181.678 128.011 181.543 127.912 181.443C127.812 181.344 127.677 181.288 127.536 181.288Z" fill="#343A3F"/>
<path d="M107.539 187.585H100.874C100.738 187.592 100.609 187.651 100.515 187.75C100.421 187.849 100.369 187.98 100.369 188.116C100.369 188.253 100.421 188.384 100.515 188.483C100.609 188.582 100.738 188.641 100.874 188.648H107.539C107.68 188.648 107.816 188.592 107.915 188.492C108.015 188.393 108.071 188.257 108.071 188.116C108.071 187.976 108.015 187.84 107.915 187.741C107.816 187.641 107.68 187.585 107.539 187.585Z" fill="#343A3F"/>
<path d="M116.527 187.585H110.191C110.054 187.592 109.926 187.651 109.832 187.75C109.738 187.849 109.685 187.98 109.685 188.116C109.685 188.253 109.738 188.384 109.832 188.483C109.926 188.582 110.054 188.641 110.191 188.648H116.527C116.664 188.641 116.792 188.582 116.886 188.483C116.98 188.384 117.033 188.253 117.033 188.116C117.033 187.98 116.98 187.849 116.886 187.75C116.792 187.651 116.664 187.592 116.527 187.585Z" fill="#343A3F"/>
<path d="M127.537 187.585H118.802C118.666 187.592 118.537 187.651 118.443 187.75C118.349 187.849 118.296 187.98 118.296 188.116C118.296 188.253 118.349 188.384 118.443 188.483C118.537 188.582 118.666 188.641 118.802 188.648H127.537C127.673 188.641 127.802 188.582 127.896 188.483C127.99 188.384 128.042 188.253 128.042 188.116C128.042 187.98 127.99 187.849 127.896 187.75C127.802 187.651 127.673 187.592 127.537 187.585Z" fill="#343A3F"/>
<path d="M237.639 122.997L236.259 125.088L242.468 129.185L243.847 127.094L237.639 122.997Z" fill="#F2F4F8"/>
<path d="M236.048 125.404L212.662 160.846L218.871 164.943L242.257 129.502L236.048 125.404Z" fill="white"/>
<path d="M212.494 161.252L211.389 166.629C212.209 167.121 212.515 167.195 214.149 168.286L218.568 165.23L212.494 161.252Z" fill="#F2F4F8"/>
<path d="M245.711 124.241C245.98 123.835 246.166 123.38 246.258 122.902C246.35 122.424 246.348 121.932 246.25 121.455C246.052 120.492 245.481 119.647 244.661 119.104C244.255 118.836 243.8 118.65 243.321 118.557C242.843 118.464 242.352 118.467 241.874 118.564C241.397 118.662 240.944 118.853 240.541 119.126C240.138 119.399 239.792 119.749 239.524 120.156L237.867 122.658L244.087 126.785L245.711 124.241Z" fill="#F2F4F8"/>
<path d="M246.917 121.266C246.743 120.406 246.318 119.618 245.695 119.001C245.072 118.383 244.28 117.965 243.419 117.799C242.558 117.633 241.667 117.726 240.859 118.067C240.051 118.409 239.363 118.982 238.882 119.715L211.892 160.727C211.858 160.767 211.833 160.814 211.821 160.865C211.809 160.916 211.809 160.97 211.823 161.02C210.36 168.257 209.851 170.595 209.742 171.382C209.669 171.914 210.02 171.967 210.212 171.836C217.134 167.115 218.561 166.097 218.895 165.876C219.08 165.776 219.248 165.646 219.393 165.493L246.283 124.604C246.926 123.62 247.154 122.42 246.917 121.267V121.266ZM238.322 122.53L239.8 120.296C240.041 119.927 240.353 119.609 240.719 119.362C241.085 119.116 241.496 118.945 241.929 118.86C242.585 118.732 243.264 118.801 243.88 119.058C244.497 119.315 245.024 119.749 245.395 120.305C245.766 120.86 245.965 121.513 245.966 122.181C245.967 122.849 245.77 123.503 245.401 124.06L243.926 126.294L238.322 122.53ZM236.703 124.96L237.739 123.408L243.414 127.169L242.378 128.722L236.703 124.96ZM211.761 166.453L212.719 161.794L217.975 165.271L214.143 167.889C213.658 167.564 212.989 167.127 211.761 166.453ZM213.096 160.755L236.12 125.876L241.795 129.637L218.773 164.516L213.096 160.755Z" fill="#343A3F"/>
</svg>
