<svg width="270" height="220" viewBox="0 0 270 220" fill="none" xmlns="http://www.w3.org/2000/svg">
<path d="M75.7193 2.72586C73.637 1.93703 68.6764 -0.271122 66.7284 1.97662C66.2435 2.46151 66.7029 2.79655 67.226 3.10755C66.0583 3.46521 65.0093 4.16639 64.9302 5.11921C64.9302 6.0904 65.7049 5.14465 68.6764 5.56876C69.7136 5.76375 70.6593 6.29067 71.3709 7.07008C73.0192 9.16938 68.6736 9.01953 68.3739 10.2169C67.6246 12.6201 74.3678 12.3162 75.8663 13.064C77.3648 13.8119 78.5636 15.1633 80.0635 15.9126C82.0855 13.2431 83.749 10.3202 85.0114 7.21851C85.1612 7.07007 76.4742 3.01001 75.7193 2.72303V2.72586Z" fill="#DDE1E6"/>
<path d="M83.6763 11.6643C84.4458 10.319 85.1121 8.91738 85.6696 7.47138C85.7194 7.34415 85.7317 7.2053 85.705 7.07131C85.5198 6.16656 76.3224 2.20404 75.1731 1.76721C72.5917 0.787539 68.273 -0.849493 66.2104 1.49296C66.0458 1.67874 65.9331 1.90458 65.8834 2.14777C65.8338 2.39096 65.8491 2.64294 65.9277 2.87836C63.6658 4.09412 63.892 6.28955 65.2209 6.27117C66.3334 6.15101 67.4545 6.15101 68.567 6.27117C69.4273 6.43352 70.213 6.867 70.8091 7.50813C71.0296 7.79087 71.0311 7.90962 71.0311 7.90962C70.9462 8.1146 70.1221 8.41147 69.7248 8.55566C68.8229 8.87939 67.887 9.21443 67.6934 10.0075C66.6218 13.4314 74.1199 12.9875 75.5449 13.6972C76.9232 14.3885 78.1998 15.7753 79.7407 16.5457C79.8906 16.6208 80.0624 16.6402 80.2253 16.6003C80.3882 16.5604 80.5316 16.4639 80.6299 16.328C81.1212 15.6486 81.5991 14.9595 82.0633 14.2612C92.2022 23.6311 97.9771 33.3543 99.2508 43.2274C100.125 49.9974 98.8204 56.8699 95.5272 62.8491C95.3467 63.1968 95.3095 63.6012 95.4235 63.976C95.5375 64.3507 95.7938 64.6658 96.1373 64.854C96.4809 65.0421 96.8844 65.0882 97.2616 64.9825C97.6387 64.8768 97.9595 64.6276 98.1552 64.2882C106.005 49.9593 104.524 30.6952 83.6763 11.6643ZM79.8594 14.9865C78.6239 14.2202 77.5877 13.1331 76.1839 12.4319C74.8338 11.7576 68.6914 11.6869 69.0448 10.4245C69.4124 9.90006 71.9839 9.73749 72.3952 8.30403C72.4583 7.99507 72.4434 7.6753 72.3521 7.37349C72.2608 7.07169 72.0959 6.79732 71.8722 6.57511C70.5999 5.3028 69.0533 4.42633 65.7538 4.83629C66.2681 4.31828 66.9063 3.94047 67.6078 3.7388C68.3093 3.53713 69.0507 3.51832 69.7616 3.68415C69.9328 3.74935 70.1226 3.74553 70.2911 3.67349C70.4595 3.60146 70.5934 3.46684 70.6645 3.29801C70.7356 3.12918 70.7384 2.93933 70.6723 2.76848C70.6062 2.59763 70.4763 2.45913 70.3101 2.38216C69.4587 2.00259 68.5052 1.91753 67.6001 2.14042C69.4195 0.88791 73.5516 2.66631 75.4558 3.38445C76.133 3.63891 82.3998 6.57652 84.1386 7.50531C83.0084 10.1576 81.5723 12.6688 79.8594 14.9879V14.9865Z" fill="#343A3F"/>
<path d="M57.5048 2.849C57.7875 2.63695 58.3912 1.63041 57.01 1.01123C54.7863 0.00751907 50.7121 1.80288 48.8927 2.58182C48.1435 2.88151 39.6021 6.92744 39.6021 7.07729C40.8649 10.1784 42.5283 13.1008 44.5499 15.77C46.0484 14.8694 47.2472 13.5222 48.7457 12.773C50.2442 11.8725 56.9888 12.3234 56.2381 9.92442C55.9384 8.72563 51.4415 8.87548 53.2412 6.77759C53.9544 5.99935 54.9009 5.47353 55.9384 5.2791C57.0832 5.14198 58.2402 5.14198 59.385 5.2791C59.9646 5.27344 59.9179 3.64348 57.5048 2.849Z" fill="#DDE1E6"/>
<path d="M60.3876 4.7661C60.3118 4.28878 60.1165 3.83838 59.8199 3.45677C59.5233 3.07516 59.135 2.77472 58.6912 2.58339C58.7639 2.35579 58.7793 2.11379 58.7362 1.8788C58.693 1.64381 58.5926 1.42308 58.4438 1.23616C56.3459 -1.38762 51.2157 0.812057 48.6386 1.92038C48.541 1.95996 38.9026 6.06385 38.9026 7.07179C39.4313 8.62043 40.1148 10.1119 40.9426 11.5234C33.3752 16.4543 25.9011 22.5981 21.0734 30.8907C15.307 40.7963 14.0927 55.7078 22.9281 65.0436C23.2013 65.3323 23.5779 65.5007 23.9752 65.5117C24.3725 65.5227 24.7578 65.3754 25.0465 65.1023C25.3352 64.8292 25.5036 64.4525 25.5146 64.0553C25.5256 63.658 25.3783 63.2726 25.1052 62.9839C17.2819 54.7182 18.4609 41.3406 23.6633 32.3991C28.187 24.6324 35.2865 18.794 42.5174 14.0737C42.9655 14.748 43.449 15.445 43.9749 16.173C44.0404 16.264 44.1266 16.3382 44.2264 16.3893C44.3262 16.4404 44.4367 16.4671 44.5488 16.4671C44.9998 16.4671 46.2905 15.3997 46.8927 14.912C47.5188 14.2522 48.2734 13.7276 49.11 13.3707C49.9467 13.0138 50.8476 12.8321 51.7571 12.8367C53.8494 12.5653 56.0123 12.284 56.746 11.1403C56.8776 10.9354 56.9617 10.7036 56.9923 10.462C57.0229 10.2203 56.9991 9.97491 56.9227 9.74363C56.7135 8.90957 55.7621 8.57594 54.8418 8.25221C54.3699 8.1278 53.9235 7.92157 53.5228 7.64292C53.8005 7.20285 54.1679 6.82631 54.601 6.53789C55.0341 6.24947 55.5232 6.05567 56.0363 5.96913C57.0472 5.82563 58.0733 5.82563 59.0842 5.96913C60.4329 5.98044 60.3876 5.03894 60.3876 4.7661ZM55.837 4.57384C54.2523 4.80144 51.7374 6.44978 52.1615 8.00058C52.6096 9.67437 56.0392 9.6263 55.5613 10.3826C55.1825 10.9735 53.0167 11.2548 51.5804 11.4415C50.5411 11.4521 49.514 11.6677 48.5581 12.0757C47.6021 12.4837 46.7359 13.0762 46.0092 13.8192C45.5964 14.1529 45.1723 14.4964 44.7369 14.8088C43.041 12.5061 41.6179 10.0146 40.4958 7.38422C42.13 6.53601 48.5933 3.46834 49.3143 3.17854C51.0362 2.48726 55.386 0.568904 57.0754 1.85959C56.1566 1.61759 55.1826 1.69793 54.3159 2.08719C54.1497 2.16415 54.0198 2.30266 53.9537 2.47351C53.8875 2.64436 53.8903 2.83421 53.9615 3.00304C54.0326 3.17187 54.1665 3.30649 54.3349 3.37852C54.5034 3.45056 54.6932 3.45438 54.8644 3.38918C55.5739 3.22262 56.3142 3.24083 57.0146 3.44205C57.7151 3.64327 58.3522 4.02078 58.8651 4.53849C57.8584 4.42031 56.8407 4.43219 55.837 4.57384Z" fill="#343A3F"/>
<path d="M11.73 91.2929C6.63093 89.6573 2.28672 86.4977 0.939494 81.3972C-1.53726 69.0134 14.5305 60.2529 23.2755 67.1615C18.6302 61.3174 20.7309 50.6767 27.3214 47.0803C33.912 43.4839 42.9001 46.7849 46.348 53.227C44.4 47.6826 48.1858 41.4652 53.3909 38.5418C59.8938 34.8902 68.2048 35.5858 74.8208 39.1412C82.4391 43.2408 84.2627 48.5816 83.963 56.3738C85.5739 54.0186 87.7858 52.1374 90.3691 50.9256C92.9524 49.7137 95.813 49.2153 98.6539 49.4822C101.483 49.7559 104.152 50.9185 106.279 52.8032C108.406 54.6879 109.881 57.1979 110.493 59.973C110.953 62.7782 110.369 65.6547 108.85 68.0575C107.331 70.4602 104.983 72.2223 102.252 73.0099C106.494 71.2008 111.269 71.0935 115.588 72.7102C117.713 73.495 119.448 75.0759 120.427 77.1179C121.406 79.16 121.551 81.503 120.833 83.6506C120.656 84.3041 120.351 84.9155 119.934 85.4488C117.087 90.3966 111.093 92.0422 105.698 90.9932C109.295 94.5896 108.395 101.03 104.649 104.18C96.9942 110.611 80.8996 106.699 76.9243 97.4367C76.3249 104.629 69.282 110.475 61.9394 110.475C54.2971 110.475 48.6014 105.079 45.3047 98.6355C42.7601 102.831 37.2002 105.177 32.5676 106.278C29.5268 106.999 26.3375 106.79 23.4183 105.674C21.9717 105.068 20.7034 104.104 19.7333 102.871C18.7631 101.639 18.1232 100.18 17.8739 98.6313C17.6488 97.0755 17.9555 95.4894 18.7441 94.1296C19.5328 92.7698 20.7573 91.716 22.2195 91.1388C18.773 91.4428 15.0239 92.3503 11.73 91.2929Z" fill="white"/>
<path d="M61.9327 111.187C55.2545 111.187 49.2167 107.127 45.2245 100.002C41.8133 104.495 35.4334 106.364 32.7163 106.973C29.5444 107.715 26.2234 107.498 23.1754 106.348C17.8035 104.086 14.774 96.8088 19.4038 92.1804C16.7903 92.6779 14.1003 92.6066 11.5169 91.9712C-6.40563 86.2656 -1.43375 67.222 12.9376 64.3339C15.711 63.7206 18.6067 63.9905 21.2189 65.1058C20.03 62.2595 19.7414 59.1173 20.3919 56.1021C23.0878 42.8051 37.8508 41.9965 45.1156 50.2325C45.0082 39.7092 59.7033 30.0891 75.159 38.5245C82.6642 42.4969 84.6108 47.7346 84.6984 54.2968C92.8157 45.1985 108.236 47.408 111.174 59.8102C111.511 61.8379 111.339 63.9176 110.672 65.8622C110.006 67.8067 108.867 69.5551 107.357 70.9499C110.231 70.6445 113.139 71.022 115.839 72.0511C118.134 72.9011 120.009 74.6117 121.064 76.8204C122.12 79.029 122.274 81.562 121.493 83.8822C121.295 84.6059 120.954 85.283 120.491 85.874C118.029 90.1603 112.979 92.4617 107.344 91.9443C108.312 93.5354 108.773 95.3834 108.666 97.2428C108.28 106.081 98.763 109.409 90.11 107.571C84.2842 106.311 79.7265 103.457 77.2668 99.6008C76.2908 102.921 74.2735 105.839 71.5125 107.926C68.7515 110.012 65.3931 111.155 61.9327 111.187ZM45.9242 98.3129C49.6493 105.593 55.4835 109.764 61.9298 109.764C69.1113 109.764 75.6509 104.089 76.2079 97.3742C76.2214 97.2174 76.2867 97.0696 76.3937 96.9541C76.5007 96.8387 76.6431 96.7623 76.7984 96.737C76.9538 96.7116 77.1131 96.7389 77.2512 96.8144C77.3893 96.8899 77.4983 97.0093 77.5608 97.1537C81.4088 106.132 97.0256 109.643 104.18 103.634C107.635 100.732 108.466 94.7702 105.184 91.4877C105.077 91.3806 105.007 91.2421 104.985 91.0925C104.963 90.9429 104.989 90.7901 105.06 90.6566C105.131 90.523 105.243 90.4158 105.38 90.3506C105.516 90.2855 105.67 90.2658 105.819 90.2946C110.174 91.1428 116.317 90.2861 119.308 85.0908C119.945 84.0893 120.349 82.9576 120.491 81.7791C120.633 80.6007 120.509 79.4054 120.127 78.2813C119.746 77.1572 119.118 76.1329 118.289 75.2837C117.459 74.4345 116.45 73.782 115.336 73.3743C111.756 72.0105 107.821 71.8954 104.168 73.0478C103.606 73.3022 103.027 73.5171 102.434 73.6882C102.262 73.7358 102.079 73.7166 101.92 73.6344C101.762 73.5522 101.64 73.4132 101.58 73.2451C101.52 73.0771 101.526 72.8925 101.596 72.7284C101.666 72.5644 101.796 72.433 101.959 72.3607C102.516 72.1204 103.082 71.9084 103.656 71.7274C105.809 70.7211 107.573 69.0379 108.68 66.9348C109.786 64.8318 110.174 62.4244 109.784 60.0802C106.916 47.9919 91.2649 46.9867 84.5401 56.7764C84.453 56.9015 84.3279 56.9952 84.1833 57.0435C84.0387 57.0919 83.8823 57.0922 83.7375 57.0446C83.5927 56.9969 83.4671 56.9038 83.3794 56.7791C83.2917 56.6544 83.2466 56.5047 83.2508 56.3523C83.5336 49.127 82.1595 43.8328 74.4861 39.7714C67.5463 35.9856 59.6001 35.7523 53.7433 39.1578C48.9467 41.7618 45.1298 47.6399 47.0114 52.9991C47.0694 53.167 47.062 53.3506 46.9908 53.5133C46.9195 53.6761 46.7896 53.806 46.6269 53.8773C46.4642 53.9486 46.2806 53.956 46.1127 53.8981C45.9447 53.8401 45.8048 53.721 45.7207 53.5646C42.4692 47.4745 33.908 44.2965 27.6511 47.7077C21.4536 51.0878 19.4419 61.221 23.8201 66.7287C23.9222 66.8648 23.9717 67.0332 23.9597 67.2029C23.9476 67.3726 23.8747 67.5323 23.7544 67.6526C23.6341 67.7729 23.4744 67.8458 23.3047 67.8578C23.135 67.8699 22.9666 67.8203 22.8305 67.7182C14.5407 61.1673 -0.701469 69.597 1.63392 81.2626C3.07303 86.6982 8.03785 89.3545 11.9537 90.6197C15.0709 91.6093 18.7549 90.7356 22.1661 90.4388C22.3347 90.4245 22.5029 90.4712 22.64 90.5704C22.7771 90.6696 22.8741 90.8147 22.9133 90.9794C22.9525 91.144 22.9313 91.3173 22.8536 91.4676C22.7759 91.618 22.6468 91.7355 22.4898 91.7987C21.184 92.3298 20.0916 93.2795 19.3841 94.4987C18.6766 95.718 18.3941 97.1377 18.581 98.5349C18.8428 99.9513 19.4457 101.283 20.3376 102.414C21.2295 103.545 22.3836 104.442 23.6999 105.026C26.482 106.06 29.5044 106.256 32.3968 105.592C35.145 104.971 41.8147 103.023 44.6958 98.2691C44.7613 98.1627 44.8538 98.0756 44.964 98.0167C45.0741 97.9577 45.1979 97.929 45.3228 97.9335C45.4476 97.9379 45.569 97.9754 45.6747 98.042C45.7804 98.1087 45.8665 98.2021 45.9242 98.3129Z" fill="#343A3F"/>
<path d="M41.5776 71.6258C41.5156 71.5511 41.4696 71.4646 41.4424 71.3715C41.4152 71.2784 41.4075 71.1806 41.4196 71.0844C41.4318 70.9881 41.4636 70.8954 41.513 70.812C41.5625 70.7285 41.6286 70.6561 41.7072 70.5993C41.7858 70.5424 41.8752 70.5023 41.9699 70.4814C42.0647 70.4606 42.1627 70.4594 42.2579 70.4779C42.3531 70.4965 42.4435 70.5344 42.5234 70.5894C42.6034 70.6443 42.6712 70.7151 42.7227 70.7973C44.1655 72.7966 46.253 74.2378 48.6339 74.8784C51.0148 75.519 53.5436 75.3199 55.7949 74.3146C57.7415 73.5356 58.642 72.71 58.8371 71.5438C58.8466 71.4472 58.8759 71.3536 58.9231 71.2688C58.9703 71.184 59.0344 71.1098 59.1114 71.0508C59.1885 70.9918 59.2768 70.9493 59.371 70.9259C59.4651 70.9025 59.5631 70.8986 59.6588 70.9147C59.7545 70.9307 59.8459 70.9662 59.9274 71.019C60.0088 71.0718 60.0785 71.1408 60.1321 71.2216C60.1858 71.3025 60.2222 71.3935 60.2392 71.4891C60.2562 71.5846 60.2534 71.6826 60.231 71.777C59.8705 73.947 57.9691 74.9677 56.349 75.6137C53.8031 76.7464 50.9449 76.9682 48.2547 76.242C45.5645 75.5158 43.2062 73.8857 41.5762 71.6258H41.5776Z" fill="#343A3F"/>
<path d="M73.4381 71.3787C73.3541 71.2109 73.3402 71.0167 73.3995 70.8386C73.4587 70.6606 73.5863 70.5134 73.7541 70.4294C73.9218 70.3454 74.1161 70.3316 74.2941 70.3908C74.4722 70.4501 74.6194 70.5776 74.7033 70.7454C75.4941 72.3003 76.7151 73.5951 78.2209 74.4757C79.7268 75.3562 81.4539 75.7854 83.1968 75.7121C84.9397 75.6389 86.6247 75.0662 88.0513 74.0623C89.4779 73.0584 90.5859 71.6656 91.2433 70.0499C91.313 69.8757 91.4491 69.7364 91.6216 69.6626C91.794 69.5887 91.9887 69.5864 92.1629 69.6562C92.3371 69.7259 92.4764 69.862 92.5502 70.0344C92.624 70.2069 92.6263 70.4016 92.5566 70.5757C91.7977 72.4445 90.5174 74.0556 88.8682 75.2169C87.2191 76.3781 85.2708 77.0406 83.2556 77.1252C81.2404 77.2099 79.2433 76.7131 77.5026 75.6942C75.7619 74.6753 74.351 73.1773 73.4381 71.3787Z" fill="#343A3F"/>
<path d="M67.4774 79.9453C64.9328 79.9453 62.8745 82.48 62.8745 85.6C62.8745 88.72 64.9399 91.2547 67.4774 91.2547C70.015 91.2547 72.0775 88.7101 72.0775 85.6C72.0775 82.4899 70.015 79.9453 67.4774 79.9453Z" fill="#343A3F"/>
<path d="M181.22 139.654C181.101 139.655 180.985 139.625 180.881 139.569C180.777 139.512 180.69 139.43 180.626 139.331C162.919 111.888 135.592 92.0577 104.012 83.7338C103.84 83.6775 103.697 83.5576 103.61 83.3988C103.524 83.24 103.502 83.0542 103.548 82.8795C103.594 82.7048 103.706 82.5544 103.859 82.4591C104.013 82.3638 104.197 82.3307 104.374 82.3668C136.294 90.7807 163.916 110.825 181.813 138.563C181.883 138.67 181.923 138.793 181.928 138.92C181.933 139.048 181.903 139.174 181.842 139.285C181.78 139.397 181.69 139.49 181.581 139.555C181.472 139.62 181.347 139.654 181.22 139.654Z" fill="#C1C7CD"/>
<path d="M190.063 142.801C189.937 142.801 189.813 142.768 189.705 142.704C189.596 142.641 189.506 142.549 189.445 142.439C174.641 116.099 151.884 95.1185 124.431 82.4994C124.343 82.4632 124.263 82.4097 124.196 82.342C124.129 82.2743 124.077 82.1938 124.042 82.1054C124.007 82.0169 123.99 81.9223 123.992 81.8272C123.995 81.7321 124.017 81.6385 124.056 81.552C124.096 81.4654 124.152 81.3878 124.222 81.3236C124.293 81.2595 124.375 81.2101 124.465 81.1786C124.555 81.1471 124.65 81.134 124.745 81.1401C124.84 81.1463 124.932 81.1715 125.017 81.2143C152.745 93.9589 175.731 115.149 190.685 141.751C190.746 141.858 190.778 141.98 190.777 142.104C190.776 142.229 190.742 142.35 190.679 142.457C190.616 142.564 190.526 142.652 190.417 142.712C190.309 142.773 190.187 142.804 190.063 142.802V142.801Z" fill="#C1C7CD"/>
<path d="M124.141 187.101C75.9883 166.131 53.6863 129.749 52.6854 95.9605C52.6826 95.8676 52.6981 95.7752 52.731 95.6883C52.7639 95.6015 52.8136 95.522 52.8773 95.4544C52.941 95.3867 53.0174 95.3323 53.1021 95.2943C53.1868 95.2562 53.2782 95.2352 53.371 95.2324C53.557 95.2321 53.736 95.303 53.8714 95.4305C54.0068 95.5579 54.0882 95.7324 54.0991 95.9181C55.0773 128.982 76.7546 164.922 124.706 185.805C124.878 185.88 125.013 186.02 125.082 186.195C125.15 186.369 125.147 186.564 125.072 186.736C124.997 186.908 124.857 187.043 124.682 187.111C124.507 187.18 124.313 187.176 124.141 187.101Z" fill="#C1C7CD"/>
<path d="M116.066 171.221C101.987 165.476 89.4207 156.564 79.3427 145.177C69.2648 133.79 61.9459 120.234 57.9542 105.562C57.9257 105.471 57.9159 105.375 57.9254 105.28C57.9349 105.185 57.9634 105.093 58.0093 105.01C58.0552 104.926 58.1175 104.853 58.1924 104.794C58.2674 104.735 58.3535 104.692 58.4455 104.668C58.5375 104.643 58.6336 104.637 58.7279 104.651C58.8222 104.664 58.9129 104.696 58.9944 104.746C59.0759 104.795 59.1467 104.86 59.2023 104.937C59.258 105.015 59.2975 105.102 59.3183 105.195C63.2545 119.657 70.4691 133.018 80.4025 144.241C90.3359 155.464 102.721 164.248 116.597 169.912C116.721 169.968 116.827 170.059 116.9 170.174C116.974 170.289 117.013 170.422 117.013 170.558C117.013 170.695 116.973 170.828 116.899 170.942C116.825 171.057 116.72 171.148 116.596 171.204C116.428 171.278 116.238 171.284 116.066 171.221Z" fill="#C1C7CD"/>
<path d="M141.358 103.431C138.814 107.477 137.912 113.922 137.762 115.12C137.761 119.036 138.368 122.929 139.56 126.659C132.329 126.931 125.169 128.192 118.28 130.405C111.365 132.626 105.331 136.981 101.046 142.845C99.9969 135.353 102.468 126.476 105.543 119.617C111.108 107.192 127.661 102.115 141.358 103.431Z" fill="#F2F4F8"/>
<path d="M100.352 142.942C99.14 134.289 102.681 124.437 104.899 119.333C107.469 113.765 111.76 109.684 118.434 106.537C125.618 103.223 133.562 101.905 141.431 102.72C141.552 102.731 141.668 102.772 141.767 102.841C141.867 102.91 141.948 103.003 142.001 103.111C142.054 103.22 142.079 103.34 142.072 103.461C142.066 103.582 142.028 103.699 141.963 103.801C139.51 107.696 138.621 113.98 138.468 115.201C138.478 119.015 139.075 122.805 140.238 126.437C140.272 126.541 140.281 126.65 140.265 126.758C140.249 126.866 140.208 126.968 140.145 127.058C140.083 127.147 140.001 127.22 139.906 127.273C139.81 127.325 139.704 127.354 139.595 127.359C132.428 127.628 125.332 128.877 118.504 131.071C111.732 133.248 105.823 137.513 101.624 143.255C101.542 143.37 101.427 143.457 101.295 143.506C101.162 143.554 101.018 143.561 100.882 143.527C100.745 143.493 100.621 143.42 100.527 143.316C100.432 143.211 100.371 143.081 100.352 142.942ZM106.19 119.911C104.187 124.519 101.063 133.124 101.574 140.992C105.875 135.732 111.601 131.823 118.066 129.734C124.724 127.591 131.636 126.334 138.622 125.996C137.585 122.464 137.059 118.802 137.06 115.121C137.51 111.285 138.569 107.545 140.197 104.043C127.218 103.11 111.634 108.103 106.184 119.911H106.19Z" fill="#343A3F"/>
<path d="M132.604 104.974C125.687 105.576 115.434 109.003 112.065 112.694C108.773 116.254 106.673 121.534 105.826 128.386C105.637 129.88 106.453 129.925 106.863 129.622C112.908 125.123 120.17 123.613 129.038 122.108C129.202 122.079 129.351 121.994 129.458 121.866C129.566 121.739 129.625 121.578 129.626 121.411C129.626 117.296 132.562 107.02 133.209 106.128C133.298 106.02 133.352 105.889 133.367 105.751C133.381 105.613 133.354 105.473 133.289 105.35C133.225 105.227 133.125 105.126 133.004 105.059C132.882 104.992 132.743 104.963 132.604 104.974ZM113.107 113.648C113.807 112.941 114.592 112.324 115.445 111.811C118.369 113.419 118.414 113.366 118.817 113.913C118.862 114.158 118.811 114.411 118.675 114.62C117.262 116.033 111.73 118.295 108.409 126.897C108.056 127.107 107.707 127.324 107.36 127.551C108.046 122.874 109.843 117.064 113.107 113.648ZM115.294 121.77L113.518 124.435C112.449 124.85 111.398 125.313 110.366 125.83C111.442 123.478 112.938 121.342 114.781 119.527C114.96 119.788 115.162 120.035 115.381 120.264C115.545 120.516 115.63 120.812 115.625 121.113C115.619 121.349 115.568 121.477 115.294 121.77ZM128.23 120.814C124.001 121.445 119.824 122.39 115.735 123.642L116.382 122.662C116.595 122.465 116.764 122.226 116.877 121.959C116.99 121.692 117.045 121.404 117.038 121.114C117.053 120.439 116.819 119.781 116.382 119.266C116.179 119.046 115.993 118.81 115.828 118.56C116.561 117.923 117.335 117.337 118.147 116.805C118.764 116.483 119.314 116.046 119.767 115.516C119.981 115.223 120.128 114.887 120.197 114.53C120.266 114.174 120.255 113.806 120.164 113.455C119.847 112.787 119.3 112.256 118.623 111.959L116.891 110.989C121.493 108.734 126.425 107.226 131.502 106.522C129.882 111.149 128.785 115.943 128.23 120.814Z" fill="#343A3F"/>
<path d="M123.722 119.467C120.727 119.467 122.235 115.122 124.599 116.074C124.869 116.155 125.114 116.301 125.313 116.501C125.512 116.7 125.659 116.946 125.739 117.217C125.819 117.487 125.83 117.773 125.772 118.049C125.714 118.325 125.588 118.582 125.406 118.796C124.955 119.233 124.35 119.474 123.722 119.467Z" fill="#343A3F"/>
<path d="M133.113 118.114C143.931 116.136 154.142 111.673 162.942 105.076C165.04 114.818 166.978 124.856 164.89 134.599C162.932 143.737 157.697 151.832 151.703 158.876C140.935 159.801 130.114 159.901 119.33 159.176C129.667 148.084 135.961 133.553 133.113 118.114Z" fill="#F2F4F8"/>
<path d="M119.278 159.883C119.145 159.875 119.017 159.829 118.909 159.75C118.801 159.671 118.719 159.562 118.671 159.438C118.621 159.314 118.608 159.178 118.633 159.047C118.657 158.916 118.718 158.795 118.809 158.697C130.152 146.531 134.986 132.165 132.419 118.246C132.384 118.062 132.425 117.871 132.531 117.717C132.637 117.562 132.8 117.456 132.984 117.422C143.688 115.449 153.792 111.031 162.509 104.512C162.604 104.441 162.715 104.395 162.833 104.379C162.951 104.362 163.071 104.376 163.181 104.419C163.293 104.461 163.392 104.53 163.469 104.62C163.546 104.711 163.599 104.82 163.622 104.936C165.913 115.567 167.639 125.152 165.571 134.756C163.866 142.756 159.502 150.799 152.231 159.343C152.11 159.485 151.937 159.574 151.75 159.589C140.95 160.509 130.093 160.607 119.278 159.883ZM120.833 158.57C130.998 159.175 141.193 159.05 151.341 158.198C158.344 149.921 162.545 142.151 164.187 134.448C166.129 125.435 164.611 116.333 162.468 106.291C153.968 112.447 144.227 116.674 133.925 118.679C136.228 132.421 131.6 146.507 120.839 158.57H120.833Z" fill="#343A3F"/>
<path d="M158.385 116.938C158.365 116.826 158.318 116.72 158.247 116.63C158.177 116.54 158.086 116.468 157.981 116.421C157.877 116.374 157.763 116.354 157.649 116.361C157.535 116.368 157.424 116.403 157.326 116.462C152.379 119.431 142.71 122.316 139.13 122.965C138.96 122.996 138.808 123.088 138.702 123.223C138.596 123.359 138.542 123.528 138.551 123.7C138.813 128.983 138.262 134.275 136.919 139.392C136.433 141.971 135.537 144.456 134.265 146.751C133.745 147.99 133.103 149.174 132.35 150.286C131.01 152.632 129.843 152.799 130.229 153.627C130.289 153.759 130.387 153.868 130.511 153.942C130.635 154.016 130.778 154.049 130.922 154.039C137.196 153.591 143.559 152.986 149.753 152.242C150.363 152.289 150.972 152.149 151.5 151.841C152.028 151.533 152.449 151.071 152.708 150.517C158.026 138.983 160.805 129.91 158.385 116.938ZM151.512 149.72C151.389 150.097 151.134 150.417 150.795 150.621C150.455 150.826 150.054 150.901 149.663 150.834C143.987 151.51 138.239 152.07 132.557 152.501C132.924 152.043 133.254 151.556 133.547 151.047C134.328 149.903 134.992 148.682 135.526 147.403C136.277 146.123 136.883 144.763 137.333 143.349C139.305 141.591 141.054 139.597 142.538 137.411C144.102 135.104 145.467 134.37 147.442 136.734C149.625 139.062 151.846 141.577 154.031 144.054C153.248 145.967 152.408 147.857 151.512 149.72ZM154.598 142.568C152.581 140.282 150.511 137.95 148.492 135.797C146.009 132.818 143.535 133.406 141.36 136.617C140.39 138.068 139.29 139.428 138.072 140.68C139.559 135.331 140.207 129.784 139.992 124.237C145.937 122.905 151.704 120.872 157.169 118.18C158.619 126.39 157.728 134.843 154.598 142.571V142.568Z" fill="#343A3F"/>
<path d="M151.637 131.902C148.656 131.902 148.971 128.055 150.631 127.226C151.007 126.996 151.453 126.908 151.888 126.977C152.323 127.045 152.72 127.265 153.008 127.599C154.333 129.148 153.37 131.902 151.637 131.902ZM150.868 130.032C150.904 130.147 150.973 130.249 151.066 130.326C151.158 130.404 151.271 130.452 151.391 130.467C151.511 130.481 151.633 130.46 151.741 130.406C151.849 130.352 151.939 130.268 151.999 130.163C152.139 129.909 152.206 129.62 152.194 129.33C152.181 129.04 152.089 128.759 151.927 128.518C151.492 127.999 150.516 128.978 150.868 130.032Z" fill="#343A3F"/>
<path d="M82.3131 80.6523C82.2795 82.7574 82.6891 84.8459 83.5152 86.7824C84.3413 88.7189 85.5655 90.4599 87.1083 91.8924C87.2005 91.963 87.2753 92.0537 87.3273 92.1576C87.3792 92.2614 87.4068 92.3757 87.408 92.4918C87.408 92.6417 87.2581 92.6417 87.1083 92.6417C82.5284 94.6722 77.5811 95.7431 72.5715 95.7885C71.8904 95.8565 71.2059 95.6985 70.6235 95.339C68.6754 93.8405 68.8253 88.2961 68.2202 86.0483C73.2962 85.4606 78.1426 83.605 82.3131 80.6523Z" fill="#F2F4F8"/>
<path d="M72.2333 96.5347C67.694 96.5347 68.3259 89.1709 67.5428 86.229C66.9957 84.2018 71.822 86.7945 81.9198 80.064C82.0281 79.9918 82.1541 79.951 82.2841 79.9459C82.4141 79.9407 82.543 79.9716 82.6565 80.0351C82.7701 80.0985 82.864 80.192 82.9278 80.3054C82.9916 80.4188 83.0229 80.5475 83.0182 80.6775C82.9649 82.6828 83.345 84.676 84.1326 86.5209C84.9201 88.3659 86.0966 90.0191 87.5816 91.3677C88.376 92.1565 88.2884 93.2437 87.2706 93.3469C82.5274 95.422 77.4105 96.5068 72.2333 96.5347ZM69.0752 86.6475C69.4738 88.9602 69.594 93.655 71.0543 94.7789C71.4996 95.0758 72.0453 95.1846 72.5712 95.0814C77.3219 95.0458 82.0175 94.06 86.3814 92.182C83.5556 89.4949 81.8537 85.8365 81.6187 81.9442C77.8347 84.4162 73.5516 86.0222 69.0752 86.6475Z" fill="#343A3F"/>
<path d="M79.2943 87.9174C78.293 88.7889 77.0498 89.3343 75.7305 89.4809C75.8125 88.0093 74.6575 87.3604 73.7513 87.8128C73.4492 88.0828 73.2383 88.4401 73.1479 88.8351C73.0575 89.2302 73.092 89.6435 73.2467 90.0181C73.4417 90.6048 73.839 90.9511 74.8158 90.9511C75.1707 90.9511 75.5255 90.9299 75.8775 90.8875C75.784 90.9612 75.7106 91.0574 75.6641 91.167C75.6177 91.2766 75.5997 91.3962 75.6118 91.5147C75.624 91.6331 75.6658 91.7466 75.7335 91.8446C75.8012 91.9425 75.8926 92.0218 75.9991 92.075C76.5939 92.3855 77.2769 92.4836 77.935 92.353C78.5931 92.2224 79.1869 91.871 79.6181 91.3569C80.1751 90.4295 79.9899 89.5686 80.3942 88.7614C80.4664 88.6147 80.4855 88.4476 80.4484 88.2884C80.4112 88.1292 80.32 87.9879 80.1903 87.8884C80.0607 87.7889 79.9005 87.7374 79.7372 87.7427C79.5738 87.748 79.4173 87.8097 79.2943 87.9174ZM78.4631 90.5482C77.998 91.1307 77.2601 91.0289 76.5589 90.7758C77.273 90.6331 77.9648 90.3954 78.6158 90.069C78.5875 90.2358 78.5366 90.397 78.4631 90.5482Z" fill="#343A3F"/>
<path d="M79.6159 110.481C83.2168 104.39 84.3937 97.1681 82.9126 90.2497C87.9508 89.0236 92.7238 86.891 96.9984 83.9561C98.9531 87.5736 99.6888 91.7252 99.0963 95.7941C98.5503 99.8547 97.2275 103.772 95.2002 107.333C94.8986 107.818 94.5471 108.27 94.1513 108.683C93.7008 109.02 93.1932 109.274 92.6528 109.432C87.6943 111.127 82.6401 112.528 77.5166 113.628C79.1504 111.163 80.5554 108.554 81.7138 105.834L79.6159 110.481Z" fill="#F2F4F8"/>
<path d="M77.5177 114.329C77.3891 114.329 77.2629 114.293 77.1528 114.227C77.0427 114.16 76.9529 114.065 76.8928 113.951C76.8328 113.837 76.8049 113.709 76.8122 113.581C76.8194 113.453 76.8615 113.328 76.9339 113.222C78.5361 110.672 79.9781 108.024 81.2512 105.294C82.9579 100.515 83.2939 95.3541 82.221 90.3942C82.1816 90.213 82.2149 90.0236 82.3138 89.8668C82.4127 89.71 82.5693 89.5984 82.7497 89.5559C87.7035 88.3454 92.3971 86.2481 96.6037 83.3654C96.6854 83.3102 96.7778 83.2727 96.8748 83.2553C96.9719 83.2379 97.0715 83.2409 97.1673 83.2642C97.2631 83.2875 97.353 83.3305 97.4312 83.3905C97.5095 83.4506 97.5743 83.5263 97.6216 83.6128C99.6472 87.3658 100.41 91.6715 99.7972 95.8919C99.2436 100.043 97.8897 104.048 95.8106 107.683C95.4792 108.221 95.0905 108.722 94.6514 109.176C94.1078 109.602 93.4879 109.919 92.825 110.112C87.8145 111.832 82.7023 113.241 77.5177 114.329ZM79.8871 111.127C79.6043 111.63 79.3216 112.117 79.0388 112.57C83.0508 111.667 87.4502 110.413 92.4249 108.754C92.9055 108.614 93.3551 108.389 93.7538 108.088C94.0676 107.726 94.3517 107.34 94.602 106.934C96.578 103.463 97.864 99.6433 98.3892 95.6841C98.92 92.0284 98.3398 88.2975 96.7239 84.9756C92.7384 87.6032 88.3499 89.561 83.7322 90.7716C85.0371 97.6647 83.7888 104.795 80.2164 110.834C80.1411 110.965 80.0255 111.068 79.8871 111.127Z" fill="#343A3F"/>
<path d="M88.6076 96.7955C88.44 96.7951 88.278 96.7352 88.1505 96.6265C88.023 96.5177 87.9383 96.3672 87.9115 96.2018C87.8846 96.0364 87.9174 95.8669 88.004 95.7234C88.0906 95.5799 88.2254 95.4719 88.3842 95.4186C89.7004 94.9789 91.0561 94.3767 92.3665 93.7943C92.5379 93.7182 92.7324 93.7132 92.9074 93.7806C93.0824 93.8479 93.2234 93.982 93.2996 94.1533C93.3757 94.3247 93.3806 94.5192 93.3133 94.6942C93.2459 94.8692 93.1118 95.0103 92.9405 95.0864C91.5353 95.7508 90.0877 96.3219 88.6076 96.7955Z" fill="#343A3F"/>
<path d="M87.0096 98.5741C89.3427 97.7402 91.6176 96.7518 93.8192 95.6153C93.9014 95.5679 93.9922 95.5374 94.0864 95.5258C94.1805 95.5142 94.276 95.5217 94.3672 95.5478C94.4584 95.5739 94.5435 95.618 94.6172 95.6777C94.691 95.7373 94.752 95.8112 94.7966 95.8949C94.8412 95.9786 94.8685 96.0705 94.8769 96.165C94.8853 96.2595 94.8745 96.3547 94.8453 96.4449C94.8161 96.5352 94.769 96.6187 94.7069 96.6903C94.6448 96.762 94.5688 96.8205 94.4836 96.8622C92.2284 98.0296 89.8972 99.0441 87.5058 99.8987C87.33 99.9635 87.1359 99.9563 86.9654 99.8788C86.795 99.8012 86.662 99.6595 86.5954 99.4845C86.5627 99.3976 86.5475 99.305 86.5507 99.2122C86.5539 99.1193 86.5753 99.028 86.6138 98.9435C86.6522 98.8589 86.707 98.7828 86.7749 98.7194C86.8428 98.656 86.9226 98.6067 87.0096 98.5741Z" fill="#343A3F"/>
<path d="M87.5221 101.401C89.1341 100.919 90.6963 100.283 92.1872 99.5026C92.2702 99.461 92.3607 99.4362 92.4534 99.4295C92.546 99.4229 92.6391 99.4346 92.7272 99.4639C92.8154 99.4933 92.8969 99.5397 92.9671 99.6005C93.0373 99.6614 93.0949 99.7354 93.1364 99.8185C93.178 99.9016 93.2028 99.992 93.2095 100.085C93.2161 100.177 93.2044 100.27 93.1751 100.359C93.1457 100.447 93.0993 100.528 93.0385 100.598C92.9776 100.669 92.9036 100.726 92.8205 100.768C91.2461 101.59 89.5963 102.259 87.8939 102.765C87.8043 102.79 87.7108 102.796 87.6187 102.785C87.5266 102.773 87.4377 102.743 87.3571 102.697C87.2765 102.651 87.2057 102.589 87.1489 102.516C87.0921 102.443 87.0503 102.359 87.0258 102.269C87.0014 102.18 86.9949 102.086 87.0066 101.994C87.0184 101.902 87.0481 101.813 87.0942 101.732C87.1403 101.652 87.2018 101.581 87.2752 101.524C87.3486 101.467 87.4325 101.426 87.5221 101.401Z" fill="#343A3F"/>
<path d="M107.938 152.135C108.779 151.985 109.641 151.985 110.482 152.135C109.434 151.386 107.203 150.483 106.886 149.138C106.834 148.871 106.848 148.595 106.927 148.334C107.005 148.073 107.145 147.835 107.336 147.64C108.235 146.741 109.134 147.34 110.183 147.939C110.955 148.329 111.662 148.834 112.281 149.438C111.307 148.221 110.443 146.034 111.531 144.942C111.784 144.78 112.083 144.707 112.381 144.734C112.68 144.761 112.961 144.887 113.18 145.092C113.621 145.504 114.022 145.955 114.379 146.441C114.94 147.494 115.591 148.498 116.327 149.438C116.441 148.601 116.78 147.81 117.307 147.151C117.835 146.491 118.532 145.987 119.324 145.692C119.773 145.842 120.073 145.991 120.223 146.441C120.373 146.826 120.373 147.254 120.223 147.64C119.743 150.517 119.324 149.979 119.324 150.637C119.324 150.787 119.473 150.936 119.473 151.086C120.783 153.127 122.289 155.034 123.969 156.782C124.11 156.935 118.125 161.577 117.675 162.177L113.479 157.229C111.816 155.148 110.183 155.48 108.235 154.825C107.672 154.731 107.15 154.47 106.736 154.076C106.381 153.013 106.938 152.135 107.938 152.135Z" fill="#DDE1E6"/>
<path d="M147.013 167.575C138.261 166.922 129.844 163.933 122.64 158.92C124.658 157.258 124.663 157.183 124.681 156.824C124.689 156.633 124.621 156.446 124.493 156.304C122.824 154.555 121.337 152.641 120.056 150.591C120.516 149.747 120.802 148.819 120.897 147.863C121.093 147.332 121.093 146.748 120.897 146.217C120.218 144.181 117.461 144.847 116.09 147.914C115.489 146.674 114.675 145.55 113.687 144.59C113.366 144.276 112.949 144.077 112.503 144.026C112.056 143.975 111.605 144.074 111.222 144.307C110.806 144.662 110.508 145.136 110.369 145.665C110.23 146.194 110.255 146.752 110.443 147.266L110.372 147.225C109.402 146.668 108.076 145.903 106.838 147.137C106.562 147.416 106.36 147.758 106.249 148.133C106.137 148.509 106.12 148.906 106.199 149.289C106.501 150.197 107.134 150.958 107.973 151.419C107.53 151.437 107.099 151.568 106.722 151.8C106.319 152.127 106.048 152.589 105.96 153.1C105.871 153.611 105.97 154.137 106.238 154.58C106.727 155.055 107.344 155.375 108.014 155.501C110.093 156.193 111.414 155.83 112.943 157.685C117.358 163.044 117.204 162.87 117.686 162.87C118.212 162.78 117.828 162.87 120.231 160.891C128.021 166.503 137.213 169.851 146.788 170.562C147.185 170.593 147.579 170.465 147.882 170.207C148.033 170.079 148.156 169.922 148.246 169.746C148.335 169.57 148.389 169.378 148.404 169.181C148.419 168.984 148.394 168.786 148.332 168.598C148.27 168.411 148.172 168.237 148.042 168.088C147.913 167.939 147.755 167.816 147.579 167.728C147.402 167.64 147.21 167.587 147.013 167.574V167.575ZM117.737 161.146C113.372 156.003 113.162 155.478 111.463 154.911C110.057 154.656 108.682 154.248 107.364 153.695C107.318 153.478 107.341 153.252 107.43 153.048C108.362 152.699 109.375 152.623 110.349 152.829C110.509 152.864 110.677 152.843 110.823 152.768C110.969 152.693 111.084 152.57 111.149 152.419C111.214 152.269 111.224 152.1 111.179 151.943C111.133 151.785 111.033 151.649 110.898 151.557C109.767 150.751 106.558 149.419 107.84 148.137C108.237 147.74 108.51 147.786 109.665 148.451C110.443 148.837 111.156 149.337 111.786 149.935C111.913 150.063 112.085 150.137 112.266 150.143C112.447 150.148 112.623 150.083 112.757 149.963C112.892 149.842 112.976 149.674 112.99 149.494C113.005 149.314 112.951 149.135 112.837 148.994C112.145 148.128 111.326 146.37 111.967 145.519C112.427 145.328 112.613 145.519 112.687 145.592C113.082 145.96 113.444 146.36 113.77 146.788C114.352 147.878 115.027 148.915 115.789 149.887C115.874 149.988 115.985 150.063 116.111 150.105C116.236 150.146 116.37 150.152 116.499 150.122C116.627 150.091 116.744 150.025 116.837 149.931C116.929 149.836 116.994 149.718 117.022 149.589C117.655 146.736 120.176 145.452 119.531 147.521C119.452 148.299 119.241 149.057 118.906 149.764C118.728 150.01 118.631 150.305 118.627 150.609C118.623 150.913 118.713 151.21 118.885 151.46C120.11 153.338 121.489 155.11 123.007 156.759C121.837 157.787 118.879 160.136 117.737 161.146Z" fill="#343A3F"/>
<path d="M267.987 142.094C267.145 141.944 266.283 141.944 265.442 142.094C266.491 141.345 268.703 140.588 269.038 139.097C269.113 138.83 269.11 138.548 269.031 138.283C268.951 138.017 268.798 137.78 268.589 137.599C267.69 136.699 266.641 137.299 265.742 137.898C264.843 138.498 264.243 138.797 263.644 139.247C264.243 138.508 264.654 137.635 264.843 136.702C265.19 134.805 263.5 133.998 262.595 134.904C261.632 136.451 260.528 137.906 259.298 139.25C259.03 137.85 258.223 136.612 257.05 135.803C255.409 134.982 255.116 136.595 255.402 137.452C255.491 138.339 255.745 139.202 256.151 139.996C256.493 140.338 256.151 140.752 256.151 140.895C254.842 142.935 253.336 144.843 251.656 146.59C251.514 146.742 257.5 151.385 257.949 151.984C262.769 146.5 263.092 145.874 264.543 145.391C265.884 144.944 268.145 144.787 269.038 143.892C269.619 143.308 269.133 142.094 267.987 142.094Z" fill="#DDE1E6"/>
<path d="M268.033 141.385C268.851 140.926 269.457 140.164 269.721 139.264C269.824 138.879 269.819 138.473 269.707 138.09C269.595 137.708 269.38 137.363 269.086 137.094C268.571 136.661 267.912 136.436 267.239 136.462C266.566 136.488 265.928 136.764 265.447 137.236C266.202 134.267 263.522 132.965 262.091 134.394C260.208 136.28 260.942 135.966 259.579 137.821C258.427 135.135 255.549 133.567 254.727 136.018C254.535 136.514 254.526 137.062 254.702 137.564C254.797 138.545 255.099 139.493 255.591 140.347C254.331 142.419 252.842 144.344 251.152 146.084C251.083 146.155 251.028 146.241 250.992 146.334C250.956 146.427 250.939 146.527 250.943 146.627C250.961 146.986 250.966 147.061 252.997 148.733C246.326 154.569 238.142 158.401 229.389 159.789C229.192 159.819 229.004 159.886 228.834 159.989C228.664 160.091 228.515 160.226 228.398 160.386C228.22 160.627 228.119 160.915 228.107 161.214C228.095 161.513 228.174 161.809 228.333 162.062C228.437 162.231 228.574 162.376 228.736 162.492C229.063 162.723 229.469 162.815 229.864 162.748C239.343 161.247 248.19 157.049 255.348 150.656C256.304 151.442 257.231 152.211 257.384 152.401C257.449 152.483 257.53 152.55 257.623 152.599C257.715 152.648 257.817 152.677 257.921 152.684C258.385 152.708 258.325 152.868 262.847 147.473C263.259 146.97 263.766 146.554 264.34 146.25C264.915 145.946 265.544 145.759 266.191 145.701C267.41 145.594 268.573 145.137 269.538 144.385C270.395 143.534 270.145 141.723 268.033 141.385ZM267.313 143.972C265.522 144.57 263.566 144.312 261.762 146.573L257.902 150.964C256.757 149.953 253.789 147.598 252.621 146.581C254.138 144.931 255.516 143.159 256.742 141.283C256.814 141.203 256.855 141.099 256.855 140.992C256.975 140.769 257.027 140.516 257.003 140.264C256.979 140.013 256.881 139.774 256.721 139.578C256.377 138.835 256.157 138.041 256.069 137.227C256.018 137.108 255.992 136.98 255.992 136.851C255.992 136.722 256.018 136.594 256.069 136.475C256.192 136.106 256.316 136.202 256.479 136.296C257.033 136.634 257.508 137.086 257.874 137.622C258.239 138.159 258.487 138.766 258.599 139.406C258.628 139.529 258.688 139.642 258.775 139.734C258.861 139.826 258.97 139.894 259.091 139.93C259.213 139.965 259.342 139.967 259.464 139.936C259.587 139.904 259.698 139.841 259.788 139.752C260.657 138.822 261.393 137.775 261.974 136.642C262.307 136.195 262.679 135.781 263.086 135.401C263.55 134.941 264.376 135.385 264.137 136.584C263.977 137.401 263.615 138.164 263.084 138.805C262.977 138.939 262.922 139.108 262.93 139.28C262.938 139.452 263.007 139.615 263.126 139.739C263.246 139.862 263.407 139.937 263.579 139.951C263.75 139.964 263.921 139.915 264.059 139.813C264.378 139.574 264.697 139.38 265.066 139.155C266.556 138.248 267.415 137.432 268.081 138.098C268.209 138.196 268.302 138.332 268.348 138.487C268.394 138.642 268.39 138.807 268.337 138.959C268.095 140.042 266.035 140.797 265.023 141.519C264.889 141.612 264.791 141.749 264.747 141.905C264.702 142.062 264.713 142.23 264.777 142.379C264.842 142.529 264.956 142.652 265.101 142.727C265.246 142.802 265.412 142.825 265.572 142.791C266.367 142.657 267.181 142.662 267.975 142.805C268.436 142.801 269.302 143.467 267.313 143.972Z" fill="#343A3F"/>
<path d="M251.507 197.093C263.806 192.993 266.554 183.493 262.142 175.663C257.597 167.598 245.657 163.675 238.464 169.519C243.709 162.776 241.311 150.637 233.969 146.74C226.626 142.844 216.135 146.291 212.239 153.783C214.487 147.49 210.147 140.287 204.297 137C196.805 132.792 187.504 133.688 179.87 137.749C171.169 142.378 169.08 148.539 169.529 157.531C167.718 154.843 165.22 152.689 162.295 151.292C159.371 149.895 156.125 149.307 152.896 149.588C149.67 149.905 146.627 151.237 144.204 153.391C141.781 155.544 140.102 158.41 139.408 161.577C138.829 164.784 139.479 168.091 141.229 170.84C142.978 173.589 145.699 175.578 148.849 176.412C143.987 174.338 138.51 174.231 133.571 176.112C127.403 178.415 125.253 185.953 128.776 190.649C132.073 196.343 138.966 198.142 144.96 196.943C140.764 200.989 141.963 208.333 146.159 211.928C154.45 219.034 173.404 215.223 177.78 204.284C178.379 212.527 186.471 219.127 194.862 219.127C203.555 219.127 210.148 212.984 213.895 205.641C216.892 210.436 223.035 213.283 228.431 214.332C231.918 215.213 235.595 214.95 238.921 213.583C240.571 212.901 242.025 211.817 243.15 210.43C244.276 209.043 245.037 207.397 245.364 205.641C245.65 203.865 245.314 202.045 244.412 200.488C243.511 198.932 242.099 197.734 240.416 197.098C243.555 197.242 247.91 198.291 251.507 197.093Z" fill="white"/>
<path d="M194.855 219.828C186.646 219.828 179.164 213.967 177.416 206.593C171.62 216.296 153.872 219.476 145.692 212.464C141.592 208.953 140.286 202.328 143.232 197.904C137.747 198.421 131.377 196.561 128.157 190.998C124.405 186.075 126.625 177.807 133.328 175.447C136.437 174.233 139.795 173.792 143.112 174.164C141.374 172.58 140.061 170.585 139.292 168.362C138.524 166.14 138.325 163.76 138.713 161.441C139.482 158.149 141.25 155.175 143.774 152.926C146.299 150.677 149.457 149.264 152.816 148.879C155.799 148.63 158.8 149.09 161.571 150.223C164.343 151.355 166.808 153.127 168.763 155.395C168.734 147.813 170.861 141.757 179.537 137.12C188.047 132.616 197.43 132.338 204.642 136.376C209.608 139.178 213.714 144.867 213.548 150.598C218.582 144.704 227.733 142.623 234.302 146.11C241.241 149.785 243.866 160.154 240.593 167.339C248.202 163.704 258.603 167.826 262.762 175.313C267.394 183.416 264.535 193.489 251.736 197.758C248.99 198.459 246.125 198.565 243.334 198.069C248.89 203.09 245.519 211.64 239.191 214.224C235.725 215.653 231.89 215.927 228.256 215.005C222.132 213.815 216.882 210.853 213.978 206.988C209.446 215.169 202.534 219.828 194.855 219.828ZM178.477 204.234C179.042 211.922 186.534 218.415 194.855 218.415C205.432 218.415 211.254 209.253 213.259 205.313C213.316 205.201 213.401 205.107 213.506 205.04C213.611 204.972 213.733 204.934 213.858 204.929C213.982 204.924 214.106 204.951 214.217 205.01C214.328 205.068 214.421 205.154 214.487 205.26C216.998 209.277 222.262 212.407 228.559 213.632C231.91 214.489 235.448 214.241 238.647 212.925C240.183 212.275 241.535 211.257 242.585 209.961C243.635 208.665 244.349 207.13 244.666 205.492C244.907 203.882 244.592 202.237 243.772 200.83C242.951 199.422 241.676 198.337 240.155 197.754C239.999 197.693 239.869 197.579 239.789 197.431C239.71 197.283 239.685 197.112 239.721 196.948C239.757 196.785 239.85 196.639 239.982 196.537C240.115 196.435 240.279 196.383 240.446 196.39C243.706 196.545 247.864 197.563 251.279 196.425C257.721 194.278 261.702 190.657 263.11 185.664C265.988 172.414 248.313 162.43 238.911 170.07C238.777 170.187 238.603 170.25 238.425 170.244C238.247 170.239 238.078 170.166 237.951 170.04C237.825 169.915 237.751 169.746 237.743 169.569C237.734 169.391 237.793 169.217 237.907 169.08C242.92 162.634 240.537 151.021 233.638 147.361C226.683 143.671 216.605 146.917 212.866 154.105C212.782 154.263 212.642 154.384 212.473 154.444C212.304 154.503 212.119 154.497 211.955 154.426C211.791 154.354 211.66 154.223 211.589 154.058C211.519 153.894 211.513 153.708 211.573 153.54C213.738 147.481 209.396 140.682 203.949 137.609C197.164 133.806 188.282 134.091 180.2 138.368C171.371 143.086 169.831 149.425 170.235 157.49C170.241 157.643 170.198 157.794 170.112 157.921C170.026 158.047 169.902 158.143 169.757 158.194C169.612 158.243 169.454 158.244 169.308 158.196C169.163 158.148 169.036 158.054 168.948 157.928C167.194 155.357 164.79 153.297 161.982 151.955C159.174 150.612 156.061 150.036 152.958 150.286C149.896 150.638 147.017 151.926 144.715 153.976C142.412 156.025 140.799 158.735 140.094 161.736C139.664 164.309 140.048 166.951 141.192 169.295C142.335 171.64 144.181 173.57 146.472 174.816C147.379 175.07 148.266 175.387 149.13 175.764C149.288 175.836 149.414 175.963 149.484 176.121C149.555 176.279 149.566 176.457 149.515 176.622C149.462 176.787 149.35 176.927 149.201 177.015C149.052 177.104 148.876 177.135 148.706 177.103C147.763 176.9 146.85 176.578 145.988 176.146C141.974 175.039 137.71 175.258 133.83 176.769C132.124 177.368 130.637 178.466 129.563 179.922C128.49 181.377 127.88 183.122 127.812 184.929C127.767 186.128 127.963 187.325 128.387 188.448C130.948 194.85 138.058 197.601 144.821 196.25C144.971 196.22 145.126 196.24 145.264 196.306C145.402 196.371 145.515 196.48 145.586 196.614C145.656 196.75 145.681 196.905 145.656 197.055C145.632 197.206 145.56 197.345 145.45 197.451C141.6 201.165 142.692 208.027 146.618 211.391C154.498 218.145 172.894 214.595 177.122 204.023C177.185 203.879 177.293 203.76 177.43 203.684C177.568 203.608 177.726 203.579 177.881 203.602C178.037 203.626 178.18 203.701 178.288 203.815C178.396 203.93 178.462 204.077 178.477 204.234Z" fill="#343A3F"/>
</svg>
