<svg width="250" height="232" viewBox="0 0 250 232" fill="none" xmlns="http://www.w3.org/2000/svg">
<path d="M182.263 219.821C181.702 218.602 181.401 217.28 181.381 215.939L174.853 215.415C162.972 221.097 162.262 221.305 161.267 222.296C161.071 222.507 160.949 222.775 160.917 223.061C160.886 223.347 160.947 223.635 161.091 223.884C161.475 224.236 161.981 224.423 162.502 224.407C167.666 224.848 172.848 225.025 178.029 224.937C178.727 225.047 179.442 224.993 180.116 224.778C180.79 224.564 181.404 224.195 181.911 223.702C182.271 223.128 182.49 222.478 182.551 221.803C182.612 221.129 182.514 220.45 182.263 219.821Z" fill="#F2F4F8"/>
<path d="M248.957 196.354C248.536 195.816 248 195.379 247.389 195.074C246.778 194.768 246.106 194.603 245.423 194.59C244.236 194.587 243.052 194.469 241.889 194.236L238.713 200.058C239.891 214.98 239.699 213.781 240.124 215.056C240.234 215.325 240.437 215.545 240.697 215.675C240.957 215.804 241.255 215.835 241.535 215.761C241.785 215.686 242.012 215.549 242.197 215.365C242.382 215.181 242.518 214.954 242.594 214.704C244.906 210.114 246.967 205.402 248.77 200.588C249.103 199.937 249.292 199.222 249.325 198.492C249.357 197.761 249.231 197.032 248.957 196.354Z" fill="#F2F4F8"/>
<path d="M207.142 89.7853C205.907 78.3166 200.581 67.8321 195.673 57.4969C194.163 54.0383 192.141 50.8265 189.675 47.9693C179.727 37.1053 164.244 39.6891 164.091 39.6773C163.048 41.267 161.491 42.4504 159.68 43.0295C161.621 44.2638 157.738 46.5636 157.033 47.0871C146.149 57.9721 145.233 74.467 133.567 87.14C127.264 93.9434 120.289 100.091 112.747 105.488C114.335 107.606 116.453 109.546 118.217 111.487C118.591 112.03 119.159 112.41 119.805 112.546C120.037 112.553 120.267 112.509 120.48 112.417C120.694 112.326 120.884 112.189 121.039 112.016C136.092 101.694 148.185 90.8494 156.817 72.0861C159.059 76.9658 160.959 81.9954 162.503 87.1387C164.259 92.9633 165.678 99.3116 163.385 104.96C176.798 108.172 190.931 106.153 202.908 99.3129C204.146 98.7514 205.234 97.905 206.083 96.843C207.312 94.7075 207.69 92.1873 207.142 89.7853Z" fill="#DDE1E6"/>
<path d="M136.577 30.7776C136.577 30.7776 138.863 42.8916 146.558 45.0251C154.253 47.1587 159.123 43.3484 159.123 43.3484L160.554 44.4243C161.798 44.14 162.905 43.4315 163.683 42.4204C164.299 41.4832 164.668 40.4073 164.759 39.2908L162.608 37.1887C162.843 35.025 162.81 32.8404 162.509 30.686C163.426 30.0754 164.112 29.1755 164.457 28.1298C164.803 27.0841 164.789 25.9528 164.416 24.9163C163.097 21.2002 161.337 21.0039 161.337 21.0039C153.358 24.9179 145.078 28.1862 136.577 30.7776Z" fill="white"/>
<path d="M146.27 40.8602C146.171 40.8604 146.074 40.8383 145.985 40.7956C145.897 40.7529 145.819 40.6908 145.757 40.6138C145.696 40.5368 145.653 40.4469 145.631 40.3509C145.609 40.2549 145.609 40.1551 145.631 40.0592C146.296 37.1795 146.587 33.5146 145.983 32.9046C145.469 32.5641 144.937 32.2516 144.389 31.9687C144.269 31.914 144.168 31.8238 144.101 31.7104C144.033 31.597 144.002 31.4656 144.011 31.3339C144.016 31.2461 144.038 31.1602 144.078 31.0814C144.117 31.0027 144.171 30.9327 144.239 30.8758C144.339 30.7902 144.463 30.7371 144.594 30.7233C144.726 30.7095 144.858 30.7358 144.974 30.7986C145.647 31.1428 146.295 31.5368 146.909 31.9766C148.434 33.5015 147.068 39.6534 146.909 40.3537C146.874 40.4974 146.793 40.6253 146.677 40.7171C146.561 40.809 146.418 40.8593 146.27 40.8602Z" fill="#343A3F"/>
<path d="M166.97 15.5641C166.114 13.7709 161.127 13.1805 159.351 12.5876C154.757 11.1098 154.817 5.33097 150.898 2.27727C149.446 1.1226 147.694 0.406885 145.849 0.214415C141.862 -0.449206 136.589 0.292951 133.743 4.35583C129.807 9.76951 132.679 17.5 132.042 20.8364C131.604 23.1335 124.966 28.182 126.806 31.6834C127.133 32.2685 127.644 32.7279 128.259 32.9923C130.539 34.5133 133.857 33.4439 136.453 32.5617C140.264 46.1574 151.876 50.0841 159.092 43.9506C159.631 44.5241 160.228 45.0404 160.873 45.4911C160.984 45.5762 161.12 45.6229 161.259 45.6243C161.399 45.6258 161.535 45.5818 161.648 45.499C161.76 45.419 161.844 45.3052 161.886 45.1744C161.93 45.0442 161.932 44.9034 161.891 44.7723C161.85 44.6411 161.769 44.5262 161.659 44.444C161.072 44.0375 160.53 43.5702 160.042 43.05C161.328 41.7073 162.296 40.0936 162.876 38.3274C164.288 39.7398 164.283 39.8013 164.619 39.8013C164.749 39.8009 164.875 39.7624 164.982 39.6907C165.09 39.619 165.174 39.5173 165.224 39.3981C165.274 39.2787 165.288 39.147 165.262 39.0199C165.237 38.8928 165.175 38.7761 165.083 38.6848L163.266 36.8641C163.679 34.9465 163.659 32.9622 163.203 31.0538C166.419 29.3116 165.72 22.9791 163.254 21.3678C164.74 20.3102 168.084 17.8992 166.97 15.5641ZM162.894 29.7004C162.777 29.2575 162.646 28.8183 162.501 28.3836C162.325 27.6781 161.09 28.0315 161.266 28.737C164.179 35.6546 160.806 43.0042 154.738 45.1456C147.016 47.4179 140.107 40.6141 137.677 32.1428C145.298 29.9359 152.678 26.9676 159.706 23.2828C159.668 23.5668 159.683 23.8548 159.75 24.1322C159.772 24.2408 159.821 24.342 159.893 24.4264C159.965 24.5108 160.057 24.5755 160.16 24.6145C160.264 24.6535 160.376 24.6655 160.485 24.6494C160.595 24.6332 160.699 24.5895 160.787 24.5223C160.857 24.4686 160.916 24.4015 160.959 24.3249C161.003 24.2482 161.031 24.1636 161.042 24.076C161.051 23.988 161.043 23.8991 161.018 23.8142C160.976 23.5812 160.998 23.3411 161.08 23.1192C161.163 22.8972 161.303 22.7015 161.487 22.5524C163.461 21.0471 165.348 27.7802 162.894 29.7004Z" fill="#343A3F"/>
<path d="M155.046 37.7974C154.662 39.9377 153.507 41.8633 151.801 43.2107C151.735 43.2663 151.659 43.3084 151.577 43.3346C151.495 43.3608 151.409 43.3707 151.323 43.3635C151.237 43.3564 151.154 43.3324 151.077 43.2931C151.001 43.2537 150.933 43.1996 150.877 43.1339C150.822 43.0682 150.78 42.9923 150.753 42.9103C150.727 42.8284 150.717 42.7421 150.725 42.6564C150.732 42.5707 150.756 42.4872 150.795 42.4107C150.834 42.3342 150.888 42.2663 150.954 42.2107C152.413 41.0723 153.405 39.4399 153.745 37.6204C153.762 37.4912 153.816 37.3699 153.902 37.272C153.988 37.1742 154.102 37.1042 154.228 37.0711C154.354 37.0379 154.487 37.0432 154.61 37.0861C154.733 37.129 154.84 37.2076 154.918 37.3119C155.023 37.4505 155.069 37.6251 155.046 37.7974Z" fill="#343A3F"/>
<path d="M149.973 29.0381C149.877 29.0383 149.781 29.0169 149.694 28.9756C149.606 28.9343 149.529 28.8741 149.468 28.7993C149.407 28.7245 149.363 28.637 149.339 28.5431C149.316 28.4493 149.314 28.3514 149.333 28.2567C149.358 28.1297 149.42 28.0131 149.511 27.9216C151.124 26.309 153.684 26.7815 153.229 27.9216C153.197 28.0017 153.15 28.0747 153.09 28.1363C153.03 28.1979 152.958 28.2469 152.879 28.2802C152.72 28.3487 152.539 28.3511 152.378 28.2868C152.034 28.1882 151.67 28.1885 151.327 28.2876C150.983 28.3867 150.675 28.5806 150.437 28.847C150.313 28.9682 150.147 29.0367 149.973 29.0381Z" fill="#343A3F"/>
<path d="M140.801 35.2132C140.704 35.2132 140.608 35.1917 140.52 35.1501C140.432 35.1085 140.355 35.0479 140.294 34.9727C140.232 34.8976 140.188 34.8097 140.165 34.7154C140.142 34.6212 140.14 34.523 140.159 34.4279C140.25 33.9202 140.456 33.44 140.761 33.0243C141.066 32.6086 141.462 32.2685 141.92 32.0299C142.075 31.9523 142.255 31.9396 142.42 31.9946C142.584 32.0496 142.72 32.1678 142.798 32.3231C142.876 32.4785 142.888 32.6583 142.833 32.823C142.778 32.9877 142.66 33.1238 142.505 33.2014C142.226 33.3509 141.985 33.5624 141.801 33.8195C141.617 34.0765 141.494 34.3724 141.442 34.6844C141.414 34.8337 141.334 34.9683 141.217 35.0649C141.1 35.1615 140.952 35.214 140.801 35.2132Z" fill="#343A3F"/>
<path d="M132.047 21.2653L132.262 19.9747C135.296 20.4656 138.405 20.1724 141.294 19.1213C147.052 17.5868 152.447 14.922 157.165 11.2822L157.968 12.315C153.126 16.0547 147.589 18.7934 141.678 20.3713C138.597 21.4859 135.281 21.7937 132.047 21.2653Z" fill="white"/>
<path d="M249.57 196.124C249.544 196.055 249.507 195.991 249.46 195.934C248.978 195.323 248.367 194.826 247.67 194.481C246.972 194.135 246.207 193.949 245.429 193.936C244.401 193.928 243.376 193.838 242.363 193.667C242.377 193.601 242.381 193.533 242.375 193.466C242.163 191.352 239.202 189.725 237.925 188.635C229.062 180.65 217.068 170.795 214.136 154.957C211.518 139.655 217.918 114.318 207.365 95.958C207.61 95.3271 207.696 94.6457 207.617 93.9737C206.856 83.7754 204.646 73.7376 201.052 64.1631C198.293 56.2258 194.403 47.4417 186.492 42.4757C179.32 37.9664 170.898 37.9926 165.036 38.829C164.942 38.7613 164.831 38.7199 164.715 38.7092C164.599 38.6985 164.483 38.7189 164.377 38.7682C164.272 38.8176 164.182 38.8941 164.116 38.9899C164.05 39.0857 164.011 39.1973 164.002 39.3133C163.965 40.3064 163.611 41.2616 162.992 42.0389C162.373 42.8162 161.521 43.3748 160.561 43.6327C160.463 43.6058 160.361 43.6015 160.261 43.6203C160.161 43.6392 160.068 43.6806 159.986 43.7414C145.381 54.8672 145.417 72.8883 132.913 86.8636C126.598 93.596 119.659 99.7134 112.187 105.133C112.117 105.184 112.057 105.249 112.011 105.323C111.966 105.397 111.936 105.48 111.923 105.566C111.909 105.652 111.914 105.74 111.935 105.824C111.956 105.909 111.994 105.988 112.046 106.058C113.761 108.137 115.58 110.128 117.495 112.026C117.958 112.707 118.665 113.182 119.469 113.356C119.791 113.396 120.118 113.36 120.425 113.252C120.731 113.144 121.008 112.966 121.233 112.732C134.656 103.524 145.525 94.043 153.817 79.2562C154.261 84.8256 154.096 90.4268 153.327 95.9606C156.612 96.8258 160.096 96.5195 163.18 95.0915C163.443 98.4685 163.295 101.863 162.739 105.203C162.712 105.362 162.745 105.526 162.831 105.663C162.918 105.799 163.052 105.899 163.208 105.942C163.492 106.022 163.776 106.098 164.06 106.173C162.608 124.741 160.099 142.131 161.143 160.573C162.211 179.523 165.63 198.267 171.323 216.373C162.357 220.669 161.862 220.746 160.721 221.928C160.44 222.263 160.278 222.682 160.261 223.119C160.244 223.556 160.372 223.986 160.626 224.342C160.867 224.58 161.154 224.766 161.469 224.89C161.784 225.014 162.121 225.072 162.459 225.062C167.611 225.503 172.781 225.677 177.95 225.585C178.768 225.707 179.603 225.632 180.387 225.368C181.171 225.104 181.881 224.657 182.458 224.064C182.88 223.401 183.137 222.646 183.208 221.863C183.28 221.079 183.163 220.291 182.868 219.562C182.493 218.729 182.236 217.848 182.104 216.944C182.2 216.941 182.294 216.918 182.38 216.875C182.465 216.833 182.541 216.772 182.6 216.697C182.66 216.622 182.702 216.535 182.725 216.442C182.747 216.349 182.749 216.252 182.73 216.158C179.926 202.454 178.687 188.476 179.038 174.492C179.378 161.439 180.038 146.379 183.619 132.775C183.936 131.026 184.625 129.366 185.637 127.905C186.016 127.321 186.528 126.834 187.13 126.484C187.732 126.133 188.408 125.93 189.103 125.889C188.878 130.534 191.471 148.461 191.506 148.656C193.291 158.242 197.127 167.327 202.753 175.291C208.379 183.254 215.66 189.906 224.098 194.79C228.441 197.484 233.123 199.585 238.021 201.039C238.231 201.098 238.08 200.052 239.14 213.474C239.173 214.089 239.305 214.695 239.533 215.268C239.697 215.702 240.019 216.059 240.434 216.266C240.849 216.474 241.327 216.518 241.773 216.389C242.107 216.289 242.41 216.111 242.66 215.869C242.911 215.628 243.1 215.331 243.213 215.001C245.525 210.412 247.587 205.7 249.388 200.887C249.757 200.153 249.964 199.347 249.996 198.525C250.027 197.704 249.882 196.885 249.57 196.124ZM120.406 111.734C120.32 111.835 120.214 111.917 120.094 111.975C119.975 112.033 119.845 112.065 119.712 112.069C119.228 111.946 118.808 111.646 118.534 111.228C116.92 109.453 115.013 107.675 113.512 105.801C120.846 100.427 127.667 94.3856 133.888 87.755C143.539 76.9695 145.586 64.7102 152.189 54.3619C151.603 56.752 152.13 59.4667 152.279 61.561C152.66 66.5479 153.272 71.7993 153.659 76.84C145.354 92.4396 134.281 102.194 120.406 111.734ZM180.801 217.045C180.942 218.094 181.234 219.117 181.669 220.083C181.87 220.592 181.955 221.141 181.918 221.687C181.881 222.234 181.722 222.766 181.454 223.244C181.002 223.674 180.455 223.993 179.857 224.175C179.26 224.357 178.628 224.396 178.013 224.291C172.839 224.378 167.664 224.203 162.509 223.767C162.199 223.774 161.895 223.686 161.637 223.516C161.557 223.397 161.438 223.217 161.731 222.754C162.604 221.88 163.065 221.774 171.874 217.56C172.123 217.708 171.438 217.708 180.794 217.041L180.801 217.045ZM204.819 97.0248C199.063 101.309 192.413 104.237 185.366 105.59C178.319 106.943 171.057 106.685 164.124 104.836C164.82 100.169 164.773 95.42 163.985 90.7668C162.761 76.5428 151.586 63.7482 157.295 47.8605C158.318 46.807 159.422 45.8354 160.598 44.9547C160.647 44.9556 160.696 44.9498 160.744 44.9377C161.885 44.6733 162.92 44.0738 163.717 43.2164C164.515 42.359 165.037 41.2828 165.218 40.1261C170.862 39.3199 178.962 39.2845 185.797 43.583C193.366 48.3357 197.132 56.8711 199.822 64.6055C203.377 74.0786 205.564 84.0103 206.315 94.1006C206.379 94.6811 206.271 95.2676 206.004 95.7869C205.736 96.3061 205.322 96.7353 204.813 97.0208L204.819 97.0248ZM248.173 200.365C246.367 205.184 244.303 209.903 241.991 214.501C241.947 214.654 241.865 214.794 241.752 214.907C241.64 215.019 241.5 215.102 241.347 215.147C241.232 215.165 241.113 215.147 241.008 215.094C240.903 215.042 240.817 214.958 240.762 214.855C240.37 213.661 240.534 214.855 239.383 200.013C239.377 199.94 239.359 199.868 239.329 199.801C240.274 198.158 241.07 196.512 241.816 194.895C244.926 195.623 246.51 194.542 248.383 196.694C248.61 197.285 248.708 197.918 248.671 198.551C248.634 199.183 248.462 199.8 248.167 200.361L248.173 200.365Z" fill="#343A3F"/>
<path d="M154.569 119.073C154.364 116.915 153.367 114.91 151.77 113.444C150.174 111.977 148.091 111.154 145.923 111.133H55.8278L46.4037 95.255C45.8227 94.2258 44.9757 93.3716 43.9515 92.7819C42.9273 92.1922 41.7634 91.8886 40.5816 91.9028H6.53013C5.64849 92.017 4.7981 92.3042 4.02779 92.748C3.25748 93.1918 2.58244 93.7834 2.04145 94.4888C1.50045 95.1942 1.10416 95.9996 0.875339 96.8586C0.646517 97.7177 0.589672 98.6135 0.70807 99.4945L13.7632 230.412H165.502L154.569 119.073Z" fill="#F2F4F8"/>
<path d="M166.218 231.061L155.208 118.998C154.973 116.686 153.897 114.54 152.183 112.969C150.47 111.398 148.239 110.512 145.914 110.48H56.2011L46.9759 94.9247C46.3383 93.796 45.4089 92.8594 44.2852 92.2131C43.1615 91.5667 41.8847 91.2343 40.5884 91.2506H6.43744C4.49418 91.5197 2.73509 92.5433 1.54106 94.0999C0.347033 95.6565 -0.185852 97.6208 0.0577848 99.5674C2.2476 116.154 0.345746 99.6983 13.1705 231.061H166.218ZM6.53038 92.5569H40.5831C41.6511 92.5442 42.7027 92.8189 43.628 93.3522C44.5533 93.8856 45.3181 94.6579 45.8424 95.5883L54.6789 110.48H2.69918L1.35492 99.396C1.14554 97.8046 1.5712 96.1947 2.53978 94.9148C3.50836 93.6349 4.94197 92.7878 6.53038 92.5569ZM145.917 111.789C147.919 111.82 149.839 112.587 151.313 113.941C152.787 115.296 153.712 117.145 153.912 119.137L164.776 229.752H14.3577L2.83923 111.789H145.917Z" fill="#343A3F"/>
<path d="M165.502 230.407H13.7637L46.7588 144.129C48.6987 137.953 51.34 134.953 56.4631 134.953H188.795C194.44 134.953 201.146 137.776 198.499 145.363L165.502 230.407Z" fill="white"/>
<path d="M165.95 231.062H12.8135L46.1477 143.894C48.2851 137.088 51.2773 134.299 56.4619 134.299H188.793C196.24 134.299 201.621 138.406 199.115 145.579L165.95 231.062ZM14.7153 229.753H165.054L197.886 145.127C198.328 144.152 198.52 143.082 198.447 142.014C198.374 140.946 198.038 139.912 197.468 139.006C195.689 136.5 191.82 135.603 188.792 135.603H56.4619C51.9003 135.603 49.3545 138.048 47.3833 144.32L14.7153 229.753Z" fill="#343A3F"/>
<path d="M81.3861 123.26C86.4555 120.567 89.1794 113.606 87.5877 107.415C86.216 102.08 82.1754 96.9512 76.2132 92.976C70.9776 89.4904 64.7642 87.1723 59.0141 84.5584C42.9877 77.2127 33.0151 67.6406 29.3724 56.1052C27.8619 51.4035 27.7048 44.6508 32.2402 41.1024C34.3605 39.5639 36.9578 38.8274 39.5701 39.0238C47.9262 39.3864 54.1829 46.0121 60.4238 51.537C63.3126 54.096 73.3821 62.0738 81.7185 57.2819C91.4242 51.3931 91.3168 27.8326 72.7341 17.6662C72.5994 17.5945 72.494 17.478 72.4359 17.3368C72.3779 17.1956 72.3709 17.0386 72.4162 16.8929C72.4614 16.7471 72.5561 16.6217 72.684 16.5383C72.8118 16.4548 72.9647 16.4186 73.1163 16.4358C73.2031 16.4466 73.2867 16.4746 73.3624 16.5183C78.1305 19.0434 82.134 22.8012 84.9556 27.4001C87.7772 31.999 89.3135 37.2705 89.4045 42.6652C89.6192 49.7216 86.9948 55.6104 82.3861 58.4089C73.2839 63.6445 62.6123 55.2216 59.5573 52.5187C53.5533 47.198 47.3752 40.6743 39.4955 40.3314C37.1929 40.1546 34.9019 40.7982 33.0282 42.1482C29.0425 45.2673 29.2323 51.4062 30.6198 55.7099C34.1538 66.8802 43.883 76.1839 59.5573 83.3686C65.3165 85.9864 71.5915 88.3228 76.9397 91.8883C83.1714 96.0428 87.4032 101.443 88.8508 107.09C90.6166 113.954 87.6728 121.403 81.996 124.418C81.8434 124.492 81.6679 124.503 81.5068 124.45C81.3458 124.397 81.2118 124.283 81.1335 124.132C81.0547 123.982 81.037 123.808 81.0841 123.645C81.1312 123.483 81.2394 123.345 81.3861 123.26Z" fill="#343A3F"/>
<path d="M72.6958 4.81611C69.5832 5.68524 66.04 6.37634 63.4666 8.65778C63.1626 8.13218 62.6698 7.74216 62.0884 7.56708C61.507 7.392 60.8807 7.44503 60.337 7.71537C59.4862 7.19834 59.8134 6.27556 60.5203 6.27556C60.6938 6.27556 60.8603 6.20661 60.983 6.08387C61.1058 5.96114 61.1747 5.79467 61.1747 5.6211C61.1747 5.44753 61.1058 5.28106 60.983 5.15833C60.8603 5.03559 60.6938 4.96664 60.5203 4.96664C60.0983 4.97201 59.6886 5.1088 59.348 5.35798C59.0075 5.60716 58.7531 5.95632 58.6203 6.35684C58.4875 6.75737 58.4829 7.18934 58.6072 7.59261C58.7314 7.99587 58.9783 8.35037 59.3134 8.60674L59.2873 8.65124C58.9062 8.55801 58.5065 8.57502 58.1347 8.70028C57.7629 8.82555 57.4344 9.05391 57.1875 9.35875C56.9405 9.66359 56.7853 10.0323 56.74 10.422C56.6946 10.8117 56.7609 11.2062 56.9312 11.5597C57.0119 11.7093 57.1478 11.8217 57.3099 11.873C57.4721 11.9243 57.6478 11.9104 57.7999 11.8344C57.9521 11.7583 58.0686 11.626 58.1249 11.4655C58.1811 11.3051 58.1727 11.129 58.1014 10.9746C57.9129 10.5963 58.0176 10.3973 58.1315 10.2678C58.2701 10.1271 58.4437 10.0259 58.6345 9.97486C58.8253 9.92377 59.0262 9.92457 59.2166 9.97717C59.3889 10.4197 59.6689 10.8123 60.0311 11.1195C60.3934 11.4266 60.8265 11.6386 61.2912 11.7364C61.6263 11.756 61.9627 11.722 62.286 11.6343C62.0147 12.7777 61.9115 13.9546 61.9797 15.1278L61.8056 20.9734C61.8056 21.1184 61.8537 21.2592 61.9425 21.3739C62.0312 21.4886 62.1555 21.5705 62.2958 21.6069C62.4361 21.6433 62.5846 21.6321 62.7178 21.575C62.8511 21.5179 62.9616 21.4182 63.0321 21.2914C64.8384 19.6645 66.375 18.7927 66.9117 15.9393C67.6413 16.0611 68.3907 15.9561 69.0588 15.6385C69.7268 15.3209 70.2813 14.8059 70.6473 14.1631C70.8709 13.5673 70.9445 12.9257 70.8617 12.2948C70.7788 11.6639 70.542 11.0631 70.1722 10.5452C70.764 10.1291 71.2668 9.59914 71.6513 8.98632C72.3502 7.94835 72.9602 6.85279 73.4733 5.71141C73.5239 5.59768 73.541 5.47187 73.5226 5.34876C73.5042 5.22565 73.4511 5.11034 73.3694 5.01635C73.2878 4.92237 73.1811 4.85361 73.0618 4.81814C72.9425 4.78268 72.8155 4.78197 72.6958 4.81611ZM69.4785 13.5859C69.2372 13.9999 68.869 14.3253 68.4284 14.5139C67.9879 14.7025 67.4983 14.7443 67.0321 14.633C67.0309 14.3353 67.0107 14.038 66.9719 13.7429C66.6523 12.8901 66.1224 12.1319 65.4313 11.5387C66.6377 11.7622 67.8828 11.635 69.0191 11.1722C69.2892 11.5042 69.4726 11.898 69.5528 12.3184C69.633 12.7388 69.6075 13.1725 69.4785 13.5806V13.5859Z" fill="#343A3F"/>
<path d="M177.146 132.129C177.124 133.539 176.779 134.924 176.136 136.178C175.494 137.433 174.571 138.523 173.44 139.364C172.951 139.725 172.418 140.021 171.853 140.246C171.604 140.272 171.354 140.21 171.147 140.069C171.046 139.901 171.009 139.702 171.041 139.508C171.073 139.314 171.174 139.138 171.324 139.012L172.029 137.776C171.684 138.577 171.151 139.284 170.475 139.837C169.799 140.389 169.001 140.772 168.147 140.952H167.624C167.27 140.776 167.27 140.069 167.624 139.717C168.147 139.012 168.683 138.129 169.211 137.423C168.558 138.448 167.555 139.2 166.388 139.541C165.855 139.705 165.154 139.717 164.977 139.187C164.486 137.715 168.152 136.331 168.152 133.188C166.559 133.985 167.307 134.141 166.388 134.601C165.603 135.386 164.61 134.26 164.977 133.894C165.145 132.791 165.71 131.788 166.565 131.072C167.763 129.87 169.304 129.068 170.976 128.777L171.152 128.601L177.146 132.129Z" fill="white"/>
<path d="M167.619 141.606C167.378 141.559 167.157 141.437 166.989 141.257C166.82 141.077 166.714 140.849 166.683 140.604C166.663 140.442 166.677 140.278 166.724 140.121C165.723 140.446 164.67 140.348 164.352 139.394C164.281 139.094 164.279 138.781 164.347 138.481C164.415 138.18 164.551 137.899 164.745 137.659C164.978 137.337 165.241 137.039 165.53 136.767C166.064 136.238 166.542 135.656 166.956 135.028C166.895 135.069 166.833 135.106 166.769 135.14C165.471 136.268 163.795 134.68 164.358 133.64C164.579 132.434 165.215 131.345 166.156 130.56C167.413 129.348 168.983 128.51 170.689 128.138C170.814 128.029 170.976 127.97 171.143 127.976C171.309 127.981 171.467 128.05 171.585 128.168C171.703 128.285 171.771 128.443 171.777 128.61C171.782 128.776 171.724 128.938 171.614 129.064C171.388 129.29 171.322 129.375 171.104 129.418C169.56 129.687 168.136 130.426 167.028 131.534C166.265 132.192 165.76 133.098 165.6 134.093C165.731 134.234 165.838 134.223 165.926 134.137C166.132 133.929 166.293 134.031 166.508 133.602C166.874 133.167 167.337 132.824 167.86 132.603C167.96 132.553 168.071 132.529 168.182 132.534C168.294 132.539 168.402 132.572 168.497 132.631C168.592 132.69 168.67 132.772 168.724 132.869C168.778 132.967 168.807 133.077 168.807 133.188C168.807 136.4 165.334 138.191 165.597 138.98C166.15 138.944 166.688 138.785 167.173 138.517C167.658 138.248 168.078 137.876 168.402 137.426L168.687 137.034C168.788 136.892 168.94 136.796 169.111 136.767C169.282 136.737 169.457 136.777 169.599 136.877C169.741 136.977 169.837 137.13 169.866 137.301C169.895 137.472 169.856 137.647 169.756 137.789C167.902 140.569 167.906 140.299 168.152 140.299C169.266 140.039 170.245 139.376 170.901 138.439L171.464 137.454C171.547 137.308 171.683 137.201 171.844 137.152C172.004 137.104 172.177 137.12 172.327 137.196C172.477 137.271 172.591 137.401 172.648 137.559C172.704 137.717 172.698 137.891 172.63 138.044C172.396 138.547 172.114 139.027 171.788 139.476C171.174 140.094 176.494 137.615 176.494 132.133C176.494 131.959 176.563 131.793 176.685 131.67C176.808 131.548 176.975 131.48 177.148 131.48C177.322 131.48 177.488 131.548 177.612 131.67C177.734 131.793 177.802 131.96 177.803 132.133C177.786 133.643 177.42 135.129 176.733 136.474C176.045 137.819 175.056 138.986 173.842 139.885C173.248 140.344 172.575 140.689 171.855 140.903C171.642 140.928 171.425 140.907 171.221 140.84C171.016 140.774 170.828 140.664 170.67 140.518C169.963 141.052 169.146 141.42 168.278 141.597L167.619 141.606Z" fill="#343A3F"/>
<path d="M178.383 132.306C189.541 110.284 192.807 90.2076 192.145 68.4311C191.999 63.6667 193.154 48.156 187.171 46.1887C185.581 45.6652 181.841 46.1364 180.607 47.3667C176.724 51.249 180.154 66.4874 180.154 71.2505C180.088 77.9195 179.617 84.5766 178.741 91.188C178.357 94.3608 171.15 129.3 169.037 128.593C172.222 129.648 175.342 130.888 178.383 132.306Z" fill="#DDE1E6"/>
<path d="M205.2 77.9643C203.954 69.8162 201.328 61.9399 197.437 54.6735C195.49 51.2162 193.119 48.0156 190.379 45.1459C187.513 42.4487 183.981 40.5614 180.146 39.6772C178.028 39.1471 174.853 37.9115 172.912 38.9704C170.442 40.3827 169.912 44.087 169.736 46.5621C168.807 58.6395 172.019 71.0978 176.441 90.6726C177.083 90.6844 177.725 90.6608 178.365 90.6045C176.694 103.549 173.413 116.234 168.597 128.365C168.565 128.448 168.549 128.537 168.552 128.626C168.555 128.715 168.576 128.802 168.613 128.883C168.651 128.963 168.704 129.035 168.771 129.094C168.837 129.154 168.915 129.199 168.999 129.227C172.122 130.192 175.158 131.418 178.075 132.892C178.153 132.932 178.237 132.957 178.324 132.964C178.41 132.971 178.498 132.962 178.581 132.935C178.663 132.908 178.74 132.866 178.807 132.809C178.873 132.753 178.927 132.684 178.967 132.606C185.862 119.246 190.296 104.754 192.056 89.8231C195.36 87.7812 207.171 83.8754 205.2 77.9643ZM178.091 131.42C175.499 130.151 172.818 129.075 170.067 128.201C179.469 104.263 182.85 78.3828 179.913 52.8331C179.91 52.8021 179.903 52.7715 179.895 52.7415C180.238 51.5488 180.934 50.4881 181.892 49.6992C182.85 48.9104 184.025 48.4304 185.261 48.3226C186.195 48.3906 187.099 48.6826 187.897 49.1738C188.694 49.665 189.362 50.341 189.843 51.1446C190.031 51.4143 190.206 51.6918 190.366 51.9797C193.182 80.0416 192.015 103.281 178.091 131.42Z" fill="#343A3F"/>
<path d="M143.387 37.8854C141.905 37.6498 141.498 34.9612 142.588 34.4822C143.679 34.0031 145.409 35.5175 145.117 36.8382C144.825 38.1602 143.997 37.9835 143.387 37.8854Z" fill="#343A3F"/>
<path d="M152.31 32.6753C150.828 32.4384 150.421 29.7512 151.513 29.2722C152.604 28.7931 154.332 30.3088 154.04 31.6282C153.748 32.9476 152.92 32.7683 152.31 32.6753Z" fill="#343A3F"/>
<path d="M117.507 111.134C115.131 108.681 112.747 105.665 112.747 105.665C108.588 106.422 105.302 107.645 103.258 111.134H107.673C107.612 111.483 107.597 111.841 107.63 112.193C107.807 113.075 108.332 114.113 109.394 113.957C110.563 113.787 110.764 111.953 111.607 111.134H117.507Z" fill="white"/>
<path d="M117.976 110.68C113.321 105.872 113.446 104.869 112.629 105.021C108.345 105.8 104.867 107.091 102.693 110.804C102.635 110.903 102.604 111.016 102.603 111.132C102.602 111.247 102.632 111.36 102.689 111.46C102.747 111.56 102.829 111.643 102.929 111.701C103.029 111.759 103.142 111.789 103.257 111.79H106.967C106.946 113.267 107.952 114.831 109.474 114.606C110.952 114.389 111.29 112.625 111.905 111.79H117.506C117.635 111.79 117.76 111.752 117.867 111.681C117.975 111.61 118.059 111.509 118.109 111.39C118.159 111.272 118.173 111.141 118.149 111.015C118.126 110.889 118.065 110.772 117.976 110.68ZM109.286 113.312C108.605 113.413 108.334 112.386 108.281 112.134C108.231 111.314 108.457 110.5 108.922 109.823C109.388 109.146 110.066 108.644 110.85 108.397C110.934 108.37 111.011 108.326 111.078 108.268C111.144 108.211 111.198 108.14 111.237 108.061C111.275 107.982 111.298 107.896 111.302 107.809C111.307 107.721 111.294 107.633 111.264 107.55C111.233 107.468 111.187 107.392 111.127 107.328C111.067 107.263 110.995 107.212 110.914 107.176C110.834 107.14 110.747 107.121 110.659 107.12C110.571 107.118 110.484 107.135 110.403 107.168C109.641 107.427 108.95 107.862 108.388 108.438C107.825 109.013 107.406 109.713 107.164 110.481H104.481C105.252 109.45 106.247 108.606 107.391 108.015C109.005 107.242 110.715 106.693 112.478 106.381C113.51 107.657 114.575 108.906 115.671 110.127C112.094 110.127 112.187 110.114 112.056 110.147C110.359 110.571 110.171 113.182 109.286 113.312Z" fill="#343A3F"/>
<path d="M143.64 45.4527C144.102 45.4527 144.559 45.3618 144.986 45.1851C145.412 45.0083 145.8 44.7493 146.126 44.4228C146.453 44.0963 146.712 43.7086 146.889 43.282C147.065 42.8554 147.156 42.3981 147.156 41.9363C147.156 41.4745 147.065 41.0173 146.889 40.5907C146.712 40.164 146.453 39.7764 146.126 39.4499C145.8 39.1233 145.412 38.8643 144.986 38.6876C144.559 38.5109 144.102 38.4199 143.64 38.4199C142.707 38.4199 141.813 38.7904 141.153 39.4499C140.494 40.1093 140.124 41.0037 140.124 41.9363C140.124 42.8689 140.494 43.7633 141.153 44.4228C141.813 45.0823 142.707 45.4527 143.64 45.4527Z" fill="#FF5470"/>
<path d="M159.945 34.7243C161.054 34.7243 162.118 34.2837 162.902 33.4995C163.686 32.7152 164.127 31.6515 164.127 30.5423C164.127 29.4332 163.686 28.3695 162.902 27.5852C162.118 26.801 161.054 26.3604 159.945 26.3604C158.836 26.3604 157.772 26.801 156.988 27.5852C156.203 28.3695 155.763 29.4332 155.763 30.5423C155.763 31.6515 156.203 32.7152 156.988 33.4995C157.772 34.2837 158.836 34.7243 159.945 34.7243Z" fill="#FF5470"/>
</svg>
