<svg width="24" height="23" viewBox="0 0 24 23" fill="none" xmlns="http://www.w3.org/2000/svg">
  <mask id="path-1-inside-1_13043_195702" fill="white">
    <path fill-rule="evenodd" clip-rule="evenodd"
          d="M20 0.136597C22.2091 0.136597 24 1.92746 24 4.1366V18.8734C24 21.0826 22.2091 22.8734 20 22.8734H3.78948L2.47955e-05 11.505L3.78948 0.136597H20Z"/>
  </mask>
  <path
    d="M3.78948 22.8734V24.8734H2.34796L1.89211 23.5059L3.78948 22.8734ZM2.47955e-05 11.505L-1.89734 12.1375L-2.10816 11.505L-1.89734 10.8726L2.47955e-05 11.505ZM3.78948 0.136597L1.89211 -0.495856L2.34796 -1.8634H3.78948V0.136597ZM22 4.1366C22 3.03203 21.1046 2.1366 20 2.1366V-1.8634C23.3137 -1.8634 26 0.822896 26 4.1366H22ZM22 18.8734V4.1366H26V18.8734H22ZM20 20.8734C21.1046 20.8734 22 19.978 22 18.8734H26C26 22.1871 23.3137 24.8734 20 24.8734V20.8734ZM3.78948 20.8734H20V24.8734H3.78948V20.8734ZM1.89739 10.8726L5.68684 22.241L1.89211 23.5059L-1.89734 12.1375L1.89739 10.8726ZM5.68684 0.769049L1.89739 12.1375L-1.89734 10.8726L1.89211 -0.495856L5.68684 0.769049ZM20 2.1366H3.78948V-1.8634H20V2.1366Z"
    fill="#212B3D" mask="url(#path-1-inside-1_13043_195702)"/>
</svg>
