<svg width="24" height="24" viewBox="0 0 24 24" fill="none" xmlns="http://www.w3.org/2000/svg">
    <path d="M4.53578 10.6279C5.73578 10.2279 5.70245 11.1275 5.53578 11.6275C5.81775 10.7816 9.53578 7.12788 11.0358 9.62788C12.5361 8.62793 13.5358 7.62788 16.0358 7.12744C18.2024 6.79411 22.0355 6.90254 22.0358 10.1274C22.0361 13.6279 13.5354 19.6279 10.0358 13.1274L7.53578 15.6279C7.03578 16.1279 6.33578 16.6279 5.53578 16.6279C4.73578 16.6279 4.53578 16.1279 4.03578 15.1279C3.70245 15.6279 2.85283 17.0571 2.03558 17.1279C-0.464619 17.1279 2.03578 11.4612 4.53578 10.6279Z" stroke="currentColor" stroke-width="0.8"/>
    <path d="M18.5361 9.62776C17.5361 7.62841 13.5361 9.7946 12.0361 11.1279C12.0361 11.1279 13.0361 13.2944 15.0361 13.1278C17.0361 12.9612 19.0361 11.128 18.5361 9.62776Z" stroke="currentColor" stroke-width="0.8"/>
    <path d="M8.53613 10.6279C7.73613 10.6279 6.03613 12.6279 5.53613 13.1279C5.53613 13.1279 5.53613 14.1279 6.03613 14.6279C7.03613 14.6279 9.53613 11.6279 9.53613 11.6279C9.53613 11.2945 9.33613 10.6279 8.53613 10.6279Z" stroke="currentColor" stroke-width="0.8"/>
    <path d="M4.03613 12.1279C4.53613 11.6279 4.53613 12.628 4.53613 13.1279C3.7028 13.9613 2.03613 16.1279 2.03613 15.1279C2.03613 14.1279 3.74496 12.419 4.03613 12.1279Z" stroke="currentColor" stroke-width="0.8"/>
</svg>
