<svg width="24" height="24" viewBox="0 0 24 24" fill="none" xmlns="http://www.w3.org/2000/svg">
<path fill-rule="evenodd" clip-rule="evenodd" d="M5.53578 11.6275C5.70245 11.1275 5.73578 10.2279 4.53578 10.6279C2.03578 11.4612 -0.464619 17.1279 2.03558 17.1279C2.7763 17.0638 3.54361 15.8836 3.92901 15.2909C3.96883 15.2297 4.00457 15.1747 4.03578 15.1279C4.06438 15.1851 4.09199 15.2406 4.11879 15.2945C4.56062 16.1834 4.78154 16.6279 5.53578 16.6279C6.33578 16.6279 7.03578 16.1279 7.53578 15.6279L10.0358 13.1274C13.5354 19.6279 22.0361 13.6279 22.0358 10.1274C22.0355 6.90254 18.2024 6.79411 16.0358 7.12744C13.9988 7.53521 12.9578 8.27467 11.8305 9.07551C11.5743 9.25752 11.3136 9.4427 11.0358 9.62788C9.53578 7.12788 5.81775 10.7816 5.53578 11.6275ZM18.5361 9.62776C17.5361 7.62841 13.5361 9.7946 12.0361 11.1279C12.0361 11.1279 13.0361 13.2944 15.0361 13.1278C17.0361 12.9612 19.0361 11.128 18.5361 9.62776ZM8.53613 10.6279C7.87263 10.6279 6.59004 12.0037 5.88643 12.7584C5.74169 12.9136 5.62144 13.0426 5.53613 13.1279C5.53613 13.1279 5.53613 14.1279 6.03613 14.6279C7.03613 14.6279 9.53613 11.6279 9.53613 11.6279C9.53613 11.2945 9.33613 10.6279 8.53613 10.6279ZM4.53613 13.1279C4.53613 12.628 4.53613 11.6279 4.03613 12.1279C3.74496 12.419 2.03613 14.1279 2.03613 15.1279C2.03613 15.8919 3.00879 14.8078 3.83953 13.8818C4.09625 13.5957 4.33941 13.3247 4.53613 13.1279Z" fill="currentColor"/>
<path d="M4.53578 10.6279L4.50416 10.533L4.50416 10.533L4.53578 10.6279ZM2.03558 17.1279L2.03558 17.2283L2.0442 17.2275L2.03558 17.1279ZM3.92901 15.2909L4.01285 15.3454L4.01285 15.3454L3.92901 15.2909ZM4.03578 15.1279L4.12523 15.0832L4.04816 14.929L3.95258 15.0724L4.03578 15.1279ZM4.11879 15.2945L4.02924 15.3391L4.02924 15.3391L4.11879 15.2945ZM7.53578 15.6279L7.60649 15.6986L7.6065 15.6986L7.53578 15.6279ZM10.0358 13.1274L10.1238 13.08L10.0601 12.9617L9.96507 13.0567L10.0358 13.1274ZM22.0358 10.1274L21.9358 10.1275L21.9358 10.1275L22.0358 10.1274ZM16.0358 7.12744L16.0206 7.0285L16.0162 7.02939L16.0358 7.12744ZM11.8305 9.07551L11.7726 8.99399L11.7726 8.99399L11.8305 9.07551ZM11.0358 9.62788L10.95 9.67933L11.004 9.76925L11.0912 9.71109L11.0358 9.62788ZM12.0361 11.1279L11.9697 11.0532L11.9142 11.1025L11.9453 11.1698L12.0361 11.1279ZM18.5361 9.62776L18.631 9.59614L18.6288 9.58939L18.6256 9.58303L18.5361 9.62776ZM5.88643 12.7584L5.95957 12.8266L5.95957 12.8266L5.88643 12.7584ZM5.53613 13.1279L5.46542 13.0572L5.43613 13.0865V13.1279H5.53613ZM6.03613 14.6279L5.96542 14.6986L5.99471 14.7279H6.03613V14.6279ZM9.53613 11.6279L9.61296 11.6919L9.63613 11.6641V11.6279H9.53613ZM4.03613 12.1279L4.10683 12.1987L4.10684 12.1986L4.03613 12.1279ZM4.53613 13.1279L4.60684 13.1986L4.63613 13.1694V13.1279H4.53613ZM3.83953 13.8818L3.7651 13.815L3.7651 13.815L3.83953 13.8818ZM4.56741 10.7228C4.85882 10.6256 5.06193 10.6122 5.20021 10.6427C5.3333 10.672 5.41199 10.7429 5.45916 10.8356C5.50861 10.9327 5.52605 11.0599 5.51873 11.1989C5.51148 11.3367 5.48031 11.4777 5.44092 11.5959L5.63065 11.6591C5.6746 11.5273 5.71009 11.3684 5.71846 11.2094C5.72677 11.0516 5.70879 10.8851 5.6374 10.7448C5.56374 10.6001 5.43618 10.4898 5.24323 10.4474C5.05547 10.406 4.81275 10.4302 4.50416 10.533L4.56741 10.7228ZM2.03558 17.0279C1.74263 17.0279 1.53481 16.9454 1.39125 16.81C1.24651 16.6735 1.15582 16.4726 1.11889 16.2152C1.04452 15.6971 1.19314 14.9826 1.5031 14.2284C1.81184 13.4772 2.27532 12.6997 2.81529 12.0595C3.35665 11.4177 3.96725 10.9228 4.56741 10.7228L4.50416 10.533C3.85431 10.7496 3.21487 11.2756 2.66241 11.9306C2.10855 12.5873 1.63445 13.3827 1.31811 14.1524C1.003 14.919 0.839053 15.6733 0.920916 16.2437C0.962096 16.5306 1.06672 16.7789 1.25403 16.9555C1.44252 17.1333 1.70348 17.2279 2.03558 17.2279V17.0279ZM3.84517 15.2364C3.652 15.5335 3.36757 15.9707 3.04054 16.3415C2.87714 16.5268 2.70549 16.6927 2.53195 16.8155C2.35783 16.9388 2.18792 17.0143 2.02695 17.0283L2.0442 17.2275C2.2536 17.2094 2.45738 17.1134 2.6475 16.9788C2.8382 16.8438 3.02135 16.6656 3.19054 16.4738C3.5287 16.0903 3.82062 15.6411 4.01285 15.3454L3.84517 15.2364ZM3.95258 15.0724C3.92098 15.1198 3.88489 15.1753 3.84517 15.2364L4.01285 15.3454C4.05276 15.284 4.08816 15.2296 4.11899 15.1834L3.95258 15.0724ZM4.20834 15.25C4.18155 15.1961 4.15388 15.1405 4.12523 15.0832L3.94634 15.1726C3.97487 15.2297 4.00244 15.2851 4.02924 15.3391L4.20834 15.25ZM5.53578 16.5279C5.18373 16.5279 4.96762 16.4264 4.78368 16.2268C4.59083 16.0175 4.4318 15.6996 4.20834 15.25L4.02924 15.3391C4.24762 15.7784 4.41995 16.1272 4.63659 16.3623C4.86212 16.6071 5.13359 16.7279 5.53578 16.7279V16.5279ZM7.46507 15.5572C6.97057 16.0517 6.29507 16.5279 5.53578 16.5279V16.7279C6.3765 16.7279 7.101 16.2041 7.60649 15.6986L7.46507 15.5572ZM9.96507 13.0567L7.46507 15.5572L7.6065 15.6986L10.1065 13.1981L9.96507 13.0567ZM21.9358 10.1275C21.9359 10.9664 21.4235 11.9746 20.5785 12.9205C19.7362 13.8632 18.5759 14.7296 17.3081 15.2862C16.0398 15.843 14.6716 16.0866 13.4097 15.7959C12.1515 15.506 10.9865 14.6825 10.1238 13.08L9.94773 13.1748C10.8348 14.8226 12.0448 15.6867 13.3648 15.9908C14.681 16.2939 16.0941 16.0376 17.3885 15.4694C18.6832 14.901 19.8668 14.0173 20.7276 13.0537C21.5857 12.0932 22.1359 11.0387 22.1358 10.1274L21.9358 10.1275ZM16.051 7.22628C17.1277 7.06064 18.61 7.00657 19.818 7.38845C20.4209 7.57902 20.9494 7.87625 21.3269 8.31642C21.7031 8.75494 21.9357 9.34261 21.9358 10.1275L22.1358 10.1274C22.1357 9.29982 21.8891 8.6646 21.4787 8.1862C21.0698 7.70945 20.5046 7.39574 19.8783 7.19775C18.6281 6.80253 17.1106 6.86091 16.0206 7.0286L16.051 7.22628ZM11.8884 9.15703C13.0127 8.35834 14.0396 7.62902 16.0554 7.2255L16.0162 7.02939C13.9579 7.4414 12.9029 8.191 11.7726 8.99399L11.8884 9.15703ZM11.0912 9.71109C11.3705 9.52496 11.6324 9.33893 11.8884 9.15703L11.7726 8.99399C11.5162 9.17611 11.2567 9.36045 10.9803 9.54467L11.0912 9.71109ZM5.63065 11.6591C5.66061 11.5693 5.74141 11.4302 5.87163 11.2561C6.00011 11.0842 6.17137 10.8852 6.3748 10.6764C6.78188 10.2587 7.31358 9.80641 7.8813 9.45823C8.45086 9.10892 9.04651 8.87067 9.58399 8.86668C10.1126 8.86275 10.5933 9.08478 10.95 9.67933L11.1215 9.57643C10.7283 8.92098 10.1817 8.66223 9.58251 8.66668C8.99217 8.67107 8.35944 8.93037 7.77674 9.28774C7.19221 9.64622 6.64778 10.1097 6.23156 10.5368C6.02333 10.7505 5.84614 10.9562 5.71146 11.1363C5.57852 11.3141 5.48145 11.4743 5.44092 11.5959L5.63065 11.6591ZM12.1026 11.2027C12.8435 10.544 14.2073 9.67618 15.5066 9.2225C16.1566 8.99552 16.7811 8.87563 17.299 8.93063C17.812 8.9851 18.2152 9.20957 18.4467 9.67249L18.6256 9.58303C18.3571 9.04628 17.8853 8.79176 17.3201 8.73175C16.7599 8.67226 16.1031 8.80237 15.4407 9.03368C14.1149 9.4966 12.7287 10.3785 11.9697 11.0532L12.1026 11.2027ZM15.0278 13.0281C14.0693 13.108 13.3469 12.6301 12.8583 12.1211C12.6143 11.8669 12.4309 11.6073 12.3085 11.4109C12.2474 11.3129 12.2016 11.231 12.1713 11.1738C12.1562 11.1453 12.1449 11.123 12.1375 11.108C12.1338 11.1005 12.1311 11.0948 12.1293 11.0911C12.1284 11.0892 12.1278 11.0879 12.1274 11.087C12.1272 11.0866 12.1271 11.0863 12.127 11.0861C12.1269 11.0861 12.1269 11.086 12.1269 11.086C12.1269 11.086 12.1269 11.086 12.1269 11.086C12.1269 11.086 12.1269 11.086 12.0361 11.1279C11.9453 11.1698 11.9454 11.1699 11.9454 11.1699C11.9454 11.17 11.9454 11.17 11.9454 11.1701C11.9455 11.1702 11.9456 11.1703 11.9457 11.1705C11.9458 11.1709 11.946 11.1714 11.9463 11.172C11.9469 11.1732 11.9477 11.175 11.9488 11.1772C11.9509 11.1817 11.9541 11.1882 11.9582 11.1965C11.9664 11.2131 11.9786 11.2372 11.9947 11.2676C12.0269 11.3283 12.0749 11.4143 12.1388 11.5167C12.2664 11.7214 12.458 11.9929 12.714 12.2596C13.2253 12.7922 14.003 13.3142 15.0444 13.2274L15.0278 13.0281ZM18.4413 9.65938C18.6734 10.3559 18.3298 11.1508 17.654 11.8061C16.9814 12.4583 16.0025 12.9469 15.0278 13.0281L15.0444 13.2274C16.0698 13.142 17.0909 12.6308 17.7932 11.9497C18.4924 11.2717 18.8989 10.3999 18.631 9.59614L18.4413 9.65938ZM5.95957 12.8266C6.3119 12.4487 6.80535 11.9195 7.29287 11.4848C7.5367 11.2674 7.77648 11.0759 7.99426 10.9394C8.21555 10.8007 8.39983 10.7279 8.53613 10.7279V10.5279C8.34068 10.5279 8.11583 10.6271 7.88803 10.77C7.65673 10.915 7.40748 11.1146 7.15977 11.3355C6.66421 11.7774 6.16457 12.3134 5.81329 12.6902L5.95957 12.8266ZM5.60684 13.1986C5.6937 13.1118 5.8154 12.9812 5.95957 12.8266L5.81329 12.6902C5.66797 12.8461 5.54918 12.9735 5.46542 13.0572L5.60684 13.1986ZM6.10684 14.5572C5.8781 14.3285 5.75802 13.9774 5.69669 13.6708C5.66641 13.5194 5.65123 13.3829 5.64365 13.2843C5.63986 13.2351 5.63798 13.1955 5.63705 13.1684C5.63658 13.1549 5.63635 13.1445 5.63624 13.1376C5.63618 13.1342 5.63616 13.1316 5.63614 13.13C5.63614 13.1292 5.63614 13.1286 5.63613 13.1283C5.63613 13.1281 5.63613 13.128 5.63613 13.1279C5.63613 13.1279 5.63613 13.1279 5.63613 13.1279C5.63613 13.1279 5.63613 13.1279 5.63613 13.1279C5.63613 13.1279 5.63613 13.1279 5.53613 13.1279C5.43613 13.1279 5.43613 13.128 5.43613 13.128C5.43613 13.128 5.43613 13.128 5.43613 13.1281C5.43613 13.1281 5.43613 13.1282 5.43613 13.1283C5.43613 13.1285 5.43613 13.1287 5.43614 13.1291C5.43614 13.1297 5.43614 13.1305 5.43615 13.1316C5.43617 13.1338 5.4362 13.1369 5.43627 13.1409C5.4364 13.1489 5.43666 13.1605 5.43717 13.1753C5.43819 13.2049 5.44021 13.2473 5.44424 13.2997C5.45228 13.4042 5.46835 13.5489 5.50057 13.71C5.56425 14.0284 5.69417 14.4274 5.96542 14.6986L6.10684 14.5572ZM9.53613 11.6279C9.45931 11.5639 9.45931 11.5639 9.45929 11.5639C9.45928 11.564 9.45926 11.564 9.45922 11.564C9.45915 11.5641 9.45905 11.5642 9.4589 11.5644C9.45862 11.5647 9.45818 11.5653 9.4576 11.566C9.45642 11.5674 9.45466 11.5695 9.45231 11.5723C9.44762 11.5779 9.44061 11.5862 9.43141 11.5971C9.413 11.6189 9.38582 11.6509 9.35083 11.6918C9.28085 11.7734 9.17969 11.8901 9.05514 12.0302C8.80595 12.3106 8.4636 12.684 8.09042 13.0572C7.71681 13.4308 7.31439 13.8021 6.94488 14.0792C6.76009 14.2178 6.58569 14.3312 6.42891 14.4096C6.27051 14.4888 6.13847 14.5279 6.03613 14.5279V14.7279C6.18379 14.7279 6.34863 14.6733 6.51835 14.5885C6.6897 14.5028 6.87467 14.3818 7.06488 14.2392C7.44538 13.9538 7.85546 13.575 8.23184 13.1986C8.60867 12.8218 8.95381 12.4453 9.20462 12.1631C9.33008 12.022 9.43204 11.9043 9.50268 11.8219C9.53801 11.7807 9.56551 11.7483 9.58422 11.7261C9.59357 11.7151 9.60072 11.7066 9.60555 11.7008C9.60797 11.6979 9.6098 11.6957 9.61104 11.6942C9.61166 11.6935 9.61213 11.6929 9.61245 11.6926C9.61261 11.6924 9.61273 11.6922 9.61282 11.6921C9.61286 11.6921 9.61289 11.692 9.61291 11.692C9.61294 11.692 9.61296 11.6919 9.53613 11.6279ZM8.53613 10.7279C8.90354 10.7279 9.12352 10.8788 9.25498 11.0613C9.39011 11.249 9.43613 11.4772 9.43613 11.6279H9.63613C9.63613 11.4452 9.58216 11.1735 9.41729 10.9445C9.24874 10.7104 8.96872 10.5279 8.53613 10.5279V10.7279ZM4.10684 12.1986C4.2292 12.0763 4.27755 12.0912 4.28458 12.0943C4.29306 12.0981 4.3086 12.1096 4.32712 12.1422C4.34538 12.1743 4.36218 12.2195 4.37662 12.2772C4.43547 12.5126 4.43613 12.8735 4.43613 13.1279H4.63613C4.63613 12.8824 4.6368 12.4933 4.57065 12.2287C4.55383 12.1614 4.53158 12.0972 4.50101 12.0434C4.47069 11.99 4.42765 11.939 4.36581 11.9116C4.23221 11.8522 4.09307 11.9296 3.96542 12.0572L4.10684 12.1986ZM2.13613 15.1279C2.13613 14.903 2.23344 14.6265 2.3957 14.3257C2.55668 14.0273 2.77558 13.7159 3.0055 13.424C3.4652 12.8403 3.96162 12.3438 4.10683 12.1987L3.96543 12.0572C3.81948 12.2031 3.31589 12.7066 2.84838 13.3002C2.6147 13.5969 2.3882 13.9184 2.21968 14.2308C2.05243 14.5408 1.93613 14.8529 1.93613 15.1279H2.13613ZM3.7651 13.815C3.34768 14.2803 2.9023 14.7763 2.56201 15.062C2.47746 15.1329 2.40181 15.1888 2.33665 15.2275C2.2696 15.2673 2.22233 15.2836 2.19279 15.2861C2.17095 15.2879 2.16725 15.2829 2.16234 15.2756C2.15101 15.2589 2.13613 15.2168 2.13613 15.1279H1.93613C1.93613 15.2301 1.95165 15.3212 1.99676 15.3878C2.04828 15.4638 2.12706 15.4922 2.20939 15.4854C2.28402 15.4792 2.3626 15.4447 2.43874 15.3995C2.51677 15.3532 2.60164 15.2898 2.6906 15.2152C3.04432 14.9182 3.50064 14.4093 3.91397 13.9486L3.7651 13.815ZM4.46542 13.0572C4.26635 13.2563 4.02114 13.5297 3.7651 13.815L3.91397 13.9486C4.17136 13.6617 4.41247 13.393 4.60684 13.1986L4.46542 13.0572Z" fill="currentColor"/>
</svg>
