<svg xmlns="http://www.w3.org/2000/svg" width="18" height="18" viewBox="0 0 18 18" fill="none">
  <path fill-rule="evenodd" clip-rule="evenodd" d="M7.81885 1.13494C7.55148 1.14977 7.31008 1.25515 7.12502 1.43782C6.96344 1.59732 6.86968 1.77383 6.81984 2.01238C6.80865 2.06593 6.80766 2.55508 6.80568 8.97658L6.80356 15.8832H6.16287H5.5222L5.52025 12.3786C5.5184 9.03984 5.5177 8.87095 5.50538 8.81008C5.42158 8.39593 5.1227 8.0765 4.72285 7.97374C4.59748 7.94151 4.61184 7.94184 3.32497 7.94171C2.13434 7.94158 2.10135 7.94194 2.0189 7.95603C1.82493 7.9892 1.64557 8.0737 1.49793 8.20149C1.35699 8.32348 1.24684 8.48852 1.18849 8.66518C1.15952 8.75286 1.14527 8.82661 1.13717 8.93065C1.13305 8.98365 1.13031 10.3676 1.13022 12.4506L1.13005 15.8832L0.779053 15.8833C0.506727 15.8834 0.41744 15.8857 0.380699 15.8935C0.202427 15.9313 0.0440913 16.0914 0.0102801 16.2681C-0.00314068 16.3382 -0.00309748 16.4196 0.0103881 16.4844C0.0453945 16.6526 0.198308 16.8089 0.371346 16.8533C0.41852 16.8654 0.82555 16.866 8.99965 16.866C17.1738 16.866 17.5808 16.8654 17.628 16.8533C17.6552 16.8463 17.7038 16.827 17.736 16.8103C17.8531 16.7498 17.9618 16.6135 17.9852 16.4978C17.9899 16.4746 17.9967 16.45 18.0003 16.4431C18.0095 16.4256 18.0089 16.2987 17.9997 16.3044C17.9956 16.3069 17.9925 16.3011 17.9925 16.2912C17.9925 16.2814 17.9857 16.2513 17.9775 16.2241C17.9346 16.0828 17.8101 15.9565 17.6613 15.9035C17.615 15.887 17.6105 15.8868 17.2419 15.8846L16.8693 15.8825L16.869 10.751C16.8689 7.7099 16.8661 5.58281 16.8622 5.52933C16.851 5.37622 16.8199 5.25901 16.7563 5.13016C16.625 4.864 16.396 4.66991 16.1107 4.5829C15.9641 4.53819 16.0505 4.541 14.7309 4.53795C13.8935 4.53602 13.4995 4.53757 13.4421 4.54303C13.185 4.56746 12.9724 4.66793 12.7867 4.85278C12.6403 4.9984 12.5477 5.17025 12.4976 5.38918L12.4811 5.46118L12.4791 10.6722L12.4771 15.8832H11.8364H11.1957L11.1936 8.97658C11.1916 2.55508 11.1907 2.06593 11.1795 2.01238C11.1494 1.86845 11.1041 1.75084 11.0358 1.63933C10.9867 1.55911 10.9471 1.50974 10.8743 1.43782C10.7197 1.28526 10.5322 1.18955 10.3035 1.14646C10.2482 1.13604 10.115 1.1347 9.05005 1.13377C8.39467 1.13321 7.84063 1.13373 7.81885 1.13494ZM7.83479 2.12763C7.81944 2.13429 7.80741 2.14677 7.80059 2.16311C7.79137 2.18517 7.79005 3.04332 7.79005 9.03575V15.8832H8.99965H10.2093V9.03575C10.2093 3.04024 10.2079 2.18518 10.1987 2.16309C10.178 2.11359 10.2604 2.11675 8.99808 2.11706C8.02679 2.1173 7.85495 2.11886 7.83479 2.12763ZM13.5096 5.52943C13.5013 5.53281 13.4875 5.54439 13.479 5.55515L13.4637 5.57472V10.7289V15.8832H14.6733H15.8829V10.7385C15.8829 6.30857 15.8814 5.59051 15.8726 5.56942C15.8514 5.51875 15.9437 5.52233 14.6718 5.52283C14.041 5.52308 13.518 5.52606 13.5096 5.52943ZM2.14357 8.94899L2.12005 8.97L2.11822 12.4266L2.1164 15.8832H3.32602H4.53565V12.4339C4.53565 9.90764 4.5335 8.98042 4.52761 8.9689C4.52319 8.96025 4.51266 8.94758 4.50421 8.94073C4.4898 8.92906 4.41702 8.92829 3.32797 8.92813L2.16708 8.92798L2.14357 8.94899ZM0.00228092 16.3764C0.00230252 16.416 0.00351212 16.4313 0.00496652 16.4103C0.00642812 16.3894 0.00641372 16.357 0.00493772 16.3383C0.00345452 16.3197 0.00226652 16.3368 0.00228092 16.3764Z" fill="currentColor"/>
</svg>