<svg width="24" height="24" viewBox="0 0 24 24" fill="none" xmlns="http://www.w3.org/2000/svg">
  <path
    d="M6.59998 19.8008C7.02172 19.8071 7.4408 19.869 7.84638 19.9848L10.7536 20.8152C11.1821 20.9377 11.6255 20.9999 12.0712 21H15.9792C17.1691 21 18.3167 20.558 19.1992 19.7598C20.0816 18.9616 20.6362 17.864 20.7552 16.68L20.9952 12.6C21.0376 11.7672 20.7896 10.9454 20.2935 10.2751C19.7975 9.60485 19.0841 9.12756 18.2752 8.9248L17.1112 8.6704C16.851 8.60589 16.62 8.45615 16.4548 8.24505C16.2897 8.03394 16.2 7.77363 16.2 7.5056V4.8C16.2 4.32261 16.0103 3.86477 15.6728 3.52721C15.3352 3.18964 14.8774 3 14.4 3C13.9226 3 13.4647 3.18964 13.1272 3.52721C12.7896 3.86477 12.6 4.32261 12.6 4.8V6.0432C12.6 7.6345 11.9678 9.16062 10.8426 10.2858C9.7174 11.4111 8.19127 12.0432 6.59998 12.0432V19.8008Z"
    stroke="#B9BEC4" stroke-width="1.5" stroke-linecap="round" stroke-linejoin="round"/>
  <path d="M3 10.2H6.6V21H3V10.2Z" stroke="#B9BEC4" stroke-width="1.5" stroke-linecap="round"
        stroke-linejoin="round"/>
</svg>
