<svg width="24" height="25" viewBox="0 0 24 25" fill="none" xmlns="http://www.w3.org/2000/svg">
  <path
    d="M12.751 9.75976H5.25098C4.0575 9.75976 2.91291 9.28566 2.069 8.44174C1.22508 7.59783 0.750977 6.45324 0.750977 5.25976C0.750977 4.06629 1.22508 2.9217 2.069 2.07778C2.91291 1.23387 4.0575 0.759766 5.25098 0.759766H17.251C18.2209 0.759562 19.1649 1.07272 19.9423 1.65259C20.7198 2.23247 21.2891 3.04801 21.5654 3.97771C21.8418 4.90741 21.8103 5.90151 21.4758 6.81188C21.1412 7.72226 20.5215 8.50019 19.709 9.02976"
    stroke="#212B3D" stroke-width="1.5" stroke-linecap="round" stroke-linejoin="round"/>
  <path
    d="M8.25098 18.7597H5.25098C4.0575 18.7597 2.91291 18.2856 2.069 17.4417C1.22508 16.5978 0.750977 15.4532 0.750977 14.2597C0.750977 13.0663 1.22508 11.9217 2.069 11.0778C2.91291 10.2339 4.0575 9.75977 5.25098 9.75977"
    stroke="#212B3D" stroke-width="1.5" stroke-linecap="round" stroke-linejoin="round"/>
  <path d="M10.501 5.25977H17.251" stroke="#212B3D" stroke-width="1.5" stroke-linecap="round"
        stroke-linejoin="round"/>
  <path
    d="M17.251 23.2598C20.5647 23.2598 23.251 20.5736 23.251 17.2598C23.251 13.9461 20.5647 11.2598 17.251 11.2598C13.9373 11.2598 11.251 13.9461 11.251 17.2598C11.251 20.5736 13.9373 23.2598 17.251 23.2598Z"
    stroke="#212B3D" stroke-width="1.5" stroke-linecap="round" stroke-linejoin="round"/>
  <path
    d="M15.376 16.1347C15.376 15.7639 15.4859 15.4014 15.692 15.0931C15.898 14.7847 16.1908 14.5444 16.5334 14.4025C16.8761 14.2606 17.2531 14.2234 17.6168 14.2958C17.9805 14.3681 18.3146 14.5467 18.5768 14.8089C18.839 15.0711 19.0176 15.4052 19.0899 15.769C19.1623 16.1327 19.1252 16.5097 18.9833 16.8523C18.8413 17.1949 18.601 17.4877 18.2927 17.6938C17.9843 17.8998 17.6218 18.0097 17.251 18.0097"
    stroke="#212B3D" stroke-width="1.5" stroke-linecap="round" stroke-linejoin="round"/>
  <path
    d="M5.25098 5.63477C5.04387 5.63477 4.87598 5.46688 4.87598 5.25977C4.87598 5.05267 5.04387 4.88477 5.25098 4.88477"
    stroke="#212B3D" stroke-width="1.5"/>
  <path
    d="M5.25098 5.63477C5.45808 5.63477 5.62598 5.46688 5.62598 5.25977C5.62598 5.05267 5.45808 4.88477 5.25098 4.88477"
    stroke="#212B3D" stroke-width="1.5"/>
  <path
    d="M5.25098 14.6348C5.04387 14.6348 4.87598 14.467 4.87598 14.2598C4.87598 14.0527 5.04387 13.8848 5.25098 13.8848"
    stroke="#212B3D" stroke-width="1.5"/>
  <path
    d="M5.25098 14.6348C5.45808 14.6348 5.62598 14.467 5.62598 14.2598C5.62598 14.0527 5.45808 13.8848 5.25098 13.8848"
    stroke="#212B3D" stroke-width="1.5"/>
  <path
    d="M17.251 21.0098C17.0439 21.0098 16.876 20.842 16.876 20.6348C16.876 20.4277 17.0439 20.2598 17.251 20.2598"
    stroke="black" stroke-width="1.5"/>
  <path
    d="M17.251 21.0098C17.4581 21.0098 17.626 20.842 17.626 20.6348C17.626 20.4277 17.4581 20.2598 17.251 20.2598"
    stroke="black" stroke-width="1.5"/>
</svg>
