<svg width="24" height="24" viewBox="0 0 24 24" fill="none" xmlns="http://www.w3.org/2000/svg">
  <g clip-path="url(#clip0_294_3651)">
    <path fill-rule="evenodd" clip-rule="evenodd"
          d="M10.8178 0.014361C10.5628 0.0626682 10.3186 0.222009 10.1748 0.433795C10.1216 0.512121 10.0574 0.650198 10.0305 0.743971L10.0085 0.820771L10.0034 1.81437C9.99872 2.73296 9.99707 2.81066 9.98158 2.84362C9.9579 2.89403 9.91081 2.94477 9.86491 2.96934L9.8256 2.99037L6.8112 2.99574C3.53672 3.00156 3.75325 2.99788 3.48708 3.05226C2.76178 3.20043 2.12356 3.68681 1.77956 4.35357C1.64541 4.6136 1.57588 4.82738 1.52354 5.14077L1.5027 5.26557L1.49774 10.0416L1.4928 14.8176L1.47045 14.863C1.44531 14.914 1.40551 14.9514 1.3488 14.9772C1.31658 14.9919 1.28445 14.9948 1.14923 14.995C0.953952 14.9952 0.830525 15.008 0.723264 15.0391C0.294634 15.1633 0 15.5541 0 15.9984C0 16.4904 0.350074 16.9029 0.838858 16.9869C0.914102 16.9999 1.29208 17.0016 4.0571 17.0016H7.19009L7.21917 16.9752C7.24745 16.9495 7.24852 16.9453 7.25802 16.824C7.29687 16.3274 7.46715 15.877 7.76547 15.4819C7.84546 15.3759 7.8528 15.3585 7.85279 15.2753C7.85278 15.1565 7.77757 15.0459 7.67237 15.0101C7.63334 14.9968 7.41485 14.9952 5.65989 14.995C3.77544 14.9948 3.68956 14.994 3.6528 14.9772C3.59504 14.9509 3.55623 14.9138 3.52875 14.8587L3.504 14.809L3.50412 10.1189C3.50421 6.08413 3.50614 5.42157 3.51795 5.37723C3.53893 5.29838 3.57724 5.22781 3.63096 5.16903C3.69118 5.10315 3.73884 5.07013 3.8256 5.0342L3.8928 5.00637L10.9711 5.00393C17.213 5.00178 18.0568 5.00318 18.1111 5.0158C18.2985 5.05926 18.4496 5.21412 18.4887 5.40284C18.4962 5.43923 18.4992 6.48104 18.4992 9.06163C18.4992 12.2648 18.5008 12.6742 18.5138 12.7109C18.5326 12.7642 18.5683 12.8106 18.6134 12.8405C18.6332 12.8535 18.9925 12.9857 19.4119 13.1343C19.8313 13.2828 20.1895 13.41 20.208 13.4169C20.3116 13.4558 20.4255 13.4056 20.4786 13.2978L20.5008 13.2528V9.30237C20.5008 5.0541 20.5033 5.27111 20.4516 5.01117C20.3138 4.31795 19.8985 3.72772 19.2878 3.35705C18.9423 3.14737 18.5624 3.03059 18.1416 3.00468C18.0561 2.99942 16.7904 2.99554 15.1008 2.99537C13.0747 2.99515 12.1953 2.99198 12.1694 2.98479C12.1245 2.97232 12.0539 2.90931 12.0256 2.8564L12.0048 2.81757L11.9998 1.82877L11.9948 0.839971L11.9695 0.748771C11.8705 0.391555 11.6026 0.124089 11.2512 0.0317274C11.1352 0.00123777 10.9303 -0.00697023 10.8178 0.014361ZM16.4352 14.0024C16.422 14.0047 16.3939 14.0112 16.3728 14.0169C16.3517 14.0226 14.749 14.5932 12.8112 15.285C10.4387 16.132 9.27021 16.5535 9.23354 16.5756C9.11365 16.6479 9.0226 16.7885 9.00434 16.9296C8.99767 16.9811 8.99533 17.7258 8.99721 19.1952L9.00001 21.384L9.02096 21.4574C9.13662 21.8627 9.53326 22.0968 9.93556 21.9971C10.1947 21.9329 10.4016 21.7271 10.4794 21.456C10.4966 21.3963 10.4975 21.3199 10.5 19.7005C10.5026 18.1005 10.5037 18.0077 10.5194 18.0121C10.5285 18.0146 11.8342 18.5741 13.4208 19.2553C15.0074 19.9365 16.3291 20.5009 16.3577 20.5093C16.4171 20.5269 16.5607 20.5297 16.6266 20.5145C16.6843 20.5012 23.7627 17.4678 23.8189 17.4323C23.8753 17.3967 23.9535 17.3143 23.9797 17.2628C23.9985 17.226 24 17.2079 24 17.0109C24 16.8692 23.9963 16.7917 23.9889 16.7777C23.9828 16.7662 23.9586 16.7317 23.9351 16.701C23.846 16.5847 24.1162 16.6869 20.2368 15.3016C18.2964 14.6087 16.6832 14.0337 16.6519 14.0238C16.5949 14.0058 16.4803 13.9945 16.4352 14.0024ZM4.45198 18.0137C4.40817 18.0293 4.35666 18.0675 4.3314 18.1032C4.30249 18.1439 2.02602 22.7115 2.00559 22.7697C1.93604 22.968 1.94352 23.2396 2.02427 23.448C2.10749 23.6627 2.28096 23.8591 2.47787 23.9615L2.55173 24H2.95619H3.36063L3.41072 23.9747C3.58036 23.8892 3.7494 23.7225 3.83781 23.5536C3.84886 23.5325 4.15464 22.9212 4.51731 22.1952C4.87999 21.4692 5.18002 20.8709 5.18405 20.8656C5.18807 20.8603 5.47785 20.2836 5.82798 19.584C6.44803 18.345 6.46468 18.3104 6.46816 18.2496C6.47125 18.1959 6.46798 18.1798 6.44467 18.1344C6.41455 18.0758 6.35625 18.0257 6.29976 18.01C6.27627 18.0035 5.9594 18.0002 5.376 18.0004C4.65919 18.0007 4.48106 18.0033 4.45198 18.0137ZM12.1727 19.842C12.0973 19.8666 12.0422 19.9179 12.0151 19.9887C12.0005 20.027 11.9994 20.1046 12.0027 20.8801C12.0066 21.8127 12.0032 21.7561 12.067 21.9467C12.1715 22.2585 12.3947 22.5126 12.6972 22.6641C12.7872 22.7091 16.0761 23.9331 16.1664 23.9551C16.3844 24.0083 16.6153 23.9994 16.8289 23.9298C16.9837 23.8793 20.2424 22.6642 20.3071 22.6328C20.5956 22.493 20.8333 22.22 20.9376 21.9087C21.0004 21.7213 21 21.7279 21 20.8272V20.0112L20.9702 19.9584C20.936 19.8977 20.8856 19.8586 20.8196 19.8414C20.7808 19.8313 20.7651 19.8318 20.7188 19.8447C20.6887 19.8531 20.137 20.0856 19.4928 20.3612C17.4935 21.2168 17.0281 21.4143 16.9511 21.4401C16.6554 21.5387 16.2892 21.5322 15.9991 21.423C15.963 21.4094 15.1123 21.0477 14.1087 20.6191C12.2457 19.8236 12.2384 19.8207 12.1727 19.842Z"
          fill="white"/>
  </g>
  <defs>
    <clipPath id="clip0_294_3651">
      <rect width="24" height="24" fill="white"/>
    </clipPath>
  </defs>
</svg>
