<svg width="18" height="18" viewBox="0 0 18 18" fill="none" xmlns="http://www.w3.org/2000/svg">
<path d="M1.66326 0.369191C2.01978 0.164596 2.40654 0.0437656 2.81886 0.00816883C2.85859 0.00474163 5.3722 0.00236563 8.42766 0.00287683L13.9645 0.00380563L14.0313 0.0193864C14.2936 0.0805936 14.5028 0.210467 14.6553 0.406811C14.7859 0.575039 14.8573 0.758157 14.8755 0.971428C14.8808 1.03438 14.8825 1.85386 14.8809 3.65761C14.8787 6.14039 14.8781 6.25507 14.8656 6.29596C14.8143 6.46388 14.6829 6.59387 14.5191 6.63881C14.4702 6.65221 14.449 6.65394 14.3682 6.65113C14.2904 6.64843 14.2656 6.64471 14.2255 6.62965C14.0816 6.57568 13.9733 6.46606 13.9219 6.32246L13.8997 6.26041L13.8961 3.64681C13.8929 1.36165 13.8911 1.0312 13.8819 1.01722C13.876 1.00843 13.8631 0.997859 13.8531 0.993741C13.8405 0.988564 12.1354 0.986836 8.34126 0.988154L2.84766 0.990062L2.76126 1.00595C2.24877 1.10022 1.84055 1.36526 1.56157 1.78487C1.41886 1.99952 1.33616 2.21618 1.28371 2.51281C1.27247 2.57641 1.27146 2.98124 1.26938 8.27785L1.26715 13.9745L1.34461 13.9274C1.61894 13.7605 1.94744 13.6525 2.27166 13.6225C2.32371 13.6177 3.35684 13.6152 5.28551 13.6152C8.18952 13.6152 8.22074 13.6154 8.27606 13.6295C8.36107 13.6513 8.42564 13.6889 8.49242 13.7556C8.59226 13.8554 8.63163 13.9431 8.63786 14.0796C8.64244 14.1803 8.6294 14.2457 8.58826 14.328C8.53336 14.4379 8.42621 14.53 8.29806 14.5775C8.26331 14.5904 8.16016 14.591 5.31006 14.595C2.67391 14.5988 2.35152 14.6004 2.29686 14.6105C2.0179 14.6619 1.80102 14.7733 1.61862 14.959C1.54263 15.0364 1.52326 15.0604 1.46387 15.1504C1.37216 15.2894 1.30875 15.4573 1.28091 15.6348C1.27594 15.6665 1.27188 15.7443 1.27188 15.8076C1.27188 16.0063 1.30636 16.1568 1.39392 16.3404C1.53831 16.6432 1.83953 16.8902 2.16726 16.9744C2.181 16.9779 2.19056 16.9811 2.20021 16.9839C2.29387 17.0116 2.39636 17.0095 6.41166 17.0133C10.2864 17.017 10.5035 17.0179 10.5445 17.0299C10.7184 17.0809 10.8628 17.2297 10.8976 17.394C10.9125 17.4643 10.9109 17.569 10.8938 17.6357C10.8594 17.7704 10.7589 17.8914 10.6294 17.954C10.6196 17.9587 10.6141 17.963 10.6082 17.9668C10.5518 18.0036 10.4692 18.0002 6.36486 17.998C2.36202 17.9959 2.23062 17.998 2.1054 17.9712C2.09165 17.9682 2.07798 17.9649 2.05926 17.9612C1.38278 17.8282 0.806035 17.3862 0.507826 16.7724C0.395398 16.541 0.337567 16.3489 0.297571 16.074C0.285698 15.9924 0.28487 15.6219 0.282595 9.37801C0.280961 4.88508 0.282581 2.72345 0.287642 2.62801C0.298997 2.41426 0.319999 2.2708 0.367843 2.08024C0.427466 1.84276 0.521808 1.60821 0.642725 1.39681C0.885804 0.971846 1.24717 0.607965 1.66326 0.369191Z" fill="currentColor"/>
<path fill-rule="evenodd" clip-rule="evenodd" d="M12.8144 8.01884C12.8371 8.01216 12.8767 8.0048 12.9024 8.00247C12.9707 7.9963 13.0285 8.00158 13.0896 8.01956C13.1378 8.03373 17.4905 9.94665 17.6396 10.0192C17.6876 10.0426 17.7124 10.0609 17.7584 10.1071C17.8228 10.172 17.8547 10.2211 17.8835 10.2999L17.9028 10.3527V12.0663L17.8828 12.1255C17.8345 12.2681 17.7093 12.3925 17.568 12.4383C17.4958 12.4617 17.3653 12.4649 17.2876 12.4453C17.1243 12.404 16.9853 12.2652 16.9368 12.0951C16.9261 12.0574 16.924 11.9985 16.9205 11.6335L16.9164 11.215L15.9444 11.6434L15.9406 12.8341C15.9371 13.9549 15.9361 14.0272 15.9238 14.0679C15.9047 14.1317 15.856 14.2185 15.8126 14.2664C15.6936 14.398 15.3514 14.6549 15.0869 14.8112C13.7311 15.6125 12.159 15.6099 10.8072 14.804C10.5948 14.6773 10.4103 14.5461 10.227 14.3911C10.1141 14.2956 10.0591 14.2349 10.0237 14.1665C10.014 14.1478 10.006 14.1354 9.99942 14.1223C9.96468 14.0535 9.96822 13.9654 9.96482 12.8377L9.96122 11.6435L9.12242 11.2742C8.66108 11.071 8.26422 10.894 8.24051 10.8808C8.21681 10.8675 8.17282 10.8324 8.14277 10.8026C7.92476 10.5867 7.96183 10.2136 8.21778 10.0475C8.26594 10.0163 12.7463 8.03895 12.8144 8.01884ZM9.72009 10.4571C9.72009 10.4571 10.445 10.1337 11.331 9.74288C12.2171 9.35203 12.9477 9.03289 12.9546 9.03368C12.9701 9.03545 16.1855 10.4521 16.1855 10.4571C16.1855 10.4571 15.458 10.7811 14.569 11.1727L12.9526 11.8848L10.9495 11.0023C10.2733 10.7044 9.72009 10.4571 9.72009 10.4571ZM10.9512 13.7113V12.897C10.9512 12.1248 10.9519 12.0828 10.9638 12.0863C10.9708 12.0884 11.3814 12.2688 11.8764 12.4873C12.4528 12.7418 12.7969 12.8899 12.8335 12.8993C12.9088 12.9187 13.0344 12.9152 13.1016 12.8919C13.126 12.8835 13.5472 12.6996 14.0376 12.4833C14.528 12.267 14.9349 12.0883 14.9418 12.0863C14.9538 12.0828 14.9544 12.1248 14.9544 12.8967V13.7107L14.9022 13.7516C14.8735 13.7742 14.7998 13.8258 14.7384 13.8664C13.7812 14.4995 12.6696 14.599 11.6649 14.1415C11.5544 14.0912 11.3955 14.0088 11.304 13.9543C11.2266 13.9082 11.0469 13.7869 10.9926 13.744L10.9512 13.7113Z" fill="currentColor"/>
</svg>
