<svg width="12" height="12" viewBox="0 0 12 12" fill="none" xmlns="http://www.w3.org/2000/svg">
<path fill-rule="evenodd" clip-rule="evenodd" d="M11.6623 3.63181C11.7229 3.65612 11.7749 3.69802 11.8114 3.75211C11.848 3.80621 11.8676 3.87001 11.8676 3.93531C11.8676 4.00062 11.848 4.06442 11.8114 4.11852C11.7749 4.17261 11.7229 4.21451 11.6623 4.23882L6.28131 6.40882C6.07031 6.49382 5.83431 6.49332 5.62431 6.40732L1.62981 4.77232V8.72282C1.81814 8.80672 1.97804 8.94354 2.09006 9.11663C2.20209 9.28972 2.26141 9.49164 2.26081 9.69781V11.4238C2.26081 11.4901 2.23447 11.5537 2.18758 11.6006C2.1407 11.6475 2.07711 11.6738 2.01081 11.6738H0.376307C0.310003 11.6738 0.246414 11.6475 0.19953 11.6006C0.152646 11.5537 0.126307 11.4901 0.126307 11.4238V9.69781C0.126307 9.26131 0.384807 8.88782 0.757807 8.72232V4.41532L0.324307 4.23831C0.264201 4.21366 0.212787 4.17169 0.176601 4.11773C0.140415 4.06378 0.121094 4.00028 0.121094 3.93531C0.121094 3.87035 0.140415 3.80685 0.176601 3.7529C0.212787 3.69894 0.264201 3.65697 0.324307 3.63231L5.62431 1.46331C5.83431 1.37731 6.07031 1.37681 6.28131 1.46181L11.6623 3.63181ZM6.52581 7.01582L9.45081 5.83632V7.75482C9.4519 7.82035 9.43676 7.88514 9.40675 7.94342C9.37675 8.00169 9.33279 8.05164 9.27881 8.08882C8.83481 8.38682 7.57031 9.12582 5.95381 9.12582C4.33681 9.12582 3.13031 8.38582 2.71081 8.08882C2.65978 8.05158 2.61846 8.00261 2.59035 7.94605C2.56224 7.88948 2.54816 7.82697 2.54931 7.76382V5.85582L5.37631 7.01282C5.74461 7.16359 6.15722 7.16466 6.52631 7.01582H6.52581Z" fill="white"/>
</svg>
