<svg xmlns="http://www.w3.org/2000/svg" width="24" height="24" viewBox="0 0 24 24" fill="none">
    <path fill-rule="evenodd" clip-rule="evenodd"
          d="M23.3246 7.25875C23.4458 7.30736 23.5497 7.39116 23.6229 7.49935C23.6961 7.60753 23.7352 7.73514 23.7352 7.86575C23.7352 7.99635 23.6961 8.12397 23.6229 8.23215C23.5497 8.34033 23.4458 8.42413 23.3246 8.47275L12.5626 12.8127C12.1406 12.9827 11.6686 12.9817 11.2486 12.8097L3.25961 9.53975V17.4407C3.63628 17.6086 3.95608 17.8822 4.18013 18.2284C4.40417 18.5746 4.52281 18.9784 4.52161 19.3907V22.8427C4.52161 22.9754 4.46894 23.1025 4.37517 23.1963C4.2814 23.2901 4.15422 23.3427 4.02161 23.3427H0.752614C0.620005 23.3427 0.492828 23.2901 0.39906 23.1963C0.305292 23.1025 0.252614 22.9754 0.252614 22.8427V19.3907C0.252614 18.5177 0.769614 17.7707 1.51561 17.4397V8.82575L0.648614 8.47175C0.528403 8.42244 0.425573 8.33849 0.353202 8.23058C0.28083 8.12267 0.242187 7.99568 0.242188 7.86575C0.242187 7.73582 0.28083 7.60882 0.353202 7.50091C0.425573 7.393 0.528403 7.30906 0.648614 7.25975L11.2486 2.92175C11.6686 2.74975 12.1406 2.74875 12.5626 2.91875L23.3246 7.25875ZM13.0516 14.0267L18.9016 11.6677V15.5047C18.9038 15.6358 18.8735 15.7654 18.8135 15.882C18.7535 15.9985 18.6656 16.0984 18.5576 16.1727C17.6696 16.7687 15.1406 18.2467 11.9076 18.2467C8.67361 18.2467 6.26061 16.7667 5.42161 16.1727C5.31956 16.0983 5.23693 16.0003 5.18071 15.8872C5.12449 15.7741 5.09633 15.6491 5.09861 15.5227V11.7067L10.7526 14.0207C11.4892 14.3223 12.3144 14.3244 13.0526 14.0267H13.0516Z"
          fill="white"/>
</svg>
