<svg width="24" height="24" viewBox="0 0 24 24" fill="none" xmlns="http://www.w3.org/2000/svg">
<path d="M17.25 5.24896V2.24896C17.2506 2.01745 17.1975 1.78896 17.095 1.58138C16.9926 1.37379 16.8434 1.19274 16.6593 1.0524C16.4752 0.912062 16.2611 0.816244 16.0338 0.772448C15.8065 0.728652 15.5721 0.738067 15.349 0.799956L4.849 3.71996C4.5275 3.82572 4.24782 4.0307 4.05017 4.30544C3.85252 4.58018 3.74707 4.91051 3.749 5.24896" stroke="white" stroke-width="1.5" stroke-linecap="round" stroke-linejoin="round"/>
<path d="M3.75 21.7489C3.75 22.1467 3.90804 22.5283 4.18934 22.8096C4.47064 23.0909 4.85218 23.2489 5.25 23.2489H18.75C19.1478 23.2489 19.5294 23.0909 19.8107 22.8096C20.092 22.5283 20.25 22.1467 20.25 21.7489V6.74292C20.25 6.3451 20.092 5.96356 19.8107 5.68226C19.5294 5.40095 19.1478 5.24292 18.75 5.24292L3.75 5.24892V21.7489Z" stroke="white" stroke-width="1.5" stroke-linecap="round" stroke-linejoin="round"/>
<path d="M12.531 9.57189L13.779 12.0289H15.906C16.0229 12.0266 16.1378 12.0594 16.2357 12.1232C16.3337 12.1869 16.4103 12.2787 16.4554 12.3865C16.5006 12.4943 16.5123 12.6132 16.4891 12.7277C16.4658 12.8423 16.4087 12.9472 16.325 13.0289L14.372 14.9509L15.454 17.4359C15.5014 17.5497 15.5119 17.6754 15.484 17.7954C15.4561 17.9155 15.3913 18.0237 15.2987 18.105C15.206 18.1863 15.0903 18.2364 14.9676 18.2484C14.845 18.2604 14.7217 18.2337 14.615 18.1719L12 16.6999L9.38503 18.1699C9.27841 18.2317 9.15509 18.2584 9.03245 18.2464C8.90981 18.2344 8.79403 18.1843 8.70139 18.103C8.60876 18.0217 8.54395 17.9135 8.51608 17.7934C8.48821 17.6734 8.49868 17.5477 8.54603 17.4339L9.62803 14.9489L7.67503 13.0259C7.5914 12.9442 7.53425 12.8393 7.511 12.7247C7.48774 12.6102 7.49946 12.4913 7.54464 12.3835C7.58981 12.2757 7.66635 12.1839 7.76432 12.1202C7.86229 12.0564 7.97716 12.0236 8.09403 12.0259H10.221L11.47 9.57189C11.521 9.4754 11.5974 9.39463 11.6908 9.3383C11.7843 9.28197 11.8914 9.2522 12.0005 9.2522C12.1097 9.2522 12.2167 9.28197 12.3102 9.3383C12.4037 9.39463 12.48 9.4754 12.531 9.57189Z" fill="white"/>
</svg>
