
<svg xmlns="http://www.w3.org/2000/svg" width="18" height="18" viewBox="0 0 18 18" fill="none">
  <path fill-rule="evenodd" clip-rule="evenodd" d="M6.97083 0.00740522C6.78665 0.0296604 6.6202 0.0789012 6.44883 0.161838C5.97408 0.39159 5.64098 0.854212 5.57006 1.38232C5.56448 1.4239 5.55984 1.46358 5.55977 1.47052C5.55964 1.48243 5.51955 1.48312 4.81983 1.48312C4.11671 1.48312 4.07575 1.48382 3.99363 1.49736C3.80258 1.52885 3.62891 1.60032 3.47213 1.71196C3.31483 1.82399 3.15924 2.01056 3.08311 2.17846L3.06213 2.22472H2.08963C1.2541 2.22472 1.10675 2.22626 1.04338 2.23572C0.724455 2.28331 0.438205 2.45452 0.24667 2.71224C0.116192 2.88782 0.0392454 3.07633 0.0121734 3.28672C0.00220864 3.36418 0.00129424 4.07422 0.00331744 10.1519C0.00537664 16.3484 0.00656464 16.9354 0.0171486 16.9847C0.0474894 17.1262 0.0752526 17.2104 0.125588 17.3136C0.240723 17.5498 0.429248 17.742 0.664342 17.8631C0.779319 17.9222 0.863905 17.9513 1.01643 17.984C1.06575 17.9946 1.59367 17.9958 7.10763 17.9978C12.5352 17.9999 13.1536 17.999 13.2312 17.9889C13.7811 17.9177 14.2024 17.4999 14.2875 16.9415C14.2949 16.893 14.2968 16.5929 14.2968 15.4943C14.2968 14.1708 14.2962 14.1062 14.2836 14.0616C14.2383 13.9018 14.1228 13.7802 13.9648 13.7257C13.9155 13.7087 13.8967 13.7061 13.8216 13.706C13.6819 13.7058 13.5895 13.7406 13.4933 13.8297C13.4118 13.9052 13.3607 13.9931 13.3431 14.0887C13.3381 14.1155 13.3356 14.5722 13.3356 15.4547C13.3356 16.3815 13.3333 16.7933 13.3278 16.823C13.3094 16.9221 13.2377 17.0003 13.141 17.0268C13.1158 17.0337 11.8176 17.0351 7.13283 17.0335L1.15683 17.0315L1.11721 17.0129C1.06658 16.9892 1.01197 16.9346 0.988212 16.8839L0.969629 16.8443V10.1123V3.38032L0.988983 3.33902C1.0123 3.28929 1.06456 3.23565 1.11363 3.21112L1.14963 3.19312L2.05391 3.19121L2.95818 3.1893L2.96275 3.37481C2.96741 3.564 2.97602 3.64406 3.00301 3.74907C3.11358 4.17938 3.45603 4.52062 3.8859 4.62887C4.04047 4.66779 3.83801 4.66552 7.14806 4.66552C9.86915 4.66552 10.2138 4.66429 10.2819 4.65438C10.5431 4.61637 10.7695 4.50568 10.9586 4.32352C11.1251 4.16324 11.233 3.9808 11.2934 3.75734C11.3238 3.64477 11.334 3.54468 11.334 3.35839V3.18935L12.2394 3.19124L13.1448 3.19312L13.1844 3.21179C13.2369 3.23657 13.2824 3.28338 13.3097 3.34072L13.332 3.38752L13.3356 4.76272L13.3392 6.13792L13.3545 6.18237C13.38 6.25663 13.4211 6.32144 13.4798 6.38018C13.5246 6.42497 13.5476 6.44135 13.6027 6.46778C13.6841 6.50689 13.7244 6.51592 13.8172 6.51592C13.9589 6.51592 14.0546 6.47544 14.1575 6.372C14.2079 6.32131 14.2252 6.29792 14.2485 6.24887C14.3005 6.1398 14.2968 6.25405 14.2968 4.72672C14.2968 3.24404 14.298 3.2965 14.2603 3.14632C14.1592 2.74422 13.8565 2.41711 13.4648 2.28658C13.4234 2.27281 13.3572 2.25418 13.3176 2.24519L13.2456 2.22882L12.2421 2.22497L11.2385 2.22112L11.205 2.15632C11.0413 1.84 10.7549 1.60665 10.4268 1.52236C10.287 1.48643 10.3205 1.48784 9.50546 1.48355L8.73888 1.47952L8.73027 1.40181C8.69321 1.06732 8.53957 0.741906 8.30073 0.49208C8.06296 0.243371 7.76268 0.0831276 7.41723 0.0206028C7.32317 0.00357482 7.06554 -0.00404277 6.97083 0.00740522ZM7.05363 0.96939C6.79572 1.0107 6.58705 1.20816 6.535 1.46015C6.52227 1.52177 6.52045 1.64835 6.53148 1.70632C6.5574 1.84275 6.61705 1.95089 6.72069 2.04932C6.83986 2.16253 6.979 2.21752 7.14629 2.21752C7.26725 2.21752 7.38318 2.18757 7.46887 2.13419C7.67613 2.00509 7.7889 1.79067 7.77504 1.55205C7.7649 1.37736 7.6898 1.23014 7.54795 1.10688C7.49485 1.06075 7.38224 1.00124 7.31283 0.982624C7.26993 0.971125 7.09771 0.962327 7.05363 0.96939ZM4.09121 2.46373C4.0356 2.48508 3.96855 2.55257 3.94599 2.60992L3.929 2.65312L3.92892 3.07432L3.92883 3.49552L3.94554 3.5369C3.96741 3.59105 4.02092 3.64893 4.07397 3.6758L4.11603 3.69712H7.14723H10.1784L10.2194 3.67789C10.2718 3.65337 10.3219 3.60325 10.3464 3.55093L10.3656 3.50992V3.07432V2.63872L10.3464 2.59771C10.3219 2.54538 10.2718 2.49526 10.2194 2.47074L10.1784 2.45152L9.3355 2.44963L8.49257 2.44774L8.46803 2.48563C8.39101 2.60458 8.23076 2.77244 8.10483 2.86608C7.89506 3.02205 7.6748 3.11633 7.40643 3.16501C7.30511 3.18339 7.06805 3.1869 6.9488 3.17178C6.61122 3.12901 6.30126 2.98111 6.04302 2.7396C5.98893 2.689 5.89864 2.5826 5.84288 2.50372L5.80344 2.44792L4.96693 2.44829C4.13599 2.44867 4.13017 2.44877 4.09121 2.46373ZM16.0248 5.94755C15.6811 5.98318 15.3684 6.10802 15.0924 6.3198C15.0154 6.37889 10.4951 10.8943 10.4561 10.9511C10.4411 10.9729 10.4232 11.0018 10.4162 11.0154C10.3948 11.057 9.6427 13.6996 9.63535 13.759C9.62416 13.8494 9.64255 13.9555 9.68344 14.0363C9.77197 14.2115 9.97646 14.3195 10.1688 14.2927C10.2164 14.2861 12.7027 13.5815 12.855 13.5315C12.9765 13.4916 12.8336 13.6299 15.2696 11.1935C16.5055 9.95733 17.5394 8.91838 17.5672 8.88472C17.7917 8.61239 17.9245 8.30884 17.9735 7.95592C17.9877 7.85317 17.9858 7.58373 17.97 7.48072C17.891 6.96452 17.6128 6.52489 17.184 6.23874C16.9632 6.09137 16.7286 6.00214 16.4432 5.95696C16.3621 5.94413 16.1121 5.93851 16.0248 5.94755ZM2.58038 6.68165C2.41484 6.72502 2.27526 6.86598 2.23696 7.02847C2.22135 7.09466 2.22293 7.20707 2.24041 7.27544C2.26142 7.35759 2.29729 7.41674 2.3693 7.48798C2.43536 7.55332 2.48295 7.58288 2.56803 7.61141L2.61843 7.62832L7.10043 7.63043C10.2073 7.6319 11.6029 7.63023 11.6491 7.62496C11.6857 7.62079 11.7371 7.60932 11.7632 7.59947C11.897 7.54911 12.0127 7.42687 12.0561 7.28992C12.0793 7.21652 12.0789 7.08172 12.0552 7.00552C12.0067 6.84942 11.8736 6.72099 11.7194 6.68155C11.6632 6.66718 11.6432 6.66712 7.14788 6.66751C2.72876 6.6679 2.63171 6.6682 2.58038 6.68165ZM16.0608 6.91615C15.9371 6.93792 15.8036 6.99333 15.7078 7.06264C15.6842 7.07974 14.6791 8.07909 13.4742 9.28342L11.2836 11.4731L11.0501 12.2902C10.9217 12.7397 10.8175 13.1081 10.8184 13.1091C10.8194 13.1101 11.1874 13.0059 11.6362 12.8777L12.4522 12.6445L14.6224 10.4748C15.816 9.28148 16.815 8.27758 16.8423 8.24392C16.8969 8.17673 16.9608 8.05662 16.9857 7.97433C17.1007 7.59422 16.9283 7.18223 16.5779 6.99992C16.4215 6.91856 16.2266 6.88698 16.0608 6.91615ZM2.64003 9.63144C2.45291 9.65753 2.2906 9.79886 2.24089 9.97897C2.22407 10.0399 2.22071 10.154 2.23383 10.2182C2.23813 10.2391 2.25628 10.2868 2.27416 10.3241C2.30078 10.3796 2.31668 10.4017 2.36181 10.4465C2.42455 10.5087 2.48779 10.5484 2.56083 10.5715L2.61123 10.5875H6.21123H9.81123L9.86163 10.5715C10.0041 10.5264 10.1302 10.4014 10.1759 10.2599C10.1863 10.228 10.1922 10.1866 10.1946 10.1298C10.2011 9.97694 10.1623 9.87851 10.0529 9.76968C9.98784 9.70496 9.92839 9.6688 9.84363 9.6424C9.80648 9.63083 9.58297 9.63002 6.23283 9.62925C4.26867 9.62879 2.65191 9.62978 2.64003 9.63144ZM2.58 12.6073C2.49875 12.6286 2.43322 12.6672 2.36656 12.7331C2.26731 12.8312 2.22634 12.931 2.22614 13.0753C2.22594 13.2171 2.26564 13.3108 2.36995 13.4146C2.42064 13.465 2.44402 13.4823 2.49308 13.5056C2.52638 13.5215 2.57145 13.5388 2.59323 13.5442C2.62619 13.5523 3.14106 13.5539 5.66403 13.5539C8.58428 13.5539 8.69694 13.5534 8.74191 13.5407C8.90579 13.4942 9.02993 13.3729 9.08201 13.2083C9.10094 13.1485 9.10428 13.0241 9.08869 12.9599C9.04649 12.7863 8.8897 12.6356 8.71468 12.6004C8.68803 12.595 7.76494 12.5928 5.65468 12.5931C2.69741 12.5935 2.6317 12.5938 2.58 12.6073Z" fill="currentColor"/>
  <defs>
  <rect width="18" height="18" fill="currentColor" transform="translate(0.000976562)"/>
  </defs>
  </svg>
  
