<svg width="18" height="18" viewBox="0 0 18 18" fill="none" xmlns="http://www.w3.org/2000/svg">
<path fill-rule="evenodd" clip-rule="evenodd" d="M6.27472 0.00656325C6.1439 0.0198545 5.99658 0.0493456 5.89312 0.0829552C5.3328 0.264986 4.94844 0.717959 4.81972 1.34797C4.77857 1.54936 4.78072 1.39024 4.78072 4.23348C4.78072 5.93879 4.78325 6.87776 4.78798 6.92632C4.82166 7.27231 4.92074 7.54086 5.10536 7.78652C5.33421 8.09104 5.70504 8.31292 6.12712 8.39786C6.31253 8.43517 6.10412 8.4324 8.94952 8.4354C10.8478 8.4374 11.6166 8.43594 11.6891 8.43016C12.0345 8.40266 12.3133 8.30278 12.5616 8.11757C12.8781 7.88153 13.0926 7.52197 13.1827 7.07649C13.2209 6.8876 13.2191 7.02543 13.2191 4.20318C13.2191 2.41419 13.2167 1.56049 13.2115 1.50674C13.1757 1.13807 13.0573 0.839682 12.8471 0.58869C12.6214 0.319166 12.2784 0.123347 11.8885 0.0413105C11.694 0.000378455 11.9346 0.00366165 9.01432 0.00212085C7.53922 0.00134325 6.3064 0.00334485 6.27472 0.00656325ZM6.37392 1.12978C6.29802 1.13712 6.21439 1.16015 6.1618 1.18818C6.11878 1.2111 6.05452 1.27122 6.02223 1.31876C5.96967 1.39612 5.92642 1.525 5.91124 1.64948C5.90532 1.69811 5.90377 2.40987 5.90552 4.28649L5.90792 6.85689L5.92321 6.92277C5.9441 7.01275 5.9753 7.0748 6.028 7.13114C6.10064 7.20879 6.20402 7.2608 6.35121 7.29376L6.42592 7.31049H9.02152C11.8411 7.31049 11.6638 7.31304 11.7804 7.27072C11.8487 7.24595 11.8871 7.22 11.9399 7.1629C12.0115 7.08558 12.0665 6.94824 12.0882 6.79287C12.0984 6.71891 12.0989 1.74034 12.0886 1.6164C12.0802 1.51425 12.067 1.45954 12.0347 1.39185C12.0109 1.34211 11.9539 1.27714 11.9045 1.2436C11.8621 1.21474 11.788 1.18066 11.7285 1.16263C11.5861 1.11945 11.7673 1.12206 8.98192 1.1231C7.58008 1.12362 6.40648 1.12662 6.37392 1.12978ZM1.48312 9.57128C1.15418 9.60493 0.891462 9.70418 0.648959 9.88643C0.377771 10.0902 0.17625 10.3984 0.0730738 10.7669C0.0464338 10.8621 0.018037 11.0078 0.00760423 11.1028C0.00230503 11.151 -5.65723e-05 11.9869 1.0277e-06 13.7992C8.02277e-05 16.6569 -0.00190697 16.5116 0.0399466 16.7153C0.170979 17.3531 0.639325 17.8052 1.32472 17.9554C1.51986 17.9982 1.27778 17.9947 4.18312 17.9973C6.89828 17.9998 6.91904 17.9996 7.08112 17.9728C7.76385 17.8597 8.2552 17.3674 8.39891 16.6525C8.4362 16.4669 8.43343 16.6754 8.43644 13.8301C8.43929 11.1287 8.43893 11.087 8.41208 10.9213C8.34787 10.5252 8.15353 10.1851 7.85512 9.94671C7.64977 9.78265 7.37169 9.6563 7.09192 9.59993C6.90651 9.56258 7.11885 9.56528 4.24072 9.56361C2.11779 9.56239 1.55475 9.56395 1.48312 9.57128ZM11.0447 9.57128C10.6881 9.60776 10.4013 9.72476 10.1481 9.9371C9.87913 10.1627 9.67969 10.5162 9.60096 10.9069C9.56364 11.0922 9.56641 10.8838 9.56341 13.7293C9.56141 15.6276 9.56287 16.3964 9.56865 16.4689C9.59657 16.8195 9.69656 17.0958 9.88746 17.3498C10.0913 17.621 10.3994 17.8226 10.768 17.9257C10.8632 17.9524 11.0088 17.9808 11.1038 17.9912C11.1521 17.9965 11.9879 17.9989 13.8002 17.9988C16.6579 17.9987 16.5126 18.0007 16.7164 17.9589C17.354 17.8279 17.8062 17.3593 17.9565 16.6741C17.9992 16.4789 17.9957 16.721 17.9984 13.8157C18.0001 11.8876 17.9986 11.1379 17.9927 11.0725C17.9607 10.7174 17.8547 10.44 17.6524 10.1813C17.4285 9.89512 17.0626 9.68213 16.6535 9.5999C16.4678 9.56258 16.6803 9.56528 13.8023 9.56361C11.6794 9.56239 11.1163 9.56395 11.0447 9.57128ZM1.52632 10.7016C1.41613 10.7237 1.35083 10.7583 1.28333 10.8305C1.21035 10.9085 1.15822 11.0308 1.13417 11.1805C1.12446 11.2409 1.1232 11.5454 1.12334 13.7869C1.12343 15.3655 1.12612 16.352 1.13045 16.3965C1.1384 16.4782 1.15868 16.5587 1.18369 16.6079C1.25079 16.7398 1.40386 16.8299 1.61992 16.8646C1.68034 16.8743 1.98425 16.8756 4.22272 16.8754C5.69915 16.8753 6.78767 16.8724 6.83031 16.8686C6.9231 16.8602 6.98114 16.8454 7.04673 16.8132C7.18481 16.7456 7.28201 16.5697 7.30838 16.3399C7.31348 16.2953 7.31506 15.4562 7.31331 13.7077C7.311 11.3828 7.30967 11.1361 7.2992 11.0905C7.28328 11.021 7.25507 10.9488 7.2292 10.9112C7.17651 10.8346 7.0709 10.7638 6.95512 10.7274C6.83079 10.6884 7.01956 10.6908 4.18805 10.6916C2.0704 10.6921 1.56422 10.694 1.52632 10.7016ZM11.0879 10.7016C11.0254 10.7143 10.9508 10.7431 10.9125 10.7694C10.8147 10.8367 10.7413 10.9642 10.7068 11.1269L10.6916 11.1985L10.6936 13.8301C10.6955 16.3716 10.696 16.4633 10.709 16.5085C10.7563 16.6738 10.8672 16.7795 11.0519 16.8352C11.1948 16.8783 11.0154 16.8756 13.7879 16.8755C15.3665 16.8754 16.353 16.8727 16.3975 16.8684C16.4792 16.8604 16.5598 16.8401 16.6089 16.8151C16.7405 16.7482 16.831 16.5944 16.8657 16.3789C16.8754 16.3185 16.8766 16.0146 16.8764 13.7761C16.8763 12.2997 16.8735 11.2111 16.8696 11.1685C16.8613 11.0757 16.8464 11.0177 16.8143 10.9521C16.7616 10.8445 16.6409 10.7595 16.4766 10.7142L16.4051 10.6945L13.7699 10.6933C11.6209 10.6924 11.1261 10.6939 11.0879 10.7016Z" fill="currentColor"/>
</svg>
