<svg width="13" height="12" fill="none" xmlns="http://www.w3.org/2000/svg">
  <path
    d="M10.5714 10.708H1.14286C0.972361 10.708 0.808848 10.7757 0.688288 10.8963C0.567729 11.0169 0.5 11.1804 0.5 11.3509C0.5 11.5214 0.567729 11.6849 0.688288 11.8054C0.808848 11.926 0.972361 11.9937 1.14286 11.9937H10.5714C10.7419 11.9937 10.9054 11.926 11.026 11.8054C11.1466 11.6849 11.2143 11.5214 11.2143 11.3509C11.2143 11.1804 11.1466 11.0169 11.026 10.8963C10.9054 10.7757 10.7419 10.708 10.5714 10.708Z"
    fill="#8E97A3"/>
  <path
    d="M12.1236 1.27961L11.2142 0.370185C10.9692 0.136634 10.6437 0.00634766 10.3052 0.00634766C9.96667 0.00634766 9.64117 0.136634 9.39616 0.370185L3.64645 6.11904C3.58448 6.18139 3.54319 6.26129 3.52816 6.3479L3.07131 8.92361C3.06003 8.98592 3.0627 9.04996 3.07912 9.11112C3.09555 9.17228 3.12532 9.22903 3.1663 9.27731C3.20728 9.32558 3.25845 9.36418 3.31613 9.39032C3.37381 9.41645 3.43656 9.42948 3.49988 9.42847C3.5249 9.4287 3.54989 9.42641 3.57445 9.42161L6.15016 8.96733C6.23688 8.95206 6.31679 8.91046 6.37902 8.84818L12.1279 3.09933C12.3689 2.85822 12.5043 2.53125 12.5043 2.19033C12.5043 1.8494 12.3689 1.52243 12.1279 1.28133L12.1236 1.27961Z"
    fill="#8E97A3"/>
</svg>
