<svg width="18" height="18" viewBox="0 0 18 18" fill="none" xmlns="http://www.w3.org/2000/svg">
  <path fill-rule="evenodd" clip-rule="evenodd" d="M8.88837 0.803652C8.56522 0.829832 8.27085 0.941842 8.00637 1.13925C7.95362 1.17863 7.04108 2.08713 4.01661 5.11135C0.569307 8.55837 0.0917235 9.03849 0.0661851 9.0828C0.0101835 9.17994 -0.0113949 9.30079 0.00679226 9.41545C0.0304227 9.56448 0.131439 9.70114 0.268685 9.76973C0.347849 9.8093 0.398551 9.82111 0.489574 9.82121C0.609195 9.82133 0.699483 9.79229 0.788374 9.7251C0.804214 9.71313 2.56839 7.95291 4.70877 5.81351C7.65985 2.86377 8.61244 1.91569 8.65029 1.89065C8.7022 1.85631 8.7758 1.82486 8.85597 1.80277C8.89025 1.79333 8.92877 1.78987 8.99997 1.78987C9.07117 1.78987 9.10969 1.79333 9.14397 1.80277C9.22415 1.82486 9.29775 1.85631 9.34966 1.89065C9.38751 1.91569 10.3401 2.86377 13.2912 5.81351C15.4316 7.95291 17.1957 9.71313 17.2116 9.7251C17.3005 9.79229 17.3908 9.82133 17.5104 9.82121C17.6014 9.82111 17.6521 9.8093 17.7313 9.76973C17.8579 9.70642 17.9593 9.5789 17.9853 9.45C17.9901 9.42624 17.997 9.40117 18.0006 9.3943C18.0098 9.37686 18.0092 9.25709 18 9.26279C17.9959 9.2653 17.9928 9.25952 17.9928 9.24958C17.9928 9.21734 17.9632 9.13389 17.9337 9.0828C17.9085 9.03919 17.7581 8.88573 16.8183 7.94512L15.732 6.85784V4.95141C15.732 2.81968 15.7362 2.98859 15.6796 2.8728C15.6558 2.82424 15.637 2.7988 15.5882 2.74967C15.5198 2.68068 15.4639 2.64592 15.3792 2.61959L15.3252 2.6028H13.8168H12.3084L12.2463 2.62501C12.1203 2.67012 12.0198 2.75904 11.9624 2.87612C11.9442 2.91327 11.9267 2.96206 11.9216 2.98981L11.9127 3.03842L10.9873 2.11446C10.305 1.43317 10.044 1.17708 9.99357 1.13935C9.76009 0.964716 9.50688 0.858228 9.228 0.817383C9.1501 0.805978 8.95639 0.798144 8.88837 0.803652ZM12.8952 3.8034V4.02122L13.8204 4.9464L14.7456 5.87157V4.72859V3.5856H13.8204H12.8952V3.8034ZM0.00256586 9.33119C0.00256586 9.36881 0.00378266 9.3842 0.00526586 9.36539C0.00674906 9.34659 0.00674906 9.3158 0.00526586 9.297C0.00378266 9.27819 0.00256586 9.29358 0.00256586 9.33119ZM2.68464 9.97925C2.50629 10.0075 2.35003 10.1399 2.2916 10.3124L2.27157 10.3716L2.26972 13.2928L2.26787 16.214L1.61452 16.216L0.961174 16.218L0.903574 16.2376C0.75961 16.2864 0.634611 16.4119 0.589373 16.5528C0.570207 16.6125 0.563633 16.7306 0.575592 16.8003C0.580999 16.8319 0.596983 16.8779 0.617136 16.92C0.644856 16.9779 0.659422 16.9979 0.711931 17.0503C0.782902 17.121 0.840228 17.156 0.925174 17.1806L0.982774 17.1972H8.99997H17.0172L17.0748 17.1806C17.1597 17.156 17.217 17.121 17.288 17.0503C17.3405 16.9979 17.3551 16.9779 17.3828 16.92C17.403 16.8779 17.4189 16.8319 17.4244 16.8003C17.4363 16.7306 17.4297 16.6125 17.4106 16.5528C17.3653 16.4119 17.2403 16.2864 17.0964 16.2376L17.0388 16.218L16.3854 16.216L15.7321 16.214L15.7302 13.2928L15.7284 10.3716L15.7083 10.3124C15.6609 10.1723 15.5373 10.0466 15.4026 10.0014C15.13 9.90983 14.8476 10.0575 14.7625 10.3361C14.7499 10.377 14.7493 10.5021 14.7474 13.2966L14.7455 16.2144H12.9709H11.1963L11.1941 14.1138C11.1921 12.1397 11.1912 12.0086 11.1792 11.9376C11.1171 11.5712 10.9676 11.2715 10.7244 11.0262C10.4721 10.7718 10.1599 10.6135 9.79917 10.5573C9.72368 10.5455 9.65312 10.5444 8.99997 10.5444C8.34683 10.5444 8.27627 10.5455 8.20077 10.5573C7.83995 10.6135 7.52741 10.772 7.27557 11.0263C7.03271 11.2715 6.88115 11.5743 6.8212 11.934C6.80865 12.0093 6.8079 12.1162 6.80585 14.1138L6.80369 16.2144H5.02909H3.2545L3.25253 13.2966C3.25064 10.4965 3.25003 10.3771 3.23743 10.3356C3.18703 10.1698 3.04773 10.0314 2.89028 9.99076C2.83476 9.97642 2.73703 9.97095 2.68464 9.97925ZM8.32224 11.5348C8.24602 11.5462 8.1443 11.5879 8.07117 11.6375C8.02334 11.67 7.94437 11.7479 7.90857 11.7978C7.86822 11.8542 7.83091 11.9332 7.81029 12.006L7.79397 12.0636L7.79209 14.139L7.7902 16.2144H8.99997H10.2097L10.2079 14.139L10.206 12.0636L10.1897 12.006C10.1561 11.8874 10.098 11.7904 10.0106 11.7068C9.94915 11.648 9.90807 11.6198 9.83282 11.5847C9.71134 11.528 9.76596 11.5317 9.02517 11.5301C8.66085 11.5293 8.34453 11.5314 8.32224 11.5348Z" fill="currentColor"/>
</svg>
