<svg height="100%" viewBox="0 0 24 25" width="100%" xmlns="http://www.w3.org/2000/svg">
  <path d="M1 8.00098L12 1.00098L23 8.00098" fill="none" fill-rule="evenodd" opacity="1" stroke="currentColor" stroke-linecap="round" stroke-linejoin="round" stroke-width="1.5"/>
  <path d="M17 2.00098L20 2.00098L20 4.00098" fill="none" fill-rule="evenodd" opacity="1" stroke="currentColor" stroke-linecap="round" stroke-linejoin="round" stroke-width="1.5"/>
  <path d="M12 12.2321C12 12.2321 13.717 9.65009 19.487 9.50409C19.5537 9.50229 19.6202 9.51399 19.6823 9.53829C19.7445 9.56269 19.8012 9.59919 19.849 9.64589C19.8968 9.69249 19.9348 9.74819 19.9607 9.80969C19.9867 9.87119 20 9.93729 20 10.0041L20 20.2691C20 20.3996 19.949 20.525 19.8578 20.6185C19.7666 20.7119 19.6425 20.7659 19.512 20.7691C13.722 20.9081 12 23.4961 12 23.4961L12 12.2321ZM12 12.2321C12 12.2321 10.283 9.65009 4.513 9.50409C4.44625 9.50229 4.37983 9.51399 4.31766 9.53829C4.25549 9.56269 4.19883 9.59919 4.15101 9.64589C4.1032 9.69249 4.0652 9.74819 4.03926 9.80969C4.01333 9.87119 3.99998 9.93729 4 10.0041L4 20.2691C3.99996 20.3996 4.05099 20.525 4.14218 20.6185C4.23337 20.7119 4.35748 20.7659 4.488 20.7691C10.278 20.9081 12 23.4961 12 23.4961" fill="none" fill-rule="evenodd" opacity="1" stroke="currentColor" stroke-linecap="round" stroke-linejoin="round" stroke-width="1.5"/>
  <path d="M4.5 9.50011C4.43325 9.49831 4.37467 9.50706 4.3125 9.53136C4.25033 9.55576 4.20407 9.60966 4.15625 9.65636C4.10844 9.70296 4.05719 9.75111 4.03125 9.81261C4.00532 9.87411 3.99998 9.93332 4 10.0001L4 20.2814C3.99996 20.4119 4.06506 20.5316 4.15625 20.6251C4.24744 20.7185 4.36948 20.7782 4.5 20.7814C10.29 20.9204 12 23.5001 12 23.5001C12 23.5001 13.71 20.9204 19.5 20.7814C19.6305 20.7782 19.7526 20.7185 19.8438 20.6251C19.9349 20.5316 20 20.4119 20 20.2814L20 10.0001C20 9.93332 19.9948 9.87411 19.9688 9.81261C19.9428 9.75111 19.8915 9.70296 19.8438 9.65636C19.796 9.60966 19.7497 9.55576 19.6875 9.53136C19.6254 9.50706 19.5667 9.49831 19.5 9.50011C13.73 9.64611 12 12.2501 12 12.2501C12 12.2501 10.27 9.64611 4.5 9.50011Z" fill="currentColor" fill-rule="evenodd" opacity="1" stroke="none"/>
</svg>
