<svg width="24" height="24" viewBox="0 0 24 24" fill="none" xmlns="http://www.w3.org/2000/svg">
    <path fill-rule="evenodd" clip-rule="evenodd" d="M6.27789 2.4411C8.00702 1.40538 9.98469 0.858051 12.0003 0.857424C13.6773 0.856434 15.3328 1.23397 16.8436 1.96189C18.3543 2.6898 19.6813 3.74933 20.7256 5.06148C21.7699 6.37363 22.5045 7.90456 22.8747 9.54016C23.245 11.1758 23.2413 12.8738 22.8639 14.5078C22.4865 16.1417 21.7452 17.6695 20.6952 18.977C19.6453 20.2846 18.3137 21.3384 16.7998 22.0597C15.2858 22.781 13.6286 23.1513 11.9517 23.143C10.2747 23.1347 8.62126 22.748 7.11456 22.0117L0.857422 23.1431L2.72599 18.1717C1.60967 16.4935 0.969446 14.5439 0.873518 12.5306C0.777589 10.5173 1.22955 8.51568 2.18125 6.73892C3.13296 4.96217 4.54877 3.47683 6.27789 2.4411ZM6.0007 10.2864C5.05392 10.2864 4.28641 11.0539 4.28641 12.0007C4.28641 12.9475 5.05392 13.715 6.0007 13.715C6.94747 13.715 7.71498 12.9475 7.71498 12.0007C7.71498 11.0539 6.94747 10.2864 6.0007 10.2864ZM11.572 10.2864C10.6252 10.2864 9.8577 11.0539 9.8577 12.0007C9.8577 12.9475 10.6252 13.715 11.572 13.715C12.5188 13.715 13.2863 12.9475 13.2863 12.0007C13.2863 11.0539 12.5188 10.2864 11.572 10.2864ZM15.429 12.0007C15.429 11.0539 16.1965 10.2864 17.1433 10.2864C18.09 10.2864 18.8576 11.0539 18.8576 12.0007C18.8576 12.9475 18.09 13.715 17.1433 13.715C16.1965 13.715 15.429 12.9475 15.429 12.0007Z" fill="currentColor"/>
</svg>
